<svg width="9" height="15" viewBox="0 0 9 15" fill="none" xmlns="http://www.w3.org/2000/svg" preserveAspectRatio="none"><path fill-rule="evenodd" clip-rule="evenodd" d="M4.487 7.74c2.212 0 4.01-1.735 4.01-3.869C8.497 1.736 6.699 0 4.487 0 2.276 0 .477 1.736.477 3.871c0 2.134 1.799 3.87 4.01 3.87zm.009-5.471c.915 0 1.66.719 1.66 1.602 0 .884-.745 1.603-1.66 1.603-.915 0-1.66-.72-1.66-1.603S3.58 2.27 4.496 2.27z" fill="#fff"/><path d="M8.451 9.97a7.665 7.665 0 01-2.329.93l2.242 2.164c.46.443.46 1.161 0 1.604a1.204 1.204 0 01-1.66 0L4.5 12.54l-2.202 2.127c-.23.221-.531.332-.832.332-.3 0-.6-.11-.83-.332a1.107 1.107 0 010-1.604l2.24-2.163A7.675 7.675 0 01.55 9.97a1.111 1.111 0 01-.37-1.565 1.199 1.199 0 011.62-.357 5.247 5.247 0 005.398 0 1.199 1.199 0 011.62.357c.346.53.18 1.23-.368 1.563z" fill="#fff"/></svg>