<svg width="12" height="24" viewBox="0 0 12 24" fill="none" xmlns="http://www.w3.org/2000/svg" preserveAspectRatio="none"><path d="M7.765 12.79h3.2c0 1.435-.382 2.592-1.147 3.47-.99 1.142-2.26 1.713-3.809 1.713-1.36 0-2.497-.472-3.412-1.416-.925-.953-1.388-2.12-1.388-3.497 0-1.096.288-1.973.864-2.634.585-.67 1.576-1.256 2.973-1.756 1.388-.51 2.266-.92 2.634-1.232.378-.312.567-.793.567-1.444 0-.652-.199-1.166-.595-1.544-.387-.387-.906-.58-1.558-.58-.651 0-1.17.188-1.557.566-.387.378-.581.892-.581 1.543 0 .293.057.7.17 1.218h-3.3a28.916 28.916 0 00-.056-.651 9.662 9.662 0 01-.014-.51c0-1.491.505-2.733 1.515-3.724 1-.991 2.266-1.487 3.795-1.487 1.539 0 2.823.5 3.851 1.501 1.03 1 1.544 2.252 1.544 3.753 0 1.538-.514 2.78-1.544 3.724-.65.595-1.878 1.17-3.681 1.727-1.227.378-1.841.973-1.841 1.785 0 .226.043.443.127.65.095.2.218.374.369.525.15.15.325.269.524.354.207.085.424.127.65.127 1.04 0 1.606-.727 1.7-2.18zm-3.61 8.624c0-.529.193-.986.58-1.373.387-.387.85-.581 1.388-.581.538 0 1 .194 1.387.58.387.388.58.85.58 1.388a1.91 1.91 0 01-.58 1.402 1.87 1.87 0 01-1.373.567c-.557 0-1.025-.19-1.402-.567a1.927 1.927 0 01-.58-1.416z" fill="#fff" stroke="#005697"/></svg>