<svg width="15" height="11" viewBox="0 0 15 11" fill="none" xmlns="http://www.w3.org/2000/svg" preserveAspectRatio="none"><path fill-rule="evenodd" clip-rule="evenodd" d="M13.36.328c.646.181 1.154.714 1.327 1.39C15 2.943 15 5.5 15 5.5s0 2.557-.313 3.782a1.926 1.926 0 01-1.327 1.39C12.19 11 7.5 11 7.5 11s-4.69 0-5.86-.328a1.926 1.926 0 01-1.327-1.39C0 8.057 0 5.5 0 5.5s0-2.557.313-3.782A1.925 1.925 0 011.64.328C2.81 0 7.5 0 7.5 0s4.69 0 5.86.328zm-7.265 3.02V8.13l3.75-2.39-3.75-2.392z" fill="#fff"/></svg>