<svg version="1" xmlns="http://www.w3.org/2000/svg" width="341.333" height="341.333" viewBox="0 0 256.000000 256.000000"><path d="M124.5 2.8c-1.7 1.5-5.9 5.2-9.5 8.2-7.4 6.4-41.5 40.2-48 47.6-8.6 9.8-13.5 15.7-14.4 17.3-.5.9-1.3 1.8-1.7 2.1-.4.3-3.1 3.7-5.9 7.5-2.8 3.9-5.7 7.8-6.5 8.8-.8.9-1.5 2-1.5 2.4 0 .3-1 2-2.3 3.7-1.2 1.7-3.1 4.8-4.2 6.8-1.1 2.1-2.3 3.8-2.7 3.8-.5 0-.8.5-.8 1 0 .6-1.5 4.5-3.4 8.8-4.8 10.8-4.8 10.7-6.4 18.2-1.1 5.1-1.1 5.6-1.3 14.2-.1 5 1.8 17.8 3.4 24.3.9 3.2 3.1 9.1 3.7 10 .5.5.9 1.4.9 2 .2 1.8 7.5 15.6 9.3 17.5 1 1.1 1.8 2.4 1.8 3 0 .5.5 1 1 1 .6 0 1 .5 1 1.1 0 1.5 18 19.4 20.3 20.2.9.4 1.7 1.1 1.7 1.7 0 .6.5.8 1 .5.5-.3 1-.2 1 .3 0 1.6 15.7 10 25.4 13.6 14 5.3 23.9 7 40.6 7 14.4 0 21.6-.5 23.5-1.6.6-.3 2.8-.9 5-1.2 10.3-1.9 37.5-13.9 37.5-16.7 0-.5.5-.9 1.1-.9 3.5 0 20.7-17 27.6-27.3 2.6-4 5.1-7.4 5.6-7.5.4-.2.5-.7.2-1.2s.2-1.6 1.1-2.4c.8-.9 1.3-1.6 1-1.6-.4 0 .3-1.9 1.5-4.1 1.1-2.3 2.2-4.9 2.4-5.8.2-.9 1.1-3.4 1.9-5.6 1.4-3.9 2.7-9.8 3-14.1.2-1.1.5-2.4.8-3 1-1.8.1-20-1.2-25.4-.8-3-1.3-5.8-1.2-6.3.1-.4-.2-.7-.8-.7-.5 0-1-.8-1-1.8s-.3-2.2-.7-2.6c-.5-.4-.8-1.1-.9-1.4 0-.4-1.1-3-2.4-5.7-1.3-2.8-2.3-5.3-2.2-5.8.1-.4-.3-.7-.8-.7-.6 0-1-.7-1-1.5s-.5-1.5-1.1-1.5c-.5 0-.8-.4-.5-.9.3-.5-.1-1.4-.9-2.1-.8-.7-1.5-1.8-1.5-2.5 0-.8-.3-1.5-.7-1.7-.5-.2-2.1-2.3-3.7-4.8-3.7-5.7-16.5-22.8-19.1-25.6-1.1-1.2-2.9-3.3-4.1-4.7-10.1-12.9-44.6-47.2-63.5-63.3-4-3.3-4.3-3.3-7.4-.6z"/></svg>