<svg width="96" height="96" viewBox="0 0 96 96" fill="none" xmlns="http://www.w3.org/2000/svg">
<circle cx="48" cy="48" r="47" fill="white" stroke="white" stroke-width="2"/>
<mask id="mask0" mask-type="alpha" maskUnits="userSpaceOnUse" x="0" y="0" width="96" height="96">
<circle cx="48" cy="48" r="48" fill="#C07248"/>
</mask>
<g mask="url(#mask0)">
<path d="M-23 121H137.604V-12H-23V121Z" fill="#B3E5FC"/>
<path opacity="0.3" d="M-23 121H137.604V49.105C104.608 49.105 77.1844 50.8437 48.406 52.6686C26.4224 54.0626 3.64962 55.5064 -23 56.2636V121Z" fill="#E1F5FE"/>
<path d="M-23 121H137.604V61.9601H-23V121Z" fill="#FFD797"/>
<path d="M64.5296 83.3348C64.2496 83.5176 64.1819 83.7625 64.7253 83.8923C65.0129 83.9514 65.309 83.9557 65.5981 83.9051C66.1086 83.8246 67.1223 83.5779 66.5588 83.2251C66.367 83.1244 66.155 83.0682 65.9385 83.0606C65.3804 83.0185 64.8809 83.099 64.5296 83.3348Z" fill="#EAB065"/>
<path d="M73.6658 88.9741C73.4938 89.049 73.4132 89.1569 73.5047 89.3049C73.8487 89.8533 75.9823 89.294 75.4059 88.9887C75.071 88.8114 74.0903 88.7895 73.6658 88.9741Z" fill="#EAB065"/>
<path d="M58.1326 94.1597C57.8526 94.3425 57.7849 94.5875 58.3284 94.7172C58.6159 94.7764 58.912 94.7807 59.2012 94.73C59.7117 94.6496 60.7254 94.4028 60.1618 94.0501C59.9701 93.9494 59.7581 93.8931 59.5415 93.8855C58.9834 93.8435 58.4839 93.9221 58.1326 94.1597Z" fill="#F4C178"/>
<path d="M24.5014 93.6221C24.2214 93.8049 24.1537 94.0499 24.6971 94.1796C24.9847 94.2388 25.2808 94.2431 25.5699 94.1924C26.0804 94.112 27.0941 93.8652 26.5306 93.5125C26.3388 93.4118 26.1268 93.3555 25.9103 93.3479C25.3504 93.3059 24.8508 93.3863 24.5014 93.6221Z" fill="#EAB065"/>
<path d="M95.5856 88.0581C95.3056 88.2409 95.2379 88.4859 95.7814 88.6156C96.0689 88.6748 96.365 88.6791 96.6542 88.6284C97.1647 88.548 98.1784 88.3012 97.6148 87.9485C97.423 87.8478 97.211 87.7916 96.9945 87.784C96.4328 87.7328 95.9369 87.8205 95.5856 88.0581Z" fill="#EAB065"/>
<path d="M1.26441 82.7628C0.984458 82.9455 0.916746 83.1905 1.46019 83.3202C1.74772 83.3794 2.04385 83.3837 2.333 83.333C2.84351 83.2526 3.85721 83.0059 3.29364 82.6531C3.10187 82.5524 2.88985 82.4962 2.67334 82.4886C2.11525 82.4465 1.61573 82.5251 1.26441 82.7628Z" fill="#EAB065"/>
<path d="M10.3968 88.4018C10.2248 88.4768 10.1443 88.5846 10.2358 88.7327C10.5798 89.281 12.7134 88.7217 12.137 88.4165C11.8021 88.2391 10.8213 88.2172 10.3968 88.4018Z" fill="#EAB065"/>
<path d="M32.7671 82.9675C32.4871 83.1503 32.4194 83.3952 32.9629 83.525C33.2504 83.5841 33.5465 83.5884 33.8357 83.5378C34.3462 83.4573 35.3599 83.2106 34.7963 82.8578C34.6046 82.7571 34.3925 82.7009 34.176 82.6933C33.6179 82.6512 33.1221 82.7298 32.7671 82.9675Z" fill="#EAB065"/>
<path d="M41.9051 88.6048C41.7331 88.6797 41.6526 88.7876 41.7441 88.9356C42.0881 89.484 44.2217 88.9247 43.6453 88.6194C43.3068 88.4439 42.326 88.422 41.9051 88.6048Z" fill="#EAB065"/>
<path fill-rule="evenodd" clip-rule="evenodd" d="M-22.9999 89.2374C-22.6202 89.2225 -22.2392 89.2073 -21.8567 89.1916C16.1381 87.6379 46.2648 89.0486 56.5741 89.5314C60.5636 89.7182 61.5854 89.7661 58.947 89.4494C36.6211 86.7681 5.72818 87.4411 -13.7422 87.8653C-17.2339 87.9413 -20.3582 88.0094 -22.9999 88.0487V89.2374Z" fill="#FFE5C0"/>
<path fill-rule="evenodd" clip-rule="evenodd" d="M-22.9999 84.4525C-15.2456 84.5688 -5.76921 84.7321 0.0428658 85.3421C3.03092 85.6547 50.042 85.9325 88.3121 86.1391C88.3121 86.1423 79.6364 85.93 67.4045 85.6306C38.7048 84.9281 -9.57239 83.7464 -11.3018 83.7464C-12.274 83.7464 -14.108 83.7173 -16.3533 83.6817C-18.3492 83.65 -20.6702 83.6132 -22.9999 83.587V84.4525Z" fill="#FFE5C0"/>
<path d="M-23 87.0199C-18.0498 86.4081 -12.8447 85.2204 -7.63464 84.0314C-3.68915 83.1312 0.257971 82.2302 4.0989 81.5787C5.79309 81.3757 7.49545 81.2038 9.20925 81.0739C13.7854 80.7288 18.9398 80.8893 24.6841 81.3063C28.3322 81.7295 32.2548 82.3058 36.4781 82.9266C49.2523 84.8042 64.7859 87.0873 83.8288 86.7642C96.1228 86.5555 104.399 84.834 112.307 83.1892C119.975 81.5934 127.298 80.0704 137.604 80.0704V60.1158H-23V87.0199Z" fill="#00ACC1"/>
<path d="M-23 87.0199C-18.0498 86.4081 -12.8447 85.2204 -7.63464 84.0314C-3.68915 83.1308 0.257971 82.2298 4.0989 81.5783C5.79309 81.3754 7.49545 81.2038 9.20925 81.0739C13.7854 80.7284 18.9398 80.8893 24.6841 81.3059C28.3322 81.7291 32.2548 82.3054 36.4781 82.9262C49.2523 84.8038 64.7859 87.0869 83.8288 86.7638C96.1228 86.5551 104.399 84.8336 112.307 83.1888C119.975 81.5935 127.298 80.0704 137.604 80.0704V63.1444H-23V87.0199Z" fill="#26C6DA"/>
<path d="M-23 87.0256C-18.0498 86.4138 -12.8447 85.226 -7.63464 84.0371C-3.68915 83.1365 0.257971 82.2355 4.0989 81.584C6.63447 81.1331 9.19455 80.828 11.7661 80.6699C15.6462 80.4616 19.9266 80.7577 24.6841 81.3063C28.3322 81.7294 32.2548 82.3061 36.4797 82.9269C49.2539 84.8041 64.7876 87.0869 83.8288 86.7642C96.1228 86.5555 104.399 84.8339 112.307 83.1892C119.975 81.5934 127.298 80.0703 137.604 80.0703V79.5659C104.685 80.7545 72.8975 80.6462 41.7011 80.5404C30.4544 80.5025 19.2845 80.4645 8.16692 80.4873C-0.263193 80.5049 -8.63613 81.0224 -16.9453 81.5358C-18.9679 81.6608 -20.9856 81.7854 -23 81.9026V87.0256Z" fill="#F4C178"/>
<path d="M-23 85.4827C-17.9681 84.9963 -13.0146 84.1888 -8.06105 83.3809C-4.02407 82.7225 0.0145435 82.0641 4.0989 81.5789C5.79309 81.3759 7.49545 81.204 9.20925 81.0745C13.7854 80.729 18.9398 80.8899 24.6841 81.3065C29.1654 81.6312 34.0046 82.1111 39.208 82.6274C52.2551 83.9213 67.5878 85.4419 85.2927 85.3112C92.1446 85.2589 98.4149 84.1921 105.345 83.0133C114.174 81.5115 124.071 79.8275 137.604 79.8275V77.8756C124.762 77.8756 118.989 78.3584 113.006 78.8587C106.937 79.366 100.653 79.8912 86.5539 79.9484C80.2232 79.9738 73.6523 79.9337 67.0487 79.8459C59.5514 79.7475 52.0199 79.5808 44.7742 79.3983C32.8364 79.0821 21.6845 78.6925 12.7528 78.3506L7.22589 78.1333C3.46011 77.9871 0.274309 77.8572 -2.17794 77.7592C-4.29854 77.6743 -5.8702 77.613 -6.79163 77.5848C-12.727 77.4039 -17.9191 78.0851 -23 78.8918V85.4827Z" fill="white"/>
<path opacity="0.4" fill-rule="evenodd" clip-rule="evenodd" d="M-23 75.5686C-15.6155 74.7876 -9.26512 74.0749 -9.26512 74.0749C1.66299 75.7948 10.3006 77.3175 11.2286 77.4327C10.2075 77.5936 8.50838 77.9044 7.24059 78.1364L6.08227 78.3492L5.59378 78.4346L8.01989 78.9827C8.36297 78.9827 10.4133 78.6939 12.7773 78.3484C14.5451 78.0882 16.4908 77.7945 18.0266 77.5629C19.6211 77.3224 20.7729 77.1484 20.8284 77.1476C25.3441 77.7398 35.3655 78.7413 44.7987 79.396C50.2277 79.7705 55.4589 80.0319 59.3276 80.0319C61.7717 80.0319 64.3514 79.9625 67.0715 79.849C72.8109 79.5974 79.1711 79.1219 86.1896 78.5975C100.495 77.5286 117.536 76.2555 137.633 76.2555V75.0217C125.212 75.0217 115.164 75.6045 108.085 76.015C103.952 76.2547 100.83 76.4357 98.8413 76.4075C102.576 74.8407 117.322 71.2379 137.633 71.2379V70.1196C137.586 70.1176 57.9928 71.7628 97.2599 68.3572C97.1961 68.3409 135.924 65.2609 137.604 65.2609V65.0673C116.561 65.0673 100.106 67.7049 100.093 67.7086C93.6477 68.8931 85.193 68.3862 77.2498 67.9104C73.6931 67.6972 70.2394 67.4901 67.114 67.4435C63.4838 67.3892 61.4645 67.098 58.9763 66.7394C54.7597 66.1316 49.1984 65.3303 32.1797 65.1567C17.5054 65.0068 7.82547 65.1698 -6.61192 67.0759L-8.46622 66.9073C-12.861 66.5054 -17.3129 66.0977 -23 65.8658V66.7827C-18.5284 67.0257 -11.4053 67.6102 2.38184 68.5402C-11.304 68.802 -18.7915 69.0315 -23 69.1937V71.9927C-21.2682 72.2467 -19.6034 72.4951 -18.0318 72.7295L-20.9513 73.2584C-21.6554 73.3863 -22.3367 73.51 -23 73.6301V75.5686ZM56.2905 66.973C53.3122 66.391 50.0773 65.7587 30.0117 65.5643C17.9383 65.4565 5.86661 65.9744 -6.15284 67.1164C-0.640587 67.6179 1.58457 67.9422 3.82117 68.1481C9.57848 68.6774 15.4077 68.4193 77.6141 68.3719C73.9431 67.9868 71.5496 67.9647 69.0271 67.9418C67.6842 67.9296 66.3053 67.9169 64.6765 67.8491C59.7099 67.6412 58.0451 67.3157 56.2905 66.973ZM-17.8439 70.7208C-12.5097 71.483 6.26851 76.0673 11.5308 77.3832C19.3434 76.1477 30.6031 74.572 45.2447 74.8885C40.5771 74.2232 25.0321 70.4758 20.4984 69.3791C8.75507 69.4592 2.92261 69.8901 -1.95902 70.2503C-6.6593 70.5975 -10.4774 70.8797 -17.8439 70.7208ZM24.9863 77.0728C34.3248 77.7067 50.8713 78.9863 54.7139 78.9863C56.7512 78.9863 60.0955 78.5036 63.9348 77.9493C65.611 77.7075 67.382 77.4519 69.1791 77.217C57.9389 76.537 57.0992 76.2347 56.2447 76.1833C55.0619 76.1118 53.8497 76.5206 24.9863 77.0728ZM102.169 74.5961C105.203 73.421 106.571 72.8917 112.405 72.1961C83.3061 72.3493 83.9563 69.3428 88.0194 69.052L86.6683 69.0577C78.5617 69.0916 36.8506 69.2672 23.2872 69.3554C31.8219 70.8781 52.9103 74.137 68.9389 76.0673C70.6168 76.2707 72.2995 76.4675 73.9888 76.6579C76.7188 76.9356 84.6131 76.7003 90.5795 76.5227C93.6803 76.4304 96.26 76.3536 97.3236 76.3724C99.4703 75.6417 100.954 75.067 102.169 74.5961Z" fill="white"/>
<path d="M46.4807 58.9716C46.4807 58.9716 57.4082 59.3902 63.5344 55.8551C63.5344 55.8551 62.8207 57.9864 61.5673 59.1215C60.3139 60.2566 53.1796 61.1193 47.6481 60.6294L46.4807 58.9716Z" fill="#0097A7"/>
<path d="M55.9347 34.5057C55.9347 35.0724 57.2558 57.3722 57.2558 57.3722C57.2558 57.3722 47.9604 56.4016 47.1498 54.7822C46.3392 53.1627 55.9347 34.5057 55.9347 34.5057Z" fill="white"/>
<path d="M15.2121 33.8384C12.6504 30.8681 9.23965 30.4185 7.86731 30.5007C13.1536 32.6393 14.1856 34.8419 15.6695 36.9329C16.4637 34.0559 16.5076 33.1127 22.3336 30.5007C18.5387 30.477 16.2276 32.2408 15.2121 33.8384Z" fill="white"/>
<path d="M28.7754 26.4158C28.3122 25.5482 27.5896 24.8466 26.7083 24.4085C25.827 23.9705 24.8309 23.8179 23.8588 23.972C27.6501 25.0321 27.9758 27.2 28.543 28.7244C30.0819 26.1124 31.5714 25.0102 34.5155 23.972C33.4383 23.9369 32.3664 24.1375 31.3748 24.5596C30.3833 24.9818 29.4962 25.6153 28.7754 26.4158Z" fill="white"/>
<path d="M5.6542 23.586C5.19149 22.9813 4.56047 22.5265 3.84017 22.2784C3.11987 22.0303 2.3423 22 1.60486 22.1913C4.71551 22.9115 5.03208 24.2422 5.59565 25.264C6.18302 24.2166 6.44102 23.5385 9.57546 22.4856C8.8811 22.3616 8.16763 22.3962 7.48855 22.5868C6.80947 22.7774 6.18237 23.119 5.6542 23.586Z" fill="white"/>
<path d="M96.718 27.5962C140.569 24.9458 -10.5884 16.5669 137.605 16.5669V11.6938C73.4833 11.6938 64.391 11.7944 34.441 13.3572C-20.6083 16.2269 41.3339 17.6655 60.6217 20.0618C77.2582 22.1291 61.9648 23.9295 45.1307 23.9295C-4.82816 23.9204 63.4451 29.6069 96.718 27.5962Z" fill="#CAEDFD"/>
<path d="M125.879 1.14189C125.879 1.14189 109.497 2.4415 89.283 2.4415C69.0693 2.4415 52.6871 1.14189 52.6871 1.14189C52.6871 1.14189 69.0693 -0.157715 89.283 -0.157715C109.497 -0.157715 125.879 1.14189 125.879 1.14189Z" fill="#F3FAFF"/>
</g>
<circle cx="48" cy="48" r="47" stroke="white" stroke-width="2"/>
</svg>
