<svg width="96" height="96" viewBox="0 0 96 96" fill="none" xmlns="http://www.w3.org/2000/svg">
<circle cx="48" cy="48" r="47" fill="white" stroke="white" stroke-width="2"/>
<mask id="mask0" mask-type="alpha" maskUnits="userSpaceOnUse" x="0" y="0" width="96" height="96">
<circle cx="48" cy="48" r="48" fill="#C07248"/>
</mask>
<g mask="url(#mask0)">
<path d="M46.6684 -8.6897L-105.59 67.2929V93.0565L46.6684 169.112L199 93.0565V67.2929L46.6684 -8.6897Z" fill="#6A432D"/>
<path d="M46.6684 -8.6897L-105.59 67.2929V80.0585L-8.9911 128.48L19.7342 155.644L46.6684 169.112L199 93.0565V67.2929L46.6684 -8.6897Z" fill="#236949"/>
<path d="M46.6684 -8.6897L-105.59 67.2929V80.2909L46.6684 156.267L199 80.2909V67.2929L46.6684 -8.6897Z" fill="#8F5A3D"/>
<path d="M46.6684 -8.6897L-105.59 67.2929L-37.3985 101.39L-8.75881 128.633L46.6684 156.267L199 80.2909V67.2929L46.6684 -8.6897Z" fill="#256F4E"/>
<path d="M46.6684 -8.6897L199 67.2929L46.6684 143.269L-105.59 67.2929L46.6684 -8.6897Z" fill="#277653"/>
<path d="M46.6684 -8.6897L139.923 37.7753C14.208 20.7239 -14.6702 78.7991 -37.478 101.298L-105.59 67.2929L46.6684 -8.6897Z" fill="#3A841E"/>
<path d="M46.6684 -8.6897L130.038 32.8843C10.0817 5.79394 -31.6217 83.091 -49.2334 95.392L-105.59 67.2929L46.6684 -8.6897Z" fill="#4E8A1F"/>
<path d="M41.8395 -2.23938C40.2074 1.34332 39.8956 4.53473 38.1717 4.53473C37.2364 4.53473 34.8218 2.19925 33.5808 -2.23938H32.1014C32.1014 3.26306 34.9012 5.77584 33.6603 7.54273C32.4193 9.30963 32.6455 10.6547 32.3398 12.7578C36.3072 14.9343 40.2868 15.0138 43.7835 12.7578C43.6307 10.4223 42.9277 9.56641 42.0718 7.54273C41.2955 5.91034 43.2945 2.71893 43.7835 -2.23938H41.8395Z" fill="#969562"/>
<path d="M27.0645 -17.3285C21.5628 -17.3285 18.2678 -10.5544 18.2678 -5.57161C18.2678 -0.58885 22.1741 1.66715 27.0645 1.66715C27.8752 1.67098 28.6841 1.59315 29.4792 1.43482C30.7996 3.92315 33.7583 5.01752 37.1878 5.01752C40.6172 5.01752 43.3375 4.00262 44.8169 1.74663C45.8381 1.97329 46.8826 2.07796 47.9284 2.05843C52.8189 2.05843 56.8046 -0.0447216 56.8046 -5.10085C56.8046 -10.157 53.4547 -16.8577 47.9284 -16.8577C46.816 -16.8407 45.7228 -16.5644 44.7359 -16.0507C43.749 -15.537 42.8955 -14.8001 42.2433 -13.8986C41.0023 -14.9585 39.4364 -15.5625 37.8052 -15.6105C36.0948 -15.6095 34.4457 -14.9733 33.1776 -13.8253C31.6982 -15.8489 29.5953 -17.3285 27.0279 -17.3285H27.0645Z" fill="#5F8119"/>
<path d="M22.6915 -21.7671C17.1897 -21.7671 13.8948 -15.0725 13.8948 -10.0102C13.8948 -5.18641 17.5626 -3.00378 22.2208 -2.85093C23.3884 0.205976 26.6589 1.50822 30.4734 1.50822C33.0409 1.50822 35.2966 0.964088 36.9349 -0.283131C38.4938 1.19641 40.9818 1.82002 43.7082 1.82002C47.6022 1.82002 50.9461 0.499439 52.1137 -2.69809C56.9369 -2.69809 60.9104 -4.80124 60.9104 -9.85737C60.9104 -14.9135 57.5604 -21.6142 52.0342 -21.6142C48.9777 -21.6142 46.6608 -19.5906 45.1815 -16.9433C44.6937 -17.0368 44.1987 -17.0879 43.7021 -17.0961C40.9757 -17.0961 38.7199 -15.3843 37.2406 -13.0488C35.6818 -15.6166 33.426 -17.4079 30.4673 -17.4079C30.1271 -17.4205 29.7866 -17.3938 29.4525 -17.3285C27.8937 -19.8963 25.638 -21.7671 22.6793 -21.7671H22.6915Z" fill="#719A1E"/>
<path d="M55.5379 -8.13913C55.499 -8.42774 55.5222 -8.72135 55.6061 -9.00024C55.6899 -9.27913 55.8325 -9.53685 56.0241 -9.75612C56.2158 -9.97539 56.4521 -10.1511 56.7172 -10.2715C56.9823 -10.3919 57.2702 -10.4542 57.5614 -10.4542C57.8526 -10.4542 58.1404 -10.3919 58.4055 -10.2715C58.6707 -10.1511 58.907 -9.97539 59.0986 -9.75612C59.2903 -9.53685 59.4328 -9.27913 59.5167 -9.00024C59.6005 -8.72135 59.6237 -8.42774 59.5848 -8.13913C59.5848 -6.91637 59.432 5.31127 57.5614 5.31127C55.6908 5.31127 55.5379 -6.91637 55.5379 -8.13913Z" fill="#466C14"/>
<path d="M92.2793 -7.05104C92.2437 -7.34309 92.2705 -7.63938 92.3579 -7.92031C92.4453 -8.20124 92.5914 -8.46041 92.7864 -8.68068C92.9814 -8.90096 93.221 -9.07732 93.4892 -9.19811C93.7575 -9.31889 94.0483 -9.38135 94.3425 -9.38135C94.6367 -9.38135 94.9275 -9.31889 95.1957 -9.19811C95.464 -9.07732 95.7035 -8.90096 95.8986 -8.68068C96.0936 -8.46041 96.2396 -8.20124 96.327 -7.92031C96.4145 -7.63938 96.4412 -7.34309 96.4056 -7.05104C96.4056 -5.73045 96.1733 6.39937 94.3822 6.39937C92.5911 6.39937 92.2793 -5.74268 92.2793 -7.05104Z" fill="#466C14"/>
<path d="M59.1993 -3.08301C65.2696 5.47634 64.4137 3.76447 71.6516 8.59439C71.8839 12.3299 70.484 15.6803 70.7958 16.3039C74.1457 17.3188 76.7132 17.3188 79.6719 16.3039C79.3602 12.9535 78.5838 11.0093 78.4493 9.14463C86.6225 3.53826 85.4549 7.04148 91.7575 -1.90916H88.3342C86.702 1.20278 84.3668 3.85006 79.3846 5.0178H78.6083V-0.484634C76.6643 -0.796439 74.7937 -1.34057 72.0673 -0.484634V4.88941H70.8997C66.3821 3.56883 64.1753 -0.172829 62.647 -3.05855L59.1993 -3.08301Z" fill="#969562"/>
<path d="M60.3675 -20.5811C54.8658 -20.5811 51.4913 -13.8558 51.4913 -8.82417C51.4913 -3.93312 55.2264 -1.73825 59.8173 -1.66489C61.0399 1.39202 64.3349 2.69427 68.1433 2.69427C70.6314 2.69427 72.9666 2.15014 74.5254 0.902914C76.1576 2.38246 78.5722 3.08555 81.3781 3.08555C85.2722 3.08555 88.5365 1.68548 89.7041 -1.43257C94.5946 -1.43257 98.5008 -3.60908 98.5008 -8.67133C98.5008 -13.7336 95.2304 -20.4282 89.7041 -20.4282C86.6476 -20.4282 84.3308 -18.4045 82.778 -15.7572C82.3164 -15.8466 81.8482 -15.8977 81.3781 -15.9101C78.5784 -15.9101 76.396 -14.1982 74.8372 -11.8627C73.3578 -14.3572 71.0226 -16.2219 68.1128 -16.2219C67.7483 -16.2341 67.3835 -16.2075 67.0246 -16.1424C65.5453 -18.6307 63.2101 -20.5811 60.3003 -20.5811H60.3675Z" fill="#466C14"/>
<path d="M80.4482 -1.62806C80.4126 -1.92011 80.4394 -2.2164 80.5268 -2.49733C80.6142 -2.77826 80.7603 -3.03743 80.9553 -3.25771C81.1503 -3.47798 81.3899 -3.65434 81.6581 -3.77513C81.9264 -3.89592 82.2172 -3.95837 82.5114 -3.95837C82.8056 -3.95837 83.0964 -3.89592 83.3646 -3.77513C83.6329 -3.65434 83.8724 -3.47798 84.0675 -3.25771C84.2625 -3.03743 84.4085 -2.77826 84.496 -2.49733C84.5834 -2.2164 84.6101 -1.92011 84.5745 -1.62806C84.5745 -0.405294 84.3423 11.8223 82.4716 11.8223C80.601 11.8223 80.4482 -0.405294 80.4482 -1.62806Z" fill="#466C14"/>
<path d="M75.3146 8.82654C73.0589 13.8888 66.2061 14.8976 64.4945 14.8976C63.5592 14.8976 61.5357 11.7061 60.2153 9.76195L58.5831 10.1532C60.2153 11.5533 60.0625 16.8479 58.8154 18.6392C57.5684 20.4306 57.8006 21.7512 57.495 23.8543C61.389 26.0369 65.442 26.1103 68.9387 23.8543C68.7858 21.5188 68.2357 20.51 66.8358 18.7921C65.1241 16.7684 75.8648 15.833 76.5678 8.82654H75.3146Z" fill="#969562"/>
<path d="M52.8919 -8.6897C47.4452 -8.6897 44.0952 -1.99506 44.0952 3.06718C44.0952 8.12943 48.0626 10.2265 52.8919 10.2265H53.436C53.6683 13.962 54.139 18.0888 55.2271 18.0888C56.1624 18.0888 56.7065 15.0319 56.9388 11.8589C58.4976 13.0816 60.6738 13.6502 63.0885 13.6502C66.359 13.6502 69.2383 12.6414 70.6382 10.2998C70.8883 10.3878 71.1497 10.4392 71.4145 10.4527C71.7263 13.6441 72.1909 16.6032 73.1262 16.6032C74.0615 16.6032 74.5261 13.7236 74.8378 10.6116C79.1964 10.3793 82.6198 8.19668 82.6198 3.45235C82.6198 -1.60989 79.3493 -8.30452 73.8231 -8.30452C71.4879 -8.30452 69.5439 -7.08176 68.0646 -5.34544C66.823 -6.39434 65.2517 -6.9723 63.6265 -6.97783C61.9307 -6.95153 60.3011 -6.31565 59.0355 -5.18648C57.5562 -7.28963 55.4533 -8.6897 52.8858 -8.6897H52.8919Z" fill="#2C450E"/>
<path d="M48.6122 -13.2014C43.1104 -13.2014 39.736 -6.50678 39.736 -1.44454C39.6886 -0.497508 39.8527 0.448199 40.2164 1.32385C40.5802 2.19951 41.1344 2.98311 41.8389 3.6177C41.9918 7.66505 42.4502 13.7361 43.7829 13.7361C44.871 13.7361 45.3417 9.29744 45.574 5.48241C46.3974 5.62936 47.2279 5.73344 48.062 5.79422C49.2846 8.75331 52.5796 10.1534 56.388 10.1534C58.8761 10.1534 61.2112 9.54199 62.7701 8.28255C64.4023 9.76209 66.8964 10.4652 69.6228 10.4652C73.5168 10.4652 76.7812 9.06511 77.9488 5.95318C79.2154 5.98028 80.4777 5.79639 81.6839 5.40905C81.9162 9.22408 82.3869 13.7361 83.5545 13.7361C84.9544 13.7361 85.4251 6.80912 85.4985 2.91461C86.34 1.67685 86.768 0.204363 86.7211 -1.29169C86.7211 -6.27446 83.4506 -12.9691 77.9244 -12.9691C74.8678 -12.9691 72.551 -11.0249 70.9983 -8.29813C70.5433 -8.42605 70.0702 -8.4777 69.5984 -8.45098C66.7986 -8.45098 64.6162 -6.81859 63.0574 -4.48311C61.578 -6.97143 59.2428 -8.84226 56.333 -8.84226C55.9418 -8.84226 55.63 -8.76278 55.2449 -8.76278C53.7655 -11.2511 51.4303 -13.2014 48.5205 -13.2014H48.6122Z" fill="#3E5E13"/>
<path d="M84.0308 -8.92206C84.0308 -4.79523 81.5428 -2.69208 78.1133 -2.14795V-1.68329C78.1133 3.14051 74.6105 5.16418 70.1663 5.16418C67.8311 5.16418 65.8077 4.62005 64.3283 3.37283C64.1755 3.29335 64.0961 3.21999 63.9371 3.14051C63.8576 3.21999 63.7048 3.29335 63.6253 3.37283C62.146 4.5956 60.0431 5.16418 57.7079 5.16418C53.3493 5.16418 49.7609 3.14051 49.7609 -1.68329V-2.14795C46.3376 -2.69208 43.8434 -4.79523 43.8434 -8.92206C43.8434 -21.9995 60.4221 -21.3025 63.9249 -16.3198C68.907 -21.5349 84.0063 -20.0553 84.0063 -8.92206H84.0308Z" fill="#476E14"/>
<path d="M21.6792 1.66739C21.6402 1.37877 21.6635 1.08517 21.7473 0.806282C21.8312 0.527391 21.9737 0.269665 22.1653 0.050399C22.357 -0.168867 22.5933 -0.344601 22.8584 -0.465007C23.1236 -0.585413 23.4114 -0.647705 23.7026 -0.647705C23.9938 -0.647705 24.2816 -0.585413 24.5467 -0.465007C24.8119 -0.344601 25.0482 -0.168867 25.2398 0.050399C25.4315 0.269665 25.574 0.527391 25.6579 0.806282C25.7417 1.08517 25.765 1.37877 25.726 1.66739C25.726 2.89015 25.5732 15.1178 23.7026 15.1178C21.832 15.1178 21.6792 2.89015 21.6792 1.66739Z" fill="#466C14"/>
<path d="M-11.4058 5.56177C-5.33555 14.2006 -6.27085 12.4887 1.0465 17.3186C1.19932 21.0542 -0.176124 24.4046 0.19066 25.0282C3.03551 26.0407 6.14252 26.0407 8.98737 25.0282C8.6756 21.6044 7.9726 19.7336 7.81978 17.8689C15.993 12.2625 14.7459 15.6862 21.0546 6.8151H17.7107C16.0785 9.87201 13.6639 12.4948 8.68171 13.7421H7.90536V8.23962C5.9614 7.92781 4.17028 7.38368 1.36438 8.23962V13.6076H0.166212C-4.35135 12.287 -6.55816 8.54531 -8.08643 5.59233L-11.4058 5.56177Z" fill="#969562"/>
<path d="M-10.3132 -11.8811C-15.8149 -11.8811 -19.1099 -5.18647 -19.1099 -0.124229C-19.1099 4.76683 -15.442 6.88221 -10.7839 7.03506C-9.61627 10.092 -6.34578 11.3942 -2.53122 11.3942C0.0362682 11.3942 2.29199 10.8501 3.9303 9.60286C5.48913 11.0824 7.97715 11.7855 10.7036 11.7855C14.5976 11.7855 17.9415 10.3854 19.1091 7.27349C23.9323 7.19401 27.9058 5.09086 27.9058 0.0347319C27.9058 -5.0214 24.5558 -11.7221 19.0296 -11.7221C15.973 -11.7221 13.6562 -9.69847 12.1768 -7.05119C11.6884 -7.1406 11.1938 -7.1917 10.6975 -7.20403C7.97103 -7.20403 5.71531 -5.49216 4.23595 -3.15668C2.67712 -5.64501 0.421394 -7.51584 -2.53733 -7.51584C-2.87752 -7.52835 -3.21801 -7.50169 -3.5521 -7.43636C-5.11094 -10.0042 -7.36666 -11.875 -10.3254 -11.875L-10.3132 -11.8811Z" fill="#466C14"/>
<path d="M-4.63261 -11.1779C-7.27271 -11.1451 -9.8031 -10.1166 -11.7177 -8.29825C-8.13539 -7.52179 -5.95914 -1.2918 -4.8649 0.652391H-4.94437C-4.8649 0.652391 -4.8649 0.65239 -4.8649 0.73187L-4.78543 0.811347C-4.77476 0.812281 -4.76402 0.810869 -4.75395 0.807205C-4.74389 0.803541 -4.73474 0.797713 -4.72716 0.790138C-4.71959 0.782563 -4.71377 0.773421 -4.7101 0.763354C-4.70644 0.753288 -4.70503 0.742541 -4.70596 0.73187C-4.59589 0.720381 -4.48534 0.748563 -4.3942 0.811347C-0.115047 1.97909 2.84368 2.37037 4.63481 4.00276C6.11417 2.21141 9.15237 1.66728 14.1284 0.811347C14.0489 0.731868 13.8961 0.731868 13.8166 0.658502C14.9048 -1.28569 17.0871 -7.51568 20.7428 -8.29213C18.7991 -10.1112 16.246 -11.1382 13.5843 -11.1717C10.3139 -10.8599 8.3699 -9.85115 7.12283 -8.37161C6.30006 -8.49987 5.4671 -8.55104 4.63481 -8.52446C3.69674 -8.52437 2.76028 -8.44667 1.83502 -8.29213C0.612409 -9.85116 -1.27652 -10.8599 -4.62649 -11.1717L-4.63261 -11.1779Z" fill="#2C450E"/>
<path d="M1.1322 -4.63612C3.93199 -5.41258 5.80258 -4.94793 7.74654 -4.63612V0.817402C5.95541 1.90566 3.77916 1.82618 1.1322 0.817402V-4.63612Z" fill="#969562"/>
<path d="M9.84912 7.11453C9.84912 5.79395 10.7049 4.77905 11.8725 4.77905C12.4496 4.82289 12.9859 5.09289 13.3649 5.53029C13.7438 5.96769 13.9347 6.53708 13.896 7.11453C13.896 8.3373 13.7431 20.5649 11.8725 20.5649C10.0019 20.5649 9.84912 8.3373 9.84912 7.11453Z" fill="#466C14"/>
<path d="M-23.6245 -0.66824C-26.2715 -0.747719 -28.6067 0.731826 -30.3978 2.91446C-31.5031 2.00404 -32.8637 1.45929 -34.2918 1.35543C-35.8152 1.26983 -37.3228 1.70064 -38.571 2.5782C-38.7559 2.5664 -38.9412 2.59348 -39.115 2.65768C-44.5618 3.67257 -46.5119 10.8319 -45.656 15.8146C-45.5038 16.7811 -45.1385 17.7017 -44.5866 18.5096C-44.0347 19.3174 -43.31 19.9924 -42.465 20.4856C-42.4587 21.1892 -42.4077 21.8916 -42.3122 22.5887C-41.7009 25.7007 -39.8242 27.4125 -37.2506 28.0362C-37.0183 31.7044 -36.4742 35.6662 -35.4594 35.6662C-34.4447 35.6662 -33.9006 31.8512 -33.6683 28.2685L-32.2684 28.0362C-31.3639 27.8602 -30.4777 27.6002 -29.6214 27.2597C-28.3988 30.4511 -24.7982 31.8512 -20.6719 31.8512C-16.3928 31.8512 -12.8105 30.4511 -11.6429 27.1802H-11.4901C-10.6005 27.5927 -9.65842 27.8807 -8.69029 28.0362C-7.56428 28.2631 -6.41333 28.3413 -5.26697 28.2685C-4.9552 31.2276 -4.49061 33.9482 -3.55531 33.9482C-2.62001 33.9482 -2.07594 30.6773 -1.84365 27.3331C-0.995159 26.8247 -0.269264 26.1354 0.28231 25.3143C0.833885 24.4931 1.19754 23.5604 1.34737 22.5826C1.44289 21.8855 1.49394 21.1831 1.50019 20.4795C3.13239 19.6235 4.22663 18.0645 4.69122 15.8085C5.62652 10.8257 3.6031 3.66646 -1.84977 2.65157C-2.02208 2.58167 -2.20872 2.55441 -2.39383 2.57209C-3.642 1.69453 -5.14965 1.26372 -6.67298 1.34932C-8.10109 1.45318 -9.46173 1.99793 -10.567 2.90834C-12.3581 0.725711 -14.6933 -0.759948 -17.3403 -0.674355C-17.6805 -0.690038 -18.0214 -0.663337 -18.3551 -0.594872C-19.0804 -0.421436 -19.7793 -0.152096 -20.4335 0.206037C-21.1296 -0.133592 -21.8617 -0.394038 -22.6159 -0.570416C-22.9495 -0.638881 -23.2904 -0.665582 -23.6306 -0.649899L-23.6245 -0.66824Z" fill="#3E5E13"/>
<path d="M-28.8403 2.37036C-31.799 2.37036 -34.1342 4.31455 -35.6136 6.88236C-37.1724 4.4674 -39.4281 2.60268 -42.3379 2.60268C-47.8397 2.60268 -51.1346 9.32789 -51.1346 14.3596C-51.1346 19.2506 -47.4668 21.4455 -42.8086 21.5983C-41.641 24.5574 -38.3706 25.9575 -34.556 25.9575C-33.8525 25.9512 -33.1501 25.9002 -32.4531 25.8046C-31.365 28.4519 -28.718 29.6197 -25.6003 29.6197C-23.773 29.701 -21.9694 29.1813 -20.4654 28.1401H-20.2331C-18.7291 29.1813 -16.9254 29.701 -15.0981 29.6197C-12.0416 29.6197 -9.41294 28.5314 -8.32481 25.9514C-8.17199 25.9514 -8.01305 26.0308 -7.78075 26.0308C-3.88673 26.0308 -0.622349 24.6308 0.54525 21.5188C5.36846 21.4394 9.34196 19.3362 9.34196 14.2801C9.34196 9.22395 6.07146 2.52321 0.54525 2.52321C-2.51129 2.52321 -4.74866 4.4674 -6.3075 7.11469C-7.78686 4.62636 -10.1221 2.83501 -13.0319 2.83501C-15.9417 2.83501 -18.014 4.54688 -19.5729 6.88236C-20.0607 6.78885 -20.5556 6.73771 -21.0522 6.72951C-21.4167 6.71728 -21.7815 6.74393 -22.1404 6.809C-23.6197 4.24119 -25.9549 2.37036 -28.9136 2.37036H-28.8403Z" fill="#476E14"/>
<path d="M-45.7307 14.5917C-46.3077 14.6355 -46.8441 14.9055 -47.223 15.3429C-47.602 15.7803 -47.7928 16.3497 -47.7541 16.9272C-47.7541 18.1499 -47.6013 30.3776 -45.7307 30.3776C-43.8601 30.3776 -43.7073 18.1499 -43.7073 16.9272C-43.7073 15.7044 -44.5631 14.5917 -45.7307 14.5917ZM4.86721 15.7594C4.58528 15.7718 4.30867 15.8404 4.05357 15.9611C3.79847 16.0818 3.57001 16.2522 3.38158 16.4623C3.19314 16.6723 3.04852 16.9179 2.95617 17.1846C2.86383 17.4513 2.82561 17.7338 2.84378 18.0154C2.84378 19.336 2.99661 31.4658 4.86721 31.4658C6.73781 31.4658 6.89063 19.3238 6.89063 18.0154C6.91422 17.4497 6.71584 16.8972 6.33782 16.4757C5.9598 16.0543 5.43207 15.7972 4.86721 15.7594ZM-15.1164 24.4777C-15.6887 24.5335 -16.2177 24.807 -16.5942 25.2416C-16.9707 25.6762 -17.1661 26.2388 -17.1398 26.8132C-17.1398 28.1338 -16.9076 40.2636 -15.1164 40.2636C-13.3253 40.2636 -13.0135 28.1216 -13.0135 26.8132C-12.99 26.2265 -13.1967 25.6537 -13.5896 25.2174C-13.9826 24.781 -14.5305 24.5155 -15.1164 24.4777Z" fill="#476E14"/>
<path d="M-28.8403 -5.10681C-31.799 -5.10681 -34.1342 -3.16262 -35.6136 -0.588699C-37.1724 -3.07702 -39.4281 -4.86837 -42.3379 -4.86837C-47.8397 -4.86837 -51.1346 1.82626 -51.1346 6.8885C-51.1346 11.7796 -47.4668 13.8949 -42.8086 14.0478C-41.641 17.1047 -38.3706 18.4069 -34.556 18.4069C-33.8525 18.4007 -33.1501 18.3496 -32.4531 18.2541C-31.365 20.9809 -28.718 22.1486 -25.6003 22.1486C-23.773 22.2304 -21.9692 21.7106 -20.4654 20.6691H-20.2331C-18.7293 21.7106 -16.9255 22.2304 -15.0981 22.1486C-12.0416 22.1486 -9.41294 21.0603 -8.32481 18.4803H-7.78075C-3.88673 18.4803 -0.622349 17.1597 0.54525 13.9622C5.36846 13.9622 9.34196 11.859 9.34196 6.80291C9.34196 1.74678 6.07146 -4.95397 0.54525 -4.95397C-2.51129 -4.95397 -4.74866 -3.00977 -6.3075 -0.435853C-7.78686 -2.85081 -10.1221 -4.71553 -13.0319 -4.71553C-15.9417 -4.71553 -18.014 -2.92418 -19.5729 -0.588699C-20.0497 -0.747689 -20.5496 -0.826201 -21.0522 -0.821023C-21.4193 -0.808272 -21.784 -0.757043 -22.1404 -0.668177C-23.6197 -3.23598 -25.9549 -5.10681 -28.9136 -5.10681H-28.8403Z" fill="#4F7D15"/>
<path d="M-33.4567 -13.3605C-34.4451 -13.3179 -35.4134 -13.0672 -36.2982 -12.6247C-37.1831 -12.1822 -37.9646 -11.5579 -38.5917 -10.7927H-39.3681C-44.5642 -10.7988 -47.6757 -4.48321 -47.6757 0.267231C-47.6757 4.5469 -44.717 6.65006 -40.7496 7.04134C-38.8057 12.177 -32.8882 13.5037 -28.1383 11.0887C-26.5795 15.4478 -16.3096 18.6393 -12.495 11.0092C-7.60455 13.8093 -0.195511 13.577 0.42802 6.8029C3.61905 6.09982 5.92978 4.00277 5.92978 0.261115C5.92978 -4.48932 2.81823 -10.7927 -2.39621 -10.7927H-2.54904C-3.15856 -11.5774 -3.93628 -12.2154 -4.82494 -12.6598C-5.71361 -13.1042 -6.6906 -13.3436 -7.68401 -13.3605C-9.78691 -13.3605 -11.4986 -12.2722 -12.8985 -10.7927H-13.6748C-14.9501 -10.7914 -16.1965 -10.4128 -17.2571 -9.70441C-18.248 -10.2939 -19.3749 -10.6163 -20.5276 -10.6398C-21.841 -10.6362 -23.1216 -10.2285 -24.1954 -9.47208C-25.3316 -10.3293 -26.7151 -10.7948 -28.1383 -10.7988H-28.2178C-28.8561 -11.5709 -29.6561 -12.1934 -30.5614 -12.6224C-31.4666 -13.0513 -32.455 -13.2761 -33.4567 -13.281V-13.3605Z" fill="#588C17"/>
<path d="M-29.0736 -16.393C-30.2448 -16.3966 -31.3976 -16.1021 -32.4235 -15.5371C-32.8248 -15.6296 -33.2345 -15.6808 -33.6462 -15.6899C-39.1479 -15.6899 -42.4429 -8.96474 -42.4429 -3.93306C-42.4429 0.346611 -39.7164 2.52924 -35.9019 3.15285V3.61751C-35.9019 8.67975 -32.0079 10.7768 -27.1052 10.7768C-24.6172 10.7768 -22.3553 10.2327 -20.8026 8.98544C-18.9534 10.187 -16.7769 10.7851 -14.5734 10.6973C-9.75017 10.6973 -5.77668 8.51468 -5.77668 3.45854V2.99389C-2.04159 2.38251 0.764309 0.193764 0.764309 -4.01255C0.764309 -9.07479 -2.50618 -15.7694 -8.0324 -15.7694C-8.57938 -15.757 -9.1248 -15.7059 -9.66459 -15.6166C-10.6089 -16.0506 -11.6331 -16.2838 -12.6722 -16.3013C-16.7985 -16.3013 -19.6778 -12.5658 -20.8454 -8.5918C-22.068 -12.5597 -24.9717 -16.3747 -29.098 -16.3747L-29.0736 -16.393Z" fill="#4F7D15"/>
<path d="M24.2465 -0.98019C26.27 -1.05967 26.27 3.06716 27.8288 3.14664C30.0112 2.44355 29.6199 -0.588906 31.7228 -0.588906C31.0365 0.109242 30.529 0.962904 30.2435 1.89942C30.0808 2.36065 29.8153 2.77881 29.4671 3.12218C30.0784 3.58683 31.57 3.0427 32.3464 2.96934C32.4992 3.82527 29.9317 3.74579 28.379 4.3694C26.8262 4.99301 26.5084 6.47256 25.9643 8.10495C25.732 9.11373 26.5084 9.73734 27.5965 10.2815H27.676C29.2348 10.0491 29.2348 5.92232 31.6434 6.61318C30.8231 7.54226 30.2604 8.66995 30.0112 9.88407C31.4111 9.57227 32.6581 9.18098 33.7462 10.1959C33.0432 10.1959 30.164 11.1313 29.3876 12.5314C29.2854 12.7811 29.2395 13.0503 29.2532 13.3197C29.267 13.5892 29.34 13.8524 29.4671 14.0904C29.7789 14.7018 30.2435 15.3131 30.4024 15.6494C30.6652 16.0755 30.9793 16.4677 31.3377 16.8171C32.7376 18.529 33.2817 19.5439 33.4406 21.8794C30.329 23.5118 24.5644 24.2149 21.5323 21.8794C21.8441 19.7762 21.9969 18.5351 23.3235 16.6643C23.4763 16.432 23.7881 16.0529 24.1793 15.576C24.3311 15.248 24.5133 14.9348 24.7234 14.6406C24.9472 14.1997 25.1037 13.7278 25.1879 13.2406C25.4202 11.92 24.5766 10.6728 24.6439 10.0491C24.6439 9.03425 21.1411 9.43776 20.053 7.86651C20.6643 7.86651 22.6205 8.8814 22.9322 8.01935C22.2292 6.93109 21.9969 6.30749 20.8293 5.6044C20.053 5.13975 17.9501 5.60439 17.0148 4.28381C17.7178 4.43666 19.2705 4.9869 19.894 4.51614C19.5429 4.14895 19.2777 3.70833 19.1177 3.22612C18.8324 2.28951 18.3248 1.4358 17.6383 0.737797C19.5823 0.737797 19.1971 3.61741 21.0616 4.3205C22.6205 4.93188 22.382 7.04726 24.4849 7.66475C25.4202 7.58527 25.8054 6.18521 26.5084 5.09695C27.0524 2.84095 25.029 0.205891 23.7819 -0.894597C23.9348 -0.894597 24.0937 -0.974075 24.2465 -0.974075V-0.98019Z" fill="#969562"/>
<path d="M24.2449 -0.98019C26.2683 -1.05967 26.2683 3.06716 27.8271 3.14664C30.0095 2.44355 29.6183 -0.588906 31.7212 -0.588906C31.0348 0.109242 30.5273 0.962904 30.2418 1.89942C30.0792 2.36065 29.8137 2.77881 29.4654 3.12218C30.0768 3.58683 31.5683 3.0427 32.3447 2.96934C32.4975 3.82527 29.93 3.74579 28.3773 4.3694C26.8246 4.99301 26.5067 6.47256 25.9627 8.10495C25.7304 9.11373 26.5067 9.73734 27.5948 10.2815H27.6743C29.2332 10.0491 29.2332 5.92232 31.6417 6.61318C30.8214 7.54226 30.2587 8.66995 30.0095 9.88407C31.4094 9.57226 32.6565 9.18098 33.7446 10.1959C33.0416 10.1959 30.1623 11.1313 29.386 12.5314C29.2837 12.7811 29.2379 13.0503 29.2516 13.3197C29.2653 13.5892 29.3383 13.8524 29.4654 14.0904C29.7772 14.7018 30.2418 15.3131 30.4008 15.6494C27.9861 18.3762 25.5103 16.3525 24.1715 15.5699C24.3234 15.2419 24.5055 14.9287 24.7156 14.6345C24.9394 14.1936 25.096 13.7217 25.1802 13.2344C25.4125 11.9139 24.5689 10.6666 24.6361 10.043C24.6361 9.02813 21.1333 9.43164 20.0452 7.86039C20.6565 7.86039 22.6127 8.87529 22.9245 8.01324C22.2215 6.92498 21.9892 6.30137 20.8216 5.59828C20.0452 5.13363 17.9423 5.59828 17.007 4.2777C17.71 4.43054 19.2627 4.98079 19.8863 4.51002C19.5381 4.14401 19.2751 3.7056 19.116 3.22612C18.8307 2.28951 18.3232 1.4358 17.6367 0.737797C19.5806 0.737797 19.1955 3.61741 21.06 4.32049C22.6188 4.93188 22.3804 7.04725 24.4833 7.66475C25.4186 7.58527 25.8037 6.18521 26.5067 5.09695C27.0508 2.84095 25.0274 0.205891 23.7803 -0.894597C23.9331 -0.894597 24.0921 -0.974075 24.2449 -0.974075V-0.98019Z" fill="#AAA97C"/>
<path d="M24.2449 -0.98019C26.2683 -1.05967 26.2683 3.06716 27.8271 3.14664C30.0095 2.44355 29.6183 -0.588906 31.7212 -0.588906C31.0348 0.109242 30.5273 0.962903 30.2418 1.89942C30.0792 2.36065 29.8137 2.77881 29.4654 3.12218C30.0768 3.58683 31.5683 3.0427 32.3447 2.96934C32.4975 3.82527 29.93 3.74579 28.3773 4.3694C26.8246 4.99301 26.5067 6.47255 25.9627 8.10494C25.7304 9.11372 26.5067 9.73734 27.5948 10.2815H27.6743C29.2332 10.0491 29.2332 5.92231 31.6417 6.61318C30.8214 7.54225 30.2587 8.66995 30.0095 9.88407C31.4094 9.57226 32.6565 9.18097 33.7446 10.1959C33.0416 10.1959 30.1623 11.1313 29.386 12.5314C29.2837 12.7811 29.2379 13.0503 29.2516 13.3197C29.2653 13.5892 29.3383 13.8524 29.4654 14.0904C28.8541 15.1053 25.9627 15.4904 24.7156 14.6345C24.9394 14.1936 25.096 13.7217 25.1802 13.2344C25.4125 11.9139 24.5689 10.6666 24.6361 10.043C24.6361 9.02813 21.1333 9.43164 20.0452 7.86039C20.6565 7.86039 22.6127 8.87528 22.9245 8.01324C22.2215 6.92498 21.9892 6.30137 20.8216 5.59828C20.0452 5.13363 17.9423 5.59828 17.007 4.2777C17.71 4.43054 19.2627 4.98078 19.8863 4.51002C19.5381 4.14401 19.2751 3.7056 19.116 3.22612C18.8307 2.28951 18.3232 1.4358 17.6367 0.737796C19.5806 0.737796 19.1955 3.6174 21.06 4.32049C22.6188 4.93188 22.3804 7.04725 24.4833 7.66475C25.4186 7.58527 25.8037 6.18521 26.5067 5.09695C27.0508 2.84095 25.0274 0.20589 23.7803 -0.894597C23.9331 -0.894597 24.0921 -0.974075 24.2449 -0.974075V-0.98019Z" fill="#BEBD9A"/>
<path d="M24.2462 -0.98019C26.2696 -1.05967 26.2696 3.06716 27.8285 3.14664C30.0108 2.44355 29.6196 -0.588906 31.7225 -0.588906C31.0362 0.109242 30.5286 0.962904 30.2431 1.89942C30.0805 2.36065 29.815 2.77881 29.4668 3.12218C30.0781 3.58683 31.5697 3.0427 32.346 2.96934C32.4989 3.82527 29.9314 3.74579 28.3786 4.3694C26.8259 4.99301 26.508 6.47256 25.964 8.10495C25.7317 9.11373 26.508 9.73734 27.5962 10.2815H27.6756C29.2345 10.0491 29.2345 5.92232 31.643 6.61318C30.8228 7.54226 30.26 8.66995 30.0108 9.88407C31.4107 9.57227 32.6578 9.18098 33.7459 10.1959C33.0429 10.1959 30.1637 11.1313 29.3873 12.5314C28.7728 12.9386 28.0488 13.1491 27.3118 13.1349C26.5747 13.1207 25.8594 12.8825 25.261 12.4519C25.1082 11.4431 24.558 10.581 24.6497 10.0369C24.6497 9.02202 21.1469 9.42554 20.0588 7.85428C20.6701 7.85428 22.6262 8.86918 22.938 8.00713C22.235 6.91887 22.0027 6.29526 20.8351 5.59217C20.0588 5.12752 17.9559 5.59217 17.0206 4.27158C17.7236 4.42443 19.2763 4.97467 19.8998 4.50391C19.548 4.14086 19.2808 3.70452 19.1173 3.22612C18.8321 2.28951 18.3245 1.4358 17.638 0.737797C19.5819 0.737797 19.1968 3.61741 21.0613 4.3205C22.6201 4.93188 22.3817 7.04726 24.4846 7.66475C25.4199 7.58527 25.805 6.18521 26.508 5.09695C27.0521 2.84095 25.0287 0.205891 23.7816 -0.894597C23.9344 -0.894597 24.0934 -0.974075 24.2462 -0.974075V-0.98019Z" fill="#AAA97C"/>
<path d="M24.2449 -0.98019C26.2683 -1.05967 26.2683 3.06716 27.8272 3.14664C30.0095 2.44355 29.6183 -0.588906 31.7212 -0.588906C31.0348 0.109242 30.5273 0.962904 30.2418 1.89942C30.0792 2.36065 29.8137 2.77881 29.4655 3.12218C30.0768 3.58683 31.5683 3.0427 32.3447 2.96934C32.4975 3.82527 29.93 3.74579 28.3773 4.3694C26.8246 4.99301 26.5067 6.47256 25.9627 8.10495C25.7304 9.11373 26.5067 9.73734 27.5949 10.2815C27.2036 10.8256 25.4125 11.0579 24.6361 10.0491C24.6361 9.03425 21.1333 9.43776 20.0452 7.86651C20.6565 7.86651 22.6127 8.8814 22.9245 8.01935C22.2215 6.93109 21.9892 6.30749 20.8216 5.6044C20.0452 5.13975 17.9423 5.60439 17.007 4.28381C17.71 4.43665 19.2627 4.9869 19.8863 4.51614C19.5373 4.14835 19.2743 3.70778 19.116 3.22612C18.8307 2.28951 18.3232 1.4358 17.6367 0.737797C19.5806 0.737797 19.1955 3.61741 21.06 4.3205C22.6188 4.93188 22.3804 7.04725 24.4833 7.66475C25.4186 7.58527 25.8037 6.18521 26.5067 5.09695C27.0508 2.84095 25.0274 0.205891 23.7803 -0.894597C23.9331 -0.894597 24.0921 -0.974075 24.2449 -0.974075V-0.98019Z" fill="#BEBD9A"/>
<path d="M49.4688 54.3684C49.4688 57.7922 43.7837 60.5984 36.8575 60.5984C29.9314 60.5984 24.2463 57.7983 24.2463 54.3684C24.2463 50.9386 29.9314 48.0651 36.8575 48.0651C43.7837 48.0651 49.4688 50.8652 49.4688 54.3684Z" fill="#236949"/>
<path d="M41.3741 38.6437C39.1184 43.7059 38.8861 44.7147 37.1683 44.7147C36.233 44.7147 34.1118 41.5233 32.8891 39.5791L31.257 39.9704C32.8891 41.3704 33.5922 46.665 32.3451 48.4564C31.098 50.2477 31.3303 51.5683 31.0247 53.6715C34.9187 55.848 38.9717 55.9275 42.4683 53.6715C42.3155 51.336 41.6125 50.48 40.6772 48.4564C39.9742 46.824 41.8998 45.6562 42.6212 38.6742L41.3741 38.6437Z" fill="#969562"/>
<path d="M26.5087 26.0309C21.0069 26.0309 17.712 32.7561 17.712 37.7878C17.712 42.8194 21.6794 45.0265 26.5087 45.0265C27.3193 45.0303 28.1283 44.9525 28.9233 44.7942C30.3232 47.2825 33.282 48.3769 36.7053 48.3769C39.9758 48.3769 42.855 47.362 44.2549 45.106C45.303 45.3327 46.3738 45.4373 47.4459 45.4178C52.2692 45.4178 56.2427 43.3146 56.2427 38.2585C56.2427 33.2024 52.9722 26.4955 47.4459 26.4955C46.3249 26.5212 45.2242 26.8008 44.2267 27.3133C43.2293 27.8259 42.3611 28.558 41.6874 29.4546C40.4409 28.345 38.8263 27.7386 37.1576 27.7533C35.4889 27.768 33.8853 28.4027 32.6584 29.5341C31.1791 27.5104 29.0762 26.0309 26.5087 26.0309Z" fill="#263B0C"/>
<path d="M22.1725 21.6044C16.7258 21.6044 13.3758 28.3296 13.3758 33.3612C13.3758 38.185 17.0436 40.3677 21.7018 40.5205C22.9244 43.5774 26.2194 44.8797 30.0278 44.8797C32.5158 44.8797 34.7776 44.3356 36.4098 43.0883C38.042 44.5679 40.4567 45.1915 43.2626 45.1915C47.1566 45.1915 50.421 43.8709 51.5886 40.6734C56.479 40.6734 60.3853 38.5702 60.3853 33.5141C60.3853 28.458 57.1148 21.7572 51.5886 21.7572C48.5321 21.7572 46.2152 23.7809 44.6625 26.4282C44.2008 26.3389 43.7326 26.2877 43.2626 26.2753C40.4628 26.2753 38.2804 27.9872 36.7216 30.3227C35.2422 27.7549 32.9071 25.9635 29.9972 25.9635C29.6327 25.9513 29.268 25.9779 28.9091 26.043C27.4359 23.4385 25.1007 21.6044 22.1725 21.6044Z" fill="#375411"/>
<path d="M57.6282 25.8842C57.6282 29.9315 55.1402 32.0347 51.7107 32.6094V33.074C51.7107 37.9651 48.1285 40.001 43.7637 40.001C41.4285 40.001 39.3256 39.3896 37.9258 38.1301C37.7729 38.1301 37.6935 38.0507 37.5345 37.9773C37.4263 38.0729 37.2877 38.127 37.1433 38.1301C35.7434 39.3529 33.6405 40.001 31.3053 40.001C26.9467 40.001 23.3583 37.9773 23.3583 33.074V32.6094C19.935 32.0652 17.4409 29.9621 17.4409 25.8842C17.4409 12.7272 34.0195 13.4303 37.5223 18.4131C42.5044 13.198 57.6037 14.7448 57.6037 25.8842H57.6282Z" fill="#3E5E13"/>
<path d="M37.8715 7.73841C36.6226 7.69252 35.3814 7.95196 34.2555 8.49423C33.1295 9.0365 32.1528 9.84525 31.41 10.8504C30.7774 10.557 30.0828 10.4227 29.3866 10.4591C26.7396 10.4591 21.2928 15.6742 21.2928 21.201C21.2928 26.7279 24.8751 29.0634 29.3866 29.0634C29.6189 29.0634 29.7778 28.9839 29.9306 28.9839C31.0982 32.2548 34.0569 33.6549 37.5597 33.6549C41.0625 33.6549 44.1007 32.2548 45.2683 28.9839C45.5006 28.9839 45.8124 29.0634 46.0447 29.0634C50.5622 29.0634 54.2178 26.6485 54.2178 21.201C54.2178 15.7536 48.8445 10.4591 46.0447 10.4591C45.466 10.4544 44.8896 10.5327 44.333 10.6914C43.2449 8.50876 40.8302 7.7323 37.8715 7.7323V7.73841Z" fill="#476E14"/>
<path d="M37.792 13.7299C35.095 13.7334 32.4821 14.6685 30.3952 16.3772C30.4747 16.4567 30.6275 16.4567 30.7864 16.53C34.2098 17.6183 36.545 19.1773 37.9448 20.8892C39.1124 19.0978 41.5271 17.386 45.4945 16.53C43.3373 14.7137 40.6058 13.7215 37.7859 13.7299H37.792Z" fill="#3E5E13"/>
<path d="M23.6298 69.0048C23.6298 72.4285 17.9447 75.3081 11.0186 75.3081C4.09244 75.3081 -1.59271 72.4285 -1.59271 69.0048C-1.59271 65.581 4.09244 62.7014 11.0186 62.7014C17.9447 62.7014 23.6298 65.5015 23.6298 69.0048Z" fill="#236949"/>
<path d="M13.114 56.8568C12.5027 57.8656 11.17 63.5514 8.22355 61.2954C8.07072 61.6072 7.83231 61.9068 7.67949 62.2309C7.28825 62.6955 6.97649 63.0868 6.82366 63.3191C5.60105 65.1899 5.3443 66.376 5.112 68.5342C8.16853 70.7902 13.9087 70.0932 16.9408 68.5342C16.788 66.1987 16.2378 65.1838 14.8379 63.472C14.4795 63.1225 14.1654 62.7303 13.9026 62.3042C13.8231 61.9129 13.438 57.4804 13.1262 56.8568H13.114Z" fill="#969562"/>
<path d="M13.1144 56.8568C12.5031 57.8656 11.1704 63.5514 8.22392 61.2954C8.0711 61.6072 7.83269 61.9068 7.67986 62.2309C7.28863 62.6955 6.97686 63.0868 6.82404 63.3191C7.67987 66.4311 13.0533 66.59 14.8444 63.472C14.486 63.1225 14.1719 62.7303 13.9091 62.3042C13.8296 61.9129 13.4445 57.4804 13.1327 56.8568H13.1144Z" fill="#AAA97C"/>
<path d="M13.114 56.8568C12.5027 57.8656 11.17 63.5515 8.22351 61.2955C7.83228 63.0868 12.6616 66.3577 13.114 56.8568Z" fill="#969562"/>
<path d="M-13.2825 85.3532C-13.2825 88.8564 -7.67678 91.6565 -0.750675 91.6565C6.17543 91.6565 11.8606 88.8564 11.8606 85.3532C11.8606 81.8499 6.2549 79.1232 -0.750675 79.1232C-7.75625 79.1232 -13.2825 81.9233 -13.2825 85.3532Z" fill="#236949"/>
<path d="M1.38902 61.9191C2.00033 61.9191 1.93308 85.8975 1.93308 86.4416C1.93308 86.8329 1.70079 86.8329 1.38902 86.8329C1.07725 86.8329 0.844954 86.7534 0.844954 86.4416C0.844954 85.8975 0.765483 61.9191 1.38902 61.9191Z" fill="#7AC427"/>
<path d="M0.349906 63.5512C0.340815 63.703 0.361775 63.8551 0.411582 63.9988C0.461389 64.1425 0.53906 64.2749 0.640151 64.3885C0.741241 64.5021 0.863752 64.5947 1.00067 64.6608C1.13759 64.727 1.28622 64.7654 1.43803 64.774C1.73845 64.7407 2.01591 64.5974 2.21686 64.3716C2.4178 64.1458 2.52799 63.8535 2.52616 63.5512C2.52616 62.9399 2.06157 59.6567 1.43803 59.6567C0.814499 59.6567 0.349906 62.9276 0.349906 63.5512Z" fill="#452F1B"/>
<path d="M1.20381 78.3467C1.13191 78.345 1.06041 78.358 0.993647 78.3847C0.926882 78.4115 0.866233 78.4515 0.815375 78.5023C0.764517 78.5532 0.724511 78.6139 0.697761 78.6806C0.671012 78.7474 0.658078 78.8189 0.659751 78.8908C0.673662 79.0232 0.737853 79.1453 0.839086 79.2317C0.94032 79.3182 1.07087 79.3625 1.20381 79.3555H1.59504C1.71544 79.347 1.82872 79.2953 1.91407 79.2099C1.99942 79.1245 2.05111 79.0112 2.05964 78.8908C2.06663 78.7579 2.02234 78.6273 1.93589 78.5261C1.84944 78.4248 1.72744 78.3606 1.59504 78.3467H1.20381ZM1.20381 83.3295C1.07087 83.3225 0.94032 83.3668 0.839086 83.4532C0.737853 83.5397 0.673662 83.6617 0.659751 83.7941C0.658078 83.866 0.671012 83.9375 0.697761 84.0043C0.724511 84.0711 0.764517 84.1317 0.815375 84.1826C0.866233 84.2335 0.926882 84.2735 0.993647 84.3002C1.06041 84.327 1.13191 84.3399 1.20381 84.3383H1.59504C1.72744 84.3243 1.84944 84.2601 1.93589 84.1589C2.02234 84.0577 2.06663 83.9271 2.05964 83.7941C2.05111 83.6737 1.99942 83.5604 1.91407 83.4751C1.82872 83.3897 1.71544 83.338 1.59504 83.3295H1.20381Z" fill="#D5EA93"/>
<path d="M-0.506244 68.3018C-1.20925 69.1577 0.0378204 70.246 1.05259 70.4049H1.66389C2.75202 70.2521 3.91961 69.1821 3.29608 68.3018C2.78163 68.9121 2.10907 69.369 1.35213 69.6223C0.605556 69.3892 -0.0488328 68.9273 -0.518463 68.3018H-0.506244Z" fill="#43992B"/>
<path d="M-0.506243 73.6758C-1.20925 74.4522 0.0378239 75.5466 1.0526 75.6994C1.20542 75.7789 1.2849 75.6994 1.36437 75.6994H1.67613C2.76426 75.5466 3.93186 74.4767 3.30833 73.6758C2.78589 74.2553 2.11296 74.6786 1.36437 74.8985C0.627469 74.6985 -0.0273008 74.2705 -0.506243 73.6758Z" fill="#43992B"/>
<path d="M6.41978 68.2222C7.03108 68.2222 6.88438 83.6351 6.88438 84.1793C6.88438 84.5705 6.65207 84.5705 6.41978 84.5705C6.18748 84.5705 5.87572 84.4911 5.87572 84.1793C5.87572 83.6351 5.72289 68.2222 6.41978 68.2222Z" fill="#7AC427"/>
<path d="M5.25344 69.9343C5.25161 70.2366 5.36179 70.5288 5.56274 70.7546C5.76369 70.9805 6.04115 71.1238 6.34157 71.1571C6.49338 71.1485 6.642 71.11 6.77892 71.0439C6.91584 70.9777 7.03836 70.8852 7.13945 70.7716C7.24054 70.658 7.31821 70.5256 7.36802 70.3819C7.41782 70.2382 7.43878 70.0861 7.42969 69.9343C7.42969 69.2373 7.03846 66.0398 6.34157 66.0398C5.64468 66.0398 5.25344 69.2312 5.25344 69.9343Z" fill="#452F1B"/>
<path d="M4.5562 74.061C3.85319 74.8375 5.10026 76.0052 6.11503 76.1642C6.26786 76.1642 6.34733 76.1642 6.4268 76.0847C6.52176 76.1386 6.62941 76.166 6.73856 76.1642C7.82669 76.0113 9.07375 74.8436 8.37075 74.061C7.84852 74.6408 7.17552 75.0642 6.4268 75.2838C5.699 75.0639 5.0497 74.6395 4.5562 74.061Z" fill="#43992B"/>
<path d="M4.5562 79.3556C3.85319 80.132 5.10026 81.2998 6.11503 81.4587H6.72634C7.81446 81.3059 9.06153 80.1382 8.35853 79.3556C7.84408 79.966 7.17151 80.4228 6.41457 80.6762C5.6785 80.4222 5.02977 79.9642 4.54398 79.3556H4.5562Z" fill="#43992B"/>
<path d="M56.4078 70.6372C56.4078 74.1404 50.8021 76.9406 43.876 76.9406C36.9499 76.9406 31.2648 74.1404 31.2648 70.6372C31.2648 67.134 36.9499 64.3339 43.876 64.3339C50.8021 64.3339 56.4078 67.2135 56.4078 70.6372Z" fill="#236949"/>
<path d="M38.7286 63.5512C38.1846 63.5512 37.7139 70.6371 37.7139 71.8049C37.7139 72.4162 38.1785 72.4162 38.7286 72.4162C39.2788 72.4162 39.6639 72.3368 39.6639 71.8049C39.6639 70.6371 39.1993 63.5512 38.7286 63.5512ZM49.237 63.0071C48.6929 63.0071 48.2222 68.8458 48.2222 70.0135C48.2222 70.6249 48.6868 70.6249 49.237 70.6249C49.7872 70.6249 50.1723 70.5454 50.1723 70.0135C50.1723 68.8458 49.7077 63.0071 49.237 63.0071ZM44.1815 60.8306C43.6374 60.8306 43.2462 65.8928 43.2462 67.0605C43.2462 67.6719 43.6374 67.6719 44.1815 67.6719C44.7256 67.6719 45.1963 67.5924 45.1963 67.0605C45.1963 65.8928 44.7317 60.8306 44.1815 60.8306Z" fill="#589418"/>
<path d="M45.8128 58.0244C45.0704 58.1343 44.3861 58.4894 43.8688 59.0332C43.7893 58.9537 43.716 58.9537 43.6365 58.8803C42.7805 58.4834 41.8051 58.4287 40.9101 58.7275C40.6778 58.807 40.5189 58.8803 40.5189 58.9598C40.2866 59.3511 40.9834 61.1425 41.9982 61.6866C42.3093 61.9311 42.7039 62.0438 43.0971 62.0004C43.4904 61.9569 43.8509 61.7608 44.1011 61.4543C44.268 61.5458 44.4517 61.6026 44.6412 61.6213C44.8306 61.6399 45.0218 61.6201 45.2034 61.563C45.385 61.5059 45.5531 61.4127 45.6978 61.2889C45.8424 61.1652 45.9606 61.0135 46.0451 60.8429C46.5097 59.9075 46.2774 58.2751 45.9656 58.1161C45.9656 58.0366 45.8861 58.0366 45.8128 58.0366V58.0244ZM47.3716 60.7512H47.2921C46.9009 60.904 46.6808 62.622 47.2127 63.4779C47.2728 63.6597 47.3748 63.8249 47.5105 63.96C47.6461 64.0952 47.8116 64.1966 47.9936 64.2561C48.1756 64.3156 48.369 64.3315 48.5583 64.3025C48.7476 64.2735 48.9274 64.2005 49.0833 64.0893C49.5479 64.7007 50.2509 64.9453 51.1862 64.4011C52.2743 63.7898 52.9773 61.9862 52.745 61.601C52.6078 61.4924 52.4496 61.4133 52.2804 61.3687C51.3745 61.1027 50.4018 61.1855 49.554 61.601C49.4745 61.601 49.4745 61.6805 49.4011 61.6805C48.7898 61.1364 47.8423 60.6717 47.3777 60.7451L47.3716 60.7512ZM40.4455 62.3836C39.6779 62.4903 38.9667 62.847 38.4221 63.3985L38.2692 63.2456C37.4112 62.8687 36.4523 62.787 35.5428 63.0133C35.3659 63.0799 35.2069 63.1866 35.0782 63.3251C34.8459 63.7164 35.5428 65.4283 36.6371 66.0519C37.5724 66.596 38.2692 66.3637 38.74 65.7401C38.8914 65.8526 39.0669 65.9285 39.2526 65.9619C39.4383 65.9953 39.6292 65.9852 39.8103 65.9325C39.9915 65.8798 40.158 65.7859 40.2968 65.6581C40.4357 65.5303 40.543 65.3721 40.6106 65.1959C41.1546 64.2605 40.9223 62.6281 40.5311 62.3958L40.4455 62.3836Z" fill="#71BD21"/>
<path d="M6.88989 92.2802C6.88989 95.7039 12.5751 98.5101 19.5012 98.5101C26.4273 98.5101 32.033 95.71 32.033 92.2802C32.033 88.8503 26.4273 85.9768 19.5012 85.9768C12.5751 85.9768 6.88989 88.7769 6.88989 92.2802Z" fill="#236949"/>
<path d="M24.618 85.1148C25.1621 85.1148 25.6328 92.2741 25.6328 93.3685C25.6328 93.9799 25.1682 94.0716 24.618 94.0716C24.0679 94.0716 23.6827 93.9187 23.6827 93.3685C23.6827 92.2802 24.074 85.1148 24.618 85.1148ZM14.1097 84.6502C14.6537 84.6502 15.1244 90.4889 15.1244 91.5771C15.1244 92.1885 14.6599 92.2802 14.1097 92.2802C13.5595 92.2802 13.1744 92.1274 13.1744 91.5771C13.1744 90.4889 13.5656 84.6502 14.1097 84.6502ZM19.0918 82.3942C19.6359 82.3942 20.1066 87.5298 20.1066 88.6241C20.1066 89.2355 19.642 89.3272 19.0918 89.3272C18.5417 89.3272 18.1565 89.1744 18.1565 88.6241C18.1565 87.5359 18.5478 82.3942 19.0918 82.3942Z" fill="#589418"/>
<path d="M17.5521 79.6857H17.3993C17.0081 79.918 16.788 81.5565 17.3198 82.4858C17.8517 83.4151 18.5424 83.4212 19.1904 83.03C19.3117 83.1958 19.4649 83.3356 19.641 83.4414C19.8171 83.5471 20.0126 83.6165 20.2159 83.6456C20.4193 83.6746 20.6264 83.6627 20.8251 83.6105C21.0237 83.5584 21.21 83.467 21.3728 83.3418C22.3876 82.7304 23.0845 81.0063 22.8522 80.615C22.7378 80.4923 22.606 80.3872 22.4609 80.3032C21.5518 80.0721 20.5914 80.154 19.7345 80.5355C19.655 80.615 19.5817 80.615 19.5022 80.6884C18.9858 80.1423 18.3014 79.785 17.5582 79.6735L17.5521 79.6857ZM15.9199 82.333C15.1767 82.4445 14.4923 82.8018 13.976 83.3479C13.8965 83.3479 13.8231 83.2684 13.7437 83.195C12.8783 82.837 11.9172 82.7832 11.0172 83.0422C10.7849 83.1217 10.626 83.195 10.626 83.2745C10.3937 83.6658 11.0906 85.4571 12.1054 86.0746C12.4409 86.3091 12.8529 86.4074 13.2581 86.3495C13.6633 86.2916 14.0313 86.0819 14.2877 85.7628C14.4493 85.8521 14.6276 85.9072 14.8113 85.9246C14.9951 85.9421 15.1805 85.9215 15.356 85.8641C15.5315 85.8067 15.6933 85.7139 15.8313 85.5913C15.9694 85.4687 16.0807 85.3189 16.1583 85.1514C16.7024 84.216 16.3906 82.5836 16.0789 82.4247C16.0789 82.3452 15.9994 82.3452 15.926 82.3452L15.9199 82.333ZM22.9255 84.0448H22.7849C22.4731 84.1977 22.2408 85.9157 22.7849 86.7716C22.8451 86.9534 22.9471 87.1185 23.0827 87.2537C23.2184 87.3888 23.3838 87.4902 23.5658 87.5497C23.7478 87.6092 23.9413 87.6251 24.1305 87.5962C24.3198 87.5672 24.4996 87.4942 24.6555 87.383C25.1201 87.9944 25.8231 88.2389 26.7584 87.6948C27.8465 87.0834 28.4701 85.2798 28.3172 84.8947C28.1799 84.7862 28.0218 84.7071 27.8526 84.6623C26.9472 84.3915 25.9728 84.4745 25.1262 84.8947C25.0679 84.9037 25.0142 84.9316 24.9734 84.9741C24.3621 84.43 23.4146 83.9654 22.95 84.0387L22.9255 84.0448Z" fill="#71BD21"/>
<path d="M1.20496 74.5318C1.99072 74.5794 2.7584 74.7875 3.46068 75.1431C6.18711 76.855 6.26047 81.7583 4.62828 84.4851C3.30786 86.5087 0.581423 88.0678 -1.28918 87.2852C-1.20971 92.268 -1.28918 98.0272 -1.28918 98.6508C-1.28918 99.2744 -1.68041 99.3539 -2.22448 99.3539C-2.76854 99.3539 -3.23925 99.2744 -3.23925 98.6508C-3.23925 98.0272 -3.31872 90.012 -3.00695 84.7174C-3.61826 85.1087 -4.40684 85.4205 -4.87755 85.1087C-6.8215 83.9409 -6.74814 80.5172 -5.34214 78.3346C-4.63395 77.2241 -3.67105 76.2986 -2.53341 75.6351C-1.39578 74.9716 -0.116264 74.5891 1.19885 74.5195L1.20496 74.5318ZM-11.4858 87.8416C-9.47769 87.9364 -7.5596 88.7029 -6.03903 90.0181C-4.09507 91.8094 -3.08031 95.1537 -4.71861 96.8717C-5.10985 97.3363 -6.03903 97.104 -6.8215 96.8717C-6.74203 99.7513 -6.74204 102.863 -6.74204 103.413C-6.74204 103.964 -7.16995 104.141 -7.74458 104.141C-8.31921 104.141 -8.67988 104.062 -8.67988 103.438C-8.67988 103.126 -8.75935 101.879 -8.75935 100.479C-10.471 100.87 -12.7267 100.088 -14.2061 98.767C-16.6208 96.511 -17.7884 91.681 -15.5265 89.2722C-14.9871 88.7692 -14.3483 88.3847 -13.6513 88.1436C-12.9543 87.9024 -12.2146 87.81 -11.4797 87.8721L-11.4858 87.8416ZM6.73118 89.5534C7.26431 89.5491 7.79306 89.65 8.28713 89.8504C8.78121 90.0508 9.23089 90.3467 9.61043 90.7212C11.5544 92.8243 10.5457 96.9512 8.44283 98.8953C7.82987 99.4805 7.08724 99.9123 6.27556 100.156C5.46388 100.399 4.60616 100.447 3.77245 100.295V101.616C3.77245 102.16 3.30786 102.319 2.75768 102.319C2.20751 102.319 1.82238 102.24 1.82238 101.616C1.82238 101.225 1.74291 99.36 1.82238 97.4097C1.5827 97.51 1.32167 97.5486 1.06321 97.5219C0.804752 97.4952 0.557117 97.4041 0.343012 97.2568C-1.05688 95.8568 -0.201042 92.9772 1.43115 91.4181C2.14544 90.7708 2.98133 90.272 3.89019 89.9508C4.79905 89.6297 5.7627 89.4925 6.72506 89.5473L6.73118 89.5534Z" fill="#7EBB1B"/>
<path d="M1.13127 76.629C-2.21869 76.3966 -6.26555 81.4528 -3.61859 83.9655C-3.07453 84.2773 -1.90693 83.1891 -1.90693 83.1891C-1.20393 81.0064 0.195968 78.0535 1.76091 76.8063C1.52862 76.7268 1.36968 76.7268 1.14961 76.6534L1.13127 76.629ZM-12.0241 90.0182C-12.7126 89.995 -13.3916 90.185 -13.968 90.5624C-12.0241 91.2654 -9.68887 93.5214 -8.36233 95.3862C-8.36233 95.3862 -6.8035 95.9975 -6.41838 95.4656C-4.78619 93.1302 -8.9064 89.9632 -12.0241 90.0182ZM5.95448 91.4978C3.46646 91.4978 0.195965 94.0656 1.59586 95.9364C1.90763 96.3277 3.07522 95.7836 3.07522 95.7836C4.16335 94.3835 6.03395 92.5127 7.51332 92.048C7.08175 91.6751 6.52436 91.4805 5.95448 91.5039V91.4978Z" fill="#699619"/>
<path d="M64.8784 45.8029C67.1341 45.8029 69.7016 46.5794 70.8692 47.5148C72.0368 48.4502 72.1896 50.0826 70.4046 50.6267C69.5488 50.9385 67.7577 50.0826 67.7577 50.0826C67.7577 50.0826 68.369 51.2503 67.5254 51.5621C65.8137 52.1063 63.0078 51.3298 61.7669 50.3944C60.208 49.0738 60.2875 46.8912 62.7816 46.1147C63.4583 45.886 64.1706 45.7804 64.8845 45.8029H64.8784ZM76.7867 51.2503C78.1866 51.1708 79.5865 51.4032 80.2895 51.9534C81.3042 52.8093 80.0572 54.136 78.3455 54.6802C76.9456 55.0715 74.8427 55.1448 74.0664 54.5273C73.7546 54.2155 74.8427 53.5919 74.8427 53.5919C74.8427 53.5919 73.2105 53.8242 72.8988 53.5919C72.1224 52.9805 73.1311 52.0329 74.4576 51.5682C75.222 51.3777 76.0052 51.2731 76.7928 51.2564L76.7867 51.2503ZM57.2248 52.1063C57.7283 52.0879 58.2306 52.1667 58.7042 52.3386C59.1688 52.5709 58.4719 53.274 58.4719 53.274C58.4719 53.274 59.8718 52.8827 60.4159 53.1212C61.4306 53.5858 60.9599 54.6802 59.8718 55.2243C58.4719 55.9274 55.5132 56.3126 54.1133 55.6156C52.7134 54.9186 53.178 53.5124 54.5779 52.736C55.3959 52.3158 56.3055 52.1057 57.2248 52.1246V52.1063ZM65.6609 54.619C66.1853 54.5884 66.7113 54.64 67.2197 54.7719C68.0756 55.0042 67.5315 56.1719 67.5315 56.1719C67.5315 56.1719 69.2431 55.316 70.099 55.5606C71.9696 56.0252 72.1224 57.5842 70.9548 58.6725C69.5549 59.8953 65.7404 61.008 63.0934 60.3049C60.4464 59.6018 60.1347 57.4253 61.5346 56.0986C62.7254 55.1932 64.1661 54.6766 65.6609 54.619Z" fill="#91D71F"/>
<path d="M79.3619 43.1556C79.3619 46.6589 84.9676 49.459 91.8937 49.459C98.8199 49.459 104.505 46.6589 104.505 43.1556C104.505 39.6524 98.8993 36.9257 91.8937 36.9257C84.8882 36.9257 79.3619 39.7258 79.3619 43.1556Z" fill="#236949"/>
<path d="M86.8308 28.4457C87.5338 28.4457 87.3748 42.0673 87.3748 42.6909C87.3748 43.0822 87.1425 43.0822 86.8308 43.0822C86.519 43.0822 86.3662 43.0027 86.3662 42.6909C86.3662 42.0795 86.2133 28.4457 86.8308 28.4457Z" fill="#7EBB1B"/>
<path d="M89.4782 14.3533C90.1812 14.3533 90.0222 40.5082 90.0222 41.0523C90.0222 41.4436 89.7899 41.4436 89.4782 41.4436C89.1664 41.4436 89.0136 41.3641 89.0136 41.0523C89.0136 40.5082 88.8608 14.3533 89.4782 14.3533Z" fill="#7EBB1B"/>
<path d="M91.2517 30.5488C90.6404 31.093 90.0841 40.4349 90.0291 41.2113C90.0291 41.5231 89.0938 41.676 89.0143 41.2113C89.2466 38.6435 89.2466 32.493 91.27 30.5488H91.2517Z" fill="#699619"/>
<path d="M87.3742 43.0823C87.2214 43.4736 86.3595 43.3941 86.2861 43.0028C86.2861 42.2264 85.5831 32.805 85.0635 32.3403C87.0869 34.5963 87.4782 39.8909 87.3987 43.0823H87.3742Z" fill="#699619"/>
<path d="M89.4169 16.848H89.7286C90.0433 16.8622 90.3403 16.9973 90.5578 17.2251C90.7753 17.4529 90.8966 17.7558 90.8962 18.0708V23.4387C90.8966 23.7537 90.7753 24.0567 90.5578 24.2845C90.3403 24.5123 90.0433 24.6473 89.7286 24.6615H89.4169C89.1022 24.6473 88.8052 24.5123 88.5877 24.2845C88.3702 24.0567 88.2489 23.7537 88.2493 23.4387V18.0647C88.2489 17.7497 88.3702 17.4467 88.5877 17.2189C88.8052 16.9911 89.1022 16.8561 89.4169 16.8419V16.848Z" fill="#7C5C3F"/>
<path d="M89.4169 16.848H89.7286C90.0433 16.8622 90.3403 16.9973 90.5578 17.2251C90.7753 17.4529 90.8966 17.7558 90.8962 18.0708V23.4387C90.8966 23.7537 90.7753 24.0567 90.5578 24.2845C90.3403 24.5123 90.0433 24.6473 89.7286 24.6615H89.4169C89.1022 24.6473 88.8052 24.5123 88.5877 24.2845C88.3702 24.0567 88.2489 23.7537 88.2493 23.4387V18.0647C88.2489 17.7497 88.3702 17.4467 88.5877 17.2189C88.8052 16.9911 89.1022 16.8561 89.4169 16.8419V16.848Z" fill="#7C5C3F"/>
<path d="M97.0287 22.7601H97.3649C97.6796 22.7743 97.9766 22.9094 98.1941 23.1372C98.4116 23.365 98.5329 23.6679 98.5326 23.9829V29.3569C98.5216 29.6684 98.3966 29.9651 98.1814 30.1905C97.9661 30.4159 97.6756 30.5544 97.3649 30.5797H97.0532C96.7425 30.5544 96.452 30.4159 96.2368 30.1905C96.0215 29.9651 95.8965 29.6684 95.8856 29.3569V23.9829C95.8852 23.6679 96.0065 23.365 96.224 23.1372C96.4415 22.9094 96.7385 22.7743 97.0532 22.7601H97.0287Z" fill="#7C5C3F"/>
<path d="M93.4459 25.8839C94.0572 25.8839 93.9105 44.7206 93.9105 45.3442C93.9105 45.656 93.6782 45.7355 93.4459 45.7355C93.2136 45.7355 92.9018 45.656 92.9018 45.3442C92.9018 44.7328 92.749 25.8839 93.4459 25.8839Z" fill="#7EBB1B"/>
<path d="M93.9163 45.7298C93.7635 46.0416 92.9015 46.0416 92.8282 45.6503C92.8282 44.7944 92.1251 35.4524 91.6055 34.9878C93.629 37.2438 94.0202 42.5384 93.9407 45.7298H93.9163Z" fill="#699619"/>
<path d="M91.2508 63.3984C93.5065 63.3984 96.074 64.1749 97.2416 65.1103C98.4092 66.0457 98.562 67.6781 96.777 68.2223C96.0007 68.4546 94.1301 67.6109 94.1301 67.6109C94.1301 67.6109 94.7414 68.8336 93.9772 69.0904C92.1861 69.6345 89.3864 68.9376 88.1393 67.9227C86.5805 66.6999 86.6599 64.4194 89.1541 63.643C89.8437 63.4847 90.5494 63.4067 91.257 63.4107L91.2508 63.3984Z" fill="#91D71F"/>
<path d="M98.2752 63.1783C97.7496 63.8102 97.2812 64.4874 96.8753 65.202C96.2258 64.8608 95.549 64.5745 94.8519 64.3461C94.5401 68.0144 94.3078 68.2406 98.1223 69.8485V70.0014H98.2018L98.2813 70.0808C98.2803 70.0702 98.2818 70.0594 98.2854 70.0494C98.2891 70.0393 98.2949 70.0301 98.3025 70.0226C98.3101 70.015 98.3192 70.0092 98.3293 70.0055C98.3393 70.0018 98.3501 70.0004 98.3607 70.0014H98.4402V69.8485C102.255 68.2161 102.022 67.9777 101.711 64.3461C101.008 64.5597 100.33 64.8466 99.6873 65.202C99.3755 64.6579 98.9109 64.0343 98.2874 63.1783H98.2752Z" fill="#BA63FF"/>
<path d="M93.3718 65.1898C93.9831 69.1577 93.763 69.3166 98.2622 70.0809C102.7 69.3044 102.541 69.1455 103.153 65.1898C99.1853 66.6694 99.3381 66.8222 98.2622 70.0809C97.1741 66.81 97.3269 66.6571 93.3718 65.1898Z" fill="#BA63FF"/>
<path d="M74.2201 69.3899C71.9644 69.3899 69.4702 70.1664 68.3026 71.1018C67.135 72.0372 66.9027 73.6696 68.6939 74.2137C69.5497 74.4461 71.4203 73.6696 71.4203 73.6696C71.4203 73.6696 70.7173 74.8373 71.5731 75.0697C73.3642 75.681 76.0907 74.9168 77.3316 73.9019C78.8905 72.6792 78.811 70.4782 76.3169 69.6956C75.6402 69.4665 74.928 69.3609 74.214 69.3838L74.2201 69.3899ZM62.3118 74.8373C60.9119 74.7579 59.512 74.9963 58.8885 75.4487C57.8004 76.3047 59.1208 77.7047 60.8324 78.2488C62.1529 78.6401 64.3352 78.7135 65.0382 78.096C65.4295 77.7842 64.2619 77.1606 64.2619 77.1606C64.2619 77.1606 65.8941 77.3929 66.2853 77.0811C66.9883 76.537 65.9735 75.5221 64.6531 75.1369C63.8976 74.9034 63.1083 74.798 62.3179 74.8251L62.3118 74.8373ZM81.8736 75.6138C81.3619 75.5884 80.8523 75.6958 80.3943 75.9256C79.9297 76.0784 80.706 76.861 80.706 76.861C80.706 76.861 79.2267 76.4697 78.7621 76.7082C77.674 77.1728 78.218 78.1877 79.3062 78.8113C80.6266 79.5144 83.5853 79.8996 85.0647 79.2026C86.544 78.5056 85.9205 77.0261 84.6001 76.323C83.7448 75.9159 82.8191 75.6772 81.8736 75.6199V75.6138ZM73.4682 78.1816C72.974 78.128 72.4744 78.1549 71.9888 78.2611C71.133 78.4934 71.5976 79.7406 71.5976 79.7406C71.5976 79.7406 69.8859 78.8847 69.0301 79.1292C67.1595 79.5939 67.0861 81.1529 68.1742 82.1861C69.5741 83.5067 73.4682 84.6011 76.0357 83.898C78.6031 83.1949 78.9944 81.0184 77.5945 79.6917C76.4215 78.7539 74.9697 78.2333 73.4682 78.2122V78.1816Z" fill="#91D71F"/>
<path d="M70.2529 74.2197C70.8642 74.2197 70.7175 76.6347 70.7175 77.5701C70.7175 78.1142 70.4852 78.1815 70.2529 78.1815C70.0206 78.1815 69.7883 78.0286 69.7883 77.5701C69.7883 76.6347 69.6355 74.2197 70.2529 74.2197Z" fill="#7AC427"/>
<path d="M75.4683 63.7102C76.0797 63.7102 75.9329 75.3265 75.9329 76.2435C75.9329 76.7082 75.7801 76.7877 75.4683 76.7877C75.1566 76.7877 75.0038 76.6348 75.0038 76.2435C75.0038 75.3081 74.8509 63.7102 75.4683 63.7102Z" fill="#7AC427"/>
<path d="M75.5456 58.648C75.081 59.3511 74.8426 61.5276 74.6897 61.8394C74.2985 61.6866 73.6016 59.8157 72.8986 59.5834C72.6663 62.5425 72.9781 63.8631 75.4661 64.9575V65.0125H75.5456V65.092L75.625 65.0125H75.7045V64.933C78.1192 63.8447 78.5043 62.518 78.272 59.5589C77.569 59.7913 76.7926 61.6621 76.4809 61.8149C76.2486 61.5031 76.0896 59.3266 75.5456 58.6235V58.648Z" fill="#F784FF"/>
<path d="M76.9462 63.2455C76.9462 63.5573 76.3349 63.7102 75.5463 63.7102C74.7577 63.7102 74.2259 63.5573 74.2259 63.2455C74.2259 62.9337 74.8372 62.7809 75.5463 62.7809C76.2554 62.7809 76.9462 63.0132 76.9462 63.2455Z" fill="#FFF017"/>
<path d="M71.7314 61.2158C74.843 62.3041 74.843 62.9277 75.546 65.1103C72.6667 64.5662 72.196 64.2544 71.7314 61.2158Z" fill="#F784FF"/>
<path d="M79.4349 61.2158C76.2439 62.3041 76.3234 62.9277 75.5409 65.1103C78.4996 64.5662 78.9642 64.2544 79.4349 61.2158Z" fill="#F784FF"/>
<path d="M70.1723 70.093C69.7811 70.4843 69.6283 71.9638 69.561 72.1962C69.3287 72.1167 69.017 70.8756 68.6257 70.7166C68.5463 72.6608 67.611 74.2198 70.1051 75.3081V75.4059C70.1846 75.4059 70.1846 75.4059 70.1846 75.4854C70.1846 75.4059 70.1846 75.4059 70.2641 75.4059C70.2641 75.3264 70.264 75.3264 70.3435 75.3264C72.7582 74.2382 71.8229 72.6792 71.7434 70.735C71.3522 70.8878 71.0404 72.135 70.8081 72.2145C70.6553 71.9822 70.4963 70.5821 70.1968 70.1114L70.1723 70.093Z" fill="#F784FF"/>
<path d="M71.5002 73.5721C71.5002 73.8839 70.9562 74.0367 70.1798 74.0367C69.4034 74.0367 68.8594 73.8839 68.8594 73.5721C68.8594 73.2603 69.4034 73.1074 70.1798 73.1074C70.9562 73.1074 71.5002 73.3397 71.5002 73.5721Z" fill="#FFF017"/>
<path d="M67.4456 71.6522C69.7013 72.4287 69.469 73.2846 70.172 75.4672C67.2133 74.9231 67.7574 73.6759 67.4456 71.6522Z" fill="#F784FF"/>
<path d="M72.9124 71.6522C70.6567 72.4287 70.889 73.2846 70.186 75.4672C73.1447 74.9231 72.6006 73.6759 72.9124 71.6522Z" fill="#F784FF"/>
<path d="M95.0838 52.4976C95.0838 56.0008 100.689 58.8009 107.616 58.8009C114.542 58.8009 120.227 56.0008 120.227 52.4976C120.227 48.9943 114.542 46.2676 107.616 46.2676C100.689 46.2676 95.0838 49.0677 95.0838 52.4976Z" fill="#236949"/>
<path d="M59.664 90.8802C59.2964 90.8874 58.9311 90.9387 58.5758 91.033C57.9645 91.1859 58.3435 92.0418 58.3435 92.0418C58.3435 92.0418 57.1209 91.4304 56.4729 91.5772C55.1525 91.889 55.073 93.0567 55.8616 93.7598C56.8764 94.6952 59.5967 95.4717 61.4673 94.9826C63.3379 94.4935 63.5702 92.8794 62.5554 91.9257C61.7305 91.2752 60.725 90.8952 59.6762 90.8374L59.664 90.8802Z" fill="#91D71F"/>
<path d="M44.0219 85.5855C42.622 85.506 41.2221 85.7383 40.5191 86.2886C39.5044 87.1445 40.7514 88.4712 42.4631 89.0154C43.863 89.48 45.9659 89.48 46.7422 88.8625C47.054 88.6302 45.9659 88.0066 45.9659 88.0066C45.9659 88.0066 47.5981 88.1594 47.9098 87.9271C48.6862 87.3157 47.6775 86.3681 46.351 85.9034C45.5866 85.7129 44.8034 85.6083 44.0158 85.5916L44.0219 85.5855Z" fill="#91D71F"/>
<path d="M48.0686 84.5768C47.8479 84.9998 47.6658 85.4417 47.5245 85.8974C47.2922 85.7445 47.0599 85.3532 46.7481 85.1209C46.5953 87.5359 46.5158 87.921 47.9707 89.0154V89.0949C47.9814 89.094 47.9922 89.0954 48.0022 89.099C48.0123 89.1027 48.0214 89.1085 48.029 89.1161C48.0366 89.1237 48.0424 89.1328 48.0461 89.1429C48.0497 89.153 48.0511 89.1637 48.0502 89.1744V89.0949H48.1297V89.0154C49.6091 87.9272 49.5296 87.5359 49.4501 85.1209C49.0589 85.3532 48.8388 85.7323 48.5943 85.8974C48.4415 85.5061 48.2825 85.1209 48.0502 84.5768H48.0686Z" fill="white"/>
<path d="M48.0676 84.5768C47.7563 84.9839 47.4956 85.4274 47.2912 85.8974C46.841 85.6762 46.3727 85.4942 45.8913 85.3532C45.659 87.7682 45.8913 87.921 47.9942 89.0215V89.101C48.0049 89.1001 48.0156 89.1015 48.0257 89.1052C48.0358 89.1088 48.0449 89.1146 48.0525 89.1222C48.0601 89.1298 48.0659 89.1389 48.0695 89.149C48.0732 89.1591 48.0746 89.1698 48.0737 89.1805V89.101H48.1532V89.0215C50.1766 87.9333 50.4089 87.7988 50.2561 85.3532C49.7701 85.4802 49.3003 85.6627 48.8562 85.8974C48.6239 85.5061 48.3916 85.1209 48.0798 84.5768H48.0676Z" fill="white"/>
<path d="M49.4669 87.2974C49.4669 87.6092 48.8556 87.7621 48.067 87.7621C47.2784 87.7621 46.6671 87.6092 46.6671 87.2974C46.6671 86.9856 47.2784 86.8328 48.067 86.8328C48.8556 86.8328 49.4669 86.9856 49.4669 87.2974Z" fill="#FFF017"/>
<path d="M45.263 85.5856C45.6542 88.4652 45.4953 88.6425 48.0628 89.1683C50.6303 88.6241 50.4774 88.4652 50.8626 85.5856C48.6068 86.6738 48.6802 86.7533 48.0628 89.1683C47.4515 86.7533 47.5187 86.6799 45.263 85.5856Z" fill="white"/>
<path d="M44.7924 85.8975C45.1837 88.5448 45.0247 88.6242 48.0629 89.1684C51.0216 88.6242 50.8627 88.557 51.3334 85.8975C48.6865 86.9062 48.7659 86.9857 48.0629 89.1684C47.2866 86.9857 47.4516 86.9124 44.7924 85.8975Z" fill="white"/>
<path d="M46.1174 90.2565C46.6156 90.2214 47.1162 90.2731 47.5968 90.4093C48.4526 90.6417 47.988 91.8889 47.988 91.8889C47.988 91.8889 49.6996 90.9535 50.5555 91.1858C52.4261 91.6504 52.4994 93.2889 51.4113 94.2977C50.0114 95.6183 46.1174 96.7127 43.5499 96.0096C40.9824 95.3065 40.5912 93.0505 41.9911 91.8033C43.174 90.8725 44.6146 90.3283 46.1174 90.2443V90.2565Z" fill="#91D71F"/>
<path d="M55.3845 83.4031C55.1522 83.9472 54.9932 84.4119 54.8404 84.7237C54.6228 84.4267 54.361 84.1648 54.0641 83.9472C53.9846 86.4355 53.8318 86.8268 55.2867 87.8417V87.9946C55.2973 87.9955 55.3081 87.9941 55.3181 87.9904C55.3282 87.9868 55.3374 87.9809 55.3449 87.9734C55.3525 87.9658 55.3583 87.9567 55.362 87.9466C55.3656 87.9365 55.3671 87.9258 55.3661 87.9151V87.9946C55.4456 87.9946 55.4456 87.9946 55.4456 87.9151V87.8356C56.9249 86.8207 56.925 86.4355 56.766 83.9411C56.4542 84.1734 56.1547 84.5525 55.9102 84.7176C55.755 84.267 55.5733 83.8261 55.3661 83.397L55.3845 83.4031Z" fill="white"/>
<path d="M55.385 83.403C55.0733 83.9471 54.841 84.4117 54.682 84.7235C54.3703 84.5707 53.7467 84.4117 53.2027 84.1794C53.0499 86.5944 53.2822 86.8267 55.3056 87.8477V88.0006L55.385 87.9211V88.0006C55.4645 88.0006 55.4645 88.0006 55.4645 87.9211C55.4636 87.9318 55.465 87.9425 55.4686 87.9526C55.4723 87.9626 55.4781 87.9718 55.4857 87.9794C55.4933 87.9869 55.5024 87.9928 55.5125 87.9964C55.5226 88.0001 55.5333 88.0015 55.544 88.0006V87.8477C57.5674 86.8328 57.7997 86.625 57.5674 84.1794C57.0233 84.4117 56.4793 84.5707 56.1675 84.7235C55.9457 84.2626 55.686 83.8209 55.3912 83.403H55.385Z" fill="white"/>
<path d="M56.7855 86.1297C56.7855 86.4415 56.1742 86.6738 55.3856 86.6738C54.597 86.6738 54.0652 86.4415 54.0652 86.1297C54.0652 85.8179 54.6765 85.665 55.3856 85.665C56.0947 85.665 56.7855 85.8974 56.7855 86.1297Z" fill="#FFF017"/>
<path d="M52.5797 84.4177C52.9709 87.2973 52.812 87.4746 55.3795 88.0004C57.947 87.4563 57.8675 87.2973 58.1793 84.4177C55.9236 85.506 55.9969 85.5855 55.3795 88.0004C54.7682 85.5855 54.9149 85.506 52.5797 84.4177Z" fill="white"/>
<path d="M52.1266 84.7296C52.5912 87.3769 52.4384 87.5297 55.3971 88.0005C58.4536 87.5359 58.2764 87.3891 58.6676 84.7296C56.0206 85.7384 56.1796 85.8179 55.3971 88.0005C54.6941 85.8179 54.853 85.7445 52.1266 84.7296Z" fill="white"/>
<path d="M53.5933 88.0006C53.361 88.5447 53.2021 89.0094 53.0493 89.3212C52.8318 89.0241 52.5699 88.7623 52.2729 88.5447C52.1934 91.0331 52.0406 91.4243 53.5933 92.5126V92.5921C53.6728 92.5921 53.6728 92.5921 53.6728 92.5126C55.1522 91.4243 55.1522 91.0331 54.9932 88.5447C54.7151 88.7834 54.4555 89.043 54.2169 89.3212C54.064 89.0094 53.9051 88.5447 53.6056 88.0006H53.5933Z" fill="white"/>
<path d="M53.5956 88.0006C53.2838 88.5447 53.0515 89.0094 52.8926 89.3212C52.5808 89.1683 52.0367 89.0094 51.4132 88.7771C51.2604 91.2715 51.4927 91.4243 53.5161 92.5126V92.5921C53.5268 92.593 53.5375 92.5916 53.5476 92.5879C53.5576 92.5843 53.5668 92.5784 53.5744 92.5709C53.5819 92.5633 53.5878 92.5542 53.5914 92.5441C53.5951 92.534 53.5965 92.5233 53.5956 92.5126V92.5921C53.675 92.5921 53.675 92.5921 53.675 92.5126C53.675 92.5921 53.675 92.5921 53.7545 92.5921V92.5248C55.7779 91.4366 56.0102 91.3021 55.8574 88.7893C55.2461 89.0216 54.6898 89.1806 54.378 89.3334C54.1562 88.8725 53.8965 88.4308 53.6017 88.0128L53.5956 88.0006Z" fill="white"/>
<path d="M54.9941 90.721C54.9941 91.0328 54.3827 91.2651 53.5942 91.2651C52.8056 91.2651 52.2737 91.0328 52.2737 90.721C52.2737 90.4092 52.8851 90.2563 53.5942 90.2563C54.3033 90.2563 54.9941 90.4887 54.9941 90.721Z" fill="#FFF017"/>
<path d="M50.7883 89.0094C51.1796 91.889 51.0206 92.0663 53.5881 92.6777C56.1556 92.0663 56.0761 91.9012 56.3879 89.0094C54.1322 90.0977 54.285 90.2322 53.5881 92.5921C52.9768 90.2566 53.1235 90.0977 50.7883 89.0094Z" fill="white"/>
<path d="M50.3235 89.4006C50.7881 91.9684 50.6353 92.1274 53.594 92.6715C56.6506 92.1274 56.4733 91.9684 56.8645 89.4006C54.2176 90.336 54.3765 90.4889 53.594 92.592C52.891 90.4889 53.05 90.336 50.3235 89.4006Z" fill="white"/>
<path d="M93.6965 83.2502C94.0611 83.2351 94.4262 83.2617 94.7846 83.3297C95.3959 83.4825 95.0169 84.3385 95.0169 84.3385C95.0169 84.3385 96.2396 83.7271 96.8875 83.8738C98.208 84.2651 98.2874 85.3534 97.4988 86.1298C96.4841 87.0652 93.6843 87.8417 91.8932 87.2975C90.102 86.7534 89.7903 85.2739 90.7256 84.3385C91.5876 83.7004 92.6143 83.3228 93.6843 83.2502H93.6965Z" fill="#91D71F"/>
<path d="M97.9763 75.6995C98.2881 76.3109 98.5204 76.7083 98.6793 77.0995C99.1476 76.8401 99.6439 76.635 100.159 76.4882C100.311 78.9826 100.079 79.1354 98.0558 80.2237V80.2971H97.9763V80.3766C97.9656 80.3775 97.9549 80.3761 97.9448 80.3724C97.9347 80.3687 97.9256 80.3629 97.918 80.3553C97.9105 80.3478 97.9046 80.3386 97.901 80.3286C97.8973 80.3185 97.8959 80.3077 97.8968 80.2971H97.8174V80.2176C95.7939 79.1293 95.5616 78.9948 95.7145 76.482C96.2292 76.6289 96.7256 76.834 97.1938 77.0934C97.4117 76.6052 97.6715 76.1367 97.9702 75.6934L97.9763 75.6995Z" fill="white"/>
<path d="M100.763 76.7878C100.372 79.6675 100.53 79.7469 97.963 80.3706C95.3955 79.7592 95.475 79.6675 95.1632 76.7878C97.4189 77.7966 97.2661 77.9556 97.963 80.3706C98.5743 77.9556 98.4276 77.8027 100.763 76.7878Z" fill="white"/>
<path d="M101.234 77.0994C100.769 79.7467 100.922 79.8261 97.9631 80.3703H97.8836C94.9249 79.8261 95.0838 79.7589 94.6926 77.0994C97.3395 78.1143 97.1806 78.1876 97.9631 80.3703C98.6661 78.1937 98.5071 78.1143 101.234 77.0994Z" fill="white"/>
</g>
<circle cx="48" cy="48" r="47" stroke="white" stroke-width="2"/>
</svg>
