<svg width="96" height="96" viewBox="0 0 96 96" fill="none" xmlns="http://www.w3.org/2000/svg">
<circle cx="48" cy="48" r="47" fill="white" stroke="white" stroke-width="2"/>
<mask id="mask0" mask-type="alpha" maskUnits="userSpaceOnUse" x="0" y="0" width="96" height="96">
<circle cx="48" cy="48" r="48" fill="#C07248"/>
</mask>
<g mask="url(#mask0)">
<circle cx="48" cy="48" r="48" fill="#C07248"/>
<path d="M65.0005 40.5C68.168 31.4199 68.1671 22.3333 71.5005 19C82.8337 11.3333 102.5 1.09997 90.5003 21.5C75.5003 47 85.5006 81 83.0006 89.5C80.5006 98 58.0006 110 65.0005 96C72.0003 82 57.5003 62 65.0005 40.5Z" fill="#AD6848"/>
<path d="M54.0001 20C53.0301 15.5019 54.864 1.0987 51.4283 -4.73206C32.8352 -9.72985 -15.8191 2.58461 7.00097 20C45.001 49 46.369 91.3151 62.9479 102.721C89.4485 120.951 55.2127 25.6225 54.0001 20Z" fill="#AD6848"/>
<path d="M-4 39.5001C-6.34803 36.6564 -12.1529 21.0122 -17.0001 18.5001C-32.1767 23.0589 -59.0636 57.2132 -36.9885 55.0102C-9.39475 52.2564 20.9468 130.609 47.9999 124.495C75.6865 118.238 73.0877 106.474 60 94.5001C41 86.5001 19.3323 67.7581 -4 39.5001Z" fill="#AD6848"/>
<path d="M44.7626 25.9929C24.8315 21.5711 12.7191 19.5395 -6 25.9929V3H78.6043L92 22.1607C82.8345 24.8979 68.3258 31.2204 44.7626 25.9929Z" fill="#9B5B43"/>
<path d="M44.7626 22.9929C24.8315 18.5711 12.7191 16.5395 -6 22.9929V0H78.6043L92 19.1607C82.8345 21.8979 68.3258 28.2204 44.7626 22.9929Z" fill="#62AA00"/>
<path d="M48.068 15.9485C28.7548 12.7079 17.0508 11.367 -0.556157 18.4915L-1.70898 -3.55151L79.3313 -7.78984L93.1234 9.90825C84.4813 12.9916 70.9008 19.7797 48.068 15.9485Z" fill="#72C600"/>
<path d="M-12 58.154C1.66667 54.8207 24 46.1541 53 58.154C82.9844 70.5613 99.6667 61.4874 111 58.154" stroke="#9B5B43" stroke-width="33"/>
<path d="M-12 58.154C1.66667 54.8207 24 46.1541 53 58.154C82.9844 70.5613 99.6667 61.4874 111 58.154" stroke="#00CCE1" stroke-width="24"/>
<path d="M-12 69.154C1.66667 65.8207 24 57.1541 53 69.154C82.9844 81.5613 99.6667 72.4874 111 69.154" stroke="#00BACD" stroke-width="4"/>
<circle cx="4.5" cy="47.5" r="2.5" fill="#7DEEFA"/>
<circle cx="36.5" cy="61.5" r="1.5" fill="#7DEEFA"/>
<circle cx="46.5" cy="63.5" r="1.5" fill="#7DEEFA"/>
<circle cx="91.5" cy="67.5" r="1.5" fill="#7DEEFA"/>
<circle cx="66" cy="56" r="2" fill="#7DEEFA"/>
<circle cx="1" cy="55" r="1" fill="#7DEEFA"/>
<circle cx="7" cy="53" r="1" fill="#7DEEFA"/>
<circle cx="42" cy="61" r="1" fill="#7DEEFA"/>
<circle cx="94" cy="71" r="1" fill="#7DEEFA"/>
<circle cx="88" cy="71" r="1" fill="#7DEEFA"/>
<circle cx="35" cy="57" r="1" fill="#7DEEFA"/>
<circle cx="30" cy="59" r="1" fill="#7DEEFA"/>
</g>
<circle cx="48" cy="48" r="47" stroke="white" stroke-width="2"/>
</svg>
