<svg width="9" height="15" viewBox="0 0 9 15" fill="none" xmlns="http://www.w3.org/2000/svg">
<path fill-rule="evenodd" clip-rule="evenodd" d="M4.48707 7.74089C6.69899 7.74089 8.49702 6.00502 8.49702 3.87102C8.49702 1.73633 6.69899 0 4.48707 0C2.27564 0 0.47712 1.73633 0.47712 3.87102C0.47712 6.00502 2.27564 7.74089 4.48707 7.74089ZM4.49583 2.26896C5.41141 2.26896 6.15615 2.98762 6.15615 3.87142C6.15615 4.75453 5.41141 5.47366 4.49583 5.47366C3.58098 5.47366 2.83552 4.75453 2.83552 3.87142C2.83552 2.98762 3.58098 2.26896 4.49583 2.26896Z" fill="white"/>
<path d="M8.451 9.96934C7.72593 10.4089 6.93872 10.7207 6.12248 10.9002L8.36414 13.0643C8.82337 13.5066 8.82337 14.2251 8.36414 14.6679C7.9054 15.1107 7.16185 15.1107 6.70359 14.6679L4.49959 12.5413L2.29751 14.6679C2.0679 14.8891 1.76702 14.9998 1.46615 14.9998C1.16576 14.9998 0.865367 14.8891 0.635754 14.6679C0.177008 14.2251 0.177008 13.5071 0.635274 13.0643L2.87718 10.9002C2.06094 10.7207 1.27373 10.4085 0.54866 9.96934C-6.04774e-05 9.63536 -0.164892 8.93569 0.180847 8.40555C0.525626 7.87471 1.2507 7.71491 1.80038 8.04888C3.44198 9.0457 5.55672 9.04593 7.19928 8.04888C7.74896 7.71491 8.47379 7.87471 8.81929 8.40555C9.16503 8.93523 8.99972 9.63536 8.451 9.96934Z" fill="white"/>
</svg>
