<svg width="12" height="24" viewBox="0 0 12 24" fill="none" xmlns="http://www.w3.org/2000/svg">
<path d="M7.76514 12.7905H10.9653C10.9653 14.2254 10.583 15.3818 9.81836 16.2598C8.82715 17.402 7.55745 17.9731 6.00928 17.9731C4.6499 17.9731 3.51237 17.5011 2.59668 16.5571C1.67155 15.6037 1.20898 14.4378 1.20898 13.0596C1.20898 11.9645 1.49691 11.0866 2.07275 10.4258C2.65804 9.75553 3.64925 9.17025 5.04639 8.66992C6.43408 8.16016 7.31201 7.74951 7.68018 7.43799C8.05778 7.12646 8.24658 6.64502 8.24658 5.99365C8.24658 5.34229 8.04834 4.8278 7.65186 4.4502C7.26481 4.06315 6.74561 3.86963 6.09424 3.86963C5.44287 3.86963 4.92367 4.05843 4.53662 4.43604C4.14958 4.81364 3.95605 5.32812 3.95605 5.97949C3.95605 6.27214 4.0127 6.67806 4.12598 7.19727H0.82666C0.80778 6.95182 0.7889 6.7347 0.77002 6.5459C0.760579 6.3571 0.755859 6.18717 0.755859 6.03613C0.755859 4.5446 1.2609 3.30322 2.271 2.31201C3.27165 1.3208 4.53662 0.825195 6.06592 0.825195C7.60465 0.825195 8.88851 1.32552 9.91748 2.32617C10.9465 3.32682 11.4609 4.57764 11.4609 6.07861C11.4609 7.61735 10.9465 8.85872 9.91748 9.80273C9.26611 10.3975 8.0389 10.9733 6.23584 11.5303C5.00863 11.9079 4.39502 12.5026 4.39502 13.3145C4.39502 13.541 4.4375 13.7581 4.52246 13.9658C4.61686 14.1641 4.73958 14.3387 4.89062 14.4897C5.04167 14.6408 5.21631 14.7588 5.41455 14.8438C5.62223 14.9287 5.83936 14.9712 6.06592 14.9712C7.10433 14.9712 7.67074 14.2443 7.76514 12.7905ZM4.1543 21.4141C4.1543 20.8854 4.34782 20.4276 4.73486 20.0405C5.12191 19.6535 5.58447 19.46 6.12256 19.46C6.66064 19.46 7.12321 19.6535 7.51025 20.0405C7.8973 20.4276 8.09082 20.8901 8.09082 21.4282C8.09082 21.9757 7.8973 22.443 7.51025 22.8301C7.13265 23.2077 6.6748 23.3965 6.13672 23.3965C5.57975 23.3965 5.11247 23.2077 4.73486 22.8301C4.34782 22.443 4.1543 21.971 4.1543 21.4141Z" fill="white" stroke="#005697"/>
</svg>
