<svg width="15" height="11" viewBox="0 0 15 11" fill="none" xmlns="http://www.w3.org/2000/svg">
<path fill-rule="evenodd" clip-rule="evenodd" d="M13.3603 0.328403C14.0057 0.509105 14.514 1.04154 14.6865 1.71769C15 2.94312 15 5.5 15 5.5C15 5.5 15 8.05679 14.6865 9.28231C14.514 9.95846 14.0057 10.4909 13.3603 10.6717C12.1907 11 7.5 11 7.5 11C7.5 11 2.80935 11 1.6396 10.6717C0.994176 10.4909 0.485881 9.95846 0.313381 9.28231C0 8.05679 0 5.5 0 5.5C0 5.5 0 2.94312 0.313381 1.71769C0.485881 1.04154 0.994176 0.509105 1.6396 0.328403C2.80935 0 7.5 0 7.5 0C7.5 0 12.1907 0 13.3603 0.328403ZM6.09545 3.34776V8.13037L9.84545 5.73915L6.09545 3.34776Z" fill="white"/>
</svg>
