<svg width="60" height="60" viewBox="0 0 60 60" fill="none" xmlns="http://www.w3.org/2000/svg">
<circle opacity="0.2" cx="30" cy="30" r="30" fill="white"/>
<rect opacity="0.5" x="11" y="8" width="40" height="46" rx="2" fill="#005697"/>
<path d="M13 5H47C48.1046 5 49 5.89543 49 7V50C49 51.1046 48.1046 52 47 52H15C13.8954 52 13 51.1046 13 50V5Z" fill="#97BCD2"/>
<rect x="11.001" y="4" width="36" height="46" rx="2" fill="white"/>
<rect x="18" y="30" width="22" height="2" rx="1" fill="#006DC3"/>
<rect x="23" y="34" width="12" height="2" rx="1" fill="#006DC3"/>
<rect opacity="0.5" x="26" y="44" width="6" height="2" rx="1" fill="#006DC3"/>
<mask id="mask0" mask-type="alpha" maskUnits="userSpaceOnUse" x="21" y="10" width="16" height="16">
<circle cx="29" cy="18" r="8" fill="white"/>
</mask>
<g mask="url(#mask0)">
<circle cx="29" cy="18" r="8" fill="#D7DBE0"/>
<path d="M28.5 18.5C22.9 18.5 21.1667 21.1667 21 22.5L23 27.5H38L38.5 14C37.5 15.5 34.1 18.5 28.5 18.5Z" fill="#006DC3"/>
</g>
</svg>
