<svg width="60" height="60" viewBox="0 0 60 60" fill="none" xmlns="http://www.w3.org/2000/svg">
<circle opacity="0.2" cx="30" cy="30" r="30" fill="white"/>
<g filter="url(#filter0_d)">
<rect x="12" y="9" width="35" height="42" rx="2" fill="white"/>
</g>
<circle cx="29.5" cy="30.5" r="12.5" fill="#006DC3"/>
<path d="M33 21C36.3333 19.5455 43 15.1091 43 9" stroke="#006DC3" stroke-width="2" stroke-dasharray="4 4"/>
<path d="M24 39C20.9296 40 16.9986 43 16.999 51" stroke="#006DC3" stroke-width="2" stroke-dasharray="4 4"/>
<path d="M30.8929 31.542H33.5833C33.5833 32.6863 33.2619 33.6085 32.619 34.3087C31.7857 35.2196 30.7183 35.675 29.4167 35.675C28.2738 35.675 27.3175 35.2986 26.5476 34.5458C25.7698 33.7854 25.381 32.8557 25.381 31.7566C25.381 30.8833 25.623 30.1832 26.1071 29.6562C26.5992 29.1217 27.4325 28.655 28.6071 28.256C29.7738 27.8494 30.5119 27.522 30.8214 27.2735C31.1389 27.0251 31.2976 26.6412 31.2976 26.1217C31.2976 25.6023 31.131 25.192 30.7976 24.8908C30.4722 24.5822 30.0357 24.4279 29.4881 24.4279C28.9405 24.4279 28.504 24.5784 28.1786 24.8795C27.8532 25.1807 27.6905 25.591 27.6905 26.1104C27.6905 26.3438 27.7381 26.6675 27.8333 27.0816H25.0595C25.0437 26.8858 25.0278 26.7127 25.0119 26.5621C25.004 26.4115 25 26.276 25 26.1556C25 24.9661 25.4246 23.9762 26.2738 23.1857C27.1151 22.3952 28.1786 22 29.4643 22C30.7579 22 31.8373 22.399 32.7024 23.197C33.5675 23.995 34 24.9925 34 26.1895C34 27.4166 33.5675 28.4065 32.7024 29.1593C32.1548 29.6336 31.123 30.0928 29.6071 30.537C28.5754 30.8381 28.0595 31.3124 28.0595 31.9598C28.0595 32.1405 28.0952 32.3137 28.1667 32.4793C28.246 32.6374 28.3492 32.7767 28.4762 32.8971C28.6032 33.0176 28.75 33.1117 28.9167 33.1794C29.0913 33.2472 29.2738 33.2811 29.4643 33.2811C30.3373 33.2811 30.8135 32.7014 30.8929 31.542ZM27.8571 38.4191C27.8571 37.9975 28.0198 37.6324 28.3452 37.3237C28.6706 37.0151 29.0595 36.8607 29.5119 36.8607C29.9643 36.8607 30.3532 37.0151 30.6786 37.3237C31.004 37.6324 31.1667 38.0013 31.1667 38.4304C31.1667 38.867 31.004 39.2396 30.6786 39.5483C30.3611 39.8494 29.9762 40 29.5238 40C29.0556 40 28.6627 39.8494 28.3452 39.5483C28.0198 39.2396 27.8571 38.8632 27.8571 38.4191Z" fill="white"/>
<defs>
<filter id="filter0_d" x="12" y="9" width="38" height="44" filterUnits="userSpaceOnUse" color-interpolation-filters="sRGB">
<feFlood flood-opacity="0" result="BackgroundImageFix"/>
<feColorMatrix in="SourceAlpha" type="matrix" values="0 0 0 0 0 0 0 0 0 0 0 0 0 0 0 0 0 0 127 0"/>
<feOffset dx="3" dy="2"/>
<feColorMatrix type="matrix" values="0 0 0 0 0.0145833 0 0 0 0 0.330365 0 0 0 0 0.5 0 0 0 0.3 0"/>
<feBlend mode="normal" in2="BackgroundImageFix" result="effect1_dropShadow"/>
<feBlend mode="normal" in="SourceGraphic" in2="effect1_dropShadow" result="shape"/>
</filter>
</defs>
</svg>
