<svg width="119" height="48" viewBox="0 0 119 48" fill="none" xmlns="http://www.w3.org/2000/svg">
<path d="M63.1918 12.2871C69.8055 12.2871 73.2078 15.3622 73.2078 22.1013C73.2078 28.8405 69.8055 31.9156 63.1918 31.9156H60.4656C56.7035 31.9156 52.6906 29.8982 52.6906 26.2397C52.6779 26.0494 52.7043 25.8585 52.768 25.6788C52.8317 25.499 52.9315 25.3342 53.0611 25.1943C53.1908 25.0544 53.3476 24.9425 53.522 24.8654C53.6964 24.7883 53.8848 24.7475 54.0755 24.7457H55.6839C56.4581 24.7457 57.0688 25.1056 57.6195 26.2397C58.1702 27.3738 59.2552 28.0935 60.94 28.0935H63.0337C66.4087 28.0935 67.8754 27.0412 68.0171 23.9442H60.7655C60.4299 23.94 60.1092 23.8048 59.8719 23.5675C59.6346 23.3301 59.4993 23.0095 59.4951 22.6738V21.5016C59.4944 21.3343 59.5267 21.1685 59.5902 21.0138C59.6538 20.859 59.7472 20.7183 59.8653 20.5998C59.9833 20.4812 60.1236 20.3871 60.2781 20.323C60.4326 20.2588 60.5982 20.2257 60.7655 20.2257H68.0171C67.8263 17.1561 66.4141 16.1038 63.0337 16.1038H61.2181C59.5823 16.1038 58.4483 16.8235 57.8976 17.9576C57.3469 19.0916 56.7362 19.4515 55.962 19.4515H54.3753C54.1851 19.449 53.9974 19.4077 53.8236 19.3302C53.6498 19.2528 53.4936 19.1408 53.3646 19.001C53.2355 18.8612 53.1363 18.6966 53.0729 18.5172C53.0095 18.3378 52.9833 18.1474 52.9959 17.9576C52.9959 14.3045 57.0088 12.2871 60.771 12.2871H63.1918Z" fill="#059347"/>
<path d="M77.3271 31.7685C76.9863 31.7627 76.6615 31.6225 76.4236 31.3785C76.1856 31.1344 76.0538 30.8062 76.0567 30.4653V13.6503C76.0538 13.3094 76.1856 12.9812 76.4236 12.7372C76.6615 12.4931 76.9863 12.3529 77.3271 12.3472H79.8733C80.2151 12.3515 80.5412 12.491 80.7804 12.7353C81.0195 12.9795 81.1521 13.3085 81.1492 13.6503V20.1495H83.4664C85.0422 20.1495 86.1926 19.348 87.2831 17.4233L89.3604 13.6503C89.5366 13.2795 89.8093 12.963 90.1498 12.7337C90.4903 12.5045 90.8862 12.371 91.296 12.3472H94.4202C95.1127 12.3472 95.2544 12.8924 94.8346 13.6503L91.9012 18.9609C91.2088 20.2095 90.2982 21.5071 88.4172 21.9488C89.7476 22.2268 91.1434 23.9171 91.9012 25.1057L95.2762 30.4708C95.7179 31.1905 95.527 31.7466 94.8073 31.7466H91.7104C91.2903 31.7046 90.8852 31.5679 90.5254 31.3469C90.1656 31.126 89.8606 30.8265 89.633 30.4708L87.2558 26.7359C86.2362 25.1002 85.2112 23.9716 83.4392 23.9716H81.1219V30.5144C81.1162 30.848 80.9789 31.1658 80.7399 31.3986C80.501 31.6315 80.1797 31.7605 79.8461 31.7575L77.3271 31.7685Z" fill="#059347"/>
<path d="M118.027 30.5252L114.756 17.6576C113.954 14.5171 111.719 13.1649 109.091 12.6578C108.097 12.5086 107.086 12.5086 106.092 12.6578C103.464 13.1595 101.229 14.5171 100.427 17.6576L97.1558 30.5252C97.1007 30.6683 97.0825 30.823 97.1028 30.975C97.123 31.1271 97.1811 31.2716 97.2717 31.3953C97.3624 31.519 97.4826 31.618 97.6214 31.6832C97.7603 31.7484 97.9132 31.7777 98.0663 31.7683H100.629C100.989 31.7489 101.334 31.6146 101.613 31.385C101.892 31.1554 102.089 30.8427 102.177 30.4925L103.039 27.0902H112.128L113.011 30.4925C113.1 30.8431 113.299 31.156 113.579 31.3856C113.858 31.6151 114.204 31.7492 114.565 31.7683H117.133C117.285 31.7748 117.436 31.7434 117.573 31.677C117.709 31.6106 117.827 31.5113 117.916 31.3881C118.004 31.2648 118.061 31.1213 118.081 30.9707C118.1 30.8201 118.082 30.667 118.027 30.5252ZM103.993 23.2736L105.143 18.9117C105.482 17.6031 106.343 16.3436 107.575 16.3436C108.807 16.3436 109.669 17.6031 110.007 18.9117L111.157 23.2736H103.993Z" fill="#059347"/>
<path d="M41.2339 33.3931C41.6759 32.3084 41.7907 31.1181 41.5639 29.9689C41.3372 28.8198 40.7789 27.7622 39.9581 26.9266C38.7858 25.7162 34.5984 21.5724 31.6105 18.6009H31.8722C32.6211 18.6015 33.3532 18.3799 33.976 17.9641C34.5988 17.5484 35.0843 16.9572 35.3709 16.2654C35.6575 15.5736 35.7325 14.8124 35.5862 14.078C35.44 13.3436 35.0791 12.6691 34.5494 12.1399L23.5138 1.10975C23.1624 0.757942 22.745 0.478849 22.2857 0.28843C21.8263 0.0980114 21.3339 0 20.8367 0C20.3394 0 19.847 0.0980114 19.3877 0.28843C18.9283 0.478849 18.511 0.757942 18.1596 1.10975L7.15127 12.1399C6.62149 12.6691 6.26063 13.3436 6.11439 14.078C5.96814 14.8124 6.04308 15.5736 6.32972 16.2654C6.61636 16.9572 7.1018 17.5484 7.72461 17.9641C8.34741 18.3799 9.07956 18.6015 9.82838 18.6009H9.89926C6.64965 21.8287 2.71305 25.7598 1.67711 26.9594C0.877549 27.8013 0.334833 28.8539 0.112699 29.9935C-0.109436 31.1332 -0.00176493 32.3126 0.423066 33.3931C1.00647 34.7944 2.42953 36.4737 5.90813 36.4737H11.6277V42.0351C11.6248 42.817 11.7762 43.5917 12.0732 44.3149C12.3703 45.0381 12.8071 45.6956 13.3587 46.2497C13.9103 46.8038 14.5657 47.2436 15.2876 47.544C16.0094 47.8443 16.7834 47.9993 17.5653 48H24.1081C24.889 47.9979 25.6618 47.8418 26.3824 47.5408C27.103 47.2398 27.7572 46.7998 28.3076 46.2458C28.858 45.6919 29.2939 45.0349 29.5902 44.3124C29.8866 43.5899 30.0377 42.816 30.0348 42.0351V36.4737H35.7489C39.2438 36.4737 40.656 34.7944 41.2339 33.3931ZM24.6043 30.667V41.2227H17.0418V30.667H7.41298L20.8367 17.2487L34.2549 30.667H24.6043Z" fill="#059347"/>
<path d="M58.3533 42.673C58.4405 42.9401 58.5168 43.2182 58.5986 43.4745L59.1439 41.757L59.8418 39.4943C59.869 39.4016 59.9235 39.3525 59.9999 39.3525H60.5833C60.6705 39.3525 60.6923 39.407 60.6596 39.5161L59.0239 44.3905C59.0149 44.4308 58.9919 44.4667 58.9589 44.4916C58.926 44.5166 58.8852 44.5291 58.844 44.5268H58.3751C58.3325 44.53 58.2901 44.5184 58.2551 44.4941C58.2271 44.467 58.2065 44.4332 58.1951 44.3959L57.9171 43.5835C57.8244 43.3109 57.7317 43.0383 57.639 42.7493C57.5463 42.4603 57.5081 42.3349 57.4318 42.1223C57.3555 41.9096 57.2846 41.6916 57.2137 41.4735L56.7993 42.7384L56.2541 44.3741C56.2464 44.4131 56.2253 44.4481 56.1944 44.473C56.1635 44.4979 56.1248 44.5112 56.0851 44.5104H55.5998C55.5573 44.5136 55.5149 44.5021 55.4799 44.4777C55.4519 44.4506 55.4312 44.4168 55.4199 44.3796L53.7406 39.5052C53.7284 39.4661 53.7284 39.4243 53.7406 39.3852C53.7406 39.3525 53.7787 39.3307 53.8333 39.3307H54.4058C54.4491 39.328 54.4919 39.3416 54.5257 39.3688C54.5542 39.3998 54.5748 39.4373 54.5857 39.4779C54.7111 39.8923 54.8419 40.2957 54.9728 40.6992C55.1037 41.1027 55.2345 41.5171 55.3599 41.9315L55.8288 43.4309L56.3086 41.9642L56.554 41.2499C56.6412 41.0046 56.723 40.7592 56.7993 40.5138L56.5049 39.5052C56.492 39.4662 56.492 39.4241 56.5049 39.3852C56.511 39.3675 56.523 39.3524 56.5389 39.3425C56.5548 39.3326 56.5736 39.3284 56.5921 39.3307H57.1374C57.1581 39.3289 57.1789 39.3314 57.1986 39.338C57.2183 39.3445 57.2364 39.355 57.2519 39.3688C57.2776 39.4009 57.2962 39.4381 57.3064 39.4779L58.0697 41.8551C58.1897 42.1441 58.2715 42.4058 58.3533 42.673Z" fill="#059347"/>
<path d="M65.6609 42.673C65.7481 42.9402 65.8244 43.2183 65.9062 43.4745L66.4514 41.7571L67.1548 39.4943C67.1821 39.4016 67.2366 39.3526 67.3129 39.3526H67.8963C67.9836 39.3526 68.0054 39.4071 67.9727 39.5161L66.3369 44.3905C66.328 44.4309 66.3049 44.4667 66.272 44.4917C66.239 44.5167 66.1983 44.5291 66.157 44.5268H65.6881C65.6456 44.5301 65.6032 44.5185 65.5682 44.4941C65.5403 44.4669 65.5197 44.4332 65.5082 44.396L65.2301 43.5836C65.1374 43.311 65.0447 43.0384 64.952 42.7494C64.8594 42.4604 64.8212 42.335 64.7449 42.1224C64.6685 41.9097 64.5976 41.6916 64.5268 41.4735L64.1124 42.7385L63.5672 44.3742C63.5595 44.4131 63.5383 44.4481 63.5074 44.4731C63.4765 44.498 63.4378 44.5112 63.3981 44.5105H62.9292C62.8867 44.5137 62.8443 44.5022 62.8093 44.4778C62.7811 44.4509 62.7604 44.417 62.7493 44.3796L61.0536 39.5216C61.0407 39.4826 61.0407 39.4406 61.0536 39.4016C61.0536 39.3689 61.0918 39.3471 61.1463 39.3471H61.7188C61.7621 39.3445 61.8049 39.3581 61.8388 39.3853C61.8671 39.4164 61.8876 39.4538 61.8987 39.4943C62.0241 39.9087 62.155 40.3122 62.2858 40.7157C62.4167 41.1191 62.5476 41.5335 62.673 41.9479L63.1419 43.4473L63.6217 41.9806C63.698 41.7461 63.7798 41.5117 63.867 41.2663C63.9543 41.021 64.0361 40.7756 64.1124 40.5303L63.8125 39.5216C63.8 39.4826 63.8 39.4406 63.8125 39.4016C63.8188 39.3829 63.8316 39.367 63.8486 39.357C63.8657 39.347 63.8858 39.3435 63.9052 39.3471H64.4504C64.4711 39.3454 64.4919 39.3478 64.5116 39.3544C64.5313 39.361 64.5494 39.3715 64.5649 39.3853C64.591 39.4171 64.6096 39.4544 64.6195 39.4943L65.3828 41.8716C65.4918 42.1442 65.5736 42.4059 65.6609 42.673Z" fill="#059347"/>
<path d="M72.9664 42.6728C73.0536 42.94 73.1299 43.218 73.2117 43.4743L73.757 41.7568L74.4603 39.4941C74.4876 39.4014 74.5421 39.3523 74.6184 39.3523H75.2018C75.2891 39.3523 75.3109 39.4068 75.2782 39.5159L73.6424 44.3903C73.6335 44.4306 73.6104 44.4665 73.5775 44.4915C73.5445 44.5164 73.5038 44.5289 73.4625 44.5266H72.9936C72.9511 44.5298 72.9087 44.5183 72.8737 44.4939C72.8456 44.4668 72.825 44.433 72.8137 44.3957L72.5356 43.5833C72.4429 43.3107 72.3502 43.0381 72.2576 42.7491C72.1649 42.4602 72.1267 42.3348 72.0504 42.1221C71.974 41.9095 71.9032 41.6914 71.8323 41.4733L71.4124 42.7382L70.8672 44.3739C70.8595 44.4129 70.8384 44.4479 70.8075 44.4728C70.7766 44.4977 70.7379 44.511 70.6982 44.5102H70.2293C70.1867 44.5135 70.1443 44.5019 70.1093 44.4775C70.0815 44.4503 70.0609 44.4166 70.0493 44.3794L68.37 39.505C68.3571 39.466 68.3571 39.424 68.37 39.385C68.3763 39.3663 68.3891 39.3504 68.4061 39.3404C68.4232 39.3304 68.4433 39.3269 68.4627 39.3305H69.0352C69.0785 39.3279 69.1213 39.3415 69.1552 39.3687C69.1842 39.3993 69.2049 39.4368 69.2151 39.4777C69.3405 39.8921 69.4714 40.2956 69.6023 40.699C69.7331 41.1025 69.864 41.5169 69.9894 41.9313L70.4583 43.4307L70.9381 41.964L71.1834 41.2497C71.2707 41.0062 71.3525 40.7608 71.4288 40.5137L71.1344 39.505C71.1215 39.466 71.1215 39.424 71.1344 39.385C71.1344 39.3523 71.1725 39.3305 71.2271 39.3305H71.7723C71.793 39.3288 71.8138 39.3312 71.8335 39.3378C71.8532 39.3444 71.8713 39.3549 71.8868 39.3687C71.9121 39.401 71.9307 39.4381 71.9413 39.4777L72.7046 41.855C72.7973 42.1439 72.8791 42.4056 72.9664 42.6728Z" fill="#059347"/>
<path d="M76.4998 44.1123C76.5028 44.2385 76.4707 44.3631 76.4071 44.4721C76.3471 44.5703 76.2162 44.6194 76.009 44.6194C75.8018 44.6194 75.6655 44.5703 75.611 44.4721C75.5545 44.3608 75.5264 44.2372 75.5292 44.1123C75.5225 43.9881 75.5529 43.8648 75.6165 43.7579C75.6783 43.667 75.8073 43.6216 76.0036 43.6216C76.2108 43.6216 76.3416 43.6652 76.4016 43.7579C76.469 43.8636 76.5032 43.987 76.4998 44.1123Z" fill="#059347"/>
<path d="M81.8044 41.5936C81.815 41.7418 81.7868 41.8903 81.7226 42.0243C81.6816 42.0874 81.6234 42.1375 81.5547 42.1684C81.4861 42.1993 81.41 42.2099 81.3355 42.1988H78.3422C78.3434 42.4662 78.3708 42.7328 78.424 42.9948C78.4621 43.1833 78.5464 43.3595 78.6693 43.5073C78.783 43.6386 78.9328 43.7334 79.1001 43.78C79.3057 43.8381 79.5188 43.8656 79.7325 43.8617H80.0924L80.4959 43.829L80.883 43.7909L81.2047 43.7472C81.2585 43.7351 81.3144 43.7351 81.3682 43.7472C81.4064 43.7472 81.4337 43.8018 81.45 43.8727L81.4936 44.1126C81.5057 44.1559 81.5005 44.2023 81.4791 44.2419C81.4578 44.2815 81.422 44.3114 81.3791 44.3252C81.2624 44.3742 81.1421 44.4143 81.0193 44.4452C80.8775 44.4833 80.7303 44.5106 80.5722 44.5378C80.4141 44.5651 80.2614 44.5815 80.1033 44.5978C79.9452 44.6142 79.8034 44.5978 79.678 44.5978C79.2781 44.6159 78.8798 44.5373 78.5167 44.3688C78.2475 44.233 78.021 44.0255 77.8624 43.7691C77.7072 43.5067 77.607 43.2154 77.5679 42.913C77.5206 42.5844 77.4969 42.2528 77.4971 41.9207C77.4998 41.6342 77.5216 41.3483 77.5625 41.0647C77.6021 40.7554 77.6982 40.456 77.846 40.1814C78.007 39.9114 78.2316 39.6848 78.5003 39.5217C78.8517 39.3223 79.2528 39.2277 79.6562 39.2491C80.0301 39.2355 80.4024 39.3044 80.7467 39.4508C81.0051 39.5732 81.2269 39.7612 81.3901 39.996C81.5461 40.2218 81.6521 40.4784 81.7008 40.7485C81.7536 41.0276 81.7882 41.3099 81.8044 41.5936ZM80.943 41.5336C80.9419 41.3508 80.9254 41.1684 80.8939 40.9884C80.8653 40.8107 80.8023 40.6403 80.7085 40.4867C80.6118 40.3341 80.4764 40.2099 80.3159 40.1269C80.1051 40.0269 79.873 39.9801 79.6398 39.9906C79.438 39.9837 79.237 40.0209 79.051 40.0996C78.8982 40.1695 78.7652 40.2763 78.6639 40.4104C78.5592 40.5565 78.4833 40.7212 78.4403 40.8957C78.3887 41.1085 78.3576 41.3257 78.3476 41.5445L80.943 41.5336Z" fill="#059347"/>
<path d="M86.4224 44.3636C86.1847 44.4652 85.9328 44.5296 85.6754 44.5544C85.3914 44.5895 85.1056 44.6077 84.8194 44.6089C84.4354 44.6254 84.0528 44.5526 83.7017 44.3963C83.4341 44.2678 83.209 44.0653 83.0529 43.8129C82.8952 43.5496 82.7949 43.2561 82.7584 42.9514C82.7101 42.6027 82.6864 42.2511 82.6875 41.8991C82.6871 41.5689 82.7108 41.239 82.7584 40.9122C82.7974 40.6116 82.8976 40.3221 83.0529 40.0617C83.2108 39.808 83.4352 39.6025 83.7017 39.4674C84.051 39.3043 84.4343 39.2277 84.8194 39.2438H85.1902L85.6209 39.282C85.7681 39.282 85.9099 39.3256 86.0517 39.3583C86.1824 39.3887 86.3101 39.4306 86.4333 39.4837C86.4575 39.4899 86.4797 39.5022 86.4978 39.5194C86.5159 39.5366 86.5294 39.5581 86.5369 39.5819C86.5454 39.6232 86.5454 39.6659 86.5369 39.7073L86.4933 39.9526C86.489 39.9783 86.4775 40.0021 86.4601 40.0215C86.4427 40.0408 86.4202 40.0547 86.3951 40.0617C86.3375 40.0725 86.2783 40.0725 86.2207 40.0617L85.4955 39.9908C85.2302 39.9653 85.0012 39.9526 84.8085 39.9526C84.602 39.9474 84.3964 39.9826 84.2033 40.0562C84.0437 40.1201 83.9082 40.2326 83.8162 40.3779C83.7091 40.5586 83.6387 40.7588 83.609 40.9668C83.5619 41.2661 83.54 41.5688 83.5436 41.8718C83.5395 42.1948 83.5614 42.5175 83.609 42.8369C83.6385 43.0526 83.7108 43.2602 83.8216 43.4476C83.9151 43.5937 84.0525 43.7064 84.2142 43.7693C84.4045 43.8385 84.606 43.8718 84.8085 43.8674H85.1193H85.501L85.899 43.8347L86.2588 43.7965C86.3091 43.7849 86.3613 43.7849 86.4115 43.7965C86.4497 43.7965 86.4769 43.8565 86.4933 43.9219L86.5369 44.1455C86.5467 44.1895 86.5405 44.2355 86.5196 44.2755C86.4986 44.3154 86.4642 44.3466 86.4224 44.3636Z" fill="#059347"/>
<path d="M90.6146 43.949C90.3318 44.1165 90.0386 44.2659 89.7368 44.3961C89.3833 44.5448 89.0024 44.6172 88.6191 44.6087C88.4214 44.6274 88.2221 44.604 88.0341 44.5401C87.8462 44.4762 87.6739 44.3732 87.5286 44.238C87.2893 43.927 87.1729 43.5388 87.2015 43.1475C87.183 42.9045 87.2141 42.6604 87.2928 42.4298C87.3715 42.1993 87.4963 41.9871 87.6594 41.8062C88.0901 41.4714 88.6322 41.3135 89.1752 41.3646H90.6419V41.0047C90.6584 40.8584 90.6426 40.7103 90.5955 40.5709C90.5483 40.4314 90.4711 40.304 90.3693 40.1978C90.0786 40.0199 89.7379 39.9414 89.3988 39.9742H89.0662H88.679L88.2756 40.0069L87.9048 40.0451C87.7849 40.0451 87.714 40.0451 87.6922 39.9524L87.6267 39.6798C87.6175 39.6602 87.6127 39.6388 87.6127 39.6171C87.6127 39.5954 87.6175 39.574 87.6267 39.5544C87.6676 39.5057 87.7201 39.4682 87.7794 39.4453C87.9044 39.4045 88.0319 39.3717 88.1611 39.3472C88.3083 39.3199 88.4664 39.2981 88.63 39.2763L89.1152 39.2381H89.546C89.8893 39.2263 90.2321 39.2724 90.5601 39.3745C90.7835 39.4475 90.9832 39.5793 91.138 39.7561C91.2741 39.9277 91.3608 40.1332 91.3889 40.3504C91.427 40.6067 91.4452 40.8656 91.4434 41.1247V43.4692C91.4363 43.5508 91.4363 43.6329 91.4434 43.7145C91.4508 43.7602 91.4696 43.8033 91.4979 43.8399C91.5265 43.8715 91.5649 43.8927 91.6069 43.8999H91.8087C91.9286 43.8999 91.9886 43.9544 91.9886 44.0362V44.3034C91.9906 44.3492 91.975 44.3941 91.945 44.4288C91.8969 44.4678 91.8378 44.4907 91.776 44.4942C91.6535 44.5157 91.5295 44.5266 91.4052 44.5269C91.213 44.5393 91.0219 44.4896 90.86 44.3852C90.7257 44.26 90.6438 44.0885 90.631 43.9054L90.6146 43.949ZM90.6146 42.0297H89.0552C88.7793 42.0145 88.5064 42.0933 88.281 42.2533C88.1712 42.3659 88.0882 42.5019 88.0382 42.651C87.9882 42.8002 87.9724 42.9587 87.992 43.1148C87.9787 43.2222 87.9873 43.3312 88.0173 43.4352C88.0473 43.5392 88.0981 43.6361 88.1665 43.72C88.3556 43.847 88.5835 43.903 88.8099 43.8781C88.9587 43.8764 89.1068 43.8581 89.2515 43.8236C89.4165 43.7881 89.5787 43.7408 89.7368 43.6818C89.9004 43.62 90.0585 43.5546 90.2111 43.4855C90.3513 43.4223 90.4878 43.3513 90.6201 43.2729L90.6146 42.0297Z" fill="#059347"/>
<path d="M99.9903 44.5212H99.5378C99.5131 44.5247 99.4879 44.5225 99.4642 44.5148C99.4406 44.507 99.4189 44.494 99.4011 44.4766C99.3832 44.4593 99.3695 44.4381 99.3611 44.4146C99.3526 44.3912 99.3497 44.3661 99.3524 44.3413V41.1462C99.3542 40.9638 99.3415 40.7814 99.3142 40.601C99.2976 40.4729 99.2529 40.35 99.1834 40.2411C99.123 40.1505 99.0351 40.0817 98.9326 40.0449C98.8025 40.0018 98.666 39.9815 98.5291 39.9849C98.3864 39.9878 98.245 40.0117 98.1093 40.0558C97.9566 40.0994 97.8039 40.1594 97.6513 40.2193C97.4986 40.2793 97.3459 40.3502 97.2096 40.4211L96.8607 40.601C96.8653 40.6718 96.8653 40.7428 96.8607 40.8136C96.8607 40.9118 96.8607 41.0317 96.8607 41.1735V44.3468C96.8646 44.3718 96.8625 44.3974 96.8544 44.4214C96.8464 44.4454 96.8328 44.4671 96.8146 44.4848C96.7964 44.5024 96.7743 44.5154 96.7501 44.5227C96.7258 44.53 96.7002 44.5314 96.6753 44.5267H96.2009C96.0919 44.5267 96.0374 44.4667 96.0374 44.3468V41.0754C96.0521 40.7974 95.9978 40.5202 95.8792 40.2684C95.8085 40.1648 95.7104 40.0829 95.5958 40.0319C95.4813 39.9808 95.3547 39.9627 95.2304 39.9794C95.0975 39.9821 94.9655 40.0023 94.8379 40.0394C94.6879 40.0799 94.5405 40.1291 94.3962 40.1866C94.2435 40.2466 94.0909 40.312 93.9437 40.3829L93.5402 40.5846V44.3413C93.5439 44.3658 93.5418 44.3908 93.534 44.4143C93.5263 44.4378 93.5131 44.4592 93.4956 44.4767C93.4781 44.4942 93.4568 44.5073 93.4333 44.5151C93.4097 44.5228 93.3847 44.5249 93.3603 44.5212H92.9132C92.8005 44.5212 92.7441 44.4613 92.7441 44.3413V39.5323C92.7441 39.4124 92.7987 39.347 92.9132 39.347H93.3494C93.3748 39.3435 93.4006 39.3459 93.425 39.3539C93.4493 39.3619 93.4715 39.3753 93.4899 39.3932C93.5083 39.4111 93.5224 39.4329 93.5311 39.457C93.5398 39.4811 93.5429 39.5068 93.5402 39.5323V39.9031L93.8946 39.6959C94.0315 39.6141 94.1736 39.5413 94.3199 39.4778C94.4728 39.4079 94.6315 39.3513 94.7942 39.3088C94.9583 39.2683 95.1268 39.2482 95.2958 39.2488C95.6115 39.2316 95.9259 39.2994 96.2064 39.4451C96.4178 39.5695 96.5811 39.7616 96.6698 39.9903C96.9559 39.7867 97.2566 39.6045 97.5695 39.4451C97.8879 39.2866 98.2388 39.2045 98.5945 39.2052C98.8683 39.1942 99.1413 39.2406 99.396 39.3415C99.5852 39.4222 99.7464 39.5569 99.8595 39.7286C99.9718 39.9113 100.044 40.1157 100.072 40.3284C100.109 40.5848 100.128 40.8435 100.127 41.1026V44.2977C100.136 44.3213 100.14 44.3468 100.138 44.3721C100.136 44.3974 100.128 44.4219 100.114 44.4436C100.101 44.4653 100.083 44.4836 100.062 44.4971C100.04 44.5105 100.016 44.5188 99.9903 44.5212Z" fill="#059347"/>
<path d="M102.426 37.973C102.429 38.0909 102.401 38.2074 102.345 38.3111C102.29 38.4038 102.165 38.4474 101.968 38.4474C101.772 38.4474 101.636 38.3983 101.587 38.3002C101.534 38.1973 101.508 38.083 101.51 37.9676C101.505 37.8496 101.537 37.7329 101.603 37.635C101.65 37.5867 101.707 37.5502 101.771 37.5284C101.834 37.5066 101.902 37.5002 101.968 37.5096C102.161 37.5096 102.285 37.5514 102.339 37.635C102.402 37.7361 102.433 37.8541 102.426 37.973ZM102.361 44.3414C102.361 44.4613 102.307 44.5213 102.192 44.5213H101.756C101.63 44.5213 101.565 44.4613 101.565 44.3414V39.5324C101.565 39.4506 101.565 39.4015 101.614 39.3852C101.657 39.3605 101.706 39.3491 101.756 39.3525H102.192C102.307 39.3525 102.361 39.4124 102.361 39.5378V44.3414Z" fill="#059347"/>
<path d="M106.509 40.0885C106.367 40.0885 106.209 40.1485 106.04 40.1975L105.544 40.3338L105.103 40.4702C104.999 40.5031 104.899 40.5451 104.803 40.5956V44.3413C104.806 44.3658 104.804 44.3908 104.796 44.4143C104.789 44.4378 104.776 44.4592 104.758 44.4767C104.741 44.4942 104.719 44.5074 104.696 44.5151C104.672 44.5228 104.647 44.5249 104.623 44.5213H104.159C104.045 44.5213 103.99 44.4613 103.99 44.3413V39.5323C103.99 39.4124 104.045 39.347 104.159 39.347H104.612C104.743 39.347 104.808 39.4069 104.808 39.5323V39.9685C104.9 39.8978 104.999 39.8357 105.103 39.7832C105.228 39.7177 105.359 39.6468 105.511 39.5814C105.664 39.516 105.811 39.456 105.969 39.4015C106.112 39.3519 106.258 39.3118 106.406 39.2815C106.425 39.2733 106.447 39.269 106.468 39.269C106.49 39.269 106.511 39.2733 106.531 39.2815C106.561 39.317 106.58 39.3607 106.586 39.4069L106.629 39.8486C106.667 40.0013 106.624 40.0721 106.509 40.0885Z" fill="#059347"/>
<path d="M107.552 44.1124C107.555 44.2386 107.523 44.3633 107.459 44.4722C107.399 44.5704 107.269 44.6195 107.061 44.6195C106.854 44.6195 106.718 44.5704 106.663 44.4722C106.607 44.3609 106.579 44.2373 106.582 44.1124C106.577 43.9877 106.609 43.8643 106.674 43.758C106.723 43.7053 106.783 43.6652 106.851 43.6415C106.918 43.6177 106.991 43.6109 107.061 43.6217C107.269 43.6217 107.401 43.6671 107.459 43.758C107.525 43.8641 107.557 43.9876 107.552 44.1124Z" fill="#059347"/>
<path d="M111.44 40.0885C111.298 40.0885 111.14 40.1485 110.971 40.1975L110.475 40.3338L110.033 40.4702C109.93 40.5035 109.83 40.5454 109.733 40.5956V44.3413C109.737 44.3658 109.735 44.3908 109.727 44.4143C109.719 44.4378 109.706 44.4592 109.689 44.4767C109.671 44.4942 109.65 44.5074 109.626 44.5151C109.603 44.5228 109.578 44.5249 109.553 44.5213H109.09C108.975 44.5213 108.921 44.4613 108.921 44.3413V39.5323C108.921 39.4124 108.975 39.347 109.09 39.347H109.542C109.673 39.347 109.733 39.4069 109.733 39.5323V39.9685C109.826 39.8979 109.924 39.8358 110.028 39.7832C110.153 39.7177 110.289 39.6468 110.437 39.5814C110.584 39.516 110.737 39.456 110.895 39.4015C111.037 39.3517 111.183 39.3116 111.331 39.2815C111.351 39.2733 111.372 39.269 111.394 39.269C111.415 39.269 111.436 39.2733 111.456 39.2815C111.487 39.3166 111.506 39.3605 111.511 39.4069L111.554 39.8486C111.598 40.0013 111.549 40.0721 111.44 40.0885Z" fill="#059347"/>
<path d="M116.224 44.5215H115.788C115.663 44.5215 115.597 44.4615 115.597 44.3415V43.9708C115.51 44.0289 115.399 44.0962 115.265 44.1725C115.118 44.2547 114.967 44.3294 114.812 44.3961C114.635 44.4703 114.453 44.5305 114.267 44.576C114.089 44.6252 113.906 44.6509 113.722 44.6523C113.438 44.6659 113.155 44.6156 112.893 44.5051C112.698 44.4181 112.533 44.2759 112.419 44.0962C112.303 43.9072 112.23 43.6949 112.206 43.4746C112.172 43.2143 112.156 42.952 112.157 42.6895V39.5326C112.153 39.5079 112.156 39.4827 112.163 39.459C112.171 39.4353 112.184 39.4137 112.201 39.3958C112.219 39.378 112.24 39.3643 112.264 39.3558C112.287 39.3474 112.312 39.3444 112.337 39.3472H112.8C112.915 39.3472 112.969 39.4072 112.969 39.5326V42.6731C112.967 42.8757 112.981 43.0782 113.013 43.2783C113.032 43.4109 113.081 43.5375 113.155 43.6491C113.222 43.7386 113.315 43.8053 113.422 43.8399C113.556 43.8794 113.696 43.8978 113.836 43.8944C113.986 43.8903 114.135 43.8646 114.278 43.8181C114.447 43.769 114.616 43.7091 114.785 43.6491C114.954 43.5891 115.112 43.5182 115.259 43.4474L115.608 43.2783V39.5326C115.605 39.5079 115.607 39.4827 115.615 39.459C115.622 39.4353 115.635 39.4137 115.653 39.3958C115.67 39.378 115.691 39.3643 115.715 39.3558C115.738 39.3474 115.763 39.3444 115.788 39.3472H116.224C116.249 39.3444 116.274 39.3474 116.298 39.3558C116.321 39.3643 116.342 39.378 116.36 39.3958C116.377 39.4137 116.39 39.4353 116.398 39.459C116.406 39.4827 116.408 39.5079 116.404 39.5326V44.3415C116.408 44.366 116.406 44.391 116.398 44.4145C116.39 44.438 116.377 44.4594 116.36 44.4769C116.342 44.4944 116.321 44.5076 116.297 44.5153C116.274 44.523 116.249 44.5252 116.224 44.5215Z" fill="#059347"/>
</svg>
