<svg width="158" height="57" viewBox="0 0 158 57" fill="none" xmlns="http://www.w3.org/2000/svg">
<path opacity="0.1" fill-rule="evenodd" clip-rule="evenodd" d="M12.4171 56.2168C5.47557 55.7147 0 49.924 0 42.8545C0 35.4551 5.99835 29.4568 13.3977 29.4568C14.977 29.4568 16.4925 29.7301 17.8995 30.2319C20.1526 23.6956 26.3575 19 33.6591 19C41.0214 19 47.2686 23.774 49.474 30.3952C51.9315 27.4267 55.6445 25.5355 59.7992 25.5355C66.1883 25.5355 71.5328 30.0076 72.8731 35.9922C78.4661 35.9942 82.9995 40.5288 82.9995 46.1222C82.9995 51.6073 78.64 56.0742 73.1968 56.247V56.2522H12.4171V56.2168Z" fill="#006DC3"/>
<path opacity="0.1" fill-rule="evenodd" clip-rule="evenodd" d="M121.418 19.2339C117.83 18.9747 115 15.9819 115 12.3282C115 8.50413 118.1 5.40414 121.924 5.40414C122.74 5.40414 123.523 5.54523 124.25 5.80435C125.414 2.42656 128.621 0 132.394 0C136.199 0 139.428 2.46788 140.568 5.89047C141.838 4.35552 143.757 3.37754 145.905 3.37754C149.207 3.37754 151.969 5.6888 152.662 8.78174C155.553 8.78215 157.896 11.1259 157.896 14.017C157.896 16.8521 155.643 19.1608 152.829 19.2496V19.2522H121.418V19.2339Z" fill="#006DC3"/>
</svg>
