<svg width="572" height="789" viewBox="0 0 572 789" fill="none" xmlns="http://www.w3.org/2000/svg">
<mask id="mask0" mask-type="alpha" maskUnits="userSpaceOnUse" x="30" y="176" width="512" height="512">
<circle cx="286" cy="432.027" r="255.093" fill="#EAEDF2"/>
</mask>
<g mask="url(#mask0)">
<mask id="mask1" mask-type="alpha" maskUnits="userSpaceOnUse" x="-2" y="192" width="565" height="538">
<path d="M406.164 266.006L459.396 242.289L548.996 254.938L562.172 517.937L532.657 706.095L306.025 729.812H49.3501L14.5647 547.452L-1.77393 300.791L82.5544 288.142L127.354 300.791L128.408 298.683L131.043 294.467H133.678V291.304H141.584L144.22 295.521L147.909 302.373L155.288 308.697L172.153 311.859L265.969 331.887L329.215 302.9L330.269 300.791C327.107 302.021 319.412 304.059 313.93 302.373C308.449 300.686 306.376 292.183 306.025 288.142C305.849 286.034 304.97 280.869 302.862 277.074C300.754 273.279 299.876 266.709 299.7 263.898H298.119C290.951 264.319 289.862 254.586 290.213 249.667L297.591 248.086C295.905 243.87 296.889 238.248 297.591 235.964C294.429 234.91 283.888 223.842 284.942 224.369C285.785 224.79 292.321 223.139 295.483 222.261C317.83 199.492 330.796 193.448 334.485 193.273C342.039 191.165 360.627 191.481 374.541 209.611C388.455 227.742 381.744 252.303 376.649 262.317H397.731L406.164 266.006Z" fill="#C4C4C4"/>
</mask>
<g mask="url(#mask1)">
<path d="M102.894 218.94H17.0676V218.921C16.8187 218.921 16.5729 218.94 16.3208 218.94C10.7972 218.936 5.4805 216.837 1.44154 213.066C-2.59743 209.296 -5.05856 204.133 -5.44611 198.619C-5.83366 193.105 -4.11882 187.649 -0.647041 183.35C2.82475 179.05 7.79553 176.227 13.2641 175.449C13.2232 174.819 13.2011 174.204 13.2011 173.573C13.2034 166.833 15.5954 160.312 19.9515 155.171C24.3077 150.03 30.3452 146.603 36.9896 145.499C43.6339 144.396 50.4541 145.687 56.2361 149.144C62.0181 152.601 66.3869 157.999 68.5649 164.377C72.1442 163.596 75.8529 163.626 79.4186 164.467C82.9844 165.309 86.3165 166.938 89.1702 169.237C92.0239 171.536 94.3267 174.446 95.9093 177.752C97.4919 181.059 98.3142 184.678 98.3156 188.344C98.3156 188.581 98.3156 188.814 98.2967 189.048C100.398 188.385 102.617 188.185 104.803 188.462C106.988 188.738 109.088 189.484 110.958 190.648C112.829 191.813 114.426 193.368 115.639 195.208C116.853 197.048 117.655 199.128 117.99 201.307C118.325 203.486 118.185 205.711 117.58 207.831C116.976 209.951 115.92 211.915 114.486 213.588C113.052 215.261 111.273 216.605 109.272 217.526C107.271 218.447 105.094 218.924 102.891 218.925L102.894 218.94Z" fill="#E5F0F9"/>
<path d="M5.5 271.115C112.5 301.115 199.378 310.115 299.478 341.075C338.868 353.254 292.409 388.536 292.409 388.536L542.5 390.343V482.63H5.5V271.115Z" fill="#E9E9EC"/>
<path d="M5.5 513.027H542.5V696.569H5.5V513.027Z" fill="#C2C3CC"/>
<path d="M101.256 382.942C267.474 350.349 406.295 250.986 488.721 231.998C506.377 228.005 524.401 225.868 542.5 225.622V425.37C402.378 423.941 181.055 421.901 131.413 421.901C33.5017 421.895 4.00317 402.011 101.256 382.942Z" fill="#DEDFE6"/>
<path d="M135.611 602.8C135.61 610.157 137.058 617.441 139.871 624.238C142.684 631.035 146.807 637.21 152.004 642.412C157.202 647.614 163.373 651.741 170.165 654.556C176.956 657.371 184.235 658.82 191.586 658.82H263.951C273.902 658.82 283.446 662.777 290.483 669.819C297.519 676.86 301.472 686.411 301.472 696.37C301.472 696.875 301.453 696.071 301.435 696.572H5.5V459.46H542.5V546.783H191.586C176.741 546.783 162.503 552.685 152.006 563.19C141.508 573.695 135.611 587.943 135.611 602.8Z" fill="#D6D7DE"/>
<path d="M525.893 451.775C525.893 451.775 527.096 380.359 493.93 343.97C521.771 393.002 516.442 447.344 516.442 447.344C516.442 447.344 511.898 398.256 495.477 377.521C495.477 377.521 509.55 409.662 507.679 453.522C500.289 416.032 493.93 407.243 493.93 407.243C493.93 407.243 500.116 433.569 491.869 459.445H525.893V451.775Z" fill="#C2C3CC"/>
<path d="M503.11 459.476C503.74 410.204 491.551 371.507 481.222 347.722C470.016 321.923 458.482 307.565 458.369 307.423L456.768 308.722C456.882 308.861 468.27 323.052 479.366 348.621C489.601 372.21 501.67 410.583 501.049 459.451L503.11 459.476Z" fill="#C2C3CC"/>
<path d="M477.739 459.744C485.384 432.708 481.88 403.065 477.585 382.932C472.946 361.173 466.411 345.547 466.344 345.405L464.454 346.209C464.52 346.363 470.989 361.832 475.584 383.421C479.816 403.289 483.282 432.579 475.751 459.195L477.739 459.744Z" fill="#C2C3CC"/>
<path d="M465.396 320.176C464.55 320.784 463.498 321.032 462.47 320.864C461.443 320.696 460.524 320.126 459.916 319.28L445.805 299.627C445.2 298.781 444.955 297.73 445.123 296.704C445.292 295.678 445.859 294.76 446.703 294.153C447.548 293.544 448.6 293.297 449.628 293.465C450.656 293.633 451.575 294.202 452.183 295.048L466.297 314.692C466.598 315.111 466.813 315.586 466.93 316.088C467.048 316.591 467.065 317.111 466.981 317.621C466.898 318.13 466.715 318.618 466.443 319.056C466.17 319.495 465.815 319.875 465.396 320.176Z" fill="#C2C3CC"/>
<path d="M467.815 352.074C466.885 352.541 465.807 352.619 464.819 352.291C463.831 351.963 463.014 351.255 462.547 350.324L451.703 328.7C451.237 327.769 451.159 326.69 451.487 325.701C451.815 324.712 452.522 323.895 453.452 323.427C453.913 323.194 454.416 323.054 454.931 323.015C455.446 322.977 455.964 323.04 456.455 323.202C456.945 323.364 457.399 323.621 457.79 323.959C458.181 324.297 458.502 324.709 458.734 325.171L469.577 346.795C469.808 347.257 469.947 347.761 469.983 348.277C470.02 348.792 469.955 349.31 469.791 349.801C469.627 350.291 469.369 350.744 469.03 351.135C468.691 351.525 468.278 351.844 467.815 352.074Z" fill="#C2C3CC"/>
<path d="M194.835 615.039H477.5C481.714 615.039 485.755 616.715 488.735 619.696C491.714 622.678 493.388 626.723 493.388 630.94C493.388 633.028 492.976 635.096 492.177 637.025C491.378 638.954 490.207 640.707 488.731 642.183C487.255 643.659 485.503 644.83 483.575 645.629C481.647 646.427 479.58 646.838 477.494 646.837H297.682C294.935 646.837 292.3 645.75 290.352 643.812C288.403 641.875 287.3 639.245 287.283 636.496C287.26 632.826 284.399 629.811 280.728 629.811H194.649C193.675 629.812 192.71 629.62 191.81 629.246C190.91 628.872 190.093 628.323 189.407 627.631C188.72 626.938 188.177 626.117 187.81 625.214C187.442 624.311 187.258 623.343 187.266 622.368C187.294 618.284 190.748 615.039 194.835 615.039Z" fill="#B3B5BD"/>
<path d="M485.498 477.612C485.709 474.497 488.409 472.131 491.529 472.131H542.5V483.91H491.371C490.563 483.911 489.763 483.746 489.021 483.423C488.279 483.101 487.612 482.629 487.061 482.038C486.51 481.446 486.086 480.746 485.817 479.983C485.548 479.22 485.439 478.41 485.498 477.603V477.612Z" fill="#C9CAD3"/>
<path d="M5.50067 478.022H133.9C135.182 478.022 136.41 478.532 137.316 479.438C138.222 480.345 138.731 481.575 138.731 482.857V483.018C138.731 483.922 139.09 484.789 139.729 485.428C140.368 486.067 141.234 486.427 142.138 486.427H185.817C190.011 486.427 193.547 489.763 193.566 493.957C193.57 494.954 193.377 495.942 192.999 496.863C192.621 497.785 192.064 498.623 191.362 499.33C190.659 500.036 189.824 500.596 188.904 500.978C187.985 501.361 186.999 501.558 186.003 501.558H103.696C100.129 501.558 97.0185 504.475 97.0122 508.041C97.0097 508.895 97.1757 509.741 97.5005 510.53C97.8254 511.319 98.3028 512.036 98.9054 512.641C99.5079 513.245 100.224 513.724 101.012 514.05C101.8 514.377 102.644 514.545 103.497 514.544H126.571C128.357 514.544 130.07 515.254 131.334 516.518C132.597 517.783 133.306 519.497 133.306 521.285C133.306 523.073 132.597 524.787 131.334 526.051C130.07 527.315 128.357 528.026 126.571 528.026H5.50067V478.022Z" fill="#C9CAD3"/>
<path d="M415.739 561.886L409.965 559.17L394.758 584.683L399.021 587.669L415.739 561.886Z" fill="#416A8A"/>
<path d="M160.486 353.317C160.486 353.317 189.408 376.291 205.003 386.981C217.46 395.515 235.447 407.142 245.226 413.415C247.36 414.78 249.814 415.562 252.344 415.683C254.874 415.803 257.392 415.258 259.646 414.102C281.042 403.109 341.64 370.39 352.084 347.562C354.753 341.727 355.767 329.034 354.961 317.896C354.015 305.017 350.659 294.225 344.615 298.517C311.842 321.787 248.976 373.257 248.976 373.257L175.738 330.712L164.948 346.716L160.486 353.317Z" fill="#416A8A"/>
<path d="M117.964 322.5L118.409 323.008L119.474 324.238L118.528 329.154C118.306 330.288 118.481 331.464 119.024 332.483C119.567 333.503 120.445 334.304 121.509 334.752L154.219 348.476L160.878 352.743L174.21 332.983L169.622 328.955L158.533 312.535C158.066 311.844 157.474 311.247 156.787 310.775L147.359 304.313L144.173 300.17L141.989 294.761C141.922 294.597 141.822 294.448 141.695 294.324C141.568 294.2 141.417 294.104 141.251 294.041C141.085 293.979 140.907 293.951 140.73 293.961C140.553 293.97 140.38 294.016 140.221 294.096L139.635 294.392C138.942 294.739 138.358 295.273 137.95 295.933C137.542 296.593 137.326 297.353 137.325 298.129V298.974C137.325 302.801 138.844 306.47 141.548 309.176L144.718 312.349C144.789 312.419 144.844 312.504 144.878 312.598C144.913 312.692 144.927 312.792 144.918 312.892C144.91 312.992 144.881 313.088 144.831 313.175C144.782 313.262 144.714 313.338 144.633 313.396C144.519 313.478 144.383 313.522 144.242 313.522C144.065 313.523 143.894 313.455 143.766 313.333L132.384 302.582L132.4 302.396L132.869 296.111C132.913 295.536 132.767 294.963 132.453 294.479C132.139 293.995 131.676 293.628 131.133 293.433C130.849 293.331 130.55 293.278 130.248 293.279C129.686 293.276 129.138 293.453 128.684 293.784C128.23 294.116 127.895 294.584 127.727 295.121L125.997 300.643L126.627 303.351L123.873 305.244C123.379 305.583 122.968 306.029 122.669 306.549L120.243 310.807C119.96 311.3 119.823 311.863 119.847 312.431C119.871 312.999 120.055 313.549 120.378 314.017L120.731 314.525L117.788 318.527C117.363 319.111 117.149 319.822 117.181 320.544C117.213 321.266 117.489 321.956 117.964 322.5Z" fill="#F29E62"/>
<path d="M130.828 321.633C131.182 322.173 131.319 322.827 131.212 323.464C131.105 324.102 130.762 324.675 130.251 325.07L124.734 329.337L128.143 330.646L137.102 334.077C150.426 338.807 157.368 331.832 151.037 327.079C144.706 322.327 144.627 313.386 144.627 313.386C144.514 313.468 144.377 313.513 144.237 313.512C144.059 313.514 143.889 313.446 143.761 313.323L132.379 302.573L132.394 302.386L130.151 305.518L118.406 323.001L119.588 324.184L127.57 320.715C128.134 320.461 128.77 320.414 129.365 320.582C129.961 320.75 130.479 321.122 130.828 321.633Z" fill="#E37845"/>
<path d="M136.045 332.983C137.132 332.983 138.174 332.551 138.942 331.782C139.71 331.013 140.142 329.97 140.142 328.883V290.387H131.949V328.889C131.95 329.975 132.382 331.017 133.151 331.784C133.919 332.552 134.96 332.983 136.045 332.983Z" fill="#6C8294"/>
<path d="M136.045 332.983C137.132 332.983 138.174 332.551 138.942 331.782C139.71 331.013 140.142 329.97 140.142 328.883V300.595H131.949V328.889C131.95 329.975 132.382 331.017 133.151 331.784C133.919 332.551 134.96 332.983 136.045 332.983Z" fill="#3D6280"/>
<path d="M131.955 298.858L126.387 302.264L126.985 304.6H131.955V298.858Z" fill="#E37845"/>
<path d="M120.06 313.487C120.106 313.574 120.158 313.659 120.214 313.739L120.753 314.509L126.646 310.034L130.203 309.501C130.944 309.393 131.625 309.034 132.134 308.484C132.642 307.934 132.947 307.227 132.999 306.48C132.999 306.407 132.999 306.332 132.999 306.253C132.998 306.049 132.979 305.845 132.942 305.644C132.789 304.813 132.322 304.073 131.639 303.578C130.955 303.082 130.107 302.869 129.271 302.983L126.639 303.336L124.103 305.067C123.466 305.5 122.937 306.073 122.555 306.742L120.091 311.049C119.881 311.42 119.767 311.838 119.762 312.264C119.756 312.691 119.859 313.111 120.06 313.487Z" fill="#F29E62"/>
<path d="M120.06 313.487C120.106 313.574 120.158 313.659 120.214 313.739L120.753 314.509L126.646 310.034L130.203 309.501C130.944 309.393 131.625 309.034 132.134 308.484C132.642 307.934 132.947 307.227 132.999 306.48L125.338 308.908L120.06 313.487Z" fill="#E37845"/>
<path d="M119.477 324.225L132.45 315.616C132.957 315.279 133.363 314.81 133.624 314.259C133.884 313.708 133.989 313.097 133.928 312.491C133.882 312.04 133.746 311.604 133.527 311.208C133.308 310.812 133.011 310.465 132.654 310.187C132.296 309.91 131.887 309.707 131.449 309.593C131.012 309.478 130.556 309.453 130.109 309.52L126.642 310.037L120.746 314.503L117.769 318.549C117.348 319.12 117.134 319.818 117.163 320.527C117.192 321.236 117.461 321.914 117.926 322.45L119.477 324.225Z" fill="#F29E62"/>
<path d="M160.487 353.317C160.487 353.317 189.409 376.291 205.004 386.981C217.461 395.515 235.448 407.142 245.226 413.415C247.36 414.78 249.815 415.562 252.345 415.683C254.875 415.803 257.392 415.258 259.646 414.102C281.043 403.109 341.641 370.39 352.084 347.562C354.753 341.727 354.946 333.273 355.236 328.158L250.067 399.249L164.952 346.698L160.487 353.317Z" fill="#3D6280"/>
<path d="M359.439 451.368C320.994 433.052 263.582 428.196 234.465 426.912C232.091 426.809 229.722 427.188 227.498 428.026C225.275 428.864 223.244 430.144 221.529 431.789C219.813 433.433 218.448 435.408 217.515 437.595C216.583 439.782 216.102 442.135 216.103 444.512V580.085H261.685V493.153L369.886 516.064C369.886 516.064 375.397 458.972 359.439 451.368Z" fill="#005697"/>
<path d="M332.471 442.545C332.698 443.474 332.92 444.38 333.136 445.263C338.651 467.704 347.001 468.688 354.048 472.068C356.736 473.345 359.52 474.41 362.373 475.254C376.024 479.353 392.975 479.773 409.506 478.511C433.613 476.673 456.818 471.258 467.52 468.505C469.253 468.056 470.762 466.987 471.76 465.5C472.757 464.012 473.175 462.21 472.934 460.435C470.69 443.866 462.465 396.792 436.159 338.896C411.992 285.714 392.329 290.438 369.876 280.491C366.864 279.154 372.901 278.571 355.957 301.554C332.695 333.109 334.608 310.98 334.519 310.567C311.597 351.415 324.609 410.359 332.471 442.545Z" fill="#2C2A40"/>
<path d="M397.84 260.321L377.127 260.015L369.886 270.27L371.985 279.794L397.84 260.321Z" fill="#291C2E"/>
<path d="M332.846 289.775C332.846 289.775 334.699 295.136 333.879 311.709C333.498 319.425 331.081 325.783 343.481 318.672C370.991 302.904 369.876 280.488 369.876 280.488L353.603 267.407L332.846 289.775Z" fill="#E37845"/>
<path d="M192.405 494.585H254.137L201.868 408.41H140.132L192.405 494.585Z" fill="#B7682B"/>
<path d="M204.786 464.853L216.225 467.524C217.37 467.794 218.552 467.876 219.723 467.767L230.866 465.777C231.83 465.605 232.755 465.262 233.598 464.765L239.585 461.242C239.626 461.216 239.655 461.176 239.668 461.13C239.681 461.084 239.677 461.035 239.657 460.991C239.637 460.948 239.601 460.913 239.557 460.894C239.514 460.874 239.464 460.872 239.418 460.886L234.692 462.642L231.083 456.695C231.083 456.695 240.184 452.847 243.622 451.999C250.041 450.422 255.282 452.945 258.943 454.251C261.282 455.083 263.67 455.73 266.15 455.572L270.297 455.298L269.437 472.068L269.358 473.645V473.692L269.147 477.858L268.936 477.88L259.318 478.666L237.128 485.837C233.394 487.039 229.378 487.039 225.644 485.837C223.19 485.055 220.716 484.38 218.252 483.652C217.422 483.406 216.616 483.09 215.841 482.705C212.639 481.129 209.652 478.486 207.314 476.083C207.093 475.85 206.869 475.619 206.649 475.376C205.403 474.008 204.281 472.53 203.299 470.961C202.893 470.326 202.52 469.67 202.18 468.997L202.149 468.934C201.172 467.06 202.483 464.32 204.786 464.853Z" fill="#F29E62"/>
<path d="M206.618 475.367C206.838 475.61 207.062 475.843 207.283 476.073C209.621 478.486 212.605 481.119 215.81 482.696L225.613 485.85C229.347 487.051 233.363 487.051 237.097 485.85L259.287 478.678L268.905 477.893L269.327 473.705V473.658L269.523 472.081H269.406L258.49 472.989C258.49 472.989 234.314 482.45 225.301 481.132C221.422 480.555 212.252 478.171 206.618 475.367Z" fill="#E37845"/>
<path d="M202.146 468.994C202.486 469.667 202.859 470.323 203.265 470.958C206.854 472.668 216.223 476.846 223.01 477.338C224.835 477.47 238.871 473.869 235.272 473.626C234.147 473.219 222.188 475.607 220.203 475.042C214.656 473.459 205.004 471.375 202.146 468.994Z" fill="#E37845"/>
<path d="M369.608 632.315V643.037H409.443L451.65 582.065C451.829 581.805 451.95 581.509 452.004 581.198C452.059 580.886 452.046 580.567 451.966 580.261C451.887 579.955 451.743 579.67 451.544 579.425C451.345 579.18 451.095 578.98 450.812 578.839L415.739 561.883L399.038 587.666L398.896 594.938L398.757 598.956L398.552 604.992L398.42 608.757L395.218 614.544H387.369C385.036 614.543 382.726 615.001 380.571 615.894C378.416 616.786 376.457 618.095 374.808 619.745C373.158 621.396 371.85 623.355 370.958 625.512C370.066 627.669 369.607 629.98 369.608 632.315Z" fill="#221413"/>
<path d="M409.443 643.024H369.605V634.929H404.792L443.552 575.326L451.086 578.994C451.338 579.115 451.56 579.289 451.737 579.504C451.914 579.72 452.042 579.971 452.113 580.241C452.183 580.511 452.194 580.794 452.145 581.068C452.095 581.343 451.987 581.604 451.827 581.832L409.443 643.024Z" fill="#382321"/>
<path d="M398.744 598.959L403.647 591.589C403.803 591.356 403.859 591.07 403.804 590.795C403.749 590.52 403.587 590.278 403.354 590.123C403.121 589.967 402.836 589.911 402.561 589.966C402.286 590.021 402.044 590.183 401.889 590.416L398.883 594.942L398.744 598.959Z" fill="#553936"/>
<path d="M398.404 608.764C398.564 608.68 398.7 608.559 398.801 608.41L405.614 598.161C405.692 598.046 405.746 597.917 405.773 597.781C405.801 597.645 405.801 597.505 405.774 597.369C405.747 597.233 405.694 597.104 405.616 596.989C405.539 596.873 405.44 596.775 405.324 596.698C405.09 596.544 404.805 596.489 404.531 596.545C404.256 596.6 404.015 596.762 403.859 596.994L398.54 604.995L398.404 608.764Z" fill="#553936"/>
<path d="M173.416 615.137V623.854H265.473V611.312L261.574 580.091H226.464L223.599 586.137L222.603 588.25L220.445 592.8L219.449 594.913H193.609C190.956 594.914 188.329 595.438 185.879 596.455C183.428 597.471 181.202 598.961 179.327 600.839C177.451 602.717 175.964 604.947 174.95 607.4C173.936 609.853 173.415 612.482 173.416 615.137Z" fill="#221413"/>
<path d="M173.416 615.137H265.473V623.854H173.416V615.137Z" fill="#382321"/>
<path d="M222.6 588.243H235.132C235.412 588.243 235.681 588.132 235.879 587.934C236.077 587.736 236.188 587.467 236.188 587.187C236.188 586.907 236.077 586.638 235.879 586.44C235.681 586.242 235.412 586.13 235.132 586.13H223.596L222.6 588.243Z" fill="#553936"/>
<path d="M219.446 594.91H231.735C232.015 594.91 232.284 594.799 232.482 594.6C232.68 594.402 232.791 594.134 232.791 593.853C232.791 593.573 232.68 593.305 232.482 593.106C232.284 592.908 232.015 592.797 231.735 592.797H220.445L219.446 594.91Z" fill="#553936"/>
<path d="M353.83 331.661C361.021 311.034 385.137 291.04 419.69 305.464C422.527 306.641 424.984 307.808 427.153 308.955C448.738 318.101 473.945 340.718 487.026 371.289L504.042 413.834C516.962 446.155 496.609 482.39 462.21 487.59C461.693 487.669 461.17 487.745 460.634 487.817C451.521 489.054 444.248 483.957 438.462 474.774C450.856 472.604 461.302 470.107 467.526 468.495C469.259 468.047 470.768 466.977 471.766 465.49C472.763 464.003 473.181 462.2 472.94 460.425C472.653 458.297 472.265 455.667 471.755 452.573L409.383 419.968L412.31 408.804L468.875 437.306C463.997 414.131 454.448 379.123 436.165 338.883C435.459 337.331 434.76 335.84 434.06 334.386C428.703 324.058 405.898 302.412 381.573 313.973C357.057 325.628 359.729 381.034 359.729 381.034L359.124 392.831C359.124 392.831 341.137 368.028 353.83 331.661Z" fill="#D1001B"/>
<path d="M244.139 530.984C244.139 531.204 244.139 531.428 244.139 531.649C244.278 537.19 246.176 542.543 249.558 546.932C252.939 551.321 257.629 554.52 262.948 556.064L388.569 595.042L409.965 559.167L371.896 539.208L409.965 532.362C469.3 521.681 468.02 478.555 466.918 468.659C455.97 471.469 433.171 476.707 409.505 478.511C392.974 479.773 376.021 479.356 362.373 475.253C361.771 475.074 361.175 474.884 360.589 474.689C319.582 483.976 278.893 498.243 259.318 507.284C254.791 509.371 250.955 512.713 248.265 516.912C245.575 521.112 244.143 525.995 244.139 530.984Z" fill="#006DC3"/>
<path d="M294.473 537.007C311.039 533.283 367.43 520.372 397.518 510.646C420.245 503.298 429.919 493.213 434.031 486.048C436.773 481.27 437.469 477.398 437.602 474.925C438.314 474.787 439.013 474.676 439.732 474.55C439.666 477.193 439.026 481.516 435.95 486.937C431.677 494.478 421.656 505.058 398.164 512.655C367.994 522.409 311.527 535.336 294.936 539.066C294.892 539.066 294.867 539.066 294.867 539.151C294.867 539.237 294.892 539.227 294.936 539.237C301.169 540.534 307.23 541.874 313.119 543.257C314.745 542.794 318.99 542.311 328.714 542.034C338.647 541.753 371.886 539.211 371.886 539.211L409.965 559.167L400.972 574.251L400.493 575.197C374.473 561.92 338.814 550.517 294.508 541.302C294.022 541.192 293.589 540.922 293.276 540.534C292.964 540.146 292.792 539.665 292.788 539.167C292.784 538.669 292.948 538.184 293.254 537.792C293.56 537.399 293.99 537.121 294.473 537.004V537.007Z" fill="#005697"/>
<path d="M124.735 329.337L128.142 330.649L128.157 330.617L124.735 329.337Z" fill="#F29E62"/>
<path d="M332.471 442.541L335.937 442.046C320.635 374.272 331.901 329.75 331.901 329.75L334.841 311.775C334.724 311.377 334.614 310.977 334.526 310.576C311.597 351.412 324.609 410.359 332.471 442.541Z" fill="#291C2E"/>
<path d="M362.373 475.244C376.024 479.344 392.975 479.763 409.506 478.502L420.403 370.435L363.681 466.105L362.373 475.244Z" fill="#291C2E"/>
<path d="M416.328 410.838L415.106 422.97L409.377 419.974L412.304 408.811L416.328 410.838Z" fill="#9F3322"/>
<path d="M265.523 452.213L265.58 468.994V469.035L265.621 481.422L388.349 475.815C390.228 475.728 392.03 475.042 393.492 473.857C394.954 472.672 395.999 471.051 396.476 469.23C399.74 456.742 407.423 427.332 415.525 396.568C420.652 377.082 425.432 343.014 416.212 326.657C415.246 324.945 414.115 323.332 412.834 321.841C404.524 312.134 390.252 307.779 377.672 316.165C367.847 322.702 362.43 335.856 360.404 360.208C358.762 379.921 358.513 438.801 358.513 438.801L265.523 452.213Z" fill="#416A8A"/>
<path d="M265.583 468.994V469.035L265.624 481.422L388.351 475.815C390.231 475.728 392.033 475.042 393.495 473.857C394.957 472.672 396.002 471.051 396.479 469.23C399.743 456.742 407.426 427.332 415.528 396.568C420.655 377.082 425.435 343.014 416.215 326.657C415.249 324.944 414.117 323.332 412.837 321.841L383.325 460.403L265.583 468.994Z" fill="#3D6280"/>
<path d="M325.695 340.829L329.477 334.058C329.431 333.496 329.476 332.931 329.609 332.383C329.997 330.74 330.999 329.57 331.85 329.772C332.701 329.974 333.079 331.466 332.691 333.109C332.568 333.665 332.355 334.198 332.061 334.686L332.231 342.469C332.24 343.004 332.126 343.535 331.897 344.019C331.668 344.503 331.331 344.928 330.912 345.261C330.493 345.594 330.003 345.826 329.479 345.94C328.956 346.053 328.414 346.044 327.895 345.913C327.376 345.783 326.893 345.535 326.485 345.188C326.077 344.842 325.754 344.406 325.542 343.914C325.329 343.422 325.232 342.888 325.259 342.353C325.286 341.818 325.435 341.297 325.695 340.829ZM326.956 343.147C327.085 343.596 327.376 343.982 327.774 344.23C328.171 344.477 328.645 344.569 329.106 344.486C329.566 344.404 329.98 344.154 330.266 343.784C330.553 343.414 330.693 342.951 330.659 342.484L330.51 335.723H330.46L330.388 335.698L327.091 341.604C326.961 341.837 326.882 342.095 326.859 342.361C326.835 342.627 326.869 342.895 326.956 343.147Z" fill="#E37845"/>
<path d="M331.897 329.75L327.839 307.41L333.155 291.043C333.155 291.043 336.621 312.342 336.454 318.06C336.287 323.777 334.828 325.849 334.828 325.849L331.897 329.75Z" fill="#5B485C"/>
<path d="M296.992 233.086L296.141 239.078C295.871 240.978 296.018 242.915 296.572 244.752C297.126 246.59 298.074 248.285 299.349 249.718C299.912 250.352 300.331 251.101 300.576 251.913C300.821 252.725 300.886 253.581 300.767 254.42L299.944 260.207C299.465 263.58 299.818 267.018 300.972 270.223L307.693 288.905C308.111 290.795 309.112 292.505 310.554 293.794C311.997 295.082 313.809 295.884 315.732 296.086C321.597 296.699 327.49 295.213 332.364 291.891L350.591 279.444C352.769 277.959 354.593 276.011 355.933 273.74C357.273 271.468 358.096 268.929 358.343 266.303L360.133 247.303C360.133 247.303 323.667 183.455 296.992 233.086Z" fill="#F29E62"/>
<path d="M303.244 246.499L303.893 251.929L307.967 251.44L307.321 246.016L326.752 243.686L327.713 251.721C327.816 252.58 327.749 253.45 327.516 254.283C327.282 255.116 326.887 255.895 326.353 256.575C325.819 257.255 325.157 257.823 324.403 258.246C323.65 258.67 322.82 258.941 321.962 259.044L315.612 259.801C314.754 259.904 313.884 259.836 313.052 259.603C312.22 259.37 311.442 258.974 310.762 258.44C310.083 257.905 309.515 257.242 309.092 256.488C308.669 255.734 308.398 254.904 308.295 254.045L308.235 253.541L304.161 254.029L304.227 254.594C304.432 256.312 303.947 258.041 302.879 259.401C301.811 260.761 300.246 261.641 298.53 261.847C297.679 261.949 296.817 261.883 295.993 261.651C295.168 261.42 294.397 261.028 293.724 260.498C293.051 259.968 292.489 259.311 292.07 258.564C291.651 257.816 291.383 256.993 291.282 256.142L290.311 248.047L303.244 246.499ZM310.378 253.793C310.448 254.376 310.632 254.941 310.92 255.453C311.208 255.965 311.593 256.416 312.055 256.779C312.517 257.142 313.046 257.411 313.611 257.569C314.177 257.728 314.768 257.773 315.351 257.703L321.71 256.94C322.293 256.87 322.857 256.686 323.369 256.398C323.881 256.11 324.331 255.724 324.694 255.262C325.057 254.8 325.325 254.271 325.483 253.705C325.642 253.139 325.687 252.547 325.617 251.964L324.905 246.016L309.669 247.845L310.069 251.179L310.321 253.276L310.378 253.793ZM293.362 255.893C293.425 256.473 293.603 257.034 293.885 257.545C294.167 258.056 294.547 258.505 295.004 258.868C295.46 259.231 295.984 259.499 296.545 259.658C297.106 259.817 297.693 259.863 298.271 259.794C298.85 259.724 299.409 259.541 299.917 259.254C300.424 258.967 300.87 258.582 301.228 258.122C301.586 257.661 301.849 257.135 302.003 256.572C302.156 256.009 302.197 255.422 302.122 254.843L301.403 248.851L292.643 249.901L293.362 255.893Z" fill="#221413"/>
<path d="M293.68 220.28L317.629 199.535C321.897 195.837 326.924 193.121 332.356 191.58C337.787 190.038 343.49 189.709 349.063 190.614C358.011 192.07 366.162 196.635 372.082 203.506C377.24 209.49 380.783 216.694 382.376 224.433C383.969 232.173 383.558 240.192 381.183 247.729L375.643 265.31L374.666 282.424H370.204C367.311 282.424 364.498 281.474 362.197 279.719C359.896 277.965 358.234 275.503 357.467 272.711L356.894 270.614C356.969 273.929 355.844 278.183 350.868 283.512C344.475 290.34 332.875 298.65 322.804 301.671C320.996 302.209 319.091 302.338 317.228 302.048C315.364 301.758 313.588 301.057 312.029 299.995C310.47 298.933 309.167 297.537 308.213 295.909C307.26 294.28 306.681 292.46 306.518 290.58L305.73 281.554C305.793 280.77 306.098 280.024 306.602 279.421C307.106 278.817 307.784 278.384 308.544 278.183L308.667 278.151C310.547 277.673 312.515 277.655 314.403 278.1C316.291 278.545 318.044 279.438 319.514 280.706C320.574 281.595 321.826 282.226 323.171 282.547C324.517 282.869 325.919 282.872 327.266 282.558C328.613 282.243 329.868 281.619 330.933 280.735C331.997 279.851 332.841 278.731 333.398 277.464C336.303 270.841 339.559 260.652 339.007 253.449L338.837 251.207L336.631 247.06C332.758 239.815 330.5 231.816 330.014 223.613C329.974 222.957 329.747 222.326 329.359 221.795C328.971 221.264 328.439 220.856 327.827 220.619C327.214 220.382 326.546 220.327 325.902 220.459C325.259 220.591 324.667 220.905 324.196 221.365L317.629 227.788C317.629 227.788 308.992 235.827 297.017 233.08C293.428 232.257 284.412 222.043 284.412 222.043L293.68 220.28Z" fill="#451524"/>
<path d="M352.674 261.544C351.82 255.994 350.468 247.167 350.468 247.167C352.17 241.314 356.427 238.135 359.383 239.283C361.857 240.229 363 242.106 362.181 249.214C361.592 254.161 359.53 258.816 356.263 262.576C356.007 262.874 355.67 263.092 355.294 263.205C354.917 263.318 354.516 263.32 354.138 263.212C353.76 263.103 353.421 262.888 353.162 262.593C352.902 262.297 352.733 261.933 352.674 261.544Z" fill="#F29E62"/>
<path d="M352.649 248.589C352.551 247.132 355.57 241.251 358.617 242.945C361.664 244.638 358.302 252.333 357.313 253.941C356.323 255.549 354.322 257.3 353.913 255.02C353.503 252.74 355.375 250.649 354.278 250.245C353.181 249.841 352.718 249.643 352.649 248.589Z" fill="#E37845"/>
<path d="M331.897 329.75L332.843 320.523L354.189 291.469L397.84 260.321L408.258 265.884L411.661 276.606L422.407 285.045L416.319 305.966C416.319 305.966 380.754 286.625 331.897 329.75Z" fill="#5B485C"/>
<path d="M422.407 285.045L395.199 286.638L367.412 297.454L397.304 282.595L411.661 276.606L422.407 285.045Z" fill="#2C2A40"/>
</g>
</g>
<path opacity="0.1" fill-rule="evenodd" clip-rule="evenodd" d="M70.5118 237.119C58.5101 236.251 49.043 226.239 49.043 214.016C49.043 201.222 59.414 190.851 72.2073 190.851C74.9383 190.851 77.559 191.324 79.9919 192.192C83.8874 180.89 94.6156 172.772 107.24 172.772C119.969 172.772 130.77 181.025 134.583 192.473C138.832 187.341 145.252 184.071 152.435 184.071C163.481 184.071 172.722 191.804 175.039 202.151C184.71 202.153 192.55 209.994 192.55 219.665C192.55 229.15 185.011 236.873 175.599 237.171V237.18H70.5118V237.119Z" fill="#006DC3"/>
<path opacity="0.3" fill-rule="evenodd" clip-rule="evenodd" d="M484.876 231.361C486.253 230.005 488.469 230.023 489.826 231.4C540.641 283.021 572 353.865 572 432.027C572 589.981 443.953 718.027 286 718.027C128.047 718.027 0 589.981 0 432.027C0 378.168 14.8911 327.776 40.7828 284.756C41.7796 283.1 43.9302 282.565 45.5864 283.562C47.2426 284.559 47.7771 286.709 46.7804 288.366C21.5262 330.327 7 379.475 7 432.027C7 586.115 131.913 711.027 286 711.027C440.087 711.027 565 586.115 565 432.027C565 355.776 534.416 286.675 484.837 236.311C483.481 234.933 483.498 232.717 484.876 231.361Z" fill="#006DC3"/>
<path opacity="0.2" fill-rule="evenodd" clip-rule="evenodd" d="M419.603 717.496C420.497 719.21 419.833 721.324 418.119 722.218C378.596 742.84 333.654 754.498 286 754.498C242.767 754.498 201.766 744.903 165.018 727.723C163.267 726.905 162.511 724.822 163.329 723.071C164.148 721.319 166.231 720.564 167.982 721.382C203.822 738.137 243.813 747.498 286 747.498C332.5 747.498 376.334 736.125 414.881 716.012C416.595 715.118 418.709 715.782 419.603 717.496Z" fill="#006DC3"/>
<path opacity="0.1" fill-rule="evenodd" clip-rule="evenodd" d="M364.873 773.863C365.389 775.726 364.296 777.654 362.433 778.17C338.1 784.902 312.467 788.498 286 788.498C263.72 788.498 242.031 785.95 221.21 781.127C219.327 780.691 218.154 778.811 218.59 776.928C219.026 775.045 220.907 773.872 222.79 774.308C243.096 779.011 264.256 781.498 286 781.498C311.83 781.498 336.835 777.989 360.567 771.423C362.43 770.908 364.358 772 364.873 773.863Z" fill="#006DC3"/>
<path opacity="0.3" fill-rule="evenodd" clip-rule="evenodd" d="M265.854 0L455.992 193.455C457.347 194.833 457.328 197.049 455.949 198.404C454.571 199.759 452.355 199.74 451 198.361L266.093 10.2301L143.144 147.645C141.855 149.085 139.642 149.208 138.201 147.919C136.761 146.63 136.638 144.418 137.927 142.977L265.854 0Z" fill="#006DC3"/>
</svg>
