<svg width="60" height="60" viewBox="0 0 60 60" fill="none" xmlns="http://www.w3.org/2000/svg">
<circle opacity="0.2" cx="30" cy="30" r="30" fill="white"/>
<rect y="9" width="29" height="40" rx="2" fill="white"/>
<rect x="31" y="9" width="29" height="40" rx="2" fill="white"/>
<rect x="4" y="13" width="21" height="2" rx="1" fill="#D7DBE0"/>
<rect x="4" y="29" width="21" height="2" rx="1" fill="#D7DBE0"/>
<rect x="35" y="33" width="21" height="2" rx="1" fill="#D7DBE0"/>
<rect x="4" y="17" width="13" height="2" rx="1" fill="#D7DBE0"/>
<rect x="4" y="37" width="13" height="2" rx="1" fill="#D7DBE0"/>
<rect x="35" y="41" width="13" height="2" rx="1" fill="#D7DBE0"/>
<rect x="19" y="17" width="6" height="2" rx="1" fill="#D7DBE0"/>
<rect x="19" y="37" width="6" height="2" rx="1" fill="#D7DBE0"/>
<rect x="50" y="41" width="6" height="2" rx="1" fill="#D7DBE0"/>
<rect x="4" y="33" width="19" height="2" rx="1" fill="#D7DBE0"/>
<rect x="4" y="21" width="19" height="2" rx="1" fill="#D7DBE0"/>
<rect x="35" y="37" width="19" height="2" rx="1" fill="#D7DBE0"/>
<rect x="4" y="25" width="7" height="2" rx="1" fill="#D7DBE0"/>
<rect x="35" y="29" width="7" height="2" rx="1" fill="#D7DBE0"/>
<rect x="4" y="41" width="7" height="2" rx="1" fill="#D7DBE0"/>
<rect x="13" y="25" width="12" height="2" rx="1" fill="#D7DBE0"/>
<rect x="44" y="29" width="12" height="2" rx="1" fill="#D7DBE0"/>
<rect x="13" y="41" width="12" height="2" rx="1" fill="#D7DBE0"/>
<rect x="35" y="13" width="21" height="14" rx="2" fill="#006DC3"/>
<path opacity="0.9" d="M49 20.2941C49 22.3408 47.433 24 45.5 24C43.567 24 42 22.3408 42 20.2941C42 18.2474 45.5 15 45.5 15C45.5 15 49 18.2474 49 20.2941Z" fill="white"/>
<path d="M3 49H27C27 50.1046 26.1046 51 25 51H5C3.89543 51 3 50.1046 3 49Z" fill="#005697"/>
<path d="M33 49H57C57 50.1046 56.1046 51 55 51H35C33.8954 51 33 50.1046 33 49Z" fill="#005697"/>
<rect x="29" y="9" width="2" height="40" rx="1" fill="#005697"/>
</svg>
