<svg width="616" height="522" viewBox="0 0 616 522" fill="none" xmlns="http://www.w3.org/2000/svg">
<ellipse cx="138.537" cy="509.224" rx="88" ry="12" fill="#005697"/>
<ellipse cx="541.037" cy="509.224" rx="74.5" ry="12" fill="#005697"/>
<path d="M567.538 231.438C567.54 259.599 561.992 287.484 551.213 313.502C540.434 339.52 524.634 363.161 504.715 383.074C484.796 402.986 461.148 418.782 435.123 429.558C409.097 440.334 381.203 445.88 353.034 445.879C234.563 445.879 138.53 349.874 138.53 231.438C138.456 183.608 154.444 137.138 183.931 99.4717C191.735 89.5141 200.395 80.2574 209.812 71.8073C244.831 40.4106 289.201 21.3895 336.093 17.6716C382.984 13.9537 429.799 25.7451 469.331 51.2308C519.723 83.7906 555.597 136.904 565.06 198.72V198.739C566.713 209.56 567.541 220.491 567.538 231.438Z" fill="#00B2FF"/>
<path d="M177.238 94.232L177.241 94.2282C185.351 83.8809 194.35 74.2619 204.135 65.481L204.138 65.4785C240.544 32.8378 286.672 13.0634 335.421 9.1982C384.17 5.33304 432.839 17.5914 473.936 44.0868L473.944 44.0915C526.314 77.9293 563.619 133.141 573.462 197.434L573.56 198.073V198.1C575.212 209.135 576.041 220.278 576.038 231.437L177.238 94.232ZM177.238 94.232C146.578 133.395 129.955 181.713 130.03 231.444C130.033 354.574 229.873 454.379 353.033 454.379C382.319 454.38 411.318 448.615 438.375 437.412C465.431 426.208 490.016 409.787 510.724 389.085C531.433 368.383 547.859 343.805 559.066 316.756C570.272 289.707 576.039 260.717 576.038 231.44L177.238 94.232Z" fill="#006DC3" stroke="white" stroke-width="17"/>
<path d="M293.622 133.781C295.634 141.833 299.664 145.862 291.609 155.93C283.554 165.999 255.355 161.971 255.355 176.064C255.355 190.157 245.284 222.375 235.216 222.375C225.148 222.375 223.131 208.282 217.089 210.294C211.047 212.306 227.161 240.496 221.119 250.565C215.076 260.634 184.858 268.686 166.731 216.342C149.491 166.547 188.745 125.867 183.93 99.4791C191.734 89.5189 200.394 80.2597 209.812 71.8072C213.619 79.2367 221.614 84.7553 239.238 77.4047C263.407 67.336 283.55 57.2711 287.576 69.352C291.601 81.4329 249.306 91.5015 255.348 109.623C261.39 127.744 289.588 97.5419 299.66 109.623C309.732 121.704 291.59 125.728 293.622 133.781Z" fill="#8FE15D"/>
<path d="M305.704 41.1586C314.717 23.1386 362.101 29.0777 368.143 53.2394C374.185 77.4011 362.101 73.3729 354.046 95.5224C345.991 117.672 325.848 121.696 317.792 107.603C309.737 93.5102 315.772 65.3203 313.744 57.2676C311.716 49.215 301.675 49.215 305.704 41.1586Z" fill="#8FE15D"/>
<path d="M565.064 198.717V198.736C556.284 245.25 534.691 231.194 529.272 220.36C523.23 208.279 517.188 210.291 513.158 216.331C509.129 222.372 521.213 224.384 523.23 230.424C525.247 236.465 519.201 244.518 515.175 252.574C511.149 260.63 523.23 264.655 525.247 272.707C527.263 280.76 515.175 300.897 495.035 310.966C474.896 321.035 464.821 375.402 446.683 373.39C428.545 371.378 442.653 347.216 448.696 329.091C454.738 310.966 450.708 310.97 440.64 296.873C430.573 282.776 444.67 272.711 434.598 266.671C424.527 260.63 420.509 280.768 402.371 282.791C384.233 284.815 386.257 266.682 386.257 258.629C386.257 250.577 374.172 246.549 376.185 238.496C378.198 230.443 388.27 234.468 400.354 228.427C412.438 222.387 412.438 204.265 424.523 202.253C436.607 200.241 436.607 212.322 442.65 218.362C448.692 224.403 454.734 212.322 466.818 210.31C478.903 208.297 482.932 224.403 493 214.338C503.068 204.273 474.873 194.204 474.873 184.136C474.873 174.067 499.042 161.986 484.945 149.905C470.848 137.825 472.861 180.108 456.747 188.164C440.633 196.22 434.591 180.111 422.506 178.095C410.422 176.079 402.367 214.338 388.266 210.313C374.165 206.289 392.295 186.152 394.308 180.111C396.321 174.071 390.279 170.043 396.321 161.99C402.363 153.937 432.574 151.921 432.574 135.816C432.574 119.711 420.49 127.763 408.405 139.844C396.321 151.925 380.207 129.776 394.308 107.626C408.409 85.4766 434.591 103.598 446.675 87.4926C458.76 71.3873 446.675 55.2745 469.316 51.25C519.726 83.7872 555.585 136.901 565.064 198.717Z" fill="#8FE15D"/>
<path d="M552.999 309.138C540.456 341.372 520.299 370.095 494.248 392.855C490.421 377.009 503.29 373.285 507.117 371.37C511.146 369.358 509.13 359.289 513.159 349.221C517.189 339.152 521.214 347.208 529.273 339.152C537.332 331.096 537.328 321.031 539.345 310.962C540.753 303.942 548.076 303.784 552.999 309.138Z" fill="#C1D638"/>
<path d="M501.072 325.066C494.688 325.066 495.03 339.159 488.988 345.2C482.945 351.24 474.89 359.293 482.945 363.321C491.001 367.349 493.017 347.212 499.059 341.172C505.102 335.131 507.114 325.066 501.072 325.066Z" fill="#C1D638"/>
<path d="M263.423 244.525C283.416 233.228 285.579 232.444 295.65 242.512C305.722 252.581 329.891 250.565 331.904 258.621C333.916 266.678 321.832 272.715 329.891 276.743C337.95 280.771 364.131 274.731 362.118 288.824C360.106 302.917 331.907 298.892 335.937 308.957C339.966 319.022 352.051 329.091 343.992 339.159C335.933 349.228 319.823 341.172 313.781 357.281C307.738 373.39 307.735 385.471 307.735 385.471C307.735 385.471 323.849 411.644 315.79 415.673C307.731 419.701 289.608 405.604 279.536 373.39C269.465 341.175 267.433 331.107 247.275 325.066C227.117 319.026 217.079 270.699 263.423 244.525Z" fill="#8FE15D"/>
<path d="M532.037 108.725C545.909 108.766 553.352 120.199 553.352 120.199C553.352 120.199 563.16 116.512 564.536 130.264C566.215 147.028 550.652 167.196 547.707 166.646C544.763 166.096 529.5 135.147 522.057 130.264L532.037 108.725Z" fill="#FF6109"/>
<path d="M529.556 194.304C525.586 193.042 522.652 186.419 525.204 185.453C527.162 184.745 527.698 182.121 528.761 177.138C529.141 175.208 529.397 173.255 529.528 171.292C530.257 161.736 549.269 155.941 549.269 155.941C547.274 169.256 548.237 183.765 550.666 187.062C553.094 190.36 533.491 195.567 529.556 194.304Z" fill="#FBB59E"/>
<path d="M518.538 185.225C519.738 180.425 525.372 179.558 528.038 179.725L527.539 182.225C527.206 181.892 525.739 182.025 522.539 185.225C519.339 188.425 520.205 193.225 521.038 195.225C519.705 193.892 517.338 190.025 518.538 185.225Z" fill="#006DC3"/>
<path d="M549.268 155.928C543.503 172.778 534.821 178.744 528.76 177.138C529.139 175.208 529.395 173.255 529.527 171.292C530.256 161.722 549.268 155.928 549.268 155.928Z" fill="#F6967D"/>
<path d="M515.539 134.725C510.139 145.956 507.603 170.013 523.959 172.857C535.84 174.92 544.962 166.282 549.258 155.935C550.853 152.144 551.764 148.1 551.948 143.992C552.457 129.711 540.36 126.237 530.525 129.126C520.691 132.015 515.539 134.725 515.539 134.725Z" fill="#FBB59E"/>
<path d="M549.25 155.917C553.137 159.236 560.405 151.564 558.087 146.65C555.19 140.512 549.724 145.814 549.088 147.737C548.452 149.659 549.25 155.917 549.25 155.917Z" fill="#FBB59E"/>
<path d="M550.951 151.928C551.295 149.566 552.478 146.842 554.676 146.75C556.544 146.67 555.633 149.078 554.308 150.223C553.194 151.182 550.951 151.928 550.951 151.928Z" fill="#F6967D"/>
<path d="M520.995 156.223C518.274 156.275 517.862 154.415 517.855 154.394L517.834 154.287L517.92 154.222C518.123 154.067 522.815 150.36 520.08 144.105C520.062 144.062 520.061 144.013 520.079 143.969C520.096 143.925 520.13 143.89 520.173 143.871C520.194 143.862 520.218 143.857 520.241 143.856C520.264 143.856 520.288 143.86 520.31 143.868C520.331 143.877 520.351 143.89 520.368 143.906C520.385 143.923 520.398 143.943 520.407 143.964C523.035 149.979 518.914 153.84 518.23 154.425C518.364 154.82 519.034 156.237 521.859 155.801C521.881 155.797 521.905 155.798 521.927 155.804C521.949 155.809 521.97 155.819 521.989 155.833C522.007 155.847 522.023 155.864 522.035 155.884C522.047 155.904 522.055 155.926 522.058 155.948C522.064 155.994 522.052 156.041 522.024 156.078C521.997 156.115 521.956 156.14 521.91 156.148C521.607 156.193 521.301 156.218 520.995 156.223Z" fill="#483569"/>
<path d="M517.066 150.566C517.739 150.552 518.261 149.387 518.233 147.963C518.205 146.539 517.638 145.395 516.965 145.408C516.293 145.422 515.771 146.587 515.798 148.011C515.826 149.435 516.394 150.579 517.066 150.566Z" fill="#483569"/>
<path d="M517.028 145.415C516.488 145.302 515.205 145.371 515.253 145.677C515.301 145.983 516.811 145.773 517.035 145.725C517.258 145.677 517.028 145.415 517.028 145.415Z" fill="#483569"/>
<path d="M527.519 150.372C528.192 150.359 528.714 149.194 528.687 147.77C528.659 146.345 528.091 145.202 527.419 145.215C526.746 145.228 526.224 146.393 526.252 147.817C526.279 149.241 526.847 150.385 527.519 150.372Z" fill="#483569"/>
<path d="M527.481 145.212C526.941 145.099 525.658 145.167 525.706 145.474C525.755 145.78 527.264 145.57 527.485 145.522C527.705 145.474 527.481 145.212 527.481 145.212Z" fill="#483569"/>
<path d="M530.004 142.468C529.929 142.47 529.854 142.452 529.787 142.417C529.72 142.381 529.663 142.329 529.623 142.265C529.592 142.217 528.821 141.069 526.977 141.106C526.861 141.106 526.749 141.06 526.666 140.978C526.583 140.895 526.537 140.783 526.537 140.666C526.537 140.55 526.583 140.438 526.666 140.355C526.749 140.272 526.861 140.226 526.977 140.226C529.334 140.181 530.342 141.729 530.383 141.794C530.428 141.86 530.454 141.938 530.458 142.018C530.463 142.098 530.445 142.177 530.408 142.248C530.37 142.319 530.314 142.378 530.246 142.419C530.177 142.46 530.098 142.482 530.018 142.482L530.004 142.468Z" fill="#483569"/>
<path d="M514.992 142.468C515.067 142.47 515.142 142.452 515.209 142.417C515.276 142.381 515.333 142.329 515.373 142.265C515.404 142.217 516.175 141.069 518.019 141.106C518.135 141.106 518.247 141.06 518.33 140.978C518.413 140.895 518.459 140.783 518.459 140.666C518.459 140.55 518.413 140.438 518.33 140.355C518.247 140.272 518.135 140.226 518.019 140.226C515.662 140.181 514.655 141.729 514.613 141.794C514.568 141.86 514.542 141.938 514.538 142.018C514.533 142.098 514.551 142.177 514.588 142.248C514.626 142.319 514.682 142.378 514.751 142.419C514.819 142.46 514.898 142.482 514.978 142.482L514.992 142.468Z" fill="#483569"/>
<path d="M520.812 164.299C523.139 164.252 525.055 162.556 525.038 161.725C525.021 160.894 521.864 161.679 519.537 161.725C517.209 161.772 516.021 161.894 516.037 162.725C516.054 163.556 518.484 164.345 520.812 164.299Z" fill="#FB5252"/>
<path d="M519.447 163.125C517.589 163.163 516.007 162.857 515.453 162.32C515.42 162.287 515.401 162.243 515.4 162.196C515.4 162.149 515.418 162.104 515.451 162.071C515.484 162.038 515.529 162.019 515.576 162.018C515.622 162.018 515.667 162.036 515.701 162.069C516.898 163.225 523.561 163.146 526.364 160.642C526.397 160.609 526.442 160.591 526.489 160.591C526.536 160.591 526.582 160.609 526.615 160.642C526.632 160.658 526.645 160.678 526.654 160.7C526.663 160.721 526.668 160.744 526.668 160.768C526.668 160.791 526.663 160.814 526.654 160.836C526.645 160.857 526.632 160.877 526.615 160.893C524.885 162.423 521.933 163.077 519.447 163.125Z" fill="#483569"/>
<path d="M551.905 144.627C546.924 139.239 529.033 135.725 516.534 137.225C509.781 135.666 515.035 121.225 522.316 122.709C545.469 129.49 547.911 122.798 551.681 127.973C555.451 133.149 551.905 144.627 551.905 144.627Z" fill="#FF6109"/>
<path d="M548.537 152.225C548.937 149.425 551.037 146.058 552.037 144.725C552.037 141.125 546.037 139.892 543.037 139.725C549.537 142.225 544.537 149.725 546.037 151.725C547.237 153.325 548.204 152.725 548.537 152.225Z" fill="#FF6109"/>
<path d="M598.177 488.619C603.587 495.108 605.132 504.998 602.504 508.245C599.876 511.491 557.986 512.88 555.668 508.245C553.349 503.609 561.078 494.954 574.679 490.163C588.28 485.373 598.177 488.619 598.177 488.619Z" fill="#312E3B"/>
<path d="M519.731 488.619C525.142 495.108 526.687 504.998 524.059 508.245C521.431 511.491 479.541 512.88 477.222 508.245C474.904 503.609 482.633 494.954 496.234 490.163C509.835 485.373 519.731 488.619 519.731 488.619Z" fill="#312E3B"/>
<path opacity="0.2" d="M561.537 147.225C548.737 140.425 525.537 137.225 514.037 139.225L514.537 137.225C530.937 133.625 553.87 140.392 562.537 144.225L561.537 147.225Z" fill="#1F1F1F"/>
<path d="M511.537 194.225C495.536 196.704 487.336 217.358 481.304 240.63C475.505 263 485.121 269.76 493.673 270.223C502.225 270.686 511.537 194.225 511.537 194.225Z" fill="#3698E4"/>
<path d="M477.391 239.242C474.475 238.86 470.273 245.129 468.537 248.312C473.12 261.678 485.377 269.156 490.933 271.225L493.537 254.517C489.37 249.585 480.308 239.624 477.391 239.242Z" fill="#006DC3"/>
<path d="M485.037 255.725L482.537 242.725L494.537 242.225L490.037 256.725L485.037 255.725Z" fill="#006DC3"/>
<path d="M464.945 230.408C468.718 227.226 486.544 242.466 483.373 250.056C480.203 257.647 447.687 244.955 464.945 230.408Z" fill="#FBB59E"/>
<path d="M535.28 191.598C524.539 186.225 528.761 182.313 527.581 182.097C524.695 181.543 520.664 186.828 520.262 189.48C519.78 192.637 514.121 234.146 528.249 233.723C542.376 233.3 555.423 192.661 555.736 187.987C556.049 183.314 551.385 180.897 548.857 180.897C543.039 188.725 535.28 191.598 535.28 191.598Z" fill="white"/>
<path d="M483.38 314.927C474.151 397.75 480.728 488.107 483.38 490.225C486.032 492.344 524.819 491.924 528.761 490.225C532.703 488.527 537.361 348.548 537.361 348.548C537.361 348.548 557.343 488.733 559.444 490.225C562.784 492.608 603.574 493.616 607.818 487.677C612.063 481.738 606.969 323.09 596.787 296.367C589.574 277.464 483.38 314.927 483.38 314.927Z" fill="#3698E4"/>
<path d="M576.036 325.225C577.202 330.225 582.336 341.325 593.536 345.725C585.869 346.392 571.636 343.225 576.036 325.225Z" fill="#006DC3"/>
<path d="M520.075 191.337C516.291 191.447 510.323 194.727 510.323 194.727C510.323 194.727 498.648 211.842 489.106 261.485C481.537 307.225 483.379 314.934 483.379 314.934C483.379 314.934 493.925 324.507 511.513 318.923C529.101 313.338 533.555 285.639 533.555 285.639L528.764 231.577L520.075 191.337Z" fill="#3698E4"/>
<path d="M529.321 214.225C522.484 222.102 519.807 225.586 518.713 232.929C517.62 240.272 521.75 299.758 527.409 305.944C533.068 312.13 529.321 214.225 529.321 214.225Z" fill="#006DC3"/>
<path d="M525.701 217.225C525.701 217.225 523.382 288.967 525.7 303.51C527.097 312.083 534.795 317.076 542.703 319.858C560.535 326.13 597.117 318.826 601.207 317.795C601.539 317.225 590.564 253.95 592.336 249.239C595.088 241.887 581.294 196.058 577.256 192.62C568.557 185.192 555.743 188.036 555.743 188.036L525.701 217.225Z" fill="#3698E4"/>
<path d="M561.037 186.225C566.037 179.225 554.537 176.725 548.537 177.225V181.225C555.337 181.225 555.87 186.558 555.037 189.225L561.037 186.225Z" fill="#006DC3"/>
<path d="M562.037 182.225C562.057 182.274 562.072 182.328 562.082 182.388L563.537 187.725C563.937 195.325 535.704 210.892 525.537 217.725C525.537 217.725 527.037 208.725 532.537 202.725C538.037 196.725 547.037 193.725 555.037 189.225C561.064 185.835 562.243 183.361 562.082 182.388L562.037 182.225Z" fill="#3698E4"/>
<path d="M578.604 245.225C573.148 242.025 563.638 232.745 569.251 221.225C573.928 226.985 582.347 239.849 578.604 245.225Z" fill="#006DC3"/>
<path d="M600.537 311.725C564.69 318.247 507.103 316.272 483.537 314.719L483.037 320.225C564.29 324.697 595.892 318.719 601.037 315.225L600.537 311.725Z" fill="#006DC3"/>
<path d="M577.259 192.606C595.239 199.603 617.505 259.256 606.697 270.552C595.889 281.849 569.623 275.325 569.623 275.325C569.623 275.325 581.876 256.412 577.579 247.169C573.283 237.925 570.259 227.124 570.896 212.172C571.532 197.22 577.259 192.606 577.259 192.606Z" fill="#3698E4"/>
<path d="M556.612 412.588C552.749 417.275 567.434 426.797 571.462 423.829C575.49 420.862 559.584 408.998 556.612 412.588Z" fill="#006DC3"/>
<path d="M486.749 412.588C482.886 417.275 497.57 426.797 501.598 423.83C505.626 420.862 489.717 408.998 486.749 412.588Z" fill="#006DC3"/>
<path d="M604.035 272.725C585.319 289.011 541.96 281.928 540.45 279.528C538.94 277.128 537.877 267.939 539.876 265.274C541.874 262.609 574.019 260.254 578.467 255.037C582.915 249.821 604.035 272.725 604.035 272.725Z" fill="#006DC3"/>
<path d="M606.694 270.566C587.978 286.852 541.96 277.928 540.45 275.528C538.94 273.128 537.877 263.939 539.876 261.274C541.874 258.609 574.019 256.254 578.467 251.037C582.915 245.821 606.694 270.566 606.694 270.566Z" fill="#3698E4"/>
<path d="M579.537 250.225C582.704 250.892 589.937 253.625 593.537 259.225C592.204 254.558 587.537 246.225 579.537 250.225Z" fill="#006DC3"/>
<path d="M579.888 249.963C582.52 249.288 588.934 248.595 593.537 251.225C590.97 248.432 584.646 244.27 579.888 249.963Z" fill="#006DC3"/>
<path d="M523.035 198.225C519.435 194.625 519.536 188.225 519.536 183.225C511.036 194.725 522.368 213.392 525.535 217.225C525.535 217.225 526.635 201.825 523.035 198.225Z" fill="#3698E4"/>
<path d="M264.696 224.177C267.125 218.627 265.911 212.554 281.703 212.207C297.495 211.86 303.05 211.688 303.398 213.582C303.745 215.477 298.018 224.339 286.739 225.381C275.46 226.423 271.294 231.106 271.294 231.106L264.696 224.177Z" fill="#FBB59E"/>
<path d="M96.0025 489.534C90.8118 495.762 89.3292 505.249 91.8506 508.365C94.372 511.48 134.566 512.815 136.792 508.365C139.017 503.915 131.601 495.614 118.561 491.016C105.52 486.418 96.0025 489.534 96.0025 489.534Z" fill="#312E3B"/>
<path d="M163.393 489.534C158.202 495.762 156.72 505.249 159.241 508.365C161.763 511.48 201.957 512.815 204.182 508.365C206.408 503.915 198.992 495.614 185.951 491.016C172.911 486.418 163.393 489.534 163.393 489.534Z" fill="#312E3B"/>
<path d="M180.619 120.206C180.619 120.206 170.551 99.0193 146.111 107.104C121.671 115.188 130.632 144.869 130.632 144.869C130.632 144.869 119.023 151.048 118.679 160.181C118.335 169.315 125.008 172.836 125.008 172.836C125.008 172.836 106.371 179.999 106.196 191.182C106.02 202.365 113.581 206.055 113.581 206.055C113.581 206.055 133.446 218.008 145.317 209.043C157.187 200.078 180.619 120.206 180.619 120.206Z" fill="#483569"/>
<path d="M197.665 134.109C203.644 124.174 196.633 114.711 189.754 115.323C182.874 115.935 180.625 120.206 180.625 120.206L149.292 121.275C149.292 121.275 136.323 118.342 134.944 132.111C133.265 148.899 151.995 168.342 154.943 167.788C157.891 167.235 173.174 136.231 180.625 131.337C188.075 126.444 197.665 134.109 197.665 134.109Z" fill="#483569"/>
<path d="M173.112 195.477C177.088 194.215 180.026 187.568 177.47 186.612C175.51 185.904 174.973 183.276 173.907 178.283C173.526 176.345 173.27 174.384 173.139 172.413C172.41 162.843 153.368 157.038 153.368 157.038C155.366 170.371 154.399 184.893 151.971 188.208C149.542 191.523 169.173 196.739 173.112 195.477Z" fill="#FBB59E"/>
<path d="M153.369 157.042C159.141 173.892 167.844 179.892 173.908 178.283C173.528 176.345 173.272 174.384 173.141 172.413C172.408 162.843 153.369 157.042 153.369 157.042Z" fill="#F6967D"/>
<path d="M187.018 141.268C192.425 152.517 195.101 171.138 178.724 173.968C166.826 176.031 157.69 167.383 153.387 157.018C151.79 153.221 150.878 149.172 150.693 145.058C150.184 130.756 162.299 127.279 172.147 130.171C181.995 133.064 187.018 141.268 187.018 141.268Z" fill="#FBB59E"/>
<path d="M153.385 157.032C149.491 160.354 142.213 152.671 144.535 147.747C147.438 141.599 152.907 146.912 153.547 148.837C154.187 150.763 153.385 157.032 153.385 157.032Z" fill="#FBB59E"/>
<path d="M151.677 153.039C151.333 150.673 150.147 147.946 147.945 147.854C146.074 147.775 146.989 150.185 148.313 151.33C149.431 152.293 151.677 153.039 151.677 153.039Z" fill="#F6967D"/>
<path d="M181.685 157.338C184.409 157.389 184.825 155.529 184.828 155.508L184.849 155.402L184.763 155.333C184.56 155.178 179.861 151.468 182.6 145.199C182.618 145.155 182.619 145.107 182.601 145.063C182.584 145.019 182.55 144.984 182.507 144.965C182.485 144.955 182.462 144.95 182.439 144.95C182.415 144.949 182.392 144.953 182.37 144.962C182.348 144.971 182.328 144.984 182.312 145C182.295 145.016 182.282 145.036 182.273 145.058C179.641 151.083 183.769 154.948 184.454 155.532C184.319 155.928 183.645 157.348 180.821 156.908C180.798 156.904 180.775 156.906 180.753 156.911C180.73 156.917 180.709 156.927 180.691 156.94C180.672 156.954 180.657 156.971 180.645 156.991C180.633 157.011 180.625 157.033 180.622 157.056C180.616 157.102 180.628 157.148 180.655 157.185C180.683 157.222 180.724 157.247 180.77 157.255C181.072 157.302 181.378 157.33 181.685 157.338Z" fill="#483569"/>
<path d="M186.889 149.118C186.917 147.69 186.393 146.522 185.719 146.509C185.044 146.496 184.475 147.643 184.447 149.07C184.419 150.498 184.943 151.667 185.617 151.68C186.292 151.693 186.861 150.546 186.889 149.118Z" fill="#483569"/>
<path d="M185.661 146.516C186.201 146.402 187.487 146.471 187.436 146.781C187.384 147.09 185.878 146.877 185.654 146.832C185.431 146.788 185.661 146.516 185.661 146.516Z" fill="#483569"/>
<path d="M176.424 148.916C176.452 147.488 175.928 146.32 175.254 146.307C174.579 146.294 174.01 147.44 173.982 148.868C173.954 150.296 174.478 151.464 175.153 151.478C175.827 151.491 176.396 150.344 176.424 148.916Z" fill="#483569"/>
<path d="M175.192 146.313C175.732 146.199 177.019 146.268 176.967 146.578C176.915 146.887 175.409 146.674 175.185 146.629C174.962 146.584 175.192 146.313 175.192 146.313Z" fill="#483569"/>
<path d="M171.236 144.112C171.312 144.113 171.387 144.096 171.454 144.06C171.52 144.025 171.577 143.973 171.618 143.909C171.649 143.861 172.42 142.712 174.267 142.747C174.383 142.749 174.496 142.705 174.581 142.624C174.665 142.543 174.713 142.432 174.716 142.315C174.718 142.198 174.674 142.086 174.593 142.001C174.512 141.917 174.401 141.869 174.284 141.866C171.924 141.822 170.916 143.373 170.875 143.438C170.83 143.504 170.804 143.581 170.799 143.661C170.795 143.741 170.813 143.821 170.85 143.892C170.888 143.962 170.944 144.022 171.012 144.063C171.081 144.104 171.16 144.126 171.24 144.126L171.236 144.112Z" fill="#483569"/>
<path d="M186.165 163.715C186.191 162.378 184.535 161.262 182.467 161.221C180.398 161.181 178.7 162.232 178.674 163.569C178.648 164.906 180.304 166.022 182.372 166.062C184.441 166.103 186.139 165.052 186.165 163.715Z" fill="#FB5252"/>
<path d="M174.057 153.475C174.067 152.978 172.964 152.553 171.595 152.526C170.225 152.499 169.107 152.881 169.098 153.378C169.088 153.876 170.19 154.301 171.56 154.327C172.929 154.354 174.047 153.973 174.057 153.475Z" fill="#FB5252"/>
<path d="M183.234 164.25C185.095 164.287 186.674 163.981 187.231 163.441C187.265 163.409 187.284 163.364 187.285 163.317C187.286 163.27 187.267 163.224 187.235 163.19C187.202 163.157 187.157 163.137 187.11 163.137C187.063 163.136 187.017 163.154 186.984 163.187C185.783 164.342 179.113 164.263 176.32 161.756C176.287 161.723 176.242 161.705 176.195 161.705C176.148 161.705 176.103 161.723 176.069 161.756C176.036 161.79 176.018 161.835 176.018 161.882C176.018 161.929 176.036 161.974 176.069 162.007C177.786 163.548 180.757 164.201 183.234 164.25Z" fill="#483569"/>
<path d="M150.726 145.739C155.713 140.343 169.074 141.416 186.393 140.388C203.712 139.36 203.544 117.004 180.356 123.789C157.168 130.574 154.723 123.878 150.946 129.064C147.169 134.25 150.726 145.739 150.726 145.739Z" fill="#483569"/>
<path d="M184.849 191.382C181.351 186.292 177.646 181.584 174.715 181.904C171.785 182.224 166.288 191.382 166.288 191.382C166.288 191.382 157.534 184.401 154.482 181.887C151.431 179.373 145.322 190.161 145.322 190.161C145.322 190.161 171.43 242.664 178.427 242.461C185.423 242.258 184.849 191.382 184.849 191.382Z" fill="white"/>
<path d="M56.2126 224.177C53.7841 218.627 54.9984 212.554 39.2062 212.207C23.4141 211.86 17.8589 211.688 17.5114 213.582C17.164 215.477 22.8913 224.339 34.1704 225.381C45.4495 226.423 49.6151 231.106 49.6151 231.106L56.2126 224.177Z" fill="#FBB59E"/>
<path d="M128.283 191.767C112.405 195.023 95.6533 231.117 95.6533 231.117C95.6533 231.117 59.8794 219.865 57.4234 220.474C54.9674 221.082 41.3424 226.578 41.1394 228.816C40.9365 231.055 82.4824 270.91 106.097 263.689C129.711 256.467 128.283 191.767 128.283 191.767Z" fill="white"/>
<path fill-rule="evenodd" clip-rule="evenodd" d="M42.2262 228.266C48.9065 236.202 84.7963 267.991 106.097 261.477C126.305 255.297 128.174 207.021 128.293 193.225C128.364 200.1 128.296 257.688 106.097 264.477C82.4824 271.698 40.9365 231.843 41.1394 229.604C41.1729 229.235 41.572 228.776 42.2262 228.266Z" fill="#EAEDF2"/>
<path d="M192.632 191.767C208.51 195.023 225.262 231.117 225.262 231.117C225.262 231.117 261.036 219.865 263.492 220.474C265.948 221.082 279.573 226.577 279.776 228.816C279.979 231.055 238.426 270.91 214.812 263.689C191.198 256.467 192.632 191.767 192.632 191.767Z" fill="white"/>
<path d="M225.115 335.263C226.244 395.401 200.005 488.155 197.879 491.511C195.753 494.868 156.319 494.606 155.401 489.104C154.482 483.602 174.32 353.272 174.32 353.272C174.32 353.272 135.309 487.993 131.481 492.574C127.652 497.154 90.1548 494.087 88.9336 491.336C87.7125 488.585 101.441 319.572 110.425 307.533C119.41 295.494 176.786 298.021 189.001 299.851C201.216 301.68 225.115 335.263 225.115 335.263Z" fill="#524E62"/>
<path d="M107.354 316.546C109.023 335.951 130.026 345.934 155.168 342.148C180.309 338.362 189.944 316.505 189.944 316.505C189.944 316.505 194.247 331.98 207.332 336.643C220.417 341.306 225.119 335.267 225.119 335.267C225.119 335.267 211.635 299.301 183.573 301.708C155.512 304.115 107.354 316.546 107.354 316.546Z" fill="#312E3B"/>
<path d="M169.625 194.913C172.851 199.04 183.955 223.077 184.072 228.163C184.189 233.249 175.276 241.898 166.839 238.93C158.401 235.962 165.119 195.673 165.119 195.673L169.625 194.913Z" fill="#372749"/>
<path d="M184.85 191.382C188.07 190.769 192.954 191.787 192.954 191.787C192.954 191.787 209.445 226.997 217.181 269.122C224.917 311.247 225.113 335.26 225.113 335.26C225.113 335.26 198.568 335.666 191.183 308.599C183.798 281.533 168.037 247.725 168.037 247.725L184.85 191.382Z" fill="#524E62"/>
<path d="M169.036 233.225C184.793 246.938 195.627 299.725 186.036 308.725C175.318 318.783 169.036 233.225 169.036 233.225Z" fill="#312E3B"/>
<path d="M163.502 333.891C165.513 333.114 167.468 332.195 169.349 331.14C200.445 313.733 180.381 260.681 179.039 254.725C177.629 248.435 145.308 190.154 145.308 190.154C141.841 189.748 128.206 191.78 128.206 191.78C128.206 191.78 108.675 296.701 107.12 312.753C105.685 327.506 132.337 345.876 163.502 333.891Z" fill="#524E62"/>
<path d="M211.683 415.851C215.387 420.349 201.301 429.486 197.431 426.639C193.562 423.791 208.831 412.392 211.683 415.851Z" fill="#312E3B"/>
<path d="M145.725 415.851C149.43 420.349 135.344 429.486 131.474 426.639C127.604 423.791 142.873 412.392 145.725 415.851Z" fill="#312E3B"/>
<path d="M161.905 192.798C161.96 191.323 170.04 190.391 171.409 191.835C172.778 193.28 169.738 196.928 168.293 197.386C166.848 197.843 161.829 194.851 161.905 192.798Z" fill="#372749"/>
<path d="M37.1792 136.956H23.6161V180.154H37.1792V136.956Z" fill="white"/>
<path d="M36.9433 137.63H23.8549C23.3075 137.63 22.7826 137.412 22.3955 137.025C22.0085 136.638 21.791 136.114 21.791 135.566C21.791 135.019 22.0085 134.494 22.3955 134.107C22.7826 133.72 23.3075 133.503 23.8549 133.503H36.9433C37.4907 133.503 38.0157 133.72 38.4027 134.107C38.7898 134.494 39.0072 135.019 39.0072 135.566C39.0072 136.114 38.7898 136.638 38.4027 137.025C38.0157 137.412 37.4907 137.63 36.9433 137.63Z" fill="white"/>
<path d="M30.399 150.677L1.03688 201.705C0.3557 202.889 -0.00188611 204.232 7.48162e-06 205.598C0.00190107 206.964 0.363208 208.306 1.04767 209.488C1.73213 210.671 2.71566 211.652 3.89956 212.335C5.08345 213.017 6.42606 213.376 7.79264 213.376H52.9778C54.3444 213.376 55.687 213.017 56.8709 212.335C58.0548 211.652 59.0384 210.671 59.7228 209.488C60.4073 208.306 60.7686 206.964 60.7705 205.598C60.7724 204.232 60.4148 202.889 59.7336 201.705L30.399 150.677Z" fill="white"/>
<path d="M51.1979 211.722H9.57629C8.31949 211.719 7.08551 211.386 5.99784 210.757C4.91016 210.127 4.00696 209.223 3.37862 208.135C2.75027 207.047 2.41884 205.813 2.41748 204.557C2.41613 203.3 2.7449 202.065 3.37089 200.976L13.0023 184.26H47.8165L57.4239 200.976C58.0518 202.067 58.3815 203.304 58.3798 204.562C58.378 205.821 58.0449 207.057 57.414 208.146C56.783 209.235 55.8763 210.139 54.7852 210.767C53.694 211.394 52.4568 211.724 51.1979 211.722Z" fill="#006DC3"/>
<path d="M21.7624 196.051C23.7514 196.051 25.3638 194.439 25.3638 192.451C25.3638 190.462 23.7514 188.85 21.7624 188.85C19.7733 188.85 18.1609 190.462 18.1609 192.451C18.1609 194.439 19.7733 196.051 21.7624 196.051Z" fill="white"/>
<path d="M31.9661 177.231C33.3814 177.231 34.5287 176.084 34.5287 174.669C34.5287 173.254 33.3814 172.107 31.9661 172.107C30.5508 172.107 29.4034 173.254 29.4034 174.669C29.4034 176.084 30.5508 177.231 31.9661 177.231Z" fill="#006DC3"/>
<path d="M25.3615 124.758C26.7768 124.758 27.9241 123.611 27.9241 122.197C27.9241 120.782 26.7768 119.635 25.3615 119.635C23.9462 119.635 22.7988 120.782 22.7988 122.197C22.7988 123.611 23.9462 124.758 25.3615 124.758Z" fill="white"/>
<path d="M29.4082 131.347C30.36 131.347 31.1316 130.576 31.1316 129.624C31.1316 128.673 30.36 127.902 29.4082 127.902C28.4565 127.902 27.6849 128.673 27.6849 129.624C27.6849 130.576 28.4565 131.347 29.4082 131.347Z" fill="white"/>
<path d="M31.2598 120.299C31.7365 120.299 32.123 119.912 32.123 119.435C32.123 118.959 31.7365 118.572 31.2598 118.572C30.783 118.572 30.3965 118.959 30.3965 119.435C30.3965 119.912 30.783 120.299 31.2598 120.299Z" fill="white"/>
<path d="M27.9188 162.792C28.7984 162.792 29.5114 162.079 29.5114 161.199C29.5114 160.32 28.7984 159.607 27.9188 159.607C27.0392 159.607 26.3262 160.32 26.3262 161.199C26.3262 162.079 27.0392 162.792 27.9188 162.792Z" fill="#006DC3"/>
<path d="M31.5041 152.269C32.1158 152.269 32.6117 151.773 32.6117 151.162C32.6117 150.55 32.1158 150.055 31.5041 150.055C30.8924 150.055 30.3965 150.55 30.3965 151.162C30.3965 151.773 30.8924 152.269 31.5041 152.269Z" fill="#006DC3"/>
<path d="M29.3194 205.488C30.729 205.488 31.8717 204.345 31.8717 202.936C31.8717 201.527 30.729 200.384 29.3194 200.384C27.9098 200.384 26.7671 201.527 26.7671 202.936C26.7671 204.345 27.9098 205.488 29.3194 205.488Z" fill="white"/>
<path d="M33.0097 195.756C34.1077 195.756 34.9979 194.866 34.9979 193.768C34.9979 192.671 34.1077 191.781 33.0097 191.781C31.9116 191.781 31.0215 192.671 31.0215 193.768C31.0215 194.866 31.9116 195.756 33.0097 195.756Z" fill="white"/>
<path d="M285.36 214.981C301.358 214.981 314.328 202.012 314.328 186.014C314.328 170.016 301.358 157.046 285.36 157.046C269.362 157.046 256.393 170.016 256.393 186.014C256.393 202.012 269.362 214.981 285.36 214.981Z" fill="white"/>
<path d="M292.491 126.406H278.787V170.047H292.491V126.406Z" fill="white"/>
<path d="M292.248 122.946H279.025C277.882 122.946 276.955 123.873 276.955 125.017C276.955 126.16 277.882 127.087 279.025 127.087H292.248C293.392 127.087 294.319 126.16 294.319 125.017C294.319 123.873 293.392 122.946 292.248 122.946Z" fill="white"/>
<path d="M289.674 152.116H281.045V165.675H289.674V152.116Z" fill="#008FFF"/>
<path d="M285.639 211.835C299.877 211.835 311.42 200.296 311.42 186.062C311.42 171.827 299.877 160.288 285.639 160.288C271.4 160.288 259.857 171.827 259.857 186.062C259.857 200.296 271.4 211.835 285.639 211.835Z" fill="#008FFF"/>
<path d="M293.088 198.225C294.965 198.225 296.486 196.704 296.486 194.827C296.486 192.951 294.965 191.43 293.088 191.43C291.211 191.43 289.689 192.951 289.689 194.827C289.689 196.704 291.211 198.225 293.088 198.225Z" fill="white"/>
<path d="M287.614 178.28C289.096 178.28 290.297 177.079 290.297 175.598C290.297 174.116 289.096 172.915 287.614 172.915C286.132 172.915 284.931 174.116 284.931 175.598C284.931 177.079 286.132 178.28 287.614 178.28Z" fill="white"/>
<path d="M286.212 163.06C286.818 163.06 287.31 162.569 287.31 161.963C287.31 161.357 286.818 160.866 286.212 160.866C285.606 160.866 285.115 161.357 285.115 161.963C285.115 162.569 285.606 163.06 286.212 163.06Z" fill="white"/>
<path d="M282.999 150.148C283.806 150.148 284.461 149.494 284.461 148.687C284.461 147.879 283.806 147.225 282.999 147.225C282.192 147.225 281.537 147.879 281.537 148.687C281.537 149.494 282.192 150.148 282.999 150.148Z" fill="#008FFF"/>
<path d="M281.469 199.528C282.189 199.528 282.773 198.945 282.773 198.225C282.773 197.505 282.189 196.922 281.469 196.922C280.749 196.922 280.165 197.505 280.165 198.225C280.165 198.945 280.749 199.528 281.469 199.528Z" fill="white"/>
<path d="M286.943 206.688C287.663 206.688 288.247 206.104 288.247 205.384C288.247 204.664 287.663 204.081 286.943 204.081C286.223 204.081 285.64 204.664 285.64 205.384C285.64 206.104 286.223 206.688 286.943 206.688Z" fill="white"/>
<path d="M453.6 224.504C453.013 224.03 452.922 223.169 453.396 222.582C453.868 221.997 454.724 221.903 455.312 222.372L518.927 273.109C519.676 273.706 519.744 274.819 519.074 275.503C518.491 276.097 517.553 276.151 516.905 275.629L453.6 224.504Z" fill="#D7DBE0"/>
<path d="M518.774 271.839L456.774 222.452L469.714 217.067C470.734 216.643 471.904 216.813 472.76 217.51L519.465 255.517C520.272 256.174 520.681 257.201 520.547 258.232L518.774 271.839Z" fill="#5D596B" stroke="white" stroke-width="2"/>
<path d="M539.897 262.159C533.192 259.597 519.602 256.694 514.71 259.428C509.819 262.162 512.007 271.041 521.421 274.456C529.529 277.396 535.285 276.677 540.537 274.456C538.537 268.725 539.897 262.159 539.897 262.159Z" fill="#FBB59E"/>
<circle cx="534.537" cy="153.225" r="1" fill="#FF6108"/>
<circle cx="535.537" cy="157.225" r="1" fill="#FF6108"/>
<circle cx="531.537" cy="156.225" r="1" fill="#FF6108"/>
<path d="M549.537 203.225C558.337 197.225 562.537 190.725 563.537 188.225C563.137 187.425 566.037 187.892 567.537 188.225C561.937 197.025 553.204 201.892 549.537 203.225Z" fill="#006DC3"/>
<path d="M565.537 144.725C549.722 134.31 520.911 134.311 508.037 136.225C506.557 120.43 521.537 100.726 546.177 107.471C566.152 112.938 567.763 135.488 565.537 144.725Z" fill="#EAEDF2"/>
<path d="M539.037 106.225C523.037 107.425 516.037 125.392 513.537 134.225H519.037C522.237 117.825 533.037 108.725 539.037 106.225Z" fill="#C4C4C4"/>
<path d="M537.037 106.225C521.037 107.425 512.037 125.392 509.537 134.225H515.037C518.237 117.825 531.037 108.725 537.037 106.225Z" fill="white"/>
<path d="M568.317 145.359C567.977 148.099 553.826 139.292 535.192 136.978C524.768 135.683 516.561 137.725 506.039 137.725C500.039 137.725 499.139 136.042 500.257 134.365C502.257 131.365 516.557 131.201 535.192 133.516C553.826 135.83 568.658 142.619 568.317 145.359Z" fill="#C4C4C4"/>
<path d="M562.537 143.725C553.337 139.325 539.37 136.892 533.537 136.225L532.537 136.725C550.137 139.125 558.537 143.225 562.537 144.725V143.725Z" fill="#838181"/>
<path d="M503.038 135.725C509.861 133.102 529.836 135.228 535.539 136.725C522.539 136.725 513.789 137.816 508.039 137.725C502.617 137.639 499.883 136.939 503.038 135.725Z" fill="#838181"/>
</svg>
