<svg width="96" height="96" viewBox="0 0 96 96" fill="none" xmlns="http://www.w3.org/2000/svg">
<circle cx="48" cy="48" r="47" fill="white" stroke="white" stroke-width="2"/>
<mask id="mask0" mask-type="alpha" maskUnits="userSpaceOnUse" x="0" y="0" width="96" height="96">
<circle cx="48" cy="48" r="48" fill="#C07248"/>
</mask>
<g mask="url(#mask0)">
<path d="M146.608 54.079L142.886 52.4103L136.402 47.98L133.385 46.094L130.304 44.1953L121.895 39.2567L116.072 36.6407L110.477 34.5965L108.296 33.3033L102.085 29.5713L94.936 24.9618L90.2742 23.696L72.8687 17L65.0992 18.0548L53.9537 23.0758L37.7474 31.2485L25.6264 35.4382L20.9647 33.3033L14.1326 27.8963L8.53764 24.9618L4.17993 23.2867L0.138916 21.1919H-3.27927C-3.27927 21.1919 -12.2924 26.2191 -39.6421 40.6279C-66.9918 55.0368 -106 56.292 -106 56.292H152L146.608 54.079Z" fill="#9FD7CF"/>
<path d="M37.4536 36.6471L43.1076 34.4699L49.3993 30.0397L52.4311 27.3182L56.9915 25.4639L59.772 23.3669L61.4991 21.2699L64.7906 18.8628L72.8684 17L65.0988 18.0548L53.9533 23.0758L37.747 31.2485L25.6261 35.4382C21.6632 39.3622 37.4536 36.6471 37.4536 36.6471Z" fill="#C2E5E0"/>
<path d="M43.1237 30.1325L41.4917 31.0607L43.356 30.2168C43.356 30.2168 44.0548 30.1219 44.2005 30.0987C44.3462 30.0755 44.7452 30.0038 44.9394 29.9806C45.1337 29.9574 45.9951 29.8371 46.1429 29.8139C46.2907 29.7907 46.8037 29.7654 46.8037 29.7654L47.5807 29.7422L48.4252 29.7907L49.9791 30.1958L50.7941 30.2675L52.7364 30.6894L54.2904 30.9278L55.2615 31.0945L56.3974 31.1177H58.2532L57.6325 31.5944C57.6325 31.5944 56.4671 32.2273 56.3974 32.3096C56.2714 32.4059 56.1387 32.4934 56.0005 32.5712L55.2615 33.1893L54.3896 33.8771L53.8069 34.4256L53.3065 35.0289V35.9255L52.4852 36.4972L51.9405 37.1154L50.8848 38.0436L50.7286 38.9845L50.9693 38.1639L51.229 37.9044L51.837 37.4002L51.9658 37.2441L52.0819 37.1407L52.5042 36.7082L52.6731 36.5922L53.0236 36.3327L53.2178 36.1977C53.2368 36.185 53.5028 35.9593 53.5028 35.9593V35.2061L53.5345 35.0374L53.8069 34.7905L54.5648 33.9952L54.8498 33.7842L55.3164 33.3771L56.3721 32.6978L56.9295 32.2759L57.5059 31.932L57.9007 31.6788L58.23 31.4679L59.0133 31.086L59.4356 31.0987C59.4356 31.0987 62.6595 32.0375 62.7778 32.0628C62.896 32.0881 63.2824 32.2294 63.4386 32.2737C63.5948 32.318 65.9721 33.1176 65.9721 33.1176L67.2157 33.5395L67.8765 33.588L69.897 33.8982C69.897 33.8982 67.98 33.375 67.5746 33.4235C67.3424 33.453 65.9933 32.9678 64.9249 32.5649C64.1797 32.2843 63.5695 32.0417 63.5695 32.0417L61.9058 31.5966L59.3596 30.9637H55.726L52.9159 30.5185L50.8933 30.1367L48.3386 29.565H46.5419L43.3285 28.4342L42.9696 28.6156L43.5882 28.8266L44.3652 29.0882L45.3807 29.3941L46.0415 29.6325L44.1773 29.9658L43.1237 30.1325Z" fill="#C2E5E0"/>
<path d="M90.2747 30.3306L91.0432 29.4868C91.0432 29.4868 90.8891 29.4594 91.0432 29.3475C91.2202 29.1547 91.3747 28.9424 91.5035 28.7147L92.196 28.3919C92.196 28.3919 93.885 28.2548 94.1173 28.3919C94.3495 28.529 96.2687 28.567 96.2687 28.567L100.914 29.3328L96.3236 28.7294C96.3236 28.7294 94.5036 28.5881 93.9272 28.5311C93.3509 28.4742 92.5824 28.3054 91.816 28.8307C91.0496 29.356 91.3557 29.4952 91.3557 29.4952L90.2747 30.3306Z" fill="#9FD7CF"/>
<path d="M72.8685 17L70.5672 17.9451L68.2595 18.8776H68.2701C67.5916 19.3628 66.9104 19.8445 66.2263 20.3227L66.2432 20.3058L64.854 22.2741C64.0285 23.0125 63.1924 23.7508 62.3627 24.4744L60.5786 26.5841L60.5659 26.5989H60.5491L58.2583 27.3203L55.463 28.8815L58.2076 27.2465L60.5068 26.4934L60.4794 26.5124L62.2487 24.3837C63.0763 23.6475 63.9018 22.907 64.7358 22.1771L64.7252 22.1897L66.1271 20.2341C66.8112 19.7559 67.4973 19.2805 68.1856 18.808L70.508 17.9156L72.8685 17Z" fill="#C2E5E0"/>
<path d="M-34.655 37.9972L-31.562 37.974L-30.2319 37.5689H-29.0263H-29.0453C-28.925 37.5035 -28.8025 37.4402 -28.6759 37.3854C-28.6116 37.3564 -28.5453 37.3325 -28.4774 37.3137C-28.4076 37.303 -28.3368 37.2995 -28.2663 37.3031H-27.4492H-25.815L-22.4496 36.5985H-22.4623L-20.2623 35.5015C-19.8971 35.3179 -19.5297 35.1302 -19.156 34.9593C-19.061 34.9171 -18.9681 34.8749 -18.8689 34.8369C-18.8146 34.8132 -18.7569 34.7982 -18.6979 34.7926H-17.9294C-16.2889 34.7926 -14.6505 34.78 -13.0101 34.7926H-13.0396C-12.8707 34.723 -12.6997 34.6534 -12.5287 34.5817C-12.3577 34.51 -12.1867 34.4488 -12.003 34.396C-11.9629 34.3834 -11.8847 34.3749 -11.8573 34.3665C-11.8131 34.3591 -11.7694 34.3493 -11.7264 34.337C-11.6441 34.3138 -11.5617 34.2906 -11.473 34.2631C-11.2978 34.2104 -11.1247 34.1534 -10.9515 34.0986L-10.4301 33.9256C-10.3414 33.8939 -10.259 33.8707 -10.1725 33.837L-9.9149 33.7399L-8.88881 33.3475L-8.13086 32.913L-7.75294 32.702L-7.56292 32.5923C-7.50803 32.5585 -7.44258 32.5142 -7.38346 32.4742L-5.933 31.4995L-5.94989 31.5185L-4.4931 28.8962L-4.12785 28.2401C-4.00961 28.0291 -3.87238 27.8076 -3.7457 27.5924L-2.96875 26.3098L0.160191 21.1897L-2.91808 26.352L-3.6887 27.6389C-3.81538 27.8498 -3.94839 28.0608 -4.06662 28.2844L-4.42765 28.9426L-5.87178 31.5712V31.5818H-5.88233L-7.32857 32.5628C-7.38979 32.6028 -7.44469 32.6429 -7.51436 32.6851L-7.70227 32.7948L-8.08019 33.0058L-8.84025 33.4551L-9.86423 33.8517L-10.1197 33.9509C-10.2041 33.9847 -10.297 34.0142 -10.3815 34.0437L-10.903 34.2188C-11.0782 34.2758 -11.2514 34.3327 -11.4266 34.3876C-11.5131 34.415 -11.606 34.4424 -11.6989 34.4678C-11.7454 34.4825 -11.7897 34.4889 -11.8362 34.4973H-11.8531H-11.8763H-11.9037C-11.923 34.5001 -11.9421 34.5044 -11.9607 34.51C-12.1296 34.5585 -12.3007 34.6281 -12.4717 34.6935C-12.6427 34.7589 -12.8116 34.8285 -12.9784 34.9045H-12.9932H-13.0079C-14.6484 34.9045 -16.2868 34.9045 -17.9273 34.9045H-18.6958C-18.7387 34.9108 -18.7806 34.9228 -18.8203 34.9403C-18.9132 34.9741 -19.0061 35.0163 -19.099 35.0585C-19.4706 35.2251 -19.8359 35.4108 -20.2032 35.5922L-22.4095 36.6787L-25.7876 37.3664H-27.4217H-28.262C-28.3266 37.3601 -28.3917 37.3601 -28.4563 37.3664C-28.5198 37.3835 -28.5819 37.4054 -28.6421 37.4318C-28.7645 37.4845 -28.887 37.5457 -29.0052 37.609H-30.2108L-31.5451 37.9951L-34.655 37.9972Z" fill="#C2E5E0"/>
<path d="M17.961 38.5331L15.7758 37.5774L13.9263 37.5901L11.2809 36.6871L9.89166 35.9045L9.5433 35.7083L9.19072 35.529C8.95215 35.4108 8.71357 35.2948 8.47288 35.1893C8.41165 35.164 8.35043 35.1387 8.29131 35.1197C8.27826 35.115 8.26484 35.1115 8.25119 35.1091C8.23791 35.107 8.22437 35.107 8.21108 35.1091H6.91474H5.32072H5.34183L2.38602 36.204H2.3628H2.33957L-0.468449 35.1218H-0.441H-1.55576L-6.49197 35.9256H-6.46874L-6.97967 36.2315L-10.9468 37.8137L-14.4431 38.0247H-14.4262L-15.2327 38.4466C-15.503 38.5837 -15.769 38.7272 -16.0456 38.8559C-16.1828 38.9191 -16.3221 38.9824 -16.4678 39.0394C-16.6135 39.0964 -16.7507 39.1533 -16.8901 39.1997C-17.0361 39.2457 -17.1859 39.2789 -17.3377 39.2989C-17.4812 39.3326 -17.6269 39.3748 -17.7705 39.4191C-18.349 39.5984 -18.9211 39.7946 -19.4933 39.9908L-21.2056 40.5963L-19.5018 39.9634C-18.9317 39.7524 -18.3617 39.552 -17.7853 39.3643C-17.6417 39.3179 -17.496 39.2736 -17.3461 39.2356C-17.1976 39.2143 -17.0514 39.1797 -16.9091 39.1322C-16.7676 39.0837 -16.6262 39.0288 -16.4868 38.9677C-16.3475 38.9065 -16.2124 38.8432 -16.0646 38.7799C-15.7922 38.6512 -15.5262 38.5057 -15.2581 38.358L-14.4536 37.9361L-10.9573 37.6998H-10.9742L-7.01557 36.0986L-6.51097 35.7863H-6.50041H-6.48775L-1.55576 34.9594H-0.434668H-0.421999L2.37335 36.0543H2.32479L5.2806 34.9741H6.87463H8.17097C8.1899 34.9719 8.20904 34.9719 8.22797 34.9741C8.24667 34.9774 8.26503 34.9824 8.28286 34.9889C8.35042 35.01 8.41165 35.0374 8.47288 35.0627C8.71779 35.1703 8.95636 35.2885 9.19494 35.4087L9.55174 35.5922L9.898 35.7884L11.283 36.5774L13.92 37.5036L15.7695 37.5162L17.961 38.5331Z" fill="#C2E5E0"/>
<path d="M108.297 33.3031L102.086 29.5712L94.9367 24.9616L90.275 23.6958L85.8687 22.3225L82.5054 21.39L79.501 20.8816L78.154 21.7107L77.7909 22.295L78.8212 24.6157L79.501 25.7021L80.5377 27.2865L83.8482 30.029L84.5069 30.3623C84.5512 30.3813 87.1397 31.7589 87.1397 31.7589C87.1397 31.7589 89.4283 32.4572 90.6297 32.7673C91.831 33.0774 94.8522 33.7124 94.8522 33.7124V31.3644L95.397 30.8201H96.6405C96.6405 30.8201 98.7391 30.742 99.2036 30.8982C99.6681 31.0543 102.318 31.9783 102.318 31.9783C102.715 32.1114 103.104 32.267 103.483 32.4445C104.137 32.7959 104.812 33.1073 105.504 33.377C106.513 33.7652 107.524 33.9213 108.145 34.0753C108.766 34.2293 110.467 34.5964 110.467 34.5964L108.297 33.3031Z" fill="#7DC8BA"/>
<path d="M20.9638 33.3032L18.0228 30.9826L14.1317 27.8962L11.7818 26.6642L10.8148 26.5756L10.1814 26.6853L10.1033 26.8604L10.0252 27.1895V27.6114C10.0252 27.6705 10.0442 28.1557 10.0442 28.1557C10.0442 28.1557 10.1413 28.4278 10.1603 28.4848L10.3546 29.067L10.8402 29.5333L11.4229 29.9214L11.9085 30.0965L12.3561 30.4657L12.5672 30.6408L13.6735 32.3813L14.1591 32.8918L14.4885 33.6302L14.8643 34.2989L15.0205 34.415L16.1479 35.3474L16.6927 35.5795L17.5667 36.6491L17.9552 37.0141L18.1663 37.2862C18.1663 37.2862 18.6329 37.4212 18.6899 37.4212C18.747 37.4212 19.5345 37.8284 19.5345 37.8284L20.001 37.9845C20.0602 38.0035 21.5423 38.6849 21.5423 38.6849L21.2045 37.7904V37.128L21.5423 36.6449L21.7302 36.2229L22.0997 35.8348C22.0369 35.666 22.0369 35.4803 22.0997 35.3116C22.1757 35.1815 22.2407 35.0453 22.2939 34.9044L22.6233 34.7103C22.6233 34.7103 23.206 34.6133 23.2567 34.6133C23.3073 34.6133 25.6255 35.4571 25.6255 35.4571L20.9638 33.3032Z" fill="#7DC8BA"/>
<path d="M14.6357 35.4465L12.6152 34.5099C12.6152 34.5099 11.8382 34.2989 11.606 34.204C11.3738 34.109 9.50738 33.6428 9.50738 33.6428C9.50738 33.6428 8.88666 33.2546 8.66286 33.2546C8.24334 33.1894 7.8281 33.0992 7.41932 32.9846L5.58038 32.4171H4.77809L2.93915 32.1323C2.93915 32.1323 2.3691 32.1956 2.26565 32.2272C2.16219 32.2589 0.0910168 32.5437 0.0910168 32.5437L-2.52488 32.8749L-5.01198 33.3327L-7.54553 34.1386L-9.25567 34.4149L-9.93762 34.5099L-7.6152 34.0204L-6.9417 33.7926L-6.03595 33.5457L-4.44826 33.1365L-3.3335 32.9002L-1.36577 32.5521C-1.36577 32.5521 -0.848509 32.4424 -0.563485 32.4108C-0.278461 32.3791 0.808855 32.3475 0.808855 32.3475L2.56967 32.0796L3.06161 31.9698L3.45008 32.0479L3.83856 32.126L4.40861 32.2357L6.0153 32.3454L6.78803 32.6112L7.27997 32.7209L8.33561 33.069L9.00912 33.147L9.31948 33.32L10.3033 33.6998L10.9177 33.8263L12.2309 34.1807L14.6357 35.4465Z" fill="#7DC8BA"/>
<path d="M126.26 55.5537L124.463 55.1698L121.387 54.2057L118.37 53.3069L114.253 52.7036L108.658 51.1952C108.072 50.9469 107.501 50.6652 106.948 50.3513C106.481 50.0412 102.907 47.8704 102.907 47.8704L102.077 45.9527L99.0725 44.7102L96.6382 43.8811L94.8246 42.8453L94.1511 42.1681L93.011 41.0921C93.011 41.0921 92.1306 39.0099 92.0609 38.6555C91.9912 38.3011 91.1467 38.1323 91.1467 38.1323L89.2297 37.7104L86.7404 37.2378L84.8614 36.4741L83.5946 35.9045L80.9703 37.0416L77.9596 38.0079L76.3022 39.5184L74.5878 41.3896L70.9543 44.7017L68.7396 45.168L61.8483 51.6403L61.483 51.8998L58.8925 53.9187L56.2323 55.0516L53.7578 56.2858H128.768L126.26 55.5537Z" fill="#7DC8BA"/>
<path d="M53.7517 56.2919L56.2261 55.0577L58.8884 53.9249L61.4727 51.8996L61.8358 51.6401L68.7376 45.1699L70.9545 44.7036L74.588 41.3915L76.3003 39.5203L74.4888 41.1721L72.2719 41.6383L65.3722 48.1086L65.007 48.366L62.4228 50.3933L59.7625 51.5262L56.9798 52.9122L49.9577 55.3594L48.275 56.2919H53.4688H53.7517Z" fill="#87CFC4"/>
<path d="M79.5001 20.8816L82.5045 21.3984L85.8677 22.3309L90.274 23.7043L78.1235 19.023C78.1235 19.023 75.0875 18.3183 74.9882 19.5609C74.889 20.8035 75.4865 22.2191 75.4865 22.2191L81.4594 28.7252L83.1716 29.6809L83.843 30.0226L80.5325 27.2801L79.4959 25.6958L78.816 24.6093L77.7857 22.2887L78.1488 21.7043L79.5001 20.8816Z" fill="#87CFC4"/>
<path d="M103.354 35.8918C103.198 35.839 102.298 35.7104 102.298 35.7104C102.298 35.7104 99.9929 35.3222 99.9147 35.2884L98.6205 34.8665L96.5684 34.7209L94.9363 33.5944L93.4077 33.1535L91.5308 32.8434L88.1253 31.8982L87.2322 31.6388L84.0653 29.9848L85.4461 26.1347L86.5313 25.5208L87.9416 24.082L94.9321 24.9618L87.9332 23.9998H87.9142L87.8994 24.0145L86.4743 25.4554L85.3806 26.0714H85.3658V26.0841L83.4952 26.3836L83.0265 26.4596L82.7922 26.4976L82.5578 26.5377L81.6246 26.7085H81.6056L81.593 26.7212L80.4275 27.8119L79.1396 28.0925C78.9285 28.1368 78.7026 28.1874 78.4894 28.2275C78.3817 28.2465 78.2782 28.2718 78.1663 28.2844L77.8327 28.3055L75.1746 28.4701L73.7812 28.1051H72.3033L70.8254 28.4806L68.6043 29.4046L65.735 31.2021L68.6148 29.4279L70.8296 28.527L72.3075 28.1621H73.7854L75.1788 28.5376H75.1894L77.8454 28.392L78.179 28.373C78.2867 28.3625 78.4028 28.3372 78.5126 28.3182C78.7364 28.2781 78.9496 28.2296 79.1692 28.1874L80.4761 27.9131H80.4909L80.5035 27.9026L81.6584 26.833L82.5747 26.6727L82.8069 26.6347L83.0413 26.5988L83.51 26.5271L85.2983 26.2528L83.9365 30.0017L81.5697 31.3455L78.825 33.4045C78.4408 33.5395 78.0608 33.6788 77.6849 33.8454C77.4793 33.917 77.3004 34.0495 77.1719 34.2252C77.0495 34.3961 76.9439 34.5712 76.8383 34.7463C76.6377 35.0986 76.4185 35.4402 76.1817 35.7694C76.121 35.8488 76.05 35.9197 75.9706 35.9804L75.7362 36.1766L75.2675 36.5711L71.501 39.7102L70.5593 40.4971L69.624 41.2967L67.8864 43.0266L64.4155 46.4822C63.7652 46.8493 63.1128 47.2058 62.4668 47.5834L61.4956 48.1467L61.2528 48.288L61.1345 48.3576L61.01 48.4209C60.8453 48.5095 60.6743 48.5813 60.5054 48.6614C60.1676 48.8175 59.8234 48.9652 59.4814 49.1171L58.4511 49.5622L56.3862 50.442L58.4616 49.5981L59.4962 49.1656C59.8403 49.018 60.1844 48.8766 60.5286 48.7226C60.6996 48.6446 60.8748 48.5749 61.0395 48.4863L61.1641 48.423L61.2886 48.3534L61.5314 48.2163L62.5048 47.6636C63.1508 47.2902 63.8095 46.9336 64.4619 46.5687L67.9709 43.0899L69.7169 41.3684L70.6501 40.5794L71.5939 39.7967L75.3604 36.6724L75.8312 36.28L76.0677 36.0838C76.1521 36.0182 76.228 35.9424 76.2936 35.858C76.5331 35.5227 76.7544 35.1749 76.9566 34.8159C77.0621 34.6408 77.1677 34.4657 77.2817 34.3032C77.3951 34.1467 77.5545 34.0295 77.7377 33.9678C78.1051 33.8011 78.4894 33.6598 78.8736 33.5248H78.8842L81.6288 31.451L83.9513 30.1304L87.1182 31.7632L90.6082 32.7716L92.7469 33.2674L93.4922 33.4193L94.4761 33.7822L94.9173 33.8602L96.2622 34.7674L96.5726 35.2969L97.0898 36.0985L98.251 38.3073L99.9084 39.5499L98.4052 38.1786L96.7035 34.991L98.6036 35.1323L99.8979 35.4867L101.963 35.8412L103.257 36.0521L104.946 36.6513C104.946 36.6513 103.51 35.9445 103.354 35.8918Z" fill="#87CFC4"/>
<path d="M43.5175 54.9566L39.4343 53.8132L38.8579 53.6676L27.9531 50.0159L24.4525 49.7522L18.7119 47.883L16.0031 46.8282L13.3851 45.9843L10.0071 44.7966L7.2117 43.3705C7.2117 43.3705 5.26931 42.379 5.03707 42.379C4.9216 42.3639 4.80869 42.3334 4.70138 42.2883L7.05758 41.6406L8.39192 41.5246L9.22165 41.4339L10.7629 40.8896L11.8903 40.3601L14.9559 39.3622L16.3029 39.1808C16.3029 39.1808 17.1475 39.0247 17.2087 39.0247C17.2699 39.0247 17.9202 38.8685 17.9202 38.8685H20.4981C20.4981 38.8685 21.4038 39.0247 21.4566 39.0247C21.5094 39.0247 22.7656 39.1808 22.7656 39.1808L25.8734 39.8284L26.4519 40.3453C26.8451 40.5789 27.2535 40.7861 27.6744 40.9655C27.9087 41.0183 28.6814 41.5351 28.6814 41.5351L29.8025 41.957L37.2237 44.824C37.2237 44.824 39.4195 45.8325 39.5166 45.9105C39.6137 45.9886 40.2556 46.5708 40.3316 46.6489C40.4076 46.7269 40.8763 47.1721 40.8763 47.1721C40.8763 47.1721 41.5097 48.0455 41.5561 48.1045C41.7308 48.3529 41.9257 48.5864 42.1388 48.8028C42.3135 48.9877 42.4697 49.189 42.6054 49.4041L43.7117 50.4357L44.324 50.9652L49.9696 52.8639L44.6914 50.9652L42.8271 49.1804L40.4181 46.0983L39.5082 45.3135L37.4876 44.3304L34.3207 43.3811L31.4852 42.2081L26.9776 40.2229L26.1479 39.5204L21.5389 38.6766C21.5389 38.6766 20.061 37.9973 19.9977 37.9762L19.5311 37.82C19.5311 37.82 18.7541 37.4129 18.6866 37.4129C18.619 37.4129 18.163 37.2779 18.163 37.2779L17.9519 37.0057L17.5634 36.6408L16.6893 35.5712L16.1446 35.3391L15.0172 34.4067L14.8609 34.2906L14.4914 33.6303L14.1621 32.8919L13.6765 32.3814L12.5702 30.6409L12.359 30.4658L11.9114 30.0967L11.4258 29.9216L10.8431 29.5334L10.3575 29.0672L10.1633 28.4849C10.1443 28.4258 10.0472 28.1558 10.0472 28.1558C10.0472 28.1558 10.0282 27.6706 10.0282 27.6115V27.1896L10.1063 26.8605L10.1844 26.6854L10.8178 26.5757L11.7848 26.6643L11.5335 26.5335L11.0986 26.3056C10.0577 26.0588 9.8086 26.6031 9.8086 26.6031V27.5862L9.93739 28.641L10.0535 29.0355L7.05335 27.9385L4.17989 27.4976L3.1538 27.1558L2.69143 26.5672C2.65342 26.5187 2.61119 26.4639 2.56897 26.4175L2.45708 26.2824L2.20794 25.9934L1.21985 24.8416V23.9302C1.17014 23.7031 1.15167 23.4703 1.16496 23.2382C1.17235 23.0054 1.24555 22.7794 1.37609 22.5863C1.40982 22.5392 1.44958 22.4966 1.49433 22.4598C1.53802 22.4217 1.58624 22.3891 1.63789 22.3627C1.68926 22.3361 1.74297 22.3142 1.79835 22.2973C1.85446 22.2824 1.91164 22.2718 1.96937 22.2657C2.02771 22.2615 2.08626 22.2615 2.1446 22.2657H2.18261H2.16572H2.1446C2.08626 22.2616 2.02771 22.2616 1.96937 22.2657C1.91099 22.2711 1.85311 22.281 1.79624 22.2952C1.73952 22.3112 1.68439 22.3324 1.63156 22.3585C1.57852 22.3847 1.52889 22.4173 1.48377 22.4556C1.43756 22.493 1.3964 22.5362 1.36131 22.5842C1.22558 22.7803 1.148 23.0106 1.13752 23.2488C1.12046 23.4832 1.13537 23.7188 1.18185 23.9492V24.8711V24.8816L2.15938 26.0588L2.40429 26.3521L2.52675 26.4997C2.56898 26.5482 2.60276 26.5968 2.64287 26.6495L3.10525 27.2592V27.2719H3.12003L4.1271 27.6368H4.13766L6.99847 28.1241L10.1211 29.314V29.3435L11.9072 30.6093L12.3295 30.8414L13.9214 33.0966L14.2318 33.6662L14.4133 34.2358L14.6983 34.6239C14.6983 34.6239 16.2269 35.6598 16.3557 35.7378C16.4845 35.8159 17.2889 36.6471 17.2889 36.6471L17.9096 37.4466L20.7134 38.5331H17.9687L16.1551 38.9803H14.9559L11.8988 40.0162L10.5011 40.4993L8.89441 41.1195H7.91055L3.78719 41.9127L0.911608 41.533H-3.27931C-3.27931 41.533 -9.72931 43.4317 -9.96155 43.3789C-10.1938 43.3262 -13.2404 43.7207 -13.2319 43.7523C-13.2235 43.784 -14.6233 43.8093 -14.6233 43.8093L-17.5791 44.784L-14.6528 43.9401H-14.3425L-13.7978 43.9654L-13.0588 43.9781L-12.0032 43.9127L-10.2804 43.7523H-9.55619L-7.63913 43.2924L-4.68332 42.5942L-3.10408 41.9992L0.820824 42.09L2.03904 42.2186L2.90678 42.6068L3.73652 42.8536L4.53881 43.0857L4.78583 43.2144L5.26509 43.3705L9.65025 45.535L8.62627 45.4169L4.46492 44.784L2.47397 45.1046L-0.481846 45.5266L-1.71906 45.8578L-3.22231 46.0877L-3.99926 46.1573L-5.76008 46.3683L-7.70247 46.5518L-9.3535 46.805L-7.71514 46.6784L-4.11538 46.4316L-1.39815 46.0371L0.426006 45.7417L4.23901 46.3303L8.59882 46.8303L10.9973 47.6109L13.4801 48.5792L18.7415 50.2922L21.9443 50.5433L31.9371 53.8892L32.4649 54.0221L36.2082 55.0769L40.0613 55.6634L43.6505 56.2963H51.6375L47.7211 55.6064L43.5175 54.9566Z" fill="#87CFC4"/>
<path d="M136.336 55.7455L133.255 54.7203C133.255 54.7203 132.292 54.1422 131.972 53.8764C131.651 53.6106 130.625 53.1064 130.304 52.8511C129.983 52.5958 127.029 51.9524 127.029 51.9524L124.27 51.1085L121.894 50.0833L120.29 49.4504L117.782 49.1656L112.187 47.6572C111.601 47.4089 111.03 47.1272 110.476 46.8133C110.01 46.5032 106.435 44.3324 106.435 44.3324L105.606 42.4147L102.882 41.2882L100.061 40.7966L98.3133 39.7102L96.487 38.0098L96.2611 37.5605L95.5961 36.6449L94.7832 35.5795L94.135 35.1238L92.4904 34.6006L91.1687 34.3897L89.1102 34.0395L86.9355 33.1471L85.8799 33.4192L84.744 33.877L82.4216 34.5922L81.102 35.3137L77.9583 38.0098L80.969 37.0415L83.5934 35.9044L84.8601 36.474L86.7371 37.2377L89.2242 37.7145L91.1412 38.1364C91.1412 38.1364 91.9858 38.3052 92.0554 38.6596C92.1251 39.014 93.0055 41.0962 93.0055 41.0962L94.1456 42.1721L94.8191 42.8451L96.6327 43.8809L99.067 44.71L102.071 45.9526L102.901 47.8703C102.901 47.8703 106.476 50.0411 106.942 50.3512C107.496 50.665 108.067 50.9468 108.652 51.195L114.247 52.7034L118.364 53.3068L121.381 54.2055L124.462 55.1675L126.258 55.5514L128.762 56.2898H138.455L136.336 55.7455Z" fill="#87CFC4"/>
<path d="M132.604 46.6572C127.189 43.3915 123.498 43.9949 122.164 44.4041L121.608 44.6151C119.572 45.3816 117.438 46.1706 115.207 46.9821C91.2881 55.6675 78.4135 56.2919 78.4135 56.2919H152C152 56.2919 146.993 54.4987 145.088 53.4144C143.184 52.33 139.5 50.8174 132.604 46.6572Z" fill="#86BA2B"/>
<path d="M145.087 53.4144C143.187 52.3279 139.499 50.8174 132.601 46.6636C127.186 43.3978 123.495 44.0012 122.161 44.4105L121.605 44.6214C119.569 45.3879 117.435 46.1769 115.204 46.9884C104.69 50.8069 96.3121 53.0663 90.2211 54.3996C90.2211 54.3996 97.5135 53.0157 101.033 54.657C104.553 56.2983 108.737 50.9082 114.999 52.8891C121.261 54.8701 122.268 49.1994 131.292 52.0115C140.316 54.8236 137.292 51.2921 147.703 54.6401C146.809 54.2799 145.936 53.8707 145.087 53.4144Z" fill="#88BF32"/>
<path d="M95.148 53.2266C100.24 52.0241 99.5606 55.1759 106.608 51.3723C113.656 47.5686 112.942 51.6528 119.909 48.9103C126.877 46.1678 128.832 50.3871 130.958 49.0517C133.084 47.7163 135.026 49.3322 137.796 50.7394C140.085 51.9018 143.159 52.7499 144.157 53.0093L144.487 53.0916C142.447 52.0178 138.835 50.4229 132.59 46.6572C127.174 43.3915 123.484 43.9949 122.149 44.4041L121.594 44.6151C119.557 45.3816 117.424 46.1706 115.193 46.9821C107.286 49.8575 100.578 51.849 95.148 53.2266Z" fill="#8BC53F"/>
<path d="M91.6756 55.8787L91.7241 55.7669H91.6418L91.7706 55.4863L91.8804 55.2184L91.7368 55.2965L91.7769 55.1066L91.8424 54.9863L91.874 54.845L91.9015 54.7036V54.634H91.8677L91.8951 54.5138L91.95 54.3935L92.0113 54.267L92.0788 54.1404L92.1274 54.0286C92.1602 54.1155 92.199 54.2001 92.2435 54.2817C92.2814 54.3332 92.3153 54.3875 92.3449 54.4442L92.4462 54.6129V54.6488L92.4061 54.634L92.4462 54.8028C92.4639 54.8279 92.4801 54.8539 92.4948 54.8809L92.5623 55.0222V55.0581L92.4863 55.0433L92.5623 55.2057C92.575 55.2332 92.6362 55.269 92.6447 55.3176C92.6544 55.3584 92.6732 55.3966 92.6996 55.4294C92.7122 55.4505 92.7756 55.5201 92.7756 55.5201V55.5559C92.7756 55.5559 92.6932 55.5412 92.6742 55.5412C92.6552 55.5412 92.5919 55.499 92.5982 55.5201C92.6046 55.5412 92.708 55.7036 92.708 55.7036L92.8368 55.8787H92.3216C92.3162 55.9585 92.3255 56.0386 92.3491 56.115C92.3695 56.1781 92.3979 56.2384 92.4335 56.2943H92.0387C92.0744 56.2384 92.1027 56.1781 92.1232 56.115C92.1467 56.0386 92.1561 55.9585 92.1506 55.8787H91.6756Z" fill="#009345"/>
<path d="M85.2214 55.9671L85.1834 55.8785H85.2468L85.1454 55.6675L85.061 55.4565L85.1729 55.5177L85.1412 55.37L85.0905 55.2772L85.0673 55.1675L85.0462 55.0578V55.003H85.0715L85.0504 54.9101L85.0082 54.8173L84.9596 54.7182L84.9068 54.619L84.8688 54.5304C84.8432 54.5985 84.8129 54.6648 84.7781 54.7287C84.7481 54.7688 84.7213 54.8111 84.6978 54.8553L84.6176 54.9861V55.0135L84.6493 55.003L84.6176 55.1338C84.6038 55.1534 84.5911 55.1738 84.5796 55.1949L84.5268 55.3046V55.3321L84.5859 55.3215L84.5268 55.4481C84.5162 55.4692 84.4677 55.4966 84.4635 55.5367C84.4566 55.5691 84.4421 55.5995 84.4212 55.6253C84.4107 55.6422 84.3621 55.697 84.3621 55.697V55.7245C84.3621 55.7245 84.4255 55.7139 84.4424 55.7139C84.4593 55.7139 84.5057 55.6801 84.5015 55.697C84.4972 55.7139 84.417 55.8405 84.417 55.8405L84.3157 55.9776H84.7168C84.7211 56.0396 84.7139 56.1018 84.6957 56.1612C84.6798 56.2101 84.6578 56.2569 84.6303 56.3004H84.9343C84.9067 56.2569 84.8847 56.2101 84.8688 56.1612C84.8507 56.1018 84.8435 56.0396 84.8477 55.9776L85.2214 55.9671Z" fill="#009345"/>
<path d="M83.4464 56.0155L83.4781 55.9396H83.4232L83.5098 55.7518L83.5837 55.5725L83.4887 55.6232L83.5161 55.4966L83.5583 55.4164L83.5795 55.3215L83.5985 55.2265V55.1843H83.5752L83.5942 55.1042L83.6301 55.024L83.6702 54.9396L83.7167 54.8552L83.7484 54.7793C83.7705 54.8373 83.7966 54.8937 83.8265 54.9481C83.8517 54.9822 83.8743 55.0181 83.894 55.0557L83.9616 55.1675V55.1843H83.9342L83.9616 55.2962C83.9731 55.3124 83.9837 55.3293 83.9933 55.3468L84.0397 55.4417V55.4649H83.9891L84.0397 55.5725C84.0397 55.5915 84.0904 55.6147 84.0946 55.6464C84.1007 55.6741 84.113 55.7 84.1305 55.7223C84.1305 55.7371 84.1812 55.7835 84.1812 55.7835V55.8067H84.1136C84.101 55.8067 84.0587 55.7793 84.063 55.7919C84.0672 55.8046 84.1369 55.9143 84.1369 55.9143L84.2234 56.0324H83.8793C83.8758 56.0859 83.8822 56.1395 83.8983 56.1906C83.9121 56.233 83.9312 56.2734 83.9553 56.3109H83.6956C83.7196 56.2734 83.7388 56.233 83.7526 56.1906C83.7686 56.1395 83.775 56.0859 83.7716 56.0324L83.4464 56.0155Z" fill="#009345"/>
<path d="M87.0414 55.5198L86.997 55.4417H87.0688L86.997 55.2877L86.9569 55.1991L86.9147 55.0346V55.005L86.9654 55.0346L86.9147 54.9122L86.8535 54.7751L86.826 54.697L86.7606 54.5515L86.7099 54.4502L86.617 54.7055H86.6402C86.6396 54.7391 86.6317 54.7722 86.617 54.8025C86.6039 54.8255 86.5946 54.8504 86.5895 54.8763C86.5895 54.8953 86.5663 54.9755 86.5663 54.9755H86.6001L86.5452 55.1126C86.5378 55.1339 86.5272 55.1538 86.5135 55.1717C86.4899 55.2108 86.4694 55.2517 86.4523 55.294H86.5177L86.4523 55.4227V55.5113L86.3974 55.6442H86.4481L86.3974 55.7476L86.3742 55.8215C86.3605 55.8354 86.3497 55.8519 86.3425 55.87C86.3405 55.9044 86.3405 55.9389 86.3425 55.9734L86.3889 56.0134H86.6592C86.6584 56.0776 86.6542 56.1417 86.6465 56.2054C86.6434 56.2346 86.6356 56.2631 86.6233 56.2898H86.7817C86.7694 56.2631 86.7615 56.2346 86.7584 56.2054C86.7508 56.1417 86.7466 56.0776 86.7458 56.0134H86.9907L87.0646 55.9797V55.9459L87.0371 55.8236L87.0181 55.7118L87.0646 55.7561V55.7118L87.0414 55.5746V55.5198Z" fill="#009345"/>
<path d="M89.0066 55.315L89.0636 55.2159H88.9728L89.0636 55.0218L89.1164 54.9079L89.1692 54.6969V54.6589L89.1059 54.6969L89.1692 54.5408L89.2473 54.3678L89.2811 54.2708L89.355 54.0767L89.4184 53.948L89.5366 54.2708H89.5049C89.5058 54.3132 89.5159 54.355 89.5345 54.3931C89.5507 54.4221 89.5621 54.4534 89.5682 54.486C89.5682 54.5113 89.5978 54.6104 89.5978 54.6104H89.5535L89.621 54.7855C89.6303 54.8121 89.6439 54.8371 89.6611 54.8594C89.6913 54.9093 89.7174 54.9615 89.7393 55.0155H89.6569L89.7393 55.1758V55.2876L89.8068 55.4543L89.7435 55.4669L89.8068 55.5977L89.8364 55.6906C89.8529 55.7083 89.8658 55.7291 89.8744 55.7517C89.8769 55.7953 89.8769 55.839 89.8744 55.8825L89.8153 55.9332H89.4732C89.4739 56.0142 89.4788 56.0952 89.488 56.1758C89.4919 56.213 89.5019 56.2494 89.5176 56.2834H89.317C89.3327 56.2494 89.3427 56.213 89.3466 56.1758C89.3558 56.0952 89.3607 56.0142 89.3613 55.9332H89.051L88.9581 55.8889V55.8446L88.9919 55.6884L89.0172 55.5471L88.9581 55.602V55.5471L88.9876 55.3741L89.0066 55.315Z" fill="#009345"/>
<path d="M94.0736 55.9037H93.5859L93.6555 55.621L93.7147 55.5493L93.7843 55.3236L93.7147 55.3784L93.7527 55.2624C93.7907 55.1463 93.7949 55.1653 93.7949 55.1653L93.8223 55.0915L93.892 54.9417H93.8223L93.9385 54.7308C93.9385 54.7308 94.0335 54.3763 94.044 54.3552C94.0546 54.3341 94.0757 54.0304 94.0757 54.0304L94.1496 53.8088L94.2087 54.0304L94.2361 54.2118L94.2847 54.3616L94.3164 54.5156L94.3797 54.7434L94.3164 54.6949L94.3544 54.7835L94.4578 55.0767L94.4874 55.1569L94.5993 55.4375L94.5718 55.4712H94.5127V55.5261L94.5549 55.6569L94.5929 55.813L94.5338 55.7455V55.8172L94.5929 55.8995H94.1981C94.1889 56.0312 94.2039 56.1635 94.2425 56.2898H94.0313C94.0686 56.1647 94.083 56.0339 94.0736 55.9037Z" fill="#009345"/>
<path d="M91.2482 55.9692L91.2102 55.8827H91.2736L91.1722 55.6718L91.0878 55.4608L91.1997 55.5199L91.168 55.3722L91.1173 55.2794L91.0941 55.1697L91.073 55.06V55.0051H91.1004L91.0793 54.9123L91.0371 54.8195L90.9885 54.7203L90.9358 54.6212L90.8978 54.5347C90.8721 54.6021 90.8417 54.6676 90.807 54.7309C90.7771 54.7702 90.7503 54.8118 90.7268 54.8553L90.6465 54.9861V55.0136L90.6782 55.003L90.6465 55.1338C90.6328 55.1528 90.6201 55.1725 90.6085 55.1929L90.5557 55.3026V55.33L90.6148 55.3195L90.5557 55.4439C90.5452 55.465 90.4987 55.4924 90.4924 55.5304C90.4855 55.5629 90.471 55.5932 90.4502 55.619C90.4396 55.6359 90.3911 55.6907 90.3911 55.6907V55.7182C90.3911 55.7182 90.4544 55.7076 90.4713 55.7076C90.4882 55.7076 90.5346 55.6739 90.5304 55.6907C90.5262 55.7076 90.446 55.8321 90.446 55.8321L90.3446 55.9692H90.7436C90.7479 56.0312 90.7408 56.0934 90.7225 56.1528C90.7067 56.2018 90.6847 56.2485 90.6571 56.292H90.959C90.9313 56.2485 90.9094 56.2018 90.8935 56.1528C90.8753 56.0934 90.8681 56.0312 90.8724 55.9692H91.2482Z" fill="#37B34A"/>
<path d="M95.4961 55.5007L95.4497 55.4206H95.5236L95.4497 55.2645L95.4074 55.1738L95.3652 55.005V54.9733L95.4159 55.0029L95.3652 54.8763L95.3019 54.7349L95.2744 54.6548L95.2153 54.4966L95.1646 54.3932L95.0696 54.6548H95.0929C95.0924 54.6891 95.0845 54.723 95.0696 54.7539C95.0564 54.7776 95.0471 54.8032 95.0422 54.8299C95.0422 54.851 95.019 54.9311 95.019 54.9311H95.0549L95 55.0725C94.9928 55.0945 94.9821 55.1151 94.9683 55.1337C94.9438 55.1741 94.9227 55.2164 94.9049 55.2602H94.9725L94.9049 55.391V55.4818L94.8501 55.6168H94.9007L94.8501 55.7223L94.8268 55.7982C94.813 55.8128 94.8023 55.83 94.7952 55.8488C94.7931 55.884 94.7931 55.9192 94.7952 55.9543L94.8437 55.9944H95.1203C95.1196 56.06 95.1153 56.1255 95.1076 56.1906C95.1047 56.2205 95.0968 56.2497 95.0844 56.2771H95.247C95.2346 56.2497 95.2267 56.2205 95.2238 56.1906C95.2161 56.1255 95.2118 56.06 95.2111 55.9944H95.4623L95.5383 55.9585V55.9227L95.5109 55.7961L95.4919 55.6801L95.5405 55.7244V55.6801L95.5172 55.5408L95.4961 55.5007Z" fill="#37B34A"/>
<path d="M85.7541 56.0283H85.4226L85.4691 55.8363L85.5092 55.7878L85.5556 55.6338L85.5092 55.6717L85.5345 55.5937C85.5598 55.5156 85.5641 55.5283 85.5641 55.5283L85.5831 55.4776L85.6295 55.3764H85.5831L85.6633 55.2371C85.6633 55.2371 85.7288 54.9966 85.7351 54.9819C85.7414 54.9671 85.7562 54.7709 85.7562 54.7709L85.8069 54.619L85.847 54.7709L85.866 54.8933L85.8976 54.9945L85.9188 55.0979L85.9631 55.254L85.9188 55.2224L85.9441 55.2836L86.0138 55.484L86.0328 55.5388L86.1088 55.7287L86.0898 55.7519H86.0497V55.7899L86.0792 55.8785L86.1046 55.984L86.0644 55.9375V55.984L86.1046 56.0388H85.8364C85.8299 56.1285 85.8399 56.2186 85.866 56.3046H85.7182C85.7477 56.2156 85.7599 56.1218 85.7541 56.0283Z" fill="#37B34A"/>
<path d="M88.3123 55.9923H88.6881L88.6353 55.7813L88.591 55.7265L88.5382 55.5535L88.591 55.5957L88.5614 55.5071C88.5319 55.4185 88.5276 55.4332 88.5276 55.4332L88.5065 55.3763L88.4537 55.2602H88.5065L88.4157 55.102C88.4157 55.102 88.3418 54.8299 88.3334 54.813C88.3249 54.7961 88.3081 54.5641 88.3081 54.5641L88.251 54.3932L88.2067 54.5641L88.1856 54.7033L88.1497 54.8193L88.1244 54.9375L88.0758 55.1126L88.1244 55.0767L88.0948 55.1442L88.0146 55.3699L87.9914 55.4332L87.9048 55.6442L87.9259 55.6695H87.9702V55.7117L87.9365 55.8109L87.9069 55.9311L87.9512 55.8784V55.9311L87.9069 55.9944H88.2109C88.218 56.0955 88.2066 56.197 88.1772 56.294H88.3439C88.315 56.1962 88.3042 56.0939 88.3123 55.9923Z" fill="#37B34A"/>
<path d="M87.5852 56.0535H87.8829L87.8407 55.8805L87.8048 55.8362L87.7626 55.6991L87.8048 55.7329L87.7816 55.6611C87.7583 55.5894 87.7562 55.6021 87.7562 55.6021L87.7393 55.5578L87.6971 55.467H87.7393L87.6675 55.3426C87.6675 55.3426 87.6084 55.1316 87.6021 55.1126C87.5958 55.0936 87.5831 54.9143 87.5831 54.9143L87.5366 54.7793L87.5007 54.9143L87.4839 55.024L87.4543 55.1147L87.4353 55.2076L87.3973 55.3468L87.4353 55.3173L87.4121 55.3721L87.3487 55.5514L87.3318 55.5999L87.2643 55.7708L87.2812 55.7919H87.3171V55.8257L87.2917 55.9058L87.2685 56.0008L87.3044 55.9586V56.0008L87.2685 56.0514H87.5092C87.5147 56.1319 87.5054 56.2127 87.4817 56.2898H87.6042C87.5837 56.2128 87.5772 56.1328 87.5852 56.0535Z" fill="#37B34A"/>
<path d="M95.9185 55.9208H95.452L95.5174 55.6508L95.5723 55.5832L95.6378 55.3723L95.5723 55.425L95.6082 55.3153C95.6441 55.2056 95.6483 55.2225 95.6483 55.2225L95.6737 55.1508L95.7391 55.0073H95.6737L95.7855 54.8111C95.7855 54.8111 95.8763 54.4715 95.8869 54.4525C95.8974 54.4335 95.9164 54.1424 95.9164 54.1424L95.9882 53.9314L96.0431 54.1424L96.0685 54.3154L96.1149 54.4588L96.1445 54.6044L96.2057 54.8153L96.1445 54.7689L96.1803 54.8533L96.2796 55.1339L96.307 55.2119L96.4147 55.4799L96.3893 55.5115H96.3345V55.5643L96.3746 55.6887L96.4105 55.8385L96.3556 55.7731V55.8385L96.4105 55.9166H96.0516C96.0429 56.0419 96.0572 56.1677 96.0938 56.2879H95.8827C95.9166 56.1686 95.9288 56.0443 95.9185 55.9208Z" fill="#37B34A"/>
<path d="M36.3603 52.3892C10.5962 48.9589 -15.0645 40.1153 -43.5057 34.9319C-54.5605 33.0839 -59.8535 37.2968 -61.6819 37.7546C-63.582 38.2293 -76.4271 43.6954 -83.084 46.7839C-89.7409 49.8724 -106 56.292 -106 56.292H62.8084C62.8084 56.292 62.8654 55.9186 36.3603 52.3892Z" fill="#86BA2B"/>
<path d="M-55.1186 47.9062C-43.5762 49.8977 -47.7988 43.8051 -31.6136 47.9062C-15.4284 52.0073 -18.5236 44.1089 1.5844 49.172C21.6924 54.2351 14.6491 49.018 29.3585 51.3259C5.9231 47.3788 -17.641 39.6449 -43.5065 34.9319C-54.5612 33.0839 -59.8542 37.2968 -61.6826 37.7546C-63.5828 38.2293 -76.4279 43.6954 -83.0848 46.7839C-86.7627 48.4906 -93.3626 51.2141 -98.5374 53.3111C-98.5374 53.3111 -88.4686 49.5876 -77.6355 49.1825C-66.8025 48.7775 -66.661 45.9147 -55.1186 47.9062Z" fill="#88BF32"/>
<path d="M-92.5669 50.8554C-92.4867 50.8259 -72.1148 43.286 -58.3513 43.1447C-44.5878 43.0033 -48.4282 38.3621 -33.8983 42.5814C-19.3684 46.8007 -26.4053 39.7693 -13.1738 43.4253C0.0576401 47.0813 0.1632 45.2965 11.598 47.7374C-6.08833 43.6784 -24.1526 38.455 -43.5068 34.9277C-54.5615 33.0796 -59.8545 37.2926 -61.6829 37.7503C-63.5831 38.225 -76.4282 43.6911 -83.0851 46.7796C-85.4392 47.864 -88.9735 49.366 -92.5669 50.8554Z" fill="#8BC53F"/>
<path d="M15.3128 55.4502L15.4099 55.2224H15.2431L15.507 54.6507L15.7181 54.1085L15.4268 54.2646L15.5091 53.8785L15.64 53.6359L15.7034 53.3511L15.7583 53.0663V52.9229H15.6886L15.7435 52.6803L15.8533 52.4377L15.9778 52.1803L16.1172 51.9229L16.2143 51.6951C16.2825 51.872 16.3629 52.044 16.455 52.2098C16.5338 52.3139 16.6044 52.4239 16.6661 52.5389L16.8772 52.8807V52.9524L16.7949 52.9229L16.8772 53.2646C16.9125 53.3148 16.9449 53.3669 16.9744 53.4208L17.1137 53.7056V53.7773L16.9617 53.7477C16.9617 53.7477 17.0863 54.0199 17.1137 54.0768C17.1412 54.1338 17.2657 54.2034 17.2805 54.3047C17.3 54.3888 17.3383 54.4674 17.3924 54.5346C17.4198 54.5768 17.5444 54.7203 17.5444 54.7203V54.792C17.5444 54.792 17.3776 54.7625 17.3333 54.7625C17.2889 54.7625 17.1665 54.676 17.1813 54.7203C17.196 54.7646 17.3924 55.0916 17.3924 55.0916L17.6563 55.4481H16.6007C16.5895 55.6098 16.6081 55.7721 16.6556 55.927C16.6975 56.0555 16.7557 56.1782 16.8287 56.292H16.0391C16.1121 56.1782 16.1702 56.0555 16.2122 55.927C16.2596 55.7721 16.2782 55.6098 16.2671 55.4481L15.3128 55.4502Z" fill="#37B34A"/>
<path d="M34.5894 54.8385L34.6739 54.6929H34.5388L34.6739 54.4039L34.752 54.2351L34.8217 53.9187L34.8365 53.8617L34.7436 53.9166L34.8365 53.6845L34.9526 53.425L35.0032 53.2795L35.113 52.9904L35.2081 52.7985L35.3833 53.2795H35.339C35.3404 53.3424 35.3555 53.4043 35.3833 53.4609C35.4076 53.5043 35.4247 53.5513 35.434 53.6001C35.4487 53.6381 35.4783 53.7858 35.4783 53.7858H35.4128L35.5142 54.0453C35.5276 54.0855 35.5476 54.1233 35.5733 54.1571C35.6181 54.2312 35.6569 54.3088 35.6894 54.3891H35.5649L35.6894 54.6296V54.7963L35.7908 55.0452L35.6958 55.0642L35.7908 55.2583L35.8351 55.3975C35.8608 55.4242 35.8809 55.4558 35.8942 55.4904C35.898 55.555 35.898 55.6198 35.8942 55.6844L35.8077 55.7583H35.2988C35.2995 55.8788 35.3065 55.9992 35.3199 56.119C35.3258 56.1746 35.3408 56.2287 35.3643 56.2794H35.0666C35.0901 56.2287 35.1051 56.1746 35.1109 56.119C35.1244 55.9992 35.1314 55.8788 35.132 55.7583H34.6718L34.5345 55.6929V55.6275L34.5852 55.3954L34.6211 55.1845L34.5345 55.2667V55.1845L34.5789 54.9271L34.5894 54.8385Z" fill="#37B34A"/>
<path d="M55.454 55.8614H54.9135L54.9895 55.5492L55.055 55.469L55.131 55.2201L55.055 55.2812L55.0972 55.1525C55.1394 55.0239 55.1437 55.0471 55.1437 55.0471L55.1732 54.9648L55.2492 54.7981H55.1732L55.302 54.5724C55.302 54.5724 55.4076 54.18 55.4202 54.1505C55.4329 54.1209 55.4561 53.7918 55.4561 53.7918L55.5385 53.5471L55.6039 53.7918L55.6335 54.0028L55.6863 54.1695L55.7222 54.3382L55.7918 54.5914L55.7222 54.5386L55.7644 54.6357L55.8784 54.9606L55.9101 55.0492L56.0346 55.3593L56.0051 55.3973H55.9354V55.4584L55.9818 55.6019L56.0241 55.7749L55.9586 55.6989V55.7749L56.0241 55.8656H55.5976C55.5884 56.008 55.6049 56.1509 55.6462 56.2875H55.4055C55.4473 56.1496 55.4637 56.0052 55.454 55.8614Z" fill="#37B34A"/>
<path d="M57.9951 55.9228H58.4701L58.4046 55.6549L58.3498 55.5873L58.2843 55.3764L58.3498 55.4291L58.3139 55.3194C58.278 55.2097 58.2737 55.2287 58.2737 55.2287L58.2484 55.1591L58.183 55.0156H58.2484L58.1365 54.8215C58.1365 54.8215 58.0457 54.484 58.0352 54.465C58.0246 54.446 58.0056 54.157 58.0056 54.157L57.9338 53.946L57.8789 54.157L57.8536 54.33L57.8071 54.4735L57.7776 54.619L57.7164 54.83L57.7776 54.7857L57.7417 54.8701L57.6425 55.1485L57.615 55.2245L57.5095 55.4903L57.5348 55.5219H57.5897V55.5747L57.5496 55.6992L57.5137 55.8468L57.5686 55.7814V55.8468L57.5137 55.9249H57.8874C57.8959 56.0495 57.8816 56.1746 57.8451 56.2941H58.0563C58.0131 56.1751 57.9924 56.0493 57.9951 55.9228Z" fill="#37B34A"/>
<path d="M19.305 55.6907H20.0587L19.9511 55.254L19.8603 55.1443L19.7526 54.7983L19.8603 54.8827L19.8033 54.7034C19.7463 54.5241 19.7378 54.5557 19.7378 54.5557L19.6977 54.4418L19.59 54.2097H19.6977L19.5161 53.8933C19.5161 53.8933 19.3683 53.3469 19.3515 53.3153C19.3346 53.2836 19.3029 52.8153 19.3029 52.8153L19.1889 52.4735L19.0981 52.8153L19.058 53.0937L18.9841 53.3258L18.9355 53.5621L18.8363 53.9144L18.9355 53.8406L18.8785 53.9777L18.7181 54.4291L18.6737 54.5536L18.5006 54.9755L18.5407 55.0283H18.6315V55.1127L18.5661 55.3236L18.5091 55.5641L18.5998 55.4586V55.5641L18.5091 55.6907H19.1171C19.1315 55.8936 19.1086 56.0973 19.0495 56.292H19.3852C19.3219 56.0981 19.2947 55.8943 19.305 55.6907Z" fill="#37B34A"/>
<path d="M24.0971 55.6907H24.8508L24.7432 55.254L24.6524 55.1443L24.5447 54.7983L24.6524 54.8827L24.5954 54.7034C24.5384 54.5241 24.5299 54.5557 24.5299 54.5557L24.4898 54.4418L24.3821 54.2097H24.4793L24.2977 53.8933C24.2977 53.8933 24.1499 53.3469 24.133 53.3153C24.1161 53.2836 24.0845 52.8153 24.0845 52.8153L23.9705 52.4735L23.8797 52.8153L23.8396 53.0937L23.7657 53.3258L23.7171 53.5621L23.6348 53.9186L23.734 53.8448L23.677 53.9819L23.5165 54.4334L23.4722 54.5578L23.2991 54.9798L23.3392 55.0325H23.4236V55.1169L23.3582 55.3278L23.3012 55.5684L23.392 55.4629V55.5684L23.3012 55.6949H23.9092C23.9237 55.8978 23.9008 56.1016 23.8417 56.2962H24.1774C24.1135 56.101 24.0863 55.8957 24.0971 55.6907Z" fill="#37B34A"/>
<path d="M44.2275 55.8344H44.8039L44.7216 55.501L44.6519 55.4166L44.5695 55.1508L44.6519 55.2141L44.6076 55.077C44.5632 54.9399 44.5569 54.9631 44.5569 54.9631L44.5252 54.8766L44.4429 54.6994H44.5358L44.3985 54.4589C44.3985 54.4589 44.2867 54.0369 44.274 54.018C44.2613 53.999 44.236 53.6361 44.236 53.6361L44.1473 53.3745L44.0776 53.6361L44.046 53.8471L43.989 54.0243L43.951 54.2057L43.875 54.4736L43.951 54.4167L43.9066 54.52L43.7842 54.866L43.7504 54.961L43.6195 55.2901L43.6512 55.3301H43.7209V55.3934L43.6702 55.5474L43.6258 55.731L43.6955 55.6508V55.731L43.6258 55.828H44.0903C44.1009 55.9826 44.083 56.1377 44.0375 56.2858H44.293C44.244 56.1405 44.2218 55.9876 44.2275 55.8344Z" fill="#37B34A"/>
<path d="M49.8739 55.849H50.4313L50.3532 55.5262L50.2856 55.444L50.2075 55.1866L50.2856 55.2478L50.2434 55.1148C50.2012 54.9819 50.1948 55.0051 50.1948 55.0051L50.1653 54.9208L50.0872 54.7499H50.1653L50.0323 54.5157C50.0323 54.5157 49.9225 54.1107 49.9119 54.0938C49.9014 54.0769 49.876 53.7246 49.876 53.7246L49.7916 53.4714L49.724 53.7246L49.6945 53.9356L49.6396 54.1064L49.6037 54.2815L49.5298 54.541L49.6037 54.4862L49.5615 54.5874L49.4432 54.9208L49.4095 55.0136L49.2828 55.3321L49.3123 55.3701H49.3799V55.4313L49.3313 55.579L49.2891 55.7562L49.3567 55.6781V55.7562L49.2891 55.849H49.7388C49.7491 55.9985 49.7319 56.1487 49.6881 56.292H49.9352C49.8878 56.1493 49.8671 55.9992 49.8739 55.849Z" fill="#37B34A"/>
<path d="M54.4106 55.7584L54.3493 55.6128H54.4549L54.2881 55.25L54.1467 54.9061L54.3303 55.0053L54.2776 54.7605L54.1931 54.6065L54.153 54.4251L54.1171 54.2437V54.153H54.1614L54.1255 53.999L54.0559 53.845L53.9777 53.6825L53.8891 53.5201L53.8279 53.3745C53.7855 53.4868 53.7354 53.5961 53.6779 53.7015C53.6289 53.7683 53.5851 53.8389 53.547 53.9125L53.4161 54.1234V54.1677L53.4689 54.1487L53.4161 54.3597C53.3939 54.3916 53.3735 54.4247 53.3549 54.4589L53.2662 54.6403V54.6846L53.3634 54.6656L53.2662 54.8766C53.2494 54.9124 53.1691 54.9567 53.1607 55.0221C53.1486 55.0752 53.1248 55.125 53.091 55.1677C53.0741 55.1951 52.9939 55.2858 52.9939 55.2858V55.3301C52.9939 55.3301 53.0995 55.3112 53.1269 55.3112C53.1543 55.3112 53.2325 55.2563 53.224 55.2837C53.2156 55.3112 53.0826 55.52 53.0826 55.52L52.9158 55.7457H53.5787C53.5854 55.8483 53.5732 55.9513 53.5428 56.0495C53.5163 56.1312 53.4794 56.2092 53.433 56.2816H53.9355C53.8892 56.2092 53.8523 56.1312 53.8257 56.0495C53.7954 55.9513 53.7832 55.8483 53.7899 55.7457L54.4106 55.7584Z" fill="#009345"/>
<path d="M12.8295 55.5431L12.7429 55.3321H12.8907L12.6564 54.8258L12.46 54.3448L12.7176 54.484L12.6437 54.1423L12.5276 53.9313L12.4727 53.6782L12.4241 53.425V53.2984H12.4853L12.4368 53.0875L12.3375 52.8765L12.2278 52.6486L12.1053 52.4208L12.0187 52.2098C11.9589 52.3664 11.8884 52.5187 11.8076 52.6655C11.739 52.7577 11.6776 52.855 11.6239 52.9567L11.4402 53.2604V53.3237L11.5141 53.2984L11.4402 53.6022C11.4088 53.647 11.3799 53.6934 11.3537 53.7414L11.2312 53.9946V54.0579L11.3664 54.0326C11.3664 54.0326 11.2566 54.2731 11.2312 54.3237C11.2059 54.3743 11.0961 54.4355 11.0834 54.5347C11.0671 54.6117 11.0331 54.6839 10.9842 54.7456C10.9589 54.7836 10.8491 54.9102 10.8491 54.9102V54.9735C10.8491 54.9735 10.9969 54.9482 11.0328 54.9482C11.0687 54.9482 11.1806 54.8722 11.1679 54.9102C11.1552 54.9482 10.9715 55.2393 10.9715 55.2393L10.7372 55.5557H11.6662C11.6757 55.6982 11.6593 55.8411 11.6176 55.9777C11.5802 56.0914 11.5284 56.1998 11.4635 56.3004H12.1665C12.1017 56.1998 12.0499 56.0913 12.0124 55.9777C11.9708 55.8411 11.9543 55.6982 11.9638 55.5557L12.8295 55.5431Z" fill="#009345"/>
<path d="M0.0205092 55.5431L-0.0660543 55.3321H0.0817385L-0.152618 54.8258L-0.348966 54.3448L-0.0913887 54.484L-0.165285 54.1423L-0.281403 53.9313L-0.336299 53.6782L-0.384861 53.425V53.2984H-0.323632L-0.372194 53.0875L-0.471424 52.8765L-0.581209 52.6486L-0.703661 52.4208L-0.790224 52.2098C-0.850035 52.3664 -0.920578 52.5187 -1.00135 52.6655C-1.06997 52.7577 -1.13138 52.855 -1.18503 52.9567L-1.36872 53.2604V53.3237L-1.29483 53.2984L-1.36872 53.6022C-1.40016 53.647 -1.42906 53.6934 -1.45528 53.7414L-1.57774 53.9946V54.0579L-1.44261 54.0326C-1.44261 54.0326 -1.5524 54.2731 -1.57774 54.3237C-1.60307 54.3743 -1.71286 54.4355 -1.72552 54.5347C-1.74188 54.6117 -1.77584 54.6839 -1.82475 54.7456C-1.85009 54.7836 -1.95988 54.9102 -1.95988 54.9102V54.9735C-1.95988 54.9735 -1.81209 54.9482 -1.7762 54.9482C-1.74031 54.9482 -1.62841 54.8722 -1.64107 54.9102C-1.65374 54.9482 -1.83743 55.2393 -1.83743 55.2393L-2.07178 55.5557H-1.14281C-1.13326 55.6982 -1.14971 55.8411 -1.19137 55.9777C-1.22882 56.0914 -1.28061 56.1998 -1.34549 56.3004H-0.646658C-0.711523 56.1998 -0.763315 56.0913 -0.800785 55.9777C-0.842438 55.8411 -0.858888 55.6982 -0.84934 55.5557L0.0205092 55.5431Z" fill="#009345"/>
<path d="M32.7715 55.5325L32.8581 55.3215H32.7124L32.9489 54.8068L33.1494 54.3173L32.8876 54.4587L32.9615 54.1106L33.0798 53.8996L33.1368 53.6423L33.1874 53.3849V53.2562H33.1241L33.1748 53.0452L33.274 52.8343L33.3859 52.6022L33.5105 52.3701L33.597 52.1592C33.6567 52.3178 33.7273 52.4722 33.8082 52.6212C33.8783 52.7147 33.9411 52.8134 33.9961 52.9165L34.184 53.2245V53.2878L34.1101 53.2625L34.184 53.5705C34.2154 53.616 34.2444 53.6632 34.2705 53.7119L34.3951 53.9692V54.0325L34.2579 54.0072C34.2579 54.0072 34.3698 54.2519 34.3951 54.3026C34.4204 54.3532 34.5323 54.4165 34.545 54.5135C34.5616 54.5905 34.5955 54.6626 34.6442 54.7245C34.6696 54.7625 34.7815 54.8912 34.7815 54.8912V54.9544C34.7815 54.9544 34.6316 54.9291 34.5936 54.9291C34.5556 54.9291 34.4437 54.8511 34.4563 54.8912C34.469 54.9312 34.6569 55.2266 34.6569 55.2266L34.8934 55.5473H33.9517C33.9432 55.6898 33.9604 55.8327 34.0024 55.9692C34.0404 56.0844 34.0929 56.1942 34.1586 56.2962H33.4471C33.5128 56.1942 33.5653 56.0844 33.6034 55.9692C33.6454 55.8327 33.6625 55.6898 33.654 55.5473L32.7715 55.5325Z" fill="#009345"/>
<path d="M31.4067 55.5325L31.3201 55.3215H31.47L31.2336 54.8131L31.033 54.3237L31.2948 54.465L31.2209 54.1169L31.1027 53.906L31.0457 53.6486L30.995 53.3912V53.2625H31.0583L31.0077 53.0516L30.9084 52.8406L30.7965 52.6085L30.672 52.3765L30.5854 52.1655C30.5257 52.3242 30.4552 52.4786 30.3743 52.6275C30.3041 52.721 30.2413 52.8197 30.1864 52.9229L29.9985 53.2309V53.2942L30.0724 53.2689L29.9985 53.5769C29.967 53.6223 29.9381 53.6695 29.9119 53.7182L29.7873 53.9756V54.0389L29.9246 54.0136C29.9246 54.0136 29.8127 54.2583 29.7873 54.3089C29.762 54.3596 29.6501 54.4228 29.6374 54.5199C29.6209 54.5968 29.5869 54.669 29.5382 54.7308C29.5129 54.7688 29.401 54.8975 29.401 54.8975V54.9608C29.401 54.9608 29.5509 54.9355 29.5889 54.9355C29.6269 54.9355 29.7388 54.8574 29.7261 54.8975C29.7134 54.9376 29.5255 55.2329 29.5255 55.2329L29.2891 55.5536H30.2307C30.2392 55.6961 30.222 55.8391 30.18 55.9755C30.142 56.0907 30.0895 56.2006 30.0238 56.3025H30.7353C30.6696 56.2006 30.6171 56.0907 30.5791 55.9755C30.5371 55.8391 30.5199 55.6961 30.5284 55.5536L31.4067 55.5325Z" fill="#009345"/>
<path d="M42.1 55.6822L42.1697 55.5155H42.0493L42.2393 55.0936L42.3998 54.7012L42.1887 54.8151L42.2499 54.5366L42.3449 54.3615L42.3892 54.1506L42.4294 53.9396V53.8362H42.3787L42.4188 53.6611L42.499 53.486L42.5898 53.3004L42.6912 53.1147L42.7608 52.9502C42.8091 53.0785 42.8663 53.2032 42.9318 53.3236C42.9879 53.3991 43.038 53.4788 43.0817 53.562L43.2316 53.8109V53.8637L43.1704 53.8426L43.2316 54.0915C43.257 54.1282 43.2802 54.1662 43.3013 54.2054L43.4027 54.4164V54.4691L43.2929 54.448L43.4027 54.6864C43.4238 54.7286 43.5124 54.7793 43.523 54.851C43.5371 54.9118 43.5645 54.9687 43.6032 55.0176C43.6243 55.0493 43.713 55.1527 43.713 55.1527V55.2054C43.713 55.2054 43.5927 55.1843 43.5631 55.1843C43.5336 55.1843 43.4428 55.1231 43.4533 55.1527C43.4639 55.1822 43.6138 55.4227 43.6138 55.4227L43.8038 55.6822H43.0564C43.0485 55.799 43.0621 55.9162 43.0965 56.0282C43.1267 56.121 43.1686 56.2096 43.2211 56.2919H42.6341C42.6867 56.2096 42.7285 56.121 42.7587 56.0282C42.7931 55.9162 42.8067 55.799 42.7988 55.6822H42.1Z" fill="#009345"/>
<path d="M38.8072 54.7624L38.8958 54.6084H38.7544L38.8958 54.3067L38.9761 54.1295L39.0584 53.8025L39.0732 53.7434L38.974 53.8025L39.0732 53.5599L39.1957 53.2877L39.2484 53.1358L39.3624 52.8321L39.4617 52.6211L39.6454 53.1253H39.5989C39.6002 53.1919 39.6161 53.2574 39.6454 53.3173C39.6707 53.3626 39.6885 53.4118 39.6981 53.4628C39.7129 53.5008 39.7446 53.659 39.7446 53.659H39.6749L39.7826 53.9312C39.7966 53.9729 39.8173 54.0121 39.8438 54.0472C39.891 54.1247 39.9319 54.2058 39.9663 54.2898H39.8375L39.9663 54.543V54.7181L40.0739 54.9797L39.9747 54.9987L40.0739 55.2096L40.1204 55.3552C40.147 55.3832 40.1678 55.4162 40.1816 55.4522C40.1858 55.5225 40.1858 55.5929 40.1816 55.6632L40.0908 55.7412H39.5567C39.5577 55.8681 39.5654 55.9949 39.5799 56.121C39.586 56.1794 39.6016 56.2364 39.6264 56.2898H39.3139C39.3386 56.2364 39.3543 56.1794 39.3603 56.121C39.3748 55.9949 39.3825 55.8681 39.3835 55.7412H38.9001L38.7544 55.6737V55.6062L38.8072 55.3636L38.8452 55.1421L38.7544 55.2286V55.1421L38.8008 54.8721L38.8072 54.7624Z" fill="#009345"/>
<path d="M28.3807 54.7624L28.2921 54.6084H28.4335L28.2921 54.3067L28.2118 54.1295L28.1295 53.8025L28.1147 53.7434L28.214 53.8025L28.1147 53.5599L27.9923 53.2877L27.9395 53.1358L27.8255 52.8321L27.7262 52.6211L27.5426 53.1253H27.589C27.5877 53.1919 27.5718 53.2574 27.5426 53.3173C27.5172 53.3626 27.4994 53.4118 27.4898 53.4628C27.475 53.5008 27.4433 53.659 27.4433 53.659H27.513L27.4053 53.9312C27.3913 53.9729 27.3706 54.0121 27.3441 54.0472C27.2969 54.1247 27.256 54.2058 27.2216 54.2898H27.3504L27.2237 54.5514V54.7265L27.1161 54.9881L27.2153 55.0071L27.1161 55.2181L27.0696 55.3636C27.043 55.3916 27.0222 55.4246 27.0084 55.4607C27.0042 55.5309 27.0042 55.6014 27.0084 55.6716L27.0992 55.7497H27.6333C27.6323 55.8766 27.6246 56.0033 27.6101 56.1294C27.6041 56.1879 27.5884 56.2449 27.5637 56.2982H27.8762C27.8514 56.2449 27.8357 56.1879 27.8297 56.1294C27.8152 56.0033 27.8075 55.8766 27.8065 55.7497H28.2794L28.4251 55.6822V55.6062L28.3723 55.3636L28.3343 55.1421L28.4251 55.2286V55.1421L28.3786 54.8721L28.3807 54.7624Z" fill="#009345"/>
<path d="M9.34495 54.7624L9.25628 54.6084H9.39773L9.25628 54.3067L9.17604 54.1295L9.0937 53.8025L9.07892 53.7434L9.17816 53.8025L9.07892 53.5599L8.95646 53.2877L8.90368 53.1358L8.78967 52.8321L8.69043 52.6211L8.50675 53.1253H8.55321C8.55189 53.1919 8.53603 53.2574 8.50675 53.3173C8.48144 53.3626 8.46362 53.4118 8.45397 53.4628C8.43919 53.5008 8.40753 53.659 8.40753 53.659H8.4772L8.36952 53.9312C8.35552 53.9729 8.33484 54.0121 8.30829 54.0472C8.26112 54.1247 8.22018 54.2058 8.18584 54.2898H8.31463L8.18584 54.543V54.7181L8.07816 54.9797L8.17739 54.9987L8.07816 55.2096L8.03171 55.3552C8.0051 55.3832 7.9843 55.4162 7.97048 55.4522C7.9663 55.5225 7.9663 55.5929 7.97048 55.6632L8.06127 55.7412H8.59543C8.59442 55.8681 8.58666 55.9949 8.5722 56.121C8.56616 56.1794 8.55047 56.2364 8.52576 56.2898H8.83823C8.81352 56.2364 8.79783 56.1794 8.79179 56.121C8.77733 55.9949 8.76958 55.8681 8.76856 55.7412H9.25205L9.39773 55.6737V55.6062L9.34495 55.3636L9.30694 55.1421L9.39773 55.2286V55.1421L9.35127 54.8721L9.34495 54.7624Z" fill="#009345"/>
<path d="M47.7016 55.0453L47.7734 54.9208H47.6573L47.7734 54.674L47.8389 54.5306L47.9064 54.2647L47.9191 54.2162L47.8389 54.2647L47.9191 54.0664L48.0183 53.8449L48.0627 53.7205L48.1556 53.4736L48.2358 53.3091L48.3857 53.731H48.3477C48.3489 53.7852 48.3618 53.8385 48.3857 53.8871C48.4068 53.9239 48.4217 53.9638 48.43 54.0053C48.4427 54.0369 48.468 54.1656 48.468 54.1656H48.411L48.4976 54.3871C48.5092 54.4213 48.5263 54.4533 48.5483 54.482C48.5865 54.5454 48.6197 54.6117 48.6475 54.6803H48.5462L48.6517 54.8913V55.0348L48.7383 55.2457L48.6581 55.2626L48.7383 55.4293L48.7763 55.5474C48.7984 55.5705 48.8156 55.5977 48.827 55.6276C48.8302 55.6831 48.8302 55.7387 48.827 55.7942L48.7531 55.8575H48.3181C48.3189 55.9612 48.3253 56.0647 48.3371 56.1676C48.3422 56.2151 48.355 56.2615 48.3751 56.3048H48.1197C48.1398 56.2615 48.1526 56.2151 48.1577 56.1676C48.1695 56.0647 48.1759 55.9612 48.1767 55.8575H47.7819L47.6636 55.8027V55.7478L47.708 55.5495L47.7396 55.3681L47.6657 55.4377V55.3681L47.7037 55.1571L47.7016 55.0453Z" fill="#009345"/>
<path d="M1.64679 54.5242L1.74814 54.347H1.58557L1.74814 53.9968L1.84103 53.7858L1.93815 53.4082L1.95505 53.3386L1.84103 53.4061L1.95505 53.1255L2.0965 52.8112L2.15773 52.634L2.29073 52.2817L2.40475 52.0475L2.61588 52.6319H2.5631C2.56441 52.7086 2.58242 52.7842 2.61588 52.8534C2.64525 52.906 2.66592 52.963 2.6771 53.0221C2.69399 53.0664 2.72988 53.2479 2.72988 53.2479H2.64965L2.77423 53.5643C2.79066 53.6129 2.8149 53.6585 2.846 53.6993C2.90048 53.789 2.94779 53.8828 2.98747 53.9799H2.83756L2.98747 54.271V54.482L3.11203 54.7858L2.99802 54.809L3.11203 55.0453L3.16481 55.2141C3.19511 55.2464 3.21878 55.2844 3.23448 55.3259C3.23902 55.4046 3.23902 55.4834 3.23448 55.5621L3.12892 55.6529H2.52087C2.52224 55.7995 2.5314 55.946 2.54832 56.0917C2.55515 56.1588 2.57298 56.2244 2.6011 56.2857H2.24006C2.26818 56.2244 2.28601 56.1588 2.29285 56.0917C2.30977 55.946 2.31893 55.7995 2.32029 55.6529H1.76081L1.5919 55.5748V55.4967L1.65313 55.2162L1.69747 54.9588L1.5919 55.0579V54.9588L1.64469 54.6466L1.64679 54.5242Z" fill="#009345"/>
<path d="M22.3455 55.6339H23.1731L23.0549 55.155L22.9556 55.0348L22.8374 54.6529L22.9556 54.7458L22.8923 54.5496C22.829 54.3534 22.8205 54.3871 22.8205 54.3871L22.7762 54.2605L22.6601 54.0074H22.7762L22.5777 53.6614C22.5777 53.6614 22.4152 53.0623 22.3983 53.0285C22.3814 52.9948 22.3434 52.48 22.3434 52.48L22.2167 52.1045L22.1175 52.48L22.0731 52.7859L21.9929 53.0391L21.9443 53.2859L21.8366 53.672L21.9443 53.5918L21.881 53.7416L21.7057 54.2373L21.6572 54.3745L21.4672 54.8491L21.5115 54.9061H21.6107V54.9989L21.539 55.2099L21.4756 55.4736L21.5748 55.3576V55.4736L21.4756 55.6128H22.1428C22.1588 55.8356 22.1337 56.0594 22.0689 56.2731H22.4363C22.3683 56.0671 22.3375 55.8507 22.3455 55.6339Z" fill="#009345"/>
<path d="M152 56.2729H-106C-106 64.3128 -90.8409 71.572 -66.4787 76.7364C-70.7942 79.1478 -73.1631 81.7658 -73.1631 84.5083C-73.1631 91.1368 -59.3404 97.0523 -37.6933 100.936C-40.8941 102.639 -42.6633 104.506 -42.6633 106.463C-42.6633 111.526 -30.8401 115.986 -12.9405 118.571C-15.586 119.75 -17.0766 121.077 -17.0766 122.48C-17.0766 127.357 0.869423 131.309 23.0106 131.309C45.1517 131.309 63.0871 127.364 63.0871 122.482C63.0871 121.079 61.5966 119.752 58.9511 118.573C76.8485 115.988 88.6739 111.533 88.6739 106.465C88.6739 104.508 86.9046 102.641 83.7039 100.938C105.343 97.0544 119.174 91.1368 119.174 84.5105C119.174 81.7679 116.803 79.1435 112.489 76.7364C136.841 71.572 152 64.3128 152 56.2729Z" fill="#86D0D0"/>
<path d="M65.3967 61.5871C75.0938 59.526 56.9515 57.6083 38.0385 56.2729H-99.7614C-81.7014 56.2729 -28.5939 56.6506 3.9918 60.9142C10.3257 61.8698 16.7588 62.9753 23.2405 64.2537C90.4767 77.5212 4.82787 78.7807 48.5929 88.5145C63.3951 91.8077 54.591 95.5713 36.4593 99.1113C60.528 95.9257 73.0649 88.8605 52.1462 85.694C32.9334 82.7869 60.4816 76.612 70.5735 74.5635C73.3626 73.4813 77.45 72.4855 82.4221 71.61C83.4904 71.1881 85.3779 70.6944 88.1986 70.1164C91.3423 69.4835 94.2116 68.8316 96.8549 68.1924C98.8818 63.6229 49.9378 64.8739 65.3967 61.5871Z" fill="#67C9BD"/>
<path d="M1.71029 112.102C1.71029 112.102 10.7065 110.93 23.4376 109.065C61.6203 103.472 133.396 91.6517 96.7881 86.5611C85.0726 84.9304 77.2017 83.3038 72.4238 81.7237C61.6013 78.1373 66.6769 74.7999 79.0575 72.243C94.3137 67.779 77.1573 66.3698 69.8713 65.7896C62.5852 65.2095 42.7412 65.2095 53.1921 62.3762C61.3269 60.1695 28.0402 57.3954 12.8875 56.2751H2.78705C30.445 58.0304 58.1874 60.4818 47.6562 62.8298C28.2155 67.1651 92.9646 66.1883 74.0284 70.6355C55.0922 75.0826 41.1028 79.7069 79.2391 86.1476C117.375 92.5883 31.9334 103.284 15.9615 106.474C2.26555 109.217 -36.5126 110.014 -14.7113 115.872C-10.4634 113.387 1.71029 112.102 1.71029 112.102Z" fill="#9AD8D6"/>
<path d="M95.6281 62.8277C87.2336 64.6989 94.5366 65.5808 104.021 66.336C105.334 65.976 106.592 65.6194 107.796 65.2664C100.604 64.8888 94.2558 64.2559 101.17 62.3762C109.305 60.1695 76.0184 57.3954 60.8657 56.2751H50.7653C78.4169 58.0283 106.166 60.4797 95.6281 62.8277Z" fill="#9AD8D6"/>
<path d="M106.853 61.8994C114.815 59.3889 87.9951 57.294 71.3623 56.2729H60.8629C76.0156 57.3953 109.304 60.1695 101.167 62.374C94.253 64.2495 100.6 64.8824 107.797 65.2663C109.435 64.7874 110.985 64.317 112.465 63.8592C106.292 64.1145 100.238 63.9879 106.853 61.8994Z" fill="#67C9BD"/>
<path d="M-66.4787 76.7406C-70.7942 79.1477 -73.1631 81.7658 -73.1631 84.5083C-73.1631 91.1368 -59.3404 97.0522 -37.6933 100.936C-40.8941 102.639 -42.6633 104.506 -42.6633 106.463C-42.6633 107.455 -42.2073 108.423 -41.3438 109.36C3.20451 104.835 80.4145 95.5839 48.5973 88.5061C4.82809 78.7785 90.4769 77.5212 23.2407 64.2558C16.759 62.9773 10.3259 61.8698 3.99201 60.9162C-35.732 55.716 -105.951 56.2919 -106 56.2919C-105.975 64.3233 -90.8219 71.5762 -66.4787 76.7406Z" fill="#049E45"/>
<path d="M48.5937 88.5167C25.6609 83.4156 38.2632 80.6414 45.7815 77.247C30.3902 74.1248 -18.6911 72.4371 -5.45748 67.8655C10.3329 62.4099 -77.953 61.9353 -103.466 61.8994C-98.2024 67.6714 -85.0026 72.8084 -66.4781 76.7386C-70.7936 79.1478 -73.1624 81.7659 -73.1624 84.5084C-73.1624 91.1369 -59.3398 97.0523 -37.6927 100.936C-40.8934 102.639 -42.6627 104.506 -42.6627 106.463C-42.6627 107.455 -42.2066 108.423 -41.3431 109.36C3.1946 104.843 80.4046 95.5903 48.5937 88.5167Z" fill="#009345"/>
<path d="M10.3068 83.3039C40.4729 75.4982 -66.4789 76.7408 -66.4789 76.7408C-70.7943 79.1479 -73.1632 81.766 -73.1632 84.5085C-73.1632 91.137 -59.3406 97.0524 -37.6935 100.936C-40.8942 102.639 -42.6635 104.506 -42.6635 106.463C-42.6635 107.455 -42.2074 108.423 -41.3439 109.36C3.20437 104.835 80.4144 95.5841 48.5972 88.5063C46.621 88.0674 44.9087 87.6434 43.433 87.2405C19.9153 88.0548 -8.88067 88.2636 10.3068 83.3039Z" fill="#038739"/>
<path d="M14.2857 89.2805H13.8952L13.4729 89.0886V88.8966L13.6249 88.2067L13.7326 87.5738L13.4729 87.8186V87.5738L13.6038 86.8059L13.6249 86.4958L13.8741 86.0612H13.4729L13.8741 85.2026L14.1042 84.7005L14.3406 83.7744L14.385 83.6035L14.1063 83.7681L14.385 83.0803L14.7312 82.3082L14.8832 81.8736L15.2084 81.0129L15.4892 80.4412L16.0086 81.8736H15.8777C15.8811 82.0624 15.9258 82.2481 16.0086 82.4179C16.0821 82.5492 16.1335 82.6918 16.1606 82.8398C16.2049 82.9495 16.2915 83.3947 16.2915 83.3947L16.0972 83.4158L16.4013 84.19C16.4406 84.309 16.4991 84.4209 16.5744 84.5212C16.7078 84.741 16.8236 84.9709 16.9206 85.2089H16.5512L16.9206 85.9262V86.4072L17.2247 87.1519L16.9439 87.2068L17.2247 87.7848L17.3556 88.2067C17.4307 88.2867 17.4895 88.3806 17.5287 88.4831C17.5397 88.6756 17.5397 88.8686 17.5287 89.0611L17.269 89.2721H14.2857V89.2805Z" fill="#006838"/>
<path d="M15.2054 90.3562C15.2463 89.999 15.2681 89.6398 15.2709 89.2803H15.7628C15.7655 89.6398 15.7874 89.999 15.8282 90.3562C15.8454 90.5212 15.8896 90.6823 15.9591 90.833H15.0724C15.1426 90.6824 15.1876 90.5213 15.2054 90.3562Z" fill="#6D574E"/>
<path d="M41.7917 90.947L42.0408 90.3605H41.6185L42.2941 88.8838L42.8642 87.4893L42.1168 87.8922L42.3279 86.9007L42.6657 86.2678L42.8262 85.5336L42.9677 84.7995V84.4324H42.7903L42.9318 83.7995L43.2168 83.1666L43.5377 82.5063L43.8945 81.846L44.1436 81.2595C44.1436 81.2595 44.6419 82.5063 44.7496 82.5802C44.9491 82.8473 45.1277 83.1294 45.2837 83.424L45.8179 84.3037V84.4873L45.6068 84.4134L45.8179 85.2932C45.9084 85.4227 45.9916 85.5573 46.067 85.6961L46.4238 86.4302V86.6138L46.0311 86.54C46.0311 86.54 46.3521 87.2361 46.4238 87.3838C46.4956 87.5315 46.8144 87.7108 46.8461 87.9682C46.8959 88.1832 46.9933 88.3843 47.1311 88.5568C47.2029 88.6665 47.5238 89.0335 47.5238 89.0335V89.2171C47.5238 89.2171 47.1016 89.1432 46.9897 89.1432C46.8778 89.1432 46.5674 88.9323 46.597 89.0335C46.6265 89.1348 47.167 89.9871 47.167 89.9871L47.8426 90.9048L41.7917 90.947Z" fill="#006838"/>
<path d="M45.3047 92.1749C45.182 91.7771 45.1334 91.3602 45.1612 90.9449H44.304C44.3318 91.3602 44.2831 91.7771 44.1604 92.1749C44.053 92.5046 43.904 92.8194 43.717 93.1115H45.7481C45.5611 92.8194 45.4121 92.5046 45.3047 92.1749Z" fill="#6D574E"/>
<path d="M5.60041 97.126L5.8981 96.4277H5.38928L6.19368 94.681L6.8714 93.0207L5.98044 93.5017L6.2338 92.3224L6.63705 91.5798L6.82707 90.7064L6.99597 89.833V89.3963H6.78484L6.95375 88.6537L7.29366 87.9111L7.6758 87.1242L8.09806 86.3373L8.39576 85.639C8.39576 85.639 8.98903 87.1158 9.11571 87.2107C9.24239 87.3057 9.7491 88.2149 9.7491 88.2149L10.3825 89.2697V89.4807L10.1291 89.3942L10.3825 90.449C10.4906 90.6037 10.59 90.7643 10.6802 90.93L11.1024 91.8034V92.0144L10.6358 91.9279C10.6358 91.9279 11.018 92.757 11.1024 92.9321C11.1869 93.1072 11.5669 93.3202 11.6113 93.6282C11.6707 93.8842 11.7868 94.1235 11.9512 94.3286C12.0356 94.4594 12.4178 94.8961 12.4178 94.8961V95.1071C12.4178 95.1071 11.909 95.0206 11.7844 95.0206C11.6598 95.0206 11.2756 94.759 11.3178 94.8898C11.36 95.0206 11.9955 96.0248 11.9955 96.0248L12.7999 97.1176L5.60041 97.126Z" fill="#006838"/>
<path d="M34.1343 92.9595H34.6854L35.266 92.6874V92.4152L35.0549 91.4427L34.9029 90.5503L35.2702 90.8963V90.5503L35.0865 89.4681L35.057 89.0314L34.7044 88.4153H35.2702L34.7044 87.2023L34.3793 86.4935L34.0457 85.1855L33.9845 84.945L34.3793 85.1792L33.9781 84.2045L33.4883 83.1159L33.2772 82.5041L32.819 81.2869L32.4221 80.4789L31.6874 82.502H31.8668C31.8621 82.7683 31.7995 83.0303 31.6831 83.2699C31.5817 83.4521 31.5104 83.6494 31.472 83.8543C31.4108 84.0104 31.2883 84.6391 31.2883 84.6391L31.5628 84.6686L31.1405 85.7614C31.0847 85.929 31.002 86.0865 30.8956 86.2276C30.7069 86.5384 30.5431 86.8636 30.4058 87.2002H30.9252L30.4058 88.2128V88.9132L29.9836 89.968L30.3805 90.0461L29.9667 90.8583L29.783 91.4427C29.6767 91.5548 29.5934 91.6867 29.5381 91.8308C29.5225 92.1028 29.5225 92.3754 29.5381 92.6473L29.9054 92.9595H34.128H34.1343Z" fill="#006838"/>
<path d="M32.8375 94.4806C32.7795 93.9756 32.7485 93.4679 32.7446 92.9596H32.0499C32.046 93.4679 32.015 93.9756 31.957 94.4806C31.9324 94.7136 31.8697 94.941 31.7712 95.1536H33.0233C32.9248 94.941 32.8621 94.7136 32.8375 94.4806Z" fill="#6D574E"/>
<path d="M18.8241 95.0376L19.1704 94.5524V94.1473L18.8241 94.5524L19.0352 93.6263L19.2886 92.8562L19.3203 92.5335H18.9888L18.8304 92.3225L19.4934 90.6601L19.6665 90.1791L20.2809 88.4408L20.492 87.9155L20.1141 88.1981L20.492 86.8438L20.682 85.9345L20.9671 85.0463L21.1254 83.9725L21.4717 82.6561L21.9129 83.9725C21.9129 83.9725 22.0396 85.7742 22.1029 85.8944C22.1663 86.0147 22.7363 88.1159 22.7363 88.1159L23.4225 89.3395H23.0213L23.4309 90.2276L23.5893 90.6664C23.5893 90.6664 23.621 90.5504 23.8426 91.236L24.0538 91.9238L23.6421 91.601L24.0538 92.9343L24.4 93.3562L24.8096 95.0334L18.8241 95.0376Z" fill="#006838"/>
<path d="M21.9227 95.0376H21.1584C21.1584 95.0376 21.2386 96.7253 20.8966 97.3455H22.1845C21.8425 96.7443 21.9227 95.0376 21.9227 95.0376Z" fill="#6D574E"/>
<path d="M0.233154 89.772L0.51818 89.3733V89.0421L0.233154 89.3733L0.414722 88.6117L0.625851 87.9788L0.651192 87.713H0.366166L0.237375 87.5463L0.782091 86.1814L0.925657 85.7869L1.43025 84.3587L1.61183 83.9368L1.30147 84.1688L1.61183 83.057L1.76806 82.3102L2.00241 81.5803L2.13121 80.6985L2.41623 79.6162L2.77936 80.6985C2.77936 80.6985 2.88282 82.1752 2.93561 82.2786C2.98839 82.3819 3.45498 84.1034 3.45498 84.1034L4.02503 85.0992H3.68723L4.02503 85.8291L4.15381 86.1898C4.15381 86.1898 4.17915 86.0949 4.36494 86.6582L4.54652 87.2215L4.20871 86.9556L4.54652 88.0505L4.83154 88.3986L5.16934 89.7762L0.233154 89.772Z" fill="#006838"/>
<path d="M2.77797 89.7717H2.14459C2.14459 89.7717 2.21005 91.1662 1.93347 91.6704H2.9891C2.71252 91.1662 2.77797 89.7717 2.77797 89.7717Z" fill="#6D574E"/>
<path d="M0.540417 98.854L0.194168 98.3688V97.9637L0.540417 98.3688L0.329288 97.4426L0.0759363 96.6726L0.0442615 96.3499H0.390517L0.548863 96.1389L-0.114085 94.4765L-0.287206 93.9955L-0.901593 92.2572L-1.11272 91.7319L-0.734806 92.0145L-1.11272 90.6602L-1.30274 89.7509L-1.58776 88.8628L-1.74611 87.7889L-2.09236 86.4725L-2.54629 87.8016C-2.54629 87.8016 -2.67297 89.6032 -2.73631 89.7235C-2.79964 89.8437 -3.36969 91.9449 -3.36969 91.9449L-4.06853 93.158H-3.65894L-4.06853 94.0461L-4.23532 94.487C-4.23532 94.487 -4.267 94.371 -4.48868 95.0567L-4.69981 95.7444L-4.28811 95.4216L-4.69981 96.7444L-5.04606 97.1663L-5.45776 98.854H0.540417Z" fill="#006838"/>
<path d="M4.20962 64.9584L4.27296 64.7727H4.16528L4.3363 64.3086L4.47988 63.8677L4.29197 63.9964L4.34475 63.6821L4.42919 63.4838L4.46931 63.2517L4.50521 63.0196V62.9036H4.46087L4.49676 62.7053L4.56855 62.507L4.64878 62.296L4.73745 62.0851L4.80078 61.8994C4.84309 62.0429 4.89386 62.1838 4.9528 62.3213C5.00394 62.4074 5.04907 62.497 5.08791 62.5893L5.22304 62.8677V62.9268L5.17026 62.9036L5.22304 63.1821C5.22304 63.1821 5.26737 63.2644 5.28637 63.3108L5.37506 63.5428V63.6019L5.27582 63.5787L5.37506 63.8466C5.39195 63.893 5.47429 63.95 5.48273 64.0323C5.4945 64.0982 5.51887 64.1612 5.55451 64.2179C5.5714 64.2538 5.65375 64.3698 5.65375 64.3698V64.4289C5.60914 64.4188 5.56403 64.4111 5.51862 64.4057C5.49118 64.4057 5.41094 64.336 5.41939 64.3698C5.42783 64.4036 5.56295 64.6715 5.56295 64.6715L5.73396 64.9626L4.20962 64.9584Z" fill="#006838"/>
<path d="M5.08671 65.3465C5.05592 65.2196 5.04382 65.0888 5.05081 64.9584H4.83968C4.84666 65.0888 4.83457 65.2196 4.80379 65.3465C4.77737 65.4488 4.73985 65.5478 4.69189 65.6419H5.20283C5.15342 65.548 5.11448 65.4489 5.08671 65.3465Z" fill="#6D574E"/>
<path d="M33.2496 71.9032L33.3256 71.6796H33.1968L33.4079 71.1205L33.581 70.5889L33.3551 70.7429L33.4206 70.3653L33.524 70.1269L33.5726 69.8463L33.6148 69.5657V69.4265H33.5557L33.5979 69.1881L33.6845 68.9497L33.7816 68.6987L33.8893 68.4476L33.9653 68.224C34.0166 68.3955 34.078 68.5639 34.149 68.7282C34.2104 68.8313 34.2648 68.9384 34.3116 69.0489L34.4741 69.3843V69.4539L34.4087 69.4265L34.4741 69.7619C34.4741 69.7619 34.529 69.859 34.5501 69.9159L34.6578 70.1965V70.2661L34.5396 70.2387C34.5396 70.2387 34.6367 70.5045 34.6578 70.5594C34.6789 70.6142 34.776 70.6838 34.7866 70.783C34.8009 70.8624 34.8303 70.9383 34.8732 71.0066C34.8943 71.0488 34.9914 71.188 34.9914 71.188V71.2577C34.9377 71.2457 34.8835 71.2366 34.8288 71.2302C34.7972 71.2302 34.7 71.1458 34.7106 71.188C34.7211 71.2302 34.8837 71.5509 34.8837 71.5509L35.0948 71.9011L33.2496 71.9032Z" fill="#006838"/>
<path d="M34.3143 72.3717C34.2767 72.2185 34.2618 72.0608 34.2699 71.9033H34.0102C34.0184 72.0608 34.0034 72.2185 33.9659 72.3717C33.934 72.4951 33.8887 72.6146 33.8307 72.7282H34.4473C34.39 72.6145 34.3454 72.495 34.3143 72.3717Z" fill="#6D574E"/>
<path d="M15.576 67.452L15.5 67.2284H15.6288L15.4176 66.6694L15.2445 66.1377L15.4704 66.2917L15.405 65.9141L15.3015 65.6757L15.253 65.3951L15.2107 65.1146V64.9753H15.2656L15.2234 64.7369L15.1368 64.4985L15.0397 64.2475L14.932 63.9964L14.856 63.7728C14.8047 63.9443 14.7434 64.1127 14.6724 64.277C14.6109 64.3801 14.5566 64.4872 14.5098 64.5977L14.3472 64.9331V65.0027L14.4127 64.9753L14.3472 65.3108C14.3472 65.3108 14.2923 65.4078 14.2712 65.4648L14.1635 65.7453V65.815L14.2818 65.7875C14.2818 65.7875 14.1847 66.0533 14.1635 66.1082C14.1424 66.163 14.0453 66.2327 14.0347 66.3318C14.0204 66.4112 13.991 66.4871 13.9482 66.5554C13.9271 66.5976 13.83 66.7369 13.83 66.7369V66.8065C13.8836 66.7946 13.9379 66.7854 13.9925 66.7791C14.0242 66.7791 14.1213 66.6947 14.1108 66.7369C14.1002 66.7791 13.9376 67.0997 13.9376 67.0997L13.7265 67.4499L15.576 67.452Z" fill="#006838"/>
<path d="M14.5113 67.9202C14.5488 67.7671 14.5638 67.6093 14.5557 67.4519H14.8153C14.8072 67.6093 14.8221 67.7671 14.8597 67.9202C14.8916 68.0437 14.9369 68.1632 14.9948 68.2768H14.3783C14.4355 68.1631 14.4801 68.0436 14.5113 67.9202Z" fill="#6D574E"/>
<path d="M37.4428 76.2258L37.3393 75.9178H37.5188L37.2359 75.1478L36.9973 74.4158L37.3098 74.6267L37.2211 74.1078L37.0797 73.7808L37.0121 73.3947L36.953 73.0087V72.8167H37.0269L36.9678 72.4897L36.8495 72.1627L36.7165 71.8167L36.5687 71.4707L36.4653 71.1627C36.3945 71.3988 36.3099 71.6306 36.2119 71.8568C36.1273 71.9992 36.0525 72.1472 35.9881 72.2998L35.7643 72.7618V72.8589L35.853 72.8209L35.7643 73.2829C35.7643 73.2829 35.6904 73.4179 35.6609 73.4939L35.5131 73.8799V73.977L35.6756 73.939C35.6756 73.939 35.5426 74.304 35.5131 74.382C35.4835 74.4601 35.3505 74.5529 35.3357 74.69C35.3167 74.8001 35.2766 74.9054 35.2175 75.0001C35.1879 75.0571 35.0549 75.2512 35.0549 75.2512V75.3482C35.1288 75.3317 35.2035 75.3191 35.2787 75.3103C35.323 75.3103 35.4582 75.1942 35.4413 75.2533C35.4244 75.3124 35.2027 75.7533 35.2027 75.7533L34.9198 76.2343L37.4428 76.2258Z" fill="#006838"/>
<path d="M35.9775 76.8715C36.0286 76.6604 36.0485 76.4429 36.0366 76.226H36.3956C36.3837 76.4429 36.4036 76.6604 36.4547 76.8715C36.4984 77.0416 36.5607 77.2065 36.6405 77.3631H35.796C35.8742 77.2063 35.9351 77.0415 35.9775 76.8715Z" fill="#6D574E"/>
<path d="M26.9822 74.1542L26.9062 73.9306H27.035L26.8238 73.3715L26.6507 72.8399L26.8766 72.9939L26.8112 72.6163L26.7077 72.3779L26.6592 72.0973L26.6169 71.8167V71.6775H26.6718L26.6296 71.4391L26.543 71.2007L26.4459 70.9496L26.3382 70.6986L26.2622 70.475C26.2109 70.6465 26.1496 70.8148 26.0786 70.9792C26.0171 71.0822 25.9628 71.1894 25.916 71.2999L25.7534 71.6353V71.7049L25.8189 71.6775L25.7534 72.0129C25.7534 72.0129 25.6985 72.1099 25.6774 72.1669L25.5697 72.4475V72.5171L25.688 72.4897C25.688 72.4897 25.5908 72.7555 25.5697 72.8103C25.5486 72.8652 25.4515 72.9348 25.4409 73.034C25.4266 73.1133 25.3972 73.1892 25.3544 73.2576C25.3333 73.2998 25.2362 73.439 25.2362 73.439V73.5086C25.2898 73.4967 25.3441 73.4876 25.3987 73.4812C25.4304 73.4812 25.5275 73.3968 25.5169 73.439C25.5064 73.4812 25.3438 73.8019 25.3438 73.8019L25.1327 74.1521L26.9822 74.1542Z" fill="#006838"/>
<path d="M25.9175 74.6226C25.955 74.4695 25.97 74.3117 25.9618 74.1543H26.2215C26.2134 74.3117 26.2283 74.4695 26.2659 74.6226C26.2977 74.7461 26.3431 74.8656 26.401 74.9792H25.7845C25.8417 74.8655 25.8863 74.746 25.9175 74.6226Z" fill="#6D574E"/>
<path d="M17.8398 68.7325H18.0024L18.1755 68.6523V68.5721L18.1122 68.2852L18.0679 68.0215L18.1755 68.1249V68.0215L18.1206 67.7009V67.5722L18.0172 67.3908H18.184L18.0172 67.0321L17.9201 66.8211L17.8208 66.4351L17.8018 66.3634L17.918 66.433L17.8018 66.1461L17.6562 65.8233L17.5928 65.6419L17.4577 65.2811L17.3395 65.0427L17.1283 65.6419H17.1832C17.1818 65.7209 17.163 65.7987 17.1283 65.8697C17.098 65.9236 17.0766 65.982 17.065 66.0427C17.046 66.0891 17.0101 66.2748 17.0101 66.2748H17.0924L16.9658 66.5975C16.9496 66.6475 16.9253 66.6946 16.894 66.7368C16.8379 66.8284 16.7892 66.9243 16.7483 67.0237H16.9024L16.7483 67.3232V67.5342L16.6216 67.8443L16.7399 67.8675L16.6216 68.1101L16.5667 68.2831C16.5354 68.3167 16.511 68.3561 16.4949 68.3992C16.4903 68.48 16.4903 68.561 16.4949 68.6418L16.6026 68.7346H17.8525L17.8398 68.7325Z" fill="#006838"/>
<path d="M17.4561 69.184C17.439 69.0348 17.4299 68.8848 17.4287 68.7346H17.2175C17.2163 68.8848 17.2072 69.0348 17.1901 69.184C17.1827 69.2526 17.1642 69.3196 17.1352 69.3823H17.511C17.482 69.3196 17.4635 69.2526 17.4561 69.184Z" fill="#6D574E"/>
<path d="M21.3766 68.9119H21.5561L21.744 68.8233V68.7347L21.6743 68.4182L21.6237 68.1292L21.7419 68.241V68.1292L21.6828 67.7769V67.6356L21.5688 67.4351H21.7525L21.5688 67.0406L21.4632 66.8107L21.3555 66.3888L21.3365 66.3107L21.4653 66.3867L21.3365 66.0702L21.1782 65.7158L21.1001 65.5217L20.9502 65.1272L20.8214 64.8656L20.5807 65.5217H20.6398C20.6384 65.608 20.6182 65.6929 20.5807 65.7706C20.5474 65.8298 20.5239 65.8939 20.511 65.9605C20.492 66.0111 20.4519 66.2158 20.4519 66.2158H20.5406L20.4033 66.5765C20.385 66.6312 20.3579 66.6825 20.3231 66.7284C20.262 66.8295 20.2091 66.9354 20.1648 67.0449H20.3337L20.1648 67.374V67.6018L20.0254 67.9436L20.1542 67.9689L20.0254 68.2347L19.9663 68.4246C19.9315 68.461 19.9042 68.5041 19.8861 68.5511C19.881 68.6397 19.881 68.7284 19.8861 68.817L20.0043 68.9182H21.3766V68.9119Z" fill="#006838"/>
<path d="M20.9568 69.4055C20.9382 69.2416 20.9283 69.0768 20.9272 68.9119H20.7013C20.7002 69.0768 20.6904 69.2416 20.6718 69.4055C20.6627 69.4786 20.642 69.5499 20.6105 69.6165H21.018C20.9865 69.5499 20.9659 69.4786 20.9568 69.4055Z" fill="#6D574E"/>
<path d="M25.1576 70.629H25.3687L25.5799 70.5277V70.4265L25.5017 70.0678L25.4447 69.7387L25.5799 69.8674V69.7408L25.5123 69.34L25.5017 69.1776L25.3708 68.9497H25.582L25.3708 68.5025L25.2505 68.2409L25.1281 67.7578L25.1048 67.6692L25.2505 67.7557L25.1048 67.397L24.9211 66.9983L24.843 66.7726L24.6741 66.3232L24.5263 66.0258L24.2561 66.7726H24.3236C24.3219 66.8706 24.2988 66.967 24.2561 67.0553C24.219 67.121 24.1927 67.1922 24.178 67.2662C24.1547 67.3232 24.1104 67.5552 24.1104 67.5552L24.2117 67.5658L24.0534 67.9687C24.0328 68.031 24.0021 68.0894 23.9626 68.1417C23.8927 68.2563 23.832 68.3762 23.781 68.5004H23.9732L23.781 68.8738V69.1333L23.6227 69.5214L23.7705 69.551L23.6227 69.8526L23.5551 70.0636C23.5157 70.105 23.4849 70.1537 23.4643 70.2071C23.4586 70.3075 23.4586 70.4083 23.4643 70.5087L23.5995 70.6227H25.1597L25.1576 70.629Z" fill="#006838"/>
<path d="M24.6898 71.1902C24.6686 71.0039 24.6574 70.8165 24.6561 70.629H24.4006C24.3993 70.8165 24.388 71.0039 24.3668 71.1902C24.3574 71.2764 24.3339 71.3605 24.2971 71.4391H24.7595C24.7228 71.3605 24.6992 71.2764 24.6898 71.1902Z" fill="#6D574E"/>
<path d="M27.3109 71.3864L27.4333 71.2176V71.0805L27.3151 71.2176L27.3911 70.9012L27.4776 70.6375L27.4882 70.5278H27.37L27.3151 70.4582L27.541 69.8907L27.6001 69.7261L27.8112 69.1333L27.8872 68.954L27.7584 69.051L27.8872 68.589L27.9527 68.2789L28.0498 67.9751L28.1047 67.608L28.2229 67.1587L28.3728 67.608C28.3728 67.608 28.415 68.222 28.4383 68.2641C28.4615 68.3063 28.6494 69.0236 28.6494 69.0236L28.8859 69.4455H28.7465L28.8859 69.7493L28.9407 69.8991C28.9407 69.8991 28.9513 69.859 29.0273 70.0932L29.1033 70.3274L28.964 70.2177L29.1033 70.6734L29.2215 70.8189L29.3609 71.3906L27.3109 71.3864Z" fill="#006838"/>
<path d="M28.3717 71.3862H28.1099C28.1099 71.3862 28.1373 71.9664 28.0212 72.1731H28.4603C28.3442 71.9664 28.3717 71.3862 28.3717 71.3862Z" fill="#6D574E"/>
<path d="M30.2513 72.9898L30.3865 72.802V72.6459L30.2513 72.802L30.3379 72.4413L30.435 72.1417L30.4477 72.0151H30.3126L30.2513 71.9371L30.5089 71.2915L30.5765 71.1059L30.8151 70.4308L30.9016 70.2198L30.7538 70.3295L30.9016 69.8042L30.9755 69.4519L31.0853 69.1059L31.1465 68.684L31.2817 68.1735L31.4442 68.6861C31.4442 68.6861 31.4928 69.3865 31.5181 69.4329C31.5435 69.4793 31.763 70.2958 31.763 70.2958L32.0333 70.7662H31.8749L32.0333 71.1122L32.0945 71.2831C32.0945 71.2831 32.1072 71.2388 32.1916 71.5046L32.2782 71.7704L32.1177 71.6438L32.2782 72.1628L32.4133 72.3273L32.5717 72.9792L30.2513 72.9898Z" fill="#006838"/>
<path d="M31.4566 72.9896H31.159C31.159 72.9896 31.1906 73.6499 31.0576 73.8862H31.558C31.425 73.6478 31.4566 72.9896 31.4566 72.9896Z" fill="#6D574E"/>
<path d="M7.29357 66.1377L7.39914 65.99V65.8677L7.29357 65.99L7.36114 65.7095L7.43714 65.4753V65.3761H7.33158L7.28302 65.315L7.49415 64.8108L7.54693 64.6652L7.73484 64.1378L7.8024 63.9774L7.68627 64.0639L7.8024 63.642L7.8594 63.3657L7.94597 63.0956L7.99453 62.7686L8.10009 62.3678L8.23522 62.7686C8.23522 62.7686 8.27322 63.3171 8.29223 63.353C8.31123 63.3889 8.48435 64.0281 8.48435 64.0281L8.69548 64.3973H8.57091L8.69548 64.6673L8.74403 64.8002C8.74403 64.8002 8.74404 64.7643 8.82005 64.9732L8.8876 65.1842L8.76304 65.085L8.8876 65.4901L8.99317 65.6188L9.11774 66.1293L7.29357 66.1377Z" fill="#006838"/>
<path d="M8.23607 66.1377H8.01016C8.0266 66.3748 7.9994 66.6129 7.92993 66.8402H8.32263C8.25102 66.6133 8.22169 66.3752 8.23607 66.1377Z" fill="#6D574E"/>
<path d="M10.5738 66.8295L10.6794 66.6818V66.5595L10.5738 66.6818L10.6414 66.4012L10.7174 66.1671V66.0679H10.6118L10.5633 66.0067L10.7744 65.5025L10.8272 65.357L11.0151 64.8296L11.0827 64.6692L10.9665 64.7557L11.0827 64.3338L11.1397 64.0574L11.2262 63.7874L11.2748 63.4604L11.3804 63.0596L11.5155 63.4604C11.5155 63.4604 11.5535 64.0089 11.5725 64.0448C11.5915 64.0806 11.7646 64.7199 11.7646 64.7199L11.9758 65.089H11.8512L11.9758 65.3591L12.0243 65.492C12.0243 65.492 12.0243 65.4561 12.1003 65.665L12.1679 65.8759L12.0433 65.7768L12.1679 66.1818L12.2734 66.3105L12.398 66.8211L10.5738 66.8295Z" fill="#006838"/>
<path d="M11.5178 66.8296H11.2856C11.302 67.0667 11.2748 67.3048 11.2053 67.5321H11.6001C11.53 67.3049 11.502 67.0668 11.5178 66.8296Z" fill="#6D574E"/>
<path d="M41.9444 74.8821L42.0943 74.6712V74.4961L41.9444 74.6712L42.0394 74.2724L42.1492 73.9391L42.1619 73.7999H42.0014L41.9338 73.7134L42.2189 72.9961L42.2928 72.7851L42.5588 72.0362L42.6538 71.8105L42.4912 71.9329L42.6538 71.3485L42.7361 70.9561L42.8586 70.5721L42.9261 70.108L43.0761 69.5405L43.2661 70.108C43.2661 70.108 43.321 70.8844 43.3484 70.9371C43.3759 70.9898 43.6208 71.8949 43.6208 71.8949L43.9206 72.4181H43.7432L43.9206 72.802L43.9881 72.9919C43.9881 72.9919 44.0008 72.9413 44.0979 73.2387L44.1929 73.5341L44.0156 73.3948L44.1929 73.9708L44.3428 74.1543L44.5202 74.8779L41.9444 74.8821Z" fill="#006838"/>
<path d="M43.2806 74.8821H42.9512C42.9512 74.8821 42.985 75.6141 42.8393 75.8778H43.3946C43.2468 75.6141 43.2806 74.8821 43.2806 74.8821Z" fill="#6D574E"/>
<path d="M38.5289 73.9981L38.6556 73.823V73.6775L38.5289 73.823L38.6091 73.4876L38.6999 73.2091L38.7105 73.091H38.5838L38.5268 73.0172L38.7675 72.4159L38.8308 72.2429L39.0546 71.61L39.1349 71.4202L38.9976 71.5235L39.1349 71.032L39.2045 70.7029L39.308 70.3801L39.365 69.9898L39.4917 69.5131L39.6521 69.9898C39.6521 69.9898 39.6986 70.6417 39.7218 70.686C39.745 70.7303 39.9498 71.4919 39.9498 71.4919L40.2011 71.9307H40.0533L40.2011 72.2535L40.2581 72.4138C40.2581 72.4138 40.2686 72.3716 40.3489 72.6248L40.4291 72.8737L40.2792 72.7556L40.4291 73.2387L40.5537 73.3927L40.7015 74.0003L38.5289 73.9981Z" fill="#006838"/>
<path d="M39.6526 73.9983H39.3761C39.3761 73.9983 39.4056 74.6143 39.2811 74.8421H39.7476C39.6231 74.6143 39.6526 73.9983 39.6526 73.9983Z" fill="#6D574E"/>
<path d="M88.1977 70.1059C66.8736 74.4666 99.5079 74.0594 126.777 73.1523C142.625 68.433 151.997 62.6041 151.997 56.2751C124.02 56.9882 120.275 63.5471 88.1977 70.1059Z" fill="#37B34A"/>
<path d="M96.7863 86.5612C133.398 91.6518 61.5995 103.474 23.421 109.067C17.446 112.55 23.0515 116.193 58.9498 118.577C76.8473 115.993 88.6726 111.537 88.6726 106.47C88.6726 104.512 86.9034 102.645 83.7027 100.943C105.341 97.0588 119.172 91.1412 119.172 84.5149C119.172 81.7723 116.801 79.1479 112.488 76.7408C112.488 76.7408 83.008 78.2176 72.4326 81.7238C77.1999 83.3039 85.0708 84.9305 96.7863 86.5612Z" fill="#009345"/>
<path d="M96.7872 69.5954C73.2378 72.1733 57.2913 76.7133 72.425 81.7216C83.0026 78.2238 112.48 76.7386 112.48 76.7386C126.453 73.7745 137.394 70.1207 144.192 66.028C134.63 66.4161 117.163 67.3634 96.7872 69.5954Z" fill="#049E45"/>
<path d="M90.641 82.6855L90.7804 82.2636H90.5397L90.9197 81.2278L91.2385 80.2447L90.8163 80.5295L90.9366 79.8312L91.1266 79.3903L91.2174 78.8734L91.2976 78.3565V78.0971H91.1942L91.2744 77.6561L91.4349 77.2152L91.6143 76.749L91.8149 76.2828L91.9542 75.8608C92.0492 76.178 92.1627 76.4894 92.2942 76.7933C92.4076 76.9845 92.5077 77.1833 92.594 77.3882L92.8938 78.0085V78.1371L92.7734 78.0844L92.8938 78.7046C92.8938 78.7046 92.993 78.8861 93.0331 78.9894L93.2337 79.5063V79.6561L93.0226 79.6033C93.0226 79.6033 93.202 80.0949 93.2337 80.1983C93.2654 80.3016 93.4448 80.4282 93.4723 80.6202C93.4976 80.77 93.5522 80.9133 93.6327 81.0421C93.6728 81.1202 93.8439 81.3776 93.8439 81.3776V81.5062C93.7449 81.4835 93.6448 81.4659 93.5441 81.4535C93.4849 81.4535 93.3034 81.2974 93.3329 81.3754C93.3625 81.4535 93.6517 82.0484 93.6517 82.0484L94.0318 82.6961L90.641 82.6855Z" fill="#006838"/>
<path d="M92.6095 83.5526C92.5406 83.269 92.5136 82.9769 92.5292 82.6855H92.0394C92.0551 82.9769 92.0281 83.269 91.9592 83.5526C91.9006 83.7812 91.817 84.0026 91.7101 84.2129H92.8502C92.7461 84.0022 92.6654 83.7808 92.6095 83.5526Z" fill="#6D574E"/>
<path d="M95.384 82.9747L95.5951 82.692V82.4579L95.384 82.692L95.5128 82.152L95.6606 81.7026L95.6796 81.5148H95.4684L95.3755 81.3967L95.7619 80.4305L95.8633 80.152L96.2222 79.1415L96.351 78.8356L96.1398 79.0002L96.351 78.2133L96.4608 77.6837L96.6254 77.1669L96.7183 76.534L96.9295 75.7682L97.1871 76.534C97.1871 76.534 97.261 77.5888 97.2968 77.6521C97.3327 77.7154 97.6642 78.9453 97.6642 78.9453L98.0675 79.6499H97.8289L98.0675 80.1668L98.1604 80.4221C98.1604 80.4221 98.1794 80.3545 98.3082 80.7533L98.4369 81.152L98.1984 80.9642L98.4369 81.7406L98.6481 81.9874L98.8866 82.9642L95.384 82.9747Z" fill="#006838"/>
<path d="M81.9733 76.8608L82.1358 76.633V76.4431L81.9733 76.633L82.0767 76.2005L82.195 75.8397L82.2097 75.6878H82.0472L81.9733 75.5929L82.2836 74.8166L82.3639 74.5929L82.651 73.7807L82.7502 73.5381L82.5729 73.671L82.7502 73.0381L82.8389 72.6162L82.9719 72.1943L83.0458 71.6922L83.2084 71.0762L83.4195 71.6922C83.4195 71.6922 83.4786 72.536 83.5082 72.5909C83.5377 72.6457 83.8038 73.6309 83.8038 73.6309L84.1289 74.1984H83.9368L84.1289 74.6204L84.2028 74.8313C84.2028 74.8313 84.2176 74.7765 84.321 75.0993L84.4245 75.4199L84.2324 75.268L84.4245 75.9009L84.5871 76.0992L84.7792 76.884L81.9733 76.8608Z" fill="#006838"/>
<path d="M83.4218 76.861H83.0629C83.0629 76.861 83.1009 77.6563 82.9404 77.9411H83.5443C83.3817 77.6542 83.4218 76.861 83.4218 76.861Z" fill="#6D574E"/>
<path d="M87.3461 81.9493L87.1539 81.6814V81.4578L87.3461 81.6814L87.2236 81.1687L87.0843 80.7468L87.0674 80.5675H87.2595L87.3461 80.4557L86.9724 79.5338L86.8774 79.268L86.5501 78.3081L86.4276 78.0169L86.6388 78.1731L86.4276 77.4241L86.3221 76.922L86.1658 76.4305L86.0793 75.8377L85.8872 75.1099L85.6422 75.8377C85.6422 75.8377 85.5726 76.8334 85.5367 76.8925C85.5008 76.9516 85.1883 78.1203 85.1883 78.1203L84.8041 78.7912H85.03L84.8041 79.2827L84.7175 79.5253C84.7175 79.5253 84.7006 79.4599 84.5781 79.8397L84.4557 80.2194L84.6837 80.0401L84.4557 80.7764L84.2636 81.0105L84.0377 81.9367L87.3461 81.9493Z" fill="#006838"/>
<path d="M85.6335 81.9493H86.0557C86.0557 81.9493 86.0114 82.8881 86.2014 83.2151H85.4941C85.6778 82.8881 85.6335 81.9493 85.6335 81.9493Z" fill="#6D574E"/>
<path d="M89.0517 96.5018L89.227 95.985H88.9272L89.4022 94.6918L89.8013 93.4618L89.2777 93.8184L89.4276 92.945L89.664 92.3944L89.7759 91.7467L89.8752 91.099V90.7763H89.7506L89.8498 90.2257L90.0504 89.675L90.2742 89.0928L90.5233 88.5105L90.6986 87.9937C90.8165 88.3897 90.9575 88.7786 91.1208 89.1582C91.2623 89.3976 91.3871 89.6464 91.4945 89.9029L91.8682 90.6792V90.8374L91.7183 90.772L91.8682 91.5484C91.8682 91.5484 91.9928 91.7741 92.0435 91.9049L92.2926 92.5526V92.715L92.0181 92.6496C92.0181 92.6496 92.2419 93.2635 92.2926 93.3943C92.3433 93.5251 92.567 93.6812 92.5924 93.9091C92.6252 94.0934 92.6933 94.2696 92.793 94.428C92.8436 94.5251 93.0674 94.85 93.0674 94.85V95.0124C92.9441 94.9842 92.8193 94.9624 92.6937 94.947C92.6198 94.947 92.3939 94.7529 92.4193 94.85C92.4446 94.947 92.8183 95.6938 92.8183 95.6938L93.2933 96.5018H89.0517Z" fill="#006838"/>
<path d="M93.503 76.1352L93.6107 75.88H93.4249L93.7205 75.2471L93.9675 74.6395L93.6424 74.8146L93.7353 74.3927L93.8831 74.1205L93.9528 73.802L94.014 73.4834V73.3231H93.9401L94.0013 73.0509L94.1259 72.7788L94.2652 72.4919L94.4194 72.205L94.527 71.9497C94.6016 72.1475 94.6898 72.34 94.7909 72.5256C94.8777 72.6419 94.9553 72.7646 95.0232 72.8927L95.2554 73.2767V73.3568L95.1625 73.3252L95.2554 73.7091C95.2945 73.7655 95.3305 73.8239 95.3631 73.8842L95.5172 74.2028V74.283L95.3462 74.2513C95.3462 74.2513 95.4855 74.5551 95.5172 74.6184C95.5489 74.6817 95.6882 74.7597 95.703 74.8737C95.7243 74.9678 95.767 75.0559 95.8276 75.131C95.8593 75.1796 95.9986 75.342 95.9986 75.342V75.4222C95.9986 75.4222 95.8128 75.3905 95.7664 75.3905C95.7199 75.3905 95.5806 75.2956 95.5953 75.342C95.6101 75.3884 95.8445 75.7639 95.8445 75.7639L96.14 76.1627L93.503 76.1352Z" fill="#006838"/>
<path d="M95.031 76.671C94.9771 76.4978 94.9557 76.3161 94.9677 76.1351H94.594C94.606 76.3161 94.5845 76.4978 94.5306 76.671C94.4841 76.8143 94.4195 76.9511 94.3385 77.0782H95.2231C95.1421 76.9511 95.0775 76.8143 95.031 76.671Z" fill="#6D574E"/>
<path d="M89.9136 76.8418H90.1627L90.4266 76.7173V76.5928L90.3295 76.1519L90.2598 75.7469L90.4266 75.9051V75.7469L90.3443 75.2553L90.3295 75.057L90.169 74.7786H90.4266L90.169 74.2279L90.0213 73.9052L89.8692 73.3124L89.8418 73.2027L90.0213 73.3081L89.8418 72.8672L89.6201 72.3736L89.523 72.0951L89.3119 71.5424L89.1303 71.1753L88.7967 72.093H88.8791C88.8768 72.2136 88.8487 72.3323 88.7967 72.4411C88.7501 72.5238 88.7173 72.6136 88.6996 72.7069C88.6721 72.7765 88.6172 73.0634 88.6172 73.0634L88.7418 73.0782L88.5476 73.574C88.522 73.6499 88.4842 73.7211 88.4357 73.7849C88.3503 73.9258 88.2761 74.0733 88.214 74.2258H88.4505L88.214 74.6857V75.0043L88.0198 75.4811L88.2013 75.5169L88.0198 75.8882L87.9374 76.154C87.8888 76.2051 87.8507 76.2654 87.8255 76.3312C87.8184 76.4549 87.8184 76.5789 87.8255 76.7025L87.9923 76.8439H89.9094L89.9136 76.8418Z" fill="#006838"/>
<path d="M89.3229 77.5319C89.2966 77.3028 89.2825 77.0726 89.2807 76.842H88.9661C88.9643 77.0726 88.9502 77.3028 88.9239 77.5319C88.9127 77.6378 88.8842 77.7411 88.8394 77.8378H89.4074C89.3626 77.7411 89.3341 77.6378 89.3229 77.5319Z" fill="#6D574E"/>
<path d="M74.5808 80.7596H74.3042L74.0213 80.6267V80.5001L74.1269 80.0254L74.2008 79.5909L74.0213 79.7596V79.5909L74.11 79.0634L74.1248 78.8525L74.2958 78.5529H74.0298L74.3063 77.9601L74.4647 77.6141L74.6273 76.9812L74.6568 76.8631L74.4647 76.977L74.6568 76.5023L74.8954 75.9707L75.0009 75.6711L75.2247 75.0783L75.419 74.6838L75.7779 75.6711H75.6892C75.6911 75.8013 75.7214 75.9294 75.7779 76.0467C75.8283 76.1353 75.8639 76.2314 75.8835 76.3315C75.913 76.4074 75.9722 76.7133 75.9722 76.7133L75.837 76.7281L76.0482 77.2597C76.0756 77.3417 76.1163 77.4186 76.1685 77.4875C76.2604 77.6392 76.3402 77.7979 76.4071 77.9622H76.1537L76.4071 78.4559V78.7976L76.6182 79.3103L76.424 79.3483L76.6182 79.747L76.7069 80.0318C76.7591 80.0865 76.8 80.151 76.8272 80.2216C76.8349 80.3544 76.8349 80.4876 76.8272 80.6204L76.6478 80.7723H74.5871L74.5808 80.7596Z" fill="#006838"/>
<path d="M75.2147 81.5021C75.2426 81.2555 75.2574 81.0077 75.259 80.7595H75.5968C75.5984 81.0077 75.6132 81.2555 75.6411 81.5021C75.6531 81.616 75.6838 81.7272 75.7319 81.8312H75.1218C75.1707 81.7274 75.202 81.6162 75.2147 81.5021Z" fill="#6D574E"/>
<path d="M69.8939 78.251H69.6596L69.4168 78.1371V78.0232L69.5055 77.616L69.5688 77.2426L69.4147 77.3882V77.2426L69.4907 76.7891L69.5033 76.6055L69.6511 76.3482H69.4147L69.6511 75.8397L69.7862 75.5423L69.9256 74.9959L69.9509 74.8946L69.7862 74.9917L69.9509 74.5845L70.1621 74.1288L70.2507 73.8736L70.4429 73.3651L70.6097 73.0276L70.9179 73.8714H70.8419C70.8436 73.9826 70.8696 74.092 70.9179 74.1921C70.9605 74.2683 70.9905 74.351 71.0066 74.4368C71.0319 74.5022 71.0826 74.7638 71.0826 74.7638L70.9665 74.7765L71.1459 75.2322C71.1688 75.3026 71.2031 75.3689 71.2473 75.4284C71.3284 75.5582 71.399 75.6944 71.4584 75.8355H71.2473L71.4584 76.2574V76.5507L71.6379 76.9895L71.4711 77.0211L71.6379 77.3629L71.7139 77.6076C71.7587 77.6544 71.7939 77.7096 71.8173 77.77C71.8239 77.8839 71.8239 77.998 71.8173 78.1118L71.6632 78.2426H69.896L69.8939 78.251Z" fill="#006838"/>
<path d="M70.4355 78.8861C70.4594 78.6759 70.472 78.4647 70.4735 78.2532H70.7649C70.7664 78.4647 70.7791 78.6759 70.8029 78.8861C70.8134 78.9832 70.8398 79.078 70.881 79.1666H70.3574C70.3987 79.078 70.4251 78.9832 70.4355 78.8861Z" fill="#6D574E"/>
<path d="M81.1551 81.327H81.4063L81.6724 81.2026V81.0781L81.5752 80.6351L81.5056 80.2279L81.6724 80.3861V80.2279L81.5879 79.7342L81.5731 79.5338L81.4127 79.2532H81.6703L81.4127 78.7005L81.2649 78.3777L81.1129 77.7807L81.0854 77.671L81.2649 77.7765L81.0854 77.3335L80.8616 76.8377L80.7645 76.5592L80.5534 76.0044L80.3718 75.6373L80.0361 76.5592H80.1206C80.118 76.6807 80.0892 76.8001 80.0361 76.9094C79.9896 76.9922 79.9568 77.082 79.939 77.1753C79.9116 77.247 79.8546 77.5318 79.8546 77.5318L79.9791 77.5466L79.7828 78.0444C79.7571 78.1203 79.7193 78.1915 79.6709 78.2554C79.5847 78.3969 79.5098 78.5451 79.4471 78.6984H79.6835L79.4471 79.1604V79.479L79.2507 79.9579L79.4323 79.9937L79.2507 80.3671L79.1663 80.633C79.1177 80.6841 79.0796 80.7443 79.0544 80.8102C79.0472 80.9345 79.0472 81.0592 79.0544 81.1836L79.2212 81.3249H81.1467L81.1551 81.327Z" fill="#006838"/>
<path d="M80.5644 82.0213C80.538 81.7909 80.5239 81.5592 80.5222 81.3273H80.216C80.2143 81.5592 80.2002 81.7909 80.1738 82.0213C80.1628 82.1279 80.1343 82.232 80.0894 82.3293H80.6594C80.6108 82.2327 80.5787 82.1286 80.5644 82.0213Z" fill="#6D574E"/>
</g>
<circle cx="48" cy="48" r="47" stroke="white" stroke-width="2"/>
</svg>
