<svg width="96" height="96" viewBox="0 0 96 96" fill="none" xmlns="http://www.w3.org/2000/svg">
<circle cx="48" cy="48" r="47" fill="white" stroke="white" stroke-width="2"/>
<mask id="mask0" mask-type="alpha" maskUnits="userSpaceOnUse" x="0" y="0" width="96" height="96">
<circle cx="48" cy="48" r="48" fill="#C07248"/>
</mask>
<g mask="url(#mask0)">
<path d="M202.465 -3H29.2985V98.6913H202.465V-3Z" fill="#CCA773"/>
<path d="M36.1344 4.31203C36.0058 4.31244 35.8822 4.2622 35.7905 4.17222L30.2536 -1.21228C30.2014 -1.25576 30.1587 -1.30957 30.1283 -1.37033C30.0979 -1.43108 30.0805 -1.49746 30.0771 -1.56528C30.0737 -1.63309 30.0844 -1.70087 30.1086 -1.76434C30.1328 -1.82781 30.1699 -1.88559 30.2176 -1.93404C30.2652 -1.98249 30.3225 -2.02056 30.3856 -2.04584C30.4488 -2.07112 30.5165 -2.08307 30.5845 -2.08093C30.6525 -2.0788 30.7194 -2.06262 30.7808 -2.03342C30.8423 -2.00423 30.897 -1.96264 30.9415 -1.9113L36.4614 3.47321C36.5329 3.54119 36.5823 3.62908 36.6032 3.72544C36.624 3.8218 36.6153 3.92219 36.5782 4.01356C36.5411 4.10493 36.4774 4.18306 36.3952 4.2378C36.313 4.29254 36.2162 4.32135 36.1174 4.3205L36.1344 4.31203Z" fill="#A46D54"/>
<path d="M30.6139 97.7933C30.5151 97.7942 30.4183 97.7654 30.3361 97.7106C30.2539 97.6559 30.1902 97.5778 30.1531 97.4864C30.116 97.395 30.1073 97.2946 30.1281 97.1983C30.149 97.1019 30.1984 97.014 30.2699 96.946L35.7898 91.5615C35.8848 91.4825 36.0062 91.442 36.1297 91.4482C36.2533 91.4543 36.37 91.5066 36.4567 91.5947C36.5433 91.6828 36.5936 91.8002 36.5975 91.9235C36.6014 92.0469 36.5586 92.1672 36.4777 92.2605L30.9578 97.6451C30.9131 97.6912 30.8597 97.728 30.8007 97.7534C30.7416 97.7789 30.6782 97.7924 30.6139 97.7933Z" fill="#A46D54"/>
<path d="M34.2017 3.14713L34.2017 92.5444C34.2017 93.2369 34.7644 93.7983 35.4586 93.7983L196.299 93.7983C196.993 93.7983 197.556 93.2369 197.556 92.5444V3.14713C197.556 2.45457 196.993 1.89314 196.299 1.89314L35.4586 1.89314C34.7644 1.89314 34.2017 2.45457 34.2017 3.14713Z" fill="#425147"/>
<path d="M34.2153 90.5446H197.548V92.5696C197.548 92.8954 197.418 93.2079 197.188 93.4383C196.957 93.6687 196.643 93.7981 196.317 93.7981H35.4254C35.1056 93.7981 34.7989 93.6714 34.5727 93.4458C34.3466 93.2201 34.2195 92.9141 34.2195 92.595V90.5446H34.2153Z" fill="#F0CF95"/>
<g opacity="0.03">
<path opacity="0.03" d="M167.286 23.9266C165.413 21.9821 163.214 19.6902 160.654 18.6692C151.89 15.1614 142.17 13.0347 132.85 11.6749C123.208 10.2684 113.556 10.5395 103.931 11.9163C94.3896 13.2805 85.0653 15.7291 75.7452 18.1354C70.7773 19.4063 65.7925 20.6519 60.8585 22.0711L54.0309 24.0325C51.5852 24.7443 48.9059 25.1425 47.2372 27.1929C46.7234 27.8199 50.5406 31.0862 51.2582 31.1879C56.2643 31.8953 61.2577 30.438 66.1746 29.5272C71.4227 28.5528 76.6369 27.4556 81.8553 26.3499C91.4896 24.3079 101.124 22.1134 110.873 20.6815C120.722 19.2008 130.735 19.1637 140.595 20.5714C145.596 21.3376 150.547 22.3971 155.422 23.7445C160.288 25.0535 164.993 26.926 169.859 28.2012C171.073 28.5231 167.485 24.113 167.286 23.9266Z" fill="white"/>
<path opacity="0.03" d="M185.209 16.8008C184.454 16.0171 183.133 14.4327 181.974 14.2336C160.098 10.5563 137.539 12.2509 115.994 17.1652C105.997 19.4686 96.1826 22.4986 86.6288 26.2311C81.8647 28.0825 77.1728 30.1117 72.5361 32.2553C67.8994 34.399 62.4857 36.4282 58.4307 39.542L58.4053 39.9911L58.6303 40.8765C59.1653 42.9947 61.8064 45.1129 63.301 46.5152C64.6172 47.7861 67.5046 51.0778 69.5851 50.8363C71.6657 50.5949 73.9883 48.7181 75.8268 47.748C78.0687 46.5533 80.3319 45.401 82.6205 44.2741C87.168 42.0203 91.8005 39.9318 96.4796 37.9661C105.809 34.0595 115.372 30.736 125.115 28.0147C135.119 25.2447 145.3 23.1598 155.589 21.7744C165.856 20.3637 176.17 19.7409 186.487 18.864C187.146 18.8259 185.366 16.9661 185.209 16.8008Z" fill="white"/>
<path opacity="0.03" d="M137.33 56.2592C136.523 55.4119 135.033 53.6199 133.776 53.4419C105.905 49.4724 73.9065 47.0873 49.1648 63.3298C48.2094 63.9356 58.2768 75.0011 60.731 74.819C61.4571 74.7639 61.7373 74.9206 62.0983 74.2809C62.1085 74.2561 62.117 74.2307 62.1237 74.2047C72.9087 67.6382 84.8359 63.6983 97.3023 61.7326C110.958 59.5763 124.923 59.5 138.693 58.5468C139.457 58.4918 137.495 56.4329 137.33 56.2592Z" fill="white"/>
<path opacity="0.03" d="M109.964 61.5206C108.932 60.5377 105.884 57.1189 103.952 57.0384H103.922C103.779 57.0306 103.636 57.0449 103.497 57.0808H103.531C103.205 57.1262 102.886 57.2101 102.58 57.3308L97.9944 58.6271C95.2287 59.3575 92.5666 60.4336 90.0712 61.8298C85.1288 64.681 78.4753 68.4556 76.9552 74.2765C76.6282 75.522 81.4305 80.0804 82.6661 79.9491C88.4195 79.339 93.0435 75.8948 98.0538 73.2428C103.323 70.451 108.979 69.2563 114.703 67.7354C115.475 67.5363 110.223 61.7663 109.964 61.5206Z" fill="white"/>
<path opacity="0.03" d="M63.9413 8.60776C58.4564 9.37942 53.1258 11.0003 48.1418 13.4119C46.0188 14.454 44.1505 15.9834 42.3926 17.5297C41.5282 18.3085 40.7047 19.1315 39.9257 19.9953C38.9066 21.0968 38.8175 21.4484 38.8429 22.9184C38.8684 24.3885 41.6963 26.6211 42.6092 27.5022C43.624 28.4639 46.0697 31.2642 47.7044 31.0015C49.6364 30.6923 50.9357 28.3411 52.3199 26.9769C54.0183 25.3205 55.929 24.0114 57.8398 22.6388C61.8608 19.7496 66.0898 17.5763 69.5546 13.9499C70.1958 13.2551 65.0708 8.4383 63.9413 8.60776Z" fill="white"/>
</g>
<g opacity="0.03">
<path opacity="0.03" d="M63.6453 69.2736C65.5179 71.2182 67.7173 73.5101 70.2777 74.531C79.0415 78.0388 88.7607 80.1655 98.0808 81.5254C107.724 82.9319 117.375 82.6608 127.001 81.2839C136.542 79.9198 145.866 77.4711 155.186 75.0648C160.154 73.7939 165.139 72.5484 170.073 71.1292L176.866 69.1677C179.333 68.456 182.008 68.0578 183.69 66.0073C184.204 65.3803 180.386 62.1141 179.669 62.0124C174.663 61.3049 169.669 62.7622 164.752 63.6731C159.504 64.6474 154.29 65.7447 149.072 66.8504C139.437 68.8923 129.803 71.0868 120.054 72.5187C110.205 73.9995 100.192 74.0366 90.3318 72.6289C85.3438 71.857 80.4056 70.7932 75.5428 69.4431C70.6768 68.134 65.9722 66.2615 61.1062 64.9864C59.8579 64.6813 63.4458 69.066 63.6453 69.2736Z" fill="white"/>
<path opacity="0.03" d="M45.7226 76.3992C46.4784 77.183 47.7989 78.7674 48.9581 78.9665C70.8337 82.6649 93.393 80.9534 114.933 76.0349C124.931 73.726 134.746 70.6903 144.299 66.952C149.063 65.1007 153.755 63.0714 158.392 60.9278C163.028 58.7841 168.442 56.7549 172.497 53.6411L172.522 53.192L172.297 52.3066C171.762 50.1884 169.121 48.0702 167.627 46.6679C166.31 45.397 163.423 42.1053 161.343 42.3468C159.262 42.5883 156.939 44.465 155.101 45.4351C152.859 46.6298 150.596 47.7821 148.307 48.909C143.76 51.1628 139.127 53.2514 134.448 55.2171C125.119 59.1236 115.555 62.4471 105.813 65.1684C95.809 67.9383 85.6273 70.0232 75.3388 71.4087C65.0718 72.8194 54.7582 73.4422 44.4403 74.3191C43.7864 74.3784 45.5655 76.2213 45.7226 76.3992Z" fill="white"/>
<path opacity="0.03" d="M42.7757 59.9492C43.85 61.182 45.2002 62.6436 46.6948 63.3765C60.9064 70.3624 77.4957 70.786 92.739 67.3206C99.6492 65.6873 106.365 63.3227 112.772 60.2669C116.106 58.6772 119.357 56.9197 122.512 55.0011C124.096 54.0563 125.65 53.0565 127.183 52.0356C128.656 51.0654 130.512 50.1376 131.489 48.6464C132.338 47.3755 127.417 43.0713 126.737 42.4231C125.671 41.4106 122.092 37.3987 120.283 37.9833C117.277 38.9492 114.385 41.7664 111.698 43.4907C108.849 45.2954 105.91 46.9561 102.921 48.5108C96.7089 51.7622 90.1818 54.3754 83.4402 56.3101C76.2957 58.2755 68.9422 59.3862 61.5348 59.6188C54.9237 59.8899 48.5291 58.4538 41.9817 58.2377C41.2344 58.2292 42.6781 59.8391 42.7757 59.9492Z" fill="white"/>
<path opacity="0.03" d="M93.6014 36.9454C94.4081 37.7927 95.8985 39.5847 97.1553 39.7626C125.022 43.7322 157.025 46.1173 181.766 29.8748C182.722 29.2478 172.633 18.2034 170.2 18.3856C169.474 18.4407 169.194 18.2839 168.833 18.9236C168.823 18.9484 168.814 18.9739 168.807 18.9999C158.022 25.5663 146.095 29.5062 133.629 31.4719C119.974 33.6283 106.008 33.7045 92.2384 34.6577C91.4741 34.7043 93.4358 36.7717 93.6014 36.9454Z" fill="white"/>
<path opacity="0.03" d="M48.1758 44.3717C45.1442 44.9352 41.6751 45.4732 38.8643 46.7272C38.4397 46.9094 42.9362 51.5101 43.8916 51.7177C58.1923 54.8654 74.1957 51.1034 87.6259 46.0663C101.309 40.9168 113.739 32.9239 124.091 22.6176C125.174 21.5458 114.661 10.3786 112.499 11.6029C107.685 14.3101 102.735 16.769 97.6678 18.9701C96.9418 16.5257 88.1821 7.61219 86.3011 8.69248C80.0625 12.2593 73.486 15.2023 66.6674 17.4788C59.9586 19.7242 53.1013 20.8976 46.2864 22.7108C45.6452 22.8803 49.1524 26.9134 49.2586 27.0405C50.4549 28.2898 51.7314 29.4601 53.08 30.544C52.0865 30.8999 51.0844 31.243 50.0781 31.5565C49.3647 31.781 53.1522 36.0683 53.2881 36.2166C54.628 37.6175 56.0622 38.9253 57.5809 40.1311C58.2554 40.7295 58.9799 41.2695 59.7463 41.7451C59.084 41.9273 58.4258 42.1052 57.7634 42.2747C54.6171 43.0839 51.3944 43.7702 48.1758 44.3717Z" fill="white"/>
</g>
<path d="M79.6728 41.0334L60.7227 59.7797C60.5842 59.9167 60.3967 59.9933 60.2017 59.9925C60.0066 59.9917 59.8198 59.9136 59.6824 59.7754C59.545 59.6372 59.4683 59.4502 59.4691 59.2556C59.4699 59.0609 59.5481 58.8746 59.6866 58.7375L79.2185 40.5886C79.2819 40.5532 79.3554 40.5402 79.4272 40.5517C79.499 40.5632 79.5647 40.5985 79.6139 40.6519C79.663 40.7053 79.6926 40.7738 79.6979 40.8461C79.7032 40.9184 79.6839 40.9904 79.6431 41.0504L79.6728 41.0334Z" fill="#C57036"/>
<path d="M46.4269 72.9677L57.4284 59.3053L57.5176 57.9115C57.5453 57.4723 57.7119 57.0532 57.9934 56.7144C58.275 56.3757 58.6569 56.1347 59.0844 56.0263L61.3602 55.4459C61.8835 55.3149 62.4327 55.3285 62.9488 55.4852C63.4649 55.642 63.9286 55.9359 64.29 56.3355L64.9354 57.0515C65.0815 57.2142 65.1896 57.4072 65.2519 57.6166C65.3143 57.8261 65.3294 58.0466 65.2961 58.2626C65.2628 58.4785 65.1819 58.6843 65.0594 58.8654C64.9368 59.0464 64.7756 59.1981 64.5872 59.3095L60.2775 61.8513L51.9085 72.9677H46.4269Z" fill="#FFC182"/>
<path d="M42.0737 50.4681L38.7448 49.1294L41.3433 67.7485L43.4664 76.7128C43.5371 77.0101 43.6687 77.2895 43.8529 77.5335C44.0371 77.7776 44.2699 77.981 44.5367 78.131C44.8035 78.281 45.0984 78.3743 45.4031 78.4051C45.7077 78.4359 46.0155 78.4035 46.307 78.3099C48.1699 77.7124 49.7688 76.4912 50.8333 74.853L52.5954 72.1417L49.7548 68.1044L47.2836 70.2226L46.1329 55.967C46.0349 54.7647 45.6032 53.6135 44.8862 52.6422C44.1692 51.671 43.1953 50.9181 42.0737 50.4681Z" fill="#005697"/>
<path d="M29.5731 28.2521C29.475 28.2528 29.3784 28.228 29.2929 28.1801C27.6985 27.3136 25.8722 26.9669 24.0702 27.1888C23.9943 27.1975 23.9173 27.1909 23.844 27.1693C23.7707 27.1477 23.7025 27.1116 23.6435 27.0631C23.5845 27.0146 23.5358 26.9548 23.5005 26.8871C23.4652 26.8195 23.4439 26.7454 23.4379 26.6694C23.4319 26.5933 23.4413 26.5168 23.4656 26.4445C23.4899 26.3722 23.5286 26.3055 23.5793 26.2484C23.63 26.1913 23.6917 26.145 23.7607 26.1122C23.8297 26.0795 23.9047 26.0609 23.9811 26.0577C26.0077 25.8226 28.0575 26.2192 29.8491 27.193C29.9593 27.2544 30.0459 27.3506 30.0953 27.4665C30.1447 27.5823 30.1541 27.7113 30.122 27.8331C30.0899 27.9548 30.0182 28.0625 29.918 28.1392C29.8179 28.2158 29.6951 28.257 29.5689 28.2564L29.5731 28.2521Z" fill="#8D453B"/>
<path d="M35.7393 28.2522C35.6131 28.2529 35.4903 28.2116 35.3902 28.135C35.29 28.0584 35.2183 27.9507 35.1862 27.8289C35.1541 27.7071 35.1635 27.5782 35.2129 27.4623C35.2623 27.3465 35.3489 27.2503 35.4591 27.1889C37.2508 26.2153 39.3006 25.8187 41.3271 26.0535C41.4766 26.0644 41.6158 26.1337 41.7144 26.2463C41.8129 26.3589 41.863 26.5058 41.8537 26.6551C41.8483 26.7295 41.8282 26.8022 41.7944 26.8688C41.7607 26.9355 41.714 26.9947 41.6572 27.0432C41.6003 27.0917 41.5343 27.1284 41.4631 27.1512C41.3918 27.1741 41.3168 27.1825 41.2422 27.1762C39.4403 26.9543 37.614 27.3009 36.0196 28.1675C35.9353 28.2198 35.8386 28.2491 35.7393 28.2522Z" fill="#8D453B"/>
<path d="M18.1219 42.0884L44.5408 46.3884L44.8763 35.1957L44.0653 22.1094L20.8861 18.9871L18.4403 29.1588L18.1219 42.0884Z" fill="#BB4709"/>
<path d="M22.0665 91.8028C22.813 86.0541 24.6151 80.492 27.3826 75.3951L27.8751 74.4927L27.7308 69.8072L22.2831 61.22L21.6801 64.9269L17.0901 63.9906L17.6804 57.547C17.8496 55.7023 18.5583 53.9479 19.7186 52.5018C20.8789 51.0556 22.4395 49.9816 24.2065 49.4131L28.9409 47.8879L35.0722 48.0489L41.7512 50.8026C42.4993 51.109 43.143 51.624 43.6054 52.2859C44.0677 52.9478 44.3291 53.7286 44.3583 54.5349L44.4135 56.0177L45.6873 59.7796C45.8725 60.3336 45.9343 60.9212 45.8683 61.5015C45.8023 62.0817 45.6101 62.6406 45.3052 63.1391L42.3839 67.9093L42.9231 79.5002L43.1185 91.8155L22.0665 91.8028Z" fill="#FFC182"/>
<path d="M17.8167 104.101H20.7422L20.9757 101.42C21.0345 100.74 20.9386 100.056 20.6952 99.4185C20.4519 98.781 20.0673 98.2066 19.5703 97.7382L18.8909 97.0985L22.343 65.4566L17.3921 64.6517L15.9527 80.2926L15.1756 101.365C15.1625 101.719 15.2211 102.072 15.3479 102.404C15.4747 102.735 15.667 103.037 15.9136 103.293C16.1601 103.548 16.4556 103.751 16.7826 103.89C17.1096 104.029 17.4613 104.101 17.8167 104.101Z" fill="#FFC182"/>
<path d="M21.9861 92.3917H43.6962L43.4882 79.4621L42.9574 68.0534L45.7853 63.4357C46.1327 62.8633 46.3507 62.2222 46.4241 61.557C46.4974 60.8919 46.4243 60.2188 46.2099 59.5847L44.9955 55.8863L44.9446 54.4883C44.9082 53.5722 44.6087 52.6859 44.0817 51.9348C43.5548 51.1837 42.8226 50.5995 41.9723 50.2519L35.1786 47.4728L28.8605 47.3076L23.5402 49.108C21.7989 49.693 20.2657 50.7706 19.1273 52.2095C17.9889 53.6484 17.2945 55.3866 17.1287 57.2123L16.4748 64.4821L15.392 84.3764L20.8525 85.3126L22.5721 63.1137L24.6951 66.2656C26.3016 68.678 27.1975 71.4917 27.281 74.3868L27.1409 74.6453C24.1643 80.1208 22.4061 86.1724 21.9861 92.3874V92.3917Z" fill="#006DC3"/>
<path d="M14.6067 79.0471L14.543 84.3766L20.8526 85.3128L23.0351 79.8944L14.6067 79.0471Z" fill="#CCEAEC"/>
<path d="M25.06 79.0471C23.3313 83.3044 22.2922 87.8089 21.9816 92.3919L33.586 93.2392L43.6959 92.3919L43.4878 79.4623C40.9996 81.983 33.6497 80.9705 25.06 79.0471Z" fill="#693132"/>
<path d="M28.8519 49.0615C32.5333 52.7684 35.221 54.3909 35.5904 51.256V42.9144H28.8519V49.0615Z" fill="#FFC182"/>
<path d="M30.7665 50.8746C34.1209 54.8272 36.1293 53.8401 36.4393 51.2602L35.5901 50.8746H30.7665Z" fill="#CCEAEC"/>
<path d="M35.5853 48.477V42.3299H28.8553V46.7231C30.473 47.8373 32.6555 48.8667 35.5853 48.477Z" fill="#E19F68"/>
<path d="M46.0507 32.6802C46.4215 30.5905 45.5727 28.6935 44.1549 28.4431C42.7371 28.1926 41.2872 29.6836 40.9164 31.7732C40.5456 33.8628 41.3944 35.7599 42.8121 36.0103C44.2299 36.2607 45.6799 34.7698 46.0507 32.6802Z" fill="#FFC182"/>
<path d="M22.7659 36.0158C24.1837 35.7654 25.0325 33.8684 24.6617 31.7788C24.2909 29.6891 22.8409 28.1982 21.4231 28.4486C20.0053 28.6991 19.1566 30.5961 19.5274 32.6857C19.8982 34.7753 21.3481 36.2663 22.7659 36.0158Z" fill="#FFC182"/>
<path d="M22.0848 19.9319H43.5019V33.7427C43.5019 36.5749 42.3748 39.2912 40.3684 41.2947C38.362 43.2981 35.6404 44.4248 32.8018 44.427C31.3948 44.4281 30.0014 44.1526 28.7012 43.6161C27.401 43.0797 26.2195 42.2929 25.2242 41.3006C24.229 40.3084 23.4394 39.1302 22.9007 37.8334C22.362 36.5365 22.0848 35.1465 22.0848 33.7427V19.9319Z" fill="#FFC182"/>
<path d="M22.7713 151.329H27.1405L32.1296 102.928L33.4289 101.759L30.2868 151.329L34.1295 153.723L41.8361 102.538L43.6959 92.3876H21.9816L23.3573 120.102L22.7374 129.278L22.7713 151.329Z" fill="#FFC182"/>
<path d="M22.8308 127.906H29.5523L32.1296 102.928L33.4289 101.759L31.773 127.906H38.0189L41.8361 102.538L43.6959 92.3876H21.9816L23.3573 120.102L22.8308 127.906Z" fill="#E19F68"/>
<path d="M21.4852 126.211L40.8302 125.364L43.1273 105.982C43.3989 103.688 43.5534 101.382 43.5901 99.0728L43.6963 92.3919L33.2637 89.4264L21.982 92.3919L21.481 104.101L21.4852 126.211Z" fill="#693132"/>
<path d="M27.0353 33.0859C27.7013 33.0859 28.2412 32.3102 28.2412 31.3532C28.2412 30.3963 27.7013 29.6205 27.0353 29.6205C26.3694 29.6205 25.8295 30.3963 25.8295 31.3532C25.8295 32.3102 26.3694 33.0859 27.0353 33.0859Z" fill="#8D453B"/>
<path d="M38.6821 33.0859C39.3481 33.0859 39.888 32.3102 39.888 31.3532C39.888 30.3963 39.3481 29.6205 38.6821 29.6205C38.0161 29.6205 37.4762 30.3963 37.4762 31.3532C37.4762 32.3102 38.0161 33.0859 38.6821 33.0859Z" fill="#8D453B"/>
<path d="M20.9119 47.3077L22.3216 36.043L24.7334 20.6648L31.6374 23.3337L42.9235 26.8923L43.4839 32.4844L44.1718 31.3448L44.8554 28.4174L45.0465 28.0235C45.9781 26.0866 46.4336 23.956 46.3753 21.8084C46.317 19.6608 45.7464 17.558 44.711 15.6743C44.0026 14.3849 42.9735 13.2991 41.7227 12.5215C40.4718 11.7439 39.0414 11.3007 37.5692 11.2345L32.7117 11.0226C30.9034 10.9448 29.1049 11.3279 27.4861 12.1358C25.8673 12.9437 24.4816 14.1499 23.4596 15.6404C22.5599 15.6406 21.6807 15.9077 20.9337 16.4079C20.1866 16.908 19.6056 17.6186 19.2645 18.4491C16.607 24.9143 15.3343 31.8625 15.5279 38.8475C15.5588 39.9516 15.808 41.0387 16.2613 42.0463C16.7145 43.054 17.3628 43.9623 18.169 44.7192L20.9119 47.3077Z" fill="#DB7422"/>
<path d="M40.971 27.5998C40.8288 27.2186 40.6022 26.8743 40.3081 26.5926C40.0141 26.311 39.6601 26.0992 39.2725 25.973C38.8309 25.8721 38.3706 25.8873 37.9366 26.0173C37.5027 26.1472 37.11 26.3874 36.7971 26.7143C36.347 27.282 37.1155 28.0997 37.6123 27.5277C37.8263 27.3211 38.0835 27.1642 38.3653 27.0682C38.6472 26.9723 38.9468 26.9397 39.2428 26.9728C39.799 27.066 40.1854 27.5701 40.6398 27.854C40.7926 27.9556 41.0474 27.7862 40.971 27.5998Z" fill="#8D453B"/>
<path d="M24.3467 27.5998C24.4889 27.2186 24.7155 26.8743 25.0096 26.5926C25.3036 26.311 25.6576 26.0992 26.0452 25.973C26.4868 25.8721 26.9471 25.8873 27.3811 26.0173C27.815 26.1472 28.2077 26.3874 28.5206 26.7143C28.9707 27.282 28.2022 28.0997 27.7054 27.5277C27.4914 27.3211 27.2342 27.1642 26.9524 27.0682C26.6705 26.9723 26.3709 26.9397 26.0749 26.9728C25.5187 27.066 25.1323 27.5701 24.6779 27.854C24.5208 27.9556 24.2703 27.7862 24.3467 27.5998Z" fill="#8D453B"/>
<path d="M30.58 56.8056L27.2383 47.6888L28.2531 45.4435L34.2019 50.8661L30.58 56.8056Z" fill="#CCEAEC"/>
<g opacity="0.4">
<path opacity="0.4" d="M28.9157 35.1279C28.3934 35.4821 27.7934 35.7059 27.1663 35.7803L23.3448 28.4089C23.642 28.2528 23.9729 28.1713 24.3087 28.1717H25.3278L28.9157 35.1279Z" fill="white"/>
<path opacity="0.4" d="M36.5874 28.1718H38.5958L42.2474 35.2551C41.8187 35.6096 41.2798 35.8043 40.723 35.8058H40.4428L36.5067 28.1802L36.5874 28.1718Z" fill="white"/>
</g>
<path d="M41.3517 28.159H36.6216C36.3021 28.1587 35.9867 28.2317 35.7 28.3724C35.4132 28.513 35.1627 28.7176 34.9677 28.9702C34.7728 29.2228 34.6387 29.5168 34.5758 29.8293C34.5128 30.1419 34.5227 30.4647 34.6047 30.7729L35.1567 32.8614C35.3797 33.7029 35.8755 34.4472 36.5667 34.9782C37.2579 35.5092 38.1058 35.7972 38.9782 35.7973H40.7573C41.3614 35.7975 41.9437 35.5719 42.3894 35.1649C42.835 34.7579 43.1117 34.199 43.1648 33.5986L43.4153 30.4255C43.4411 30.1388 43.4071 29.85 43.3153 29.5771C43.2235 29.3043 43.076 29.0534 42.882 28.8404C42.6881 28.6274 42.4519 28.4568 42.1885 28.3395C41.9251 28.2222 41.6401 28.1608 41.3517 28.159ZM42.1712 33.5096C42.1412 33.8669 41.9772 34.1998 41.712 34.4417C41.4467 34.6836 41.0997 34.8167 40.7403 34.8144H38.9612C38.3058 34.8138 37.669 34.597 37.1499 34.1978C36.6308 33.7986 36.2584 33.2394 36.0908 32.6073L35.5389 30.5187C35.4957 30.3545 35.4911 30.1826 35.5255 30.0164C35.5598 29.8501 35.6323 29.6941 35.7371 29.5604C35.8419 29.4267 35.9763 29.3189 36.1297 29.2456C36.2831 29.1723 36.4515 29.1353 36.6216 29.1376H41.3517C41.5049 29.1376 41.6565 29.1694 41.7967 29.231C41.9369 29.2926 42.0627 29.3827 42.1662 29.4954C42.2696 29.6082 42.3484 29.7412 42.3975 29.886C42.4466 30.0308 42.465 30.1843 42.4514 30.3365L42.1712 33.5096Z" fill="#512A25"/>
<path d="M31.1031 28.6715C30.8641 28.3576 30.5551 28.1034 30.2006 27.9292C29.8462 27.7549 29.4559 27.6653 29.0608 27.6675H24.3094C23.9533 27.6701 23.6016 27.7464 23.2765 27.8916C22.9514 28.0367 22.6599 28.2474 22.4205 28.5105C22.1812 28.7737 21.999 29.0834 21.8857 29.4203C21.7723 29.7572 21.7301 30.1138 21.7618 30.4677L22.0421 33.6408C22.1029 34.3641 22.4348 35.0379 22.9716 35.5279C23.5083 36.0179 24.2104 36.288 24.9379 36.2844H26.717C27.6977 36.2843 28.651 35.9605 29.4282 35.3636C30.2054 34.7667 30.7629 33.9302 31.014 32.9842L31.5617 30.8914C31.6626 30.5112 31.6737 30.1128 31.5941 29.7276C31.5146 29.3424 31.3465 28.9809 31.1031 28.6715ZM30.6021 30.6457L30.0501 32.7342C29.8545 33.4709 29.4204 34.1224 28.8153 34.5874C28.2102 35.0525 27.468 35.305 26.7042 35.3057H24.9336C24.4554 35.3032 23.9955 35.1223 23.6443 34.7985C23.293 34.4747 23.0759 34.0315 23.0356 33.5561L22.7554 30.383C22.7362 30.1659 22.7618 29.9472 22.8307 29.7403C22.8996 29.5335 23.0103 29.343 23.156 29.1806C23.3017 29.0182 23.4792 28.8873 23.6776 28.7961C23.876 28.7049 24.0911 28.6553 24.3094 28.6503H29.0735C29.3177 28.6507 29.5586 28.7069 29.7776 28.8147C29.9966 28.9225 30.1879 29.079 30.3368 29.2721C30.4856 29.4653 30.5881 29.6899 30.6363 29.9288C30.6845 30.1676 30.6772 30.4143 30.6148 30.6499L30.6021 30.6457Z" fill="#512A25"/>
<path d="M45.2628 28.1843H20.3257V29.1629H45.2628V28.1843Z" fill="#512A25"/>
<path d="M35.3485 37.5384C35.1065 37.6019 34.8475 37.7417 34.6734 37.7926C33.7364 38.0562 32.7461 38.0679 31.8031 37.8265C31.5119 37.7489 31.2278 37.6469 30.9539 37.5214C30.7432 37.3879 30.5182 37.2785 30.283 37.1952C30.191 37.1643 30.0912 37.1658 30.0001 37.1995C29.9091 37.2331 29.8324 37.2968 29.7827 37.3801C29.7331 37.4633 29.7135 37.561 29.7273 37.6568C29.741 37.7527 29.7873 37.841 29.8584 37.9069C30.6099 38.6526 31.5568 39.4363 32.6735 39.5295C33.9134 39.6354 34.8602 39.0338 35.8071 38.3052C35.8675 38.2596 35.9159 38.2001 35.9481 38.1318C35.9803 38.0634 35.9954 37.9883 35.992 37.9129C35.9887 37.8374 35.967 37.7639 35.9289 37.6987C35.8908 37.6334 35.8373 37.5784 35.7731 37.5384C35.6369 37.4837 35.4848 37.4837 35.3485 37.5384Z" fill="#E2455C"/>
<path d="M39.2209 55.5348L35.34 51.7982L35.5905 45.9308L36.7837 46.3629L39.2209 55.5348Z" fill="#CCEAEC"/>
<path d="M47.5466 69.8625L50.7141 66.9012L54.7394 72.1417L51.7374 77.0686L47.5466 69.8625Z" fill="#CCEAEC"/>
</g>
<circle cx="48" cy="48" r="47" stroke="white" stroke-width="2"/>
</svg>
