<svg width="96" height="96" viewBox="0 0 96 96" fill="none" xmlns="http://www.w3.org/2000/svg">
<circle cx="48" cy="48" r="47" fill="white" stroke="white" stroke-width="2"/>
<mask id="mask0" mask-type="alpha" maskUnits="userSpaceOnUse" x="0" y="0" width="96" height="96">
<circle cx="48" cy="48" r="48" fill="#C07248"/>
</mask>
<g mask="url(#mask0)">
<circle cx="48" cy="49" r="46" fill="#EAEDF2"/>
<g filter="url(#filter0_d)">
<rect x="23.9048" y="15.4127" width="48.9206" height="65.7143" fill="#D7DBE0"/>
</g>
<rect x="23.9048" y="15.4127" width="48.9206" height="19.7143" fill="#006DC3"/>
<rect x="29.7465" y="22.7144" width="37.2381" height="52.5714" fill="white"/>
<rect x="45.81" y="76.7462" width="5.84127" height="6.57143" fill="white"/>
<rect x="45.81" y="76.7462" width="2.19048" height="6.57143" fill="#006DC3"/>
<rect x="49.4608" y="76.7462" width="2.19048" height="6.57143" fill="#006DC3"/>
<circle cx="48.7307" cy="71.635" r="5.84127" fill="#FFAA00"/>
<rect x="35.5878" y="29.2858" width="25.5556" height="3.65079" rx="1.8254" fill="#D7DBE0"/>
<rect x="42.1592" y="35.8572" width="12.4127" height="2.19048" rx="1.09524" fill="#D7DBE0"/>
<rect x="36.3179" y="46.8096" width="24.0952" height="2.19048" rx="1.09524" fill="#D7DBE0"/>
<rect x="40.6989" y="50.4604" width="15.3333" height="2.19048" rx="1.09524" fill="#D7DBE0"/>
<rect x="40.6989" y="59.9525" width="15.3333" height="1.46032" rx="0.730159" fill="#D7DBE0"/>
</g>
<circle cx="48" cy="48" r="47" stroke="white" stroke-width="2"/>
<defs>
<filter id="filter0_d" x="23.9048" y="15.4127" width="48.9206" height="71.7143" filterUnits="userSpaceOnUse" color-interpolation-filters="sRGB">
<feFlood flood-opacity="0" result="BackgroundImageFix"/>
<feColorMatrix in="SourceAlpha" type="matrix" values="0 0 0 0 0 0 0 0 0 0 0 0 0 0 0 0 0 0 127 0"/>
<feMorphology radius="4" operator="erode" in="SourceAlpha" result="effect1_dropShadow"/>
<feOffset dy="10"/>
<feColorMatrix type="matrix" values="0 0 0 0 0 0 0 0 0 0 0 0 0 0 0 0 0 0 0.15 0"/>
<feBlend mode="normal" in2="BackgroundImageFix" result="effect1_dropShadow"/>
<feBlend mode="normal" in="SourceGraphic" in2="effect1_dropShadow" result="shape"/>
</filter>
</defs>
</svg>
