<svg width="96" height="96" viewBox="0 0 96 96" fill="none" xmlns="http://www.w3.org/2000/svg">
<circle cx="48" cy="48" r="47" fill="white" stroke="white" stroke-width="2"/>
<mask id="mask0" mask-type="alpha" maskUnits="userSpaceOnUse" x="0" y="0" width="96" height="96">
<circle cx="48" cy="48" r="48" fill="#C07248"/>
</mask>
<g mask="url(#mask0)">
<circle cx="48" cy="50" r="48" fill="#006DC3"/>
<ellipse cx="49.1429" cy="79.3334" rx="26.2857" ry="2.66667" fill="#005697"/>
<rect x="16" y="24.8571" width="65.5238" height="44.9524" fill="#D7DBE0"/>
<rect x="20.5714" y="28.6666" width="56.381" height="37.3333" fill="white"/>
<rect x="38.8572" y="69.8094" width="20.5714" height="5.33333" fill="#838181"/>
<rect x="32.762" y="75.1428" width="32.7619" height="3.04762" fill="#D7DBE0"/>
<mask id="mask1" mask-type="alpha" maskUnits="userSpaceOnUse" x="24" y="34" width="21" height="21">
<circle cx="34.2857" cy="44.6666" r="9.90476" fill="#C4C4C4"/>
</mask>
<g mask="url(#mask1)">
<circle cx="34.2857" cy="44.6666" r="9.90476" fill="#EAEDF2"/>
<circle cx="34.2865" cy="41.6189" r="4.57143" fill="#006DC3"/>
<path fill-rule="evenodd" clip-rule="evenodd" d="M26.668 52.2795C27.4389 48.7687 30.5675 46.1412 34.3099 46.1412C38.0511 46.1412 41.1791 48.7672 41.9511 52.2765C39.9625 54.1705 37.271 55.3332 34.3079 55.3332C31.3465 55.3332 28.6563 54.1718 26.668 52.2795Z" fill="#006DC3"/>
</g>
<rect x="49.5238" y="37.8094" width="22.8571" height="3.80952" fill="#D7DBE0"/>
<rect x="49.5238" y="44.6666" width="22.8571" height="3.80952" fill="#D7DBE0"/>
<rect x="49.5238" y="52.2856" width="13.7143" height="3.80952" fill="#006DC3"/>
</g>
<circle cx="48" cy="48" r="47" stroke="white" stroke-width="2"/>
</svg>
