<svg width="217" height="48" viewBox="0 0 217 48" fill="none" xmlns="http://www.w3.org/2000/svg">
<path d="M54.9335 11.594C58.4132 11.594 60.1514 13.415 60.1481 17.0569V19.9292C60.1481 23.5547 58.4099 25.3674 54.9335 25.3674H53.2899V33.6729H49.8036V11.594H54.9335ZM53.2899 14.7481V22.2478H54.9434C56.089 22.2478 56.6617 21.5524 56.6617 20.1616V16.8097C56.6617 15.4221 56.089 14.7284 54.9434 14.7284L53.2899 14.7481Z" fill="#074780"/>
<path d="M61.4894 16.8986C61.4894 15.1287 61.9443 13.761 62.854 12.7953C63.7638 11.8296 65.0787 11.3451 66.7986 11.3418C68.5152 11.3418 69.83 11.8263 70.7431 12.7953C71.6562 13.7643 72.1128 15.132 72.1128 16.8986V28.388C72.1128 30.1545 71.6562 31.5223 70.7431 32.4913C69.83 33.4603 68.5152 33.9448 66.7986 33.9448C65.082 33.9448 63.7671 33.4603 62.854 32.4913C61.941 31.5223 61.4861 30.1545 61.4894 28.388V16.8986ZM64.9757 28.6104C64.9757 30.0639 65.58 30.7906 66.7886 30.7906C67.9972 30.7906 68.6015 30.0639 68.6015 28.6104V16.6761C68.6015 15.2227 67.9972 14.4959 66.7886 14.4959C65.58 14.4959 64.9757 15.2227 64.9757 16.6761V28.6104Z" fill="#074780"/>
<path d="M84.5172 25.4563V28.3929C84.5172 32.0975 82.7791 33.9497 79.3027 33.9497C75.8263 33.9497 74.0865 32.0958 74.0831 28.388V16.8986C74.0831 13.1941 75.8213 11.3418 79.2977 11.3418C82.7741 11.3418 84.5139 13.1941 84.5172 16.8986V19.0442H81.2102V16.6761C81.2102 15.2227 80.6059 14.4959 79.3973 14.4959C78.1887 14.4959 77.5844 15.2227 77.5844 16.6761V28.6104C77.5844 30.0408 78.1887 30.756 79.3973 30.756C80.6059 30.756 81.2102 30.0408 81.2102 28.6104V25.4563H84.5172Z" fill="#074780"/>
<path d="M91.9309 11.594C95.3906 11.594 97.1205 13.2881 97.1205 16.6762V17.4672C97.1205 19.7414 96.3668 21.2245 94.8594 21.9166C96.5992 22.5758 97.4692 24.1545 97.4692 26.6528V28.4523C97.4692 31.9459 95.6978 33.6927 92.155 33.6927H86.6615V11.594H91.9309ZM90.1478 14.7481V20.5917H91.5175C92.9187 20.5917 93.6192 19.8122 93.6192 18.2533V17.0223C93.6192 15.5062 93.0249 14.7481 91.8362 14.7481H90.1478ZM90.1478 23.731V30.5386H92.14C93.3486 30.5386 93.9529 29.8118 93.9529 28.3584V26.4303C93.9529 25.4185 93.772 24.7132 93.4101 24.3144C93.1837 24.1034 92.9148 23.9423 92.6213 23.8418C92.3277 23.7412 92.016 23.7035 91.7067 23.731H90.1478Z" fill="#074780"/>
<path d="M99.2756 16.8986C99.2756 15.1287 99.7305 13.761 100.64 12.7953C101.55 11.8296 102.867 11.3451 104.59 11.3418C106.306 11.3418 107.621 11.8263 108.534 12.7953C109.447 13.7643 109.904 15.132 109.904 16.8986V28.388C109.904 30.1545 109.447 31.5223 108.534 32.4913C107.621 33.4603 106.306 33.9448 104.59 33.9448C102.873 33.9448 101.558 33.4603 100.645 32.4913C99.7322 31.5223 99.2773 30.1545 99.2806 28.388L99.2756 16.8986ZM102.762 28.6104C102.762 30.0639 103.366 30.7906 104.575 30.7906C105.783 30.7906 106.388 30.0639 106.388 28.6104V16.6761C106.388 15.2227 105.783 14.4959 104.575 14.4959C103.366 14.4959 102.762 15.2227 102.762 16.6761V28.6104Z" fill="#074780"/>
<path d="M122.267 36.6637V33.6975H114.797V36.6637H111.395V30.5977H112.76C113.338 29.7512 113.637 28.7477 113.616 27.7254L114.413 11.5889H124.21V30.5977H125.739V36.6637H122.267ZM117.038 27.6858C116.952 29.0965 116.62 30.0753 116.042 30.6224H120.624V14.7479H117.665L117.038 27.6858Z" fill="#074780"/>
<path d="M132.827 11.594C136.306 11.594 138.045 13.415 138.041 17.0569V19.9292C138.041 23.5547 136.303 25.3674 132.827 25.3674H131.173V33.6729H127.687V11.594H132.827ZM131.173 14.7531V22.2478H132.827C133.972 22.2478 134.545 21.5524 134.545 20.1616V16.8097C134.545 15.4221 133.972 14.7284 132.827 14.7284L131.173 14.7531Z" fill="#074780"/>
<path d="M143.17 20.9081H147.971V24.0622H143.17V30.5386H149.211V33.6927H139.673V11.594H149.211V14.7481H143.17V20.9081Z" fill="#074780"/>
<path d="M161.523 25.4563V28.3929C161.523 32.0975 159.785 33.9497 156.308 33.9497C152.832 33.9497 151.092 32.0958 151.089 28.388V16.8986C151.089 13.1941 152.827 11.3418 156.303 11.3418C159.78 11.3418 161.518 13.1941 161.518 16.8986V19.0442H158.211V16.6761C158.211 15.2227 157.607 14.4959 156.398 14.4959C155.19 14.4959 154.585 15.2227 154.585 16.6761V28.6104C154.585 30.0408 155.19 30.756 156.398 30.756C157.607 30.756 158.211 30.0408 158.211 28.6104V25.4563H161.523Z" fill="#074780"/>
<path d="M171.413 28.0716C170.968 30.2172 170.304 31.6905 169.421 32.4914C168.368 33.4604 166.68 33.8723 164.355 33.7273V30.6523C165.065 30.7488 165.787 30.6619 166.452 30.4002C166.732 30.2414 166.969 30.0177 167.142 29.7482C167.316 29.4787 167.421 29.1714 167.448 28.8527L167.483 28.6599L162.647 11.6088H166.133L168.041 19.153L169.122 24.3292L169.949 19.1827L171.537 11.6039H175.193L171.413 28.0716Z" fill="#074780"/>
<path d="M181.789 11.594C185.268 11.594 187.006 13.415 187.003 17.0569V19.9292C187.003 23.5547 185.265 25.3674 181.789 25.3674H180.135V33.6729H176.649V11.594H181.789ZM180.135 14.7531V22.2478H181.789C182.934 22.2478 183.507 21.5524 183.507 20.1616V16.8097C183.507 15.4221 182.934 14.7284 181.789 14.7284L180.135 14.7531Z" fill="#074780"/>
<path d="M198.769 25.4563V28.3929C198.769 32.0975 197.031 33.9497 193.554 33.9497C190.078 33.9497 188.34 32.0958 188.34 28.388V16.8986C188.34 13.1941 190.078 11.3418 193.554 11.3418C197.031 11.3418 198.769 13.1941 198.769 16.8986V19.0442H195.462V16.6761C195.462 15.2227 194.857 14.4959 193.649 14.4959C192.44 14.4959 191.836 15.2227 191.836 16.6761V28.6104C191.836 30.0408 192.44 30.756 193.649 30.756C194.857 30.756 195.462 30.0408 195.462 28.6104V25.4563H198.769Z" fill="#074780"/>
<path d="M200.898 33.6927V11.594H204.384V19.8996H206.037C209.517 19.8996 211.255 21.7205 211.252 25.3624V28.2298C211.252 31.8718 209.514 33.6845 206.037 33.668L200.898 33.6927ZM206.052 30.5386C207.198 30.5386 207.771 29.8432 207.771 28.4523V25.14C207.771 23.7524 207.198 23.0586 206.052 23.0586H204.399V30.5386H206.052ZM213.274 11.594H216.76V33.6927H213.274V11.594Z" fill="#074780"/>
<path d="M3.41783 17.4917C2.28228 17.3038 1.16167 17.1258 0.0510254 16.9034C0.136965 18.191 0.321779 19.4702 0.603859 20.7299C5.4407 21.4961 10.3431 21.776 15.2365 21.5654C20.476 21.2638 25.5561 20.2997 30.5914 19.3407L39.6359 17.6202C39.689 17.0533 39.7222 16.4848 39.7355 15.9146C34.003 16.9034 26.9257 18.5101 21.3526 18.9402C14.7534 19.4346 9.89744 18.4458 3.42281 17.4867" fill="#074780"/>
<path d="M3.30232 28.1159C11.0071 27.2755 17.8852 25.2881 27.2087 24.3092C30.1671 23.9978 34.0469 24.3092 37.9117 24.7443C38.3004 23.7248 38.633 22.6851 38.9078 21.6297C26.6957 22.1241 14.6578 24.8926 2.12195 25.5847C2.4739 26.4449 2.86238 27.2969 3.28738 28.1407" fill="#074780"/>
<path d="M31.8153 1.68629C24.0075 -0.562096 15.7168 -0.562096 7.90901 1.68629L0 3.9802V10.6939C10.21 13.7392 20.6491 15.9145 33.4639 14.0556C35.5407 13.7541 37.6923 13.6107 39.7443 13.2943V3.9802L31.8153 1.68629Z" fill="#074780"/>
<path d="M20.6395 28.2347C15.8732 28.5066 10.1058 29.2235 4.24377 29.8662C8.15345 36.7875 14.2047 42.9623 19.8725 48C25.6499 42.8782 31.8257 36.5502 35.7055 29.5102C31.3725 28.3336 26.5713 27.8985 20.6395 28.2347Z" fill="#074780"/>
</svg>
