<svg width="60" height="60" viewBox="0 0 60 60" fill="none" xmlns="http://www.w3.org/2000/svg" preserveAspectRatio="none"><circle opacity=".2" cx="30" cy="30" r="30" fill="#fff"/><rect opacity=".5" x="11" y="8" width="40" height="46" rx="2" fill="#005697"/><path d="M13 5h34a2 2 0 012 2v43a2 2 0 01-2 2H15a2 2 0 01-2-2V5z" fill="#97BCD2"/><rect x="11.001" y="4" width="36" height="46" rx="2" fill="#fff"/><rect x="18" y="30" width="22" height="2" rx="1" fill="#006DC3"/><rect x="23" y="34" width="12" height="2" rx="1" fill="#006DC3"/><rect opacity=".5" x="26" y="44" width="6" height="2" rx="1" fill="#006DC3"/><mask id="a" mask-type="alpha" maskUnits="userSpaceOnUse" x="21" y="10" width="16" height="16"><circle cx="29" cy="18" r="8" fill="#fff"/></mask><g mask="url(#a)"><circle cx="29" cy="18" r="8" fill="#D7DBE0"/><path d="M28.5 18.5c-5.6 0-7.333 2.667-7.5 4l2 5h15l.5-13.5c-1 1.5-4.4 4.5-10 4.5z" fill="#006DC3"/></g></svg>