<svg width="60" height="60" viewBox="0 0 60 60" fill="none" xmlns="http://www.w3.org/2000/svg" preserveAspectRatio="none"><circle opacity=".2" cx="30" cy="30" r="30" fill="#fff"/><g filter="url(#filter0_d)"><rect x="12" y="9" width="35" height="42" rx="2" fill="#fff"/></g><circle cx="29.5" cy="30.5" r="12.5" fill="#006DC3"/><path d="M33 21c3.333-1.454 10-5.89 10-12M24 39c-3.07 1-7.001 4-7.001 12" stroke="#006DC3" stroke-width="2" stroke-dasharray="4 4"/><path d="M30.893 31.542h2.69c0 1.144-.321 2.066-.964 2.767-.833.91-1.9 1.366-3.202 1.366-1.143 0-2.1-.376-2.87-1.13-.777-.76-1.166-1.69-1.166-2.788 0-.874.242-1.574.726-2.1.492-.535 1.326-1.002 2.5-1.401 1.167-.407 1.905-.734 2.214-.983.318-.248.477-.632.477-1.151 0-.52-.167-.93-.5-1.231-.326-.309-.762-.463-1.31-.463-.547 0-.984.15-1.31.451-.325.302-.488.712-.488 1.231 0 .234.048.558.143.972H25.06a21.388 21.388 0 00-.048-.52 7.838 7.838 0 01-.012-.406c0-1.19.425-2.18 1.274-2.97.841-.79 1.905-1.186 3.19-1.186 1.294 0 2.373.399 3.238 1.197.866.798 1.298 1.796 1.298 2.992 0 1.228-.432 2.218-1.298 2.97-.547.475-1.579.934-3.095 1.378-1.032.301-1.547.775-1.547 1.423 0 .18.035.354.107.52.079.157.182.297.31.417a1.397 1.397 0 00.987.384c.873 0 1.35-.58 1.429-1.739zm-3.036 6.877c0-.421.163-.787.488-1.095a1.636 1.636 0 011.167-.463c.452 0 .841.154 1.167.463.325.308.488.677.488 1.106 0 .437-.163.81-.488 1.118a1.617 1.617 0 01-1.155.452c-.468 0-.861-.15-1.179-.452a1.497 1.497 0 01-.488-1.129z" fill="#fff"/><defs><filter id="filter0_d" x="12" y="9" width="38" height="44" filterUnits="userSpaceOnUse" color-interpolation-filters="sRGB"><feFlood flood-opacity="0" result="BackgroundImageFix"/><feColorMatrix in="SourceAlpha" type="matrix" values="0 0 0 0 0 0 0 0 0 0 0 0 0 0 0 0 0 0 127 0"/><feOffset dx="3" dy="2"/><feColorMatrix type="matrix" values="0 0 0 0 0.0145833 0 0 0 0 0.330365 0 0 0 0 0.5 0 0 0 0.3 0"/><feBlend mode="normal" in2="BackgroundImageFix" result="effect1_dropShadow"/><feBlend mode="normal" in="SourceGraphic" in2="effect1_dropShadow" result="shape"/></filter></defs></svg>