<svg width="96" height="96" viewBox="0 0 96 96" fill="none" xmlns="http://www.w3.org/2000/svg" preserveAspectRatio="none"><circle cx="48" cy="48" r="47" fill="#fff" stroke="#fff" stroke-width="2"/><mask id="a" mask-type="alpha" maskUnits="userSpaceOnUse" x="0" y="0" width="96" height="96"><circle cx="48" cy="48" r="48" fill="#C07248"/></mask><g mask="url(#a)"><path d="M46.668-8.69L-105.59 67.293v25.763l152.258 76.056L199 93.057V67.293L46.668-8.69z" fill="#6A432D"/><path d="M46.668-8.69L-105.59 67.293v12.765l96.599 48.422 28.725 27.164 26.934 13.468L199 93.057V67.293L46.668-8.69z" fill="#236949"/><path d="M46.668-8.69L-105.59 67.293V80.29l152.258 75.976L199 80.291V67.293L46.668-8.69z" fill="#8F5A3D"/><path d="M46.668-8.69L-105.59 67.293l68.192 34.097 28.64 27.243 55.426 27.634L199 80.291V67.293L46.668-8.69z" fill="#256F4E"/><path d="M46.668-8.69L199 67.293 46.668 143.269-105.59 67.293 46.668-8.69z" fill="#277653"/><path d="M46.668-8.69l93.255 46.465C14.208 20.724-14.67 78.8-37.478 101.298l-68.112-34.005L46.668-8.69z" fill="#3A841E"/><path d="M46.668-8.69l83.37 41.574C10.082 5.794-31.622 83.091-49.233 95.392l-56.357-28.1L46.668-8.69z" fill="#4E8A1F"/><path d="M41.84-2.24c-1.633 3.583-1.944 6.775-3.668 6.775-.936 0-3.35-2.336-4.591-6.774H32.1c0 5.502 2.8 8.015 1.56 9.782-1.242 1.767-1.016 3.112-1.321 5.215 3.967 2.176 7.947 2.256 11.443 0-.152-2.336-.855-3.192-1.711-5.215-.777-1.633 1.222-4.824 1.711-9.782H41.84z" fill="#969562"/><path d="M27.064-17.328c-5.501 0-8.796 6.774-8.796 11.756 0 4.983 3.906 7.24 8.796 7.24.811.003 1.62-.075 2.415-.233 1.32 2.488 4.28 3.583 7.709 3.583 3.43 0 6.15-1.015 7.629-3.271a13.22 13.22 0 003.111.311c4.89 0 8.877-2.103 8.877-7.159 0-5.056-3.35-11.757-8.877-11.757a7.151 7.151 0 00-5.685 2.96 7.158 7.158 0 00-4.438-1.713 6.901 6.901 0 00-4.627 1.786c-1.48-2.024-3.583-3.503-6.15-3.503h.037z" fill="#5F8119"/><path d="M22.692-21.767c-5.502 0-8.797 6.694-8.797 11.757 0 4.824 3.668 7.006 8.326 7.16 1.167 3.056 4.438 4.358 8.252 4.358 2.568 0 4.824-.544 6.462-1.791 1.559 1.48 4.047 2.103 6.773 2.103 3.894 0 7.238-1.32 8.406-4.518 4.823 0 8.796-2.103 8.796-7.16 0-5.056-3.35-11.756-8.876-11.756-3.056 0-5.373 2.023-6.852 4.67a8.614 8.614 0 00-1.48-.152c-2.726 0-4.982 1.712-6.461 4.047-1.56-2.568-3.815-4.359-6.774-4.359-.34-.012-.68.014-1.014.08-1.56-2.568-3.815-4.44-6.774-4.44h.013z" fill="#719A1E"/><path d="M55.538-8.14a2.042 2.042 0 114.047 0c0 1.224-.153 13.451-2.024 13.451-1.87 0-2.023-12.227-2.023-13.45zM92.28-7.051a2.08 2.08 0 114.126 0c0 1.32-.233 13.45-2.024 13.45-1.79 0-2.103-12.142-2.103-13.45z" fill="#466C14"/><path d="M59.2-3.083c6.07 8.56 5.214 6.847 12.452 11.677.232 3.736-1.168 7.086-.856 7.71 3.35 1.015 5.917 1.015 8.876 0-.312-3.35-1.088-5.295-1.223-7.16 8.174-5.606 7.006-2.103 13.308-11.053h-3.423c-1.632 3.112-3.967 5.76-8.95 6.927h-.776V-.485c-1.944-.311-3.814-.856-6.54 0V4.89H70.9c-4.518-1.32-6.725-5.062-8.253-7.948l-3.448-.024z" fill="#969562"/><path d="M60.367-20.581c-5.501 0-8.876 6.725-8.876 11.757 0 4.89 3.735 7.086 8.326 7.16 1.223 3.056 4.518 4.358 8.326 4.358 2.488 0 4.824-.544 6.382-1.791 1.633 1.48 4.047 2.183 6.853 2.183 3.894 0 7.159-1.4 8.326-4.519 4.89 0 8.797-2.176 8.797-7.238 0-5.063-3.27-11.757-8.797-11.757-3.056 0-5.373 2.024-6.926 4.67a8.554 8.554 0 00-1.4-.152c-2.8 0-4.982 1.712-6.54 4.047-1.48-2.494-3.815-4.359-6.725-4.359a5.135 5.135 0 00-1.088.08c-1.48-2.489-3.815-4.44-6.725-4.44h.068z" fill="#466C14"/><path d="M80.448-1.628a2.08 2.08 0 114.127 0c0 1.223-.233 13.45-2.103 13.45-1.871 0-2.024-12.227-2.024-13.45z" fill="#466C14"/><path d="M75.315 8.827c-2.256 5.062-9.109 6.07-10.82 6.07-.936 0-2.96-3.19-4.28-5.135l-1.632.391c1.632 1.4 1.48 6.695.232 8.486-1.247 1.792-1.014 3.112-1.32 5.215 3.894 2.183 7.947 2.256 11.444 0-.153-2.335-.703-3.344-2.103-5.062-1.712-2.024 9.029-2.959 9.732-9.965h-1.253z" fill="#969562"/><path d="M52.892-8.69c-5.447 0-8.797 6.695-8.797 11.757 0 5.062 3.968 7.16 8.797 7.16h.544c.232 3.735.703 7.862 1.791 7.862.935 0 1.48-3.057 1.712-6.23 1.559 1.223 3.735 1.791 6.15 1.791 3.27 0 6.15-1.009 7.55-3.35.25.088.51.14.776.153.311 3.191.776 6.15 1.711 6.15s1.4-2.88 1.712-5.991c4.358-.233 7.782-2.415 7.782-7.16 0-5.062-3.27-11.757-8.797-11.757-2.335 0-4.28 1.223-5.758 2.96a6.914 6.914 0 00-4.438-1.633 7.06 7.06 0 00-4.592 1.792c-1.479-2.104-3.582-3.504-6.15-3.504h.007z" fill="#2C450E"/><path d="M48.612-13.201c-5.502 0-8.876 6.694-8.876 11.756a6.385 6.385 0 002.103 5.063c.153 4.047.611 10.118 1.944 10.118 1.088 0 1.559-4.439 1.791-8.254a24.19 24.19 0 002.488.312c1.223 2.96 4.518 4.36 8.326 4.36 2.488 0 4.823-.612 6.382-1.871 1.632 1.48 4.126 2.182 6.853 2.182 3.894 0 7.158-1.4 8.326-4.512a11.418 11.418 0 003.735-.544c.232 3.815.703 8.327 1.87 8.327 1.4 0 1.871-6.927 1.945-10.821a7.087 7.087 0 001.222-4.207c0-4.982-3.27-11.677-8.797-11.677-3.056 0-5.373 1.944-6.926 4.67a4.279 4.279 0 00-1.4-.152c-2.8 0-4.982 1.632-6.54 3.968-1.48-2.488-3.815-4.36-6.725-4.36-.391 0-.703.08-1.088.08-1.48-2.488-3.815-4.438-6.724-4.438h.091z" fill="#3E5E13"/><path d="M84.03-8.922c0 4.127-2.487 6.23-5.917 6.774v.465c0 4.824-3.502 6.847-7.947 6.847-2.335 0-4.358-.544-5.838-1.791-.153-.08-.232-.153-.39-.232-.08.079-.233.152-.313.232-1.479 1.223-3.582 1.791-5.917 1.791-4.359 0-7.947-2.023-7.947-6.847v-.465c-3.423-.544-5.918-2.647-5.918-6.774 0-13.078 16.58-12.38 20.082-7.398 4.982-5.215 20.081-3.735 20.081 7.398h.025z" fill="#476E14"/><path d="M21.68 1.667a2.042 2.042 0 114.046 0c0 1.223-.153 13.45-2.023 13.45-1.871 0-2.024-12.227-2.024-13.45z" fill="#466C14"/><path d="M-11.406 5.562c6.07 8.639 5.135 6.927 12.453 11.757.152 3.735-1.223 7.086-.856 7.71a13.117 13.117 0 008.796 0c-.311-3.425-1.014-5.295-1.167-7.16 8.173-5.607 6.926-2.183 13.235-11.054H17.71c-1.633 3.057-4.047 5.68-9.03 6.927h-.776V8.24c-1.944-.312-3.735-.856-6.54 0v5.368H.165c-4.517-1.321-6.724-5.063-8.252-8.016l-3.32-.03z" fill="#969562"/><path d="M-10.313-11.881c-5.502 0-8.797 6.695-8.797 11.757 0 4.89 3.668 7.006 8.326 7.16 1.168 3.056 4.438 4.358 8.253 4.358 2.567 0 4.823-.544 6.461-1.791 1.56 1.48 4.047 2.183 6.774 2.183 3.894 0 7.238-1.4 8.405-4.513 4.823-.079 8.797-2.182 8.797-7.238 0-5.056-3.35-11.757-8.876-11.757-3.057 0-5.374 2.024-6.853 4.67a9.53 9.53 0 00-1.48-.152c-2.726 0-4.982 1.712-6.461 4.047C2.677-5.645.42-7.516-2.537-7.516a4.432 4.432 0 00-1.015.08c-1.559-2.568-3.815-4.439-6.773-4.439l.012-.006z" fill="#466C14"/><path d="M-4.633-11.178a10.478 10.478 0 00-7.085 2.88c3.583.776 5.759 7.006 6.853 8.95h-.08c.08 0 .08 0 .08.08l.08.08a.073.073 0 00.079-.08c.11-.012.22.017.312.08 4.279 1.167 7.238 1.558 9.029 3.19 1.48-1.79 4.517-2.335 9.493-3.19-.08-.08-.232-.08-.311-.153 1.088-1.945 3.27-8.175 6.926-8.951a10.673 10.673 0 00-7.159-2.88c-3.27.312-5.214 1.32-6.461 2.8a13.38 13.38 0 00-2.488-.152c-.938 0-1.875.077-2.8.232-1.223-1.56-3.112-2.568-6.461-2.88l-.007-.006z" fill="#2C450E"/><path d="M1.132-4.636c2.8-.777 4.67-.312 6.615 0V.817c-1.792 1.089-3.968 1.01-6.615 0v-5.453z" fill="#969562"/><path d="M9.85 7.115c0-1.321.855-2.336 2.023-2.336a2.195 2.195 0 012.023 2.336c0 1.222-.153 13.45-2.024 13.45-1.87 0-2.023-12.228-2.023-13.45z" fill="#466C14"/><path d="M-23.625-.668c-2.646-.08-4.982 1.4-6.773 3.582a6.913 6.913 0 00-3.894-1.559 6.779 6.779 0 00-4.279 1.223 1.326 1.326 0 00-.544.08c-5.447 1.015-7.397 8.174-6.541 13.157a6.597 6.597 0 003.191 4.67c.006.704.057 1.407.153 2.104.611 3.112 2.488 4.824 5.061 5.447.233 3.668.777 7.63 1.792 7.63 1.014 0 1.558-3.815 1.79-7.397l1.4-.233a14.83 14.83 0 002.648-.776c1.222 3.191 4.823 4.591 8.95 4.591 4.278 0 7.86-1.4 9.028-4.67h.153c.89.412 1.832.7 2.8.855a13.12 13.12 0 003.423.232c.312 2.96.776 5.68 1.712 5.68.935 0 1.48-3.27 1.711-6.615a6.725 6.725 0 003.191-4.75c.096-.697.147-1.4.153-2.103 1.632-.857 2.727-2.416 3.191-4.671.936-4.983-1.088-12.143-6.54-13.157a1.155 1.155 0 00-.545-.08A6.779 6.779 0 00-6.673 1.35a6.913 6.913 0 00-3.894 1.56C-12.358.725-14.693-.76-17.34-.675a4.108 4.108 0 00-1.015.08 8.393 8.393 0 00-2.078.8c-.697-.34-1.429-.6-2.183-.776a4.107 4.107 0 00-1.015-.08l.006-.018z" fill="#3E5E13"/><path d="M-28.84 2.37c-2.959 0-5.294 1.945-6.774 4.512-1.558-2.415-3.814-4.28-6.724-4.28-5.502 0-8.797 6.726-8.797 11.758 0 4.89 3.668 7.085 8.326 7.238 1.168 2.96 4.438 4.36 8.253 4.36a16.567 16.567 0 002.103-.153c1.088 2.647 3.735 3.815 6.853 3.815a8.368 8.368 0 005.135-1.48h.232a8.368 8.368 0 005.135 1.48c3.056 0 5.685-1.089 6.773-3.669.153 0 .312.08.544.08 3.894 0 7.159-1.4 8.326-4.512 4.823-.08 8.797-2.183 8.797-7.239S6.072 2.523.545 2.523c-3.056 0-5.294 1.944-6.853 4.592-1.479-2.489-3.814-4.28-6.724-4.28s-4.982 1.712-6.54 4.047a8.612 8.612 0 00-1.48-.152 5.135 5.135 0 00-1.088.079c-1.48-2.568-3.815-4.439-6.774-4.439h.074z" fill="#476E14"/><path d="M-45.73 14.592a2.194 2.194 0 00-2.024 2.335c0 1.223.153 13.45 2.023 13.45s2.024-12.227 2.024-13.45c0-1.223-.856-2.335-2.024-2.335zm50.597 1.167a2.12 2.12 0 00-2.023 2.256c0 1.321.153 13.45 2.023 13.45s2.024-12.141 2.024-13.45a2.17 2.17 0 00-2.024-2.256zm-19.983 8.719a2.243 2.243 0 00-2.024 2.335c0 1.32.232 13.45 2.024 13.45 1.79 0 2.102-12.141 2.102-13.45a2.25 2.25 0 00-2.102-2.335z" fill="#476E14"/><path d="M-28.84-5.107c-2.959 0-5.294 1.944-6.774 4.518-1.558-2.488-3.814-4.28-6.724-4.28-5.502 0-8.797 6.695-8.797 11.758 0 4.89 3.668 7.006 8.326 7.159 1.168 3.057 4.438 4.359 8.253 4.359a16.567 16.567 0 002.103-.153c1.088 2.727 3.735 3.895 6.853 3.895a8.362 8.362 0 005.135-1.48h.232a8.362 8.362 0 005.135 1.48c3.056 0 5.685-1.089 6.773-3.669h.544c3.894 0 7.159-1.32 8.326-4.518 4.823 0 8.797-2.103 8.797-7.16 0-5.055-3.27-11.756-8.797-11.756-3.056 0-5.294 1.944-6.853 4.518-1.479-2.415-3.814-4.28-6.724-4.28s-4.982 1.792-6.54 4.127a4.529 4.529 0 00-1.48-.232 5.251 5.251 0 00-1.088.153c-1.48-2.568-3.815-4.439-6.774-4.439h.074z" fill="#4F7D15"/><path d="M-33.457-13.36a7.03 7.03 0 00-5.135 2.567h-.776c-5.196-.006-8.308 6.31-8.308 11.06 0 4.28 2.959 6.383 6.926 6.774 1.944 5.136 7.862 6.463 12.612 4.048 1.559 4.359 11.828 7.55 15.643-.08 4.89 2.8 12.3 2.568 12.923-4.206C3.619 6.1 5.93 4.003 5.93.26c0-4.75-3.112-11.054-8.326-11.054h-.153a6.645 6.645 0 00-5.135-2.568c-2.103 0-3.815 1.089-5.215 2.568h-.776a6.461 6.461 0 00-3.582 1.089 6.663 6.663 0 00-3.27-.936 6.4 6.4 0 00-3.668 1.168 6.577 6.577 0 00-3.943-1.327h-.08a6.842 6.842 0 00-5.239-2.482v-.08z" fill="#588C17"/><path d="M-29.074-16.393a6.9 6.9 0 00-3.35.856 6.038 6.038 0 00-1.222-.153c-5.502 0-8.797 6.725-8.797 11.757 0 4.28 2.727 6.462 6.541 7.086v.465c0 5.062 3.894 7.159 8.797 7.159 2.488 0 4.75-.544 6.302-1.792a10.654 10.654 0 006.23 1.712c4.823 0 8.796-2.182 8.796-7.238v-.465C-2.042 2.383.764.194.764-4.013c0-5.062-3.27-11.756-8.796-11.756a11.61 11.61 0 00-1.633.152 7.505 7.505 0 00-3.007-.684c-4.127 0-7.006 3.735-8.173 7.71-1.223-3.969-4.127-7.784-8.253-7.784l.024-.018z" fill="#4F7D15"/><path d="M24.247-.98c2.023-.08 2.023 4.047 3.582 4.127 2.182-.703 1.79-3.736 3.894-3.736a6.078 6.078 0 00-1.48 2.488c-.162.462-.428.88-.776 1.223.611.465 2.103-.08 2.88-.153.152.856-2.415.777-3.968 1.4-1.553.624-1.87 2.104-2.415 3.736-.232 1.009.544 1.632 1.633 2.176h.079c1.559-.232 1.559-4.359 3.967-3.668a7.098 7.098 0 00-1.632 3.271c1.4-.312 2.647-.703 3.735.312-.703 0-3.582.935-4.358 2.335a1.835 1.835 0 00.08 1.56c.31.61.776 1.222.934 1.558.263.427.577.819.936 1.168 1.4 1.712 1.944 2.727 2.103 5.062-3.112 1.633-8.877 2.336-11.909 0 .312-2.103.465-3.344 1.791-5.215.153-.232.465-.611.856-1.088.152-.328.334-.641.544-.935.224-.441.38-.913.465-1.4.232-1.321-.611-2.568-.544-3.192 0-1.015-3.503-.611-4.591-2.182.611 0 2.567 1.014 2.88.152-.704-1.088-.936-1.712-2.104-2.415-.776-.464-2.879 0-3.814-1.32.703.153 2.255.703 2.879.232a3.43 3.43 0 01-.776-1.29 6.072 6.072 0 00-1.48-2.488c1.944 0 1.56 2.88 3.424 3.583 1.558.61 1.32 2.726 3.423 3.344.935-.08 1.32-1.48 2.023-2.568.544-2.256-1.479-4.891-2.726-5.992.153 0 .312-.08.465-.08V-.98z" fill="#969562"/><path d="M24.245-.98c2.023-.08 2.023 4.047 3.582 4.127C30.01 2.444 29.618-.59 31.721-.59a6.077 6.077 0 00-1.48 2.488 3.22 3.22 0 01-.776 1.223c.612.465 2.103-.08 2.88-.153.153.856-2.415.777-3.968 1.4-1.552.624-1.87 2.104-2.414 3.736-.233 1.009.544 1.632 1.632 2.176h.08c1.558-.232 1.558-4.359 3.967-3.668a7.098 7.098 0 00-1.633 3.271c1.4-.312 2.648-.703 3.736.312-.703 0-3.583.935-4.359 2.335a1.834 1.834 0 00.08 1.56c.311.61.776 1.222.935 1.558-2.415 2.727-4.89.704-6.23-.08.152-.327.335-.64.545-.935.223-.44.38-.912.464-1.4.233-1.32-.611-2.567-.544-3.191 0-1.015-3.503-.611-4.59-2.183.61 0 2.567 1.015 2.878.153-.703-1.088-.935-1.712-2.102-2.415-.777-.464-2.88 0-3.815-1.32.703.153 2.256.703 2.88.232a3.43 3.43 0 01-.771-1.284 6.072 6.072 0 00-1.48-2.488c1.945 0 1.56 2.88 3.424 3.582 1.559.612 1.32 2.727 3.423 3.345.936-.08 1.32-1.48 2.024-2.568.544-2.256-1.48-4.891-2.727-5.992.153 0 .312-.08.465-.08V-.98z" fill="#AAA97C"/><path d="M24.245-.98c2.023-.08 2.023 4.047 3.582 4.127C30.01 2.444 29.618-.59 31.721-.59a6.077 6.077 0 00-1.48 2.488 3.22 3.22 0 01-.776 1.223c.612.465 2.103-.08 2.88-.153.153.856-2.415.777-3.968 1.4-1.552.624-1.87 2.104-2.414 3.736-.233 1.009.544 1.632 1.632 2.176h.08c1.558-.232 1.558-4.359 3.967-3.668a7.098 7.098 0 00-1.633 3.271c1.4-.312 2.648-.703 3.736.312-.703 0-3.583.935-4.359 2.335a1.834 1.834 0 00.08 1.56c-.612 1.014-3.503 1.4-4.75.543.223-.44.38-.912.464-1.4.233-1.32-.611-2.567-.544-3.191 0-1.015-3.503-.611-4.59-2.183.61 0 2.567 1.015 2.878.153-.703-1.088-.935-1.712-2.102-2.415-.777-.464-2.88 0-3.815-1.32.703.153 2.256.703 2.88.232a3.43 3.43 0 01-.771-1.284 6.072 6.072 0 00-1.48-2.488c1.945 0 1.56 2.88 3.424 3.582 1.559.612 1.32 2.727 3.423 3.345.936-.08 1.32-1.48 2.024-2.568.544-2.256-1.48-4.891-2.727-5.992.153 0 .312-.08.465-.08V-.98z" fill="#BEBD9A"/><path d="M24.246-.98c2.024-.08 2.024 4.047 3.582 4.127C30.011 2.444 29.62-.59 31.723-.59a6.078 6.078 0 00-1.48 2.488c-.162.462-.428.88-.776 1.223.611.465 2.103-.08 2.879-.153.153.856-2.415.777-3.967 1.4-1.553.624-1.871 2.104-2.415 3.736-.232 1.009.544 1.632 1.632 2.176h.08c1.559-.232 1.559-4.359 3.967-3.668a7.1 7.1 0 00-1.632 3.271c1.4-.312 2.647-.703 3.735.312-.703 0-3.582.935-4.359 2.335a3.63 3.63 0 01-4.126-.08c-.153-1.008-.703-1.87-.611-2.414 0-1.015-3.503-.611-4.591-2.183.611 0 2.567 1.015 2.879.153-.703-1.088-.935-1.712-2.103-2.415-.776-.464-2.88 0-3.814-1.32.703.152 2.255.703 2.879.232a3.43 3.43 0 01-.783-1.278A6.07 6.07 0 0017.638.738c1.944 0 1.559 2.88 3.423 3.583 1.56.61 1.32 2.726 3.424 3.344.935-.08 1.32-1.48 2.023-2.568.544-2.256-1.48-4.891-2.726-5.992.152 0 .311-.08.464-.08V-.98z" fill="#AAA97C"/><path d="M24.245-.98c2.023-.08 2.023 4.047 3.582 4.127C30.01 2.444 29.618-.59 31.721-.59a6.077 6.077 0 00-1.48 2.488c-.162.462-.427.88-.776 1.223.612.465 2.103-.08 2.88-.153.153.856-2.415.777-3.968 1.4-1.552.624-1.87 2.104-2.414 3.736-.233 1.009.544 1.632 1.632 2.176-.391.545-2.182.777-2.959-.232 0-1.015-3.503-.611-4.59-2.182.61 0 2.567 1.014 2.878.152-.703-1.088-.935-1.712-2.102-2.415-.777-.464-2.88 0-3.815-1.32.703.153 2.256.703 2.88.232a3.43 3.43 0 01-.771-1.29 6.072 6.072 0 00-1.48-2.488c1.945 0 1.56 2.88 3.424 3.583 1.559.61 1.32 2.726 3.423 3.344.936-.08 1.32-1.48 2.024-2.568.544-2.256-1.48-4.891-2.727-5.992.153 0 .312-.08.465-.08V-.98z" fill="#BEBD9A"/><path d="M49.469 54.368c0 3.424-5.685 6.23-12.611 6.23-6.927 0-12.612-2.8-12.612-6.23 0-3.43 5.685-6.303 12.612-6.303 6.926 0 12.61 2.8 12.61 6.303z" fill="#236949"/><path d="M41.374 38.644c-2.256 5.062-2.488 6.07-4.206 6.07-.935 0-3.056-3.19-4.279-5.135l-1.632.391c1.632 1.4 2.335 6.695 1.088 8.486-1.247 1.792-1.015 3.112-1.32 5.215 3.894 2.177 7.947 2.257 11.443 0-.153-2.335-.856-3.191-1.79-5.215-.704-1.632 1.222-2.8 1.943-9.782l-1.247-.03z" fill="#969562"/><path d="M26.509 26.03c-5.502 0-8.797 6.726-8.797 11.758 0 5.031 3.967 7.239 8.797 7.239.81.003 1.62-.075 2.414-.233 1.4 2.489 4.359 3.583 7.782 3.583 3.27 0 6.15-1.015 7.55-3.271 1.048.227 2.119.331 3.19.312 4.824 0 8.798-2.103 8.798-7.16 0-5.056-3.27-11.763-8.797-11.763a7.416 7.416 0 00-5.759 2.96 6.724 6.724 0 00-9.029.08c-1.479-2.025-3.582-3.504-6.15-3.504z" fill="#263B0C"/><path d="M22.172 21.604c-5.446 0-8.796 6.726-8.796 11.757 0 4.824 3.668 7.007 8.326 7.16 1.222 3.056 4.517 4.359 8.326 4.359 2.488 0 4.75-.544 6.382-1.792 1.632 1.48 4.047 2.103 6.853 2.103 3.894 0 7.158-1.32 8.326-4.518 4.89 0 8.796-2.103 8.796-7.159 0-5.056-3.27-11.757-8.796-11.757-3.057 0-5.374 2.024-6.926 4.671a8.56 8.56 0 00-1.4-.153c-2.8 0-4.983 1.712-6.541 4.048-1.48-2.568-3.815-4.36-6.725-4.36a5.134 5.134 0 00-1.088.08c-1.473-2.604-3.808-4.439-6.736-4.439z" fill="#375411"/><path d="M57.628 25.884c0 4.047-2.488 6.15-5.917 6.725v.465c0 4.891-3.582 6.927-7.947 6.927-2.336 0-4.438-.611-5.838-1.87-.153 0-.233-.08-.392-.154a.61.61 0 01-.39.153c-1.4 1.223-3.503 1.871-5.839 1.871-4.358 0-7.947-2.024-7.947-6.927v-.465c-3.423-.544-5.917-2.647-5.917-6.725 0-13.157 16.579-12.454 20.081-7.47 4.982-5.216 20.082-3.67 20.082 7.47h.024z" fill="#3E5E13"/><path d="M37.871 7.738a7.683 7.683 0 00-6.461 3.112 4.278 4.278 0 00-2.023-.39c-2.647 0-8.094 5.214-8.094 10.741 0 5.527 3.582 7.862 8.094 7.862.232 0 .39-.08.544-.08 1.167 3.272 4.126 4.672 7.629 4.672 3.502 0 6.54-1.4 7.708-4.671.233 0 .544.08.777.08 4.517 0 8.173-2.416 8.173-7.863 0-5.447-5.374-10.742-8.173-10.742a6.063 6.063 0 00-1.712.232c-1.088-2.182-3.503-2.959-6.462-2.959v.006z" fill="#476E14"/><path d="M37.792 13.73a11.7 11.7 0 00-7.397 2.647c.08.08.233.08.391.153 3.424 1.088 5.759 2.647 7.159 4.36 1.167-1.792 3.582-3.504 7.55-4.36a11.913 11.913 0 00-7.71-2.8h.007z" fill="#3E5E13"/><path d="M23.63 69.005c0 3.424-5.685 6.303-12.611 6.303-6.927 0-12.612-2.88-12.612-6.303 0-3.424 5.685-6.304 12.612-6.304 6.926 0 12.61 2.8 12.61 6.304z" fill="#236949"/><path d="M13.114 56.857c-.611 1.009-1.944 6.694-4.89 4.438-.153.312-.392.612-.545.936-.39.465-.703.856-.855 1.088-1.223 1.87-1.48 3.057-1.712 5.215 3.057 2.256 8.797 1.56 11.829 0-.153-2.335-.703-3.35-2.103-5.062a6.114 6.114 0 01-.935-1.168c-.08-.391-.465-4.824-.777-5.447h-.012z" fill="#969562"/><path d="M13.114 56.857c-.61 1.009-1.944 6.694-4.89 4.438-.153.312-.391.612-.544.936-.391.465-.703.856-.856 1.088.856 3.112 6.23 3.271 8.02.153a6.114 6.114 0 01-.935-1.168c-.08-.391-.465-4.824-.776-5.447h-.019z" fill="#AAA97C"/><path d="M13.114 56.857c-.611 1.009-1.944 6.694-4.89 4.438-.392 1.792 4.438 5.063 4.89-4.438z" fill="#969562"/><path d="M-13.283 85.353c0 3.503 5.606 6.303 12.532 6.303s12.612-2.8 12.612-6.303-5.606-6.23-12.612-6.23c-7.005 0-12.532 2.8-12.532 6.23z" fill="#236949"/><path d="M1.389 61.92c.611 0 .544 23.977.544 24.522 0 .39-.232.39-.544.39-.312 0-.544-.079-.544-.39 0-.544-.08-24.523.544-24.523z" fill="#7AC427"/><path d="M.35 63.551a1.156 1.156 0 001.088 1.223 1.223 1.223 0 001.088-1.223c0-.611-.464-3.894-1.088-3.894-.624 0-1.088 3.27-1.088 3.894z" fill="#452F1B"/><path d="M1.204 78.347a.532.532 0 00-.544.544.52.52 0 00.544.465h.391a.5.5 0 00.34-.83.52.52 0 00-.34-.18h-.391zm0 4.983a.52.52 0 00-.544.464.532.532 0 00.544.544h.391a.52.52 0 00.465-.544.501.501 0 00-.465-.465h-.391z" fill="#D5EA93"/><path d="M-.506 68.302c-.703.856.544 1.944 1.559 2.103h.61c1.089-.153 2.257-1.223 1.633-2.103a4.347 4.347 0 01-1.944 1.32 3.729 3.729 0 01-1.87-1.32h.012zm0 5.374c-.703.776.544 1.87 1.559 2.023.152.08.232 0 .311 0h.312c1.088-.152 2.256-1.222 1.632-2.023a4.218 4.218 0 01-1.944 1.222 3.619 3.619 0 01-1.87-1.222z" fill="#43992B"/><path d="M6.42 68.222c.611 0 .464 15.413.464 15.957 0 .391-.232.391-.464.391-.233 0-.544-.079-.544-.39 0-.545-.153-15.958.544-15.958z" fill="#7AC427"/><path d="M5.253 69.934a1.223 1.223 0 001.089 1.223 1.156 1.156 0 001.088-1.223c0-.697-.392-3.894-1.088-3.894-.697 0-1.089 3.191-1.089 3.894z" fill="#452F1B"/><path d="M4.556 74.061c-.703.776.544 1.944 1.559 2.103.153 0 .232 0 .312-.08a.611.611 0 00.312.08c1.088-.153 2.335-1.32 1.632-2.103a4.212 4.212 0 01-1.944 1.223 3.967 3.967 0 01-1.87-1.223zm0 5.295c-.703.776.544 1.944 1.559 2.103h.611c1.088-.153 2.336-1.32 1.633-2.103a4.347 4.347 0 01-1.944 1.32 4.108 4.108 0 01-1.871-1.32h.012z" fill="#43992B"/><path d="M56.408 70.637c0 3.503-5.606 6.304-12.532 6.304s-12.611-2.8-12.611-6.304c0-3.503 5.685-6.303 12.611-6.303 6.926 0 12.532 2.88 12.532 6.303z" fill="#236949"/><path d="M38.729 63.551c-.544 0-1.015 7.086-1.015 8.254 0 .611.465.611 1.015.611.55 0 .935-.08.935-.611 0-1.168-.465-8.254-.935-8.254zm10.508-.544c-.544 0-1.015 5.839-1.015 7.006 0 .612.465.612 1.015.612.55 0 .935-.08.935-.612 0-1.167-.464-7.006-.935-7.006zm-5.056-2.176c-.544 0-.935 5.062-.935 6.23 0 .61.391.61.935.61.545 0 1.015-.079 1.015-.61 0-1.168-.464-6.23-1.014-6.23z" fill="#589418"/><path d="M45.813 58.024a3.363 3.363 0 00-1.944 1.01c-.08-.08-.153-.08-.233-.154a3.698 3.698 0 00-2.726-.153c-.232.08-.391.153-.391.233-.232.391.464 2.182 1.48 2.727a1.51 1.51 0 002.102-.233 1.412 1.412 0 001.944-.611c.465-.936.232-2.568-.08-2.727 0-.08-.079-.08-.152-.08v-.012zm1.559 2.727h-.08c-.391.153-.611 1.871-.08 2.727a1.221 1.221 0 001.871.611c.465.612 1.168.856 2.103.312 1.088-.611 1.791-2.415 1.559-2.8a1.27 1.27 0 00-.465-.232 3.777 3.777 0 00-2.726.232c-.08 0-.08.08-.153.08-.611-.545-1.559-1.01-2.023-.936l-.006.006zm-6.926 1.633a3.526 3.526 0 00-2.024 1.014l-.153-.152a4.236 4.236 0 00-2.726-.233 1.222 1.222 0 00-.465.312c-.232.391.465 2.103 1.56 2.727.934.544 1.631.312 2.102-.312a1.222 1.222 0 001.87-.544c.545-.936.312-2.568-.079-2.8l-.085-.012z" fill="#71BD21"/><path d="M6.89 92.28c0 3.424 5.685 6.23 12.611 6.23 6.926 0 12.532-2.8 12.532-6.23 0-3.43-5.606-6.303-12.532-6.303S6.89 88.777 6.89 92.28z" fill="#236949"/><path d="M24.618 85.115c.544 0 1.015 7.16 1.015 8.254 0 .61-.465.703-1.015.703-.55 0-.935-.153-.935-.704 0-1.088.391-8.253.935-8.253zM14.11 84.65c.544 0 1.014 5.839 1.014 6.927 0 .612-.464.703-1.014.703s-.936-.153-.936-.703c0-1.088.392-6.927.936-6.927zm4.982-2.256c.544 0 1.015 5.136 1.015 6.23 0 .612-.465.703-1.015.703-.55 0-.935-.153-.935-.703 0-1.088.39-6.23.935-6.23z" fill="#589418"/><path d="M17.552 79.686H17.4c-.39.232-.611 1.87-.08 2.8.533.93 1.223.935 1.871.544a1.542 1.542 0 002.183.312c1.015-.612 1.711-2.336 1.48-2.727a1.698 1.698 0 00-.392-.312 4.175 4.175 0 00-2.726.233c-.08.079-.153.079-.233.152a3.362 3.362 0 00-1.944-1.014l-.006.012zm-1.632 2.647a3.361 3.361 0 00-1.944 1.015c-.08 0-.153-.08-.232-.153a4.138 4.138 0 00-2.727-.153c-.232.08-.391.153-.391.233-.232.39.465 2.182 1.48 2.8a1.614 1.614 0 002.182-.312 1.345 1.345 0 001.87-.612c.544-.935.233-2.567-.08-2.726 0-.08-.079-.08-.152-.08l-.006-.012zm7.005 1.712h-.14c-.312.153-.544 1.87 0 2.727a1.224 1.224 0 001.87.611c.465.611 1.168.856 2.103.312 1.088-.612 1.712-2.415 1.56-2.8a1.276 1.276 0 00-.465-.233 3.729 3.729 0 00-2.727.233.269.269 0 00-.153.08c-.61-.545-1.558-1.01-2.023-.936l-.024.006z" fill="#71BD21"/><path d="M1.205 74.532a5.765 5.765 0 012.256.611c2.726 1.712 2.8 6.615 1.167 9.342-1.32 2.024-4.047 3.583-5.917 2.8.08 4.983 0 10.742 0 11.366 0 .623-.391.703-.935.703-.545 0-1.015-.08-1.015-.703 0-.624-.08-8.639.232-13.934-.611.392-1.4.704-1.87.392-1.945-1.168-1.871-4.592-.465-6.774a8.277 8.277 0 016.54-3.816l.007.013zm-12.69 13.31a8.973 8.973 0 015.446 2.176c1.944 1.791 2.959 5.136 1.32 6.854-.39.464-1.32.232-2.103 0 .08 2.88.08 5.991.08 6.541 0 .551-.428.728-1.003.728-.574 0-.935-.079-.935-.703 0-.312-.08-1.559-.08-2.959-1.711.391-3.967-.391-5.446-1.712-2.415-2.256-3.582-7.086-1.32-9.495a5.281 5.281 0 014.046-1.4l-.006-.03zM6.73 89.553a4.053 4.053 0 012.88 1.168c1.943 2.103.935 6.23-1.168 8.174a5.378 5.378 0 01-4.67 1.4v1.321c0 .544-.465.703-1.015.703-.55 0-.936-.079-.936-.703 0-.391-.08-2.256 0-4.206a1.553 1.553 0 01-1.479-.153c-1.4-1.4-.544-4.28 1.088-5.839a7.27 7.27 0 015.294-1.87l.006.005z" fill="#7EBB1B"/><path d="M1.131 76.629c-3.35-.232-7.397 4.824-4.75 7.337.544.311 1.712-.777 1.712-.777.703-2.183 2.103-5.135 3.668-6.383-.232-.08-.391-.08-.611-.153l-.019-.024zm-13.155 13.39a3.343 3.343 0 00-1.944.543c1.944.703 4.28 2.96 5.606 4.824 0 0 1.559.612 1.944.08 1.632-2.336-2.488-5.503-5.606-5.448zm17.978 1.479c-2.488 0-5.758 2.568-4.358 4.438.312.392 1.48-.152 1.48-.152 1.087-1.4 2.958-3.271 4.437-3.736a2.244 2.244 0 00-1.559-.544v-.006z" fill="#699619"/><path d="M64.878 45.803c2.256 0 4.824.776 5.991 1.712 1.168.935 1.32 2.568-.464 3.112-.856.311-2.647-.544-2.647-.544s.611 1.167-.233 1.48c-1.711.543-4.517-.233-5.758-1.169-1.559-1.32-1.48-3.503 1.015-4.28a5.98 5.98 0 012.103-.311h-.007zm11.909 5.447c1.4-.08 2.8.153 3.502.703 1.015.856-.232 2.183-1.944 2.727-1.4.392-3.502.465-4.279-.153-.311-.312.777-.935.777-.935s-1.633.232-1.944 0c-.777-.611.232-1.56 1.559-2.024.764-.19 1.547-.295 2.335-.312l-.006-.006zm-19.562.856a3.917 3.917 0 011.48.233c.464.232-.233.935-.233.935s1.4-.391 1.944-.153c1.015.465.544 1.56-.544 2.103-1.4.703-4.359 1.089-5.759.392-1.4-.697-.935-2.104.465-2.88a5.543 5.543 0 012.647-.611v-.019zm8.436 2.513c.524-.03 1.05.021 1.559.153.856.232.311 1.4.311 1.4s1.712-.856 2.568-.611c1.87.464 2.023 2.023.856 3.111-1.4 1.223-5.215 2.336-7.862 1.633-2.647-.703-2.958-2.88-1.558-4.206a7.28 7.28 0 014.126-1.48z" fill="#91D71F"/><path d="M79.362 43.156c0 3.503 5.606 6.303 12.532 6.303s12.611-2.8 12.611-6.303c0-3.504-5.606-6.23-12.611-6.23-7.006 0-12.532 2.8-12.532 6.23z" fill="#236949"/><path d="M86.83 28.446c.704 0 .545 13.621.545 14.245 0 .391-.233.391-.544.391-.312 0-.465-.08-.465-.391 0-.611-.153-14.245.465-14.245zm2.648-14.093c.703 0 .544 26.155.544 26.7 0 .39-.232.39-.544.39-.312 0-.464-.079-.464-.39 0-.545-.153-26.7.464-26.7z" fill="#7EBB1B"/><path d="M91.252 30.549c-.612.544-1.168 9.886-1.223 10.662 0 .312-.935.465-1.015 0 .233-2.567.233-8.718 2.256-10.662h-.018zm-3.878 12.533c-.153.392-1.014.312-1.088-.08 0-.776-.703-10.197-1.222-10.662 2.023 2.256 2.414 7.55 2.335 10.742h-.025z" fill="#699619"/><path d="M89.417 16.848h.312a1.223 1.223 0 011.167 1.223v5.368a1.223 1.223 0 01-1.167 1.223h-.312a1.223 1.223 0 01-1.168-1.223v-5.374a1.223 1.223 0 011.168-1.223v.006z" fill="#7C5C3F"/><path d="M89.417 16.848h.312a1.223 1.223 0 011.167 1.223v5.368a1.223 1.223 0 01-1.167 1.223h-.312a1.223 1.223 0 01-1.168-1.223v-5.374a1.223 1.223 0 011.168-1.223v.006zm7.612 5.912h.336a1.223 1.223 0 011.168 1.223v5.374a1.272 1.272 0 01-1.168 1.223h-.312a1.271 1.271 0 01-1.167-1.223v-5.374a1.222 1.222 0 011.167-1.223h-.024z" fill="#7C5C3F"/><path d="M93.446 25.884c.611 0 .465 18.837.465 19.46 0 .312-.233.392-.465.392s-.544-.08-.544-.392c0-.611-.153-19.46.544-19.46z" fill="#7EBB1B"/><path d="M93.916 45.73c-.153.312-1.014.312-1.088-.08 0-.856-.703-10.198-1.222-10.662 2.023 2.256 2.414 7.55 2.335 10.742h-.025z" fill="#699619"/><path d="M91.25 63.398c2.257 0 4.824.777 5.992 1.712 1.167.936 1.32 2.568-.465 3.112-.776.233-2.647-.611-2.647-.611s.611 1.223-.153 1.48c-1.79.544-4.59-.153-5.838-1.168-1.558-1.223-1.48-3.504 1.015-4.28a9.168 9.168 0 012.103-.232l-.006-.013z" fill="#91D71F"/><path d="M98.275 63.178a13.9 13.9 0 00-1.4 2.024 13.164 13.164 0 00-2.023-.856c-.312 3.668-.544 3.895 3.27 5.502v.153h.08l.08.08a.073.073 0 01.079-.08h.08v-.153c3.814-1.632 3.581-1.87 3.27-5.502-.703.214-1.381.5-2.024.856-.311-.544-.776-1.168-1.4-2.024h-.012z" fill="#BA63FF"/><path d="M93.372 65.19c.611 3.968.391 4.127 4.89 4.89 4.438-.776 4.279-.934 4.891-4.89-3.968 1.48-3.815 1.632-4.89 4.89-1.089-3.27-.936-3.423-4.891-4.89z" fill="#BA63FF"/><path d="M74.22 69.39c-2.256 0-4.75.776-5.917 1.712-1.168.935-1.4 2.568.39 3.112.857.232 2.727-.544 2.727-.544s-.703 1.167.153 1.4c1.791.611 4.518-.153 5.759-1.168 1.559-1.223 1.479-3.424-1.015-4.206a5.961 5.961 0 00-2.103-.312l.006.006zm-11.908 5.447c-1.4-.08-2.8.16-3.423.612-1.089.856.232 2.256 1.943 2.8 1.32.391 3.503.465 4.206-.153.392-.312-.776-.935-.776-.935s1.632.232 2.023-.08c.703-.544-.311-1.559-1.632-1.944a7.086 7.086 0 00-2.335-.312l-.006.012zm19.562.777a2.97 2.97 0 00-1.48.312c-.464.152.312.935.312.935s-1.48-.391-1.944-.153c-1.088.465-.544 1.48.544 2.103 1.32.703 4.28 1.089 5.759.392s.856-2.177-.465-2.88a7.383 7.383 0 00-2.726-.703v-.006zm-8.406 2.568a4.602 4.602 0 00-1.48.08c-.855.231-.39 1.479-.39 1.479s-1.712-.856-2.568-.612c-1.87.465-1.944 2.024-.856 3.057 1.4 1.32 5.294 2.415 7.862 1.712 2.567-.703 2.958-2.88 1.558-4.206a6.76 6.76 0 00-4.126-1.48v-.03z" fill="#91D71F"/><path d="M70.253 74.22c.611 0 .465 2.415.465 3.35 0 .544-.233.612-.465.612s-.465-.153-.465-.612c0-.935-.153-3.35.465-3.35zm5.215-10.51c.612 0 .465 11.616.465 12.533 0 .465-.153.545-.465.545-.311 0-.464-.153-.464-.544 0-.936-.153-12.534.464-12.534z" fill="#7AC427"/><path d="M75.546 58.648c-.465.703-.703 2.88-.856 3.191-.391-.152-1.088-2.023-1.791-2.256-.233 2.96.08 4.28 2.567 5.374v.056h.08v.079l.079-.08h.08v-.079c2.414-1.088 2.8-2.415 2.567-5.374-.703.232-1.48 2.103-1.791 2.256-.232-.312-.391-2.488-.935-3.191v.024z" fill="#F784FF"/><path d="M76.946 63.245c0 .312-.611.465-1.4.465-.788 0-1.32-.153-1.32-.465 0-.311.611-.464 1.32-.464.71 0 1.4.232 1.4.465z" fill="#FFF017"/><path d="M71.731 61.216c3.112 1.088 3.112 1.712 3.815 3.894-2.88-.544-3.35-.856-3.815-3.894z" fill="#F784FF"/><path d="M79.435 61.216c-3.191 1.088-3.112 1.712-3.894 3.894 2.959-.544 3.423-.856 3.894-3.894zm-9.263 8.877c-.39.391-.544 1.87-.611 2.103-.232-.08-.544-1.32-.935-1.48-.08 1.945-1.015 3.504 1.48 4.592v.098c.079 0 .079 0 .079.08 0-.08 0-.08.08-.08 0-.08-.001-.08.079-.08 2.414-1.088 1.479-2.647 1.4-4.591-.392.153-.704 1.4-.936 1.48-.153-.233-.312-1.633-.611-2.104l-.025-.018z" fill="#F784FF"/><path d="M71.5 73.572c0 .312-.544.465-1.32.465-.777 0-1.32-.153-1.32-.465 0-.312.543-.465 1.32-.465.776 0 1.32.233 1.32.465z" fill="#FFF017"/><path d="M67.446 71.652c2.255.777 2.023 1.633 2.726 3.815-2.959-.544-2.415-1.791-2.726-3.815zm5.466 0c-2.255.777-2.023 1.633-2.726 3.815 2.959-.544 2.415-1.791 2.726-3.815z" fill="#F784FF"/><path d="M95.084 52.498c0 3.503 5.605 6.303 12.532 6.303 6.926 0 12.611-2.8 12.611-6.303 0-3.504-5.685-6.23-12.611-6.23-6.927 0-12.532 2.8-12.532 6.23z" fill="#236949"/><path d="M59.664 90.88a4.592 4.592 0 00-1.088.153c-.611.153-.233 1.009-.233 1.009s-1.222-.612-1.87-.465c-1.32.312-1.4 1.48-.611 2.183 1.014.935 3.735 1.712 5.605 1.223 1.87-.49 2.103-2.104 1.088-3.057a5.103 5.103 0 00-2.879-1.089l-.012.043zm-15.642-5.295c-1.4-.079-2.8.153-3.503.704-1.015.855.232 2.182 1.944 2.726 1.4.465 3.503.465 4.28-.153.311-.232-.777-.855-.777-.855s1.632.152 1.944-.08c.776-.611-.232-1.559-1.559-2.024a10.584 10.584 0 00-2.335-.311l.006-.007z" fill="#91D71F"/><path d="M48.069 84.577a7.902 7.902 0 00-.544 1.32c-.233-.153-.465-.544-.777-.776-.153 2.415-.232 2.8 1.223 3.894v.08a.075.075 0 01.058.021.074.074 0 01.021.058v-.08h.08v-.079c1.48-1.088 1.4-1.48 1.32-3.894-.391.232-.611.611-.856.776a44.095 44.095 0 00-.544-1.32h.019z" fill="#fff"/><path d="M48.068 84.577a6.33 6.33 0 00-.777 1.32 8.754 8.754 0 00-1.4-.544c-.232 2.415 0 2.568 2.103 3.669v.079a.073.073 0 01.08.08v-.08h.08v-.08c2.023-1.088 2.255-1.222 2.102-3.668-.486.127-.956.31-1.4.544-.232-.39-.464-.776-.776-1.32h-.012z" fill="#fff"/><path d="M49.467 87.297c0 .312-.611.465-1.4.465-.789 0-1.4-.153-1.4-.465 0-.311.611-.464 1.4-.464.789 0 1.4.153 1.4.464z" fill="#FFF017"/><path d="M45.263 85.586c.391 2.88.232 3.056 2.8 3.582 2.567-.544 2.414-.703 2.8-3.582-2.256 1.088-2.183 1.167-2.8 3.582-.611-2.415-.544-2.488-2.8-3.582z" fill="#fff"/><path d="M44.792 85.897c.392 2.648.233 2.727 3.27 3.271 2.96-.544 2.8-.611 3.271-3.27-2.646 1.008-2.567 1.088-3.27 3.27-.776-2.182-.611-2.256-3.27-3.27z" fill="#fff"/><path d="M46.117 90.257c.499-.036 1 .016 1.48.152.856.233.391 1.48.391 1.48s1.712-.935 2.568-.703c1.87.464 1.943 2.103.855 3.112-1.4 1.32-5.294 2.415-7.861 1.712-2.568-.704-2.959-2.96-1.559-4.207a7.334 7.334 0 014.126-1.559v.013z" fill="#91D71F"/><path d="M55.385 83.403c-.233.544-.392 1.009-.545 1.32a3.602 3.602 0 00-.776-.776c-.08 2.489-.232 2.88 1.223 3.895v.153a.073.073 0 00.075-.048.073.073 0 00.004-.032v.08c.08 0 .08 0 .08-.08v-.08c1.479-1.014 1.479-1.4 1.32-3.894-.312.232-.611.611-.856.777a12.06 12.06 0 00-.544-1.321l.019.006z" fill="#fff"/><path d="M55.385 83.403c-.312.544-.544 1.009-.703 1.32-.312-.152-.935-.311-1.48-.544-.152 2.415.08 2.648 2.104 3.669V88l.079-.08V88c.08 0 .08 0 .08-.08a.075.075 0 00.02.058.073.073 0 00.059.022v-.153c2.023-1.015 2.256-1.223 2.023-3.669-.544.233-1.088.392-1.4.544a9.247 9.247 0 00-.776-1.32h-.006z" fill="#fff"/><path d="M56.785 86.13c0 .312-.61.544-1.4.544-.788 0-1.32-.233-1.32-.544 0-.312.611-.465 1.32-.465.71 0 1.4.232 1.4.465z" fill="#FFF017"/><path d="M52.58 84.418c.39 2.88.232 3.057 2.8 3.582 2.567-.544 2.487-.703 2.8-3.582-2.256 1.088-2.183 1.167-2.8 3.582-.612-2.415-.465-2.494-2.8-3.582z" fill="#fff"/><path d="M52.127 84.73c.464 2.647.311 2.8 3.27 3.27 3.057-.464 2.88-.61 3.27-3.27-2.646 1.008-2.487 1.088-3.27 3.27-.703-2.182-.544-2.255-3.27-3.27zM53.593 88c-.232.545-.39 1.01-.544 1.321a3.596 3.596 0 00-.776-.776c-.08 2.488-.232 2.88 1.32 3.968v.08c.08 0 .08 0 .08-.08 1.48-1.089 1.48-1.48 1.32-3.968a7.204 7.204 0 00-.776.776c-.153-.312-.312-.776-.611-1.32h-.013z" fill="#fff"/><path d="M53.596 88c-.312.545-.544 1.01-.703 1.321-.312-.153-.856-.312-1.48-.544-.153 2.495.08 2.647 2.103 3.736v.08a.073.073 0 00.08-.08v.08c.079 0 .079 0 .079-.08 0 .08 0 .08.08.08v-.068c2.023-1.088 2.255-1.223 2.102-3.736-.61.233-1.167.392-1.479.544a9.254 9.254 0 00-.776-1.32L53.596 88z" fill="#fff"/><path d="M54.994 90.721c0 .312-.611.544-1.4.544-.788 0-1.32-.232-1.32-.544 0-.312.611-.465 1.32-.465.71 0 1.4.233 1.4.465z" fill="#FFF017"/><path d="M50.788 89.01c.392 2.879.233 3.056 2.8 3.668 2.568-.612 2.488-.777 2.8-3.669-2.256 1.089-2.103 1.223-2.8 3.583-.611-2.335-.465-2.494-2.8-3.583z" fill="#fff"/><path d="M50.324 89.4c.464 2.568.311 2.727 3.27 3.271 3.057-.544 2.88-.703 3.27-3.27-2.646.935-2.487 1.088-3.27 3.191-.703-2.103-.544-2.256-3.27-3.191z" fill="#fff"/><path d="M93.697 83.25c.364-.015.73.012 1.088.08.61.153.232 1.008.232 1.008s1.223-.61 1.87-.464c1.321.391 1.4 1.48.612 2.256-1.015.935-3.815 1.712-5.606 1.168-1.791-.545-2.103-2.024-1.167-2.96a5.611 5.611 0 012.958-1.088h.013z" fill="#91D71F"/><path d="M97.976 75.7c.312.61.544 1.008.703 1.4a7.03 7.03 0 011.48-.612c.152 2.495-.08 2.647-2.103 3.736v.073h-.08v.08a.073.073 0 01-.08-.08h-.079v-.08c-2.023-1.088-2.255-1.222-2.102-3.735a7.039 7.039 0 011.479.611c.218-.488.477-.956.776-1.4l.006.007z" fill="#fff"/><path d="M100.763 76.788c-.391 2.88-.233 2.959-2.8 3.583-2.567-.612-2.488-.703-2.8-3.583 2.256 1.009 2.103 1.168 2.8 3.583.611-2.415.465-2.568 2.8-3.583z" fill="#fff"/><path d="M101.234 77.1c-.465 2.647-.312 2.726-3.27 3.27h-.08c-2.96-.544-2.8-.611-3.191-3.27 2.647 1.014 2.488 1.088 3.27 3.27.703-2.176.544-2.256 3.271-3.27z" fill="#fff"/></g><circle cx="48" cy="48" r="47" stroke="#fff" stroke-width="2"/></svg>