<svg width="96" height="96" viewBox="0 0 96 96" fill="none" xmlns="http://www.w3.org/2000/svg" preserveAspectRatio="none"><circle cx="48" cy="48" r="47" fill="#fff" stroke="#fff" stroke-width="2"/><mask id="a" mask-type="alpha" maskUnits="userSpaceOnUse" x="0" y="0" width="96" height="96"><circle cx="48" cy="48" r="48" fill="#C07248"/></mask><g mask="url(#a)"><path d="M125-13H-28.48V99H125V-13z" fill="#fff"/><path opacity=".62" d="M125-13H-28.48V99H125V-13z" fill="url(#paint0_radial)"/><path fill-rule="evenodd" clip-rule="evenodd" d="M74.3 25.607l.261 8.223-1.243 2.53.393 12.334-2.287 8.962 10.39 1.37 18.362-.949 24.635 1.475-.065-8.223-1.112-6.22 1.046-9.697-2.287-5.377-.784-8.96-12.024-9.489-6.076.738-1.046 1.265-5.75 4.743-6.34-2.635-7.775 4.218-1.111 1.581-4.116 1.16-3.072 2.95z" fill="url(#paint1_linear)"/><path fill-rule="evenodd" clip-rule="evenodd" d="M90.022 15.889c.286 1.6 2.77 15.83 2.77 15.83l5.948 8.014 9.211.949-10.324-9.171-.914-13.177-6.691-2.445z" fill="#F4F9FC"/><path fill-rule="evenodd" clip-rule="evenodd" d="M77.37 22.655l2.055 14.704-.85 19.819 2.419-20.873.492-14.809-4.116 1.16z" fill="#53C1EC"/><path d="M124.999 56.225H-28.482V99h153.481V56.225z" fill="url(#paint2_linear)"/><path fill-rule="evenodd" clip-rule="evenodd" d="M93.115 56.225v.013l-.883-.013h-8.919c1.27.056 2.156.09 3.46.129v.062c-.905-.028-2.264-.105-3.172-.118-.453.011.904.133.451.144a27.598 27.598 0 00-1.362-.034l4.533.176c.453.042.906.085.904.147 1.814.005 3.626.112 5.428.321.337.052 1.685.064 2.914.07 7.641.221 15.723.147 22.901.324l1.812.114c1.192.024 2.482.032 3.807.028v-1.363H93.115z" fill="#195172"/><path opacity=".8" fill-rule="evenodd" clip-rule="evenodd" d="M82.576 62.626h-1.36c7.7.095 15.85.062 23.098.136l1.812.047c3.621.03 8.151 0 11.771-.041a36.364 36.364 0 003.169-.168c.453-.028.906-.082.453-.105-.906 0-3.169 0-3.169-.05 0-.013.451-.015.904-.017 0-.05 1.357-.16 1.808-.162.451-.002 3.169-.12 3.62-.148 1.357-.046-2.72-.216-4.53-.246-.906-.022 0-.063 0-.103-.906.017-1.359-.02-2.264 0h-4.073s-.453.015-1.81.019c-.453 0-.453.015-.453.028v-.026c-.453.026-1.359 0-1.812.019v-.027c-.904.03-1.81 0-2.714.021v-.026c-.453 0-.904 0-.906-.011v-.026c-.453-.012-1.359.016-1.359-.01v.026c-1.812 0-3.169 0-4.526-.017-3.62-.046-8.147-.016-12.22 0-.453 0-.904.025-.453.05h-1.359c-.904 0-.453.038-1.357.036-3.619.023-7.237.013-10.856-.03-1.808-.02-3.616-.04-5.428-.076-.902-.019-1.804-.035-2.7-.063-.45-.012-.892-.03-1.335-.049-.227 0-.431-.024-.646-.037-.215-.013-.375-.036-.528-.049.262.04.722.073 1.102.099.38.026.787.047 1.181.06.783.033 1.57.054 2.473.069 0 .013 0 .037.45.046 2.708.064 5.875.066 7.23.127.453.017.904.058 2.26.068h-1.358v.039l5.885.069v.037h.904c.904.094-4.075.066-6.34.06v.052h.906v.026a963.322 963.322 0 01-7.697-.072l1.812.024c0 .013 0 .026.451.03l-5.886-.086c-.453 0 0 .052 1.353.095 1.353.043 2.265.04 3.624.056v.026c-.906-.011-2.265-.043-3.173-.048-.455 0 .904.054.451.06-.453.005-.908-.016-1.362-.014l4.533.073c.302-.002.605.019.904.062 2.265.01 4.075.06 5.428.132.472.011 2.733.011 4.092.015z" fill="#8FBCBB"/><path fill-rule="evenodd" clip-rule="evenodd" d="M97.345 68.359h-.897c5.082.058 10.463.037 15.247.082l1.196.028c2.391.017 5.382 0 7.772-.024a26.03 26.03 0 002.091-.103c.299-.017.597-.05.299-.064-.599 0-2.093 0-2.093-.03s.298 0 .598-.009a8.506 8.506 0 011.194-.099c.267-.015 1.727-.061 2.246-.082v-.056a76.52 76.52 0 00-2.849-.1c-.599-.014 0-.04 0-.062-.597.01-.897-.011-1.497 0h-2.686s-.3 0-1.194.01c-.3 0-.3 0-.3.018v-.015c-.299.017-.896 0-1.196.011v-.017c-.597.017-1.194 0-1.791.013v-.033h-.597v-.015c-.3 0-.897.01-.897 0v.015c-1.196 0-2.092 0-2.995-.011-2.39-.029-5.379-.012-8.067 0-.299 0-.597.014-.299.031h-.899c-.597 0-.3.023-.896.023-2.391.013-4.78.007-7.169-.02-1.194-.012-2.388-.023-3.579-.046-.595-.01-1.19-.02-1.782-.039-.297 0-.59-.019-.881-.03-.15 0-.285-.015-.427-.022-.142-.008-.243-.023-.348-.028.172.024.477.045.728.06a59.259 59.259 0 002.41.077s0 .023.298.027c1.788.04 3.879.04 4.773.077.3.01.597.035 1.498.04h-.897v.023l3.886.041v.024h.597c.597.056-2.69.04-4.185.036v.032h.599v.014a574.57 574.57 0 01-5.082-.044l1.196.015s0 .015.298.018l-3.886-.052c-.3 0 0 .032.893.058.893.026 1.497.024 2.392.034v.014c-.6 0-1.498-.026-2.095-.03-.299 0 .597.034.298.036-.3.002-.599 0-.9 0l2.995.045c.2-.001.399.011.597.037 1.497 0 2.69.038 3.586.08.303.01 1.799.01 2.697.012z" fill="#8FBCBB"/><path fill-rule="evenodd" clip-rule="evenodd" d="M-.578 62.147h-.896c5.081.031 10.463.02 15.247.044l1.196.015c2.39.01 5.381 0 7.771-.013 1.196 0 2.09-.056 2.09-.056.3-.01.598-.028.299-.035-.6 0-2.093 0-2.093-.017s.298 0 .597 0c0-.017.895-.052 1.194-.054.3-.002 2.09-.04 2.39-.049.897-.015-1.795-.073-2.994-.082-.6 0 0-.022 0-.033h-6.868c-.597.009-1.194 0-1.791 0h-4.488c-2.39-.015-5.38 0-8.067 0-.3 0-.598 0-.3.016h-.897c-.597 0-.299.013-.894.011A807.906 807.906 0 01-9.83 61.86c-.595 0-1.19-.011-1.781-.02l-.882-.017c-.15 0-.285 0-.427-.013-.142-.013-.243-.012-.348-.015.172.013.477.024.728.033.25.01.519.015.779.02.516.012 1.037.018 1.632.023 0 0 0 .013.296.015 1.787.023 3.88.023 4.774.041.3 0 .597.02 1.498.023h-.897v.013l3.884.022v.013h.597c.597.032-2.69.023-4.185.02v.017h.599c-1.793 0-3.287-.01-5.082-.024h1.196l.298.01-3.886-.028c-.3 0 0 .016.895.031l2.392.019c-.6 0-1.498-.015-2.095-.017-.3 0 .597.019.298.02h-.9l2.994.025c.3 0 .598.011.598.02 1.497 0 2.692.015 3.586.045.3.012 1.795.012 2.691.012zM9.398 71h-.733c4.159.031 8.563.02 12.478.044l.98.016c1.955.009 4.403 0 6.363-.014.98 0 1.713-.056 1.713-.056.245-.009.488-.028.243-.035-.488 0-1.712 0-1.712-.017s.243 0 .488 0c0-.017.734-.052.977-.054.243-.002 1.713-.04 1.956-.049.734-.014-1.47-.072-2.446-.082-.49 0 0-.022 0-.033h-5.631c-.488.01-.977 0-1.467 0h-3.669c-1.955-.015-4.402 0-6.601 0-.245 0-.489 0-.245.017h-.734c-.489 0-.245.013-.734.01-1.956.008-3.912.005-5.868-.009-.977 0-1.954-.013-2.929-.026-.486 0-.975-.01-1.458-.02-.243 0-.483-.01-.722-.015-.122 0-.232 0-.35-.013-.118-.013-.199-.011-.285-.015.142.013.391.024.595.033.204.01.425.015.639.02.423.012.85.02 1.336.023 0 0 0 .013.243.015 1.464.02 3.182.023 3.909.041.245 0 .488.02 1.222.023h-.734v.013l3.182.022v.013h.485c.488.032-2.201.023-3.425.02v.018h.49c-1.468 0-2.69-.012-4.16-.025h.98l.245.01-3.182-.028c-.245 0 0 .017.732.031l1.958.02c-.49 0-1.224-.016-1.715-.018-.245 0 .489.019.244.019H1.32l2.45.024c.245 0 .489.011.489.02 1.222 0 2.2.016 2.934.046.248.01 1.472.01 2.205.01zm44.289 1.728h-.561c3.198.032 6.586.021 9.598.045l.748.015c1.498.01 3.388 0 4.893-.013.749 0 1.31-.056 1.31-.056.188 0 .375-.028.188-.035-.375 0-1.31 0-1.31-.017s.187 0 .374 0a6.21 6.21 0 01.748-.054c.188 0 1.31-.04 1.498-.049.561-.015-1.123-.072-1.883-.082-.375 0 0-.02 0-.034h-4.306c-.373.01-.748 0-1.122 0h-2.808c-1.497-.014-3.386 0-5.078 0-.187 0-.374 0-.187.017h-.561c-.375 0-.188.013-.562.011-1.505.008-3.009.005-4.513-.009-.748 0-1.497-.013-2.246-.026-.374 0-.748-.011-1.123-.02l-.561-.017c-.094 0-.188 0-.27-.013-.082-.013-.153-.012-.219-.015.109.013.3.024.459.033.159.01.327.015.49.02a52.8 52.8 0 001.028.023s0 .013.187.015c1.123.023 2.433.023 3.006.043.187 0 .374.019.936.022h-.562v.014l2.447.022v.013h.374c.374.032-1.685.022-2.634.02v.017h.375c-1.123 0-2.07-.01-3.199-.024h.749l.187.01-2.447-.028c-.187 0 0 .016.562.031l1.497.019c-.374 0-.935-.015-1.31-.017-.187 0 .375.019.187.02h-.561l1.885.025c.125 0 .25.006.374.02.936 0 1.685.02 2.257.045.157.008 1.105.008 1.666.01zm-67.974-7.714h-.904c5.081.031 10.463.02 15.247.044l1.196.015c2.39.01 5.38 0 7.771-.013 1.196 0 2.093-.056 2.093-.056.3 0 .597-.028.297-.035-.599 0-2.092 0-2.092-.017s.297 0 .597 0c0-.017.895-.052 1.194-.054.3-.002 2.09-.04 2.39-.049.897-.015-1.795-.073-2.995-.082-.599 0 0-.022 0-.033H3.644c-.597.009-1.194 0-1.791 0h-4.489c-2.39-.015-5.38 0-8.067 0-.3 0-.597 0-.3.016h-.89c-.598 0-.3.013-.897.012a811.727 811.727 0 01-10.747-.036c-.596 0-1.19-.011-1.782-.02-.298 0-.59-.01-.882-.015-.15 0-.284 0-.427-.013-.142-.013-.241-.025-.355-.036.174.013.477.024.728.034a132.83 132.83 0 002.41.043s0 .013.296.015c1.788.022 3.88.022 4.775.043.3 0 .597.018 1.498.022h-.897v.013l3.886.022v.013h.593c.597.032-2.69.023-4.185.021v.017h.597c-1.793 0-3.287-.011-5.082-.025h1.196l.298.01-3.886-.028c-.3 0 0 .017.895.032l2.392.018c-.6 0-1.497-.015-2.095-.017-.3 0 .598.02.298.021h-.9l2.994.024c.3 0 .598.011.598.02 1.497 0 2.692.016 3.586.046.3.028 1.797.028 2.7.028zM30.58 75.586h-.897c5.081.032 10.462.02 15.247.045l1.196.015c2.39.01 5.38 0 7.771-.013 1.196 0 2.09-.056 2.09-.056.3-.01.598-.028.298-.035-.599 0-2.092 0-2.092-.017s.297 0 .597 0c0-.017.895-.053 1.194-.054.3-.002 2.09-.04 2.39-.049.897-.015-1.795-.073-2.995-.082-.598 0 0-.022 0-.034h-6.867c-.597.01-1.194 0-1.791 0h-4.489c-2.39-.014-5.379 0-8.067 0-.3 0-.597 0-.3.017h-.896c-.597 0-.3.013-.896.011a807.905 807.905 0 01-10.748-.035c-.595 0-1.19-.011-1.782-.02-.297 0-.59-.01-.881-.016-.15 0-.285 0-.427-.013-.142-.013-.243-.01-.348-.014.172.013.477.024.728.033.25.01.519.015.779.02.516.012 1.037.02 1.632.023 0 0 0 .013.296.015 1.787.02 3.88.022 4.774.041.3 0 .597.02 1.498.022h-.897v.013l3.884.023v.013h.597c.597.032-2.69.022-4.185.02v.017h.597c-1.793 0-3.287-.01-5.082-.024h1.196l.298.01-3.886-.029c-.3 0 0 .017.895.032l2.392.019c-.599 0-1.497-.015-2.095-.017-.299 0 .598.019.298.02h-.9l2.995.025c.299 0 .597.01.597.02 1.497 0 2.692.015 3.586.045.301.01 1.799.008 2.695.01z" fill="#CCE1F5"/><path fill-rule="evenodd" clip-rule="evenodd" d="M59.46 56.332h-1.414c8.018.032 16.512.02 24.06.045l1.89.015c3.773.009 8.491 0 12.263-.013 1.886 0 3.3-.056 3.3-.056.471-.01.936-.029.471-.036-.936 0-3.301 0-3.301-.017s.47 0 .936 0c0-.01.494-.026.995-.039H44.961c.26 0 .62.011.346.011h-1.419l4.722.025c.472 0 .936.01.936.02 2.359 0 4.245.015 5.66.045h4.255z" fill="#89BABB"/><path fill-rule="evenodd" clip-rule="evenodd" d="M86.852 76.525l-1.432-.037 1.432.037zm-7.326-1.151c.403.039.787.089 1.181.115.783.064 1.57.105 2.473.133 0 .024 0 .074.45.09 2.708.123 5.875.124 7.23.244.45.033.904.112 2.26.129l-1.358-.017v.075l5.885.132v.075h.905c.904.186-4.074.125-6.339.115v.1l.906.01v.05a526.41 526.41 0 01-6.265-.105l.375.009c0 .024 0 .048.45.058l-5.886-.166c-.453 0 0 .099 1.353.186 1.36.049 2.265.077 3.624.11v.05c-.906-.022-2.265-.083-3.173-.093-.453 0 .904.107.452.114-.453.008-.908-.03-1.363-.026l4.533.14c.453.034.906.07.904.118 2.265.022 4.075.116 5.428.257.337.041 1.685.05 2.915.056 7.64.187 15.722.118 22.9.26l1.812.091c1.192.019 2.482.026 3.807.023v-1.984h-.187v-.05c-.904.055-1.81.01-2.714.04v-.046a6.2 6.2 0 01-.906-.021v-.049c-.453-.022-1.359.032-1.359-.018v.05c-1.812 0-3.169-.013-4.526-.033-3.62-.088-8.147-.034-12.22 0-.453 0-.904.046-.453.099h-1.359c-.904 0-.453.072-1.357.069-3.622.043-7.242.013-10.856-.056-1.808-.041-3.618-.08-5.428-.15-.9-.033-1.805-.067-2.7-.121-.448-.02-.892-.058-1.335-.093-.227-.013-.431-.049-.646-.071a5.242 5.242 0 01-.528-.094c.367.09.74.154 1.115.195zm-91.163-6.216a41.363 41.363 0 014.492-.256c0-.049.375-.084.749-.118l3.755-.14c-.375 0-.75.011-1.123.026-.375.015.748-.106.374-.115-.749.009-1.872.07-2.62.093v-.05c1.123-.034 1.871-.06 2.994-.11 1.123-.086 1.498-.187 1.123-.187l-4.866.166c.374-.01.374-.035.374-.06l.315-.01c-1.752.051-3.345.081-5.189.105v-.048l.749-.011v-.1c-1.872 0-5.999.066-5.241-.115h.749v-.075l4.866-.132v-.075l-1.123.017c.626-.006 1.251-.05 1.872-.129 1.123-.12 3.743-.121 5.99-.244.374-.015.374-.066.374-.09a32.138 32.138 0 002.047-.132c.326-.027.644-.077.977-.116.31-.039.615-.101.914-.187-.144.04-.29.071-.438.093-.187.023-.348.058-.535.071-.375.036-.734.073-1.107.094-.748.056-1.497.087-2.234.121a257.16 257.16 0 01-4.493.15c-2.994.068-5.99.1-8.984.055-.749 0-.374-.073-1.123-.069h-1.123c.374-.05 0-.099-.374-.099-2.978-.028-6.214-.082-8.986-.028v1.951c4.701-.052 9.663-.052 14.425-.187 1.018-.009 2.136-.018 2.42-.06z" fill="#CCE1F5"/><path fill-rule="evenodd" clip-rule="evenodd" d="M24.113 93.213c-8.728-.373-17.467.2-26.195-.17-.64-.028-.079.152.23.165 8.73.373 17.467-.2 26.195.17.644.033.082-.144-.23-.165z" fill="#8CBBBB"/><path fill-rule="evenodd" clip-rule="evenodd" d="M-26.674 90.462s0 .013.243.015c1.464.022 3.182.022 3.908.043.245 0 .489.02 1.222.022h-.733v.013l3.182.023v.013h.477c.488.031-2.201.022-3.425.02v.017h.488c-1.28 0-2.373-.01-3.605-.02h.427l.245.009-3.182-.028c-.245 0 0 .017.732.032l1.958.018c-.49 0-1.224-.015-1.715-.017-.245 0 .489.02.244.02h-.736l2.45.025c.245 0 .489.011.489.02 1.223 0 2.2.016 2.935.046.187 0 .907 0 1.568.009 4.13.03 8.496.02 12.38.045l.979.015c1.956.009 4.404 0 6.363-.014.98 0 1.713-.055 1.713-.055.245-.01.489-.029.243-.036-.49 0-1.712 0-1.712-.017s.243 0 .488 0c0-.017.734-.052.977-.054.244-.002 1.713-.04 1.956-.048.734-.015-1.469-.073-2.446-.082-.49 0 0-.023 0-.034h-5.625c-.488.01-.977 0-1.467 0h-3.669c-1.956-.015-4.402 0-6.601 0-.245 0-.489 0-.245.017h-.732c-.489 0-.245.013-.734.01a543.91 543.91 0 01-5.868-.008c-.977 0-1.954-.013-2.929-.027-.487 0-.975-.01-1.458-.02l-.593-.02.471.014c.423.023.85.03 1.337.034z" fill="#89BABB"/><path fill-rule="evenodd" clip-rule="evenodd" d="M125 88.776c-1.872.487-6.341 1.08-16.947.933 0 0-7.722 3.24-13.85 3.838 0 0-31.045.665-31.902 1.143 0 0-13.997.916-15.058 1.991 0 0-.612-.836 2.326-1.553 1.167-.106 2.333-.23 3.497-.347 2.177-.222 4.35-.474 6.517-.782 1.498-.213 2.944-.668 4.457-.782.98-.073 1.95-.202 2.921-.338 2.134-.297 4.474-.525 6.449-1.426.25-.114 1.465-.822.765-1.225 0 0-2.081-1.194 1.103-1.306 0 0 5.99.955 10.65.239a380.26 380.26 0 016.575-.594c4.007-.334 8.02-.638 12.039-.786 3.596-.132 7.094-.146 10.68-.474 3.006-.276 6.012-.573 9.016-.876l.749-.065.013 2.41z" fill="#A1C8EB"/><path fill-rule="evenodd" clip-rule="evenodd" d="M22.486 95.179h-.43c2.405.032 4.953.02 7.215.045l.562.015c1.123.009 2.546 0 3.678-.013.561 0 .99-.056.99-.056.142-.01.283-.028.142-.036-.282 0-.99 0-.99-.017s.14 0 .283 0c.185-.033.373-.05.561-.054.143-.01.99-.039 1.123-.048.425-.015-.85-.073-1.415-.082-.282 0 0-.021 0-.034h-3.243c-.283.01-.562 0-.848 0H27.99c-1.123-.015-2.545 0-3.818 0-.14 0-.283 0-.14.017h-.425c-.283 0-.143.013-.425.01-1.123 0-2.263 0-3.394-.008-.561 0-1.123-.014-1.684-.027-.281 0-.562-.01-.843-.02l-.417-.015c-.071 0-.135 0-.202-.013s-.114-.011-.165-.015c.083.013.227.024.345.034.118.009.245.014.374.02.245.011.49.019.773.022 0 0 0 .014.14.016.846.022 1.837.022 2.26.042.14 0 .282.02.705.023h-.425v.013l1.838.022v.013h.283c.283.032-1.273.023-1.98.02v.018h.282c-.85 0-1.555-.011-2.405-.025h.562l.142.01-1.84-.028c-.142 0 0 .016.423.031l1.132.02c-.282 0-.707-.016-.992-.018-.142 0 .283.019.14.02h-.424l1.417.025c.094 0 .189.007.282.02.708 0 1.273.021 1.698.045.146.006.848.006 1.279.008zm15.411-1.673h-.425c2.405.032 4.953.021 7.216.045l.561.015c1.123.01 2.546 0 3.678-.013.562 0 .99-.056.99-.056.143-.01.283-.028.14-.035-.282 0-.99 0-.99-.017s.141 0 .283 0a3.53 3.53 0 01.562-.054c.142-.01.99-.04 1.123-.049.425-.015-.85-.073-1.415-.082-.283 0 0-.022 0-.034h-3.243c-.283.01-.561 0-.848 0h-2.12c-1.123-.014-2.546 0-3.819 0-.14 0-.282 0-.14.017h-.418c-.282 0-.142.013-.423.011-1.123 0-2.262 0-3.393-.009a72.24 72.24 0 01-1.685-.026c-.28 0-.561-.011-.842-.02l-.417-.016c-.071 0-.135 0-.202-.013-.068-.013-.115-.01-.165-.014.082.013.226.024.344.033a23.203 23.203 0 001.147.043s0 .013.141.015c.846.02 1.836.022 2.26.041.14 0 .282.019.707.022h-.425v.013l1.838.023v.013h.283c.282.032-1.273.022-1.98.02v.017h.282c-.848 0-1.556-.01-2.405-.024h.561l.143.01-1.84-.029c-.143 0 0 .017.423.032l1.132.019c-.283 0-.708-.015-.992-.017-.142 0 .283.019.14.02h-.425l1.417.025c.095 0 .19.006.283.02.707 0 1.273.02 1.698.045.129.008.838.008 1.261.01zm-50.014.917h-.423c2.405.031 4.952.02 7.215.044l.562.015c1.123.01 2.547 0 3.678-.013.561 0 .99-.056.99-.056.142-.009.282-.028.142-.035-.283 0-.99 0-.99-.017s.14 0 .282 0c.186-.033.374-.051.562-.054.142 0 .99-.04 1.123-.049.425-.015-.85-.072-1.415-.082-.283 0 0-.022 0-.033h-3.246c-.282.009-.561 0-.848 0h-2.122c-1.123-.015-2.546 0-3.818 0-.14 0-.283 0-.14.016h-.418c-.283 0-.142.013-.423.012-1.123 0-2.263 0-3.394-.01-.561 0-1.123-.013-1.684-.026-.28 0-.562-.011-.842-.02l-.418-.017c-.07 0-.135 0-.202-.013s-.114-.011-.165-.015a10.624 10.624 0 00.719.054c.245.011.49.017.773.022 0 0 0 .013.14.015.846.02 1.837.023 2.26.041.14 0 .282.02.705.023h-.425v.013l1.838.022v.013h.278c.282.032-1.273.023-1.98.02v.018h.282c-.848 0-1.556-.012-2.405-.025h.561l.142.01-1.841-.03c-.143 0 0 .017.423.032l1.132.018c-.283 0-.707-.015-.992-.017-.142 0 .283.02.14.021h-.424l1.416.024c.095 0 .19.007.283.02.708 0 1.273.021 1.698.046.138.01.848.01 1.27.013zm-4.087-14.448h-.724c4.103.058 8.449.037 12.312.082l.966.028c1.93.017 4.344 0 6.276-.024.563-.006 1.125-.04 1.684-.103.242-.017.483-.05.242-.063-.483 0-1.685 0-1.685-.03s.242 0 .483-.011a5.6 5.6 0 01.964-.1c.242-.016 1.685-.072 1.93-.089.724-.028-1.45-.13-2.415-.151-.483-.013 0-.04 0-.062-.483.011-.724-.01-1.207 0H.451s-.242 0-.966.011c-.241 0-.241 0-.241.017v-.015c-.242.017-.725 0-.966.012v-.015c-.483.016-.964 0-1.447.013v-.015h-.483v-.015c-.241 0-.724.01-.724 0v.015c-.966 0-1.685 0-2.413-.01-1.93-.028-4.342-.01-6.514 0-.241 0-.482.015-.241.032h-.726c-.483 0-.242.023-.723.023a351.264 351.264 0 01-8.679-.066c-.48-.01-.962-.02-1.44-.039-.239 0-.475-.019-.71-.03-.12 0-.23-.015-.345-.022-.114-.008-.187-.02-.28-.028.14.024.385.045.587.06a38.78 38.78 0 001.94.077s0 .021.239.027c1.443.04 3.133.04 3.855.077.242.01.482.035 1.206.04h-.724v.023l3.137.041v.022h.482c.483.056-2.173.04-3.378.038v.032h.483v.014a374.17 374.17 0 01-4.103-.044l.966.015s0 .015.241.018l-3.139-.052c-.241 0 0 .032.723.058.722.026 1.207.024 1.932.035v.015c-.483 0-1.208-.026-1.685-.03-.242 0 .483.034.241.036-.241.002-.483 0-.726 0l2.417.045c.161-.001.323.011.483.037 1.207 0 2.173.037 2.897.08a89.686 89.686 0 012.17-.009z" fill="#CCE1F5"/><path opacity=".8" fill-rule="evenodd" clip-rule="evenodd" d="M78.262 79.413h-.653c3.697.032 7.612.02 11.092.045l.87.015c1.74.01 3.914 0 5.653-.013.87 0 1.522-.056 1.522-.056.217 0 .434-.028.217-.036-.436 0-1.522 0-1.522-.016 0-.017.217 0 .434 0 .289-.034.579-.052.869-.055.217-.009 1.522-.039 1.739-.048.65-.015-1.31-.073-2.175-.082-.435 0 0-.023 0-.034h-5.001c-.435.01-.87 0-1.31 0h-3.261c-1.74-.015-3.912 0-5.868 0-.217 0-.434 0-.217.017h-.652c-.434 0-.217.013-.651.011-1.738.007-3.477.004-5.215-.01-.868 0-1.737-.012-2.603-.025-.433 0-.867-.012-1.297-.02l-.642-.016c-.109 0-.208 0-.311-.013-.103-.013-.176-.011-.253-.015.126.013.347.024.53.034.183.01.374.015.561.02.375.011.75.019 1.187.023 0 0 0 .013.215.015 1.301.02 2.823.022 3.473.04.217 0 .434.021 1.085.023h-.651v.013l2.826.022v.014h.434c.434.031-1.958.022-3.043.02v.017h.436c-1.31 0-2.39-.011-3.697-.024h.87l.218.009-2.827-.028c-.217 0 0 .017.65.032l1.74.018c-.434 0-1.087-.014-1.523-.016-.219 0 .434.018.217.018h-.655l2.177.025c.145 0 .29.006.434.02 1.088 0 1.956.02 2.61.045.23.01 1.315.01 1.968.011zm24.876 1.715h-.654c3.697.032 7.613.021 11.092.045l.871.015c1.738.01 3.913 0 5.652-.013.871 0 1.522-.056 1.522-.056.217-.01.434-.028.217-.035-.434 0-1.522 0-1.522-.017s.217 0 .435 0a8.39 8.39 0 01.868-.054c.217 0 1.522-.04 1.739-.049.651-.015-1.31-.073-2.175-.082-.434 0 0-.022 0-.034h-4.999c-.435.01-.869 0-1.311 0h-3.26c-1.739-.014-3.912 0-5.868 0-.217 0-.434 0-.217.017h-.652c-.434 0-.217.013-.651.011-1.738.008-3.476.005-5.215-.009-.868 0-1.737-.013-2.603-.026-.432 0-.867-.011-1.295-.02l-.642-.017c-.109 0-.208 0-.311-.013-.103-.013-.176-.012-.253-.015.126.013.347.024.53.033.183.01.374.015.561.02.375.012.75.02 1.187.023 0 0 0 .013.215.015 1.301.02 2.823.022 3.472.041.218 0 .435.02 1.086.023h-.653v.013l2.826.022v.013h.434c.435.032-1.956.022-3.043.02v.017h.434c-1.31 0-2.39-.01-3.696-.024h.87l.217.01-2.826-.028c-.217 0 0 .016.65.031l1.74.019c-.436 0-1.087-.015-1.524-.017-.217 0 .435.019.218.019h-.656l2.177.024c.145 0 .29.006.434.02 1.088 0 1.956.021 2.61.045.228.012 1.317.012 1.969.013zm-43.157-.274c-1.596-1.478-4.117-1.05-6.622-1.306-2.152-.225-2.91-1.188-5.13-1.165-2.16.02-4.225.797-6.364.987-2.089.187-4.762.213-6.476 1.027 2.472-.28 5.184-.243 7.706-.528 2.775-.314 3.399.308 5.89.709 1.726.278 4.305-.011 6.11-.01 2.462 0 3.7.245 5.875.729l-.989-.443z" fill="#CCE1F5"/><path opacity=".7" fill-rule="evenodd" clip-rule="evenodd" d="M43.102 86.835c-1.971-1.47-5.093-1.045-8.18-1.307-2.657-.222-3.593-1.18-6.335-1.159-2.668.02-5.219.792-7.862.982-2.58.187-5.88.213-8 1.02 3.053-.279 6.404-.242 9.518-.525 3.43-.312 4.199.306 7.274.705 2.132.276 5.312-.011 7.545-.01 3.043 0 4.57.244 7.256.725l-1.216-.431z" fill="#CCE1F5"/><path opacity=".8" fill-rule="evenodd" clip-rule="evenodd" d="M25.824 65.428c-.736-.681-1.9-.485-3.051-.605-.992-.102-1.34-.547-2.364-.537-1.024.009-1.947.373-2.937.455-.99.082-2.193.099-2.983.472 1.14-.128 2.39-.112 3.556-.242 1.28-.146 1.567.141 2.714.326.796.13 1.982 0 2.808 0 .913-.006 1.824.107 2.708.336l-.451-.205zM13.295 76.449c-.736-.682-1.9-.486-3.051-.605-.992-.103-1.34-.547-2.364-.538-1.024.01-1.947.374-2.937.456-.99.082-2.193.099-2.983.472 1.14-.129 2.39-.112 3.556-.243 1.28-.145 1.567.142 2.714.327.795.129 1.982 0 2.807 0 .914-.007 1.825.106 2.709.336l-.451-.205z" fill="#CCE1F5"/><path opacity=".8" fill-rule="evenodd" clip-rule="evenodd" d="M80.156 66.572c-.857-.793-2.214-.56-3.556-.704-1.155-.119-1.563-.636-2.755-.625-1.16.011-2.269.428-3.422.53-1.123.1-2.557.114-3.478.56 1.327-.15 2.784-.13 4.137-.284 1.497-.168 1.825.167 3.161.374.936.15 2.31 0 3.28 0a12.214 12.214 0 013.155.39l-.522-.24z" fill="url(#paint3_linear)"/><path fill-rule="evenodd" clip-rule="evenodd" d="M42.312 64.426h-.418c2.406.031 4.953.02 7.216.044l.561.015c1.123.01 2.548 0 3.678-.013.562 0 .99-.056.99-.056.143-.009.283-.028.14-.035-.282 0-.99 0-.99-.017s.141 0 .283 0a3.53 3.53 0 01.562-.054c.142-.01.99-.04 1.123-.049.425-.014-.85-.072-1.415-.082-.283 0 0-.022 0-.033h-3.245c-.282.009-.561 0-.848 0h-2.122c-1.123-.015-2.546 0-3.819 0-.14 0-.282 0-.14.016h-.425c-.282 0-.142.013-.423.012-1.123 0-2.263 0-3.393-.01a72.23 72.23 0 01-1.685-.026c-.28 0-.561-.011-.842-.02l-.417-.017c-.072 0-.135 0-.203-.013-.067-.013-.114-.011-.164-.015.082.013.226.024.344.034.118.009.245.014.374.02.246.011.49.017.773.022 0 0 0 .013.14.015.847.02 1.837.023 2.26.041.142 0 .283.02.706.023h-.425v.013l1.838.022v.013h.282c.283.032-1.272.023-1.98.02v.018h.283c-.848 0-1.556-.011-2.405-.025h.561l.142.01-1.84-.028c-.142 0 0 .016.423.031l1.133.02c-.283 0-.708-.016-.992-.018-.142 0 .282.019.14.019h-.425l1.417.024c.095 0 .19.007.283.02.707 0 1.273.021 1.698.046.133.01.85.01 1.267.013zm80.75 29.907c-8.729-.373-17.467.2-26.194-.17-.05 0-1.075.028-.875.172.364.261 1.064.25 1.488.267 8.73.373 17.467-.2 26.195.17.049 0 1.075-.028.874-.172-.365-.267-1.065-.252-1.488-.267zM56.186 75.831v.023l-.883-.013h-8.915c1.27.056 2.156.09 3.46.128v.062c-.905-.028-2.264-.105-3.172-.118-.453.011.904.133.451.144a28.115 28.115 0 00-1.363-.034l4.534.176c.453.043.906.086.904.147 1.814.005 3.626.113 5.428.321.337.053 1.684.064 2.914.07 7.64.222 15.722.147 22.9.324l1.812.114c1.31.026 2.74.034 4.202.028v-1.362l-32.272-.01z" fill="#CCE1F5"/><path opacity=".8" fill-rule="evenodd" clip-rule="evenodd" d="M58.404 85.304h-1.36c7.7.096 15.85.062 23.098.137l1.812.046c3.622.03 8.151 0 11.77-.04a36.34 36.34 0 003.17-.169c.453-.028.906-.082.453-.104-.906 0-3.17 0-3.17-.05 0-.014.452-.016.905-.017 0-.05 1.357-.161 1.808-.163.451-.002 3.169-.118 3.62-.147 1.357-.047-2.72-.217-4.53-.247-.906-.022 0-.063 0-.102-.906.016-1.359-.021-2.264 0h-4.073s-.453.015-1.81.018c-.453 0-.453.015-.453.028v-.026c-.453.026-1.36 0-1.812.019v-.047c-.904.028-1.81 0-2.714.02v-.026c-.453 0-.904 0-.906-.01v-.027c-.453-.011-1.359.017-1.359-.01v.027c-1.812 0-3.169 0-4.526-.017-3.62-.047-8.147-.017-12.22 0-.453 0-.904.024-.453.05h-1.36c-.904 0-.453.038-1.357.036-3.619.022-7.237.012-10.856-.03-1.808-.02-3.616-.041-5.428-.076-.902-.02-1.804-.036-2.699-.064-.451-.011-.893-.03-1.336-.048-.227 0-.43-.025-.646-.038-.215-.013-.374-.035-.528-.048.262.039.723.072 1.102.099.38.026.787.046 1.182.06.782.033 1.57.053 2.472.069 0 .013 0 .039.45.046 2.708.064 5.875.066 7.23.127.453.017.904.058 2.26.067H52.52v.04l5.885.069v.039h.904c.904.093-4.075.065-6.34.06v.052h.906v.024a812.68 812.68 0 01-7.696-.073l1.811.024c0 .013 0 .027.452.03l-5.887-.086c-.453 0 0 .05 1.353.096 1.353.044 2.265.039 3.624.056v.026c-.906-.011-2.265-.043-3.173-.049-.455 0 .904.054.451.06-.453.006-.907-.015-1.362-.013l4.533.073c.303-.002.605.019.904.061 2.265.011 4.075.06 5.428.133.466.033 2.733.032 4.092.035z" fill="#CCE1F5"/><path fill-rule="evenodd" clip-rule="evenodd" d="M60.414 87.964h-.897c5.082.058 10.463.037 15.247.082l1.197.028c2.39.017 5.38 0 7.77-.024 1.197-.013 2.092-.103 2.092-.103.3-.017.597-.05.3-.063-.6 0-2.094 0-2.094-.03s.298 0 .597-.01a8.7 8.7 0 011.195-.098c.3-.017 2.092-.073 2.39-.09.897-.028-1.795-.133-2.995-.151-.599-.013 0-.04 0-.062-.597.011-.896-.01-1.497 0h-2.684s-.3 0-1.194.011c-.3 0-.3 0-.3.017v-.015c-.3.017-.897 0-1.196.011v-.016c-.597.017-1.194 0-1.791.013v-.017h-.597v-.015c-.3 0-.897.01-.897 0v-.005c-1.196 0-2.092 0-2.995-.012-2.39-.028-5.379-.01-8.067 0-.3 0-.597.015-.3.03h-.896c-.597 0-.3.023-.896.023-2.391.013-4.78.007-7.169-.02a573.203 573.203 0 01-3.579-.046c-.595-.011-1.19-.02-1.782-.039-.297 0-.59-.019-.881-.03-.15 0-.285-.015-.427-.022-.142-.008-.243-.02-.348-.028.172.024.477.044.728.06a58.856 58.856 0 002.41.076s0 .024.298.028c1.788.04 3.879.04 4.773.076.3.012.597.036 1.498.042h-.897v.022l3.886.041v.024h.597c.597.056-2.69.04-4.185.036v.031h.599v.016c-1.793-.01-3.287-.021-5.082-.045l1.196.015s0 .014.298.018l-3.886-.052c-.3 0 0 .032.893.058.893.026 1.497.024 2.392.035v.015c-.6 0-1.498-.026-2.095-.03-.3 0 .597.034.298.036-.3.002-.6 0-.9 0l2.994.045c.2-.001.4.011.597.037 1.498 0 2.69.037 3.587.08.301.015 1.797.015 2.695.017z" fill="#8FBCBB"/><path fill-rule="evenodd" clip-rule="evenodd" d="M16.754 92.332h-.561c3.198.032 6.586.02 9.598.045l.749.015c1.497.01 3.387 0 4.892-.013.749 0 1.31-.056 1.31-.056.188-.01.375-.028.188-.036-.375 0-1.31 0-1.31-.017 0-.016.187 0 .374 0 .248-.033.498-.05.748-.054.188 0 1.31-.039 1.498-.048.561-.015-1.123-.073-1.883-.082-.374 0 0-.023 0-.034h-4.306c-.373.01-.748 0-1.122 0H24.12c-1.497-.015-3.386 0-5.078 0-.187 0-.374 0-.187.017h-.561c-.375 0-.188.013-.562.011-1.505.008-3.009.004-4.513-.01-.748 0-1.497-.012-2.246-.025-.374 0-.748-.012-1.123-.021l-.561-.017c-.094 0-.187 0-.27-.013-.082-.013-.153-.011-.219-.015.109.013.3.025.459.034.159.01.327.015.49.02.326.012.653.019 1.028.023 0 0 0 .013.187.015 1.123.022 2.433.022 3.006.043.187 0 .374.02.936.022h-.562v.013l2.447.022v.014h.374c.374.031-1.684.022-2.633.02v.017h.374c-1.123 0-2.07-.011-3.199-.024h.749l.187.009-2.446-.028c-.188 0 0 .017.561.032l1.498.018c-.375 0-.936-.015-1.31-.016-.188 0 .374.018.186.018h-.561l1.885.025c.125 0 .25.006.374.02.936 0 1.685.02 2.257.045.16.011 1.103.011 1.666.011zm5.776-16.395h-1.412c8.019.032 16.513.02 24.061.045l1.889.015c3.773.01 8.492 0 12.264-.013 1.886 0 3.3-.056 3.3-.056.471 0 .935-.028.471-.035-.936 0-3.302 0-3.302-.017s.47 0 .936 0c0-.01.494-.026.996-.04H8.029c.26 0 .622.012.347.012H6.957l4.722.024c.472 0 .936.011.936.02 2.359 0 4.245.016 5.66.045h4.255z" fill="#89BABB"/><path opacity=".8" fill-rule="evenodd" clip-rule="evenodd" d="M43.225 86.178c-.857-.793-2.214-.56-3.556-.704-1.155-.12-1.563-.636-2.755-.625-1.161.011-2.269.427-3.422.53-1.123.099-2.557.114-3.478.56 1.327-.15 2.784-.13 4.137-.284 1.497-.168 1.825.166 3.161.373.936.15 2.31 0 3.28 0a12.214 12.214 0 013.155.39l-.522-.24z" fill="#CCE1F5"/><path fill-rule="evenodd" clip-rule="evenodd" d="M5.38 84.03h-.424c2.405.03 4.952.02 7.215.044l.562.015c1.123.01 2.545 0 3.678-.013.561 0 .99-.056.99-.056.142-.01.282-.028.14-.036-.282 0-.99 0-.99-.016 0-.017.14 0 .283 0 .185-.033.373-.052.561-.055.143 0 .99-.039 1.123-.048.425-.015-.85-.073-1.415-.082-.282 0 0-.023 0-.034h-3.245c-.283.01-.562 0-.848 0h-2.121c-1.123-.015-2.545 0-3.818 0-.14 0-.283 0-.14.017h-.412c-.283 0-.143.013-.423.011-1.123 0-2.263 0-3.394-.01a72.74 72.74 0 01-1.684-.025c-.281 0-.562-.011-.843-.02l-.432-.029c-.071 0-.135 0-.202-.013-.068-.013-.114-.011-.165-.015.083.013.227.024.345.034a29.797 29.797 0 001.147.043s0 .013.14.015c.846.02 1.836.022 2.26.04.142 0 .282.021.705.023h-.425v.013l1.838.023v.013h.283c.283.031-1.273.022-1.98.02v.017h.282c-.85 0-1.555-.011-2.405-.024h.562l.142.009-1.84-.028c-.142 0 0 .017.423.032l1.132.018c-.282 0-.707-.014-.99-.016-.142 0 .283.018.14.018H.712l1.417.025a1.9 1.9 0 01.282.02c.708 0 1.273.02 1.698.045.138.024.848.024 1.273.024z" fill="#CCE1F5"/><path fill-rule="evenodd" clip-rule="evenodd" d="M74.586 79.026c.393-3.95-31.479-2.376-47.218-3.565l-55.85-1.153v5.342c36.712.556 69.478-.172 103.068-.624zM-15.72 94.968c7.189-4.822 13.158-6.793 15.348-3.43 1.776 2.726 7.226 3.25 10.66 3.224l-26.008.206z" fill="#F4F9FC"/><path fill-rule="evenodd" clip-rule="evenodd" d="M-15.727 94.99l.561.338c3.48.187 22.38 1.185 24.437-.56l-24.998.222z" fill="#3A96BC"/><path fill-rule="evenodd" clip-rule="evenodd" d="M124.997 91.46c-22.683 1.089-42.907.82-63.638.82-.273-3.935 19.303-2.8 28.955-4.217l34.683-1.943v5.34z" fill="#F4F9FC"/><path fill-rule="evenodd" clip-rule="evenodd" d="M124.998 92.677c-21.439-.112-64.061 1.456-63.639-.39 21.426.211 42.721.118 63.639-.829v1.22z" fill="#3A96BC"/><path fill-rule="evenodd" clip-rule="evenodd" d="M54.913 87.921c-4.421-2.964-8.092-4.177-9.44-2.107-1.092 1.68-4.443 2-6.55 1.982l15.99.125z" fill="#F4F9FC"/><path fill-rule="evenodd" clip-rule="evenodd" d="M54.92 87.934l-.35.21c-2.14.111-13.76.727-15.026-.342l15.376.132z" fill="#3A96BC"/><path fill-rule="evenodd" clip-rule="evenodd" d="M98.55 82.004l-.199 3.136-3.369 1.645.66 1.461-.544.549-1.321 1.34 30.696-.024-10.998-1.59-7.07.186c-3.837-.2-6.259-7.97-7.855-6.703z" fill="url(#paint4_linear)"/><path fill-rule="evenodd" clip-rule="evenodd" d="M85.645 78.43l-3.865-1.543-2.972.572-1.883 2.144-1.883 7.848-2.477 2.348-4.56.905 5.451.404 8.621-.27 17.342.202 1.834-.063-3.172-6.024-3.764-.537-6.705-1.82 2.69 5.46-6.143-4.83 6.242 2.85-5.548-3.956.494-1.376 2.38 1.006-1.785-1.844.1-1.074-.397-.403z" fill="url(#paint5_linear)"/><path fill-rule="evenodd" clip-rule="evenodd" d="M93.076 88.424l6.342 2.617 1.783-.034-5.748-3.59-7.133-3.722 4.062 1.074 6.145 3.621 2.725 2.587-3.173-6.024-3.764-.537-7.333-4.913.049-.754-1.387-.32.396.404-.099 1.073 1.602 1.658-2.197-.82-.494 1.376 5.548 3.957-6.243-2.85 6.144 4.829 2.775.368z" fill="#B7D8F2"/><path fill-rule="evenodd" clip-rule="evenodd" d="M83.316 82.639s-.445.57-.496.403c-.05-.166-3.32-3.173-3.32-3.173l.544-.52.1.604 3.172 2.686zm-2.396-5.587l4.724 1.377-3.865-1.542-.86.165z" fill="#F4F9FC"/><path fill-rule="evenodd" clip-rule="evenodd" d="M74.415 88.044l-1.462 1.387-.07 1.634-4.877-.36 5.431-1.378 1.257-.318 1.138 1.077h.527l-1.944-2.042z" fill="#005C79"/><path fill-rule="evenodd" clip-rule="evenodd" d="M95.453 87.417l-6.768-3.625 3.697.976 6.145 3.622 2.725 2.587-5.799-3.56z" fill="#F4F9FC"/><path fill-rule="evenodd" clip-rule="evenodd" d="M78.807 77.457l-1.883 2.147-1.883 7.847-.6.622 2.616 2.923-.813-4.947 2.563-8.592zm7.143 11.969l-8.892 1.57 9.886-.101 12.222.142-13.216-1.611z" fill="#0078A2"/><path d="M3.889 78.302l2.504-1.67 11.556-.24 2.698 1.433 9.822-.715-5.008-11.456-3.467.954-4.43-9.308-4.816-3.339-9.63-44.865L-.35 6.708l-19.645-4.534-6.355 1.193-2.133-1.027v75.485h14.46l17.911.477z" fill="url(#paint6_linear)"/><path fill-rule="evenodd" clip-rule="evenodd" d="M-.348 6.708l-.199 2.793L6.1 30.335l6.648 23.626-9.63-44.865-3.466-2.388z" fill="#F4F9FC"/><path fill-rule="evenodd" clip-rule="evenodd" d="M16.14 67.32c-.144.632 4.507 10.505 4.507 10.505l-2.695-1.432-6.886.142 4.625-7.241.45-1.973z" fill="#1580A7"/><path fill-rule="evenodd" clip-rule="evenodd" d="M20.646 77.825l2.746-2.446 3.66 1.313 1.448.56-7.854.573z" fill="#1580A7"/><path fill-rule="evenodd" clip-rule="evenodd" d="M3.118 9.096l9.012 1.669 2.502 3.817 2.793 20.763-.576 9.544.715 12.412-4.816-3.34-9.63-44.865z" fill="#C6E2F6"/><path fill-rule="evenodd" clip-rule="evenodd" d="M7.624 9.928c-.406 1.789 4.41 15.63 4.41 15.63l.715 28.401 2.173-25.239-1.252-13.067-3.304-5.217-2.742-.508z" fill="#8BCDEC"/><path fill-rule="evenodd" clip-rule="evenodd" d="M14.626 13.93h.008l.636 52.765h-.007l-.637-52.765z" fill="#2090B7"/><path fill-rule="evenodd" clip-rule="evenodd" d="M14.613 13.93l.066-.001.636 52.766h-.066l-.636-52.764z" fill="#2490B8"/><path d="M14.705 13.93h-.065l.665 52.767h.065l-.665-52.767z" fill="#2490B8"/><path fill-rule="evenodd" clip-rule="evenodd" d="M14.698 13.929h.066l.636 52.765-.066.001-.636-52.766z" fill="#2490B8"/><path d="M14.801 13.925h-.065l.655 52.767h.066L14.8 13.925z" fill="#2090B7"/><path fill-rule="evenodd" clip-rule="evenodd" d="M14.787 13.928l.065-.001.635 52.767h-.064l-.636-52.766z" fill="#2C90B8"/><path d="M14.88 13.928h-.065l.665 52.767h.065l-.665-52.767z" fill="#2490BA"/><path fill-rule="evenodd" clip-rule="evenodd" d="M14.871 13.927h.066l.636 52.765-.065.002-.636-52.767z" fill="#2490BA"/><path d="M14.977 13.921h-.066l.656 52.767h.065l-.655-52.767z" fill="#2C92B9"/><path fill-rule="evenodd" clip-rule="evenodd" d="M14.962 13.925h.066l.634 52.767h-.064l-.636-52.767z" fill="#2C92B9"/><path d="M15.052 13.928h-.066l.665 52.767.066-.001-.665-52.767z" fill="#2A93BC"/><path fill-rule="evenodd" clip-rule="evenodd" d="M15.047 13.925l.065-.002.637 52.767h-.066l-.636-52.765z" fill="#2A93BC"/><path d="M15.148 13.92l-.065.002.655 52.766h.066l-.656-52.767z" fill="#2A93BA"/><path fill-rule="evenodd" clip-rule="evenodd" d="M15.136 13.923h.065l.636 52.765-.065.002-.636-52.767z" fill="#2A93BA"/><path d="M15.226 13.925h-.066l.665 52.767h.066l-.665-52.767z" fill="#2A93BA"/><path fill-rule="evenodd" clip-rule="evenodd" d="M15.22 13.921h.066l.636 52.767h-.065L15.22 13.92z" fill="#2A93BC"/><path d="M15.216 14.063l-.065.001.529 52.77h.065l-.529-52.77z" fill="#2A93BB"/><path fill-rule="evenodd" clip-rule="evenodd" d="M15.309 13.921h.066l.636 52.765-.066.002-.636-52.767z" fill="#2A93BB"/><path d="M15.378 13.921l-.065.001.71 52.766h.066l-.71-52.767z" fill="#2A93BB"/><path fill-rule="evenodd" clip-rule="evenodd" d="M15.396 13.92h.065l.637 52.764-.066.002-.636-52.767z" fill="#2A93BB"/><path d="M15.475 13.917h-.066l.702 52.767.065-.001-.701-52.766z" fill="#2F94BB"/><path fill-rule="evenodd" clip-rule="evenodd" d="M15.482 13.92l.066-.002.635 52.766h-.064l-.636-52.765z" fill="#2F94BB"/><path d="M15.552 13.92h-.066l.711 52.766.066-.001-.711-52.766z" fill="#2F94BB"/><path fill-rule="evenodd" clip-rule="evenodd" d="M15.571 13.918h.066l.636 52.764-.066.002-.636-52.766z" fill="#2F94BB"/><path d="M15.648 13.915h-.066l.702 52.767.066-.001-.702-52.766z" fill="#2D95BC"/><path fill-rule="evenodd" clip-rule="evenodd" d="M15.658 13.915h.065l.635 52.767h-.064l-.636-52.767z" fill="#2F94BD"/><path d="M15.727 13.917h-.065l.71 52.767.066-.001-.71-52.766z" fill="#2F94BD"/><path fill-rule="evenodd" clip-rule="evenodd" d="M15.745 13.916l.065-.002.636 52.767-.065.001-.636-52.766z" fill="#2F94BD"/><path d="M15.822 13.91l-.066.001.702 52.766h.065l-.701-52.767z" fill="#3596BD"/><path fill-rule="evenodd" clip-rule="evenodd" d="M15.831 13.914h.066l.634 52.765-.063.002-.637-52.767z" fill="#3596BD"/><path d="M15.91 13.911l-.065.001.701 52.766h.066L15.91 13.91z" fill="#3598C0"/><path fill-rule="evenodd" clip-rule="evenodd" d="M15.918 13.914l.066-.002.636 52.767h-.066l-.636-52.765z" fill="#3598C0"/><path d="M15.999 13.908l-.066.001.702 52.766h.066l-.702-52.767z" fill="#3399BF"/><path fill-rule="evenodd" clip-rule="evenodd" d="M16.005 13.912h.065l.635 52.765-.064.002-.636-52.767z" fill="#3399BF"/><path d="M16.085 13.907l-.065.001.702 52.766h.065l-.701-52.767z" fill="#3598C0"/><path fill-rule="evenodd" clip-rule="evenodd" d="M16.092 13.91h.065l.637 52.767h-.066l-.636-52.767z" fill="#3598C0"/><path d="M16.172 13.906h-.065l.701 52.767.066-.001-.702-52.766z" fill="#3399BF"/><path fill-rule="evenodd" clip-rule="evenodd" d="M16.18 13.91l.066-.002.634 52.767h-.063L16.18 13.91z" fill="#3399C1"/><path d="M16.259 13.905h-.066l.702 52.767.066-.001-.702-52.766z" fill="#3399C1"/><path fill-rule="evenodd" clip-rule="evenodd" d="M16.265 13.908h.066l.636 52.765-.066.002-.636-52.767z" fill="#3399C1"/><path d="M16.336 13.91l-.065.002.71 52.765h.066l-.71-52.766z" fill="#389AC1"/><path fill-rule="evenodd" clip-rule="evenodd" d="M16.354 13.908l.065-.002.635 52.767h-.064l-.636-52.765z" fill="#389AC1"/><path d="M16.434 13.902l-.065.001.702 52.766h.065l-.702-52.766z" fill="#389AC1"/><path fill-rule="evenodd" clip-rule="evenodd" d="M16.44 13.906h.066l.636 52.765-.065.002-.637-52.767z" fill="#389AC1"/><path d="M16.51 13.906l-.066.001.711 52.766h.066l-.711-52.767z" fill="#369BC2"/><path fill-rule="evenodd" clip-rule="evenodd" d="M16.527 13.904h.066l.636 52.767h-.065l-.637-52.767z" fill="#369BC2"/><path d="M16.598 13.905l-.065.001.711 52.766h.066l-.712-52.767z" fill="#369BC2"/><path fill-rule="evenodd" clip-rule="evenodd" d="M16.614 13.904l.066-.002.636 52.767h-.066l-.636-52.765z" fill="#3D9CC3"/><path d="M16.683 13.904h-.065l.71 52.767.066-.001-.71-52.766z" fill="#3D9CC2"/><path fill-rule="evenodd" clip-rule="evenodd" d="M16.703 13.902h.065l.636 52.765-.065.002-.636-52.767z" fill="#3D9CC3"/><path d="M16.781 13.9h-.065l.702 52.766h.065L16.781 13.9z" fill="#3D9CC3"/><path fill-rule="evenodd" clip-rule="evenodd" d="M16.79 13.902l.065-.002.636 52.767h-.065l-.637-52.765z" fill="#3D9CC3"/><path d="M16.859 13.902h-.066l.711 52.766h.066l-.711-52.766z" fill="#3D9CC3"/><path fill-rule="evenodd" clip-rule="evenodd" d="M16.876 13.9l.066-.001.634 52.766-.064.002-.636-52.767z" fill="#3D9CC3"/><path d="M16.957 13.896h-.066l.702 52.766h.066l-.702-52.766z" fill="#3D9CC3"/><path fill-rule="evenodd" clip-rule="evenodd" d="M16.96 13.899h.066l.637 52.764-.066.002-.636-52.766z" fill="#3D9CC3"/><path d="M17.03 13.901l-.065.001.71 52.766h.066l-.71-52.767z" fill="#3D9CC3"/><path fill-rule="evenodd" clip-rule="evenodd" d="M17.05 13.899l.065-.002.635 52.767h-.064l-.636-52.765z" fill="#3D9CC3"/><path d="M17.128 13.893l-.065.001.702 52.766h.065l-.702-52.767z" fill="#3D9EC5"/><path fill-rule="evenodd" clip-rule="evenodd" d="M17.136 13.897h.066l.636 52.765-.065.002-.637-52.767z" fill="#3D9EC5"/><path d="M17.204 13.899h-.066l.711 52.767.066-.001-.711-52.766z" fill="#40A0C6"/><path fill-rule="evenodd" clip-rule="evenodd" d="M17.225 13.897l.066-.002.636 52.767h-.066l-.636-52.765z" fill="#40A0C6"/><path d="M17.306 13.89l-.066.002.702 52.766.065-.001-.701-52.766z" fill="#40A0C6"/><path fill-rule="evenodd" clip-rule="evenodd" d="M17.31 13.895l.065-.002.637 52.767-.066.002-.636-52.767z" fill="#439EC6"/><path d="M17.381 13.895h-.066l.712 52.766h.065l-.711-52.766z" fill="#40A0C6"/><path fill-rule="evenodd" clip-rule="evenodd" d="M17.397 13.893h.065L18.1 66.66h-.066l-.636-52.767z" fill="#40A0C6"/><path d="M17.479 13.89l-.066.001.702 52.766h.066l-.702-52.767z" fill="#47A1C7"/><path fill-rule="evenodd" clip-rule="evenodd" d="M17.483 13.893l.066-.002.636 52.767h-.065l-.637-52.765z" fill="#47A1C7"/><path d="M17.566 13.888H17.5l.702 52.766h.066l-.702-52.766z" fill="#47A1C7"/><path fill-rule="evenodd" clip-rule="evenodd" d="M17.572 13.891h.065l.635 52.765-.064.002-.636-52.767z" fill="#47A1C7"/><path d="M17.652 13.888h-.065l.702 52.767.065-.001-.701-52.766z" fill="#47A1C7"/><path fill-rule="evenodd" clip-rule="evenodd" d="M17.659 13.891l.065-.002.637 52.767h-.066l-.636-52.765z" fill="#45A2C8"/><path d="M17.74 13.885l-.066.001.702 52.766h.065l-.702-52.767z" fill="#45A2C7"/><path fill-rule="evenodd" clip-rule="evenodd" d="M17.745 13.89l.066-.002.634 52.766-.063.002-.637-52.767z" fill="#47A4C9"/><path d="M17.826 13.884h-.066l.702 52.767.066-.001-.702-52.766z" fill="#45A2C8"/><path fill-rule="evenodd" clip-rule="evenodd" d="M17.832 13.888h.066l.636 52.765-.065.001-.637-52.766z" fill="#45A2C8"/><path d="M17.913 13.883h-.066l.702 52.767.066-.001-.702-52.766z" fill="#4AA5C9"/><path fill-rule="evenodd" clip-rule="evenodd" d="M17.92 13.887l.066-.001.635 52.767h-.064l-.636-52.766z" fill="#4AA5C9"/><path d="M17.99 13.886l-.065.001.71 52.766h.066l-.71-52.767z" fill="#4AA5CA"/><path fill-rule="evenodd" clip-rule="evenodd" d="M18.006 13.886h.065l.637 52.765-.066.002-.636-52.767z" fill="#4AA5CA"/><path d="M18.086 13.88l-.065.001.702 52.766h.065l-.702-52.767z" fill="#4AA5CA"/><path fill-rule="evenodd" clip-rule="evenodd" d="M18.094 13.884h.066l.634 52.767h-.063l-.637-52.767z" fill="#4AA5C9"/><path d="M18.164 13.886h-.066l.711 52.767.066-.001-.711-52.766z" fill="#4AA5C9"/><path fill-rule="evenodd" clip-rule="evenodd" d="M18.181 13.884l.066-.002.636 52.767h-.066l-.636-52.765z" fill="#4AA5CA"/><path d="M18.25 13.883l-.065.001.71 52.766.066-.001-.71-52.766z" fill="#4CA6CC"/><path fill-rule="evenodd" clip-rule="evenodd" d="M18.268 13.882h.065l.635 52.765-.064.002-.636-52.767z" fill="#4EA6CA"/><path d="M18.337 13.884h-.065l.71 52.766h.066l-.71-52.766z" fill="#4EA6CA"/><path fill-rule="evenodd" clip-rule="evenodd" d="M18.355 13.882l.065-.002.636 52.767h-.065l-.636-52.765z" fill="#4FA7CC"/><path d="M18.433 13.876l-.065.001.702 52.766.065-.001-.702-52.766z" fill="#4FA7CC"/><path fill-rule="evenodd" clip-rule="evenodd" d="M18.443 13.88h.066l.634 52.765-.063.002-.637-52.767z" fill="#4EA8CD"/><path d="M18.424 14.044h-.066l.53 52.772.065-.001-.53-52.77z" fill="#4EA8CD"/><path fill-rule="evenodd" clip-rule="evenodd" d="M18.53 13.878h.065l.637 52.767h-.066l-.636-52.767z" fill="#4EA8CD"/><path d="M18.609 13.876h-.066l.702 52.766h.066l-.702-52.766z" fill="#4FA7CC"/><path fill-rule="evenodd" clip-rule="evenodd" d="M18.617 13.878l.065-.002.637 52.767h-.066l-.636-52.765z" fill="#4EA8CD"/><path d="M18.686 13.88h-.066l.711 52.766.066-.001-.711-52.766z" fill="#4EA8CD"/><path fill-rule="evenodd" clip-rule="evenodd" d="M18.703 13.877h.066l.636 52.764-.065.002-.637-52.767z" fill="#4EA8CD"/><path d="M18.782 13.873l-.065.001.702 52.766h.065l-.702-52.767z" fill="#4EA8CD"/><path fill-rule="evenodd" clip-rule="evenodd" d="M18.79 13.876l.066-.002.634 52.767h-.063l-.637-52.765z" fill="#54ABCF"/><path d="M18.773 14.043h-.066l.53 52.77h.065l-.53-52.77z" fill="#54ABCF"/><path fill-rule="evenodd" clip-rule="evenodd" d="M18.877 13.874h.065l.637 52.766-.066.001-.636-52.767z" fill="#54ABCF"/><path d="M18.956 13.87h-.066l.702 52.766h.065l-.701-52.767z" fill="#54ABCF"/><path fill-rule="evenodd" clip-rule="evenodd" d="M18.965 13.873h.066l.636 52.765-.065.001-.637-52.766z" fill="#53AACE"/><path d="M19.046 13.87h-.065l.701 52.767.066-.001-.702-52.766z" fill="#53ACD0"/><path fill-rule="evenodd" clip-rule="evenodd" d="M19.05 13.873l.066-.002.636 52.767h-.065l-.637-52.765z" fill="#54ABCF"/><path d="M19.131 13.867h-.066l.702 52.766h.066l-.702-52.766z" fill="#54ABCF"/><path fill-rule="evenodd" clip-rule="evenodd" d="M19.139 13.87h.066l.636 52.766-.066.002-.636-52.767z" fill="#57ACD0"/><path d="M19.22 13.867l-.066.001.702 52.766h.066l-.702-52.767z" fill="#57ACD0"/><path fill-rule="evenodd" clip-rule="evenodd" d="M19.224 13.869h.065l.637 52.767h-.066l-.636-52.767z" fill="#53ACD0"/><path d="M19.305 13.866l-.066.001.702 52.766h.065l-.701-52.767z" fill="#57ACD0"/><path fill-rule="evenodd" clip-rule="evenodd" d="M19.314 13.869l.066-.002.634 52.767-.063.002-.637-52.767z" fill="#57ACD0"/><path d="M19.393 13.863h-.065l.701 52.767.066-.001-.702-52.766z" fill="#57ACD0"/><path fill-rule="evenodd" clip-rule="evenodd" d="M19.4 13.867h.065l.636 52.767h-.065l-.637-52.767z" fill="#57ACD0"/><path d="M19.48 13.862l-.066.001.702 52.766h.066l-.702-52.767z" fill="#57ACD0"/><path fill-rule="evenodd" clip-rule="evenodd" d="M19.488 13.867l.065-.002.635 52.767h-.064l-.636-52.765z" fill="#57ACD0"/><path d="M19.567 13.86l-.066.002.702 52.766.066-.001-.702-52.766z" fill="#57ACD0"/><path fill-rule="evenodd" clip-rule="evenodd" d="M19.573 13.865h.065l.637 52.765-.066.002-.636-52.767z" fill="#57ACD0"/><path d="M19.642 13.866l-.066.001.712 52.766.065-.001-.711-52.766z" fill="#5CAED0"/><path fill-rule="evenodd" clip-rule="evenodd" d="M19.661 13.864h.066l.634 52.766h-.063l-.637-52.766z" fill="#5BAFD0"/><path d="M19.74 13.859h-.065l.701 52.767.066-.001-.702-52.766z" fill="#5BAFD0"/><path fill-rule="evenodd" clip-rule="evenodd" d="M19.746 13.863l.066-.001.636 52.766h-.065l-.637-52.765z" fill="#5BAFD0"/><path d="M19.817 13.864h-.065l.711 52.767.066-.001-.712-52.766z" fill="#5BAFD0"/><path fill-rule="evenodd" clip-rule="evenodd" d="M19.835 13.862h.065l.635 52.765-.064.001-.636-52.766z" fill="#5AB0D1"/><path d="M19.916 13.858l-.066.001.702 52.766h.065l-.701-52.767z" fill="#5AB0D1"/><path fill-rule="evenodd" clip-rule="evenodd" d="M19.922 13.861l.065-.002.637 52.767h-.066l-.636-52.765z" fill="#5AB0D1"/><path d="M19.99 13.862h-.065l.712 52.766h.065l-.711-52.766z" fill="#5AB0D1"/><path fill-rule="evenodd" clip-rule="evenodd" d="M20.008 13.86h.066l.634 52.764-.063.002-.637-52.767z" fill="#5DB1D2"/><path d="M20.087 13.854l-.065.001.701 52.766h.066l-.702-52.767z" fill="#5EB0D2"/><path fill-rule="evenodd" clip-rule="evenodd" d="M20.095 13.857h.066l.636 52.767h-.066l-.636-52.766z" fill="#5EB0D2"/><path d="M20.164 13.86H20.1l.711 52.766h.066l-.712-52.767z" fill="#5EB0D2"/><path fill-rule="evenodd" clip-rule="evenodd" d="M20.184 13.858l.065-.002.635 52.767-.066.001-.634-52.766z" fill="#5DB1D2"/><path d="M20.262 13.852h-.065l.702 52.767.065-.001-.702-52.766z" fill="#5DB1D2"/><path fill-rule="evenodd" clip-rule="evenodd" d="M20.27 13.856h.066l.636 52.765-.065.002-.637-52.767z" fill="#5CB2D4"/><path d="M20.338 13.857h-.066l.712 52.767.065-.001-.711-52.766z" fill="#5DB1D4"/><path fill-rule="evenodd" clip-rule="evenodd" d="M20.357 13.856l.066-.002.634 52.767h-.063l-.637-52.765z" fill="#62B2D3"/><path d="M20.436 13.851l-.066.001.702 52.766h.066l-.702-52.767z" fill="#62B2D3"/><path fill-rule="evenodd" clip-rule="evenodd" d="M20.444 13.854l.066-.002.636 52.767-.066.002-.636-52.767z" fill="#63B3D6"/><path d="M20.425 14.026h-.066l.53 52.772.065-.001-.53-52.77z" fill="#63B3D6"/><path fill-rule="evenodd" clip-rule="evenodd" d="M20.53 13.852h.066l.635 52.767h-.064l-.636-52.767z" fill="#62B2D3"/><path d="M20.611 13.849h-.065l.702 52.767.065-.001-.702-52.766z" fill="#62B2D3"/><path fill-rule="evenodd" clip-rule="evenodd" d="M20.617 13.852l.066-.002.636 52.767h-.065l-.637-52.765z" fill="#62B2D5"/><path d="M20.696 13.846h-.065l.701 52.767.066-.001-.702-52.766z" fill="#63B3D6"/><path fill-rule="evenodd" clip-rule="evenodd" d="M20.706 13.85h.066l.634 52.765-.063.002-.637-52.767z" fill="#61B5D7"/><path d="M20.785 13.847h-.066l.702 52.766h.066l-.702-52.767z" fill="#63B3D6"/><path fill-rule="evenodd" clip-rule="evenodd" d="M20.793 13.85l.065-.002.637 52.767h-.066l-.636-52.765z" fill="#63B3D6"/><path d="M20.872 13.846h-.066l.702 52.766h.065l-.701-52.766z" fill="#63B3D6"/><path fill-rule="evenodd" clip-rule="evenodd" d="M20.88 13.848l.065-.001.635 52.766-.064.002-.636-52.767z" fill="#63B5D8"/><path d="M20.958 13.842l-.065.001.702 52.766h.065l-.702-52.766z" fill="#63B5D8"/><path fill-rule="evenodd" clip-rule="evenodd" d="M20.966 13.847h.066l.636 52.766h-.065l-.637-52.766z" fill="#64B4D7"/><path d="M21.045 13.843l-.065.001.701 52.766h.066l-.702-52.767z" fill="#64B4D7"/><path fill-rule="evenodd" clip-rule="evenodd" d="M21.055 13.847l.066-.002.634 52.767h-.064l-.636-52.765z" fill="#64B6D7"/><path d="M21.124 13.847h-.065l.71 52.766h.066l-.71-52.767z" fill="#64B6D9"/><path fill-rule="evenodd" clip-rule="evenodd" d="M21.14 13.845h.065l.637 52.765-.066.002-.636-52.767z" fill="#64B6D9"/><path d="M21.22 13.84l-.065.002.702 52.766.065-.001-.702-52.766z" fill="#64B6D9"/><path fill-rule="evenodd" clip-rule="evenodd" d="M21.229 13.845l.065-.002.634 52.767h-.063l-.636-52.765z" fill="#69B7D7"/><path d="M21.296 13.844l-.066.001.711 52.766.066-.001-.711-52.766z" fill="#69B7D7"/><path fill-rule="evenodd" clip-rule="evenodd" d="M21.313 13.843l.066-.002.636 52.767-.065.001-.637-52.766z" fill="#68B8D9"/><path d="M21.394 13.837h-.066l.702 52.767.066-.001-.702-52.766z" fill="#68B8D9"/><path fill-rule="evenodd" clip-rule="evenodd" d="M21.402 13.84h.066l.634 52.766-.064.002-.636-52.767z" fill="#68B8D9"/><path d="M21.471 13.842h-.065l.71 52.767.066-.001-.71-52.766z" fill="#68B8D9"/><path fill-rule="evenodd" clip-rule="evenodd" d="M21.487 13.84l.065-.001.637 52.767h-.066l-.636-52.765z" fill="#67B8DB"/><path d="M21.57 13.835h-.066l.702 52.766h.065l-.702-52.766z" fill="#67B8DB"/><path fill-rule="evenodd" clip-rule="evenodd" d="M21.577 13.839h.066l.634 52.765-.063.002-.637-52.767z" fill="#68B9DA"/><path d="M21.647 13.841l-.066.001.711 52.766.066-.001-.711-52.766z" fill="#68B9DA"/><path fill-rule="evenodd" clip-rule="evenodd" d="M21.662 13.84l.066-.003.636 52.767H22.3l-.637-52.765z" fill="#6CB9DA"/><path d="M21.743 13.832l-.066.001.702 52.766h.066l-.702-52.767z" fill="#6CB9DC"/><path fill-rule="evenodd" clip-rule="evenodd" d="M21.749 13.837l.065-.002.635 52.767h-.064l-.636-52.765z" fill="#6CB9DC"/><path d="M21.818 13.837h-.065l.71 52.767.066-.001-.71-52.766z" fill="#6DBADB"/><path fill-rule="evenodd" clip-rule="evenodd" d="M21.836 13.835h.065l.637 52.765-.066.002-.636-52.767z" fill="#6DBADB"/><path d="M21.916 13.832h-.065l.702 52.767.065-.001-.702-52.766z" fill="#6DBADB"/><path fill-rule="evenodd" clip-rule="evenodd" d="M21.924 13.835l.066-.002.634 52.767h-.065l-.635-52.765z" fill="#6CB9DC"/><path d="M21.992 13.835h-.066l.711 52.766h.066l-.711-52.766z" fill="#6DBCDD"/><path fill-rule="evenodd" clip-rule="evenodd" d="M22.011 13.833h.066l.636 52.765-.066.002-.636-52.767z" fill="#6EBDDF"/><path d="M22.09 13.828h-.066l.702 52.766h.066l-.702-52.766z" fill="#6EBDDF"/><path fill-rule="evenodd" clip-rule="evenodd" d="M22.098 13.831h.065l.635 52.767h-.064l-.636-52.767z" fill="#6EBDDF"/><path d="M22.165 13.834l-.065.001.71 52.766h.066l-.71-52.767z" fill="#6EBDDF"/><path fill-rule="evenodd" clip-rule="evenodd" d="M22.184 13.832l.066-.002.636 52.766-.065.002-.637-52.767z" fill="#6EBDDF"/><path d="M22.165 14.009H22.1l.529 52.771h.065l-.529-52.771z" fill="#6EBDDF"/><path fill-rule="evenodd" clip-rule="evenodd" d="M22.271 13.83h.066l.634 52.765-.063.001-.637-52.766z" fill="#6EBDDF"/><path d="M22.352 13.826h-.066l.702 52.767.066-.001-.702-52.766z" fill="#70BDDE"/><path fill-rule="evenodd" clip-rule="evenodd" d="M22.358 13.83l.066-.002.636 52.766h-.066l-.636-52.764z" fill="#6EBDDF"/><path d="M22.437 13.825h-.066l.702 52.767.066-.001-.702-52.766z" fill="#6EBDDF"/><path fill-rule="evenodd" clip-rule="evenodd" d="M22.447 13.828h.065l.635 52.765-.064.001-.636-52.766z" fill="#73BEDF"/><path d="M22.525 13.822h-.065l.702 52.767.065-.001-.702-52.766z" fill="#72BFE0"/><path fill-rule="evenodd" clip-rule="evenodd" d="M22.533 13.826h.066l.636 52.767h-.065l-.637-52.767z" fill="#72BFE0"/><path d="M22.61 13.823h-.065l.702 52.767.065-.001-.702-52.766z" fill="#73BEDF"/><path fill-rule="evenodd" clip-rule="evenodd" d="M22.62 13.826l.066-.002.634 52.767h-.063l-.637-52.765z" fill="#73BEDF"/><path d="M22.699 13.82h-.066l.702 52.766h.066l-.702-52.767z" fill="#72BFE0"/><path fill-rule="evenodd" clip-rule="evenodd" d="M22.707 13.824h.065l.637 52.765-.066.002-.636-52.767z" fill="#72BFE0"/><path fill-rule="evenodd" clip-rule="evenodd" d="M22.752 13.824l.064-.002.636 52.767-.065.002-.635-52.767z" fill="#73C0E1"/><path fill-rule="evenodd" clip-rule="evenodd" d="M22.794 13.822h.065l.635 52.767h-.064l-.636-52.767z" fill="#73C0E2"/><path fill-rule="evenodd" clip-rule="evenodd" d="M22.837 13.822h.066l.636 52.765-.066.002-.636-52.767z" fill="#73C0E1"/><path fill-rule="evenodd" clip-rule="evenodd" d="M22.88 13.822h.066l.636 52.765-.065.002-.637-52.767z" fill="#73C0E1"/><path fill-rule="evenodd" clip-rule="evenodd" d="M22.926 13.822l.063-.002.637 52.767h-.066l-.634-52.765z" fill="#76C1E1"/><path fill-rule="evenodd" clip-rule="evenodd" d="M22.969 13.82h.066l.634 52.767h-.064L22.97 13.82z" fill="#76C1E3"/><path fill-rule="evenodd" clip-rule="evenodd" d="M23.012 13.82h.066l.636 52.765-.065.002-.637-52.767z" fill="#76C2E2"/><path fill-rule="evenodd" clip-rule="evenodd" d="M23.056 13.82l.065-.002.637 52.767h-.066l-.636-52.765z" fill="#76C2E2"/><path fill-rule="evenodd" clip-rule="evenodd" d="M23.1 13.819h.063l.636 52.766h-.065l-.635-52.766z" fill="#76C2E2"/><path fill-rule="evenodd" clip-rule="evenodd" d="M23.142 13.819h.066l.635 52.764-.064.002-.637-52.766z" fill="#7BC2E2"/><path fill-rule="evenodd" clip-rule="evenodd" d="M23.184 13.818l.066-.002.636 52.767h-.066l-.636-52.765z" fill="#7AC3E4"/><path fill-rule="evenodd" clip-rule="evenodd" d="M23.23 13.816h.065l.636 52.767h-.065l-.637-52.767z" fill="#7AC3E4"/><path fill-rule="evenodd" clip-rule="evenodd" d="M23.27 13.816h.066l.637 52.766-.066.001-.636-52.767z" fill="#7AC3E4"/><path fill-rule="evenodd" clip-rule="evenodd" d="M23.318 13.817l.065-.002.635 52.767h-.064l-.636-52.765z" fill="#7AC3E4"/><path fill-rule="evenodd" clip-rule="evenodd" d="M23.36 13.817l.065-.002.636 52.767h-.065l-.637-52.765z" fill="#7AC3E3"/><path fill-rule="evenodd" clip-rule="evenodd" d="M23.403 13.815h.065l.637 52.765-.066.002-.636-52.767z" fill="#7AC3E4"/><path fill-rule="evenodd" clip-rule="evenodd" d="M23.448 13.815h.064l.636 52.765-.066.002-.634-52.767z" fill="#7AC3E4"/><path fill-rule="evenodd" clip-rule="evenodd" d="M23.491 13.815l.066-.002.634 52.767h-.063l-.637-52.765z" fill="#7AC3E4"/><path fill-rule="evenodd" clip-rule="evenodd" d="M23.533 13.813h.065l.637 52.765-.066.002-.636-52.767z" fill="#7AC4E4"/><path fill-rule="evenodd" clip-rule="evenodd" d="M23.576 13.813h.066l.636 52.765-.065.002-.637-52.767z" fill="#7AC4E4"/><path fill-rule="evenodd" clip-rule="evenodd" d="M23.622 13.813l.063-.002.637 52.767h-.066l-.634-52.765z" fill="#7DC4E4"/><path fill-rule="evenodd" clip-rule="evenodd" d="M23.665 13.81h.065l.635 52.768H24.3l-.636-52.767z" fill="#7DC4E4"/><path fill-rule="evenodd" clip-rule="evenodd" d="M23.708 13.81h.066l.636 52.766-.065.002-.637-52.767z" fill="#7CC5E5"/><path fill-rule="evenodd" clip-rule="evenodd" d="M23.75 13.811l.065-.002.637 52.767-.066.002-.636-52.767z" fill="#7CC5E5"/><path fill-rule="evenodd" clip-rule="evenodd" d="M23.795 13.811l.064-.002.636 52.767h-.066l-.634-52.765z" fill="#7CC5E7"/><path d="M23.898 13.805l-.065.001.655 52.767.066-.001-.656-52.767z" fill="#7FC6E7"/><path fill-rule="evenodd" clip-rule="evenodd" d="M23.882 13.81h.065l.637 52.764-.066.002-.636-52.767z" fill="#80C6E5"/><path d="M23.974 13.81h-.066l.665 52.767h.066l-.665-52.767z" fill="#80C6E5"/><path fill-rule="evenodd" clip-rule="evenodd" d="M23.968 13.807h.064l.637 52.767h-.066l-.635-52.767z" fill="#80C6E5"/><path d="M24.074 13.803l-.066.001.656 52.767.065-.001-.655-52.767z" fill="#80C7E7"/><path fill-rule="evenodd" clip-rule="evenodd" d="M24.055 13.807l.066-.002.636 52.767h-.065l-.637-52.765z" fill="#80C7E7"/><path d="M24.149 13.808h-.066l.665 52.767h.066l-.665-52.767z" fill="#80C7E7"/><path fill-rule="evenodd" clip-rule="evenodd" d="M24.144 13.805h.064l.636 52.765-.066.002-.634-52.767z" fill="#80C7E7"/><path d="M24.247 13.803h-.065l.655 52.767h.066l-.656-52.767z" fill="#81C7E8"/><path fill-rule="evenodd" clip-rule="evenodd" d="M24.23 13.803h.066l.637 52.767h-.066l-.636-52.767z" fill="#82C9E9"/><path d="M24.323 13.806h-.066l.665 52.767.065-.001-.664-52.766z" fill="#82C9E9"/><path fill-rule="evenodd" clip-rule="evenodd" d="M24.317 13.804l.064-.002.636 52.767h-.065l-.635-52.765z" fill="#81C7E8"/><path d="M24.42 13.799h-.065l.656 52.767h.065l-.655-52.767z" fill="#81C7E8"/><path fill-rule="evenodd" clip-rule="evenodd" d="M24.404 13.802h.066l.636 52.765-.066.002-.636-52.767z" fill="#84CAE9"/><path d="M24.496 13.805h-.066l.665 52.767h.066l-.665-52.767z" fill="#84CAE9"/><path fill-rule="evenodd" clip-rule="evenodd" d="M24.493 13.802l.063-.002.637 52.767h-.066l-.634-52.765z" fill="#84CAE9"/><path d="M24.596 13.797h-.066l.656 52.767h.066l-.656-52.767z" fill="#84CAE9"/><path fill-rule="evenodd" clip-rule="evenodd" d="M24.578 13.8h.065l.636 52.765-.065.002-.636-52.767z" fill="#84CAE9"/><path d="M24.671 13.8h-.065l.665 52.767.065-.001-.665-52.767z" fill="#84CAE9"/><path fill-rule="evenodd" clip-rule="evenodd" d="M24.664 13.798h.066l.636 52.767h-.065l-.637-52.767z" fill="#84CAE9"/><path d="M24.768 13.795h-.066l.656 52.767h.065l-.655-52.767z" fill="#84CAE9"/><path fill-rule="evenodd" clip-rule="evenodd" d="M24.753 13.798l.066-.002.636 52.767-.066.002-.636-52.767z" fill="#88CCEA"/><path d="M24.854 13.792h-.065l.655 52.767h.066l-.656-52.767z" fill="#88CCEA"/><path fill-rule="evenodd" clip-rule="evenodd" d="M24.84 13.796h.063l.637 52.765-.066.002-.634-52.767z" fill="#88CCEB"/><path d="M24.932 13.798h-.066l.665 52.767h.066l-.665-52.767z" fill="#89CBEB"/><path fill-rule="evenodd" clip-rule="evenodd" d="M24.927 13.796l.065-.002.636 52.767h-.065l-.636-52.765z" fill="#88CCEA"/><path d="M25.03 13.79h-.066l.656 52.767h.065L25.03 13.79z" fill="#88CCEA"/><path fill-rule="evenodd" clip-rule="evenodd" d="M25.015 13.794l.064-.002.636 52.767-.065.002-.635-52.767z" fill="#88CCEA"/><path d="M25.105 13.794h-.065l.665 52.767h.065l-.665-52.767z" fill="#88CCEB"/><path fill-rule="evenodd" clip-rule="evenodd" d="M25.102 13.792h.065l.637 52.767h-.066l-.636-52.767z" fill="#8BCDEC"/><path d="M25.203 13.787l-.065.001.655 52.767.066-.001-.656-52.767z" fill="#8BCDEC"/><path fill-rule="evenodd" clip-rule="evenodd" d="M25.189 13.792l.063-.002.637 52.767h-.066l-.634-52.765z" fill="#8BCDEC"/><path d="M25.28 13.794h-.065l.665 52.767.065-.001-.665-52.766z" fill="#8BCDEC"/><path fill-rule="evenodd" clip-rule="evenodd" d="M25.273 13.79h.066l.636 52.765-.065.002-.637-52.767z" fill="#8ACFED"/><path d="M25.377 13.787h-.066l.656 52.767h.065l-.655-52.767z" fill="#8BCDEC"/><path d="M25.364 13.785h-.025l.684 52.766h.024l-.683-52.766z" fill="#8BCDEC"/><path opacity=".7" fill-rule="evenodd" clip-rule="evenodd" d="M23.06 26.869c.514-.236.187 12.768.187 12.768l2.433 4.183-1.09-13.731-1.53-3.22z" fill="#1580A7"/><path fill-rule="evenodd" clip-rule="evenodd" d="M17.211 14.222c.844 1.307 3.251 9.783 3.251 9.783l.579 7.049.578 10.978 2.021 4.773-1.54 9.426v-10.15l-1.445-4.535L19.5 24.483l-4.16-9.998 1.871-.263z" fill="#8BCDEC"/><path fill-rule="evenodd" clip-rule="evenodd" d="M20.254 15.431l8.778 2.368.867 6.206 7.222 26.131 7.901 26.847-14.553.127-5.008-11.456-.86-35.564-4.347-14.659z" fill="url(#paint7_linear)"/><path fill-rule="evenodd" clip-rule="evenodd" d="M24.653 30.715l17.24 36.544 1.941 5.684L25.087 36.2l-.434-5.485z" fill="#8BCDEC"/><path fill-rule="evenodd" clip-rule="evenodd" d="M29.907 73.641l-.812-29.59-3.948-7.095.547 6.865-.232 21.833 4.23 9.673.215-1.686z" fill="#C6E2F6"/><path fill-rule="evenodd" clip-rule="evenodd" d="M35.59 77.065c-.187-2.47-2.995-13.813-2.995-13.813l-1.54-4.654-.577 18.512 5.112-.045z" fill="#1580A7"/><path fill-rule="evenodd" clip-rule="evenodd" d="M29.466 20.9l5.16 6.443 3.564 1.67.769 7.876 6.063 40.094-15.124-52.978-.432-3.104z" fill="#F4F9FC"/><path fill-rule="evenodd" clip-rule="evenodd" d="M34.244 26.863l6.111 19.243.665 4.396-2.684-5.56-4.092-18.079z" fill="#C6E2F6"/><path fill-rule="evenodd" clip-rule="evenodd" d="M-23.17 2.772l17.978 6.255s5.881-.198 6.926 1.919L-.34 6.71l-17.443-4.894-10.699-.689V2.34l2.134 1.026 3.178-.593z" fill="#F5FAFF"/><path opacity=".66" fill-rule="evenodd" clip-rule="evenodd" d="M-4.179 78.146l6.36-15.008L.64 51.204l5.395 7.398 2.31-3.817 2.195-.824.917 8.413-1.494 14.139-5.778.119-2.504 1.67-5.859-.156z" fill="#1580A7"/><path fill-rule="evenodd" clip-rule="evenodd" d="M41.018 50.502c.833-.728 8.048-.608 8.048-.608l-2.68 1.32 10.882 2.028 4.526-1.192 7.704.358-15.12 2.268-9.149 2.505-4.211-6.679z" fill="#F4F9FC"/><path fill-rule="evenodd" clip-rule="evenodd" d="M45.222 57.172l2.89 8.59 3.852 11.336-7.126-14.677-2.319-1.984-1.501-9.935 4.204 6.67z" fill="#C6E2F6"/><path fill-rule="evenodd" clip-rule="evenodd" d="M51.965 77.098l-6.942-.115-2.578-17.049 2.394 2.487 7.126 14.677z" fill="#8BCDEC"/><path fill-rule="evenodd" clip-rule="evenodd" d="M69.49 52.399c.187 1.551 1.471 24.98 1.471 24.98l-20.643-.309-5.095-19.898 11.854-2.912 12.413-1.861z" fill="url(#paint8_linear)"/><path fill-rule="evenodd" clip-rule="evenodd" d="M55.042 77.143s-3.369-6.13-3.655-7.442c-.287-1.312-.869-11.208-.869-11.208l3.37 9.427 5.005 9.289-3.85-.066z" fill="#53C1EC"/><path fill-rule="evenodd" clip-rule="evenodd" d="M55.06 54.755l1.912 10.292L58.894 77.2l1.062.017-2.88-22.956-2.017.495z" fill="#C6E2F6"/><path fill-rule="evenodd" clip-rule="evenodd" d="M66.042 52.916l4.354 14.267-.906-14.784-3.448.517z" fill="#E1F0FB"/><path fill-rule="evenodd" clip-rule="evenodd" d="M70.845 75.29l-6.808 1.984 6.922.105-.114-2.09z" fill="#C6E2F6"/><path fill-rule="evenodd" clip-rule="evenodd" d="M63.283 53.328l7.563 21.962-2.22 1.18-1.587-8.98-6.1-13.81 2.344-.352z" fill="#C6E2F6"/><path fill-rule="evenodd" clip-rule="evenodd" d="M65.315 63.59l-.585 13.695 3.857-1.047-1.548-8.747-1.724-3.901z" fill="#8BCDEC"/><path fill-rule="evenodd" clip-rule="evenodd" d="M40.141 45.427c.213.674 6.29.82 6.29.82l-5.573 3.193-.717-4.013z" fill="#F4F9FC"/><path fill-rule="evenodd" clip-rule="evenodd" d="M40.858 49.44l5.283-3.022.045 3.485-5.167.6-.161-1.063z" fill="url(#paint9_linear)"/><path fill-rule="evenodd" clip-rule="evenodd" d="M-1.595 11.366l-.37 21.224-4.685 26.825-.459 18.594 5.14.137L.069 32.838l-1.664-21.472z" fill="#C6E2F6"/><path fill-rule="evenodd" clip-rule="evenodd" d="M12.75 53.961l.919 8.413-2.213 14.153 4.234-7.233 1.445-6.324-1.207-6.806-3.178-2.203z" fill="#E1F0FB"/><path fill-rule="evenodd" clip-rule="evenodd" d="M15.926 56.164l1.638 1.137 4.43 9.307 3.466-.954 3.446 7.88-6.69-4.332-5.083-6.232-1.207-6.806z" fill="#F4F9FC"/></g><circle cx="48" cy="48" r="47" stroke="#fff" stroke-width="2"/><defs><linearGradient id="paint1_linear" x1="71.424" y1="35.569" x2="124.811" y2="35.569" gradientUnits="userSpaceOnUse"><stop stop-color="#65C1E9"/><stop offset=".05" stop-color="#81CBED"/><stop offset=".11" stop-color="#9BD4F1"/><stop offset=".19" stop-color="#B1DCF4"/><stop offset=".27" stop-color="#C1E2F6"/><stop offset=".38" stop-color="#CDE6F8"/><stop offset=".53" stop-color="#D3E8F9"/><stop offset="1" stop-color="#D5E9F9"/></linearGradient><linearGradient id="paint2_linear" x1="48.258" y1="102.548" x2="48.258" y2="58.87" gradientUnits="userSpaceOnUse"><stop stop-color="#D5ECF7"/><stop offset=".27" stop-color="#59AAD3"/><stop offset="1" stop-color="#277A9A"/></linearGradient><linearGradient id="paint3_linear" x1="80.682" y1="66.025" x2="66.947" y2="66.025" gradientUnits="userSpaceOnUse"><stop stop-color="#4E8C8C"/><stop offset=".15" stop-color="#4E8C8C"/><stop offset=".83" stop-color="#8FBCBB"/><stop offset="1" stop-color="#8FBCBB"/></linearGradient><linearGradient id="paint4_linear" x1="110.124" y1="85.797" x2="108.665" y2="92.166" gradientUnits="userSpaceOnUse"><stop stop-color="#006082"/><stop offset=".21" stop-color="#036486"/><stop offset=".44" stop-color="#0B7193"/><stop offset=".68" stop-color="#1987A9"/><stop offset=".93" stop-color="#2CA5C7"/><stop offset="1" stop-color="#33B0D1"/></linearGradient><linearGradient id="paint5_linear" x1="88.602" y1="82.969" x2="82.583" y2="94.962" gradientUnits="userSpaceOnUse"><stop stop-color="#95D3F0"/><stop offset=".16" stop-color="#91D0EE"/><stop offset=".32" stop-color="#84C9E7"/><stop offset=".49" stop-color="#70BCDC"/><stop offset=".66" stop-color="#53AACD"/><stop offset=".83" stop-color="#2D94BA"/><stop offset="1" stop-color="#0078A2"/></linearGradient><linearGradient id="paint6_linear" x1=".99" y1="77.39" x2="-2.009" y2="1.804" gradientUnits="userSpaceOnUse"><stop stop-color="#00A2CC"/><stop offset="1" stop-color="#D6EDF4"/></linearGradient><linearGradient id="paint7_linear" x1="14.017" y1="32.545" x2="47.188" y2="64.15" gradientUnits="userSpaceOnUse"><stop stop-color="#E1F0FB"/><stop offset="1" stop-color="#7AC3E1"/></linearGradient><linearGradient id="paint8_linear" x1="50.522" y1="69.417" x2="70.343" y2="63.774" gradientUnits="userSpaceOnUse"><stop stop-color="#1580A7"/><stop offset="1" stop-color="#8BCDEC"/></linearGradient><linearGradient id="paint9_linear" x1="2053.22" y1="1377.19" x2="2144.1" y2="1432.28" gradientUnits="userSpaceOnUse"><stop stop-color="#1580A7"/><stop offset="1" stop-color="#8BCDEC"/></linearGradient><radialGradient id="paint0_radial" cx="0" cy="0" r="1" gradientUnits="userSpaceOnUse" gradientTransform="matrix(80.8172 0 0 57.2252 109.667 -1.129)"><stop stop-color="#F7FBFF"/><stop offset=".21" stop-color="#F2F8FE"/><stop offset=".47" stop-color="#E2EEFA"/><stop offset=".75" stop-color="#C9DFF4"/><stop offset="1" stop-color="#ADCEEE"/></radialGradient></defs></svg>