<svg width="96" height="96" viewBox="0 0 96 96" fill="none" xmlns="http://www.w3.org/2000/svg" preserveAspectRatio="none"><circle cx="48" cy="48" r="47" fill="#fff" stroke="#fff" stroke-width="2"/><mask id="a" mask-type="alpha" maskUnits="userSpaceOnUse" x="0" y="0" width="96" height="96"><circle cx="48" cy="48" r="48" fill="#C07248"/></mask><g mask="url(#a)"><path d="M-23 121h160.604V-12H-23v133z" fill="#B3E5FC"/><path opacity=".3" d="M-23 121h160.604V49.105c-32.996 0-60.42 1.739-89.198 3.564C26.422 54.063 3.65 55.506-23 56.264V121z" fill="#E1F5FE"/><path d="M-23 121h160.604V61.96H-23V121z" fill="#FFD797"/><path d="M64.53 83.335c-.28.183-.348.428.195.557.288.06.584.064.873.013.51-.08 1.524-.327.96-.68a1.443 1.443 0 00-.62-.164c-.558-.043-1.057.038-1.408.274zm9.136 5.639c-.172.075-.253.183-.161.33.344.55 2.477-.01 1.9-.315-.334-.178-1.315-.2-1.74-.015z" fill="#EAB065"/><path d="M58.133 94.16c-.28.183-.348.428.195.557.288.06.584.064.873.013.51-.08 1.524-.327.96-.68a1.443 1.443 0 00-.62-.165c-.558-.041-1.057.037-1.408.275z" fill="#F4C178"/><path d="M24.501 93.622c-.28.183-.347.428.196.558.288.059.584.063.873.012.51-.08 1.524-.327.96-.68a1.443 1.443 0 00-.62-.164c-.56-.042-1.06.038-1.409.274zm71.085-5.564c-.28.183-.348.428.195.558.288.059.584.063.873.012.51-.08 1.524-.327.96-.68a1.443 1.443 0 00-.62-.164c-.561-.051-1.057.036-1.408.274zM1.264 82.763c-.28.182-.347.427.196.557.288.06.584.064.873.013.51-.08 1.524-.327.96-.68a1.443 1.443 0 00-.62-.164c-.558-.043-1.057.036-1.409.274zm9.133 5.639c-.172.075-.253.183-.161.33.344.549 2.477-.01 1.901-.316-.335-.177-1.316-.199-1.74-.014zm22.37-5.434c-.28.182-.348.427.196.557.287.06.584.063.873.013.51-.08 1.524-.327.96-.68a1.443 1.443 0 00-.62-.165c-.558-.042-1.054.037-1.409.275zm9.138 5.637c-.172.075-.252.183-.16.33.343.549 2.477-.01 1.9-.316-.338-.175-1.319-.197-1.74-.014z" fill="#EAB065"/><path fill-rule="evenodd" clip-rule="evenodd" d="M-23 89.237l1.143-.045c37.995-1.554 68.122-.143 78.431.34 3.99.186 5.011.234 2.373-.083-22.326-2.68-53.219-2.008-72.69-1.584-3.49.076-6.615.144-9.257.184v1.188zm0-4.784c7.754.116 17.23.28 23.043.89 2.988.312 49.999.59 88.27.796 0 .003-8.677-.209-20.909-.508-28.7-.703-76.976-1.885-78.706-1.885-.972 0-2.806-.029-5.051-.064A1434.23 1434.23 0 00-23 83.587v.865z" fill="#FFE5C0"/><path d="M-23 87.02c4.95-.612 10.155-1.8 15.365-2.989 3.946-.9 7.893-1.8 11.734-2.452 1.694-.203 3.396-.375 5.11-.505 4.576-.345 9.73-.185 15.475.232 3.648.424 7.57 1 11.794 1.62 12.774 1.878 28.308 4.161 47.35 3.838 12.295-.209 20.571-1.93 28.479-3.575 7.668-1.596 14.991-3.119 25.297-3.119V60.116H-23V87.02z" fill="#00ACC1"/><path d="M-23 87.02c4.95-.612 10.155-1.8 15.365-2.989 3.946-.9 7.893-1.801 11.734-2.453 1.694-.203 3.396-.374 5.11-.504 4.576-.346 9.73-.185 15.475.232 3.648.423 7.57 1 11.794 1.62 12.774 1.878 28.308 4.16 47.35 3.838 12.295-.209 20.571-1.93 28.479-3.575 7.668-1.595 14.991-3.119 25.297-3.119V63.144H-23V87.02z" fill="#26C6DA"/><path d="M-23 87.026c4.95-.612 10.155-1.8 15.365-2.989 3.946-.9 7.893-1.802 11.734-2.453a67.424 67.424 0 017.667-.914c3.88-.208 8.16.088 12.918.636 3.648.423 7.57 1 11.796 1.62 12.774 1.878 28.308 4.16 47.349 3.838 12.294-.209 20.57-1.93 28.478-3.575 7.668-1.596 14.991-3.119 25.297-3.119v-.504c-32.919 1.188-64.707 1.08-95.903.974-11.247-.038-22.416-.076-33.534-.053-8.43.018-16.803.535-25.112 1.049-2.023.125-4.04.25-6.055.367v5.123z" fill="#F4C178"/><path d="M-23 85.483c5.032-.487 9.985-1.294 14.939-2.102 4.037-.659 8.076-1.317 12.16-1.802 1.694-.203 3.396-.375 5.11-.504 4.576-.346 9.73-.185 15.475.231 4.481.325 9.32.805 14.524 1.321 13.047 1.294 28.38 2.815 46.085 2.684 6.852-.052 13.122-1.119 20.052-2.298 8.829-1.502 18.726-3.186 32.259-3.186v-1.951c-12.842 0-18.615.482-24.598.983-6.069.507-12.353 1.032-26.452 1.09-6.33.025-12.902-.015-19.505-.103-7.498-.099-15.03-.265-22.275-.448a2762.22 2762.22 0 01-32.021-1.047l-5.527-.218c-3.766-.146-6.952-.276-9.404-.374-2.12-.085-3.692-.146-4.614-.174-5.935-.181-11.127.5-16.208 1.307v6.59z" fill="#fff"/><path opacity=".4" fill-rule="evenodd" clip-rule="evenodd" d="M-23 75.569c7.384-.781 13.735-1.494 13.735-1.494 10.928 1.72 19.566 3.242 20.494 3.358-1.021.16-2.72.471-3.988.703l-1.159.213-.488.086 2.426.548c.343 0 2.393-.29 4.757-.635 1.768-.26 3.714-.553 5.25-.785 1.594-.24 2.746-.415 2.801-.415 4.516.592 14.537 1.593 23.97 2.248 5.43.374 10.66.636 14.53.636 2.444 0 5.023-.07 7.743-.183 5.74-.252 12.1-.727 19.119-1.252 14.305-1.068 31.346-2.341 51.443-2.341v-1.234c-12.421 0-22.469.582-29.548.993-4.133.24-7.255.42-9.244.392 3.735-1.566 18.481-5.17 38.792-5.17V70.12c-.047-.002-79.64 1.643-40.373-1.763-.064-.016 38.664-3.096 40.344-3.096v-.194c-21.043 0-37.498 2.638-37.511 2.642-6.445 1.184-14.9.677-22.843.201-3.557-.213-7.01-.42-10.136-.466-3.63-.055-5.65-.346-8.138-.705-4.216-.607-9.778-1.409-26.796-1.582-14.675-.15-24.355.013-38.792 1.919l-1.854-.169c-4.395-.402-8.847-.81-14.534-1.041v.917c4.472.243 11.595.827 25.382 1.757-13.686.262-21.174.491-25.382.654v2.799c1.732.254 3.397.502 4.968.737l-2.92.528-2.048.372v1.939zm79.29-8.596c-2.978-.582-6.213-1.214-26.278-1.409a349.374 349.374 0 00-36.165 1.552c5.512.502 7.738.826 9.974 1.032 5.757.53 11.587.271 73.793.224-3.67-.385-6.064-.407-8.587-.43a127.222 127.222 0 01-4.35-.093c-4.967-.208-6.632-.533-8.387-.876zm-74.134 3.748c5.334.762 24.113 5.346 29.375 6.662 7.812-1.235 19.072-2.811 33.714-2.495-4.668-.665-20.213-4.412-24.747-5.509-11.743.08-17.575.511-22.457.871-4.7.347-8.518.63-15.885.47zm42.83 6.352c9.339.634 25.885 1.913 29.728 1.913 2.037 0 5.382-.482 9.22-1.037 1.677-.242 3.448-.497 5.245-.732-11.24-.68-12.08-.982-12.934-1.034-1.183-.071-2.395.338-31.259.89zm77.183-2.477c3.034-1.175 4.402-1.704 10.236-2.4-29.099.153-28.449-2.853-24.386-3.144l-1.35.006c-8.107.034-49.818.21-63.382.297 8.535 1.523 29.623 4.782 45.652 6.712 1.678.204 3.36.4 5.05.59 2.73.279 10.624.043 16.59-.134 3.101-.093 5.681-.17 6.745-.15a113.81 113.81 0 004.845-1.777z" fill="#fff"/><path d="M46.48 58.972s10.928.418 17.054-3.117c0 0-.713 2.131-1.967 3.267-1.253 1.135-8.387 1.997-13.919 1.507l-1.167-1.657z" fill="#0097A7"/><path d="M55.935 34.506c0 .566 1.32 22.866 1.32 22.866s-9.295-.97-10.105-2.59c-.81-1.62 8.785-20.276 8.785-20.276zm-40.723-.668c-2.562-2.97-5.972-3.42-7.345-3.337 5.287 2.138 6.319 4.34 7.802 6.432.795-2.877.839-3.82 6.665-6.432-3.795-.024-6.106 1.74-7.122 3.337zm13.563-7.422a4.73 4.73 0 00-4.916-2.444c3.791 1.06 4.117 3.228 4.684 4.752 1.539-2.612 3.028-3.714 5.973-4.752a7.403 7.403 0 00-5.74 2.444zm-23.121-2.83a3.872 3.872 0 00-4.05-1.395c3.112.72 3.428 2.051 3.992 3.073.587-1.047.845-1.726 3.98-2.778a4.679 4.679 0 00-3.922 1.1z" fill="#fff"/><path d="M96.718 27.596c43.851-2.65-107.306-11.03 40.887-11.03v-4.872c-64.122 0-73.214.1-103.164 1.663-55.05 2.87 6.893 4.309 26.18 6.705 16.637 2.067 1.344 3.867-15.49 3.867-49.96-.009 18.314 5.678 51.587 3.667z" fill="#CAEDFD"/><path d="M125.879 1.142s-16.382 1.3-36.596 1.3c-20.214 0-36.596-1.3-36.596-1.3s16.382-1.3 36.596-1.3c20.214 0 36.596 1.3 36.596 1.3z" fill="#F3FAFF"/></g><circle cx="48" cy="48" r="47" stroke="#fff" stroke-width="2"/></svg>