<svg width="119" height="48" viewBox="0 0 119 48" fill="none" xmlns="http://www.w3.org/2000/svg" preserveAspectRatio="none"><path d="M63.192 12.287c6.613 0 10.016 3.075 10.016 9.814 0 6.74-3.403 9.815-10.016 9.815h-2.726c-3.763 0-7.775-2.018-7.775-5.676a1.4 1.4 0 011.384-1.494h1.609c.774 0 1.385.36 1.936 1.494.55 1.134 1.635 1.854 3.32 1.854h2.094c3.375 0 4.841-1.053 4.983-4.15h-7.251a1.287 1.287 0 01-1.27-1.27v-1.172a1.27 1.27 0 011.27-1.276h7.251c-.19-3.07-1.603-4.122-4.983-4.122h-1.816c-1.636 0-2.77.72-3.32 1.854-.551 1.134-1.162 1.494-1.936 1.494h-1.587a1.4 1.4 0 01-1.38-1.494c0-3.653 4.014-5.67 7.776-5.67h2.42zm14.135 19.481a1.293 1.293 0 01-1.27-1.303V13.65a1.292 1.292 0 011.27-1.303h2.546a1.292 1.292 0 011.276 1.303v6.5h2.317c1.576 0 2.727-.802 3.817-2.727l2.077-3.773a2.29 2.29 0 011.936-1.303h3.124c.693 0 .834.545.415 1.303L91.9 18.96c-.692 1.25-1.603 2.547-3.484 2.989 1.33.278 2.726 1.968 3.484 3.157l3.375 5.365c.442.72.251 1.276-.469 1.276H91.71a2.795 2.795 0 01-2.077-1.276l-2.377-3.735c-1.02-1.636-2.045-2.764-3.817-2.764h-2.317v6.542a1.264 1.264 0 01-1.276 1.244l-2.519.01zm40.7-1.243l-3.271-12.867c-.802-3.14-3.037-4.493-5.665-5a10.05 10.05 0 00-2.999 0c-2.628.502-4.863 1.86-5.665 5l-3.271 12.867a.915.915 0 00.91 1.243h2.563a1.692 1.692 0 001.548-1.276l.862-3.402h9.089l.883 3.402a1.694 1.694 0 001.554 1.276h2.568a.918.918 0 00.948-.797.915.915 0 00-.054-.446zm-14.034-7.251l1.15-4.362c.339-1.309 1.2-2.568 2.432-2.568s2.094 1.26 2.432 2.568l1.15 4.362h-7.164zM41.234 33.393a5.997 5.997 0 00-1.276-6.466c-1.172-1.21-5.36-5.355-8.348-8.326h.262a3.783 3.783 0 002.677-6.461L23.514 1.11a3.784 3.784 0 00-5.354 0L7.15 12.14a3.784 3.784 0 002.677 6.46H9.9c-3.25 3.229-7.186 7.16-8.222 8.36a6.101 6.101 0 00-1.254 6.433c.583 1.401 2.007 3.08 5.485 3.08h5.72v5.562A5.943 5.943 0 0017.565 48h6.543a5.942 5.942 0 005.927-5.965v-5.561h5.714c3.495 0 4.907-1.68 5.485-3.08zm-16.63-2.726v10.556h-7.562V30.667H7.413l13.424-13.418 13.418 13.418h-9.65zm33.749 12.006c.087.267.164.545.246.801l.545-1.717.698-2.263c.027-.092.081-.142.158-.142h.583c.087 0 .11.055.077.164l-1.636 4.875a.174.174 0 01-.18.136h-.469a.186.186 0 01-.12-.033.23.23 0 01-.06-.098l-.278-.813a47.912 47.912 0 01-.278-.834c-.093-.289-.13-.414-.207-.627-.077-.212-.147-.43-.218-.648l-.415 1.264-.545 1.636a.169.169 0 01-.169.136H55.6a.185.185 0 01-.12-.032.23.23 0 01-.06-.098l-1.68-4.875a.201.201 0 010-.12c0-.032.039-.054.093-.054h.573a.174.174 0 01.12.038.26.26 0 01.06.109c.125.414.256.818.387 1.221.13.404.261.818.387 1.233l.469 1.499.48-1.467.245-.714c.087-.245.169-.49.245-.736l-.294-1.009a.19.19 0 010-.12.082.082 0 01.087-.054h.545a.151.151 0 01.115.038.29.29 0 01.054.109l.764 2.377c.12.29.202.55.283.818zm7.307 0c.088.267.164.545.246.801l.545-1.717.704-2.263c.027-.092.082-.141.158-.141h.583c.088 0 .11.054.077.163l-1.636 4.875a.174.174 0 01-.18.136h-.469a.185.185 0 01-.12-.033.233.233 0 01-.06-.098l-.278-.812a51.073 51.073 0 01-.278-.835c-.093-.289-.13-.414-.207-.627-.077-.212-.147-.43-.218-.648l-.415 1.265-.545 1.635a.17.17 0 01-.169.136h-.469a.185.185 0 01-.12-.032.224.224 0 01-.06-.098l-1.695-4.858a.19.19 0 010-.12c0-.033.038-.055.092-.055h.573a.175.175 0 01.12.038.267.267 0 01.06.11c.125.414.256.817.387 1.22.13.404.262.818.387 1.233l.469 1.5.48-1.467c.076-.235.158-.47.245-.715s.17-.49.245-.736l-.3-1.008a.197.197 0 010-.12.082.082 0 01.093-.055h.545a.153.153 0 01.115.038c.026.032.045.07.055.11l.763 2.377c.109.272.19.534.278.801zm7.306 0c.088.267.164.545.246.801l.545-1.717.703-2.263c.028-.093.082-.142.158-.142h.584c.087 0 .109.055.076.164l-1.636 4.874a.175.175 0 01-.18.137h-.468a.185.185 0 01-.12-.033.228.228 0 01-.06-.098l-.278-.813a48.805 48.805 0 01-.278-.834c-.093-.289-.131-.414-.208-.627-.076-.212-.147-.43-.218-.649l-.42 1.265-.545 1.636a.169.169 0 01-.169.136h-.469a.185.185 0 01-.12-.032.235.235 0 01-.06-.099l-1.679-4.874a.19.19 0 010-.12.082.082 0 01.093-.054h.572a.175.175 0 01.12.038c.03.03.05.068.06.109.126.414.256.818.387 1.221.131.404.262.818.387 1.232l.47 1.5.48-1.467.244-.714c.088-.244.17-.49.246-.736l-.295-1.009a.19.19 0 010-.12c0-.033.038-.054.093-.054h.545a.153.153 0 01.115.038c.025.032.044.07.054.109l.764 2.377c.092.289.174.55.261.818zm3.534 1.439a.682.682 0 01-.093.36c-.06.098-.19.147-.398.147-.207 0-.344-.049-.398-.147a.757.757 0 01-.082-.36.627.627 0 01.088-.354c.061-.091.19-.136.387-.136.207 0 .338.043.398.136a.634.634 0 01.098.354zm5.304-2.518a.856.856 0 01-.081.43.392.392 0 01-.388.175h-2.993c.001.267.029.534.082.796.038.188.122.364.245.512a.883.883 0 00.431.273c.206.058.419.086.633.082h.36l.403-.033.387-.038.322-.044a.373.373 0 01.163 0c.038 0 .066.055.082.126l.044.24a.174.174 0 01-.115.212c-.117.05-.237.09-.36.12a4.971 4.971 0 01-.447.093c-.158.027-.31.044-.469.06-.158.016-.3 0-.425 0-.4.018-.798-.06-1.161-.23a1.635 1.635 0 01-.655-.599 2.248 2.248 0 01-.294-.856 6.935 6.935 0 01-.07-.992 6.42 6.42 0 01.064-.856c.04-.31.136-.609.284-.884.161-.27.386-.496.654-.66a2.124 2.124 0 011.156-.272 2.55 2.55 0 011.09.202c.26.122.48.31.644.545.156.226.262.482.31.752.054.28.088.562.104.846zm-.861-.06a3.278 3.278 0 00-.05-.546 1.385 1.385 0 00-.184-.501 1.019 1.019 0 00-.393-.36 1.42 1.42 0 00-.676-.136 1.39 1.39 0 00-.589.109 1.01 1.01 0 00-.387.31c-.105.147-.18.311-.224.486-.051.212-.082.43-.092.648l2.595-.01zm5.479 2.83c-.237.101-.49.166-.747.19-.284.035-.57.054-.856.055a2.486 2.486 0 01-1.117-.213 1.554 1.554 0 01-.65-.583 2.181 2.181 0 01-.294-.862 7.498 7.498 0 01-.07-1.052c0-.33.023-.66.07-.987.04-.3.14-.59.295-.85.158-.254.382-.46.649-.595a2.39 2.39 0 011.117-.223h.371l.43.038c.148 0 .29.044.432.076.13.03.258.073.381.126a.146.146 0 01.104.098.312.312 0 010 .125l-.044.246a.137.137 0 01-.098.109.473.473 0 01-.174 0l-.725-.071a7.32 7.32 0 00-.688-.038 1.587 1.587 0 00-.605.103.818.818 0 00-.387.322c-.107.18-.177.38-.207.589-.047.3-.069.602-.065.905-.004.323.017.645.065.965.03.216.102.423.213.61.093.147.23.26.392.322.19.07.392.103.594.098h.693l.398-.032.36-.038a.34.34 0 01.153 0c.038 0 .065.06.081.125l.044.224a.191.191 0 01-.115.218zm4.193-.415a7.735 7.735 0 01-.878.447 2.727 2.727 0 01-1.118.213 1.406 1.406 0 01-1.09-.371c-.24-.311-.356-.7-.328-1.09a1.799 1.799 0 01.458-1.342 2.143 2.143 0 011.516-.441h1.467v-.36a1.004 1.004 0 00-.273-.807 1.57 1.57 0 00-.97-.224h-.72l-.403.033-.371.038c-.12 0-.191 0-.213-.093l-.065-.272a.148.148 0 010-.126.376.376 0 01.152-.109c.125-.04.253-.073.382-.098.147-.027.305-.049.469-.07l.485-.039h.431c.343-.012.686.034 1.014.136.224.073.423.205.578.382.136.172.223.377.25.594.039.257.057.516.055.775v2.344a1.415 1.415 0 000 .245.278.278 0 00.055.126.19.19 0 00.109.06h.202c.12 0 .18.054.18.136v.267a.18.18 0 01-.044.126.295.295 0 01-.169.065 2.175 2.175 0 01-.37.033.9.9 0 01-.546-.142.725.725 0 01-.229-.48l-.016.044zm0-1.92h-1.56a1.221 1.221 0 00-.774.224 1.046 1.046 0 00-.289.862.8.8 0 00.174.605c.19.127.418.183.644.158.149-.002.297-.02.441-.054a3.56 3.56 0 00.486-.142c.163-.062.322-.127.474-.197.14-.063.277-.134.41-.212l-.006-1.243zm9.375 2.492h-.452a.164.164 0 01-.186-.18v-3.195a3.419 3.419 0 00-.038-.545.88.88 0 00-.13-.36.508.508 0 00-.251-.196 1.19 1.19 0 00-.404-.06 1.454 1.454 0 00-.42.07c-.152.044-.305.104-.458.164a4.7 4.7 0 00-.441.202l-.35.18c.005.07.005.142 0 .213v3.533a.157.157 0 01-.11.176.158.158 0 01-.075.004h-.474c-.11 0-.164-.06-.164-.18v-3.272a1.685 1.685 0 00-.158-.807.676.676 0 00-.649-.289 1.516 1.516 0 00-.392.06c-.15.04-.297.09-.442.148-.153.06-.305.125-.452.196l-.404.202v3.756a.157.157 0 01-.107.174.159.159 0 01-.073.006h-.447c-.112 0-.169-.06-.169-.18v-4.809c0-.12.055-.185.17-.185h.435a.169.169 0 01.191.185v.371l.355-.207c.136-.082.279-.155.425-.218a2.91 2.91 0 01.474-.17c.164-.04.333-.06.502-.06.316-.016.63.051.91.197.212.124.375.317.464.545.286-.203.587-.386.9-.545a2.29 2.29 0 011.025-.24c.273-.01.546.036.801.137.19.08.35.215.463.387.113.182.185.387.213.6.037.256.056.514.055.774v3.195a.17.17 0 01.011.074.154.154 0 01-.024.072.164.164 0 01-.052.053.167.167 0 01-.072.024zm2.436-6.548a.675.675 0 01-.081.338c-.055.093-.18.136-.377.136-.196 0-.332-.049-.381-.147a.7.7 0 01-.077-.332.553.553 0 01.093-.333.425.425 0 01.365-.125c.193 0 .317.041.371.125.063.101.094.22.087.338zm-.065 6.368c0 .12-.054.18-.169.18h-.436c-.126 0-.191-.06-.191-.18v-4.809c0-.081 0-.13.049-.147a.25.25 0 01.142-.032h.436c.115 0 .169.06.169.185v4.803zm4.148-4.252c-.142 0-.3.06-.469.108l-.496.137-.441.136a1.827 1.827 0 00-.3.126v3.745a.164.164 0 01-.045.136.156.156 0 01-.135.044h-.464c-.114 0-.169-.06-.169-.18v-4.809c0-.12.055-.185.169-.185h.453c.131 0 .196.06.196.185v.437a1.86 1.86 0 01.295-.186c.125-.065.256-.136.408-.202.153-.065.3-.125.458-.18.143-.05.289-.09.437-.12a.16.16 0 01.125 0c.03.036.049.08.055.126l.043.442c.038.152-.005.223-.12.24zm1.043 4.023a.678.678 0 01-.093.36c-.06.098-.19.148-.398.148-.207 0-.343-.05-.398-.148a.76.76 0 01-.081-.36.631.631 0 01.092-.354.438.438 0 01.387-.136c.208 0 .34.045.398.136.066.106.098.23.093.354zm3.888-4.023c-.142 0-.3.06-.469.108l-.496.137-.442.136a1.971 1.971 0 00-.3.126v3.745a.15.15 0 01-.006.073.167.167 0 01-.038.063.16.16 0 01-.136.044h-.463c-.115 0-.169-.06-.169-.18v-4.809c0-.12.054-.185.169-.185h.452c.131 0 .191.06.191.185v.437c.093-.071.191-.133.295-.186.125-.065.261-.136.409-.202a5.7 5.7 0 01.458-.18c.142-.05.288-.09.436-.12a.165.165 0 01.125 0c.031.036.05.08.055.126l.043.442c.044.152-.005.223-.114.24zm4.784 4.433h-.436c-.125 0-.191-.06-.191-.18v-.371a4.881 4.881 0 01-.785.425 3.656 3.656 0 01-.545.18c-.178.05-.361.075-.545.076a1.899 1.899 0 01-.829-.147 1.084 1.084 0 01-.474-.409 1.5 1.5 0 01-.213-.621 5.888 5.888 0 01-.049-.785v-3.157a.167.167 0 01.006-.074.171.171 0 01.038-.063.17.17 0 01.136-.049h.463c.115 0 .169.06.169.186v3.14a3.6 3.6 0 00.044.605.9.9 0 00.142.371c.067.09.16.156.267.19.134.04.274.059.414.055.15-.004.299-.03.442-.076.169-.049.338-.109.507-.169.169-.06.327-.13.474-.202l.349-.169v-3.745a.167.167 0 01.045-.137.16.16 0 01.135-.049h.436a.167.167 0 01.136.049c.017.018.03.04.038.063.008.024.01.049.006.074v4.809a.15.15 0 01-.006.072.167.167 0 01-.038.063.16.16 0 01-.136.045z" fill="#059347"/></svg>