<svg width="572" height="789" viewBox="0 0 572 789" fill="none" xmlns="http://www.w3.org/2000/svg" preserveAspectRatio="none"><mask id="a" mask-type="alpha" maskUnits="userSpaceOnUse" x="30" y="176" width="512" height="512"><circle cx="286" cy="432.027" r="255.093" fill="#EAEDF2"/></mask><g mask="url(#a)"><mask id="b" mask-type="alpha" maskUnits="userSpaceOnUse" x="-2" y="192" width="565" height="538"><path d="M406.164 266.006l53.232-23.717 89.6 12.649 13.176 262.999-29.515 188.158-226.632 23.717H49.35l-34.785-182.36-16.339-246.661 84.328-12.649 44.8 12.649 1.054-2.108 2.635-4.216h2.635v-3.163h7.906l2.636 4.217 3.689 6.852 7.379 6.324 16.865 3.162 93.816 20.028 63.246-28.987 1.054-2.109c-3.162 1.23-10.857 3.268-16.339 1.582-5.481-1.687-7.554-10.19-7.905-14.231-.176-2.108-1.055-7.273-3.163-11.068-2.108-3.795-2.986-10.365-3.162-13.176h-1.581c-7.168.421-8.257-9.312-7.906-14.231l7.378-1.581c-1.686-4.216-.702-9.838 0-12.122-3.162-1.054-13.703-12.122-12.649-11.595.843.421 7.379-1.23 10.541-2.108 22.347-22.769 35.313-28.813 39.002-28.988 7.554-2.108 26.142-1.792 40.056 16.338 13.914 18.131 7.203 42.692 2.108 52.706h21.082l8.433 3.689z" fill="#C4C4C4"/></mask><g mask="url(#b)"><path d="M102.894 218.94H17.068v-.019c-.25 0-.495.019-.747.019a21.826 21.826 0 01-14.88-5.874A21.863 21.863 0 01-.647 183.35a21.832 21.832 0 0113.912-7.901 28.481 28.481 0 016.687-20.278 28.431 28.431 0 0136.285-6.027 28.465 28.465 0 0112.329 15.233 24.514 24.514 0 0127.344 13.375 24.558 24.558 0 012.407 10.592c0 .237 0 .47-.02.704a15.27 15.27 0 0117.342 6.16 15.294 15.294 0 011.942 12.623 15.28 15.28 0 01-14.689 11.094l.003.015z" fill="#E5F0F9"/><path d="M5.5 271.115c107 30 193.878 39 293.978 69.96 39.39 12.179-7.069 47.461-7.069 47.461l250.091 1.807v92.287H5.5V271.115z" fill="#E9E9EC"/><path d="M5.5 513.027h537v183.542H5.5V513.027z" fill="#C2C3CC"/><path d="M101.256 382.942c166.218-32.593 305.039-131.956 387.465-150.944a259.808 259.808 0 0153.779-6.376V425.37c-140.122-1.429-361.445-3.469-411.087-3.469-97.911-.006-127.41-19.89-30.157-38.959z" fill="#DEDFE6"/><path d="M135.611 602.8a56.04 56.04 0 0016.393 39.612 55.968 55.968 0 0039.582 16.408h72.365a37.51 37.51 0 0126.532 10.999 37.562 37.562 0 0110.989 26.551c0 .505-.019-.299-.037.202H5.5V459.46h537v87.323H191.586a55.954 55.954 0 00-39.58 16.407 56.035 56.035 0 00-16.395 39.61z" fill="#D6D7DE"/><path d="M525.893 451.775s1.203-71.416-31.963-107.805c27.841 49.032 22.512 103.374 22.512 103.374s-4.544-49.088-20.965-69.823c0 0 14.073 32.141 12.202 76.001-7.39-37.49-13.749-46.279-13.749-46.279s6.186 26.326-2.061 52.202h34.024v-7.67z" fill="#C2C3CC"/><path d="M503.11 459.476c.63-49.272-11.559-87.969-21.888-111.754-11.206-25.799-22.74-40.157-22.853-40.299l-1.601 1.299c.114.139 11.502 14.33 22.598 39.899 10.235 23.589 22.304 61.962 21.683 110.83l2.061.025zm-25.371.268c7.645-27.036 4.141-56.679-.154-76.812-4.639-21.759-11.174-37.385-11.241-37.527l-1.89.804c.066.154 6.535 15.623 11.13 37.212 4.232 19.868 7.698 49.158.167 75.774l1.988.549z" fill="#C2C3CC"/><path d="M465.396 320.176a3.928 3.928 0 01-5.48-.896l-14.111-19.653a3.932 3.932 0 01.898-5.474 3.925 3.925 0 015.48.895l14.114 19.644a3.918 3.918 0 01.684 2.929 3.916 3.916 0 01-1.585 2.555zm2.419 31.898a3.923 3.923 0 01-5.268-1.75L451.703 328.7a3.935 3.935 0 017.031-3.529l10.843 21.624a3.928 3.928 0 01.214 3.006 3.92 3.92 0 01-1.976 2.273z" fill="#C2C3CC"/><path d="M194.835 615.039H477.5c4.214 0 8.255 1.676 11.235 4.657a15.91 15.91 0 013.442 17.329 15.9 15.9 0 01-8.602 8.604 15.884 15.884 0 01-6.081 1.208H297.682a10.404 10.404 0 01-10.399-10.341c-.023-3.67-2.884-6.685-6.555-6.685h-86.079a7.379 7.379 0 01-6.839-4.597 7.382 7.382 0 01-.544-2.846c.028-4.084 3.482-7.329 7.569-7.329z" fill="#B3B5BD"/><path d="M485.498 477.612c.211-3.115 2.911-5.481 6.031-5.481H542.5v11.779h-51.129a5.868 5.868 0 01-4.31-1.872 5.894 5.894 0 01-1.563-4.435v.009zm-479.998.41h128.4a4.83 4.83 0 014.831 4.835v.161a3.408 3.408 0 003.407 3.409h43.679c4.194 0 7.73 3.336 7.749 7.53a7.576 7.576 0 01-4.662 7.021 7.541 7.541 0 01-2.901.58h-82.307c-3.567 0-6.677 2.917-6.684 6.483a6.49 6.49 0 001.893 4.6 6.469 6.469 0 004.592 1.903h23.074a6.736 6.736 0 016.735 6.741 6.742 6.742 0 01-6.735 6.741H5.501v-50.004z" fill="#C9CAD3"/><path d="M415.739 561.886l-5.774-2.716-15.207 25.513 4.263 2.986 16.718-25.783zM160.486 353.317s28.922 22.974 44.517 33.664c12.457 8.534 30.444 20.161 40.223 26.434a14.495 14.495 0 007.118 2.268c2.53.12 5.048-.425 7.302-1.581 21.396-10.993 81.994-43.712 92.438-66.54 2.669-5.835 3.683-18.528 2.877-29.666-.946-12.879-4.302-23.671-10.346-19.379-32.773 23.27-95.639 74.74-95.639 74.74l-73.238-42.545-10.79 16.004-4.462 6.601z" fill="#416A8A"/><path d="M117.964 322.5l.445.508 1.065 1.23-.946 4.916a5.026 5.026 0 002.981 5.598l32.71 13.724 6.659 4.267 13.332-19.76-4.588-4.028-11.089-16.42a6.658 6.658 0 00-1.746-1.76l-9.428-6.462-3.186-4.143-2.184-5.409a1.296 1.296 0 00-.738-.72 1.285 1.285 0 00-1.03.055l-.586.296a4.185 4.185 0 00-2.31 3.737v.845c0 3.827 1.519 7.496 4.223 10.202l3.17 3.173a.67.67 0 01.16.249.67.67 0 01.04.294.688.688 0 01-.285.504.685.685 0 01-.867-.063l-11.382-10.751.016-.186.469-6.285a2.629 2.629 0 00-1.736-2.678 2.592 2.592 0 00-.885-.154 2.627 2.627 0 00-2.521 1.842l-1.73 5.522.63 2.708-2.754 1.893a4 4 0 00-1.204 1.305l-2.426 4.258a3.006 3.006 0 00.135 3.21l.353.508-2.943 4.002a3.187 3.187 0 00.176 3.973z" fill="#F29E62"/><path d="M130.828 321.633a2.565 2.565 0 01-.577 3.437l-5.517 4.267 3.409 1.309 8.959 3.431c13.324 4.73 20.266-2.245 13.935-6.998-6.331-4.752-6.41-13.693-6.41-13.693a.658.658 0 01-.39.126.675.675 0 01-.476-.189l-11.382-10.75.015-.187-2.243 3.132-11.745 17.483 1.182 1.183 7.982-3.469a2.631 2.631 0 013.258.918z" fill="#E37845"/><path d="M136.045 332.983a4.094 4.094 0 002.897-1.201 4.103 4.103 0 001.2-2.899v-38.496h-8.193v38.502a4.094 4.094 0 001.202 2.895 4.093 4.093 0 002.894 1.199z" fill="#6C8294"/><path d="M136.045 332.983a4.094 4.094 0 002.897-1.201 4.103 4.103 0 001.2-2.899v-28.288h-8.193v28.294a4.097 4.097 0 004.096 4.094z" fill="#3D6280"/><path d="M131.955 298.858l-5.568 3.406.598 2.336h4.97v-5.742z" fill="#E37845"/><path d="M120.06 313.487c.046.087.098.172.154.252l.539.77 5.893-4.475 3.557-.533a3.274 3.274 0 002.796-3.021v-.227a3.46 3.46 0 00-.057-.609 3.287 3.287 0 00-3.671-2.661l-2.632.353-2.536 1.731a5.056 5.056 0 00-1.548 1.675l-2.464 4.307a2.528 2.528 0 00-.031 2.438z" fill="#F29E62"/><path d="M120.06 313.487c.046.087.098.172.154.252l.539.77 5.893-4.475 3.557-.533a3.274 3.274 0 002.796-3.021l-7.661 2.428-5.278 4.579z" fill="#E37845"/><path d="M119.477 324.225l12.973-8.609a3.353 3.353 0 001.478-3.125 3.352 3.352 0 00-1.274-2.304 3.347 3.347 0 00-2.545-.667l-3.467.517-5.896 4.466-2.977 4.046a3.12 3.12 0 00.157 3.901l1.551 1.775z" fill="#F29E62"/><path d="M160.487 353.317s28.922 22.974 44.517 33.664c12.457 8.534 30.444 20.161 40.222 26.434a14.493 14.493 0 0014.42.687c21.397-10.993 81.995-43.712 92.438-66.54 2.669-5.835 2.862-14.289 3.152-19.404l-105.169 71.091-85.115-52.551-4.465 6.619z" fill="#3D6280"/><path d="M359.439 451.368c-38.445-18.316-95.857-23.172-124.974-24.456a17.593 17.593 0 00-16.95 10.683 17.626 17.626 0 00-1.412 6.917v135.573h45.582v-86.932l108.201 22.911s5.511-57.092-10.447-64.696z" fill="#005697"/><path d="M332.471 442.545l.665 2.718c5.515 22.441 13.865 23.425 20.912 26.805a57.245 57.245 0 008.325 3.186c13.651 4.099 30.602 4.519 47.133 3.257 24.107-1.838 47.312-7.253 58.014-10.006a7.317 7.317 0 005.414-8.07c-2.244-16.569-10.469-63.643-36.775-121.539-24.167-53.182-43.83-48.458-66.283-58.405-3.012-1.337 3.025-1.92-13.919 21.063-23.262 31.555-21.349 9.426-21.438 9.013-22.922 40.848-9.91 99.792-2.048 131.978z" fill="#2C2A40"/><path d="M397.84 260.321l-20.713-.306-7.241 10.255 2.099 9.524 25.855-19.473z" fill="#291C2E"/><path d="M332.846 289.775s1.853 5.361 1.033 21.934c-.381 7.716-2.798 14.074 9.602 6.963 27.51-15.768 26.395-38.184 26.395-38.184l-16.273-13.081-20.757 22.368z" fill="#E37845"/><path d="M192.405 494.585h61.732l-52.269-86.175h-61.736l52.273 86.175z" fill="#B7682B"/><path d="M204.786 464.853l11.439 2.671a10.86 10.86 0 003.498.243l11.143-1.99a8.224 8.224 0 002.732-1.012l5.987-3.523a.195.195 0 00.083-.112.197.197 0 00-.111-.236.196.196 0 00-.139-.008l-4.726 1.756-3.609-5.947s9.101-3.848 12.539-4.696c6.419-1.577 11.66.946 15.321 2.252 2.339.832 4.727 1.479 7.207 1.321l4.147-.274-.86 16.77-.079 1.577v.047l-.211 4.166-.211.022-9.618.786-22.19 7.171a18.737 18.737 0 01-11.484 0c-2.454-.782-4.928-1.457-7.392-2.185a14.99 14.99 0 01-2.411-.947c-3.202-1.576-6.189-4.219-8.527-6.622-.221-.233-.445-.464-.665-.707a30.918 30.918 0 01-3.35-4.415 22.378 22.378 0 01-1.119-1.964l-.031-.063c-.977-1.874.334-4.614 2.637-4.081z" fill="#F29E62"/><path d="M206.618 475.367c.22.243.444.476.665.706 2.338 2.413 5.322 5.046 8.527 6.623l9.803 3.154a18.752 18.752 0 0011.484 0l22.19-7.172 9.618-.785.422-4.188v-.047l.196-1.577h-.117l-10.916.908s-24.176 9.461-33.189 8.143c-3.879-.577-13.049-2.961-18.683-5.765z" fill="#E37845"/><path d="M202.146 468.994c.34.673.713 1.329 1.119 1.964 3.589 1.71 12.958 5.888 19.745 6.38 1.825.132 15.861-3.469 12.262-3.712-1.125-.407-13.084 1.981-15.069 1.416-5.547-1.583-15.199-3.667-18.057-6.048z" fill="#E37845"/><path d="M369.608 632.315v10.722h39.835l42.207-60.972a2.195 2.195 0 00.316-1.804 2.197 2.197 0 00-1.154-1.422l-35.073-16.956-16.701 25.783-.142 7.272-.139 4.018-.205 6.036-.132 3.765-3.202 5.787h-7.849a17.736 17.736 0 00-12.561 5.201 17.756 17.756 0 00-5.2 12.57z" fill="#221413"/><path d="M409.443 643.024h-39.838v-8.095h35.187l38.76-59.603 7.534 3.668a1.918 1.918 0 011.059 2.074 1.93 1.93 0 01-.318.764l-42.384 61.192z" fill="#382321"/><path d="M398.744 598.959l4.903-7.37a1.055 1.055 0 00-1.086-1.623 1.056 1.056 0 00-.672.45l-3.006 4.526-.139 4.017zm-.34 9.805a1.09 1.09 0 00.397-.354l6.813-10.249a1.04 1.04 0 00.002-1.172 1.057 1.057 0 00-1.085-.444 1.06 1.06 0 00-.672.449l-5.319 8.001-.136 3.769z" fill="#553936"/><path d="M173.416 615.137v8.717h92.057v-12.542l-3.899-31.221h-35.11l-2.865 6.046-.996 2.113-2.158 4.55-.996 2.113h-25.84a20.183 20.183 0 00-14.282 5.926 20.205 20.205 0 00-5.911 14.298z" fill="#221413"/><path d="M173.416 615.137h92.057v8.717h-92.057v-8.717z" fill="#382321"/><path d="M222.6 588.243h12.532a1.057 1.057 0 100-2.113h-11.536l-.996 2.113zm-3.154 6.667h12.289a1.053 1.053 0 001.056-1.057 1.058 1.058 0 00-1.056-1.056h-11.29l-.999 2.113z" fill="#553936"/><path d="M353.83 331.661c7.191-20.627 31.307-40.621 65.86-26.197a88.206 88.206 0 017.463 3.491c21.585 9.146 46.792 31.763 59.873 62.334l17.016 42.545c12.92 32.321-7.433 68.556-41.832 73.756-.517.079-1.04.155-1.576.227-9.113 1.237-16.386-3.86-22.172-13.043a379.855 379.855 0 0029.064-6.279 7.312 7.312 0 005.414-8.07 272.92 272.92 0 00-1.185-7.852l-62.372-32.605 2.927-11.164 56.565 28.502c-4.878-23.175-14.427-58.183-32.71-98.423a227.531 227.531 0 00-2.105-4.497c-5.357-10.328-28.162-31.974-52.487-20.413-24.516 11.655-21.844 67.061-21.844 67.061l-.605 11.797s-17.987-24.803-5.294-61.17z" fill="#D1001B"/><path d="M244.139 530.984v.665a26.112 26.112 0 005.419 15.283 26.082 26.082 0 0013.39 9.132l125.621 38.978 21.396-35.875-38.069-19.959 38.069-6.846c59.335-10.681 58.055-53.807 56.953-63.703-10.948 2.81-33.747 8.048-57.413 9.852-16.531 1.262-33.484.845-47.132-3.258a58.12 58.12 0 01-1.784-.564c-41.007 9.287-81.696 23.554-101.271 32.595a26.112 26.112 0 00-15.179 23.7z" fill="#006DC3"/><path d="M294.473 537.007c16.566-3.724 72.957-16.635 103.045-26.361 22.727-7.348 32.401-17.433 36.513-24.598 2.742-4.778 3.438-8.65 3.571-11.123.712-.138 1.411-.249 2.13-.375-.066 2.643-.706 6.966-3.782 12.387-4.273 7.541-14.294 18.121-37.786 25.718-30.17 9.754-86.637 22.681-103.228 26.411-.044 0-.069 0-.069.085 0 .086.025.076.069.086a730.443 730.443 0 0118.183 4.02c1.626-.463 5.871-.946 15.595-1.223 9.933-.281 43.172-2.823 43.172-2.823l38.079 19.956-8.993 15.084-.479.946c-26.02-13.277-61.679-24.68-105.985-33.895a2.207 2.207 0 01-.035-4.298v.003z" fill="#005697"/><path d="M124.735 329.337l3.407 1.312.015-.032-3.422-1.28z" fill="#F29E62"/><path d="M332.471 442.541l3.466-.495c-15.302-67.774-4.036-112.296-4.036-112.296l2.94-17.975a17.786 17.786 0 01-.315-1.199c-22.929 40.836-9.917 99.783-2.055 131.965zm29.902 32.703c13.651 4.1 30.602 4.519 47.133 3.258l10.897-108.067-56.722 95.67-1.308 9.139z" fill="#291C2E"/><path d="M416.328 410.838l-1.222 12.132-5.729-2.996 2.927-11.163 4.024 2.027z" fill="#9F3322"/><path d="M265.523 452.213l.057 16.781v.041l.041 12.387 122.728-5.607a8.815 8.815 0 005.143-1.958 8.838 8.838 0 002.984-4.627c3.264-12.488 10.947-41.898 19.049-72.662 5.127-19.486 9.907-53.554.687-69.911a30.049 30.049 0 00-3.378-4.816c-8.31-9.707-22.582-14.062-35.162-5.676-9.825 6.537-15.242 19.691-17.268 44.043-1.642 19.713-1.891 78.593-1.891 78.593l-92.99 13.412z" fill="#416A8A"/><path d="M265.583 468.994v.041l.041 12.387 122.727-5.607a8.815 8.815 0 005.144-1.958 8.838 8.838 0 002.984-4.627c3.264-12.488 10.947-41.898 19.049-72.662 5.127-19.486 9.907-53.554.687-69.911a30.068 30.068 0 00-3.378-4.816l-29.512 138.562-117.742 8.591z" fill="#3D6280"/><path d="M325.695 340.829l3.782-6.771a5.275 5.275 0 01.132-1.675c.388-1.643 1.39-2.813 2.241-2.611.851.202 1.229 1.694.841 3.337a5.258 5.258 0 01-.63 1.577l.17 7.783a3.489 3.489 0 11-6.536-1.64zm1.261 2.318a1.891 1.891 0 003.703-.663l-.149-6.761h-.05l-.072-.025-3.297 5.906a1.887 1.887 0 00-.135 1.543z" fill="#E37845"/><path d="M331.897 329.75l-4.058-22.34 5.316-16.367s3.466 21.299 3.299 27.017c-.167 5.717-1.626 7.789-1.626 7.789l-2.931 3.901z" fill="#5B485C"/><path d="M296.992 233.086l-.851 5.992a13.216 13.216 0 003.208 10.64 5.852 5.852 0 011.418 4.702l-.823 5.787a20.893 20.893 0 001.028 10.016l6.721 18.682a9.23 9.23 0 002.861 4.889 9.224 9.224 0 005.178 2.292 24.93 24.93 0 0016.632-4.195l18.227-12.447a17.934 17.934 0 007.752-13.141l1.79-19s-36.466-63.848-63.141-14.217z" fill="#F29E62"/><path d="M303.244 246.499l.649 5.43 4.074-.489-.646-5.424 19.431-2.33.961 8.035a6.594 6.594 0 01-1.36 4.854 6.573 6.573 0 01-4.391 2.469l-6.35.757a6.584 6.584 0 01-6.52-3.313 6.599 6.599 0 01-.797-2.443l-.06-.504-4.074.488.066.565a6.53 6.53 0 01-1.348 4.807 6.519 6.519 0 01-9.155 1.097 6.524 6.524 0 01-2.442-4.356l-.971-8.095 12.933-1.548zm7.134 7.294a4.476 4.476 0 004.973 3.91l6.359-.763a4.472 4.472 0 003.907-4.976l-.712-5.948-15.236 1.829.4 3.334.252 2.097.057.517zm-17.016 2.1a4.402 4.402 0 001.642 2.975 4.4 4.4 0 003.267.926 4.424 4.424 0 002.957-1.672 4.432 4.432 0 00.894-3.279l-.719-5.992-8.76 1.05.719 5.992z" fill="#221413"/><path d="M293.68 220.28l23.949-20.745a38.561 38.561 0 0131.434-8.921 38.562 38.562 0 0123.019 12.892 46.372 46.372 0 0110.294 20.927 46.395 46.395 0 01-1.193 23.296l-5.54 17.581-.977 17.114h-4.462a13.212 13.212 0 01-12.737-9.713l-.573-2.097c.075 3.315-1.05 7.569-6.026 12.898-6.393 6.828-17.993 15.138-28.064 18.159a12.702 12.702 0 01-14.591-5.762 12.73 12.73 0 01-1.695-5.329l-.788-9.026a3.802 3.802 0 012.814-3.371l.123-.032a12.056 12.056 0 0110.847 2.555 8.912 8.912 0 0011.419.029 8.92 8.92 0 002.465-3.271c2.905-6.623 6.161-16.812 5.609-24.015l-.17-2.242-2.206-4.147a56.869 56.869 0 01-6.617-23.447 3.436 3.436 0 00-2.187-2.994 3.428 3.428 0 00-3.631.746l-6.567 6.423s-8.637 8.039-20.612 5.292c-3.589-.823-12.605-11.037-12.605-11.037l9.268-1.763z" fill="#451524"/><path d="M352.674 261.544c-.854-5.55-2.206-14.377-2.206-14.377 1.702-5.853 5.959-9.032 8.915-7.884 2.474.946 3.617 2.823 2.798 9.931a24.852 24.852 0 01-5.918 13.362 2.059 2.059 0 01-2.125.636 2.058 2.058 0 01-1.464-1.668z" fill="#F29E62"/><path d="M352.649 248.589c-.098-1.457 2.921-7.338 5.968-5.644 3.047 1.693-.315 9.388-1.304 10.996-.99 1.608-2.991 3.359-3.4 1.079-.41-2.28 1.462-4.371.365-4.775-1.097-.404-1.56-.602-1.629-1.656z" fill="#E37845"/><path d="M331.897 329.75l.946-9.227 21.346-29.054 43.651-31.148 10.418 5.563 3.403 10.722 10.746 8.439-6.088 20.921s-35.565-19.341-84.422 23.784z" fill="#5B485C"/><path d="M422.407 285.045l-27.208 1.593-27.787 10.816 29.892-14.859 14.357-5.989 10.746 8.439z" fill="#2C2A40"/></g></g><path opacity=".1" fill-rule="evenodd" clip-rule="evenodd" d="M70.512 237.119c-12.002-.868-21.469-10.88-21.469-23.103 0-12.794 10.371-23.165 23.164-23.165 2.731 0 5.352.473 7.785 1.341 3.895-11.302 14.624-19.42 27.248-19.42 12.729 0 23.53 8.253 27.343 19.701 4.249-5.132 10.669-8.402 17.852-8.402 11.046 0 20.287 7.733 22.604 18.08 9.671.002 17.511 7.843 17.511 17.514 0 9.485-7.539 17.208-16.951 17.506v.009H70.512v-.061z" fill="#006DC3"/><path opacity=".3" fill-rule="evenodd" clip-rule="evenodd" d="M484.876 231.361a3.501 3.501 0 014.95.039C540.641 283.021 572 353.865 572 432.027c0 157.954-128.047 286-286 286S0 589.981 0 432.027c0-53.859 14.891-104.251 40.783-147.271a3.5 3.5 0 115.997 3.61C21.526 330.327 7 379.475 7 432.027c0 154.088 124.913 279 279 279s279-124.912 279-279c0-76.251-30.584-145.352-80.163-195.716a3.5 3.5 0 01.039-4.95z" fill="#006DC3"/><path opacity=".2" fill-rule="evenodd" clip-rule="evenodd" d="M419.603 717.496a3.5 3.5 0 01-1.484 4.722c-39.523 20.622-84.465 32.28-132.119 32.28-43.233 0-84.234-9.595-120.982-26.775a3.5 3.5 0 112.964-6.341c35.84 16.755 75.831 26.116 118.018 26.116 46.5 0 90.334-11.373 128.881-31.486a3.5 3.5 0 014.722 1.484z" fill="#006DC3"/><path opacity=".1" fill-rule="evenodd" clip-rule="evenodd" d="M364.873 773.863a3.5 3.5 0 01-2.44 4.307c-24.333 6.732-49.966 10.328-76.433 10.328-22.28 0-43.969-2.548-64.79-7.371a3.5 3.5 0 111.58-6.819c20.306 4.703 41.466 7.19 63.21 7.19 25.83 0 50.835-3.509 74.567-10.075a3.5 3.5 0 014.306 2.44z" fill="#006DC3"/><path opacity=".3" fill-rule="evenodd" clip-rule="evenodd" d="M265.854 0l190.138 193.455a3.499 3.499 0 11-4.992 4.906L266.093 10.231 143.144 147.644a3.501 3.501 0 01-5.217-4.668L265.854 0z" fill="#006DC3"/></svg>