<svg width="158" height="57" viewBox="0 0 158 57" fill="none" xmlns="http://www.w3.org/2000/svg" preserveAspectRatio="none"><path opacity=".1" fill-rule="evenodd" clip-rule="evenodd" d="M12.417 56.217C5.476 55.715 0 49.924 0 42.855c0-7.4 5.998-13.398 13.398-13.398 1.579 0 3.095.273 4.502.775C20.152 23.696 26.358 19 33.66 19c7.361 0 13.609 4.774 15.814 11.395a13.37 13.37 0 0110.325-4.86c6.39 0 11.734 4.473 13.074 10.457C78.466 35.994 83 40.53 83 46.122c0 5.485-4.359 9.952-9.802 10.125v.005h-60.78v-.035zm109.001-36.983a6.924 6.924 0 112.832-13.43 8.616 8.616 0 0116.318.086 6.927 6.927 0 0112.094 2.891 5.235 5.235 0 01.167 10.469v.002h-31.411v-.018z" fill="#006DC3"/></svg>