<svg width="1337" height="788" viewBox="0 0 1337 788" fill="none" xmlns="http://www.w3.org/2000/svg" preserveAspectRatio="none"><g opacity=".6" fill="#EAEDF2"><path d="M78.683 555.737c-.58-.663-1.492-5.308-1.99-10.285-.497-5.059-1.326-9.455-1.74-9.87-.498-.415-2.654-1.41-4.81-2.239-3.315-1.162-4.559-2.323-6.963-6.055-2.736-4.313-2.819-4.728-1.907-7.797.498-1.742 1.41-3.4 1.99-3.566 1.658-.664 7.71 1.907 11.855 4.976 2.57 1.991 4.726 2.986 6.55 2.986 2.238 0 3.233.664 5.637 3.567 2.735 3.317 2.984 4.064 2.984 8.958-.083 7.962-1.078 11.114-5.057 15.593-4.31 4.811-5.306 5.308-6.55 3.732zm-8.125-68.262c-.912-.58-.912-1.327-.083-4.064 1.492-5.225.829-5.972-5.306-5.972h-5.305l-.58-4.23c-.498-3.732-.83-4.313-3.4-5.557-1.575-.747-2.901-1.825-2.901-2.488 0-1.411 6.466-10.949 7.46-10.949.415 0 .996.747 1.244 1.576.83 2.571 11.938 5.142 14.177 3.318.746-.664 4.476-1.327 8.704-1.576 6.798-.415 7.296-.332 7.71 1.244.912 3.318.415 5.723-1.658 8.543-2.653 3.318-4.145 9.787-2.736 11.446.747.913.58 1.161-.746 1.161-.995 0-3.067 1.659-5.14 4.147-3.15 3.733-3.813 4.148-6.88 4.148-1.907-.083-3.98-.332-4.56-.747zm164.476-5.64l-5.721-3.816-3.067 1.825c-4.56 2.571-8.953 2.239-14.01-.995-3.482-2.24-4.146-2.986-3.897-4.728.249-1.493-.663-3.069-4.062-6.553-4.228-4.396-4.477-4.562-6.466-3.483-2.156 1.078-6.467.746-8.788-.664-1.741-1.161 3.233-5.308 10.694-9.124 3.399-1.824 7.379-3.815 8.705-4.561 1.741-.913 4.643-1.328 9.368-1.328 8.539 0 12.352 1.659 16.166 7.217 5.637 8.128 7.461 9.621 14.591 11.777 6.3 1.825 6.798 1.908 8.207.581 1.907-1.659 5.969-1.825 5.969-.249 0 .664-.58 1.659-1.243 2.24-.829.663-1.244 2.488-1.244 5.391v4.396l-4.642-.415c-3.897-.331-5.14-.083-7.71 1.576-7.959 5.309-6.55 5.226-12.85.913z"/><path d="M93.355 478.434c-3.897-1.327-4.062-1.493-3.648-3.981.249-1.493 1.575-4.231 2.985-6.138 2.32-3.235 2.487-3.899 2.072-8.295-.497-4.064-.331-4.81.912-5.308.995-.415 2.239.083 3.73 1.493 2.073 2.074 2.488 2.157 10.032 1.659 4.311-.249 8.705-.581 9.865-.747 1.658-.248 2.405.249 3.482 2.074.829 1.41 1.99 2.488 2.653 2.488 1.824 0 3.814 3.318 3.814 6.47 0 2.073-.664 3.401-2.57 5.225-2.902 2.737-4.726 2.903-10.032 1.079l-3.813-1.328-5.389 3.401c-5.803 3.733-7.792 3.981-14.093 1.908zm95.753 6.138c-6.3-8.046-10.529-12.11-12.352-12.11-.912 0-2.156-.581-2.736-1.244-.829-1.078-.746-1.576.497-2.986 1.244-1.41 1.327-1.991.498-3.318-1.493-2.405-.581-3.235 3.482-3.235 2.404 0 4.311.581 6.3 1.991 3.648 2.737 11.026 4.479 12.85 2.986 1.078-.912 1.575-.829 3.067.498 4.146 3.566 5.555 5.64 5.057 7.879-.331 1.908.083 2.489 2.985 4.064 3.813 2.157 4.311 3.318 1.575 3.318-.995 0-2.653.747-3.648 1.742-1.492 1.327-2.155 1.493-3.481.829-3.151-1.741-5.804-1.161-7.213 1.493-.663 1.327-1.575 2.655-1.99 2.903-.414.249-2.653-1.907-4.891-4.81zM88.797 525.628c-2.072-2.571-3.399-3.4-6.135-3.815-2.155-.415-5.223-1.825-7.71-3.732-2.238-1.659-5.72-3.484-7.627-4.065-2.901-.829-3.564-1.41-3.564-2.903 0-1.078-.747-4.064-1.658-6.718-2.156-6.304-2.156-6.553 1.243-8.129 1.575-.746 3.482-2.571 4.145-3.981 1.327-2.571 1.575-2.654 5.638-2.239 3.979.414 4.56.829 8.704 5.308 6.135 6.801 6.716 7.714 7.71 13.022.746 4.064 1.41 5.309 5.389 9.207 2.487 2.488 4.477 4.894 4.477 5.308 0 .415-.995 1.41-2.239 2.24-6.3 4.064-5.554 3.981-8.373.497zm27.855 10.618c-2.072-1.078-3.316-2.488-3.979-4.479-.497-1.576-1.409-3.235-1.907-3.567-.58-.331-1.658-1.575-2.404-2.82-.829-1.244-2.57-2.405-3.979-2.737-1.409-.332-3.565-1.907-4.974-3.649l-2.487-2.986 2.901-.249c2.487-.249 3.482-.995 6.384-4.977 1.824-2.654 3.647-5.059 4.062-5.474.332-.415 1.575.332 2.653 1.576l1.99 2.322 3.647-1.493c1.99-.746 4.062-1.575 4.56-1.824.829-.332 9.451 10.036 9.451 11.28 0 .249-2.073 1.991-4.56 3.815l-4.56 3.318.166 6.138c.249 5.972.166 6.221-1.906 6.718-1.327.415-3.151.083-5.058-.912zm23.046-66.604c-.249-.996-.498-2.986-.498-4.396 0-2.489.249-2.654 3.648-3.235 4.725-.664 5.472-.166 5.472 3.815 0 3.65-.166 3.733-4.726 4.811-3.15.663-3.482.581-3.896-.995z"/><path d="M134.728 491.788c-.166-.249.166-1.576.746-2.986.995-2.406.829-3.069-1.824-8.875-2.404-5.309-2.819-6.802-2.321-10.119.58-4.562-1.492-9.788-3.814-9.788-.746 0-2.238-1.327-3.233-2.903l-1.741-2.903 2.736-4.976c2.238-4.064 3.233-5.143 5.637-5.806 4.726-1.327 6.384-.996 8.539 1.742 1.824 2.322 2.902 2.737 10.114 4.147 10.363 1.99 16.083 6.055 10.363 7.382-1.492.331-2.321 1.658-3.813 6.137-1.741 4.977-1.824 6.138-.995 8.958.497 1.742 1.989 4.147 3.316 5.226 2.736 2.239 2.819 2.986.746 7.465-1.492 3.317-1.658 3.4-7.627 4.478-3.399.581-8.456 1.576-11.275 2.157-2.818.581-5.306.829-5.554.664zm10.28-19.243l5.388-1.493.249-4.479c.332-6.553-.58-7.382-7.71-6.719l-5.803.581.249 5.806c.248 6.138.58 7.88 1.575 7.88.414 0 3.067-.747 6.052-1.576zM93.11 512.108c-.415-.58-1.162-3.317-1.742-5.972-.829-4.064-1.74-5.557-6.052-10.202-2.901-3.151-4.808-5.723-4.394-6.303 2.156-3.899 5.472-7.133 6.633-6.636.746.249 1.74-.083 2.404-.995.995-1.327 1.575-1.327 6.88-.332l5.804 1.078.497 4.065c.415 2.737 1.41 4.893 2.985 6.718 3.647 4.147 3.399 8.792-.746 14.598-2.985 4.396-3.234 4.562-7.379 4.811-2.818.166-4.476-.166-4.89-.83zm61.925 9.041c-2.57-2.571-2.653-2.571-6.466-1.576-2.736.747-4.063.83-4.228.166-.664-1.907-2.902-3.317-5.389-3.317-3.399-.083-3.814-.332-8.373-6.221-4.145-5.392-4.394-5.889-2.57-6.553.663-.249 2.155-2.322 3.316-4.645 1.326-2.654 2.736-4.313 3.979-4.561 4.394-1.079 19.399-3.733 20.975-3.733 1.741 0 8.456 7.714 13.098 15.096l2.404 3.981-6.134 6.47c-3.399 3.649-6.55 6.718-7.13 7.05-.497.249-2.073-.747-3.482-2.157zm-77.432-66.271c-2.487-1.41-1.824-10.534 1.41-20.487 2.652-7.962 3.232-9.041 7.792-13.603 4.891-4.893 4.974-4.893 7.793-3.898 2.321.83 3.813 2.488 7.627 8.792l4.808 7.797h12.27l3.316 4.23c1.824 2.322 3.316 4.479 3.316 4.893 0 .913-4.891 10.037-6.135 11.364-.663.663-4.228 1.327-9.368 1.576l-8.373.58-2.072-2.405-2.073-2.406-3.98 1.825c-4.393 1.908-14.176 2.986-16.331 1.742z"/><path d="M130.415 552.667c-6.135-6.635-7.544-8.46-8.125-10.782-.414-1.908-.248-2.322 1.658-2.737 2.073-.581 2.073-.664 1.907-7.05-.166-3.567-.083-6.636.166-6.802 5.969-4.893 8.788-6.386 11.689-6.386 2.57 0 3.399.331 4.145 2.073 1.078 2.323 1.161 2.406 6.135 1.079 3.482-.83 3.979-.747 5.555.912l1.823 1.825-2.321 1.659-2.321 1.741.58 9.788.58 9.787-8.373 4.23c-4.642 2.322-8.704 4.23-9.119 4.23-.332 0-2.155-1.576-3.979-3.567zm30.255-102.102c-1.575-1.41-4.394-2.322-10.031-3.318-7.212-1.327-7.959-1.659-10.114-4.396-2.238-2.82-2.487-2.903-6.052-2.322-2.072.249-4.228.663-4.725.912-.581.166-2.736-1.907-4.892-4.645l-3.896-4.976h-5.554c-3.151-.083-6.052-.332-6.55-.664-1.243-.829-8.622-12.773-8.622-13.934 0-.581 1.161-1.493 2.487-1.991 3.068-1.327 3.731-2.488 4.56-7.879.995-7.05 3.068-8.958 5.555-5.226.912 1.41 3.15 2.24 9.45 3.567 4.477.995 9.368 2.322 10.861 2.903 2.321.995 3.15.912 8.207-1.244l5.555-2.406 4.808 5.143c4.145 4.479 5.057 5.059 6.466 4.313 2.487-1.327 3.897-1.078 8.125 1.659 2.901 1.824 4.891 2.488 7.793 2.488 3.399 0 3.979.249 4.393 1.991.746 2.986-.746 5.971-5.14 10.285-4.891 4.727-7.792 11.612-6.051 14.349.911 1.493.746 2.073-1.161 4.479-1.161 1.575-2.404 2.903-2.736 2.82-.332 0-1.575-.83-2.736-1.908zm-47 53.332c-.747-1.327-1.659-2.405-1.99-2.405-.415 0-.663-1.327-.663-2.903 0-2.074-.746-3.733-2.57-5.806-2.239-2.571-2.653-3.65-2.736-7.714l-.083-4.645 3.731-2.322 3.73-2.322 4.891 1.41c4.809 1.327 4.975 1.327 7.959-.415l3.15-1.825 2.322 5.226c2.653 5.971 2.653 6.137.994 10.284-4.891 11.861-4.642 11.53-12.601 14.267l-4.725 1.659-1.409-2.489zm51.645-7.548c-6.135-7.713-5.886-6.718-3.399-12.275l2.155-4.977-2.984-2.737c-4.311-3.898-4.808-5.806-3.15-11.944.746-2.903 1.658-5.225 1.906-5.225.249 0 1.576 1.327 2.902 2.986 2.238 2.82 2.57 2.903 5.886 2.405 4.228-.581 5.472.498 3.233 2.986-1.409 1.493-1.409 1.825-.248 3.898.663 1.244 2.487 2.655 3.979 3.152 3.731 1.161 16.166 15.179 14.757 16.589-.829.829-19.897 9.455-20.809 9.372-.497 0-2.404-1.907-4.228-4.23zm-74.194 73.986c-2.072-1.327-4.062-2.406-4.56-2.489-.663 0-3.896-4.727-5.222-7.547-.083-.332 1.99-2.986 4.725-5.972 5.389-5.972 6.715-9.705 6.715-18.745v-4.811l4.643-3.152c5.223-3.484 8.124-3.484 9.451 0 .414 1.161 1.16 2.074 1.658 2.074.497 0 1.575 1.658 2.487 3.649 1.16 2.737 2.321 4.064 4.393 4.894 2.985 1.244 5.555 4.147 5.555 6.303 0 .747 2.653 4.065 5.803 7.548 5.223 5.64 5.803 6.553 5.803 9.705 0 4.313-1.326 4.644-5.637 1.327-2.653-1.991-3.233-2.157-9.036-1.659-3.399.249-6.384.663-6.633.829-.248.249-.663 1.742-.994 3.235-.498 2.405-1.161 2.986-5.389 4.645-7.378 2.903-9.451 2.986-13.762.166z"/><path d="M164.571 460.85c-1.824-1.991-1.243-4.23 2.404-8.709 3.731-4.728 3.897-5.143 2.819-7.216-1.575-2.903.58-7.963 5.554-12.939 5.555-5.475 7.379-5.558 11.773-.83l3.316 3.484 2.321-1.576c2.072-1.41 2.321-1.41 3.316-.083.995 1.41 2.819 11.861 2.819 16.589 0 2.156-.415 2.903-1.907 3.234-.995.249-3.814 2.24-6.301 4.313-3.482 2.986-4.891 3.733-6.217 3.235-2.985-.995-13.016-.332-14.342.913-1.658 1.658-3.897 1.493-5.555-.415zM16.419 653.443c-.58-1.244-1.244-2.571-1.41-2.903-.165-.332.58-.581 1.658-.581 1.078-.083 2.487-.414 3.15-.829.995-.664 1.078-1.078.25-2.488-1.742-2.737-1.244-3.816 2.155-5.392 3.15-1.41 5.554-4.727 4.642-6.303-.331-.415-1.74-.747-3.316-.747-3.15 0-6.715-3.069-7.544-6.469-.746-2.903.166-3.152 2.985-.747 1.906 1.576 3.564 2.24 5.886 2.24 2.984 0 3.399.248 4.56 2.903 1.657 3.981 2.486 13.022 1.326 15.012-.83 1.41-.995 1.327-1.824-1.161-.58-1.493-1.41-2.654-1.99-2.654-.497 0-2.57 2.737-4.642 6.221-1.99 3.4-3.897 6.22-4.228 6.22-.249 0-.995-1.078-1.658-2.322zm109.101 34.172c-5.471-.58-10.611-.912-11.357-.663-.83.249-1.99.083-2.736-.332-.995-.581-.581-1.327 2.404-4.313l3.731-3.567-1.659-3.234c-1.823-3.65-2.072-3.401 5.223-4.811 2.653-.581 4.974-1.244 5.14-1.576.166-.249 0-2.405-.414-4.645-.746-3.815-.581-4.23 2.155-8.294 1.575-2.323 2.902-4.479 2.902-4.811 0-.332-1.907-.58-4.228-.58h-4.311l.58-6.636c.332-4.23.166-7.879-.497-10.285-.498-2.073-.746-4.064-.415-4.396.415-.331 3.565-.58 7.047-.497 5.472.083 6.549.414 7.793 1.907 1.824 2.24 1.907 3.816.248 5.475-1.326 1.327-1.492 3.898-.497 6.552.415.995.083 3.318-.829 6.055-1.824 5.308-1.492 6.138 3.731 10.036 2.072 1.576 3.979 3.401 4.145 4.147.248.747.663 4.645.912 8.792l.58 7.548-3.482 1.41c-3.482 1.327-3.565 1.327-2.984 4.645.58 3.898 1.823 3.732-13.182 2.073zm-66.071 32.514c-.746-1.493-1.078-3.152-.829-3.567.332-.497 4.643-3.483 9.7-6.718 8.953-5.806 9.119-5.889 10.611-4.313.83.912 2.239 1.659 3.068 1.659 2.901 0 1.99 3.152-1.244 4.728-2.238 1.078-3.15 2.156-4.145 5.225l-1.327 3.898-5.969.581c-3.233.332-6.549.746-7.295.912-.829.249-1.74-.58-2.57-2.405z"/><path d="M68.403 757.536c-.248-.995-.497-4.479-.497-7.63 0-5.475-.166-5.972-4.228-12.11-3.73-5.723-4.062-6.719-3.565-9.456.663-3.732 2.487-4.562 10.28-4.562 6.218 0 6.3-.082 8.29-5.391.746-1.825 2.073-3.732 3.068-4.23 3.647-1.742 4.476-3.069 4.228-6.055-.166-2.571-.58-3.069-2.487-3.235-2.239-.331-3.4-1.575-7.13-7.796l-1.824-2.986 7.13-3.899 7.13-3.981 4.476 4.479c4.891 4.811 5.223 5.474 3.067 6.304-4.062 1.41-4.393 2.405-3.813 11.861.58 9.953.663 9.538-5.637 17.833l-3.15 4.23-.25 13.188-.248 13.27-4.145.913c-2.239.58-5.472.995-7.13 1.078-2.487.083-3.15-.249-3.565-1.825z"/><path d="M55.8 713.411c-.33-.829.167-2.156 1.327-3.317 1.658-1.742 1.824-2.572 1.327-6.636l-.58-4.562h6.134c7.462 0 11.11.664 11.69 2.074.331.912-3.068 3.318-17.493 12.69-1.658.995-1.907.995-2.404-.249zm-18.073-21.4c-.829-2.82-2.155-5.972-3.15-6.967l-1.658-1.825 4.145-2.073 4.145-2.157 4.477 2.488c2.404 1.327 6.88 3.733 9.948 5.392l5.555 2.903-1.658 2.82c-1.658 2.737-1.658 2.82-6.467 2.322-3.316-.249-6.135 0-8.87.912-2.156.747-4.145 1.41-4.477 1.41-.332 0-1.16-2.322-1.99-5.225zm58.114-1.658c-4.062-3.732-5.057-5.308-6.466-9.704-.912-2.903-2.902-8.046-4.477-11.446-1.575-3.401-3.15-7.714-3.399-9.622-.58-3.566-5.388-13.022-7.958-15.593-.83-.912-2.653-1.493-4.311-1.493-2.322 0-2.902-.332-3.15-1.908-.166-1.493-.664-1.824-2.82-1.576-1.491.083-2.984-.331-3.481-.995-.83-.912-.249-1.244 3.316-1.742 2.404-.332 5.057-1.161 5.803-1.824 1.244-1.162 1.575-.913 3.565 2.239 1.243 1.908 2.653 4.645 3.233 6.138 1.907 5.142 2.57 5.723 7.296 6.055 4.476.414 4.56.331 5.637-2.24 1.078-2.571 1.16-2.654 4.974-2.073l3.98.497 3.067-4.976c1.658-2.82 2.818-5.475 2.487-5.889-.249-.498-1.99-.83-3.814-.83-2.735 0-3.316-.249-3.067-1.493.249-1.161 1.326-1.493 6.466-1.659 4.809-.248 6.632-.663 7.959-1.907 1.907-1.825 2.819-1.41 2.819 1.244s1.575 3.898 3.564 2.82c2.819-1.493 3.482.415 3.482 10.368v9.289l3.151.249c1.658.166 3.067.581 3.067.996 0 .414-.912 2.073-2.073 3.732-1.326 2.074-1.823 3.732-1.575 5.225 1.078 5.475 1.161 5.475-4.642 6.553-2.902.663-5.721 1.493-6.135 1.908-.497.414-.166 2.073.746 4.147l1.575 3.4-3.979 3.816c-3.979 3.898-3.979 3.898-2.238 5.308 2.321 1.908 2.238 2.488-.912 4.645-5.14 3.401-6.384 3.152-11.69-1.659zm-66.321-9.787c-1.907-1.493-11.773-17.17-11.192-17.75.166-.166 2.155-1.161 4.393-2.074L26.784 659l2.57 3.069 2.653 3.069 2.735-1.41c3.731-1.824 4.394-1.742 5.97.996 1.326 2.156 1.326 2.322 0 3.151-1.327.83-1.327 1.162 0 4.645l1.326 3.816-2.487.995c-1.327.581-3.73 1.908-5.223 2.986-2.736 1.825-2.819 1.825-4.809.249z"/><path d="M30.183 659.498c-1.244-1.576-2.653-2.903-3.233-2.903-.498 0-3.068 1.078-5.638 2.322-2.653 1.244-5.057 2.074-5.389 1.742-.331-.332-1.99-.995-3.647-1.493-3.565-1.161-4.062-2.82-4.062-14.349 0-5.889-.415-8.46-2.57-14.515-3.317-9.456-4.726-14.515-5.39-19.492-.496-3.566-.33-3.981 1.079-3.981.829 0 2.238 1.078 2.984 2.488 1.907 3.152 3.15 3.069 7.71-.166 3.4-2.488 3.897-2.571 8.954-2.073 6.3.58 6.963.083 7.295-5.723.249-4.479 0-4.313 7.047-3.235 2.404.415 2.652.663 2.238 2.737-.663 3.152 1.492 5.308 4.145 4.313 1.575-.581 2.321-.332 3.565 1.078 3.813 4.396 3.813 4.396 2.321 8.875l-1.41 4.147 3.068 4.562c2.404 3.567 2.985 5.226 2.736 7.631-.249 3.069-.331 3.152-3.73 3.152-3.15 0-3.731.332-5.638 3.069-2.404 3.566-2.487 4.479-.746 8.958 1.326 3.151 1.243 3.317-.414 4.727-.913.83-2.239 2.986-2.82 4.811-.745 2.074-2.072 3.815-3.73 4.811l-2.487 1.493-2.238-2.986zm-7.047-6.885l3.565-5.557 1.16 2.654c1.493 3.65 3.068 3.401 4.726-.829 1.078-2.986 1.16-4.645.58-9.787-1.326-10.202-2.901-12.359-9.036-12.359-1.16 0-3.15-.995-4.477-2.239-1.99-1.908-2.57-2.074-4.394-1.244-2.818 1.327-2.653 4.644.498 8.874 1.74 2.24 3.316 3.401 5.057 3.733 3.98.581 3.647 2.074-1.078 3.981-4.31 1.825-4.477 2.157-2.902 6.055.498.995 0 1.41-1.906 1.825-1.575.332-2.57.995-2.57 1.825 0 2.322 4.228 8.709 5.803 8.709.912 0 2.819-2.074 4.974-5.641zm24.867 55.489c-5.472-1.41-6.3-2.239-7.793-7.216-.414-1.576 0-1.908 3.814-2.82 2.404-.498 6.051-.829 8.124-.747l3.73.332.25 4.811c.248 4.396-.664 7.382-2.239 7.133-.249-.083-2.902-.746-5.886-1.493z"/><path d="M62.35 696.49c-2.32-.248-2.32-.663-.248-3.815 2.238-3.484 2.155-4.064-1.41-5.723-1.74-.829-6.134-3.152-9.865-5.225-6.217-3.567-6.715-4.065-7.461-7.465-.746-3.152-.663-3.567.58-3.567 2.653 0 2.487-1.576-.414-5.972-1.658-2.405-2.985-5.059-2.985-5.889 0-2.073 1.493-4.893 3.482-6.469 1.658-1.327 1.658-1.41.249-5.972-1.41-4.396-1.41-4.728-.083-6.802.995-1.493 1.99-2.073 3.648-1.99 1.243.083 3.15-.249 4.228-.83 1.74-.995 2.238-.829 5.389 2.323 2.486 2.405 3.979 3.234 4.974 2.903.994-.415 1.575-.083 1.906 1.161.332 1.493 1.078 1.825 3.897 1.825 3.233 0 3.565.166 6.632 5.059 2.156 3.235 3.648 6.884 4.31 10.119.498 2.82 2.322 7.797 3.897 11.032 3.814 7.713 5.057 12.026 3.648 13.271-.497.497-3.565 2.322-6.798 4.064-7.461 3.981-8.041 4.479-7.544 6.552.414 1.576.083 1.742-3.897 1.742-2.404 0-5.14-.166-6.134-.332zm20.061-49.683c-3.067-.414-4.56-1.575-4.56-3.649 0-2.157-5.637-12.276-7.129-12.856-.663-.249-1.99.497-2.901 1.742-1.659 2.073-2.156 2.156-7.213 1.99l-5.554-.249-.415-3.317c-.249-1.825-1.741-5.143-3.233-7.382l-2.736-4.065 1.41-4.313 1.492-4.396-3.068-3.815c-3.233-3.898-3.648-4.147-6.964-3.898-1.492.166-1.906-.166-1.658-1.327.25-1.244 1.078-1.493 4.146-1.493 2.155 0 4.393-.498 4.974-1.162 1.16-1.161.082-2.322-5.555-6.469-2.404-1.742-2.404-1.825-.912-3.484 1.16-1.327 2.57-1.742 5.223-1.742 3.233 0 4.145.498 8.705 4.645l5.057 4.728 2.57-2.903c1.41-1.576 3.896-4.728 5.471-6.884 2.156-2.986 3.731-4.313 6.218-4.977 5.306-1.576 6.881-2.737 7.876-6.055 1.575-4.727 2.072-4.893 6.798-1.907 3.648 2.239 4.808 2.571 7.295 2.156 6.218-1.244 6.052-1.327 7.379 4.396 1.409 5.806 1.492 5.64-4.477 9.787-1.658 1.162-1.658 1.162.249 4.728 1.906 3.567 1.906 3.65.497 6.636-1.41 2.903-1.658 3.069-5.472 3.069-4.145 0-8.953 1.824-8.953 3.317 0 .498.58 2.074 1.326 3.401 1.078 2.156 1.161 3.235.415 6.221-1.244 4.727.166 9.704 3.233 11.943 1.741 1.245 2.156 2.074 1.824 4.065-.332 2.488-.249 2.571 3.15 2.571h3.399l-1.906 3.401c-1.907 3.4-1.907 3.4-5.804 2.903-3.73-.415-4.062-.332-5.223 1.99-1.492 2.82-1.823 2.986-4.974 2.654z"/><path d="M139.701 630.551c-1.244-2.903-2.736-3.484-10.86-4.065-2.736-.248-10.695 1.162-11.772 2.074-1.078.912-1.327.498-2.239-3.732-.663-2.986-1.658-2.821-4.725.663-2.487 2.737-2.819 2.903-8.208 2.903-7.544 0-9.533-.912-10.777-4.645-.746-2.322-.746-3.815 0-6.552.83-2.986.746-3.981-.415-6.221-1.906-3.732-.911-4.396 6.881-4.562 3.399 0 3.648-.249 5.804-4.064l2.155-3.981-1.741-3.152-1.824-3.152 3.399-2.82 3.482-2.903-1.078-4.894c-.58-2.737-1.243-5.64-1.409-6.552-.332-1.244.332-2.074 2.653-3.318 2.984-1.659 3.896-2.654 4.808-5.64.332-1.161 1.41-1.41 5.389-1.41 2.736 0 5.223.415 5.554.912.249.415 1.658 1.576 3.068 2.406 1.326.829 3.482 3.317 4.642 5.474 2.073 3.815 2.405 4.064 8.208 5.723 3.316.912 6.383 2.239 6.881 2.903.912 1.576.994 7.133 0 10.451-.995 3.401.083 4.976 3.73 5.64 2.156.415 3.399 1.327 4.643 3.484.995 1.658 2.901 3.483 4.228 4.064 1.741.663 2.818 1.99 3.565 4.147.58 1.742.912 3.484.663 3.815-.166.332-3.482 2.323-7.296 4.396-7.958 4.313-8.539 4.894-8.953 8.626-.166 2.157-.912 3.069-3.731 4.728l-3.482 2.074-1.243-2.82zm153.702-178.825c-1.161-.415-3.151-.747-4.394-.747-1.492-.083-3.068-.912-4.062-2.239-1.493-1.825-2.073-2.074-4.892-1.576l-3.233.498v-3.235c0-2.571-.332-3.401-1.575-3.733-.912-.248-2.404-1.99-3.316-3.815-1.741-3.401-3.399-4.147-5.803-2.654-.581.332-2.073.415-3.316.083-1.741-.415-2.239-1.161-2.57-3.816-.332-2.654-.747-3.234-2.073-3.068-.912.165-3.316.497-5.389.746-3.564.498-3.896.332-5.969-2.405-1.409-1.825-4.476-3.899-8.456-5.806-4.808-2.323-6.383-3.484-6.798-5.143-.331-1.244-1.243-2.322-2.487-2.571-2.321-.581-12.767-11.446-12.767-13.271 0-.663.912-3.484 2.073-6.138 1.16-2.737 2.072-5.474 2.072-6.22 0-.664 1.493-1.991 3.234-2.903 2.901-1.41 3.399-2.157 4.145-5.889.497-2.406 1.824-5.392 2.984-6.719 1.907-2.322 1.99-2.488.829-6.303-2.072-6.802-1.658-8.958 2.819-14.93 1.741-2.24 2.57-2.654 5.554-2.654 2.736 0 3.565.331 3.897 1.576.331 1.493 5.057 5.059 6.549 5.059.912 0 6.467-5.059 7.378-6.718.498-.996.415-2.737-.248-5.143-1.161-4.396-.166-10.368 1.989-11.695 2.239-1.41 3.068.083 3.897 7.631l.746 6.884 5.306 5.557c6.963 7.299 8.29 7.465 10.528 1.245 4.145-11.529 5.638-12.608 17.907-12.608 10.695.083 10.943.166 13.762 6.968 3.399 7.879 4.228 8.626 7.378 6.801l2.405-1.493 5.886 11.197 5.886 11.197 5.14-.497c3.73-.332 5.554-.083 6.715.746 1.409 1.079 1.326 1.41-1.741 7.714l-3.316 6.635 1.824 5.972c1.575 4.977 1.658 6.221.829 7.465-.995 1.244-1.493 1.327-4.892.415-2.072-.581-5.305-.995-7.212-.995-2.819 0-3.897-.581-7.379-3.982-2.238-2.156-6.466-5.225-9.45-6.801-5.057-2.654-5.555-2.737-8.705-1.825-1.907.581-3.399 1.576-3.399 2.157 0 .58 1.16 3.566 2.487 6.469 2.155 4.645 2.404 5.723 1.658 7.797-.58 1.327-.746 4.064-.497 6.221.58 4.23.746 4.064-4.56 5.142-1.741.415-2.404 1.41-4.062 6.801l-1.99 6.304 2.487 1.991c3.316 2.737 4.643 2.571 7.71-1.244 2.238-2.82 3.15-3.318 5.803-3.318 2.487 0 3.482.415 4.477 1.908 1.243 1.907 1.078 2.156-5.72 8.957-6.052 5.889-6.964 7.299-6.633 9.124.912 4.645-3.316 6.801-9.45 4.894z"/><path d="M424.638 396.236c-15.171-6.718-20.559-9.538-31.254-16.671-9.782-6.387-13.43-8.378-14.839-8.046-1.658.415-25.12.498-38.136.166-3.067-.083-5.886-.498-6.3-.912-.415-.415-3.068-5.226-5.886-10.617-4.228-7.88-4.974-9.953-4.062-10.617.663-.415 2.404-1.493 3.979-2.488l2.736-1.742-.498-5.723-.58-5.64 3.565-1.576c4.891-2.074 12.269-10.202 12.269-13.437 0-1.244.332-2.571.746-2.82 1.327-.829 5.223 3.069 6.798 6.801 1.99 4.728 1.99 7.88 0 9.705-1.575 1.41-1.823 1.41-5.886 0-4.062-1.493-4.145-1.493-7.875.332-2.073.995-3.98 2.405-4.311 3.151-.498 1.41 1.16 14.35 2.072 15.843.664.995 9.037 4.396 10.943 4.396.747 0 3.316-2.074 5.804-4.562l4.476-4.562h23.462c13.015 0 23.544.332 23.793.746.331.415-1.575 1.908-4.063 3.318-2.57 1.41-4.808 3.152-5.139 3.898-.498 1.327 4.891 7.465 7.627 8.543 1.077.415 3.316.083 6.134-.912 5.638-1.908 7.296-1.908 12.519.166 3.399 1.327 5.222 1.493 10.445 1.078l6.301-.497-.58 3.815c-.581 3.649-.498 3.898 1.741 4.811 3.979 1.659 8.041 1.161 11.938-1.41l3.564-2.406-.497-5.557c-.415-4.396-.166-5.889.829-6.884 1.326-1.41 1.161-1.41 14.093 5.972 1.99 1.161 4.56 3.649 6.135 6.137l2.653 4.148-1.741 2.405c-2.238 2.986-2.238 2.654.415 8.875 1.16 2.903 1.906 5.474 1.575 5.806-.332.332-1.741.083-3.234-.498-2.57-.995-2.735-.912-5.72 2.406-2.155 2.405-4.145 3.649-6.549 4.23-1.907.414-4.974 2.073-6.881 3.566-2.073 1.742-5.306 3.318-8.456 4.147-2.819.747-5.223 1.245-5.389 1.245-.165 0-8.622-3.733-18.736-8.129zm12.106-74.731c-3.565-2.737-6.549-5.806-6.798-6.802-.249-1.078-1.243-6.054-2.155-11.114-1.575-8.045-1.575-9.621-.664-12.441.912-2.655 1.741-3.484 4.311-4.313 1.907-.664 6.135-3.899 11.026-8.544 6.964-6.552 8.208-7.381 10.197-6.967 1.99.415 2.653-.083 6.135-4.562 2.073-2.737 5.555-6.137 7.71-7.63 2.156-1.493 7.461-5.309 11.772-8.543 4.311-3.318 8.871-6.553 10.031-7.382 2.57-1.659 19.317-4.313 35.068-5.558 6.549-.497 14.177-1.658 17.576-2.571 3.316-.995 6.549-1.493 7.295-1.244 2.321.912 1.492 5.225-1.575 8.294-3.15 3.152-3.151 3.152-21.638 5.143-13.43 1.41-17.244 2.82-28.352 10.202-2.57 1.659-6.964 3.981-9.617 5.059-2.653 1.162-7.378 4.065-10.363 6.47-2.984 2.488-8.456 6.718-12.104 9.455-6.963 5.143-15.668 14.432-19.233 20.487-2.073 3.484-2.073 3.899-1.658 13.686.249 5.557.58 10.782.746 11.695.497 2.82-1.326 2.156-7.71-2.82zm110.759-172.107c-1.575-4.064 1.244-7.133 4.974-5.474 2.405 1.161 2.487 1.825.249 4.562-1.907 2.488-4.477 2.903-5.223.912zm13.76 0c-2.239-.996-2.57-1.493-1.824-2.737 1.16-2.157 9.036-4.148 10.031-2.489 1.492 2.323.746 4.147-2.156 5.309-1.575.663-2.984 1.161-3.067 1.161-.166-.083-1.492-.581-2.984-1.244zm-24.215-1.575c0-3.567 5.721-3.816 5.803-.249 0 .663-3.564 2.322-5.057 2.322-.414 0-.746-.912-.746-2.073zm-.74-10.12c-1.658-5.889-.995-6.304 6.052-3.899 3.648 1.244 3.896 1.493 3.648 3.899-.249 2.571-.415 2.654-4.56 2.903l-4.311.248-.829-3.151zm-31.834-2.737c-1.409-1.576-1.409-1.659 1.327-2.737 9.948-4.147 14.922-5.723 15.668-4.977.663.747.166 6.885-.58 6.885-.166 0-3.15.497-6.715 1.244-8.125 1.576-7.959 1.576-9.7-.415zm37.966-5.309l-2.487-1.078 4.56-1.41c3.896-1.161 4.642-1.244 5.72-.166.995.995.995 1.41.083 2.488-1.244 1.576-4.477 1.576-7.876.166zm-33.072-4.644c-.249-.498-1.824-.83-3.399-.83-3.482 0-3.648-1.576-.415-3.981l2.405-1.742 4.642 1.825c2.57.995 4.56 2.073 4.56 2.488 0 .664-4.974 3.069-6.467 3.069-.414 0-1.077-.415-1.326-.829zM15.928 352.442c-1.327-1.742-4.975-6.884-8.125-11.363-6.135-8.875-6.135-9.621-.248-9.621 2.57 0 3.316.414 4.725 2.737.912 1.493 2.487 3.4 3.399 4.313 1.658 1.493 1.74 1.493 4.145-.249 1.492-1.161 2.57-1.493 2.902-.995.912 1.41 4.56 13.519 4.56 15.095 0 1.742-.415 1.991-5.058 2.737-3.648.498-3.896.415-6.3-2.654zm152.453 46.034c-.58-.58-.994-1.327-.994-1.659 0-.414-1.576-4.064-3.482-8.128l-3.399-7.465h-3.234c-2.901 0-3.233-.249-2.735-1.659.331-1.078-.166-2.82-1.244-4.562-1.824-2.986-3.15-3.4-7.461-2.156-3.233.912-8.954-.498-11.275-2.82-1.989-1.991-2.155-2.074-4.477-.83-1.326.664-2.57 1.244-2.818 1.244-.166 0-.581-2.156-.829-4.81-.332-2.572-1.327-7.299-2.322-10.368-2.155-6.47-1.989-6.719 3.98-7.631 2.653-.415 4.559-.083 7.71 1.244 4.394 1.908 5.14 3.069 6.383 10.119.498 2.903.663 3.069 4.809 3.567 2.321.249 5.554.415 7.129.249 2.57-.249 3.068-.747 5.057-4.811 1.244-2.571 2.073-4.894 1.824-5.225-.166-.332-2.653-1.908-5.637-3.484-3.897-2.24-5.472-3.65-6.135-5.557-1.326-3.899-1.161-4.645 1.907-7.797 2.487-2.654 3.233-2.903 6.466-2.654 3.482.249 3.648.415 5.969 4.976 1.327 2.655 4.643 9.871 7.461 16.174l5.057 11.447 4.809.663c4.476.664 4.974.581 6.964-1.244l2.072-1.908 1.99 2.489c1.077 1.327 3.15 3.981 4.476 5.888l2.488 3.484-2.985.995c-1.658.581-5.72 3.401-9.036 6.304-4.809 4.23-6.135 5.889-6.384 7.963-.166 2.156-1.078 3.069-5.223 5.723-5.72 3.566-5.554 3.483-6.881 2.239z"/><path d="M217.218 380.063c-2.404-2.572-3.316-2.903-8.705-3.401l-6.052-.581-5.72-7.796c-3.15-4.23-6.218-7.797-6.715-7.797-.58 0-1.907.912-2.902 2.074-1.741 1.99-4.228 2.488-7.793 1.576-1.409-.415-3.316-3.816-8.124-14.764-3.482-7.797-6.301-14.681-6.301-15.262 0-.746 1.658-.995 5.638-.995 6.798 0 28.352-3.816 29.679-5.226.58-.58 1.575-4.893 2.321-9.704.746-4.811 1.658-8.958 1.99-9.373.414-.331 2.321-1.078 4.394-1.658 3.482-.996 3.896-1.493 8.207-9.207 4.145-7.382 4.974-8.377 9.534-11.031 6.383-3.733 8.124-5.392 12.186-11.281 1.741-2.571 3.565-4.727 3.98-4.727.497 0 2.735 1.327 5.057 2.985 3.896 2.821 4.145 3.235 3.647 5.641-1.243 5.225-.082 7.962 3.399 7.962 2.239 0 2.322.415 3.731 10.285l.995 7.465-2.321 1.659c-4.892 3.483-8.539 7.216-13.265 13.437l-4.891 6.303 1.575 7.548c.829 4.147 1.658 8.211 1.907 9.041.332 1.244-.166 1.493-3.399 1.493-3.482 0-3.897.249-7.13 4.396s-3.399 4.728-3.316 9.787c.083 2.903.332 6.221.663 7.382.498 1.493.166 2.654-1.16 4.23-1.078 1.244-2.156 3.981-2.404 6.055-.498 3.069-1.078 4.064-2.985 5.059-1.326.664-2.57 1.245-2.653 1.245-.166 0-1.575-1.327-3.067-2.82zm154.529 105.835c-8.456-3.4-12.353-3.732-22.135-1.907-5.969 1.078-6.798 1.078-12.021-.415-5.389-1.493-5.72-1.742-7.793-5.723l-2.073-4.147-6.217-.581c-8.622-.746-9.037-.58-9.037 4.396 0 5.889-1.74 6.387-12.601 3.65-8.87-2.157-9.616-2.074-13.015 1.576-1.161 1.161-2.487 2.156-2.985 2.156-.995 0-3.731-8.211-3.731-11.197 0-.83 1.244-2.903 2.819-4.562 2.156-2.405 3.15-4.728 4.311-9.539l1.492-6.386 2.985.498c9.119 1.741 9.617 1.658 11.855-1.328 1.409-1.824 1.99-3.483 1.741-4.81-.332-1.742.746-3.318 6.715-9.124 3.896-3.898 7.047-7.382 7.047-7.714 0-.414-.995-1.99-2.239-3.566-2.072-2.488-2.735-2.82-6.217-2.82-3.482 0-4.063.249-6.633 3.4-2.57 3.069-3.067 3.318-4.642 2.489-2.156-1.161-2.156-1.659-.249-7.133 1.327-3.899 1.741-4.23 5.14-5.06l3.648-.912-.249-4.977c-.166-2.654.166-5.972.663-7.299.746-1.99.498-3.152-1.658-7.714-1.989-4.23-2.321-5.64-1.492-6.137 1.907-1.162 3.814-.747 8.29 1.907 6.881 4.065 9.037 5.723 9.866 7.88.58 1.659 1.243 1.991 4.393 1.991 1.99 0 6.052.746 8.954 1.658 2.902.83 5.306 1.576 5.389 1.659.083 0 1.077-1.327 2.238-2.986l1.99-2.986-1.99-5.806-1.907-5.806 2.156-4.313c1.16-2.322 2.984-5.557 4.062-7.216l1.907-3.069 15.254.166 15.254.083 12.767 8.378c9.036 5.888 16.083 9.787 23.959 13.104 6.134 2.655 12.684 5.475 14.508 6.221 12.02 5.391 10.611 5.143 16.995 3.401 3.896-.995 6.798-2.405 9.119-4.396 2.155-1.825 4.559-3.069 6.632-3.318 2.321-.332 3.896-1.244 5.886-3.4 3.814-4.396 7.876-3.733 4.477.746-1.741 2.405-1.492 4.396.912 6.47l2.072 1.824-2.321 3.318c-1.244 1.908-3.979 4.977-6.052 6.801-3.482 3.152-4.477 3.567-11.606 4.811-7.793 1.327-11.855 3.152-15.42 7.133-.746.83-3.979 2.323-7.047 3.235-3.15.912-7.958 3.235-10.694 5.142-4.56 3.152-5.14 3.401-5.886 2.074-1.327-2.322-2.57-1.742-8.125 3.815-4.476 4.562-5.223 5.806-5.554 8.875-.166 1.991-.415 3.65-.498 3.65-.165.083-2.487 1.907-5.305 4.064-4.892 3.732-5.223 4.23-8.954 13.603-5.969 14.68-8.124 18.828-10.031 18.994-.912.082-4.974-1.162-9.119-2.821z"/><path d="M291.161 324.491c-5.223-2.157-6.881-3.65-11.524-10.119-4.725-6.636-8.29-16.506-10.031-27.952-1.326-8.294-1.658-9.372-3.233-9.538-1.244-.166-2.736.912-5.223 3.898-2.487 2.903-4.145 4.23-5.555 4.23-2.652 0-3.15-1.493-1.575-5.225 1.161-2.903 1.161-2.986-1.077-4.894-1.244-1.078-3.731-2.903-5.389-3.981-3.316-2.24-3.565-2.986-2.073-6.221.995-2.239 1.244-2.405 8.539-3.815 6.632-1.245 8.373-2.489 9.037-6.304 2.072-11.944 3.067-15.013 5.305-16.008 8.125-3.732 10.861-4.23 20.809-3.318 14.757 1.327 15.005 1.41 15.005 3.733 0 1.741-.414 2.073-2.487 2.073-1.409 0-2.736.498-2.984 1.161-.829 2.074 2.072 10.451 6.383 18.746 3.897 7.382 4.228 8.46 5.389 18.247.663 5.64 1.99 12.524 2.901 15.262 1.907 5.889 1.907 9.87.083 20.818l-1.409 8.295-4.974 1.327c-6.632 1.907-10.777 1.741-15.917-.415zm-125.015 87.754c-2.487-1.576-4.062-1.991-6.217-1.659-2.653.414-3.317 0-7.627-4.313l-4.809-4.728-3.482 1.41a251.943 251.943 0 00-6.134 2.405c-2.156.83-3.068.83-5.389-.332-1.575-.663-5.638-1.741-9.037-2.322-4.974-.829-6.798-1.493-8.87-3.484l-2.653-2.571 5.472-6.138 5.471-6.054-.995-3.235c-.497-1.659-.912-4.064-.912-5.226 0-1.824.415-2.156 3.151-2.488 1.658-.166 4.228-.829 5.637-1.493 2.321-.912 2.819-.912 4.394.664 2.238 1.99 7.959 3.069 12.684 2.239 3.979-.663 5.554.913 5.637 5.64 0 3.069.083 3.152 3.316 3.152h3.317l3.399 7.216c4.31 9.373 4.559 10.534 2.818 13.271-1.409 2.074-1.409 2.24.166 3.484.995.746 2.321 1.659 3.15 2.156.829.498 1.327 1.576 1.161 2.654l-.332 1.742-3.316-1.99z"/><path d="M93.772 411.248c-3.647-7.133-10.03-24.219-9.533-25.629.746-2.156 11.026-19.491 12.518-21.233.663-.747 2.404-1.41 3.813-1.41 3.482 0 5.555-1.576 8.705-6.553 2.57-3.981 5.638-5.889 9.202-5.889 1.99 0 4.809 7.548 5.472 14.681l.58 6.055h-2.072c-3.068 0-4.228 1.908-3.731 5.972.249 1.99.663 4.313.995 5.225.331 1.161-.58 2.737-3.316 5.806-10.114 10.949-11.026 12.276-11.938 17.335-.498 2.737-.912 5.06-.912 5.226 0 .663-5.472 3.566-6.715 3.566-.746 0-2.156-1.41-3.068-3.152zm50.987-51.424c-.58-.912-1.492-6.801-1.161-6.801.249 0 1.741.58 3.482 1.244 3.897 1.659 5.721 1.078 5.223-1.659-.249-1.161-.083-2.074.332-2.074.58 0 3.647 1.659 5.554 3.069.166.083-.331 1.742-1.16 3.567l-1.493 3.317h-5.222c-2.819 0-5.389-.331-5.555-.663zM247.89 463.835c-5.14-1.659-5.637-2.074-9.782-7.963-3.565-5.059-5.223-6.635-9.119-8.626-4.56-2.322-5.058-2.405-12.685-1.825-5.554.415-8.621.996-10.611 2.157-1.575.912-3.067 1.493-3.233 1.327-.249-.249-.912-3.981-1.492-8.46-.912-6.138-1.576-8.46-2.985-10.036-2.073-2.157-3.316-2.406-5.803-.913-1.492.913-1.99.747-4.228-2.156-1.41-1.742-3.482-3.484-4.56-3.898-1.492-.581-1.907-1.328-1.907-3.484 0-3.65-1.243-4.728-5.554-4.728-3.482 0-3.565-.083-3.565-2.737 0-1.991-.663-3.235-2.653-4.894-2.653-2.156-2.736-2.239-1.077-3.981.829-.995 3.813-3.152 6.632-4.728 6.881-4.147 7.875-5.142 7.875-7.796 0-1.742 1.161-3.318 5.223-6.884 2.902-2.489 6.218-4.977 7.296-5.392 1.326-.497 5.223-.497 9.865-.166 7.544.664 7.876.747 10.529 3.65l2.736 2.986-2.488 6.718c-1.326 3.733-2.487 7.216-2.487 7.714 0 1.41 12.602 14.681 13.928 14.681.58 0 1.409.912 1.824 1.99.497 1.41 2.819 3.069 7.212 5.309 4.228 2.156 7.379 4.396 9.12 6.552l2.653 3.318 4.228-.829c4.725-.913 5.803-.332 5.803 3.317 0 2.24 2.818 3.152 7.378 2.406 2.985-.498 3.316-.332 4.228 2.073.58 1.327 1.99 3.069 3.067 3.816 1.907 1.244 2.405 3.732 1.41 6.386-.249.664-2.736 2.24-5.389 3.484-5.057 2.239-5.969 3.898-3.482 5.723 1.161.829 1.327 1.493.581 3.401-.747 2.156-1.078 2.322-4.311 2.156-2.156-.166-4.145.166-5.306.995-2.239 1.576-2.239 1.576-8.871-.663zm836.89 185.959c-4.64-4.231-12.93-11.778-18.4-16.838-18.74-17.252-18.08-16.837-23.63-17.418-4.06-.498-5.39-.332-7.21.829-1.83 1.245-3.32 1.328-9.87.83-8.37-.581-10.28 0-18.4 5.557-4.31 2.986-5.81 2.737-10.946-1.825l-3.731-3.234 1.493-2.489c1.989-3.317 1.823-4.479-.912-6.552-1.741-1.244-2.736-3.152-3.814-6.967-2.653-9.622-3.067-10.617-4.559-10.617-.829 0-2.322.912-3.399 2.073-1.078 1.079-2.156 2.074-2.488 2.074-.248 0-1.658-1.742-3.15-3.732-1.409-2.074-3.067-3.733-3.648-3.733-.497 0-1.989.995-3.316 2.157-2.901 2.82-4.891 1.659-4.228-2.489.415-2.488.166-2.82-3.813-4.976-2.321-1.244-4.228-2.737-4.228-3.235 0-.581 1.907-2.322 4.228-3.898 3.979-2.654 4.394-2.737 7.627-1.991 5.388 1.41 16 .664 22.218-1.493l5.554-1.825 4.062 2.655c4.97 3.151 6.14 3.234 12.35.497 3.82-1.742 5.72-2.073 8.71-1.742 3.65.415 4.31.166 10.77-4.147 4.23-2.82 9.29-5.391 12.69-6.386 3.65-1.162 6.05-2.406 6.63-3.401 3.23-5.972 4.98-7.88 7.71-8.377 1.74-.332 5.64-2.82 9.87-6.138 9.2-7.299 10.61-7.963 13.43-6.967 3.23 1.078 3.4 5.142.33 12.856-2.24 5.723-5.14 19.243-5.14 24.219 0 2.654.5 2.654 7.29.581 2.91-.913 5.72-1.659 6.3-1.659.58 0 1.91 1.493 2.91 3.318.99 1.824 2.23 3.317 2.73 3.317s4.4-2.654 8.71-5.806c7.13-5.474 7.71-6.054 7.71-8.709 0-2.571.25-2.903 1.99-2.903 1.41 0 3.23-1.327 5.8-4.313l3.73-4.23 2.57 5.723c1.49 3.152 3.15 6.885 3.81 8.295l1.08 2.654-6.55 2.654c-3.65 1.41-6.63 3.069-6.63 3.567 0 .497 1.16 2.073 2.57 3.566l2.57 2.654-2.07 1.825c-1.33 1.161-2.32 3.152-2.66 5.225-.33 1.908-1.74 5.723-3.06 8.544-2.32 4.893-2.49 5.64-2.16 14.1.25 8.211.5 9.372 2.57 12.524 2.16 3.401 2.41 3.567 6.63 3.567 4.15 0 4.56.166 8.71 4.396 2.4 2.405 4.31 4.893 4.31 5.474 0 .664-.75 4.064-1.74 7.631-1.33 4.893-2.16 6.635-3.4 6.967-.91.332-5.14.083-9.29-.498-7.13-.912-7.79-.912-11.69.747-3.81 1.659-14.92 5.142-16.41 5.142-.33 0-4.39-3.483-9.12-7.63zm64 16.091c-.74-.332-3.31-2.986-5.8-5.889-7.96-9.373-7.46-8.295-6.22-13.686.66-2.571 1.25-4.894 1.41-4.977 1.33-1.078 17.33-9.621 18.07-9.621.5 0 2.24.581 3.82 1.41 2.9 1.327 3.31 1.327 10.44-.498 4.07-1.078 7.63-1.824 7.88-1.576.16.249-1.91 3.816-4.64 8.046-2.74 4.147-6.06 9.704-7.38 12.276-2.74 5.474-11.11 14.017-14.18 14.681-1.16.165-2.65.165-3.4-.166zm97.36-317.178c-2.96-11.479.14.086-1.51-7.296-1.74-7.465-1.42-8.045-5.07-11.28l-3.81-3.401 1.41-5.972c1.74-7.133 2.4-4.561-8.87-36.577l-8.38-23.639-.58-10.617c-.74-12.358-1.07-13.188-8.87-18.745-2.98-2.074-6.3-4.562-7.46-5.474l-1.91-1.659 2.08-3.981c2.98-5.558 2.32-7.216-2.9-7.216h-4.07l-3.81 7.05c-2.74 5.059-3.73 7.631-3.4 8.958.33.995 2.99 3.815 5.89 6.22 3.31 2.654 5.39 5.06 5.39 5.972 0 .913-.25 1.659-.59 1.659-.33 0-3.23-2.571-6.46-5.723-6.3-6.138-9.62-7.88-12.69-6.47-2.32.996-2.73.581-5.14-5.474-1.65-4.396-2.07-4.728-4.47-4.728-3.48-.082-3.98-.497-7.13-6.054-2.32-4.23-2.99-4.811-5.89-5.309-2.82-.414-3.23-.746-3.23-2.737 0-2.737 2.65-6.386 9.37-12.773 2.82-2.737 6.3-6.884 7.62-9.124 2.08-3.483 2.91-4.23 5.23-4.479 2.07-.166 3.15-.829 4.14-2.654 1.16-1.991 2.41-2.571 6.97-3.649 8.29-1.908 8.2-1.908 11.77 4.561 1.74 3.235 3.65 6.055 4.31 6.304.66.249 2.98-1.078 5.14-2.903 3.81-3.152 4.39-3.401 10.11-3.566l6.05-.249 1.5-5.392c.83-2.985 1.57-6.552 1.57-7.962 0-1.41.91-4.894 2.07-7.797 1.17-2.903 2.08-6.552 2.08-8.045v-2.737h4.81c2.57 0 5.14.249 5.63.58.5.332 3.4 9.373 6.47 20.155 3.65 12.94 6.3 20.819 7.96 23.473 1.41 2.157 2.49 4.313 2.49 4.645 0 .332-3.32 1.659-7.38 2.82-4.07 1.161-7.71 2.654-8.13 3.152-.5.581-1.24 5.225-1.74 10.368-.74 7.797-.74 9.704.25 12.193 1.91 4.561 1.58 4.893-2.57 2.654-7.3-4.064-8.12-2.654-4.06 6.884 1.57 3.732 2.9 7.216 2.9 7.631 0 .414-1.49 2.654-3.32 4.976-1.82 2.323-3.31 4.479-3.31 4.811 0 1.908 20.23 32.928 22.13 33.924.83.414 3.4.497 5.64.249l1.38-2.572.58-3.627c1.85-2.083 2.99-1.413 4.32-1.827 1.74-.498 2.84 1.473 4.17 3.878.49.996 2.97 2.249 4.39 4.542 5.35 3.628 12.14 2.197 17.14 4.664-1.92 7.494-1.31 15.882-1.93 12.226-1.24-7.266 2.13 4.044 5.12 9.435l13.28 4.298.83 5.426c-6.39 5.475-3.98 20.951-4.53 20.028-3.1-5.197-.23.107 12.84 8.509 3.32 2.239-.97 16.841 3.15 22.302 6.92 6.644 7.54 7.466 10.75 13.807l4.14 17.843-72.73-35.666c-4.17-3.878-8.3-9.348-8.55-9.265-.25.083-6.01-6.738-8.58-9.558z"/><path d="M1192.47 656.512c-.99-2.406-1.24-4.562-.83-7.465.5-3.816.33-4.313-3.73-10.617-2.32-3.649-4.56-7.631-5.06-8.792-.41-1.161-1.07-2.073-1.41-2.073-.33 0-4.14 1.078-8.45 2.488-9.2 2.903-9.2 2.903-13.43.746l-3.32-1.659-8.12 4.562c-4.56 2.572-8.46 4.645-8.71 4.645s-.49-.58-.49-1.327c0-.746-2.41-3.732-5.39-6.635-5.14-5.06-5.64-5.309-9.45-5.309-3.65 0-4.07-.249-5.64-3.152-1.25-2.239-1.83-5.059-2.07-10.533-.34-7.051-.25-7.797 2.4-13.52 1.49-3.318 2.74-6.967 2.74-8.128 0-1.079 1.16-3.235 2.57-4.811 2.07-2.405 2.32-3.235 1.65-4.562-.49-.912-1.57-2.074-2.4-2.488-1.91-1.162-.83-2.074 5.22-4.562 2.74-1.078 5.31-2.488 5.64-3.152.75-1.244-7.88-20.57-9.2-20.57-.42 0-2.49 1.991-4.64 4.479-3.24 3.732-4.4 4.562-6.97 4.811-3.07.249-3.07.249-2.82 3.649.33 3.401.25 3.484-5.97 8.129-3.48 2.571-6.63 4.644-7.04 4.644-.42 0-1.58-1.41-2.49-3.068-1.99-3.318-2.82-3.318-11.03-.747-3.64 1.161-3.98 1.078-3.98-.166 0-3.898 2.74-16.257 5.14-22.809 2.16-6.138 2.49-7.88 1.83-10.368-.66-2.654-1.25-3.235-4.23-4.313l-3.56-1.244-6.22 4.396c-3.4 2.322-6.55 4.313-6.97 4.313-.91 0-3.39-8.129-3.39-11.197 0-1.245.41-2.903.82-3.816 1.66-3.069.09-5.64-5.55-8.875l-5.31-3.069.58-3.317c.92-5.475.92-5.64-2.4-7.797-2.65-1.825-2.98-2.239-1.91-3.235.92-.995 1.08-3.483.75-12.939l-.42-11.695 8.21-4.23 8.13-4.147-.17-4.977-.16-5.059 5.14-1.576 5.14-1.576.41-6.221.41-6.22 2.91-.332c5.72-.498 5.63-.664-4.4-13.603-5.3-6.801-6.38-8.709-7.13-12.773-1.16-6.138-1.24-5.557 1.66-8.958 2.9-3.235 2.82-4.147-.91-10.368-1.25-2.156-2.74-5.225-3.4-6.967-1-2.654-.91-3.152.33-4.479 1.16-1.078 2.65-1.41 6.63-1.161 2.82.083 6.8-.332 8.87-.913 3.15-.995 4.07-1.741 5.81-5.059l2.07-3.815h9.7l-.58-4.396-.5-4.313 4.06-3.152c4.07-3.069 4.23-3.152 8.05-2.24 5.96 1.327 10.03 3.816 12.76 7.714l2.49 3.649-2.41 3.318-2.4 3.235 2.07 3.069c2.32 3.401 3.98 3.732 6.97 1.41 1.82-1.41 3.4-1.659 12.27-1.659 8.2 0 10.11.166 10.11 1.161 0 .664-1.82 1.742-4.31 2.571-5.72 1.908-6.55 2.655-6.3 5.641.25 2.322-.08 2.654-3.32 3.815-1.99.746-4.06 2.074-4.56 2.986-.49.912-4.31 5.723-8.45 10.783a755.661 755.661 0 00-8.62 10.533c-.92 1.244-.83 2.157.82 6.055 2.08 4.977 1.99 6.055-1.32 14.598l-1.49 3.815 3.06 4.977 3.15 5.06-2.57 10.284-2.57 10.368 1.33 11.612 1.33 11.695-3.82 17.916c-2.15 9.87-3.64 18.33-3.4 18.745.34.415 2.16.83 4.07.83 2.9 0 4.72-.747 9.03-3.733 3.07-2.073 5.89-3.732 6.3-3.732.5 0 2.41 1.824 4.4 4.147 4.14 4.81 6.71 5.474 6.63 1.659 0-.249-.25-1.244-.5-2.24-.41-1.41-.08-2.073 1.25-2.82 2.23-1.161 3.39-.083 4.8 4.811.67 2.488 1.41 3.566 2.49 3.566 1.66 0 9.2-7.63 9.2-9.206 0-.581-1.16-3.069-2.65-5.557l-2.57-4.562 3.48-3.318c3.32-3.069 3.73-3.235 7.38-2.737 2.16.249 7.38.746 11.61.995 8.2.498 7.79.249 8.62 5.64.16.996 2.82 2.986 7.29 5.474l7.05 3.899 1.41 6.552c2.16 10.368 7.05 19.99 14.84 29.03 3.73 4.313 9.37 12.193 12.52 17.584l5.88 9.622.58 11.612c.34 6.469.25 12.026-.08 12.441-.91.995-3.23-.995-3.23-2.903 0-1.41-8.38-8.211-10.03-8.211-1.33 0-9.04 11.197-8.79 12.773.08.995 1.57 2.488 3.4 3.484 2.57 1.41 3.73 1.658 5.8 1.078 1.41-.415 2.65-.747 2.82-.747.08 0 .17 2.24.17 4.977v4.977h-2.57c-1.33 0-3.24.331-4.15.829-1.57.912-1.57 1.078 1 5.557l2.65 4.645-3.4 3.152c-3.4 3.152-3.48 3.235-10.03 3.235h-6.63l-2.99 4.561c-3.07 4.894-3.4 6.138-1.99 7.631 1 .913.42 2.737-.83 2.737-.41 0-1.32-1.576-2.07-3.4z"/><path d="M1123.83 378.321c-.75-1.742-.58-2.488 1.41-5.06l2.23-2.986-2.98-4.478c-3.15-4.728-7.96-7.88-13.76-9.041-1.58-.332-3.48-.747-4.23-.913-.75-.248-3.07.913-5.14 2.572-2.16 1.658-4.31 2.737-4.73 2.488-.41-.332-.82-1.825-.82-3.484 0-2.488-.83-3.815-5.72-8.875-7.3-7.547-10.04-12.856-10.04-19.491v-4.894l5.48-2.82c3.06-1.493 5.72-3.235 5.96-3.815.17-.664-1.16-2.737-3.06-4.728l-3.48-3.484 4.8-4.313c3.49-3.069 5.31-4.147 6.47-3.815.91.249 2.65.663 3.9.912l2.23.498-.49-4.23c-.42-3.981-.33-4.396 2.82-8.129 1.82-2.239 3.56-4.478 3.89-5.059.33-.581-1.41-3.069-4.47-6.47l-5.14-5.474.58-3.981c.49-3.898.49-3.981-2.49-5.806-2.41-1.493-2.9-2.24-2.49-3.65 1.49-4.81 1.41-5.225-1.16-7.133-1.41-.995-2.57-2.073-2.57-2.488 0-.332 2.49-2.239 5.47-4.23 2.99-1.991 5.81-4.396 6.22-5.474.5-1.41 1.33-1.908 3.15-1.908 2.99 0 2.99 0 4.48-6.552 1.16-4.811 1.08-5.226-.42-7.134-1.49-1.99-1.49-1.99.09-2.903 1.16-.58 1.82-.497 2.73.581.58.746 2.49 2.322 4.23 3.567l3.07 2.322 7.54-2.82c4.64-1.742 8.79-3.898 10.7-5.64 2.4-2.157 4.06-2.903 7.62-3.401 2.9-.332 5.64-1.327 7.38-2.571 4.4-3.235 6.14-2.737 9.7 2.986 2.65 4.313 3.4 4.976 5.64 4.976 3.07 0 3.65.664 5.64 5.889.74 2.074 1.82 4.396 2.4 5.226 1.08 1.41 1.24 1.41 3.81.083 2.49-1.327 2.82-1.244 5.31.331 1.49.913 4.89 3.899 7.63 6.636 2.73 2.737 5.38 5.059 5.88 5.059.75 0 5.31 19.658 5.31 22.727 0 .746-3.9.497-6.39-.415-1.24-.498-3.89-2.737-5.88-4.976-1.99-2.24-4.31-4.065-5.22-4.065-1.08 0-3.57 2.986-8.05 9.705-3.56 5.391-6.71 10.368-6.96 11.114-.58 1.41.33 4.811 7.21 27.205 4.48 14.515 7.13 20.238 10.78 23.224 1.16.996 1.66.913 3.73-.663 2.65-1.908 4.15-2.24 4.15-.913 0 .498-1.83 2.986-3.98 5.641-3.49 4.23-4.23 5.888-6.3 13.851-2.82 10.7-3.4 12.027-5.31 12.027-2.9-.083-3.4-1.079-2.4-4.811 1.07-3.898.33-5.142-3.15-5.142-2.16 0-20.32 10.616-20.9 12.275-.33.664.17 3.152 1 5.557.83 2.406 1.24 4.728.91 5.226-.25.497-1.82 1.244-3.4 1.824-1.57.498-2.9 1.245-2.9 1.659 0 .498-4.48.83-10.11.83-8.79 0-10.53.249-12.69 1.659-3.15 2.073-3.56 2.073-4.72-.415z"/><path d="M1115.45 222.637c-3.64-3.069-4.14-3.318-6.13-2.405-1.99.912-2.41.663-5.39-2.157l-3.15-3.152-6.63.249-6.72.249-3.23-3.567c-3.15-3.4-3.32-3.898-3.32-8.874 0-4.811.25-5.558 2.9-8.792 2.16-2.572 2.91-4.313 2.91-6.553 0-2.156.74-3.981 2.65-6.304 2.57-3.234 2.57-3.234.99-4.976-2.98-3.318-9.03-7.133-14.42-9.041-2.99-1.078-5.72-2.239-6.14-2.654-1.16-.995 1.33-5.723 8.13-15.179 7.13-9.787 7.96-11.28 7.96-14.017 0-1.161.49-2.405.99-2.737.58-.332 5.14-.83 10.12-1.161 5.72-.415 9.36-.996 10.03-1.742 1.41-1.493 2.15-11.944.91-13.437-.58-.829-2.99-1.327-7.13-1.493-4.97-.249-6.72-.663-8.87-2.322-1.49-1.079-2.74-2.572-2.74-3.152 0-1.161 9.12-17.833 14.35-26.127 2.57-4.147 12.18-13.105 23.87-22.146 11.52-8.958 40.04-28.2 41.78-28.2.92 0 3.73.746 6.22 1.658 2.49.913 5.31 1.66 6.22 1.576 2.24 0 10.69-5.972 11.11-7.796.41-2.074-1.08-2.738-7.96-3.401-6.13-.58-7.38-1.493-4.81-3.65.66-.58 1.99-3.483 2.9-6.552 1.66-5.474 1.66-5.557 8.46-9.953 3.65-2.489 7.29-4.645 8.04-4.81.75-.167 2.65.829 4.23 2.156l2.9 2.405-1.49 5.64c-2.49 9.704-2.9 9.29 12.27 11.944 5.39.912 10.36 2.073 10.94 2.571 2.74 2.323 0 8.212-3.81 8.212-2.9 0-3.98.912-8.38 6.884-3.31 4.562-3.64 4.893-6.3 4.479-2.32-.415-3.4 0-6.88 2.82-4.31 3.4-4.64 3.981-5.47 9.455-1.08 6.636-.58 6.22-8.12 5.64-8.38-.58-9.21 0-8.38 6.304.34 2.24 1 4.728 1.5 5.391.58.83 3.98 1.742 9.11 2.489 4.48.663 8.54 1.493 8.88 1.907.41.415 1.49 3.65 2.4 7.3l1.66 6.552-3.65 5.391c-4.56 6.553-4.15 7.548 3.15 7.548 4.48 0 5.64-.415 9.37-2.903 4.81-3.235 5.3-3.318 11.85-1.991 4.07.83 5.14.747 9.62-.83 6.63-2.322 8.7-2.239 11.44.581l2.32 2.406-6.22 6.635-6.21 6.636 3.23 13.105c1.82 7.216 3.15 13.602 2.9 14.183-.33.829-2.15 1.161-6.3 1.161h-5.8v3.733c0 2.156-.91 5.888-2.07 8.709-1.17 2.654-2.08 6.137-2.08 7.63 0 1.493-.49 4.562-1.08 6.885l-1.07 4.147-5.81.414c-5.14.332-6.21.747-8.95 3.069-1.66 1.493-3.48 2.737-4.06 2.737-.5-.083-2.41-2.654-4.15-5.806-3.48-6.635-3.64-6.635-12.52-4.561-7.21 1.658-7.62 1.824-8.62 4.064-.58 1.41-1.82 2.156-4.06 2.488-2.82.498-3.48 1.161-6.38 5.972-1.74 2.986-5.23 7.133-7.63 9.207-6.8 5.806-8.62 8.875-8.62 14.515 0 5.64-1.41 6.967-8.37 7.796-3.49.415-5.06 1.079-7.71 3.567-2.91 2.571-13.77 7.465-16.67 7.465-.41 0-2.65-1.576-4.81-3.484zm-29.84-172.273c-2.73-2.986-3.06-3.816-3.06-7.88 0-3.898.24-4.562 1.9-5.06 1-.331 2.82-1.244 4.07-2.156 1.16-.83 2.57-1.493 3.06-1.493 2.16 0 .17 18.911-2.07 19.657-.5.166-2.24-1.244-3.9-3.068zm111.59 704.269c-.75-.497-.17-2.322 2.24-6.884 1.82-3.401 3.31-6.635 3.31-7.216 0-.581-2.4-4.894-5.39-9.621-3.73-6.055-6.71-9.622-9.94-12.193-2.49-1.991-4.56-4.23-4.56-4.977 0-1.658 2.48-9.206 3.48-10.45.41-.498 3.23-1.327 6.3-1.908 6.63-1.078 10.11-2.322 10.11-3.65 0-.497-.49-2.405-1.16-4.23-.66-1.824-1.41-7.299-1.74-12.026-.41-6.553-1.08-9.871-2.57-13.188-2.07-4.645-2.49-6.719-1.33-6.719.42 0 1.33-.497 2.16-1.161 1.49-.995 1.49-1.244.17-3.152-1.25-1.99-1.25-2.239.83-5.972l2.15-3.815h12.77l4.56-4.064 4.47-4.064-2.23-4.645-2.24-4.562 3.06-.249c2.41-.249 3.15-.663 3.57-2.322.91-3.235.83-11.446-.08-12.027-.42-.332-2.16-.166-3.82.332-2.32.663-3.56.497-5.39-.415-1.32-.664-2.4-1.493-2.4-1.908 0-.331 1.49-2.82 3.4-5.391l3.4-4.728 3.81 2.737c2.74 1.991 3.98 3.484 4.15 5.06.25 1.659.99 2.571 2.98 3.401 2.24.912 2.82 1.658 3.23 4.313.34 1.741 1.33 6.386 2.24 10.285 1.66 6.386 1.83 10.036 2.24 41.471l.42 34.421-5.31 11.612-5.31 11.529-10.19 3.069c-5.56 1.742-10.61 3.484-11.19 3.982-.67.497-1.25 3.4-1.5 6.635-.25 3.152-1.16 7.382-1.99 9.539-1.24 3.068-1.99 3.815-3.64 3.815-1.16-.083-2.49-.332-3.07-.664z"/><path d="M947.406 573.486c-5.803-4.396-6.384-5.225-9.037-12.358-1.575-3.982-4.559-8.295-15.751-22.312l-2.238-2.82-5.223 2.24-5.223 2.239-5.223-5.06-5.306-5.059-6.052.498c-3.316.331-6.632.746-7.378.995-.663.166-3.399 4.728-5.969 10.036-3.565 7.382-4.891 11.031-5.223 14.93-.414 3.566-1.077 5.64-2.155 6.635-1.575 1.41-1.741 1.327-3.897-1.41-1.575-1.908-2.735-2.654-3.647-2.239-2.57.912-14.26 9.04-17.244 11.943l-2.985 2.821-2.569-2.24c-3.151-2.571-3.234-3.235-1.327-22.063.746-7.299 1.078-13.768.912-14.349-.249-.581-1.658-1.327-3.067-1.659-1.824-.415-3.482-1.907-5.886-5.142-2.985-4.064-3.317-4.977-2.902-7.797.249-1.659.746-3.732.995-4.396.331-.912-.58-1.991-3.316-3.649-2.322-1.41-3.731-2.903-3.814-3.816 0-1.742-3.15-7.548-6.383-11.944-1.41-1.99-2.902-2.82-5.306-3.234-3.067-.498-3.233-.581-1.907-1.991 1.078-1.244 1.161-1.991.415-4.313-1.741-5.142-2.653-5.474-15.006-5.806L784.503 482l-.249-3.981c-.166-2.571.331-5.143 1.492-7.714.912-2.156 1.658-4.645 1.658-5.474 0-.912-1.741-4.064-3.813-6.967-3.068-4.313-3.897-6.304-4.477-10.617-.912-6.055-1.492-7.963-2.57-7.963-1.907 0-1.492-2.654.995-6.054l2.653-3.816-3.068-15.593-2.984-15.593-4.228-4.23-4.228-4.313 4.725-4.728c4.477-4.479 4.974-4.728 7.959-4.396 4.394.663 5.306-.83 6.466-10.119.58-4.396 1.244-8.543 1.492-9.373.166-.829 2.819-4.23 5.721-7.465 2.901-3.317 5.305-6.635 5.305-7.382 0-2.322-12.767-20.818-16.58-24.136-3.399-2.903-3.731-3.567-5.389-11.197-.995-4.396-1.658-8.626-1.492-9.29.332-1.327 5.389-4.976 6.881-4.976.414 0 1.575 1.493 2.487 3.317 2.238 4.396 4.145 4.313 6.466-.414 2.239-4.645 3.98-5.724 12.519-7.88 6.963-1.659 8.373-1.659 8.373.332 0 1.742 4.891 5.474 7.129 5.474 1.078 0 6.384-1.825 11.773-4.064 5.305-2.24 10.528-4.313 11.523-4.562 2.736-.912 2.902-2.654.663-7.714-2.404-5.308-2.487-6.801-.912-9.041.995-1.327 2.073-1.493 7.461-1.327 6.052.249 6.467.166 9.286-2.322 1.575-1.327 3.233-2.488 3.564-2.488.415 0 4.56 3.4 9.285 7.63 6.55 5.972 8.125 7.714 6.881 7.963-1.741.332-3.647 1.659-3.647 2.654 0 .332 2.901 2.737 6.383 5.391 5.638 4.23 7.876 5.309 17.575 8.461 14.84 4.727 14.923 4.644 10.612-8.295-1.658-5.142-3.067-10.036-3.067-10.782 0-1.162 1.077-1.327 7.709-1.162l7.628.166 1.658-4.81c.912-2.572 2.155-4.894 2.818-5.143.663-.249 3.482-.746 6.218-.995 6.549-.664 8.124-1.493 7.544-3.815-.414-1.411.415-2.655 3.316-5.475 2.073-1.99 3.731-3.898 3.731-4.313 0-.414-2.57-2.737-5.803-5.059-5.969-4.313-6.301-4.811-6.881-11.695-.415-4.645-.083-5.143 6.715-8.958 14.922-8.46 24.622-14.515 29.596-18.662 5.057-4.147 5.969-4.562 9.036-4.313 3.648.249 3.565.083 2.404 5.723-.248 1.327.001 2.322.747 2.571 1.16.415 27.858-5.225 29.508-6.304.59-.331 4.15-6.884 8.05-14.515l7.04-13.934 6.64-3.484c6.54-3.4 6.71-3.4 11.35-2.571 3.57.664 5.23 1.493 6.64 3.152.99 1.244 1.9 2.571 1.9 2.903 0 .249.75.746 1.66 1.078 2.49.747 11.44-5.64 12.93-9.289 1.41-3.235 1.25-3.235 9.7.165 4.98 1.991 11.36 6.553 11.36 7.963 0 .498-.75 1.825-1.66 2.986-.91 1.161-1.66 3.235-1.66 4.562 0 2.903-1.07 5.059-4.22 8.792-2.16 2.405-2.41 3.235-2.41 8.626 0 5.059.33 6.386 1.66 7.548.91.829 1.82 2.156 2.07 2.986.83 2.654 6.39 4.396 12.27 3.732l5.31-.581 4.56 5.06 4.64 5.142-1 4.313c-.91 3.982-1.16 4.313-3.81 4.728-2.15.332-2.9.913-3.31 2.406-.34 1.41-2.57 3.4-6.8 6.22-3.57 2.323-6.39 4.728-6.39 5.474-.08.664 1.25 2.074 2.91 3.152 2.4 1.576 2.9 2.24 2.4 3.733-1.58 5.059-1.49 5.391 1.57 7.299 2.91 1.907 3.07 2.073 2.57 5.723-.49 3.732-.41 3.898 4.07 8.709 2.57 2.737 4.64 5.391 4.64 5.889 0 .497-1.49 2.654-3.4 4.81-2.9 3.235-3.32 4.231-3.07 6.802.33 2.903.33 2.903-2.4 2.405-2.57-.498-3.32-.083-8.54 4.562-3.23 2.82-5.8 5.557-5.8 6.138 0 .497 1.32 2.239 2.9 3.815 1.66 1.576 2.82 3.152 2.65 3.567-.08.331-2.4 1.907-5.14 3.317l-4.97 2.655-.25 5.391c-.33 7.631 2.9 14.432 10.11 21.316l5.23 5.06 1.16 6.884c1.65 9.87 1.82 9.456-2.91 9.456-4.06 0-4.14 0-6.05 3.815-2.4 4.811-5.22 5.972-14.26 5.806-6.13-.166-6.38-.083-7.79 2.239-.75 1.41-1.41 2.986-1.41 3.65 0 .663 1.74 4.396 3.81 8.377l3.74 7.216-2.57 3.235-2.66 3.235 1.33 6.22c1.16 5.889 1.74 6.885 7.96 14.764 6.8 8.626 7.13 9.788 2.82 9.87-1.91 0-2.82 2.903-2.82 9.539v3.318l-5.14 1.658-5.23 1.659.25 4.977.25 4.976-8.12 4.314-8.13 4.23.33 12.026c.25 11.529.17 12.027-1.49 12.94-2.65 1.41-2.07 3.068 1.83 5.225 3.64 2.073 3.64 2.156 2.73 7.879l-.58 3.401 5.39 3.152c2.99 1.742 5.64 3.65 5.89 4.313.25.664 0 2.488-.58 4.064-.92 2.406-.75 3.816.83 9.953 2.07 8.129 1.9 8.709-3.57 10.119-3.15.747-3.98 1.493-6.63 5.724-2.82 4.561-3.23 4.976-7.71 5.971-3.07.747-7.13 2.82-11.94 6.055-6.88 4.645-7.54 4.894-10.94 4.313-2.82-.414-4.56-.083-8.38 1.576-6.05 2.737-6.88 2.654-12.02-.497l-4.225-2.655-6.881 2.24c-7.461 2.405-15.336 2.903-21.471 1.244-3.482-.912-3.648-.912-8.871 2.903-2.901 2.156-5.471 3.815-5.72 3.815-.249 0-2.902-1.907-5.886-4.23zm-27.685-353.835c-.829-5.391-.663-6.054 2.487-7.299 3.316-1.41 10.363-1.327 10.86.166.332.913-7.378 7.299-11.109 9.29-1.492.829-1.741.58-2.238-2.157zm-32.75-14.763c-2.073-.664-4.062-1.493-4.477-1.991-.829-.83-2.984-10.617-3.067-13.935 0-1.824.166-1.907 7.295-1.658l7.213.331-.249-2.488c-.083-1.41-.249-3.484-.415-4.562-.082-1.576.249-2.073 1.493-2.073 1.16 0 1.824.829 2.321 3.151.746 2.986 1.244 3.484 6.466 5.806l5.638 2.655-4.145 5.391c-8.788 11.363-9.949 11.944-18.073 9.373zm18.568-20.819c-6.384-3.484-6.052-7.963.663-9.041 2.653-.414 2.901-.249 3.813 2.24.995 3.069 1.244 9.123.332 9.04-.415 0-2.487-.995-4.808-2.239zm13.843-11.944c-2.238-2.322-.912-3.649 7.71-7.963 11.192-5.557 11.607-5.557 10.861-.165-.332 2.239-.747 4.644-.995 5.225-.249.664-3.316 1.742-6.798 2.488-7.627 1.659-9.451 1.742-10.778.415zm360.058 429.976c-1.33-.746-3.15-1.907-4.07-2.654-3.15-2.737-11.19-14.017-15-21.068-3.4-6.303-4.31-7.464-7.38-8.791-2.9-1.245-6.3-4.894-18.4-19.658l-14.84-17.999-6.72-3.151c-8.37-3.816-12.35-7.382-17.66-15.677-4.47-6.967-5.05-9.372-2.82-11.777 1.08-1.245 1.25-2.24.59-5.475-.75-3.981-1.08-4.313-7.38-7.05-2.82-1.161-3.24-2.903-1-4.23 1.25-.829 2.24-.083 6.8 4.645 2.9 3.069 8.29 8.211 12.02 11.446 4.23 3.732 7.13 7.05 7.96 8.958 1.08 2.82 2.65 3.898 16.33 11.446 25.78 14.349 33.33 18.662 34.07 19.409.5.414-1.41 1.741-4.72 3.234-3.07 1.41-5.8 3.069-6.05 3.733-.25.663 1.49 5.64 3.81 11.031 2.4 5.391 5.22 11.861 6.38 14.432 2.41 5.475 3.07 5.806 20.32 11.529 10.69 3.484 16 6.636 10.94 6.553-1.33 0-4.48-.332-6.97-.747-3.31-.497-4.89-.414-5.63.332-1.16 1.078-1.25.83 2.82 10.202 1.41 3.152.58 3.484-3.4 1.327zM620.942 786.98c-2.238-.249-3.233-1.078-5.14-4.147-1.409-2.074-2.653-4.479-2.901-5.225-.664-2.074-2.405-2.489-4.975-1.162-2.321 1.245-9.202 1.493-12.849.498-2.156-.581-13.514-15.676-12.767-16.92.248-.332 1.326-.581 2.404-.581 1.658 0 2.238-.663 3.067-3.401.829-2.903.829-3.566-.249-4.147-4.559-2.654-4.476-2.737 2.819-5.142 6.798-2.24 7.13-2.489 10.446-7.216 3.648-5.226 4.228-5.475 9.368-4.23 3.648.829 4.311.248 5.223-4.479 1.077-6.221 1.16-6.304 8.622-4.645 3.564.829 6.88 1.742 7.378 2.073 1.326.747.249 3.069-2.487 5.475-2.321 1.907-2.404 2.322-2.156 7.796l.249 5.806 3.648 1.079c3.15.829 3.979.829 5.471-.166 1.741-1.079 1.907-.913 4.394 4.396 1.41 3.069 3.399 6.967 4.394 8.626l1.907 3.152-2.321 2.405-2.405 2.488 2.57 2.903c2.487 2.82 2.736 4.977.746 5.64-.58.249-4.145 1.079-7.958 1.991-6.135 1.41-7.213 1.908-9.451 4.645-1.409 1.742-2.902 3.069-3.399 2.986-.498-.083-2.156-.249-3.648-.498z"/><path d="M551.967 686.536l-8.538 3.567c-6.135 2.488-11.192 3.981-17.824 4.976l-10.446 2.406c2.487 3.981 4.311 9.455 12.021 31.103 3.316 9.29 6.217 16.755 6.466 16.755.332 0 1.99-1.908 3.731-4.23 4.559-6.138 6.217-5.143 9.202 5.308l1.326 4.728 4.228.083c2.404.083 8.539.083 13.596-.083l9.202-.166 2.653 3.732c2.239 3.069 3.068 3.65 4.726 3.318 1.16-.249 2.404-1.161 2.984-2.074.995-1.907.663-2.156-4.311-4.976-2.238-1.244-2.487-1.742-1.658-2.737.581-.747 1.327-1.244 1.824-1.244.498 0 3.979-.996 7.876-2.157 6.715-2.074 6.881-2.156 10.694-7.465l3.814-5.391 4.477.415c4.31.58 4.393.663 4.891-1.659a80.385 80.385 0 011.741-5.806c.912-2.489 1.077-5.143.663-10.368l-.58-6.967-7.959-9.29c-4.394-5.142-8.373-9.373-8.871-9.373-.497 0-1.409.581-1.989 1.245-1.824 2.239-3.731 2.82-11.607 3.732l-7.709.829-4.146 4.562c-2.321 2.572-4.642 4.562-5.14 4.479-.497-.166-4.31-4.064-8.124-8.709l-7.213-8.543zm257.414 65.111l-7.461-1.825-2.57-7.299c-1.492-3.981-2.819-7.382-2.985-7.63-.663-.581-34.819-7.963-37.803-8.129-3.897-.249-5.389-2.488-4.892-7.133.332-2.571.995-4.147 2.405-5.142 2.238-1.742 2.072-1.576 6.134-6.304 3.731-4.313 6.301-4.479 6.964-.581.415 2.24 1.41 2.986 10.778 7.631 7.129 3.484 11.357 5.143 13.596 5.143 2.321 0 4.725.995 8.041 3.151 4.311 2.737 4.808 3.401 4.643 5.64-.166 2.24.083 2.489 2.735 2.738 1.907.166 3.482.912 4.726 2.405l1.824 2.239 3.813-1.907c4.809-2.406 6.218-3.899 6.218-6.47 0-1.41 1.741-4.064 5.306-8.045 2.901-3.235 5.72-7.299 6.217-8.875.829-2.488 7.213-10.451 17.576-21.731.912-.996 1.741-4.23 2.321-9.124 1.907-16.589 1.99-18.579.663-20.653-.663-1.078-2.321-5.225-3.565-9.207-2.321-7.216-2.321-7.298-.994-12.275 1.492-5.557 1.823-4.811-4.063-9.621-2.818-2.24-1.658-4.894 3.151-7.382 2.901-1.493 4.062-2.572 4.476-4.396.498-2.24.746-2.406 6.467-2.903 6.135-.498 8.041-1.659 8.041-4.811 0-1.742.829-1.825 5.223-.664 2.653.747 3.482.664 4.643-.414 1.989-1.742 2.984-1.576 4.062.829 1.078 2.322 1.161 2.323 8.124 1.161 4.228-.746 5.969-1.576 8.954-4.23 3.067-2.654 3.813-3.898 4.311-7.133.414-2.986 1.243-4.562 3.565-6.635 4.393-4.065 6.798-3.484 3.399.829-2.405 3.152-2.073 6.47 1.492 13.271 5.554 10.7 8.953 15.344 11.523 15.925 1.244.249 4.311 1.659 6.715 2.986 4.063 2.322 4.311 2.737 4.311 5.723 0 2.737-.331 3.318-2.487 4.23-2.901 1.161-7.71 6.636-14.176 16.091-2.487 3.567-4.891 7.133-5.472 7.88-1.741 2.322.581 8.543 3.731 9.953 4.642 2.073 4.228 5.225-1.824 12.441-2.487 3.069-5.554 5.475-9.368 7.465-5.223 2.737-5.637 3.235-6.3 6.387-.498 2.571-1.493 4.064-3.897 6.055-1.824 1.41-4.062 4.147-4.974 5.889-1.575 3.068-1.907 3.317-5.223 3.317-2.653 0-4.394.581-7.047 2.489-2.238 1.741-3.979 2.405-5.057 2.073-2.155-.663-7.544 1.991-7.544 3.816 0 .829.415 2.405.912 3.483.829 1.742.663 2.488-.829 4.562-2.57 3.65-2.238 5.64 1.244 7.465l2.984 1.493-2.901 1.99c-2.156 1.493-3.068 2.738-3.399 5.143-.581 3.649-1.078 3.732-9.866 1.742-4.477-.996-7.958-1.161-14.093-.83l-8.208.581-6.466 4.562c-3.814 2.654-7.295 4.479-8.373 4.479-1.078-.083-5.306-.913-9.451-1.908z"/><path d="M871.223 750.071c-2.902-2.323-3.316-3.069-3.151-5.557.166-2.323.83-3.318 3.648-5.392 1.907-1.41 3.482-2.986 3.482-3.649.083-.581-1.409-1.659-3.233-2.488-3.814-1.576-3.979-2.323-1.575-5.475 1.575-1.99 1.741-2.571.912-5.308-.829-2.571-.746-3.152.497-4.064.829-.664 2.404-.913 3.814-.664 1.823.332 3.067-.083 5.637-2.073 2.238-1.825 4.477-2.738 7.544-3.152 3.814-.498 4.477-.83 5.555-3.235.746-1.493 2.984-4.313 5.139-6.387 2.57-2.488 3.98-4.561 4.311-6.635.498-2.654 1.078-3.235 5.721-5.308 4.228-1.991 5.969-3.484 9.948-8.461 4.477-5.64 4.808-6.386 4.56-9.87-.249-3.318-.581-3.898-2.902-4.976-3.814-1.576-5.223-6.055-2.902-8.626.912-.996 3.068-3.982 4.892-6.719 5.14-8.128 10.445-14.349 12.684-14.93 3.316-.912 4.145-2.073 4.145-5.971 0-2.82-.498-4.065-1.99-5.558-2.404-2.156-8.87-5.474-10.777-5.474-2.073 0-12.518-17.169-13.099-21.565-.248-1.825.166-2.074 5.223-2.986 9.783-1.825 12.85-4.396 11.938-10.119-1.078-6.635-1.161-6.718-4.145-7.299-3.814-.746-5.389-3.649-5.389-10.202 0-5.806.166-5.889 8.125-5.889h5.554l1.658 4.23c1.41 3.65 2.736 5.226 8.29 9.539 3.648 2.903 8.788 6.386 11.358 7.879 4.477 2.406 4.725 2.737 4.56 5.474-.166 2.489.248 3.069 2.901 4.645l3.068 1.742 1.989-1.825c1.078-.995 2.156-1.824 2.487-1.824.249 0 1.658 1.658 3.151 3.732 1.492 1.991 3.15 3.732 3.647 3.732.581 0 1.99-.829 3.234-1.741 1.243-.996 2.404-1.659 2.57-1.493.082.166.994 2.986 1.989 6.22.995 3.401 2.653 6.802 3.814 7.963l2.072 2.073-1.741 2.157c-.912 1.244-1.575 2.737-1.409 3.318.166.663 2.653 3.069 5.554 5.474l5.223 4.396-4.642 4.645c-3.399 3.483-5.14 6.137-6.632 10.285-2.405 6.22-2.239 7.713.994 8.46 1.244.332 3.897 2.405 5.886 4.645l3.648 4.147-2.238 4.976c-2.156 4.811-2.239 5.392-1.99 17.335.249 11.695.332 12.442 2.238 14.515 2.322 2.406 1.658 3.733-2.487 5.475-1.823.746-3.067 2.239-4.476 5.474-1.244 2.82-2.653 4.728-3.897 5.142-4.228 1.659-9.368 1.825-13.513.581-6.3-1.908-7.378-1.659-9.948 2.074-2.57 3.732-2.985 3.815-9.285 1.99-5.472-1.576-12.187-1.244-14.176.83-.747.746-3.234 4.561-5.555 8.543-3.979 6.884-4.642 7.548-14.591 14.847l-10.363 7.713-13.844 1.659c-18.736 2.322-19.565 2.322-23.71-.995zm67.897-33.343c5.886-1.991 9.119-3.899 14.922-8.709l2.902-2.406-2.156-2.322c-1.824-2.074-1.989-2.82-1.492-6.055.332-2.073.332-3.981 0-4.313-.249-.249-2.984-1.078-5.969-1.742-5.057-1.161-5.637-1.078-8.456.332-1.99.995-3.067 2.157-3.067 3.235 0 .912-.995 2.073-2.487 2.903-2.653 1.327-4.145 3.483-4.145 6.055 0 2.903-3.897 5.225-7.793 4.727-3.151-.414-3.565-.248-6.052 2.986-1.492 1.825-2.736 3.899-2.736 4.396 0 .913 6.881 1.991 18.819 2.82.912.083 4.477-.746 7.71-1.907z"/><path d="M922.546 716.064c-3.897-.415-7.13-.913-7.296-1.079-.166-.082.746-1.493 1.99-3.068 2.155-2.738 2.404-2.821 4.808-1.825 2.238.912 2.819.829 5.637-1.078 2.322-1.576 3.151-2.655 3.151-4.313 0-2.489 1.16-4.148 4.394-6.138 1.243-.747 2.238-2.074 2.238-2.903 0-1.659 3.15-3.401 6.052-3.401.995 0 3.233.415 5.057.912l3.15.83-.414 3.898c-.332 3.235-.166 4.23 1.326 5.806 1.161 1.161 1.492 2.074.912 2.489-.497.331-2.487 1.907-4.56 3.566-3.647 2.986-14.673 7.465-17.741 7.216-.912 0-4.808-.415-8.704-.912zm-107.11 16.091c-.332-1.078-1.493-1.742-3.731-2.157-2.901-.497-3.233-.829-2.984-2.405.58-2.737-9.949-9.621-14.591-9.621-2.404 0-6.135-1.41-12.85-4.728-8.539-4.147-9.617-4.977-10.114-7.216-1.078-5.225-5.14-5.308-10.114-.166-3.565 3.65-3.648 3.732-5.638 2.405-1.658-1.078-2.487-1.161-4.145-.414-1.907.912-2.984.497-10.528-3.733-7.213-3.981-9.12-4.728-12.85-4.81-4.228 0-4.56-.249-8.042-4.148-1.989-2.322-3.648-4.396-3.73-4.727 0-.249 1.906-1.742 4.145-3.152 2.321-1.493 4.145-2.737 4.228-2.82 0-.083.663-4.064 1.492-8.792 1.326-7.631 1.326-9.124.415-11.944-1.327-3.649-1.741-2.82 5.803-11.695l3.233-3.815-2.653-6.802c-1.409-3.815-2.57-7.382-2.57-7.962 0-.498 1.078-3.152 2.487-5.889l2.487-4.894 4.726-.497c7.461-.83 8.124-1.079 9.368-3.318.663-1.161 1.409-2.074 1.741-1.908.331.083 2.155 2.24 4.062 4.645 2.984 3.815 3.73 4.313 6.052 4.147 2.652-.249 2.653-.332 2.735-4.893 0-4.314.415-5.226 6.384-14.35l6.383-9.621-1.243-3.069c-1.741-4.064-1.658-4.313 1.658-4.894 2.404-.414 3.648 0 8.041 2.738 5.14 3.234 10.861 5.225 12.933 4.561.498-.165.995-1.327.995-2.571 0-1.161.746-3.815 1.658-5.806 2.238-4.976 2.156-5.557-1.658-8.045-3.648-2.406-3.813-3.069-2.073-6.138.664-1.161 1.244-4.064 1.244-6.387 0-4.147-.083-4.313-2.736-5.225-1.575-.498-3.813-1.991-5.057-3.235-2.072-2.239-2.238-2.654-1.409-5.64.497-1.742.912-4.479.912-5.972 0-2.156.912-3.898 3.648-7.05 3.481-4.147 3.647-4.645 5.139-13.686l1.493-9.372-3.151-2.654-3.15-2.572.663-8.874.581-8.875 5.637-3.816c5.057-3.317 5.72-3.566 6.466-2.322.664 1.161.249 2.073-1.823 4.147-3.151 3.318-2.57 4.064 3.896 4.894l4.891.746 3.151 5.143c1.74 2.82 3.233 6.22 3.399 7.464.165 1.576 1.326 2.986 3.73 4.562 3.15 2.157 3.399 2.572 2.736 4.479-.498 1.161-.829 2.82-.829 3.65 0 2.322 7.461 13.271 9.036 13.271 3.565 0 3.648.497 2.156 18.247l-1.493 16.838 3.234 2.737c4.891 4.23 5.803 4.23 9.782.497 3.233-3.069 14.757-10.948 16.083-10.948.332 0 1.658 1.244 2.902 2.903 1.243 1.576 2.653 2.903 3.067 2.903.415 0 2.073-1.742 3.731-3.898 2.404-3.152 2.901-4.562 2.901-7.797 0-3.069.995-6.138 4.477-13.437 4.394-9.372 4.477-9.455 7.627-10.036 7.627-1.244 8.705-.912 14.011 4.479 2.736 2.737 5.305 4.977 5.803 4.894.414 0 2.321-.747 4.145-1.576 1.824-.913 3.979-1.659 4.725-1.659 1.41 0 14.011 15.427 14.591 17.832.166.747-1.409 1.245-6.052 1.659-7.295.664-7.875 1.245-7.875 8.212 0 6.22 2.321 10.948 5.803 11.695 2.901.58 4.394 3.317 3.979 7.382-.331 3.068-3.482 5.059-9.285 5.889l-4.062.58 1.409-1.908c1.824-2.654 1.741-2.985-1.078-4.478-2.321-1.162-2.487-1.162-6.632 2.156-3.565 2.986-4.228 3.981-4.725 7.133a12.33 12.33 0 01-3.068 6.553c-3.15 3.649-4.145 4.147-9.782 4.893-4.643.581-4.643.581-5.555-1.99-1.077-3.069-1.989-3.235-5.222-.83-2.322 1.576-2.653 1.659-6.052.498-4.145-1.493-5.14-1.078-5.969 2.322-.746 3.235-1.575 3.65-7.13 3.733-5.969 0-7.295.497-7.295 2.903 0 2.322-.829 3.152-5.389 5.64-2.487 1.41-3.399 2.488-3.813 4.645-.664 3.4-.249 4.81 1.658 5.391.829.249 2.238 1.244 3.15 2.074 1.658 1.575 1.741 1.824.497 6.552-1.243 4.977-1.243 5.06 1.41 13.105 1.492 4.562 2.984 8.543 3.399 8.958.995 1.078.912 8.709-.083 15.344-.498 2.986-1.078 6.636-1.327 8.046-.248 1.825-2.984 5.557-9.036 12.441-5.306 5.972-9.036 11.032-9.617 12.856-.497 1.659-3.482 5.889-6.632 9.373-4.145 4.645-5.72 6.967-5.72 8.626 0 1.825-.663 2.654-3.068 3.898-1.741.913-3.399 1.742-3.647 1.825-.332.166-.746-.415-.912-1.327zm11.357-22.975c2.902-3.484 7.13-14.266 6.55-16.506-.083-.498-.415-1.908-.664-3.235l-.58-2.322-7.378.249c-6.881.249-7.461.166-9.7-1.825-4.891-4.396-4.725-4.396-9.202-1.659-4.642 2.903-5.306 2.986-9.865 1.41-2.57-.912-3.482-.995-4.643-.166-1.907 1.41-1.824 1.908 1.409 9.041l2.819 6.138 5.14.498c2.902.331 6.964.58 9.119.58 3.897 0 3.897 0 7.876 5.806 2.238 3.152 4.477 5.806 4.974 5.806.581 0 2.487-1.742 4.145-3.815z"/><path d="M821.239 709.015c-.663-.747-2.404-3.235-3.896-5.392l-2.653-3.898-7.627-.083c-4.228 0-8.29-.332-9.119-.663-.912-.332-2.653-3.152-3.98-6.221-2.735-6.47-2.155-7.382 3.482-5.143 3.399 1.328 3.399 1.328 7.876-1.244l4.56-2.571 4.145 3.484c3.73 3.069 4.394 3.4 6.052 2.488.994-.498 3.896-.83 6.383-.664 4.394.249 4.477.249 4.725 2.986.415 3.65-2.487 11.778-5.388 15.428-2.653 3.4-2.902 3.483-4.56 1.493zm-190.506 36.909c-1.658-.83-2.073-1.742-2.322-4.894-.248-3.401 0-4.064 1.99-5.391 4.145-2.82 12.767-11.778 12.767-13.271 0-.83-.58-3.733-1.243-6.47-1.659-6.967-1.576-8.626.912-11.861 2.155-2.737 2.155-2.903.911-6.055-.994-2.571-1.077-3.815-.331-6.137 1.078-3.65.58-4.23-2.819-2.986-1.492.497-2.819.746-2.984.58-.166-.166.414-1.99 1.16-4.064 1.41-3.815 1.41-3.898-.497-7.216-1.741-3.152-1.907-5.889-.332-5.806.415 0 1.741 1.742 2.985 3.732 2.735 4.231 3.813 4.479 13.015 2.489 2.985-.664 5.721-.83 6.052-.498.415.415 1.078 2.322 1.493 4.313.414 1.991 3.233 8.377 6.134 14.1 2.985 5.806 5.389 10.949 5.389 11.613 0 .58-1.243 2.405-2.736 3.981-1.575 1.659-3.233 4.562-3.813 6.469-.746 2.903-2.239 4.562-7.959 9.373-4.725 3.898-7.212 6.635-7.544 8.128-1.161 5.475-1.492 5.806-7.544 6.387-7.461.664-8.622 1.078-8.373 2.737.331 1.742-1.658 2.074-4.311.747z"/><path d="M634.044 727.51c0-1.244-1.824-1.825-10.861-3.815-4.476-.913-4.725-1.161-5.223-3.981-.248-1.659-.497-5.143-.497-7.797 0-4.645-.083-4.894-5.14-10.783-2.902-3.317-7.13-8.294-9.534-11.031l-4.311-5.06-1.243-10.285c-.663-5.723-1.492-12.026-1.824-14.1l-.498-3.815 6.218-1.327c3.399-.747 8.208-2.572 10.612-3.982 3.73-2.239 5.471-2.654 13.844-3.317 5.223-.498 9.534-.747 9.7-.581 4.228 5.308 7.876 11.363 7.876 13.105 0 1.327-1.078 3.235-3.068 5.143-1.741 1.658-3.813 4.395-4.725 5.971-1.575 2.903-1.575 2.903.415 6.636l1.906 3.649-1.824 4.479c-.994 2.406-1.823 4.894-1.823 5.557 0 1.079.248 1.079 5.305-.58 1.327-.332 1.493-.166 1.078 1.41-.249 1.078.166 3.152.829 4.645 1.327 2.737 1.326 2.903-.995 6.22-2.321 3.318-2.321 3.567-1.326 8.129 2.238 10.285 2.238 10.782-.746 13.851-3.068 3.152-4.145 3.567-4.145 1.659zm62.261-507.859c0-.747.663-6.055 1.492-11.612 1.161-7.797 1.907-10.451 3.067-11.281 2.322-1.741 3.399-1.493 4.643.996.995 1.824 1.658 2.156 4.062 2.073 2.902-.166 2.985-.083 5.472 5.557 1.906 4.148 2.321 5.889 1.658 6.47-.995.746-19.4 9.29-20.063 9.29-.248 0-.414-.664-.331-1.493zm-14.844-15.179c-3.731-.829-7.13-1.741-7.545-1.907-.331-.249-1.326-2.572-2.155-5.06-1.078-3.649-1.244-5.64-.746-8.958.746-3.981.912-4.313 3.979-5.308 5.14-1.659 11.855-1.493 14.425.415 2.156 1.576 2.239 1.907 2.487 11.114.166 8.045 0 9.455-1.16 10.368-.829.58-1.658.995-1.907.995-.249-.083-3.565-.746-7.378-1.659zm-15.751-26.79c-2.238-2.489-2.404-3.235-1.824-5.558a520.095 520.095 0 001.659-6.22c.911-3.65 4.393-8.544 6.051-8.544 1.658 0 7.13 9.29 7.71 13.023.912 5.888.083 7.381-4.974 8.874-5.886 1.742-5.72 1.742-8.622-1.575z"/><path d="M760.223 391.176c2.487.664 4.725 2.24 7.378 4.977l3.814 3.981 2.57 13.686c1.492 7.465 2.653 14.1 2.653 14.681 0 .497-1.327 2.571-2.902 4.479-3.482 4.313-3.565 5.474-.497 7.713 1.989 1.493 2.404 2.489 2.901 6.968.415 4.313 1.161 6.22 4.228 10.865 2.073 3.069 3.731 6.138 3.731 6.884 0 .747-.746 2.82-1.741 4.728-1.492 2.903-1.658 4.396-1.244 8.792.249 2.986.664 5.557.995 5.889.58.581 2.156.664 13.43.747l8.042.165-4.891 3.235c-2.736 1.825-5.223 3.816-5.555 4.396-.331.581-.746 5.309-.829 10.534l-.166 9.372 2.736 2.323c2.57 2.073 2.736 2.488 2.239 5.889-2.239 15.013-1.99 14.017-5.638 17.833-3.15 3.234-3.648 4.147-4.145 8.792-.332 2.903-.912 5.971-1.161 6.967-.663 2.239 3.648 7.382 7.627 9.041 3.399 1.41 3.565 3.566.664 9.04-1.161 2.157-2.073 4.23-2.073 4.562 0 .415 1.741 1.742 3.814 2.986 2.652 1.576 3.647 2.571 3.399 3.567-.249.746-.912 2.654-1.493 4.313-.497 1.576-1.077 3.317-1.243 3.898-.332 1.244-2.404 1.244-5.223.166-1.078-.498-4.145-2.157-6.798-3.732-3.979-2.406-5.306-2.821-7.627-2.406-2.321.415-5.057.996-5.637 1.742-.581.746-.581 1.493 0 2.654 2.818 5.143 2.818 5.226-3.731 15.096-5.472 8.377-6.135 9.87-6.135 13.437 0 5.391-1.409 5.142-6.218-.996-2.072-2.737-4.145-4.976-4.559-4.976-.332 0-1.741 1.327-3.068 2.986-2.321 2.82-2.818 3.068-8.207 3.566l-5.72.498-3.068 5.806c-1.741 3.152-3.067 6.386-3.15 7.05 0 .664 1.161 4.23 2.487 7.797 2.819 7.299 3.15 6.386-3.565 14.1l-4.062 4.562 1.244 3.732c1.16 3.401 1.16 4.562 0 11.612l-1.327 7.797-4.394 3.069c-2.487 1.742-4.476 3.649-4.476 4.313 0 .663 2.155 3.566 4.808 6.469 2.57 2.986 4.725 5.641 4.725 5.889 0 .332-4.062 1.742-9.119 3.235l-9.119 2.654-.746 3.484c-.498 2.239-1.493 3.981-2.736 4.811-1.078.663-3.399 3.732-5.14 6.801-5.472 9.29-8.456 11.446-19.15 13.685-.664.166-4.146-.165-7.628-.663-5.305-.747-6.88-1.327-8.704-3.235l-2.322-2.322 4.726-4.313c3.316-2.986 4.974-5.309 5.554-7.465.415-1.659 2.156-4.645 3.731-6.553 1.658-1.907 2.984-3.981 2.984-4.644 0-.581-2.569-6.221-5.72-12.442-3.067-6.304-5.969-12.939-6.217-14.847-1.078-5.972-1.659-6.303-8.622-4.893-8.871 1.907-10.197 1.741-12.353-1.41-2.901-4.313-2.984-5.06-.249-7.631 2.073-1.991 2.488-3.069 2.488-6.055 0-2.986-.664-4.645-3.648-8.875l-3.648-5.225 1.492-2.323c.995-1.493 1.41-3.151 1.078-4.81-.332-2.157.249-3.401 2.985-6.885 2.735-3.4 3.399-4.893 3.399-7.63 0-3.152-.166-3.401-3.068-4.148-11.109-2.903-10.197-2.405-10.197-5.723 0-3.815.332-4.23 5.223-7.547 4.311-2.986 4.477-3.567 2.57-8.378-1.244-3.152-1.492-3.317-4.891-3.317s-3.814-.332-7.876-5.392c-4.808-5.889-4.808-5.889-16.415-6.718-9.368-.664-11.026-1.742-8.539-5.557 1.576-2.489 1.576-2.571-.248-7.465-1.244-3.567-1.493-5.06-.746-5.308 1.492-.581 13.844-9.539 14.507-10.534 1.078-1.576.747-1.991-4.642-5.143-3.979-2.322-5.72-3.898-6.798-6.303-1.658-3.65-1.492-3.899 5.886-11.861 4.974-5.392 5.223-6.47 3.233-12.359-1.326-3.898-1.326-3.898.995-7.216 4.062-5.64 4.477-6.801 4.477-13.354 0-7.547-.995-9.123-6.798-10.616-4.394-1.161-3.98-.166-4.394-10.783-.083-2.571-.249-5.059-.332-5.64 0-.581-1.326-1.659-2.901-2.239l-2.736-1.162-.58-8.46c-.581-7.133-.995-9.041-2.985-12.358-1.492-2.572-2.653-6.221-3.316-10.285-.829-5.64-.746-6.47.746-9.373 1.492-2.903 4.974-8.211 5.803-10.617.829-2.405.581-3.649-2.072-11.197l-3.068-8.46-2.984.581c-5.886 1.078-6.052.995-9.7-4.148-1.989-2.737-3.565-5.225-3.647-5.557 0-.332 2.238-2.156 4.974-4.147 5.223-3.815 7.129-6.967 7.958-13.437.498-3.151.166-3.815-2.901-7.547-1.824-2.323-3.399-4.562-3.399-4.977 0-.498 1.907-2.82 4.228-5.225l4.228-4.396 1.326 1.824c2.819 3.982 4.311 4.977 7.462 4.728l3.067-.249.249-5.142c.248-4.894.165-5.226-3.814-10.368-2.155-2.903-4.228-5.889-4.56-6.719-.58-1.575.912-13.851 1.824-14.846.249-.332 6.881-1.161 14.591-1.908 20.228-1.908 21.14-2.074 21.721-3.484.248-.746-.498-3.234-1.658-5.723l-2.156-4.396 3.482-5.142c1.907-2.903 5.389-7.382 7.793-9.953 3.73-3.982 5.72-5.226 14.425-9.124 7.212-3.235 10.363-5.06 10.943-6.47.829-1.658 7.627-5.888 9.617-5.888.414 0 1.16 1.078 1.741 2.405 1.824 4.479 2.404 4.479 11.523.083l8.456-4.147-.249-3.069c-.248-2.82-.082-3.069 2.653-3.816 4.809-1.244 5.223-2.073 4.063-7.796l-.995-4.977 4.062-6.469c2.238-3.567 4.808-6.968 5.72-7.548 1.99-1.493 5.472-1.493 7.296-.166 1.243.995 1.077 1.41-1.99 4.976-4.725 5.558-4.062 6.802 3.316 6.055 5.472-.58 5.72-.497 6.218 1.327.249 1.079.497 2.738.497 3.733 0 1.493 1.41 2.82 2.985 2.82.166 0 2.155-1.742 4.476-3.733l4.229-3.732h14.922l5.389 4.313c3.067 2.405 5.637 5.225 5.886 6.387.331 1.161.58 5.889.663 10.451v8.294l-5.472 8.294c-2.984 4.562-7.378 11.778-9.782 16.008-2.404 4.313-5.969 10.451-8.042 13.686-3.564 5.806-4.394 8.294-2.901 9.206.497.249 2.901.249 5.554-.083 4.477-.497 5.14-.912 11.855-7.05 3.897-3.566 7.379-6.469 7.71-6.469.663 0 .912.663 2.819 9.372 1.326 5.723 1.824 6.802 4.642 9.041 1.824 1.327 5.721 6.304 8.871 10.949 8.705 13.022 8.456 11.28 2.57 17.915-5.637 6.387-6.218 7.797-7.047 16.755-.746 7.879-1.16 8.543-5.223 8.211-2.984-.166-3.482.166-9.119 6.055M512.426 625.49h-.166c-.415.249-.829 1.742-.829 3.152 0 1.659-.746 3.318-2.073 4.728l-2.155 2.322 1.741 2.903c2.072 3.567 1.658 3.899-5.886 5.889l-5.472 1.41-1.824 6.387-1.824 6.304 2.819 4.147c3.15 4.396 3.15 4.81.166 11.612l-1.327 3.235 1.824-.415c1.078-.249 3.731-.996 5.969-1.576 3.151-.912 3.98-.83 4.809 0 .829.829.829 1.576-.664 4.23-1.077 1.742-1.906 3.815-1.906 4.396s2.404 3.732 5.222 7.216c1.327 1.659 2.405 2.82 3.317 4.147 3.73-1.493 7.627-2.239 11.689-2.903 6.632-1.078 11.523-2.405 17.824-5.059l8.705-3.733 4.559 5.143c2.487 2.82 5.886 6.718 7.627 8.543l3.068 3.4 4.228-4.23 4.228-4.396 7.461-.58c8.622-.664 12.352-2.737 12.352-6.884 0-3.982-2.735-25.381-3.316-26.128-.331-.331-2.984.498-5.803 1.991-2.819 1.41-5.471 2.322-5.886 1.991-.414-.415-1.243-3.733-1.99-7.382-.663-3.567-1.575-6.802-1.906-7.133-.332-.332-3.731-.083-7.544.414-6.218.747-7.047.581-8.042-.663-.663-.995-3.15-1.659-6.798-2.24l-5.803-.829-2.902-4.811c-1.492-2.571-3.896-5.391-5.388-6.386-2.819-1.991-25.617-8.544-28.104-8.212z"/><path d="M468.155 682.14c-.249-.415-.249-2.073.083-3.732.663-3.567-.083-4.645-6.715-8.875-3.897-2.571-5.638-3.152-8.125-2.986-2.155.166-3.399-.166-3.813-.995-.415-.664-1.161-6.304-1.741-12.608l-.995-11.363 4.062-8.128 3.979-8.129 4.974-1.244 4.975-1.244-.166-4.977c-.415-8.128-1.078-9.704-4.809-10.699-3.15-.913-3.316-1.079-3.564-4.645-.166-2.986.331-4.645 2.57-8.294 1.492-2.489 3.067-4.479 3.482-4.313.497.082 1.326 1.658 1.989 3.483 1.161 3.567.663 3.318 12.104 6.138 2.736.663 8.29 1.41 12.27 1.742 6.88.497 7.544.414 10.943-1.576 1.989-1.161 3.813-2.157 4.062-2.157.249 0 0 1.327-.415 2.986-.746 2.571-.414 4.23 2.57 12.525 4.145 11.778 4.311 14.929.664 18.994-2.57 2.986-2.653 3.068-1.244 5.474.829 1.41 1.244 2.737 1.078 3.069-.249.331-2.487 1.078-4.974 1.659-2.57.58-5.057 1.493-5.638 2.073-.58.581-1.989 4.064-2.984 7.797l-1.99 6.801 2.985 4.147 2.984 4.147-1.658 4.231c-.912 2.322-1.575 4.81-1.409 5.474.497 3.069-23.793 8.045-25.534 5.225zm112.752-29.112l-1.243-6.801h-7.876c-4.808 0-8.373-.415-9.119-.995-.663-.498-3.565-1.245-6.384-1.576-5.72-.664-5.72-.664-9.285-6.304-3.399-5.474-6.964-7.382-20.725-11.031-6.633-1.742-12.436-3.401-13.099-3.733-.663-.332-2.653-4.728-4.394-9.704-3.15-8.543-3.233-9.207-2.321-13.437.829-3.484 2.073-5.64 6.466-10.866 5.14-6.22 5.638-6.552 8.871-6.635 1.907 0 3.896-.498 4.394-1.161.497-.581 2.57-5.474 4.642-10.866 1.99-5.391 3.897-9.953 4.063-10.202.165-.166 3.73-.083 7.958.249 7.213.581 7.627.747 8.788 2.986l1.243 2.405 6.798-.58c6.633-.498 6.964-.415 12.767 2.488 3.316 1.659 6.55 3.069 7.13 3.069.663 0 3.731-1.659 6.881-3.732 4.394-2.82 5.969-3.484 7.129-2.82.83.414 1.493 1.161 1.493 1.575 0 .498.912 1.162 1.989 1.576 1.244.498 2.736 2.24 3.731 4.645l1.741 3.899-1.658 2.322c-1.575 2.239-1.658 2.571-.498 4.811 1.41 2.654 2.156 2.82 14.923 3.981 6.549.498 6.632.58 9.948 4.313 6.55 7.299 6.964 7.631 10.031 7.631 2.405 0 3.068.331 3.731 2.073 1.244 3.235 1.161 3.318-3.233 6.138-4.228 2.737-5.057 4.479-5.057 10.534 0 2.488.248 2.82 3.565 3.649 8.124 2.24 10.114 3.069 10.362 4.23.166.747-1.492 3.65-3.564 6.47-3.234 4.396-3.814 5.64-3.399 7.797.829 4.81-.664 5.64-12.104 6.552-9.202.746-10.612 1.078-14.84 3.567-2.735 1.575-7.378 3.234-11.026 3.981-3.399.746-8.456 2.488-11.192 3.815-2.735 1.41-5.305 2.571-5.72 2.571-.414 0-1.243-3.068-1.907-6.884zm65.569 117.53c-.912-.995-.746-1.576.746-3.152 2.321-2.488 2.238-3.318-.746-8.045-1.327-2.24-3.316-6.221-4.477-8.875-2.321-5.475-1.99-5.972 3.814-5.972 4.642 0 6.3-1.41 6.963-5.889.332-1.742 1.244-3.816 2.073-4.645 1.575-1.327 1.741-1.244 4.477 1.327 2.57 2.488 3.482 2.82 10.362 3.567 13.928 1.576 21.389-1.908 27.939-13.022 1.575-2.738 4.145-6.138 5.72-7.631 1.741-1.576 2.818-3.318 2.818-4.645 0-2.654 1.078-3.401 6.633-4.977 14.591-4.147 14.259-3.981 13.844-5.64-.746-2.986 3.731-1.824 13.099 3.318 7.959 4.313 9.202 4.811 11.358 4.064 1.741-.663 2.735-.58 3.564.166 1.078.913.995 1.244-.663 2.82-2.901 2.737-3.73 9.705-1.409 12.856.912 1.327 1.658 2.737 1.658 3.152 0 .415-2.57 4.396-5.803 8.958-3.151 4.479-5.803 8.377-5.803 8.709 0 .249 1.492 4.23 3.316 8.875 1.823 4.645 3.316 8.792 3.316 9.29 0 .497-1.824 1.824-4.145 2.986-3.98 1.99-4.643 2.073-20.229 2.073h-16.083l-.994-4.23c-.664-2.654-1.658-4.562-2.819-5.225-.912-.581-6.964-1.908-13.347-2.986l-11.607-1.825-16 7.962c-8.788 4.396-16.083 7.963-16.249 7.963-.166 0-.746-.581-1.326-1.327zM401.172 639.426c-8.87-.995-12.85-1.078-15.337-.414-2.487.663-5.554.497-12.601-.581-5.057-.747-9.534-1.659-9.865-1.991-.249-.331.497-1.907 1.741-3.566 1.243-1.576 2.072-3.401 1.823-3.982-.248-.58-2.901-1.741-5.886-2.571-2.984-.746-5.471-1.742-5.471-1.99 0-1.327 4.974-8.129 7.793-10.866 2.901-2.82 2.984-2.986 2.984-9.124v-6.386l2.902-1.327c1.658-.83 3.813-1.41 4.891-1.41 3.399 0 9.7 2.654 11.026 4.644 1.575 2.489 2.487 2.489 5.637 0 3.482-2.82 5.638-1.658 4.892 2.655-.747 4.561 4.393 14.846 7.792 15.51 4.311.912 9.203 3.649 10.612 5.972.829 1.244 3.067 3.815 4.974 5.64 4.808 4.479 5.223 6.387 2.073 8.626-3.482 2.488-5.969 2.571-19.98 1.161z"/><path d="M386.169 597.624c-1.16-1.741-9.285-4.893-12.767-4.893-.912 0-3.15.746-5.057 1.742l-3.316 1.824-3.233-2.239c-1.824-1.161-3.731-2.157-4.228-2.157-.829 0-3.316-1.078-13.347-5.557-1.741-.746-2.736-1.742-2.736-2.737 0-2.405-1.492-2.82-4.891-1.327l-3.151 1.41-5.471-2.986c-5.969-3.318-5.969-3.318-4.394-9.953l.912-4.147 4.559-.415c4.477-.415 4.56-.498 6.55-4.396 1.989-4.147 2.57-4.396 7.544-3.235 4.062.995 4.891.498 5.471-3.318.581-3.483.166-3.151 9.285-6.967 2.322-.995 2.653-1.576 2.488-3.898-.083-1.576.497-3.65 1.243-4.811 1.824-2.571 1.741-4.23-.249-8.045-2.321-4.313-2.155-6.636.664-7.797 2.155-.995 8.207-6.884 13.761-13.52 1.576-1.907 3.068-4.81 3.399-6.635.664-3.899 2.653-8.046 4.228-8.958.664-.415 1.161-1.327 1.161-2.157 0-.829.497-2.156 1.161-3.068 1.16-1.576 1.243-1.493 2.072.912 1.493 4.147 2.156 4.894 6.135 7.05 3.15 1.659 4.643 3.401 8.539 9.87l4.725 7.714-1.823 7.797-1.741 7.713 1.824 3.65c1.658 3.566 1.658 3.898.497 8.792l-1.327 5.059 2.488 2.074c1.326 1.078 2.735 2.074 2.984 2.074.332 0 1.658.912 2.902 2.073 1.906 1.825 2.238 2.737 2.238 6.884.083 2.572.58 5.641 1.244 6.802.663 1.078 1.243 3.981 1.243 6.303v4.231l-3.067.497c-4.809.83-8.125.664-9.12-.414-1.492-1.411-6.881 10.865-6.881 15.593 0 1.99-.165 3.649-.414 3.649-.249 0-1.575-.58-2.985-1.327-2.321-1.161-2.569-1.161-5.222.913l-2.736 2.073-1.161-1.742z"/><path d="M433.757 638.929c-7.046-2.405-7.792-2.82-8.621-5.308-.415-1.493-2.322-3.899-4.063-5.309-1.823-1.41-3.73-3.566-4.311-4.728-1.409-2.903-6.88-6.552-10.777-7.133-2.819-.497-3.316-.995-5.637-5.557-2.902-5.972-3.068-7.299-.829-10.119 1.16-1.493 1.658-3.4 1.658-6.386 0-2.821.663-5.558 2.072-8.295 2.239-4.396 2.902-4.645 12.85-5.225l3.731-.166.249-4.396c.248-4.064.414-4.313 2.404-4.313 1.243 0 3.73-.747 5.554-1.576 1.907-.912 6.715-2.405 10.777-3.401 8.291-1.99 15.503-6.303 17.161-10.202.498-1.244 1.327-2.239 1.824-2.239.498 0 4.477 1.991 8.871 4.479 7.958 4.562 8.041 4.645 12.684 12.275 2.57 4.231 5.388 9.373 6.3 11.53 1.658 3.732 1.907 3.898 9.368 6.469 4.228 1.493 8.042 2.986 8.456 3.401.332.331-1.326 1.99-3.73 3.566-4.477 2.82-4.477 2.903-10.28 2.074-7.793-.995-14.259-2.157-17.99-3.235-2.736-.746-3.233-1.327-4.891-5.806-1.244-3.318-2.239-4.894-3.233-4.894-.829 0-2.985 2.489-5.472 6.387-3.813 6.055-4.062 6.801-4.062 12.11 0 5.889.746 7.133 4.228 7.216 2.487 0 3.482 1.493 4.062 6.303l.58 4.148-4.642 1.078-4.726.995-4.725 9.539c-2.985 6.054-5.14 9.372-5.969 9.372-.663-.083-4.725-1.244-8.871-2.654z"/><path d="M497.256 588.333c-7.378-2.737-9.865-4.23-9.865-5.971 0-.498-2.57-5.226-5.72-10.451l-5.638-9.456-9.368-5.391c-8.621-4.894-9.45-5.225-10.279-3.815-3.98 6.718-9.286 10.119-19.483 12.524-4.393 1.078-9.119 2.571-10.445 3.235-4.311 2.239-5.969 1.742-7.876-2.406-.995-2.239-1.658-5.391-1.658-8.128v-4.479l-4.56-3.069c-4.974-3.318-5.14-3.815-3.647-10.202.829-3.566.746-4.396-.829-7.216l-1.824-3.235 1.741-7.796 1.824-7.797-5.223-8.792c-4.56-7.796-5.638-8.958-8.871-10.451-2.736-1.161-3.979-2.322-4.891-4.644-1.99-4.728-1.575-8.046 2.487-18.331 3.896-9.787 4.725-10.948 12.518-16.837 2.57-1.991 2.985-2.82 2.985-5.64 0-2.821.58-3.982 3.647-7.217 3.482-3.649 3.814-3.815 5.721-2.737 1.989.996 2.487.83 8.124-3.151 3.316-2.323 6.881-4.231 7.959-4.231 1.824 0 1.907.332 1.907 5.226 0 4.313-.498 6.138-2.57 9.953l-2.57 4.728 2.984 3.981 2.902 3.981 8.953 1.079c5.555.663 10.529 1.741 13.182 2.903 4.145 1.907 4.228 1.99 4.145 5.474-.083 3.483.083 3.732 3.979 5.972l4.062 2.405 6.052-1.825 6.135-1.824 3.979 3.317c3.565 2.986 3.98 3.65 4.394 7.797.249 2.82 1.575 6.801 3.648 10.865l3.233 6.47h5.306c5.14 0 5.471.083 10.943 4.479 5.14 4.064 6.218 4.562 12.933 5.723l7.295 1.327 5.803 6.304 5.803 6.22h16.001l4.725-3.898 4.725-3.898 4.726 5.142c4.477 4.811 4.974 5.143 8.456 5.143 2.653 0 4.891.746 8.622 2.903 2.736 1.659 5.554 3.318 6.217 3.649.747.415 1.161 1.493.995 2.82-.497 4.065 2.736 9.456 7.213 12.276 2.321 1.41 3.979 2.986 3.73 3.401-.994 1.493-11.855 8.128-13.43 8.128-.829 0-2.238-.747-3.067-1.659-.829-.912-1.99-1.659-2.57-1.659-.58 0-3.979 1.742-7.461 3.899l-6.301 3.898-6.135-3.152c-6.052-3.152-6.3-3.152-12.352-2.654-6.135.581-6.218.58-7.13-1.576-.58-1.161-1.824-2.322-2.736-2.488-3.481-.664-16.829-1.161-17.658-.581-.497.332-2.404 4.562-4.228 9.373-4.642 12.358-4.642 12.358-8.373 12.358-2.984 0-3.565.415-8.373 6.138-2.902 3.484-5.886 6.221-6.549 6.221-.664 0-4.477-1.244-8.374-2.655z"/><path d="M595.744 531.766c-4.725-2.82-7.295-3.732-9.782-3.732-2.985 0-3.814-.498-7.627-4.645-6.218-6.718-6.218-6.718-11.773-1.991l-4.808 4.147h-14.342l-5.555-6.137-5.554-6.138-7.544-1.41c-6.964-1.41-8.042-1.908-13.182-5.972-5.471-4.23-5.886-4.396-10.943-4.479h-5.223l-3.15-6.801c-1.989-4.479-3.067-8.046-3.067-10.285 0-3.152-.415-3.816-4.311-7.299-2.404-2.074-4.974-3.733-5.72-3.733-.829 0-3.731.664-6.633 1.576l-5.14 1.659-3.481-2.073c-3.151-1.825-3.482-2.323-3.482-5.475 0-5.308-4.228-7.382-18.322-9.04-8.456-.996-8.539-.996-10.528-3.982-2.57-3.732-2.57-4.064 0-8.543 1.658-2.986 2.072-4.728 2.072-9.953v-6.387l2.487-.497c1.327-.332 4.311-2.24 6.55-4.23 3.813-3.484 4.725-3.816 11.44-4.977 9.948-1.742 9.202-1.41 15.752-7.631 4.31-4.147 6.217-6.635 6.963-9.206.912-3.069.912-3.733-.165-4.313-3.648-2.24-3.648-2.074-.498-6.719 1.741-2.405 3.068-4.893 3.068-5.391 0-.498-.995-2.903-2.156-5.226-2.155-4.313-2.155-6.635-.083-6.635.58 0 4.726 5.557 9.202 12.441 5.803 8.792 8.622 12.442 9.7 12.442.995 0 2.57-1.493 4.145-3.981 3.233-5.143 3.648-7.05 1.99-9.622-1.078-1.659-1.244-3.069-.746-6.801.58-4.728.58-4.728-2.488-7.299l-3.15-2.571 1.99-2.489c.995-1.327 3.316-5.391 4.974-9.04 2.902-6.387 2.984-6.719 1.741-8.875-2.238-3.816-.995-5.889 6.715-10.7 6.218-3.898 7.627-5.308 13.264-12.939 4.063-5.557 6.881-8.626 7.876-8.626 1.575 0 10.777 3.152 11.855 4.147.415.332.415 2.488.083 4.894-.497 3.649-1.409 5.308-6.218 11.363-3.15 3.981-5.72 7.879-5.72 8.875 0 .912.58 3.898 1.327 6.552 1.326 4.728 1.326 4.894-.829 11.363-1.161 3.65-2.156 7.299-2.156 8.129 0 .829-1.326 5.474-2.901 10.202-1.576 4.728-2.902 9.372-2.902 10.285 0 .912.995 3.981 2.155 6.718l2.073 5.06-3.399 6.386c-1.907 3.484-3.731 6.387-4.145 6.387-.415 0-2.985 2.737-5.803 6.221-4.892 6.055-5.057 6.22-8.788 6.22-1.99 0-6.301-.829-9.368-1.741-11.606-3.567-13.679-.913-5.637 7.299 5.72 5.889 11.855 9.289 16.58 9.372 4.974 0 14.591-4.893 18.239-9.455 1.741-2.157 5.388-5.392 8.124-7.216l4.891-3.318v-9.456c0-10.616.415-11.612 5.555-12.524 4.725-.912 6.964.829 8.373 6.304 2.736 11.114 2.57 10.782 4.974 10.782 1.244 0 3.482-.829 5.057-1.742l2.736-1.658-.58-5.972c-.332-3.318-.912-6.802-1.244-7.714-.414-.995-3.233-3.567-6.3-5.806-4.726-3.401-6.55-4.147-11.441-4.894-5.14-.746-5.886-1.078-6.384-2.903-1.409-5.225-.829-7.879 3.399-14.515 2.322-3.649 4.146-6.967 4.146-7.465 0-.497-.912-4.561-1.99-9.123-2.321-9.29-2.073-10.368 2.984-15.013 4.228-3.981 10.197-7.963 10.446-7.133.166.498-1.078 4.313-2.653 8.709-1.658 4.313-2.984 8.294-2.984 8.792 0 1.825 15.834 10.865 19.15 10.865 1.907 0 3.98-2.156 4.062-4.064 0-.58-2.404-3.815-5.388-7.133-2.985-3.318-5.389-6.635-5.389-7.299 0-2.239 1.658-2.571 3.648-.663 2.072 1.907 3.896 2.156 6.383.829 2.156-1.078 1.99-2.654-.58-7.05-1.741-2.986-1.99-3.898-1.161-4.977 2.487-2.903 5.969-.249 3.897 3.069-.829 1.327-.746 1.825.248 2.654.747.498 2.985 2.737 4.975 4.977l3.564 3.981-3.813 3.899c-2.156 2.156-3.896 4.313-3.896 4.81 0 .581 1.658 2.82 3.73 5.143 3.979 4.313 4.311 5.889 2.819 11.031-.746 2.405-2.321 4.23-6.632 7.548-3.068 2.405-5.804 4.811-6.052 5.391-.415.913 3.316 6.884 7.958 12.69 2.239 2.821 2.322 2.821 5.804 1.908 1.989-.58 3.813-.746 4.145-.415.331.332 1.575 3.318 2.735 6.636l2.073 5.972-4.145 8.211-4.145 8.129.912 6.552c.663 4.479 1.741 7.963 3.482 11.114 2.238 3.982 2.57 5.558 2.901 12.442.415 8.543 1.078 10.782 3.316 10.782 2.819 0 3.482 1.742 3.482 9.207 0 8.046.58 8.958 6.218 10.285 4.145.995 4.559 1.825 4.559 8.211 0 5.724-.165 6.221-3.399 10.783l-3.481 4.811 1.409 4.313c.746 2.405 1.326 4.893 1.326 5.557 0 1.493-8.124 10.7-9.368 10.7-.58 0-3.896-1.742-7.378-3.733zM316.116 659.499c-.249-.664-.083-2.406.414-3.899 1.161-3.317.249-4.562-4.311-5.308-6.3-.995-6.632-1.493-4.476-5.972 1.077-2.157 2.818-6.221 3.896-9.124 2.404-6.635 8.042-12.275 11.441-11.446 5.637 1.41 6.217 1.161 9.036-4.064 4.394-8.128 3.399-11.114-3.15-9.621-2.819.58-5.223.414-10.612-.747-3.813-.829-7.129-1.825-7.461-2.239-.332-.415-1.326-2.323-2.155-4.313l-1.576-3.567 2.073-1.576c3.565-2.82 5.389-2.82 8.788-.166 2.653 2.157 4.145 2.572 9.865 3.069 7.793.747 7.627.83 10.28-7.216.995-3.069 2.073-5.557 2.321-5.557 1.741 0 19.151 7.631 21.223 9.29 1.99 1.575 2.487 2.654 2.819 6.552.332 4.645.332 4.645-3.814 9.29-4.228 4.644-7.627 10.202-7.627 12.441 0 .747 1.99 1.742 5.389 2.654 2.985.83 5.389 1.659 5.389 1.825 0 .249-.829 1.825-1.741 3.567-2.156 3.815-2.985 3.815-13.845-.166-7.71-2.82-9.617-2.572-12.187 1.244-1.243 1.99-1.243 2.488.746 8.543 2.156 6.884 1.741 8.128-1.906 6.138-2.404-1.327-8.871-1.079-10.363.414-.663.664-1.492 2.903-1.824 4.977-.249 2.074-1.078 4.313-1.741 4.977-1.575 1.575-4.311 1.575-4.891 0z"/><path d="M309.736 683.302c-3.98-2.488-5.057-2.82-6.218-1.99-4.311 3.068-4.974 3.068-8.373-.249-2.653-2.489-3.399-3.982-3.814-7.299-.995-6.719-5.471-9.622-11.523-7.299-2.321.912-2.156.995-8.208-6.138l-2.072-2.488-6.881 1.41c-3.814.829-7.378 1.493-7.959 1.493-.58 0-1.409-1.493-1.906-3.235-.415-1.825-1.493-4.064-2.322-5.143-1.326-1.575-1.741-1.658-3.316-.829-.995.498-2.155.747-2.57.498-.414-.249-1.326-3.899-2.155-8.129-.829-4.23-1.824-8.294-2.156-9.04-.414-.83-2.404-2.157-4.476-3.069-3.648-1.659-3.731-1.742-3.731-5.723 0-5.392-.829-6.055-7.047-5.392l-5.14.415-.497-2.654c-.829-3.898-.912-3.816 2.736-4.894 1.989-.58 4.062-1.99 5.222-3.566 1.161-1.576 4.311-3.65 8.457-5.64 5.72-2.738 7.544-4.065 13.513-10.617 3.73-4.147 6.798-8.211 6.798-9.041 0-.912 1.16.166 2.901 2.82 2.653 3.898 2.902 4.811 2.985 10.368 0 5.225.497 7.299 3.979 15.925 3.648 8.958 3.896 10.119 3.233 13.603-.995 5.391-.497 6.22 3.482 5.723 1.824-.249 3.482-.166 3.731.249.663.995-1.078 5.059-2.653 6.22-1.244.913-1.161 1.244.414 3.816 1.576 2.654 1.658 3.069.581 5.225-2.073 3.898-1.575 5.143 1.907 5.723 4.725.83 7.461.664 9.285-.498 1.409-.829 2.072-.58 4.891 2.24 3.896 3.732 5.14 3.566 7.544-1.161.912-1.825 2.321-3.318 3.067-3.318 3.316 0 11.855 1.991 11.855 2.82 0 .498-.58 2.654-1.409 4.811l-1.409 3.898 4.642 6.884c7.047 10.7 6.881 10.036 3.897 13.437-1.41 1.659-2.985 2.986-3.482 2.903-.581 0-3.151-1.327-5.803-3.069z"/><path d="M290.669 653.111c-2.735-2.24-3.399-2.489-5.222-1.659-2.156.995-7.959 1.327-8.788.498-.249-.249-.083-1.742.414-3.318.581-1.825.581-3.401.083-4.645-.58-1.327-.414-3.069.664-6.304 2.155-6.635 2.155-6.801-2.57-6.801h-4.063l.415-4.396c.414-3.898 0-5.391-3.399-13.354-3.068-7.299-3.814-9.87-3.814-13.851 0-4.479.332-5.475 3.897-10.783 2.736-4.147 4.062-7.05 4.394-9.704l.414-3.899 6.218-1.907c7.461-2.323 8.124-2.82 6.715-5.474-1.658-2.986-.912-3.816 4.642-5.972l5.14-1.908 2.073 2.737c1.658 2.24 2.819 2.82 6.218 3.318 4.393.58 6.217 2.239 9.202 8.211.663 1.327 2.155 2.737 3.316 3.152 1.16.498 2.819 1.493 3.73 2.322 3.151 2.82 12.85 7.714 14.508 7.299 2.073-.58 2.073.747.083 6.47l-1.492 4.147-4.725.249c-4.975.249-8.374-1.161-11.69-4.811-.829-.912-1.989-1.659-2.652-1.659-2.073 0-10.197 5.972-10.197 7.465 0 2.571 4.31 11.529 5.72 11.944 5.637 1.659 13.596 2.986 16.829 2.82 2.155-.083 4.228.083 4.477.332.331.332-.415 2.239-1.658 4.313-2.073 3.566-2.239 3.649-4.643 2.82-1.409-.498-3.316-.664-4.394-.415-2.155.581-10.528 8.295-10.528 9.705 0 .58-1.658 5.059-3.814 9.953-2.984 7.133-4.145 9.041-5.554 9.289-1.078.083-2.487 1.41-3.482 3.318-.912 1.742-1.99 3.152-2.487 3.069-.415 0-2.239-1.161-3.98-2.571zm-118.136-26.956c-.415-.829-1.078-2.82-1.409-4.396-.332-1.659-1.907-6.387-3.565-10.617-2.57-6.718-3.233-7.796-5.223-8.211-1.409-.249-2.819-1.493-3.979-3.649-1.327-2.406-2.487-3.318-4.477-3.733l-2.736-.497.083-7.217c0-4.644-.332-7.796-.995-8.543-.58-.663-3.896-1.907-7.378-2.82-5.72-1.41-6.467-1.824-7.627-4.23-.995-2.156-1.078-3.152-.332-4.645.498-.995 1.078-3.317 1.161-5.142.249-3.235.414-3.401 6.466-6.47 3.399-1.658 6.632-3.069 7.13-3.069.414 0 2.321 1.493 4.145 3.401 1.741 1.825 5.803 5.64 8.871 8.377 5.14 4.562 6.3 5.226 12.932 6.968 5.638 1.493 8.042 2.654 10.529 4.81 1.741 1.659 4.808 3.567 6.881 4.23 2.155.747 4.311 1.659 4.974 1.908 3.233 1.659 16.166 30.025 14.176 31.269-1.077.664-17.907 3.484-25.036 4.231-6.135.58-7.876 1.824-9.368 6.386-.995 3.069-3.98 3.981-5.223 1.659zm40.539-19.492c-1.658-5.392-7.959-18.331-10.28-21.234-.663-.829-.332-1.244 1.078-1.576 1.741-.497 1.824-.746 1.243-6.303-.663-7.05-.497-7.216 7.544-7.216 5.555 0 6.052.165 10.28 3.317 2.487 1.825 4.643 3.318 4.809 3.318.165 0 2.238-1.659 4.642-3.732l4.394-3.733 1.824 2.488c2.072 2.903 3.399 3.069 5.471.83 1.907-2.157 3.068-2.157 5.555.249 1.326 1.244 2.404 3.566 3.15 6.967l1.078 5.142-6.135 6.885c-7.295 8.128-6.466 7.465-13.181 10.368-3.316 1.41-6.716 3.649-8.788 5.806-2.156 2.156-4.228 3.566-5.389 3.566-1.077 0-2.735.166-3.647.415-1.493.415-1.99-.249-3.648-5.557z"/><path d="M260.243 585.181c-1.907-2.737-3.73-4.728-4.145-4.479-.663.414-2.487-4.479-2.487-6.802 0-1.078-5.223-5.225-6.632-5.225-.581 0-1.99.746-3.151 1.659l-2.238 1.742-1.824-2.323c-1.077-1.327-1.907-2.737-1.907-3.234 0-.498-.911-1.742-1.906-2.738-1.078-.995-2.404-3.317-2.985-5.142-.829-2.903-1.243-3.235-3.647-3.235-3.068-.083-3.897-.497-5.804-3.483-1.16-1.908-2.072-2.323-5.72-2.489-3.067-.166-4.477-.663-4.642-1.493-.166-.912.497-1.327 2.072-1.327 1.327 0 4.145-.083 6.301-.166l4.062-.166-.332-3.483-.248-3.484 4.559-1.493c2.487-.829 7.959-2.571 12.187-3.898l7.544-2.405 2.984 1.99c1.99 1.41 3.565 1.825 4.975 1.493 2.155-.498 2.321-.166 4.311 10.783.663 3.649 3.316 10.119 4.393 10.782.415.249 3.98-.663 7.959-1.99 3.979-1.41 7.627-2.24 7.959-2.074 1.492.912.663 3.733-1.741 6.47-3.068 3.483-3.068 4.396-.415 5.059 2.653.664 4.809 4.645 2.902 5.309-.663.248-3.482 1.244-6.218 2.156l-4.974 1.742-.415 3.815c-.331 2.489-1.492 5.475-3.564 8.543-1.658 2.489-3.234 4.645-3.482 4.645-.166 0-1.907-2.239-3.731-5.059z"/><path d="M196.989 579.872c-2.238-.664-5.554-2.156-7.378-3.401l-3.399-2.156 4.808-4.313 4.892-4.313-1.078-4.977c-.58-2.737-.912-6.386-.746-8.211l.248-3.318 4.477-.249c4.062-.249 4.477-.497 5.306-2.737.497-1.327 1.326-2.405 1.824-2.405 1.907 0 4.477 2.571 4.725 4.728.166 1.244.829 2.322 1.492 2.405 9.203 1.244 9.12 1.244 10.363 3.649 1.078 1.991 1.824 2.489 4.228 2.489 2.57 0 3.068.331 4.228 3.069.664 1.741 2.073 3.981 2.985 5.059l1.824 1.908-3.897 3.732-3.979 3.733-4.394-3.401c-4.145-3.069-4.808-3.318-9.782-3.318-2.902 0-6.716.415-8.539.913l-3.151.829.498 5.723c.663 6.47.912 6.304-5.555 4.562zm120.044-5.225c-.498-.332-2.156-2.654-3.648-5.143-1.492-2.571-2.819-4.644-2.902-4.81-.166-.083-2.238-.581-4.725-.996-3.482-.663-4.974-1.492-6.798-3.566-2.073-2.405-5.057-8.046-4.56-8.543a153.4 153.4 0 013.399-1.493c1.658-.664 3.068-1.742 3.068-2.406 0-.58 1.492-4.23 3.316-7.962 2.072-4.313 3.316-8.046 3.316-10.036 0-4.977.912-8.129 2.901-10.202.995-.995 2.405-2.986 3.068-4.313 1.16-2.157 1.16-2.82.083-5.806-1.078-3.235-1.078-3.401.746-4.894 3.15-2.488 8.705-7.796 9.368-8.792.248-.497-1.575-3.069-4.145-5.723-4.56-4.893-4.643-4.976-4.394-9.372.249-4.23.414-4.396 2.653-4.728 1.326-.083 3.647 0 5.223.249 2.321.497 3.15 1.244 4.642 4.479 1.824 3.732 1.99 3.898 8.705 5.889l6.798 1.99 8.29-1.493c9.202-1.742 10.363-1.576 21.803 2.571 3.482 1.245 6.384 2.82 6.384 3.401s-.746 2.488-1.658 4.147c-.912 1.742-1.658 4.064-1.658 5.309 0 3.815-12.021 17.335-16.995 18.994l-3.068.995.415 3.898c.249 2.157 1.078 5.226 1.907 6.884 1.326 2.821 1.326 3.152.083 5.143-.746 1.161-1.41 3.152-1.41 4.562 0 2.239-.414 2.571-4.725 4.147-5.306 1.991-6.881 3.484-6.881 6.552 0 1.991-.083 1.991-4.974 1.493l-4.891-.58-2.073 4.147-2.155 4.147-4.726.249-4.808.249-1.244 5.723c-1.243 5.64-2.072 6.884-3.73 5.64z"/><path d="M176.679 569.67c-7.544-2.156-8.042-2.488-15.503-9.29-4.228-3.898-7.959-7.63-8.207-8.211-.332-.663.082-1.576.746-2.073 1.077-.83 1.243-2.655 1.077-10.866l-.248-9.87 2.238-.83c3.233-1.161 12.353 4.894 16.083 10.783 3.399 5.225 3.814 5.557 5.803 4.064 1.327-.912 2.156-.829 6.135.913 6.881 3.068 7.213 3.649 7.71 13.022l.332 8.045-3.814 3.318c-2.072 1.824-3.979 3.235-4.228 3.235-.249 0-3.896-1.079-8.124-2.24zm105.786-9.538c1.409-1.493 1.823-2.986 1.823-6.221 0-5.226-.082-5.226-9.782-2.074-6.798 2.24-6.964 2.24-8.125.664-1.575-2.157-1.492-3.733.581-9.124 1.16-3.235 2.155-4.562 3.233-4.562 2.073 0 3.067-1.493 3.731-5.806.829-5.059 1.16-5.391 4.891-5.391 3.15 0 3.399-.249 7.129-6.221 4.56-7.133 4.146-7.05 13.265-2.654l6.218 3.069-.249 5.806c-.166 3.649-.746 6.718-1.658 8.294-.829 1.327-2.322 4.479-3.316 7.05-1.575 3.816-2.405 4.728-5.223 5.972-2.985 1.244-3.316 1.659-2.819 3.318 1.575 4.894 1.161 5.806-4.145 7.797-6.466 2.571-7.876 2.571-5.554.083z"/><path d="M186.625 542.713c-5.14-2.488-7.13-3.069-7.793-2.405-1.575 1.493-1.99 1.244-4.394-2.82-1.492-2.571-3.979-4.977-7.876-7.548l-5.803-3.815 3.15-3.401c1.741-1.908 4.394-4.894 5.969-6.635 4.228-4.645 5.223-4.977 10.032-3.401l4.062 1.327v5.806c0 4.894.414 6.387 2.57 10.285 1.409 2.488 2.818 4.728 3.233 4.894.332.248 3.316-.913 6.549-2.489 3.316-1.576 6.135-2.82 6.301-2.82.166 0 1.078 1.493 1.989 3.318l1.741 3.318-2.487 4.976-2.487 4.977-3.979-.083c-2.819-.083-5.803-.995-10.777-3.484zm22.968.249c-2.405-1.99-2.57-2.405-1.824-4.727.58-1.493.58-2.986.166-3.65-1.244-1.991-.829-2.82 1.989-4.064 2.404-1.161 2.653-1.659 2.902-5.557.249-4.23.331-4.396 3.15-4.894 1.575-.332 4.891 0 7.544.664l4.809 1.161 1.492 4.479c.746 2.488 1.658 5.142 1.907 5.972.331 1.078-.664 1.99-4.394 3.732-4.56 2.157-4.809 2.488-4.56 4.977.249 3.069-.083 3.234-6.218 3.732-3.73.332-4.642.083-6.963-1.825zm53.632-.166c-.248-.58-1.409-6.884-2.653-13.851-1.326-7.05-2.818-13.271-3.316-13.769-1.077-1.078-14.093-4.23-16-3.815-.663.083-2.238.995-3.482 1.908-1.326.995-2.487 1.576-2.653 1.41-.165-.166-.58-2.074-.829-4.147-.414-3.401-.248-3.982 2.487-6.802 1.741-1.907 3.399-2.986 4.311-2.737.746.166 2.239.581 3.234.912 1.409.415 2.901-.082 5.222-1.741 1.741-1.244 3.234-2.572 3.234-2.903 0-.415-1.99-2.323-4.477-4.23-2.487-1.991-4.56-3.982-4.56-4.562-.083-.498 1.741-2.074 3.897-3.484 3.564-2.322 4.725-2.571 9.948-2.571h5.969v-5.308c0-4.479.331-5.475 2.072-7.134 1.161-1.078 2.073-2.488 2.073-3.068 0-.664.829-2.738 1.741-4.645 1.409-2.654 1.575-3.733.829-4.894-.829-1.327-.249-1.825 4.891-4.396 3.151-1.576 6.135-2.903 6.549-2.903.415 0 1.41.995 2.156 2.24 1.409 2.073 1.409 2.488.083 7.63-1.078 3.982-2.238 6.304-4.477 8.543l-2.984 3.152.912 4.313c1.658 8.046 3.647 13.935 4.725 13.935.58 0 2.984-1.742 5.389-3.733 2.404-2.073 4.394-3.732 4.476-3.732.083 0 2.985.746 6.384 1.659 3.399.912 8.124 1.659 10.363 1.659 3.979.083 4.311.248 8.29 4.727l4.145 4.645-5.803 5.309-5.72 5.308 1.326 3.649c1.326 3.567 1.327 3.567-1.161 6.968-1.326 1.824-2.652 3.4-2.818 3.4-.249 0-2.156-.912-4.394-2.073-7.213-3.65-12.684-5.475-13.845-4.479-.58.414-2.57 3.4-4.394 6.552-3.399 5.64-3.482 5.723-7.295 5.972l-3.979.249-1.078 5.142c-.912 4.065-1.492 5.226-2.653 5.226-1.824 0-2.984 1.327-3.731 4.313-.663 2.654-1.906 3.732-2.404 2.156z"/><path d="M234.297 533.258c-.166-.415-1.243-3.567-2.238-7.133-1.161-3.981-2.404-6.553-3.233-6.718-.747-.249-3.482-.83-6.135-1.328l-4.809-.995.249-4.645.249-4.562 3.73-1.078c3.151-.995 3.98-.912 5.555.083.995.664 2.404 1.244 2.984 1.244.829 0 1.41 1.493 1.741 4.977.664 5.806 1.41 6.055 6.301 2.571l3.316-2.405 6.798 1.576c3.731.912 6.964 1.741 7.047 1.907.166.083.829 3.318 1.492 7.133 1.078 6.138 1.078 7.134 0 8.212-1.078 1.078-1.492.995-3.565-.581-1.326-.912-2.901-1.825-3.565-1.99-.994-.166-10.114 2.322-14.342 3.981-.58.249-1.326.083-1.575-.249z"/><path d="M188.117 528.199c-1.327-2.655-2.156-5.889-2.487-10.119l-.415-6.138-5.057-1.493c-5.057-1.493-8.456-4.479-7.544-6.801.249-.498 5.72-3.318 12.187-6.304 9.202-4.23 12.02-5.889 12.932-7.714 1.41-2.571 1.244-2.571 5.389-1.327 2.902.83 3.316.747 5.554-1.078 2.073-1.742 3.648-2.157 9.451-2.571 3.897-.249 7.793-.913 8.788-1.576 1.658-.996 2.238-.83 5.637.995 2.073 1.161 6.715 4.479 10.363 7.382 6.467 5.06 6.549 5.308 5.14 6.884-1.409 1.493-4.311 1.576-8.041.166-.664-.249-2.902 1.41-5.057 3.733l-3.897 4.147-2.238-1.659c-2.073-1.576-2.322-1.576-7.544-.166l-5.389 1.493-.249 5.64c-.248 5.391-.331 5.64-2.653 6.47-2.321.829-2.487 1.161-2.487 5.225 0 3.815-.248 4.479-2.155 5.474-1.907 1.078-2.239.996-3.233-.249-1.327-1.907-1.907-1.824-8.042 1.079-2.819 1.327-5.637 2.488-6.052 2.488-.497 0-1.824-1.825-2.901-3.981z"/></g></svg>