<svg width="60" height="60" viewBox="0 0 60 60" fill="none" xmlns="http://www.w3.org/2000/svg" preserveAspectRatio="none"><circle opacity=".2" cx="30" cy="30" r="30" fill="#fff"/><rect y="9" width="29" height="40" rx="2" fill="#fff"/><rect x="31" y="9" width="29" height="40" rx="2" fill="#fff"/><rect x="4" y="13" width="21" height="2" rx="1" fill="#D7DBE0"/><rect x="4" y="29" width="21" height="2" rx="1" fill="#D7DBE0"/><rect x="35" y="33" width="21" height="2" rx="1" fill="#D7DBE0"/><rect x="4" y="17" width="13" height="2" rx="1" fill="#D7DBE0"/><rect x="4" y="37" width="13" height="2" rx="1" fill="#D7DBE0"/><rect x="35" y="41" width="13" height="2" rx="1" fill="#D7DBE0"/><rect x="19" y="17" width="6" height="2" rx="1" fill="#D7DBE0"/><rect x="19" y="37" width="6" height="2" rx="1" fill="#D7DBE0"/><rect x="50" y="41" width="6" height="2" rx="1" fill="#D7DBE0"/><rect x="4" y="33" width="19" height="2" rx="1" fill="#D7DBE0"/><rect x="4" y="21" width="19" height="2" rx="1" fill="#D7DBE0"/><rect x="35" y="37" width="19" height="2" rx="1" fill="#D7DBE0"/><rect x="4" y="25" width="7" height="2" rx="1" fill="#D7DBE0"/><rect x="35" y="29" width="7" height="2" rx="1" fill="#D7DBE0"/><rect x="4" y="41" width="7" height="2" rx="1" fill="#D7DBE0"/><rect x="13" y="25" width="12" height="2" rx="1" fill="#D7DBE0"/><rect x="44" y="29" width="12" height="2" rx="1" fill="#D7DBE0"/><rect x="13" y="41" width="12" height="2" rx="1" fill="#D7DBE0"/><rect x="35" y="13" width="21" height="14" rx="2" fill="#006DC3"/><path opacity=".9" d="M49 20.294C49 22.341 47.433 24 45.5 24S42 22.34 42 20.294C42 18.247 45.5 15 45.5 15s3.5 3.247 3.5 5.294z" fill="#fff"/><path d="M3 49h24a2 2 0 01-2 2H5a2 2 0 01-2-2zm30 0h24a2 2 0 01-2 2H35a2 2 0 01-2-2z" fill="#005697"/><rect x="29" y="9" width="2" height="40" rx="1" fill="#005697"/></svg>