<svg width="616" height="522" viewBox="0 0 616 522" fill="none" xmlns="http://www.w3.org/2000/svg" preserveAspectRatio="none"><ellipse cx="138.537" cy="509.224" rx="88" ry="12" fill="#005697"/><ellipse cx="541.037" cy="509.224" rx="74.5" ry="12" fill="#005697"/><path d="M567.538 231.438a214.369 214.369 0 01-16.325 82.064 214.419 214.419 0 01-46.498 69.572 214.517 214.517 0 01-69.592 46.484 214.564 214.564 0 01-82.089 16.321c-118.471 0-214.504-96.005-214.504-214.441a213.546 213.546 0 0145.401-131.966 217.093 217.093 0 0125.881-27.665 214.597 214.597 0 01259.519-20.576c50.392 32.56 86.266 85.673 95.729 147.489v.019a216.146 216.146 0 012.478 32.699z" fill="#00B2FF"/><path d="M177.238 94.232l.003-.004a225.679 225.679 0 0126.894-28.747l.003-.002a223.092 223.092 0 01269.798-21.392l.008.005c52.37 33.837 89.675 89.049 99.518 153.342l.098.639v.027a224.757 224.757 0 012.478 33.337l-398.8-137.205zm0 0a222.043 222.043 0 00-47.208 137.212c.003 123.13 99.843 222.935 223.003 222.935a223.017 223.017 0 00157.691-65.294 222.886 222.886 0 0065.314-157.645l-398.8-137.208z" fill="#006DC3" stroke="#fff" stroke-width="17"/><path d="M293.622 133.781c2.012 8.052 6.042 12.081-2.013 22.149-8.055 10.069-36.254 6.041-36.254 20.134s-10.071 46.311-20.139 46.311-12.085-14.093-18.127-12.081c-6.042 2.012 10.072 30.202 4.03 40.271-6.043 10.069-36.261 18.121-54.388-34.223-17.24-49.795 22.014-90.475 17.199-116.863a217.079 217.079 0 0125.882-27.672c3.807 7.43 11.802 12.948 29.426 5.598 24.169-10.069 44.312-20.134 48.338-8.053 4.025 12.08-38.27 22.15-32.228 40.271 6.042 18.121 34.24-12.081 44.312 0 10.072 12.081-8.07 16.105-6.038 24.158zm12.082-92.622c9.013-18.02 56.397-12.081 62.439 12.08 6.042 24.162-6.042 20.134-14.097 42.283-8.055 22.15-28.198 26.174-36.254 12.081-8.055-14.093-2.02-42.283-4.048-50.335-2.028-8.053-12.069-8.053-8.04-16.11zm259.36 157.558v.019c-8.78 46.514-30.373 32.458-35.792 21.624-6.042-12.081-12.084-10.069-16.114-4.029-4.029 6.041 8.055 8.053 10.072 14.093 2.017 6.041-4.029 14.094-8.055 22.15s8.055 12.081 10.072 20.133c2.016 8.053-10.072 28.19-30.212 38.259-20.139 10.069-30.214 64.436-48.352 62.424-18.138-2.012-4.03-26.174 2.013-44.299 6.042-18.125 2.012-18.121-8.056-32.218-10.067-14.097 4.03-24.162-6.042-30.202-10.071-6.041-14.089 14.097-32.227 16.12-18.138 2.024-16.114-16.109-16.114-24.162 0-8.052-12.085-12.08-10.072-20.133 2.013-8.053 12.085-4.028 24.169-10.069 12.084-6.04 12.084-24.162 24.169-26.174 12.084-2.012 12.084 10.069 18.127 16.109 6.042 6.041 12.084-6.04 24.168-8.052 12.085-2.013 16.114 14.093 26.182 4.028 10.068-10.065-18.127-20.134-18.127-30.202 0-10.069 24.169-22.15 10.072-34.231-14.097-12.08-12.084 30.203-28.198 38.259-16.114 8.056-22.156-8.053-34.241-10.069-12.084-2.016-20.139 36.243-34.24 32.218-14.101-4.024 4.029-24.161 6.042-30.202 2.013-6.04-4.029-10.068 2.013-18.121 6.042-8.053 36.253-10.069 36.253-26.174 0-16.105-12.084-8.053-24.169 4.028-12.084 12.081-28.198-10.068-14.097-32.218 14.101-22.15 40.283-4.028 52.367-20.133 12.085-16.106 0-32.218 22.641-36.243 50.41 32.537 86.269 85.651 95.748 147.467z" fill="#8FE15D"/><path d="M552.999 309.138a214.422 214.422 0 01-58.751 83.717c-3.827-15.846 9.042-19.57 12.869-21.485 4.029-2.012 2.013-12.081 6.042-22.149 4.03-10.069 8.055-2.013 16.114-10.069 8.059-8.056 8.055-18.121 10.072-28.19 1.408-7.02 8.731-7.178 13.654-1.824zm-51.927 15.928c-6.384 0-6.042 14.093-12.084 20.134-6.043 6.04-14.098 14.093-6.043 18.121 8.056 4.028 10.072-16.109 16.114-22.149 6.043-6.041 8.055-16.106 2.013-16.106z" fill="#C1D638"/><path d="M263.423 244.525c19.993-11.297 22.156-12.081 32.227-2.013 10.072 10.069 34.241 8.053 36.254 16.109 2.012 8.057-10.072 14.094-2.013 18.122 8.059 4.028 34.24-2.012 32.227 12.081-2.012 14.093-30.211 10.068-26.181 20.133 4.029 10.065 16.114 20.134 8.055 30.202-8.059 10.069-24.169 2.013-30.211 18.122-6.043 16.109-6.046 28.19-6.046 28.19s16.114 26.173 8.055 30.202c-8.059 4.028-26.182-10.069-36.254-42.283-10.071-32.215-12.103-42.283-32.261-48.324-20.158-6.04-30.196-54.367 16.148-80.541z" fill="#8FE15D"/><path d="M532.037 108.725c13.872.041 21.315 11.474 21.315 11.474s9.808-3.687 11.184 10.065c1.679 16.764-13.884 36.932-16.829 36.382-2.944-.55-18.207-31.499-25.65-36.382l9.98-21.539z" fill="#FF6109"/><path d="M529.556 194.304c-3.97-1.262-6.904-7.885-4.352-8.851 1.958-.708 2.494-3.332 3.557-8.315.38-1.93.636-3.883.767-5.846.729-9.556 19.741-15.351 19.741-15.351-1.995 13.315-1.032 27.824 1.397 31.121 2.428 3.298-17.175 8.505-21.11 7.242z" fill="#FBB59E"/><path d="M518.538 185.225c1.2-4.8 6.834-5.667 9.5-5.5l-.499 2.5c-.333-.333-1.8-.2-5 3s-2.334 8-1.501 10c-1.333-1.333-3.7-5.2-2.5-10z" fill="#006DC3"/><path d="M549.268 155.928c-5.765 16.85-14.447 22.816-20.508 21.21.379-1.93.635-3.883.767-5.846.729-9.57 19.741-15.364 19.741-15.364z" fill="#F6967D"/><path d="M515.539 134.725c-5.4 11.231-7.936 35.288 8.42 38.132 11.881 2.063 21.003-6.575 25.299-16.922a34.816 34.816 0 002.69-11.943c.509-14.281-11.588-17.755-21.423-14.866-9.834 2.889-14.986 5.599-14.986 5.599z" fill="#FBB59E"/><path d="M549.25 155.917c3.887 3.319 11.155-4.353 8.837-9.267-2.897-6.138-8.363-.836-8.999 1.087-.636 1.922.162 8.18.162 8.18z" fill="#FBB59E"/><path d="M550.951 151.928c.344-2.362 1.527-5.086 3.725-5.178 1.868-.08.957 2.328-.368 3.473-1.114.959-3.357 1.705-3.357 1.705z" fill="#F6967D"/><path d="M520.995 156.223c-2.721.052-3.133-1.808-3.14-1.829l-.021-.107.086-.065c.203-.155 4.895-3.862 2.16-10.117a.178.178 0 01-.001-.136.177.177 0 01.328-.005c2.628 6.015-1.493 9.876-2.177 10.461.134.395.804 1.812 3.629 1.376a.156.156 0 01.068.003.167.167 0 01.062.029.187.187 0 01.046.051.17.17 0 01-.011.194.179.179 0 01-.114.07c-.303.045-.609.07-.915.075zm-3.929-5.657c.673-.014 1.195-1.179 1.167-2.603-.028-1.424-.595-2.568-1.268-2.555-.672.014-1.194 1.179-1.167 2.603.028 1.424.596 2.568 1.268 2.555z" fill="#483569"/><path d="M517.028 145.415c-.54-.113-1.823-.044-1.775.262.048.306 1.558.096 1.782.048.223-.048-.007-.31-.007-.31zm10.491 4.957c.673-.013 1.195-1.178 1.168-2.602-.028-1.425-.596-2.568-1.268-2.555-.673.013-1.195 1.178-1.167 2.602.027 1.424.595 2.568 1.267 2.555z" fill="#483569"/><path d="M527.481 145.212c-.54-.113-1.823-.045-1.775.262.049.306 1.558.096 1.779.048.22-.048-.004-.31-.004-.31zm2.523-2.744a.445.445 0 01-.381-.203c-.031-.048-.802-1.196-2.646-1.159a.44.44 0 010-.88c2.357-.045 3.365 1.503 3.406 1.568a.437.437 0 01.025.454.444.444 0 01-.39.234l-.014-.014zm-15.012 0a.445.445 0 00.381-.203c.031-.048.802-1.196 2.646-1.159a.44.44 0 000-.88c-2.357-.045-3.364 1.503-3.406 1.568a.437.437 0 00-.025.454.44.44 0 00.39.234l.014-.014z" fill="#483569"/><path d="M520.812 164.299c2.327-.047 4.243-1.743 4.226-2.574-.017-.831-3.174-.046-5.501 0-2.328.047-3.516.169-3.5 1 .017.831 2.447 1.62 4.775 1.574z" fill="#FB5252"/><path d="M519.447 163.125c-1.858.038-3.44-.268-3.994-.805a.176.176 0 01.123-.302.18.18 0 01.125.051c1.197 1.156 7.86 1.077 10.663-1.427a.179.179 0 01.304.126.18.18 0 01-.053.125c-1.73 1.53-4.682 2.184-7.168 2.232z" fill="#483569"/><path d="M551.905 144.627c-4.981-5.388-22.872-8.902-35.371-7.402-6.753-1.559-1.499-16 5.782-14.516 23.153 6.781 25.595.089 29.365 5.264 3.77 5.176.224 16.654.224 16.654z" fill="#FF6109"/><path d="M548.537 152.225c.4-2.8 2.5-6.167 3.5-7.5 0-3.6-6-4.833-9-5 6.5 2.5 1.5 10 3 12 1.2 1.6 2.167 1 2.5.5z" fill="#FF6109"/><path d="M598.177 488.619c5.41 6.489 6.955 16.379 4.327 19.626-2.628 3.246-44.518 4.635-46.836 0-2.319-4.636 5.41-13.291 19.011-18.082 13.601-4.79 23.498-1.544 23.498-1.544zm-78.446 0c5.411 6.489 6.956 16.379 4.328 19.626-2.628 3.246-44.518 4.635-46.837 0-2.318-4.636 5.411-13.291 19.012-18.082 13.601-4.79 23.497-1.544 23.497-1.544z" fill="#312E3B"/><path opacity=".2" d="M561.537 147.225c-12.8-6.8-36-10-47.5-8l.5-2c16.4-3.6 39.333 3.167 48 7l-1 3z" fill="#1F1F1F"/><path d="M511.537 194.225c-16.001 2.479-24.201 23.133-30.233 46.405-5.799 22.37 3.817 29.13 12.369 29.593 8.552.463 17.864-75.998 17.864-75.998z" fill="#3698E4"/><path d="M477.391 239.242c-2.916-.382-7.118 5.887-8.854 9.07 4.583 13.366 16.84 20.844 22.396 22.913l2.604-16.708c-4.167-4.932-13.229-14.893-16.146-15.275z" fill="#006DC3"/><path d="M485.037 255.725l-2.5-13 12-.5-4.5 14.5-5-1z" fill="#006DC3"/><path d="M464.945 230.408c3.773-3.182 21.599 12.058 18.428 19.648-3.17 7.591-35.686-5.101-18.428-19.648z" fill="#FBB59E"/><path d="M535.28 191.598c-10.741-5.373-6.519-9.285-7.699-9.501-2.886-.554-6.917 4.731-7.319 7.383-.482 3.157-6.141 44.666 7.987 44.243 14.127-.423 27.174-41.062 27.487-45.736.313-4.673-4.351-7.09-6.879-7.09-5.818 7.828-13.577 10.701-13.577 10.701z" fill="#fff"/><path d="M483.38 314.927c-9.229 82.823-2.652 173.18 0 175.298 2.652 2.119 41.439 1.699 45.381 0 3.942-1.698 8.6-141.677 8.6-141.677s19.982 140.185 22.083 141.677c3.34 2.383 44.13 3.391 48.374-2.548 4.245-5.939-.849-164.587-11.031-191.31-7.213-18.903-113.407 18.56-113.407 18.56z" fill="#3698E4"/><path d="M576.036 325.225c1.166 5 6.3 16.1 17.5 20.5-7.667.667-21.9-2.5-17.5-20.5z" fill="#006DC3"/><path d="M520.075 191.337c-3.784.11-9.752 3.39-9.752 3.39s-11.675 17.115-21.217 66.758c-7.569 45.74-5.727 53.449-5.727 53.449s10.546 9.573 28.134 3.989c17.588-5.585 22.042-33.284 22.042-33.284l-4.791-54.062-8.689-40.24z" fill="#3698E4"/><path d="M529.321 214.225c-6.837 7.877-9.514 11.361-10.608 18.704-1.093 7.343 3.037 66.829 8.696 73.015 5.659 6.186 1.912-91.719 1.912-91.719z" fill="#006DC3"/><path d="M525.701 217.225s-2.319 71.742-.001 86.285c1.397 8.573 9.095 13.566 17.003 16.348 17.832 6.272 54.414-1.032 58.504-2.063.332-.57-10.643-63.845-8.871-68.556 2.752-7.352-11.042-53.181-15.08-56.619-8.699-7.428-21.513-4.584-21.513-4.584l-30.042 29.189z" fill="#3698E4"/><path d="M561.037 186.225c5-7-6.5-9.5-12.5-9v4c6.8 0 7.333 5.333 6.5 8l6-3z" fill="#006DC3"/><path d="M562.037 182.225a.76.76 0 01.045.163l1.455 5.337c.4 7.6-27.833 23.167-38 30 0 0 1.5-9 7-15s14.5-9 22.5-13.5c6.027-3.39 7.206-5.864 7.045-6.837l-.045-.163z" fill="#3698E4"/><path d="M578.604 245.225c-5.456-3.2-14.966-12.48-9.353-24 4.677 5.76 13.096 18.624 9.353 24zm21.933 66.5c-35.847 6.522-93.434 4.547-117 2.994l-.5 5.506c81.253 4.472 112.855-1.506 118-5l-.5-3.5z" fill="#006DC3"/><path d="M577.259 192.606c17.98 6.997 40.246 66.65 29.438 77.946-10.808 11.297-37.074 4.773-37.074 4.773s12.253-18.913 7.956-28.156c-4.296-9.244-7.32-20.045-6.683-34.997.636-14.952 6.363-19.566 6.363-19.566z" fill="#3698E4"/><path d="M556.612 412.588c-3.863 4.687 10.822 14.209 14.85 11.241 4.028-2.967-11.878-14.831-14.85-11.241zm-69.863 0c-3.863 4.687 10.821 14.209 14.849 11.242 4.028-2.968-11.881-14.832-14.849-11.242zm117.286-139.863c-18.716 16.286-62.075 9.203-63.585 6.803-1.51-2.4-2.573-11.589-.574-14.254 1.998-2.665 34.143-5.02 38.591-10.237 4.448-5.216 25.568 17.688 25.568 17.688z" fill="#006DC3"/><path d="M606.694 270.566c-18.716 16.286-64.734 7.362-66.244 4.962-1.51-2.4-2.573-11.589-.574-14.254 1.998-2.665 34.143-5.02 38.591-10.237 4.448-5.216 28.227 19.529 28.227 19.529z" fill="#3698E4"/><path d="M579.537 250.225c3.167.667 10.4 3.4 14 9-1.333-4.667-6-13-14-9z" fill="#006DC3"/><path d="M579.888 249.963c2.632-.675 9.046-1.368 13.649 1.262-2.567-2.793-8.891-6.955-13.649-1.262z" fill="#006DC3"/><path d="M523.035 198.225c-3.6-3.6-3.499-10-3.499-15-8.5 11.5 2.832 30.167 5.999 34 0 0 1.1-15.4-2.5-19z" fill="#3698E4"/><path d="M264.696 224.177c2.429-5.55 1.215-11.623 17.007-11.97 15.792-.347 21.347-.519 21.695 1.375.347 1.895-5.38 10.757-16.659 11.799-11.279 1.042-15.445 5.725-15.445 5.725l-6.598-6.929z" fill="#FBB59E"/><path d="M96.002 489.534c-5.19 6.228-6.673 15.715-4.151 18.831 2.521 3.115 42.715 4.45 44.941 0 2.225-4.45-5.191-12.751-18.231-17.349-13.041-4.598-22.559-1.482-22.559-1.482zm67.391 0c-5.191 6.228-6.673 15.715-4.152 18.831 2.522 3.115 42.716 4.45 44.941 0 2.226-4.45-5.19-12.751-18.231-17.349-13.04-4.598-22.558-1.482-22.558-1.482z" fill="#312E3B"/><path d="M180.619 120.206s-10.068-21.187-34.508-13.102c-24.44 8.084-15.479 37.765-15.479 37.765s-11.609 6.179-11.953 15.312c-.344 9.134 6.329 12.655 6.329 12.655s-18.637 7.163-18.812 18.346c-.176 11.183 7.385 14.873 7.385 14.873s19.865 11.953 31.736 2.988c11.87-8.965 35.302-88.837 35.302-88.837z" fill="#483569"/><path d="M197.665 134.109c5.979-9.935-1.032-19.398-7.911-18.786-6.88.612-9.129 4.883-9.129 4.883l-31.333 1.069s-12.969-2.933-14.348 10.836c-1.679 16.788 17.051 36.231 19.999 35.677 2.948-.553 18.231-31.557 25.682-36.451 7.45-4.893 17.04 2.772 17.04 2.772z" fill="#483569"/><path d="M173.112 195.477c3.976-1.262 6.914-7.909 4.358-8.865-1.96-.708-2.497-3.336-3.563-8.329a46.374 46.374 0 01-.768-5.87c-.729-9.57-19.771-15.375-19.771-15.375 1.998 13.333 1.031 27.855-1.397 31.17-2.429 3.315 17.202 8.531 21.141 7.269z" fill="#FBB59E"/><path d="M153.369 157.042c5.772 16.85 14.475 22.85 20.539 21.241a46.555 46.555 0 01-.767-5.87c-.733-9.57-19.772-15.371-19.772-15.371z" fill="#F6967D"/><path d="M187.018 141.268c5.407 11.249 8.083 29.87-8.294 32.7-11.898 2.063-21.034-6.585-25.337-16.95a34.891 34.891 0 01-2.694-11.96c-.509-14.302 11.606-17.779 21.454-14.887 9.848 2.893 14.871 11.097 14.871 11.097z" fill="#FBB59E"/><path d="M153.385 157.032c-3.894 3.322-11.172-4.361-8.85-9.285 2.903-6.148 8.372-.835 9.012 1.09.64 1.926-.162 8.195-.162 8.195z" fill="#FBB59E"/><path d="M151.677 153.039c-.344-2.366-1.53-5.093-3.732-5.185-1.871-.079-.956 2.331.368 3.476 1.118.963 3.364 1.709 3.364 1.709z" fill="#F6967D"/><path d="M181.685 157.338c2.724.051 3.14-1.809 3.143-1.83l.021-.106-.086-.069c-.203-.155-4.902-3.865-2.163-10.134a.178.178 0 00.001-.136.177.177 0 00-.328-.005c-2.632 6.025 1.496 9.89 2.181 10.474-.135.396-.809 1.816-3.633 1.376a.173.173 0 00-.176.083.169.169 0 00-.023.065.18.18 0 00.033.129.183.183 0 00.115.07c.302.047.608.075.915.083zm5.204-8.22c.028-1.428-.496-2.596-1.17-2.609-.675-.013-1.244 1.134-1.272 2.561-.028 1.428.496 2.597 1.17 2.61.675.013 1.244-1.134 1.272-2.562z" fill="#483569"/><path d="M185.661 146.516c.54-.114 1.826-.045 1.775.265-.052.309-1.558.096-1.782.051-.223-.044.007-.316.007-.316zm-9.237 2.4c.028-1.428-.496-2.596-1.17-2.609-.675-.013-1.244 1.133-1.272 2.561-.028 1.428.496 2.596 1.171 2.61.674.013 1.243-1.134 1.271-2.562z" fill="#483569"/><path d="M175.192 146.313c.54-.114 1.827-.045 1.775.265-.052.309-1.558.096-1.782.051-.223-.045.007-.316.007-.316zm-3.956-2.201a.447.447 0 00.382-.203c.031-.048.802-1.197 2.649-1.162a.444.444 0 00.326-.746.444.444 0 00-.309-.135c-2.36-.044-3.368 1.507-3.409 1.572a.445.445 0 00-.025.454.447.447 0 00.39.234l-.004-.014z" fill="#483569"/><path d="M186.165 163.715c.026-1.337-1.63-2.453-3.698-2.494-2.069-.04-3.767 1.011-3.793 2.348-.026 1.337 1.63 2.453 3.698 2.493 2.069.041 3.767-1.01 3.793-2.347zm-12.108-10.24c.01-.497-1.093-.922-2.462-.949-1.37-.027-2.488.355-2.497.852-.01.498 1.092.923 2.462.949 1.369.027 2.487-.354 2.497-.852z" fill="#FB5252"/><path d="M183.234 164.25c1.861.037 3.44-.269 3.997-.809a.175.175 0 00.054-.124.182.182 0 00-.05-.127.178.178 0 00-.251-.003c-1.201 1.155-7.871 1.076-10.664-1.431a.18.18 0 00-.251 0 .18.18 0 000 .251c1.717 1.541 4.688 2.194 7.165 2.243zm-32.508-18.511c4.987-5.396 18.348-4.323 35.667-5.351 17.319-1.028 17.151-23.384-6.037-16.599s-25.633.089-29.41 5.275c-3.777 5.186-.22 16.675-.22 16.675z" fill="#483569"/><path d="M184.849 191.382c-3.498-5.09-7.203-9.798-10.134-9.478-2.93.32-8.427 9.478-8.427 9.478s-8.754-6.981-11.806-9.495c-3.051-2.514-9.16 8.274-9.16 8.274s26.108 52.503 33.105 52.3c6.996-.203 6.422-51.079 6.422-51.079z" fill="#fff"/><path d="M56.213 224.177c-2.429-5.55-1.215-11.623-17.007-11.97-15.792-.347-21.347-.519-21.695 1.375-.347 1.895 5.38 10.757 16.66 11.799 11.279 1.042 15.444 5.725 15.444 5.725l6.598-6.929z" fill="#FBB59E"/><path d="M128.283 191.767c-15.878 3.256-32.63 39.35-32.63 39.35s-35.774-11.252-38.23-10.643c-2.456.608-16.08 6.104-16.284 8.342-.203 2.239 41.343 42.094 64.958 34.873 23.614-7.222 22.186-71.922 22.186-71.922z" fill="#fff"/><path fill-rule="evenodd" clip-rule="evenodd" d="M42.226 228.266c6.68 7.936 42.57 39.725 63.871 33.211 20.208-6.18 22.077-54.456 22.196-68.252.071 6.875.003 64.463-22.196 71.252-23.615 7.221-65.16-32.634-64.958-34.873.034-.369.433-.828 1.087-1.338z" fill="#EAEDF2"/><path d="M192.632 191.767c15.878 3.256 32.63 39.35 32.63 39.35s35.774-11.252 38.23-10.643c2.456.608 16.081 6.103 16.284 8.342.203 2.239-41.35 42.094-64.964 34.873-23.614-7.222-22.18-71.922-22.18-71.922z" fill="#fff"/><path d="M225.115 335.263c1.129 60.138-25.11 152.892-27.236 156.248-2.126 3.357-41.56 3.095-42.478-2.407-.919-5.502 18.919-135.832 18.919-135.832s-39.011 134.721-42.839 139.302c-3.829 4.58-41.326 1.513-42.547-1.238-1.221-2.751 12.507-171.764 21.491-183.803 8.985-12.039 66.361-9.512 78.576-7.682 12.215 1.829 36.114 35.412 36.114 35.412z" fill="#524E62"/><path d="M107.354 316.546c1.669 19.405 22.672 29.388 47.814 25.602 25.141-3.786 34.776-25.643 34.776-25.643s4.303 15.475 17.388 20.138c13.085 4.663 17.787-1.376 17.787-1.376s-13.484-35.966-41.546-33.559c-28.061 2.407-76.219 14.838-76.219 14.838z" fill="#312E3B"/><path d="M169.625 194.913c3.226 4.127 14.33 28.164 14.447 33.25.117 5.086-8.796 13.735-17.233 10.767-8.438-2.968-1.72-43.257-1.72-43.257l4.506-.76z" fill="#372749"/><path d="M184.85 191.382c3.22-.613 8.104.405 8.104.405s16.491 35.21 24.227 77.335c7.736 42.125 7.932 66.138 7.932 66.138s-26.545.406-33.93-26.661c-7.385-27.066-23.146-60.874-23.146-60.874l16.813-56.343z" fill="#524E62"/><path d="M169.036 233.225c15.757 13.713 26.591 66.5 17 75.5-10.718 10.058-17-75.5-17-75.5z" fill="#312E3B"/><path d="M163.502 333.891a45.41 45.41 0 005.847-2.751c31.096-17.407 11.032-70.459 9.69-76.415-1.41-6.29-33.731-64.571-33.731-64.571-3.467-.406-17.102 1.626-17.102 1.626s-19.531 104.921-21.086 120.973c-1.435 14.753 25.217 33.123 56.382 21.138z" fill="#524E62"/><path d="M211.683 415.851c3.704 4.498-10.382 13.635-14.252 10.788-3.869-2.848 11.4-14.247 14.252-10.788zm-65.958 0c3.705 4.498-10.381 13.635-14.251 10.788-3.87-2.848 11.399-14.247 14.251-10.788z" fill="#312E3B"/><path d="M161.905 192.798c.055-1.475 8.135-2.407 9.504-.963 1.369 1.445-1.671 5.093-3.116 5.551-1.445.457-6.464-2.535-6.388-4.588z" fill="#372749"/><path d="M37.18 136.956H23.615v43.198H37.18v-43.198z" fill="#fff"/><path d="M36.943 137.63H23.855a2.065 2.065 0 010-4.127h13.088a2.064 2.064 0 110 4.127zm-6.544 13.047L1.037 201.705a7.786 7.786 0 002.863 10.63 7.8 7.8 0 003.893 1.041h45.185a7.791 7.791 0 006.756-11.671l-29.335-51.028z" fill="#fff"/><path d="M51.198 211.722H9.576a7.183 7.183 0 01-6.197-3.587 7.17 7.17 0 01-.008-7.159l9.631-16.716h34.814l9.608 16.716a7.17 7.17 0 01-6.226 10.746z" fill="#006DC3"/><path d="M21.762 196.051a3.6 3.6 0 10.002-7.202 3.6 3.6 0 00-.002 7.202z" fill="#fff"/><path d="M31.966 177.231a2.562 2.562 0 100-5.125 2.562 2.562 0 000 5.125z" fill="#006DC3"/><path d="M25.361 124.758a2.562 2.562 0 10.002-5.124 2.562 2.562 0 00-.002 5.124zm4.047 6.589a1.723 1.723 0 10.001-3.446 1.723 1.723 0 000 3.446zm1.852-11.048a.864.864 0 10-.001-1.727.864.864 0 000 1.727z" fill="#fff"/><path d="M27.919 162.792a1.593 1.593 0 100-3.185 1.593 1.593 0 000 3.185zm3.585-10.523a1.108 1.108 0 100-2.215 1.108 1.108 0 000 2.215z" fill="#006DC3"/><path d="M29.32 205.488a2.552 2.552 0 100-5.105 2.552 2.552 0 000 5.105zm3.69-9.732a1.988 1.988 0 100-3.976 1.988 1.988 0 000 3.976zm252.35 19.225c15.998 0 28.968-12.969 28.968-28.967s-12.97-28.968-28.968-28.968-28.967 12.97-28.967 28.968 12.969 28.967 28.967 28.967z" fill="#fff"/><path d="M292.491 126.406h-13.704v43.641h13.704v-43.641z" fill="#fff"/><path d="M292.248 122.946h-13.223a2.07 2.07 0 000 4.141h13.223a2.07 2.07 0 100-4.141z" fill="#fff"/><path d="M289.674 152.116h-8.629v13.559h8.629v-13.559z" fill="#008FFF"/><path d="M285.639 211.835c14.238 0 25.781-11.539 25.781-25.773 0-14.235-11.543-25.774-25.781-25.774-14.239 0-25.782 11.539-25.782 25.774 0 14.234 11.543 25.773 25.782 25.773z" fill="#008FFF"/><path d="M293.088 198.225a3.398 3.398 0 100-6.795 3.398 3.398 0 100 6.795zm-5.474-19.945a2.683 2.683 0 10.001-5.365 2.683 2.683 0 00-.001 5.365zm-1.402-15.22a1.098 1.098 0 100-2.195 1.098 1.098 0 000 2.195z" fill="#fff"/><path d="M282.999 150.148a1.462 1.462 0 100-2.923 1.462 1.462 0 000 2.923z" fill="#008FFF"/><path d="M281.469 199.528a1.303 1.303 0 10.001-2.607 1.303 1.303 0 00-.001 2.607zm5.474 7.16a1.304 1.304 0 100-2.608 1.304 1.304 0 000 2.608z" fill="#fff"/><path d="M453.6 224.504a1.367 1.367 0 011.712-2.132l63.615 50.737a1.615 1.615 0 11-2.022 2.52L453.6 224.504z" fill="#D7DBE0"/><path d="M518.774 271.839l-62-49.387 12.94-5.385a3 3 0 013.046.443l46.705 38.007a3.002 3.002 0 011.082 2.715l-1.773 13.607z" fill="#5D596B" stroke="#fff" stroke-width="2"/><path d="M539.897 262.159c-6.705-2.562-20.295-5.465-25.187-2.731-4.891 2.734-2.703 11.613 6.711 15.028 8.108 2.94 13.864 2.221 19.116 0-2-5.731-.64-12.297-.64-12.297z" fill="#FBB59E"/><circle cx="534.537" cy="153.225" r="1" fill="#FF6108"/><circle cx="535.537" cy="157.225" r="1" fill="#FF6108"/><circle cx="531.537" cy="156.225" r="1" fill="#FF6108"/><path d="M549.537 203.225c8.8-6 13-12.5 14-15-.4-.8 2.5-.333 4 0-5.6 8.8-14.333 13.667-18 15z" fill="#006DC3"/><path d="M565.537 144.725c-15.815-10.415-44.626-10.414-57.5-8.5-1.48-15.795 13.5-35.499 38.14-28.754 19.975 5.467 21.586 28.017 19.36 37.254z" fill="#EAEDF2"/><path d="M539.037 106.225c-16 1.2-23 19.167-25.5 28h5.5c3.2-16.4 14-25.5 20-28z" fill="#C4C4C4"/><path d="M537.037 106.225c-16 1.2-25 19.167-27.5 28h5.5c3.2-16.4 16-25.5 22-28z" fill="#fff"/><path d="M568.317 145.359c-.34 2.74-14.491-6.067-33.125-8.381-10.424-1.295-18.631.747-29.153.747-6 0-6.9-1.683-5.782-3.36 2-3 16.3-3.164 34.935-.849 18.634 2.314 33.466 9.103 33.125 11.843z" fill="#C4C4C4"/><path d="M562.537 143.725c-9.2-4.4-23.167-6.833-29-7.5l-1 .5c17.6 2.4 26 6.5 30 8v-1z" fill="#838181"/><path d="M503.038 135.725c6.823-2.623 26.798-.497 32.501 1-13 0-21.75 1.091-27.5 1-5.422-.086-8.156-.786-5.001-2z" fill="#838181"/></svg>