<svg width="96" height="96" viewBox="0 0 96 96" fill="none" xmlns="http://www.w3.org/2000/svg" preserveAspectRatio="none"><circle cx="48" cy="48" r="47" fill="#fff" stroke="#fff" stroke-width="2"/><mask id="a" mask-type="alpha" maskUnits="userSpaceOnUse" x="0" y="0" width="96" height="96"><circle cx="48" cy="48" r="48" fill="#C07248"/></mask><g mask="url(#a)"><path d="M146.608 54.079l-3.722-1.669-6.484-4.43-3.017-1.886-3.081-1.899-8.409-4.938-5.823-2.616-5.595-2.044-2.181-1.294-6.211-3.732-7.149-4.61-4.662-1.265L72.87 17l-7.77 1.055-11.145 5.02-16.207 8.174-12.12 4.19-4.662-2.136-6.832-5.407-5.595-2.934-4.358-1.675L.14 21.192h-3.42s-9.013 5.027-36.363 19.436C-66.992 55.037-106 56.292-106 56.292h258l-5.392-2.213z" fill="#9FD7CF"/><path d="M37.454 36.647l5.654-2.177 6.291-4.43 3.032-2.722 4.56-1.854 2.781-2.097 1.727-2.097 3.292-2.407L72.868 17l-7.77 1.055-11.145 5.02-16.206 8.174-12.12 4.19c-3.964 3.923 11.827 1.208 11.827 1.208z" fill="#C2E5E0"/><path d="M43.124 30.133l-1.632.928 1.864-.844s.699-.095.844-.118c.146-.023.545-.095.74-.118a77.066 77.066 0 001.203-.167c.148-.023.66-.049.66-.049l.778-.023.844.049 1.554.405.815.071 1.942.422 1.554.239.971.166 1.136.024h1.856l-.62.476s-1.166.633-1.236.716a3.403 3.403 0 01-.396.261l-.74.618-.871.688-.583.549-.5.603v.896l-.822.572-.544.618-1.056.929-.156.94.24-.82.26-.26.608-.504.129-.156.116-.103.422-.433.17-.116.35-.26.194-.134c.019-.013.285-.239.285-.239v-.753l.032-.169.272-.246.758-.796.285-.21.466-.408 1.056-.68.557-.421.577-.344.395-.253.329-.211.783-.382.423.013s3.224.939 3.342.964c.118.025.504.166.66.21.157.045 2.534.845 2.534.845l1.244.421.66.049 2.021.31s-1.917-.523-2.322-.475c-.233.03-1.582-.455-2.65-.858-.745-.28-1.355-.523-1.355-.523l-1.664-.445-2.546-.633h-3.634l-2.81-.445-2.023-.382-2.554-.572h-1.797l-3.214-1.13-.358.18.618.212.777.261 1.016.306.66.239-1.864.333-1.053.166z" fill="#C2E5E0"/><path d="M90.275 30.33l.768-.843s-.154-.028 0-.14c.177-.192.332-.405.46-.632l.693-.323s1.689-.137 1.921 0c.233.137 2.152.175 2.152.175l4.645.766-4.59-.604s-1.82-.14-2.397-.198c-.576-.057-1.345-.226-2.111.3-.766.525-.46.664-.46.664l-1.081.836z" fill="#9FD7CF"/><path d="M72.868 17l-2.3.945-2.308.933h.01c-.678.485-1.36.966-2.044 1.445l.017-.017-1.389 1.968a265.45 265.45 0 01-2.491 2.2l-1.784 2.11-.013.015h-.017l-2.29.721-2.796 1.561 2.745-1.634 2.299-.754-.028.02 1.77-2.13c.827-.735 1.653-1.476 2.487-2.206l-.01.013 1.401-1.956c.684-.478 1.37-.954 2.059-1.426l2.322-.892 2.36-.916zM-34.655 37.997l3.093-.023 1.33-.405h1.206-.02c.121-.066.244-.129.37-.184.064-.029.13-.052.199-.071a.986.986 0 01.21-.01h2.452l3.365-.706h-.012l2.2-1.096c.365-.184.732-.372 1.106-.543.095-.042.188-.084.287-.122a.56.56 0 01.171-.044h.769c1.64 0 3.278-.013 4.919 0h-.03l.511-.211c.171-.072.342-.133.526-.186.04-.013.118-.021.146-.03a1.19 1.19 0 00.13-.029 7.47 7.47 0 00.254-.074c.175-.053.348-.11.522-.164l.52-.173c.09-.032.172-.055.258-.089l.258-.097 1.026-.393.758-.434.378-.211.19-.11c.055-.033.12-.078.18-.118l1.45-.974-.017.018 1.457-2.622.365-.656c.118-.21.256-.432.382-.648l.777-1.282 3.13-5.12-3.08 5.162-.77 1.287c-.126.21-.26.422-.378.645l-.36.659-1.445 2.628v.01h-.01l-1.447.982c-.06.04-.116.08-.185.122l-.188.11-.378.21-.76.45-1.024.397-.256.099c-.084.034-.177.063-.262.093l-.521.175c-.175.057-.348.114-.524.169a9.129 9.129 0 01-.272.08c-.046.014-.09.02-.137.03h-.068a.395.395 0 00-.057.012c-.169.049-.34.118-.51.184-.172.065-.34.134-.507.21h-5.718a.482.482 0 00-.124.036 3.706 3.706 0 00-.279.119c-.372.166-.737.352-1.104.533l-2.207 1.087-3.378.687h-2.474a1.001 1.001 0 00-.194 0 1.312 1.312 0 00-.186.066 4.789 4.789 0 00-.363.177h-1.206l-1.334.386-3.11.002zm52.616.536l-2.185-.956-1.85.013-2.645-.903-1.39-.782-.348-.197-.352-.179a16.975 16.975 0 00-.718-.34 3.21 3.21 0 00-.182-.07.242.242 0 00-.04-.01.128.128 0 00-.04 0h-2.89.02l-2.955 1.095H2.34l-2.808-1.082h.027-1.115l-4.936.804h.023l-.51.305-3.968 1.583-3.496.21h.017l-.807.423c-.27.137-.536.28-.813.409a7.786 7.786 0 01-.422.183c-.145.057-.283.114-.422.16-.146.047-.296.08-.448.1a6.956 6.956 0 00-.432.12c-.579.18-1.151.376-1.723.572l-1.713.605 1.704-.633c.57-.21 1.14-.411 1.717-.599.143-.046.289-.09.439-.128.148-.022.295-.056.437-.104.141-.048.283-.103.422-.164.14-.062.275-.125.422-.188.273-.129.539-.274.807-.422l.804-.422 3.497-.236h-.017l3.958-1.601.505-.313h.023l4.932-.827h1.134l2.795 1.095h-.048l2.956-1.08h2.89a.247.247 0 01.057 0 .325.325 0 01.055.015c.067.021.129.048.19.074.245.107.483.225.722.346l.357.183.346.196 1.385.79 2.637.926 1.85.012 2.191 1.017z" fill="#C2E5E0"/><path d="M108.297 33.303l-6.211-3.732-7.15-4.61-4.661-1.265-4.406-1.373-3.364-.933-3.004-.508-1.347.829-.363.584 1.03 2.32.68 1.087 1.037 1.584 3.31 2.743.659.333c.044.02 2.633 1.397 2.633 1.397s2.288.698 3.49 1.008c1.201.31 4.222.945 4.222.945v-2.348l.545-.544h1.243s2.1-.078 2.564.078c.464.156 3.114 1.08 3.114 1.08.397.133.786.289 1.165.466.654.352 1.329.663 2.021.933 1.009.388 2.02.544 2.641.698.621.154 2.322.521 2.322.521l-2.17-1.293zm-87.333 0l-2.941-2.32-3.891-3.087-2.35-1.232-.967-.088-.634.11-.078.174-.078.33v.421c0 .06.02.545.02.545l.115.329.195.582.485.466.583.388.486.175.447.37.211.175 1.107 1.74.485.51.33.74.375.668.156.116 1.128.932.545.233.874 1.07.388.364.211.272s.467.135.524.135c.057 0 .845.407.845.407l.466.156c.06.02 1.541.7 1.541.7l-.338-.894v-.662l.338-.483.188-.422.37-.388a.75.75 0 010-.523c.076-.13.14-.267.194-.408l.33-.194s.582-.097.633-.097c.05 0 2.368.844 2.368.844l-4.661-2.154zm-6.328 2.144l-2.02-.937s-.778-.211-1.01-.306c-.232-.095-2.099-.561-2.099-.561s-.62-.388-.844-.388c-.42-.066-.835-.156-1.244-.27l-1.839-.568h-.802l-1.839-.285s-.57.064-.673.095c-.104.032-2.175.317-2.175.317l-2.616.33-2.487.459-2.534.806-1.71.276-.682.095 2.323-.49.673-.227.906-.247 1.588-.41 1.115-.236 1.967-.348s.517-.11.803-.141c.285-.032 1.372-.064 1.372-.064l1.76-.267.493-.11.388.078.389.078.57.11 1.606.11.773.265.492.11 1.056.348.673.078.31.173.984.38.615.126 1.313.355 2.405 1.266zM126.26 55.554l-1.797-.384-3.076-.964-3.017-.9-4.117-.602-5.595-1.509a16.52 16.52 0 01-1.71-.844c-.467-.31-4.041-2.48-4.041-2.48l-.83-1.918-3.004-1.243-2.435-.829-1.813-1.036-.674-.677-1.14-1.076s-.88-2.082-.95-2.436c-.07-.355-.914-.524-.914-.524l-1.917-.422-2.49-.472-1.879-.764-1.266-.57-2.625 1.138-3.01.966-1.658 1.51-1.714 1.872-3.634 3.312-2.214.466-6.892 6.472-.365.26-2.59 2.019-2.66 1.133-2.475 1.234h75.01l-2.508-.732z" fill="#7DC8BA"/><path d="M53.752 56.292l2.474-1.234 2.662-1.133 2.585-2.025.363-.26 6.902-6.47 2.216-.466 3.634-3.313 1.712-1.87-1.811 1.651-2.217.466-6.9 6.47-.365.258-2.584 2.027-2.66 1.133-2.783 1.386-7.022 2.447-1.683.933h5.477zM79.5 20.882l3.004.516 3.364.933 4.406 1.373-12.15-4.681s-3.036-.705-3.136.538c-.099 1.242.499 2.658.499 2.658l5.972 6.506 1.713.956.671.342-3.31-2.743-1.037-1.584-.68-1.087-1.03-2.32.363-.585 1.351-.822z" fill="#87CFC4"/><path d="M103.354 35.892c-.156-.053-1.056-.182-1.056-.182s-2.305-.388-2.383-.422l-1.294-.421-2.053-.146-1.632-1.127-1.528-.44-1.877-.31-3.406-.946-.893-.26-3.167-1.653 1.381-3.85 1.085-.614 1.41-1.439 6.991.88L87.933 24h-.019l-.015.015-1.425 1.44-1.093.616h-.015v.013l-1.87.3-.47.076-.234.038-.234.04-.933.17h-.02l-.012.013-1.166 1.09-1.287.282c-.212.044-.437.094-.65.134-.108.02-.212.045-.324.057l-.333.021-2.658.165-1.394-.365h-1.478l-1.478.376-2.22.924-2.87 1.797 2.88-1.774 2.215-.901 1.478-.365h1.477l1.394.376h.01l2.656-.146.334-.019c.108-.01.224-.036.334-.055.223-.04.437-.088.656-.13l1.307-.275h.015l.013-.01 1.154-1.07.917-.16.232-.038.234-.036.469-.072 1.788-.274-1.362 3.749-2.366 1.344-2.745 2.058c-.384.135-.764.275-1.14.441a1.073 1.073 0 00-.513.38c-.123.171-.228.346-.334.521-.2.353-.42.694-.656 1.023a1.14 1.14 0 01-.211.211l-.235.197-.469.394-3.766 3.14-.942.786-.935.8-1.738 1.73-3.47 3.455c-.65.367-1.303.724-1.95 1.101l-.97.564-.243.141-.118.07-.125.063c-.165.089-.336.16-.505.24-.337.157-.682.304-1.024.456l-1.03.445-2.065.88 2.076-.844 1.034-.432c.344-.148.688-.29 1.033-.443.17-.078.346-.148.51-.237l.125-.063.125-.07.242-.137.974-.552c.646-.374 1.304-.73 1.957-1.095l3.509-3.48 1.746-1.72.933-.79.944-.782 3.766-3.125.471-.392.237-.196c.084-.066.16-.142.226-.226.24-.335.46-.683.663-1.042.105-.175.21-.35.325-.513a.93.93 0 01.456-.335 13.91 13.91 0 011.136-.443h.01l2.745-2.074 2.322-1.32 3.167 1.632 3.49 1.009 2.139.495.745.152.984.363.441.078 1.345.907.31.53.518.802 1.161 2.208 1.657 1.243-1.503-1.371-1.701-3.188 1.9.141 1.294.355 2.065.354 1.294.211 1.689.6s-1.436-.708-1.592-.76zM43.517 54.957l-4.083-1.144-.576-.145-10.905-3.652-3.5-.264-5.741-1.869-2.709-1.055-2.618-.844-3.378-1.187-2.795-1.426s-1.943-.992-2.175-.992a1.302 1.302 0 01-.336-.09l2.357-.648 1.334-.116.83-.091 1.54-.544 1.128-.53 3.066-.998 1.347-.181s.845-.156.906-.156c.06 0 .711-.157.711-.157h2.578s.906.157.959.157c.052 0 1.309.156 1.309.156l3.107.647.579.517c.393.234.801.441 1.222.62.235.053 1.007.57 1.007.57l1.121.422 7.422 2.867s2.196 1.009 2.293 1.087c.097.078.739.66.815.738.076.078.544.523.544.523s.634.873.68.933c.175.248.37.481.583.698.174.185.33.386.466.601l1.107 1.032.612.53 5.646 1.898-5.279-1.899-1.864-1.785-2.409-3.082-.91-.785-2.02-.983-3.167-.949-2.836-1.173-4.507-1.985-.83-.703-4.61-.843s-1.477-.68-1.54-.7l-.467-.157s-.777-.407-.844-.407c-.068 0-.524-.135-.524-.135l-.211-.272-.389-.365-.874-1.07-.544-.232-1.128-.932-.156-.116-.37-.66-.329-.74-.486-.51-1.106-1.74-.211-.175-.448-.37-.485-.174-.583-.389-.486-.466-.194-.582c-.019-.06-.116-.33-.116-.33s-.019-.484-.019-.544v-.421l.078-.33.078-.175.634-.11.967.09-.252-.131-.434-.228c-1.041-.247-1.29.297-1.29.297v.983l.128 1.055.117.395-3-1.098-2.874-.44-1.026-.342-.463-.589c-.038-.048-.08-.103-.122-.15l-.112-.135-.25-.289-.987-1.151v-.912a2.553 2.553 0 01-.055-.692c.007-.233.08-.459.211-.652a.665.665 0 01.118-.126.71.71 0 01.144-.097.955.955 0 01.16-.066c.056-.015.114-.025.171-.031a1.22 1.22 0 01.176 0h.038-.038a1.25 1.25 0 00-.176 0 1.153 1.153 0 00-.173.03.96.96 0 00-.164.063.723.723 0 00-.148.097.687.687 0 00-.123.128 1.265 1.265 0 00-.223.665 2.59 2.59 0 00.044.7v.932l.977 1.178.245.293.123.148c.042.048.076.097.116.15l.462.61v.012h.015l1.007.365h.01l2.861.487 3.123 1.19v.03l1.786 1.265.422.232 1.592 2.256.31.57.182.569.285.388s1.529 1.036 1.658 1.114c.128.078.933.91.933.91l.62.799 2.804 1.086H17.97l-1.814.447h-1.2L11.9 40.016l-1.4.484-1.607.62H7.91l-4.124.794-2.875-.38H-3.28s-6.45 1.899-6.683 1.846c-.232-.053-3.278.342-3.27.373.008.032-1.391.057-1.391.057l-2.956.975 2.926-.844h.31l.545.025.74.013 1.055-.065 1.723-.16h.724l1.917-.46 2.956-.699 1.58-.595 3.925.091 1.218.129.868.388.83.247.802.232.247.128.48.157 4.384 2.164-1.024-.118-4.161-.633-1.991.32-2.956.423-1.237.33-1.503.23-.777.07-1.761.211-1.942.184-1.652.253 1.639-.127 3.6-.246 2.717-.395 1.824-.295 3.813.588 4.36.5 2.398.78 2.483.97 5.261 1.712 3.203.251 9.993 3.346.528.133 3.743 1.055 3.853.586 3.59.633h7.986l-3.916-.69-4.203-.65z" fill="#87CFC4"/><path d="M136.336 55.745l-3.081-1.025s-.963-.578-1.283-.844c-.321-.265-1.347-.77-1.668-1.025-.321-.255-3.275-.899-3.275-.899l-2.759-.843-2.376-1.026-1.604-.633-2.508-.284-5.595-1.509a16.636 16.636 0 01-1.711-.844c-.466-.31-4.041-2.48-4.041-2.48l-.829-1.918-2.724-1.127-2.821-.491-1.748-1.087-1.826-1.7-.226-.45-.665-.915-.813-1.066-.648-.455-1.645-.523-1.321-.211-2.059-.35-2.174-.893-1.056.272-1.136.458-2.322.715-1.32.722-3.144 2.696 3.011-.968 2.624-1.138 1.267.57 1.877.764 2.487.477 1.917.421s.845.17.914.524c.07.354.95 2.436.95 2.436l1.14 1.076.674.673 1.814 1.036 2.434.829 3.004 1.243.83 1.917s3.575 2.171 4.041 2.481a16.72 16.72 0 001.71.844l5.595 1.508 4.117.604 3.017.898 3.081.962 1.796.384 2.504.739h9.693l-2.119-.544z" fill="#87CFC4"/><path d="M132.604 46.657c-5.415-3.265-9.106-2.662-10.44-2.253l-.556.211c-2.036.767-4.17 1.556-6.401 2.367-23.919 8.685-36.793 9.31-36.793 9.31H152s-5.007-1.793-6.912-2.878c-1.904-1.084-5.588-2.597-12.484-6.757z" fill="#86BA2B"/><path d="M145.087 53.414c-1.9-1.086-5.588-2.597-12.486-6.75-5.415-3.266-9.106-2.663-10.44-2.254l-.556.211c-2.036.767-4.17 1.556-6.401 2.367-10.514 3.819-18.892 6.078-24.983 7.412 0 0 7.292-1.384 10.812.257 3.52 1.641 7.704-3.749 13.966-1.768s7.269-3.69 16.293-.878c9.024 2.813 6-.719 16.411 2.63a26.269 26.269 0 01-2.616-1.227z" fill="#88BF32"/><path d="M95.148 53.227c5.092-1.203 4.413 1.949 11.46-1.855 7.048-3.803 6.334.28 13.301-2.462 6.968-2.742 8.923 1.477 11.049.142 2.126-1.336 4.068.28 6.838 1.687 2.289 1.163 5.363 2.01 6.361 2.27l.33.083c-2.04-1.074-5.652-2.67-11.897-6.435-5.416-3.265-9.106-2.662-10.441-2.253l-.555.211a618.77 618.77 0 01-6.401 2.367c-7.907 2.876-14.615 4.867-20.045 6.245z" fill="#8BC53F"/><path d="M91.676 55.879l.048-.112h-.082l.129-.28.11-.269-.144.078.04-.19.065-.12.032-.141.028-.141v-.07h-.034l.027-.12.055-.12.061-.127.068-.127.048-.111c.033.086.072.171.117.253.037.051.071.106.1.162l.102.169v.036l-.04-.015.04.169a.795.795 0 01.049.078l.067.141v.036l-.076-.015.076.163c.013.027.074.063.083.112.01.04.028.079.055.111.012.021.076.091.076.091v.036s-.083-.015-.102-.015c-.019 0-.082-.042-.076-.02.007.02.11.183.11.183l.129.175h-.515a.652.652 0 00.111.415h-.394a.651.651 0 00.112-.416h-.475zm-6.455.088l-.038-.088h.064l-.102-.212-.084-.21.112.06-.032-.147-.05-.093-.024-.11-.02-.11v-.054h.025l-.022-.093-.042-.093-.048-.099-.053-.099-.038-.089a1.57 1.57 0 01-.09.199.976.976 0 00-.081.126l-.08.131v.028l.031-.011-.031.13a.63.63 0 00-.038.062l-.053.11v.027l.059-.01-.06.126c-.01.021-.058.049-.063.089a.21.21 0 01-.042.088c-.01.017-.059.072-.059.072v.027s.064-.01.08-.01c.017 0 .064-.034.06-.017-.005.017-.085.143-.085.143l-.101.138h.4a.507.507 0 01-.086.322h.304a.511.511 0 01-.087-.323l.374-.01zm-1.775.049l.032-.076h-.055l.087-.188.074-.18-.095.051.027-.126.042-.08.021-.096.02-.094v-.043h-.024l.02-.08.035-.08.04-.084.047-.085.031-.076c.022.058.049.115.078.17.026.033.048.07.068.107l.068.111v.017h-.028l.028.112a.517.517 0 01.031.05l.047.096v.023h-.05l.05.107c0 .02.05.043.055.074a.189.189 0 00.035.076c0 .015.051.061.051.061v.024h-.067c-.013 0-.055-.028-.051-.015.004.013.074.122.074.122l.086.118h-.344a.432.432 0 00.02.159.52.52 0 00.056.12h-.26a.437.437 0 00.076-.278l-.325-.017zm3.595-.496l-.044-.078h.072l-.072-.154-.04-.089-.042-.164v-.03l.05.03-.05-.123-.062-.137-.027-.078-.065-.146-.051-.1-.093.255h.023a.232.232 0 01-.023.096.245.245 0 00-.028.074c0 .02-.023.1-.023.1h.034l-.055.137a.21.21 0 01-.032.059.862.862 0 00-.06.122h.065l-.066.129v.088l-.055.133h.051l-.05.104-.024.074a.146.146 0 00-.031.048.892.892 0 000 .103l.046.04h.27c0 .065-.005.129-.013.192a.27.27 0 01-.023.085h.159a.27.27 0 01-.024-.085 1.811 1.811 0 01-.012-.192h.245l.074-.033v-.034l-.028-.122-.019-.112.047.044v-.044l-.024-.137v-.055zm1.966-.205l.057-.1h-.091l.09-.193.053-.114.053-.211v-.038l-.063.038.063-.156.078-.173.034-.097.074-.194.063-.129.119.323h-.032c0 .042.01.084.03.122.016.03.027.06.033.093 0 .025.03.124.03.124h-.044l.067.175c.01.027.023.052.04.074.03.05.056.102.078.157h-.082l.082.16v.112l.068.166-.064.013.064.13.03.094a.177.177 0 01.037.06.97.97 0 010 .132l-.059.05h-.342c0 .081.006.162.015.243a.342.342 0 00.03.107h-.201a.342.342 0 00.03-.107c.009-.08.014-.162.014-.243h-.31l-.093-.044v-.044l.034-.157.025-.14-.059.054v-.055l.03-.173.019-.059zm5.067.589h-.488l.07-.283.059-.072.07-.225-.07.054.038-.116c.038-.116.042-.097.042-.097l.027-.073.07-.15h-.07l.117-.211s.095-.355.105-.376c.01-.02.032-.325.032-.325l.074-.221.059.221.027.182.049.15.031.154.064.227-.064-.048.038.088.104.294.03.08.111.28-.027.034h-.06v.055l.043.13.038.157-.06-.068v.072l.06.083h-.395c-.01.131.006.264.045.39h-.212a1.08 1.08 0 00.043-.386z" fill="#009345"/><path d="M91.248 55.97l-.038-.087h.064l-.102-.211-.084-.211.112.059-.032-.148-.05-.093-.024-.11-.021-.109v-.055h.027l-.02-.093-.043-.093-.049-.099-.052-.099-.038-.086a1.577 1.577 0 01-.091.196.955.955 0 00-.08.124l-.08.131v.028l.031-.011-.031.13a.653.653 0 00-.038.06l-.053.11v.027l.059-.01-.06.124c-.01.021-.056.048-.063.086a.21.21 0 01-.042.089c-.01.017-.059.072-.059.072v.027s.063-.01.08-.01.064-.034.06-.017c-.005.017-.085.141-.085.141l-.101.137h.399a.505.505 0 01-.087.323h.302a.507.507 0 01-.087-.323h.376zm4.248-.47l-.046-.08h.074l-.074-.156-.043-.09-.042-.169v-.032l.05.03-.05-.127-.063-.141-.028-.08-.059-.158-.05-.104-.095.262h.023a.236.236 0 01-.023.099.248.248 0 00-.028.076.746.746 0 01-.023.101h.036l-.055.142a.215.215 0 01-.032.06.89.89 0 00-.063.127h.067l-.067.131v.09l-.055.136h.05l-.05.105-.023.076a.152.152 0 00-.032.05.884.884 0 000 .106l.049.04h.276c0 .066-.005.132-.012.197a.274.274 0 01-.024.086h.163a.274.274 0 01-.023-.086 1.837 1.837 0 01-.013-.197h.251l.076-.035v-.036l-.027-.127-.02-.116.05.044v-.044l-.024-.14-.02-.04zm-9.742.528h-.331l.046-.192.04-.048.047-.154-.047.038.025-.078c.026-.078.03-.066.03-.066l.02-.05.045-.102h-.046l.08-.139s.066-.24.072-.255c.006-.015.021-.211.021-.211l.05-.152.041.152.019.122.032.102.02.103.045.156-.044-.032.025.062.07.2.019.055.076.19-.02.023h-.04v.038l.03.089.026.105-.04-.047v.047l.04.055h-.269c-.006.09.004.18.03.266h-.148a.734.734 0 00.036-.277zm2.558-.036h.376l-.053-.21-.044-.055-.053-.173.053.042-.03-.089c-.03-.088-.033-.074-.033-.074l-.022-.057-.052-.116h.053l-.091-.158s-.074-.272-.083-.289c-.008-.017-.025-.249-.025-.249l-.057-.17-.044.17-.021.14-.036.115-.026.118-.048.176.048-.036-.03.067-.08.226-.023.063-.086.211.02.026h.045v.042l-.034.099-.03.12.045-.053v.053l-.044.063h.304a.832.832 0 01-.034.3h.167a.832.832 0 01-.032-.302zm-.727.061h.298l-.042-.172-.036-.045-.042-.137.042.034-.023-.072c-.024-.072-.026-.059-.026-.059l-.017-.044-.042-.091h.042l-.072-.124-.065-.23a3.253 3.253 0 01-.019-.199l-.046-.135-.036.135-.017.11-.03.09-.019.094-.038.139.038-.03-.023.055-.063.18-.017.048-.068.17.017.022h.036v.034l-.025.08-.023.095.035-.042V56l-.035.05h.24a.659.659 0 01-.027.239h.122a.66.66 0 01-.019-.236z" fill="#37B34A"/><path d="M95.918 55.92h-.466l.065-.27.055-.067.066-.21-.066.052.036-.11c.036-.11.04-.093.04-.093l.026-.071.065-.144h-.065l.111-.196s.091-.34.102-.358c.01-.02.03-.31.03-.31l.071-.212.055.211.025.173.047.144.03.145.06.211-.06-.046.035.084.1.28.027.079.108.268-.026.032h-.054v.052l.04.125.035.15-.054-.066v.066l.055.078h-.36a1.03 1.03 0 00.043.37h-.211a1.03 1.03 0 00.035-.366z" fill="#37B34A"/><path d="M36.36 52.39c-25.764-3.431-51.425-12.275-79.866-17.458-11.054-1.848-16.347 2.365-18.176 2.823-1.9.474-14.745 5.94-21.402 9.029C-89.741 49.872-106 56.292-106 56.292H62.808s.057-.373-26.448-3.903z" fill="#86BA2B"/><path d="M-55.119 47.906c11.543 1.992 7.32-4.1 23.505 0 16.186 4.101 13.09-3.797 33.198 1.266 20.108 5.063 13.065-.154 27.774 2.154C5.924 47.379-17.64 39.645-43.506 34.932c-11.054-1.848-16.347 2.365-18.176 2.823-1.9.474-14.745 5.94-21.402 9.029-3.678 1.707-10.278 4.43-15.452 6.527 0 0 10.068-3.723 20.902-4.129 10.833-.404 10.974-3.267 22.516-1.276z" fill="#88BF32"/><path d="M-92.567 50.855c.08-.03 20.452-7.569 34.216-7.71 13.763-.142 9.923-4.783 24.453-.564 14.53 4.22 7.493-2.812 20.724.844C.058 47.081.163 45.297 11.598 47.737c-17.686-4.059-35.75-9.282-55.105-12.81-11.055-1.847-16.348 2.366-18.176 2.823-1.9.475-14.745 5.941-21.402 9.03-2.354 1.084-5.889 2.586-9.482 4.075z" fill="#8BC53F"/><path d="M15.313 55.45l.097-.228h-.167l.264-.571.211-.543-.291.157.082-.386.131-.243.063-.285.055-.285v-.143h-.07l.055-.243.11-.242.125-.258.14-.257.096-.228c.069.177.149.349.241.515.079.104.15.214.211.329l.211.342v.071l-.082-.03.082.343c.036.05.068.102.097.156l.14.285v.071l-.152-.03s.124.273.152.33c.027.057.152.126.166.228.02.084.058.162.112.23.028.042.152.185.152.185v.072s-.166-.03-.21-.03c-.045 0-.168-.086-.153-.042.015.045.211.372.211.372l.264.356h-1.055c-.011.162.007.324.055.479.042.129.1.251.173.365h-.79c.073-.114.131-.236.173-.365.048-.155.066-.317.055-.479l-.954.002zm19.277-.611l.084-.146h-.135l.135-.29.078-.168.07-.316.014-.057-.092.055.093-.233.116-.259.05-.145.11-.29.095-.192.175.481h-.044a.433.433 0 00.044.182c.025.043.042.09.051.14.015.037.044.185.044.185h-.065l.101.26c.014.04.034.077.06.111.044.074.083.152.115.232h-.124l.124.24v.167l.102.25-.095.018.095.194.044.14a.278.278 0 01.06.092c.003.065.003.13 0 .194l-.087.074h-.51c.002.12.008.241.022.361.006.056.02.11.044.16h-.297a.506.506 0 00.044-.16c.013-.12.02-.24.021-.36h-.46l-.137-.066v-.066l.05-.232.036-.21-.087.082v-.083l.045-.257.01-.088zm20.864 1.022h-.54l.075-.312.066-.08.076-.249-.076.061.042-.128c.042-.13.047-.106.047-.106l.03-.082.075-.167h-.076l.129-.226s.106-.392.118-.422c.013-.03.036-.358.036-.358l.082-.245.066.245.03.21.052.167.036.17.07.252-.07-.052.042.097.114.325.032.088.125.31-.03.038h-.07v.061l.047.144.042.173-.065-.076v.076l.065.09h-.426c-.01.143.007.286.048.422h-.24a1.2 1.2 0 00.048-.426zm2.541.062h.475l-.065-.268-.055-.068-.066-.21.066.052-.036-.11c-.036-.11-.04-.09-.04-.09l-.026-.07-.065-.143h.065l-.111-.194s-.091-.338-.102-.357c-.01-.019-.03-.308-.03-.308l-.071-.211-.055.211-.025.173-.047.144-.03.145-.06.211.06-.044-.035.084-.1.279-.027.075-.105.266.025.032h.055v.053l-.04.124-.036.148.055-.066v.066l-.055.078h.373c.009.125-.005.25-.042.37h.211a1.024 1.024 0 01-.06-.372zm-38.69-.233h.754l-.108-.436-.09-.11-.108-.346.107.085-.057-.18c-.057-.179-.065-.147-.065-.147l-.04-.114-.108-.232h.108l-.182-.317s-.148-.546-.164-.578c-.017-.031-.05-.5-.05-.5l-.113-.341-.09.341-.041.279-.074.232-.049.236-.099.352.1-.073-.058.137-.16.451-.044.125-.173.421.04.053h.09v.085l-.065.21-.057.241.09-.105v.105l-.09.127h.608c.014.203-.008.406-.068.601h.336a1.666 1.666 0 01-.08-.601zm4.792 0h.754l-.108-.436-.09-.11-.108-.346.107.085-.057-.18c-.057-.179-.065-.147-.065-.147l-.04-.114-.108-.232h.097l-.181-.317s-.148-.546-.165-.578c-.017-.031-.049-.5-.049-.5l-.113-.341-.091.341-.04.279-.074.232-.049.236-.082.357.099-.074-.057.137-.16.451-.045.125-.173.422.04.053h.085v.084l-.066.21-.057.241.091-.105v.105l-.09.127h.607a1.65 1.65 0 01-.067.601h.335a1.665 1.665 0 01-.08-.605zm20.13.144h.577l-.082-.333-.07-.084-.083-.266.083.063-.044-.137c-.045-.137-.051-.114-.051-.114l-.032-.086-.082-.178h.093l-.138-.24s-.111-.422-.124-.441c-.013-.019-.038-.382-.038-.382l-.089-.262-.07.262-.031.211-.057.177-.038.182-.076.268.076-.057-.044.103-.123.346-.034.095-.13.33.031.04h.07v.062l-.05.154-.045.184.07-.08v.08l-.07.097h.464c.01.155-.007.31-.053.458h.256a1.265 1.265 0 01-.066-.452zm5.647.015h.557l-.078-.323-.067-.082-.078-.257.078.06-.043-.132c-.042-.133-.048-.11-.048-.11l-.03-.084-.078-.171h.078l-.133-.234s-.11-.405-.12-.422a5.54 5.54 0 01-.036-.37l-.084-.253-.068.254-.03.21-.054.171-.036.175-.074.26.074-.055-.042.101-.119.334-.033.093-.127.318.03.038h.067v.061l-.049.148-.042.177.068-.078v.078l-.068.093h.45c.01.15-.007.3-.05.443h.246a1.229 1.229 0 01-.061-.443z" fill="#37B34A"/><path d="M54.41 55.758l-.06-.145h.105l-.167-.363-.141-.344.183.1-.052-.245-.085-.155-.04-.18-.036-.182v-.091h.044l-.035-.154-.07-.154-.078-.163-.089-.162-.061-.146a2.602 2.602 0 01-.15.328 1.602 1.602 0 00-.131.21l-.13.211v.045l.052-.02-.053.212a1.061 1.061 0 00-.061.099l-.089.181v.045l.097-.02-.097.212c-.017.035-.097.08-.105.145a.365.365 0 01-.07.146 1.892 1.892 0 01-.097.118v.044s.105-.019.133-.019c.027 0 .105-.055.097-.027-.008.027-.141.236-.141.236l-.167.226h.663a.842.842 0 01-.036.303c-.027.082-.064.16-.11.233h.502a1.013 1.013 0 01-.11-.232.844.844 0 01-.035-.304l.62.012zm-41.58-.215l-.087-.21h.148l-.235-.507-.196-.481.258.139-.074-.342-.116-.21-.055-.254-.049-.253v-.127h.061l-.048-.21-.1-.212-.11-.227-.122-.228-.086-.211c-.06.156-.13.309-.211.456a2.24 2.24 0 00-.184.29l-.184.304v.064l.074-.026-.074.304c-.031.045-.06.091-.086.14l-.123.253v.063l.135-.025s-.11.24-.135.29c-.025.051-.135.112-.148.212a.51.51 0 01-.099.21 2.76 2.76 0 01-.135.165v.064s.148-.026.184-.026c.036 0 .148-.076.135-.038-.013.038-.196.33-.196.33l-.235.316h.93a1.177 1.177 0 01-.204.744h.704a1.426 1.426 0 01-.155-.322 1.179 1.179 0 01-.048-.422l.865-.013zm-12.81 0l-.086-.21h.148l-.235-.507-.196-.481.258.139-.074-.342-.116-.21-.055-.254-.049-.253v-.127h.061l-.048-.21-.1-.212-.11-.227-.122-.228-.086-.211c-.06.156-.13.309-.211.456-.069.092-.13.189-.184.29l-.184.304v.064l.074-.026-.074.304c-.031.045-.06.091-.086.14l-.123.253v.063l.135-.025s-.11.24-.135.29c-.025.051-.135.112-.148.212a.51.51 0 01-.099.21 2.76 2.76 0 01-.135.165v.064s.148-.026.184-.026c.036 0 .148-.076.135-.038-.013.038-.196.33-.196.33l-.235.316h.93a1.176 1.176 0 01-.203.744h.698a1.177 1.177 0 01-.203-.745l.87-.012zm32.752-.011l.086-.21h-.146l.237-.515.2-.49-.261.142.074-.348.118-.211.057-.258.05-.257v-.129h-.063l.05-.21.1-.212.112-.232.124-.232.087-.21c.06.158.13.312.211.461.07.094.133.192.188.295l.188.309v.063l-.074-.025.074.308c.031.045.06.092.087.14l.124.258v.063l-.137-.025s.112.245.137.296c.025.05.137.114.15.21.017.078.05.15.1.212.025.038.136.166.136.166v.063s-.15-.025-.187-.025c-.038 0-.15-.078-.138-.038.013.04.2.336.2.336l.237.32h-.941a1.193 1.193 0 00.207.75h-.712a1.45 1.45 0 00.156-.328c.042-.136.06-.28.051-.422l-.883-.014zm-1.365 0l-.087-.21h.15l-.236-.509-.201-.49.262.142-.074-.348-.118-.211-.057-.257-.051-.258v-.128h.063l-.05-.211-.1-.211-.111-.233-.125-.231-.087-.212c-.06.16-.13.314-.21.462-.07.094-.134.193-.189.296l-.188.308v.063l.074-.025-.073.308a1.57 1.57 0 00-.087.141l-.125.258v.063l.138-.025s-.112.244-.138.295c-.025.05-.137.114-.15.21a.516.516 0 01-.099.212 3.285 3.285 0 01-.137.166v.064s.15-.026.188-.026c.038 0 .15-.078.137-.038-.013.04-.2.336-.2.336l-.237.32h.942a1.193 1.193 0 01-.207.75h.711a1.193 1.193 0 01-.207-.749l.879-.022zm10.693.15l.07-.166h-.12l.19-.422.16-.393-.211.114.06-.278.096-.175.044-.211.04-.211v-.104h-.05l.04-.175.08-.175.09-.186.102-.185.07-.165c.048.128.105.253.17.374.057.075.107.155.15.238l.15.249v.053l-.06-.021.06.248a.97.97 0 01.07.114l.102.211v.053l-.11-.021.11.238c.02.043.11.093.12.165.014.06.041.118.08.167.021.031.11.135.11.135v.052s-.12-.02-.15-.02-.12-.062-.11-.032c.01.03.16.27.16.27l.19.26h-.747a.958.958 0 00.04.345c.03.093.073.182.125.264h-.587a1.15 1.15 0 00.125-.264.958.958 0 00.04-.346H42.1zm-3.293-.92l.089-.154h-.142l.142-.301.08-.178.082-.326.015-.06-.099.06.1-.243.122-.272.052-.152.114-.304.1-.21.183.503H39.6a.457.457 0 00.046.192.481.481 0 01.053.146c.015.038.047.196.047.196h-.07l.108.272a.412.412 0 00.06.116c.048.078.089.159.123.243h-.129l.13.253v.175l.107.262-.1.019.1.21.046.146a.293.293 0 01.062.097c.004.07.004.14 0 .211l-.091.078h-.534c0 .127.008.254.023.38a.532.532 0 00.046.169h-.312a.531.531 0 00.046-.169c.015-.126.023-.253.023-.38H38.9l-.146-.067v-.068l.053-.242.038-.222-.09.087v-.087l.046-.27.006-.11zm-10.427 0l-.088-.154h.141l-.14-.301-.081-.178-.082-.326-.015-.06.099.06-.1-.243-.122-.272-.053-.152-.113-.304-.1-.21-.183.503h.046a.459.459 0 01-.046.192.479.479 0 00-.053.146c-.015.038-.047.196-.047.196h.07l-.108.272a.408.408 0 01-.06.116 1.718 1.718 0 00-.123.243h.128l-.126.261v.175l-.108.262.1.02-.1.21-.046.146a.293.293 0 00-.062.097c-.004.07-.004.14 0 .21l.091.079h.534a3.57 3.57 0 01-.023.38.53.53 0 01-.046.168h.312a.528.528 0 01-.046-.169 3.57 3.57 0 01-.023-.38h.472l.146-.067v-.076l-.053-.242-.038-.222.091.087v-.087l-.046-.27.002-.11zm-19.035 0l-.089-.154h.142l-.142-.301-.08-.178-.082-.326-.015-.06.1.06-.1-.243-.123-.272-.052-.152-.114-.304-.1-.21-.183.503h.046a.458.458 0 01-.046.192.482.482 0 00-.053.146 2.231 2.231 0 00-.046.196h.07l-.108.272a.407.407 0 01-.062.116 1.714 1.714 0 00-.122.243h.129l-.13.253v.175l-.107.262.1.019-.1.21-.046.146a.294.294 0 00-.062.097c-.004.07-.004.14 0 .211l.091.078h.534a3.584 3.584 0 01-.023.38.532.532 0 01-.046.169h.312a.532.532 0 01-.046-.169 3.587 3.587 0 01-.023-.38h.483l.146-.067v-.068l-.053-.242-.038-.222.09.087v-.087l-.046-.27-.006-.11zm38.357.283l.071-.124h-.116l.116-.247.066-.143.067-.266.013-.049-.08.049.08-.199.1-.221.044-.124.093-.247.08-.165.15.422h-.038a.372.372 0 00.038.156.392.392 0 01.044.118c.013.032.038.16.038.16h-.057l.087.222a.33.33 0 00.05.095c.038.063.072.13.1.198h-.102l.106.211v.144l.086.21-.08.018.08.166.038.118a.24.24 0 01.051.08 1.55 1.55 0 010 .167l-.074.064h-.435c0 .103.007.207.02.31a.437.437 0 00.037.137h-.255a.437.437 0 00.038-.137 2.92 2.92 0 00.019-.31h-.395l-.118-.055v-.055l.044-.198.032-.182-.074.07v-.07l.038-.21-.002-.113zm-46.055-.521l.101-.177h-.162l.162-.35.093-.211.097-.378.017-.07-.114.068.114-.28.141-.315.062-.177.133-.352.114-.234.21.584h-.052a.53.53 0 00.053.221c.03.053.05.11.061.17.017.043.053.225.053.225h-.08l.124.316c.017.049.04.094.072.135.054.09.102.184.141.28h-.15l.15.292v.211l.125.304-.114.023.114.236.053.17c.03.031.054.07.07.11a2.05 2.05 0 010 .237l-.106.09H2.52c.001.148.01.294.027.44a.615.615 0 00.053.194h-.36a.615.615 0 00.052-.194c.017-.146.026-.292.027-.44h-.56l-.168-.077v-.078l.061-.28.044-.258-.105.099v-.1l.053-.311.002-.123zm20.699 1.11h.827l-.118-.479-.1-.12-.118-.382.119.093-.064-.196c-.063-.197-.072-.163-.072-.163l-.044-.127-.116-.253h.116l-.198-.346s-.163-.599-.18-.633c-.017-.033-.055-.548-.055-.548l-.126-.375-.1.375-.044.306-.08.253-.049.247-.107.386.107-.08-.063.15-.175.495-.049.137-.19.475.045.057h.099V55l-.072.21-.063.265.099-.116v.116l-.1.139h.668c.016.223-.01.446-.074.66h.367a1.824 1.824 0 01-.09-.64z" fill="#009345"/><path d="M152 56.273h-258c0 8.04 15.16 15.299 39.521 20.463-4.315 2.412-6.684 5.03-6.684 7.772 0 6.629 13.823 12.544 35.47 16.428-3.201 1.703-4.97 3.57-4.97 5.527 0 5.063 11.823 9.523 29.722 12.108-2.645 1.179-4.136 2.506-4.136 3.909 0 4.877 17.946 8.829 40.088 8.829 22.14 0 40.076-3.945 40.076-8.827 0-1.403-1.49-2.73-4.136-3.909 17.898-2.585 29.723-7.04 29.723-12.108 0-1.957-1.77-3.824-4.97-5.527 21.639-3.884 35.47-9.801 35.47-16.428 0-2.742-2.371-5.367-6.685-7.774C136.841 71.572 152 64.313 152 56.273z" fill="#86D0D0"/><path d="M65.397 61.587c9.697-2.061-8.446-3.979-27.359-5.314h-137.8c18.06 0 71.168.378 103.754 4.641a434.552 434.552 0 0119.248 3.34C90.477 77.52 4.829 78.78 48.594 88.514c14.802 3.294 5.998 7.057-12.134 10.597 24.069-3.185 36.606-10.25 15.687-13.417-19.213-2.907 8.336-9.082 18.427-11.13 2.79-1.083 6.877-2.078 11.85-2.954 1.067-.422 2.955-.916 5.776-1.494a228.108 228.108 0 008.656-1.924c2.027-4.57-46.917-3.318-31.458-6.605z" fill="#67C9BD"/><path d="M1.71 112.102s8.996-1.172 21.728-3.037c38.182-5.593 109.958-17.413 73.35-22.504-11.715-1.63-19.586-3.257-24.364-4.837-10.823-3.587-5.747-6.924 6.633-9.481 15.257-4.464-1.9-5.873-9.186-6.453-7.286-.58-27.13-.58-16.679-3.414 8.135-2.206-25.152-4.98-40.305-6.1h-10.1c27.658 1.754 55.4 4.206 44.87 6.554-19.441 4.335 45.308 3.358 26.371 7.805-18.936 4.448-32.925 9.072 5.211 15.513 38.136 6.44-47.306 17.136-63.278 20.326-13.695 2.743-52.474 3.54-30.672 9.398 4.248-2.485 16.421-3.77 16.421-3.77zm93.918-49.274c-8.394 1.87-1.091 2.753 8.393 3.508 1.313-.36 2.571-.717 3.775-1.07-7.192-.377-13.54-1.01-6.626-2.89 8.135-2.206-25.152-4.98-40.304-6.1h-10.1c27.65 1.752 55.4 4.204 44.862 6.552z" fill="#9AD8D6"/><path d="M106.853 61.9c7.962-2.511-18.858-4.606-35.49-5.627h-10.5c15.153 1.122 48.441 3.896 40.304 6.101-6.914 1.875-.567 2.508 6.63 2.892a311.79 311.79 0 004.668-1.407c-6.173.256-12.227.129-5.612-1.96z" fill="#67C9BD"/><path d="M-66.479 76.74c-4.315 2.408-6.684 5.026-6.684 7.768 0 6.629 13.823 12.544 35.47 16.428-3.201 1.703-4.97 3.57-4.97 5.527 0 .992.456 1.96 1.32 2.897 44.548-4.525 121.758-13.776 89.94-20.854-43.769-9.728 41.88-10.985-25.356-24.25a431.508 431.508 0 00-19.249-3.34c-39.724-5.2-109.943-4.624-109.992-4.624.025 8.031 15.178 15.284 39.521 20.449z" fill="#049E45"/><path d="M48.594 88.517c-22.933-5.101-10.33-7.876-2.813-11.27-15.39-3.122-64.472-4.81-51.238-9.382 15.79-5.455-72.496-5.93-98.009-5.966 5.264 5.772 18.463 10.91 36.988 14.84-4.316 2.409-6.684 5.027-6.684 7.77 0 6.628 13.822 12.543 35.47 16.427-3.201 1.703-4.97 3.57-4.97 5.527 0 .992.455 1.96 1.319 2.897 44.538-4.517 121.748-13.77 89.937-20.843z" fill="#009345"/><path d="M10.307 83.304C40.473 75.498-66.48 76.74-66.48 76.74c-4.315 2.407-6.684 5.025-6.684 7.767 0 6.629 13.822 12.544 35.47 16.428-3.201 1.703-4.97 3.57-4.97 5.527 0 .992.456 1.96 1.32 2.897 44.547-4.525 121.757-13.776 89.94-20.854a111.41 111.41 0 01-5.164-1.266c-23.518.815-52.314 1.024-33.126-3.936z" fill="#038739"/><path d="M14.286 89.28h-.39l-.423-.191v-.192l.152-.69.108-.633-.26.245v-.245l.13-.768.022-.31.25-.435h-.402l.401-.858.23-.502.237-.927.044-.17-.279.164.279-.688.346-.772.152-.434.325-.861.281-.572.52 1.433h-.131c.003.188.048.374.13.544.074.131.126.274.153.422.044.11.13.555.13.555l-.194.02.304.775c.04.119.098.23.173.331.134.22.25.45.347.688h-.37l.37.717v.481l.304.745-.281.055.28.578.132.422c.075.08.133.174.173.276.01.193.01.386 0 .578l-.26.211h-2.983v.008z" fill="#006838"/><path d="M15.205 90.356c.041-.357.063-.716.066-1.076h.492c.002.36.024.719.065 1.076.017.165.062.326.131.477h-.887c.07-.15.116-.312.133-.477z" fill="#6D574E"/><path d="M41.792 90.947l.249-.587h-.422l.675-1.476.57-1.395-.747.403.21-.991.339-.633.16-.734.142-.735v-.367h-.178l.142-.633.285-.632.32-.66.358-.661.249-.587s.498 1.247.606 1.321c.2.267.378.55.534.844l.534.88v.183l-.211-.074.21.88c.091.13.175.264.25.403l.357.734v.184l-.393-.074s.321.696.393.844c.072.147.39.327.422.584.05.215.147.416.285.589.072.11.393.477.393.477v.183s-.422-.074-.534-.074c-.112 0-.423-.21-.393-.11.03.102.57.954.57.954l.676.918-6.051.042z" fill="#006838"/><path d="M45.305 92.175a3.402 3.402 0 01-.144-1.23h-.857c.028.415-.02.832-.144 1.23a4.08 4.08 0 01-.443.937h2.031a4.082 4.082 0 01-.443-.937z" fill="#6D574E"/><path d="M5.6 97.126l.298-.698H5.39l.805-1.747.677-1.66-.89.48.253-1.179.403-.742.19-.874.169-.873v-.437h-.211l.169-.742.34-.743.382-.787.422-.787.298-.698s.593 1.477.72 1.572c.126.095.633 1.004.633 1.004l.633 1.055v.21l-.253-.086.254 1.055c.108.155.207.315.297.481l.422.873v.211l-.466-.086s.382.829.466 1.004c.085.175.465.388.51.696.059.256.175.496.34.7.084.131.466.568.466.568v.211s-.509-.086-.634-.086c-.124 0-.508-.262-.466-.131.042.13.678 1.135.678 1.135l.804 1.093-7.2.008zm28.534-4.166h.551l.581-.273v-.272l-.211-.972-.152-.893.367.346v-.346l-.184-1.082-.029-.437-.353-.616h.566l-.566-1.213-.325-.709-.333-1.307-.062-.241.395.234-.4-.975-.49-1.088-.212-.612-.458-1.217-.397-.808-.735 2.023h.18a1.83 1.83 0 01-.184.768c-.101.182-.173.38-.211.584-.061.156-.184.785-.184.785l.275.03-.422 1.092a1.63 1.63 0 01-.245.467c-.19.31-.353.636-.49.972h.52l-.52 1.013v.7l-.422 1.055.396.078-.413.812-.184.585c-.106.112-.19.244-.245.388a7.128 7.128 0 000 .816l.367.313h4.229z" fill="#006838"/><path d="M32.837 94.48a14.29 14.29 0 01-.092-1.52h-.695a14.29 14.29 0 01-.093 1.52 2.133 2.133 0 01-.186.674h1.252a2.134 2.134 0 01-.186-.673z" fill="#6D574E"/><path d="M18.824 95.038l.346-.486v-.405l-.346.405.211-.926.254-.77.031-.322h-.331l-.159-.212.663-1.662.174-.48.614-1.74.211-.525-.378.283.378-1.354.19-.91.285-.888.158-1.074.347-1.316.44 1.316s.128 1.802.19 1.922c.064.12.634 2.222.634 2.222l.686 1.224h-.4l.409.888.158.438s.032-.116.254.57l.21.688-.41-.323.41 1.333.347.422.41 1.677-5.986.005z" fill="#006838"/><path d="M21.923 95.038h-.765s.08 1.687-.261 2.308h1.288c-.342-.602-.262-2.308-.262-2.308z" fill="#6D574E"/><path d="M.233 89.772l.285-.399v-.33l-.285.33.182-.761.21-.633.026-.266H.366l-.129-.167.545-1.365.144-.394.504-1.428.182-.422-.31.232.31-1.112.156-.747.234-.73.13-.882.284-1.082.363 1.082s.104 1.477.157 1.58c.052.104.519 1.825.519 1.825l.57.996h-.338l.338.73.129.36s.025-.094.21.47l.183.563-.338-.266.338 1.094.285.349.337 1.377-4.936-.004z" fill="#006838"/><path d="M2.778 89.772h-.633s.065 1.394-.212 1.898H2.99c-.276-.504-.211-1.898-.211-1.898z" fill="#6D574E"/><path d="M.54 98.854l-.346-.485v-.405l.346.405-.21-.926-.254-.77-.032-.323h.347l.158-.211-.663-1.662-.173-.481-.615-1.739-.21-.525.377.282-.378-1.354-.19-.91-.285-.887-.158-1.074-.346-1.317-.454 1.33s-.127 1.801-.19 1.921c-.064.12-.634 2.222-.634 2.222l-.699 1.213h.41l-.41.888-.166.441s-.032-.116-.254.57l-.21.687.41-.322-.41 1.322-.347.422-.412 1.688H.54zm3.67-33.896l.063-.185h-.108l.171-.464.144-.441-.188.128.053-.314.084-.198.04-.232.036-.232v-.116h-.044l.036-.199.072-.198.08-.211.088-.21.064-.187c.042.144.093.285.152.422a2.4 2.4 0 01.135.268l.135.279v.059l-.053-.023.053.278s.044.082.063.129l.09.232v.059l-.1-.023.1.268c.016.046.098.103.107.185a.52.52 0 00.072.186c.016.036.099.152.099.152v.059a1.315 1.315 0 00-.135-.023c-.028 0-.108-.07-.1-.036.009.034.144.301.144.301l.171.292-1.524-.005z" fill="#006838"/><path d="M5.087 65.347a1.342 1.342 0 01-.036-.389H4.84a1.342 1.342 0 01-.148.684h.51a1.449 1.449 0 01-.115-.295z" fill="#6D574E"/><path d="M33.25 71.903l.076-.223h-.13l.212-.56.173-.531-.226.154.066-.378.103-.238.049-.28.042-.281v-.14h-.06l.043-.238.087-.238.097-.251.107-.251.076-.224c.052.171.113.34.184.504.061.103.116.21.163.32l.162.336v.07l-.065-.027.065.335s.055.097.076.154l.108.28v.07l-.118-.027.118.32c.02.055.118.125.129.224a.63.63 0 00.086.224c.021.042.118.181.118.181v.07a1.595 1.595 0 00-.162-.028c-.032 0-.129-.084-.118-.042.01.042.173.363.173.363l.21.35-1.844.002z" fill="#006838"/><path d="M34.314 72.372a1.616 1.616 0 01-.044-.469h-.26a1.616 1.616 0 01-.18.825h.617a1.735 1.735 0 01-.133-.356z" fill="#6D574E"/><path d="M15.576 67.452l-.076-.224h.129l-.211-.559-.173-.531.225.154-.065-.378-.103-.238-.049-.28-.042-.281v-.14h.055l-.043-.238-.086-.238-.097-.251-.108-.252-.076-.223a4.58 4.58 0 01-.184.504c-.061.103-.115.21-.162.32l-.163.336v.07l.066-.028-.066.336s-.055.097-.076.154l-.107.28v.07l.118-.028-.118.321c-.022.055-.119.125-.13.224a.632.632 0 01-.086.223 2.848 2.848 0 01-.118.182v.07c.054-.012.108-.022.162-.028.032 0 .13-.084.119-.042-.01.042-.173.363-.173.363l-.212.35 1.85.002z" fill="#006838"/><path d="M14.511 67.92c.038-.153.053-.31.045-.468h.26a1.615 1.615 0 00.179.825h-.617c.057-.114.102-.233.133-.357z" fill="#6D574E"/><path d="M37.443 76.226l-.104-.308h.18l-.283-.77-.239-.732.313.21-.089-.518-.141-.327-.068-.386-.059-.386v-.192h.074l-.06-.327-.117-.327-.133-.346-.148-.346-.104-.308c-.07.236-.155.468-.253.694a3.47 3.47 0 00-.224.443l-.224.462v.097l.089-.038-.089.462s-.074.135-.103.21l-.148.387v.097l.163-.038s-.133.365-.163.443c-.03.078-.163.17-.177.308a.863.863 0 01-.118.31c-.03.057-.163.251-.163.251v.097a2.2 2.2 0 01.224-.038c.044 0 .18-.116.162-.057-.017.06-.238.5-.238.5l-.283.481 2.523-.008z" fill="#006838"/><path d="M35.977 76.871c.052-.21.072-.428.06-.645h.359c-.012.217.008.434.059.645.043.17.106.336.186.492h-.845c.078-.157.14-.322.181-.492z" fill="#6D574E"/><path d="M26.982 74.154l-.076-.223h.129l-.211-.56-.173-.531.226.154-.066-.378-.103-.238-.049-.28-.042-.281v-.14h.055l-.042-.238-.087-.238-.097-.251-.108-.251-.076-.224c-.051.172-.112.34-.183.504-.062.103-.116.21-.163.32l-.163.336v.07l.066-.028-.066.336s-.055.097-.076.154l-.107.28v.07l.118-.027s-.097.266-.118.32c-.021.055-.119.125-.13.224a.634.634 0 01-.086.224c-.02.042-.118.181-.118.181v.07a1.62 1.62 0 01.163-.028c.031 0 .128-.084.118-.042-.01.042-.173.363-.173.363l-.211.35 1.85.002z" fill="#006838"/><path d="M25.918 74.623c.037-.154.052-.311.044-.469h.26a1.615 1.615 0 00.179.825h-.616c.057-.114.101-.233.133-.356z" fill="#6D574E"/><path d="M17.84 68.733h.162l.174-.08v-.08l-.064-.288-.044-.263.107.103v-.103l-.054-.321v-.129l-.104-.181h.167l-.167-.359-.097-.21-.1-.387-.018-.072.116.07-.116-.287-.146-.323-.063-.181-.135-.36-.118-.24-.212.6h.055a.54.54 0 01-.055.228.572.572 0 00-.063.173c-.019.046-.055.232-.055.232h.082l-.126.322a.485.485 0 01-.072.14 2.023 2.023 0 00-.146.287h.154l-.154.3v.21l-.126.31.118.024-.118.242-.055.173a.35.35 0 00-.072.116 1.97 1.97 0 000 .243l.108.093h1.25l-.013-.002z" fill="#006838"/><path d="M17.456 69.184c-.017-.15-.026-.3-.027-.45h-.211c-.002.15-.01.3-.028.45a.634.634 0 01-.055.198h.376a.634.634 0 01-.055-.198z" fill="#6D574E"/><path d="M21.377 68.912h.18l.187-.089v-.088l-.07-.317-.05-.289.118.112v-.112l-.06-.352v-.141l-.113-.2h.184l-.184-.395-.106-.23-.108-.422-.018-.078.128.076-.128-.317-.159-.354-.078-.194-.15-.395-.129-.261-.24.656h.059a.595.595 0 01-.06.249.633.633 0 00-.069.19 3.15 3.15 0 00-.06.255h.09l-.138.36a.53.53 0 01-.08.152 2.226 2.226 0 00-.158.317h.169l-.17.329v.228l-.139.342.13.025-.13.266-.059.19a.382.382 0 00-.08.126 2.312 2.312 0 000 .266l.118.101h1.373v-.006z" fill="#006838"/><path d="M20.957 69.406a4.653 4.653 0 01-.03-.494h-.226c0 .165-.01.33-.03.493a.694.694 0 01-.06.212h.407a.694.694 0 01-.061-.212z" fill="#6D574E"/><path d="M25.158 70.629h.21l.212-.101v-.102l-.078-.358-.057-.33.135.13v-.127l-.068-.401-.01-.162-.131-.228h.211l-.211-.448-.12-.261-.123-.483-.023-.089.145.087-.145-.359-.184-.399-.078-.225-.169-.45-.148-.297-.27.747h.068a.676.676 0 01-.068.282.71.71 0 00-.078.211c-.023.057-.068.29-.068.29l.102.01-.159.403a.6.6 0 01-.09.173c-.07.114-.131.234-.182.358h.192l-.192.374v.26l-.158.387.147.03-.147.302-.068.21a.435.435 0 00-.09.144c-.006.1-.006.201 0 .302l.134.114h1.56l-.001.006z" fill="#006838"/><path d="M24.69 71.19a5.289 5.289 0 01-.034-.561h-.255a5.289 5.289 0 01-.034.561.789.789 0 01-.07.25h.462a.791.791 0 01-.07-.25z" fill="#6D574E"/><path d="M27.31 71.386l.123-.168v-.138l-.118.138.076-.317.087-.263.01-.11h-.118l-.055-.07.226-.567.06-.165.21-.593.076-.179-.129.097.13-.462.065-.31.097-.304.055-.367.118-.45.15.45s.042.614.065.656c.024.042.211.76.211.76l.237.421h-.14l.14.304.055.15s.01-.04.086.194l.076.234-.139-.11.14.456.117.146.14.572-2.05-.005z" fill="#006838"/><path d="M28.372 71.386h-.262s.027.58-.089.787h.44c-.117-.207-.09-.787-.09-.787z" fill="#6D574E"/><path d="M30.251 72.99l.136-.188v-.156l-.136.156.087-.36.097-.3.013-.127h-.135l-.062-.078.258-.645.067-.186.24-.675.086-.211-.148.11.148-.526.073-.352.11-.346.061-.422.136-.51.162.512s.049.7.074.747c.026.046.245.863.245.863l.27.47h-.158l.158.346.061.171s.013-.044.098.222l.086.265-.16-.126.16.519.135.164.159.652-2.32.01z" fill="#006838"/><path d="M31.457 72.99h-.298s.032.66-.101.896h.5c-.133-.238-.101-.896-.101-.896z" fill="#6D574E"/><path d="M7.294 66.138l.105-.148v-.122l-.105.122.067-.28.076-.235v-.099h-.105l-.049-.061.211-.504.053-.146.188-.527.067-.16-.116.086.116-.422.057-.276.087-.27.049-.327.105-.401.135.4s.038.55.057.585c.02.036.192.675.192.675l.211.37h-.124l.124.27.049.132s0-.036.076.173l.068.211-.125-.099.125.405.105.129.125.51-1.824.009z" fill="#006838"/><path d="M8.236 66.138H8.01c.017.237-.01.475-.08.702h.393a1.944 1.944 0 01-.087-.702z" fill="#6D574E"/><path d="M10.574 66.83l.105-.148v-.123l-.105.123.067-.28.076-.235v-.1h-.105l-.049-.06.211-.505.053-.145.188-.527.068-.16-.117.086.117-.422.057-.277.086-.27.049-.327.105-.4.135.4s.038.549.057.585c.02.036.193.675.193.675l.21.369h-.124l.125.27.048.133s0-.036.076.173l.068.21-.125-.098.125.405.105.129.125.51-1.824.008z" fill="#006838"/><path d="M11.518 66.83h-.232a1.96 1.96 0 01-.08.702h.394a1.945 1.945 0 01-.082-.702z" fill="#6D574E"/><path d="M41.944 74.882l.15-.21v-.176l-.15.175.095-.399.11-.333.013-.14h-.16l-.068-.086.285-.717.074-.21.266-.75.095-.225-.163.122.163-.585.082-.392.123-.384.067-.464.15-.568.19.568s.055.776.082.83c.028.052.273.957.273.957l.3.523h-.178l.178.384.067.19s.013-.05.11.247l.095.295-.177-.14.177.577.15.183.177.724-2.576.004z" fill="#006838"/><path d="M43.28 74.882h-.329s.034.732-.112.996h.556c-.148-.264-.114-.996-.114-.996z" fill="#6D574E"/><path d="M38.529 73.998l.127-.175v-.145l-.127.145.08-.335.09-.279.012-.118h-.127l-.057-.074.24-.601.064-.173.224-.633.08-.19-.137.103.137-.491.07-.33.103-.322.057-.39.127-.477.16.477s.047.652.07.696c.023.044.228.806.228.806l.251.439h-.148l.148.323.057.16s.01-.042.09.21l.081.25-.15-.118.15.483.125.154.148.607-2.173-.002z" fill="#006838"/><path d="M39.653 73.998h-.277s.03.616-.095.844h.467c-.125-.228-.095-.844-.095-.844z" fill="#6D574E"/><path d="M88.198 70.106c-21.324 4.36 11.31 3.953 38.579 3.046 15.848-4.719 25.22-10.548 25.22-16.877-27.977.713-31.722 7.272-63.8 13.83z" fill="#37B34A"/><path d="M96.786 86.561c36.612 5.09-35.187 16.913-73.365 22.506-5.975 3.483-.37 7.126 35.529 9.51 17.897-2.584 29.723-7.04 29.723-12.107 0-1.958-1.77-3.825-4.97-5.527 21.638-3.884 35.469-9.802 35.469-16.428 0-2.743-2.371-5.367-6.684-7.774 0 0-29.48 1.477-40.055 4.983 4.767 1.58 12.638 3.206 24.353 4.837z" fill="#009345"/><path d="M96.787 69.595c-23.55 2.578-39.496 7.118-24.362 12.127 10.578-3.498 40.055-4.983 40.055-4.983 13.973-2.965 24.914-6.618 31.712-10.711a711.788 711.788 0 00-47.405 3.567z" fill="#049E45"/><path d="M90.641 82.686l.14-.422h-.241l.38-1.036.319-.983-.423.284.12-.698.19-.44.091-.518.08-.517v-.259h-.103l.08-.44.16-.442.18-.466.2-.466.14-.422c.095.317.209.628.34.932.114.191.214.39.3.595l.3.62v.13l-.12-.054.12.62s.099.182.14.285l.2.517v.15l-.211-.053s.179.492.21.595c.032.104.212.23.24.422.025.15.08.293.16.422.04.078.21.336.21.336v.128a2.96 2.96 0 00-.299-.052c-.06 0-.24-.157-.211-.079.03.079.319.673.319.673l.38.648-3.391-.01z" fill="#006838"/><path d="M92.61 83.553a2.995 2.995 0 01-.08-.867h-.49c.015.29-.012.583-.08.867-.06.228-.143.45-.25.66h1.14a3.22 3.22 0 01-.24-.66z" fill="#6D574E"/><path d="M95.384 82.975l.211-.283v-.234l-.211.234.129-.54.148-.45.019-.187h-.212l-.093-.118.387-.967.101-.278.36-1.01.128-.306-.211.164.211-.787.11-.53.164-.516.093-.633.212-.766.257.766s.074 1.055.11 1.118c.036.063.367 1.293.367 1.293l.403.705h-.238l.239.517.092.255s.02-.067.148.331l.129.399-.239-.188.239.777.211.246.239.977-3.503.01zM81.973 76.86l.163-.227v-.19l-.163.19.104-.432.118-.361.015-.152h-.163l-.074-.095.31-.776.08-.224.288-.812.1-.243-.178.133.177-.633.089-.422.133-.422.074-.502.162-.616.212.616s.059.844.088.899c.03.055.296 1.04.296 1.04l.325.567h-.192l.192.422.074.211s.015-.055.118.268l.103.32-.192-.151.192.633.163.198.192.785-2.806-.023z" fill="#006838"/><path d="M83.422 76.861h-.36s.039.795-.122 1.08h.604c-.162-.287-.122-1.08-.122-1.08z" fill="#6D574E"/><path d="M87.346 81.95l-.192-.269v-.223l.192.223-.122-.512-.14-.422-.017-.18h.193l.086-.111-.374-.922-.095-.266-.327-.96-.122-.291.21.156-.21-.749-.106-.502-.156-.492-.087-.592-.192-.728-.245.728s-.07.995-.105 1.055c-.036.059-.349 1.227-.349 1.227l-.384.671h.226l-.226.492-.087.242s-.016-.065-.139.315l-.122.38.228-.18-.228.736-.192.234-.226.927 3.308.012z" fill="#006838"/><path d="M85.633 81.95h.423s-.045.938.145 1.265h-.707c.184-.327.14-1.266.14-1.266z" fill="#6D574E"/><path d="M89.052 96.502l.175-.517h-.3l.475-1.293.4-1.23-.524.356.15-.873.236-.55.112-.648.1-.648v-.323h-.125l.099-.55.2-.551.224-.582.25-.583.175-.516c.118.396.258.785.422 1.164.141.24.266.488.374.745l.373.776v.158l-.15-.065.15.776s.125.226.175.357l.25.648v.162l-.275-.065s.224.613.275.744c.05.131.274.287.3.515.032.184.1.36.2.519.05.097.274.422.274.422v.162a3.692 3.692 0 00-.373-.065c-.074 0-.3-.194-.275-.097.026.097.4.844.4.844l.474.808h-4.241zm4.451-20.367l.108-.255h-.186l.296-.633.246-.608-.325.176.093-.422.148-.272.07-.319.061-.319v-.16h-.074l.061-.272.125-.272.14-.287.153-.287.108-.255c.075.197.163.39.264.576a2.8 2.8 0 01.232.367l.232.384v.08l-.093-.032.093.384c.04.056.076.115.108.175l.154.319v.08l-.17-.032s.139.304.17.367c.032.064.171.142.186.256a.632.632 0 00.125.257c.031.049.17.211.17.211v.08s-.185-.031-.232-.031c-.046 0-.185-.095-.17-.049.014.046.248.422.248.422l.296.399-2.637-.028z" fill="#006838"/><path d="M95.031 76.671a1.475 1.475 0 01-.063-.536h-.374c.012.181-.01.363-.063.536a1.78 1.78 0 01-.193.407h.885a1.78 1.78 0 01-.192-.407z" fill="#6D574E"/><path d="M89.914 76.842h.249l.264-.125v-.124l-.098-.441-.07-.405.168.158v-.158l-.083-.492-.014-.198-.161-.278h.258l-.258-.551-.148-.323-.152-.593-.027-.11.18.106-.18-.44-.222-.494-.097-.279-.211-.553-.182-.367-.333.918h.082a.845.845 0 01-.082.348.873.873 0 00-.097.266c-.028.07-.083.356-.083.356l.125.015-.194.496a.738.738 0 01-.112.21 3.15 3.15 0 00-.222.442h.237l-.237.46v.318l-.194.477.181.036-.181.371-.083.266a.535.535 0 00-.111.177 3.239 3.239 0 000 .371l.166.142h1.917l.005-.002z" fill="#006838"/><path d="M89.323 77.532c-.026-.23-.04-.46-.042-.69h-.315c-.002.23-.016.46-.042.69a.97.97 0 01-.085.306h.568a.97.97 0 01-.084-.306z" fill="#6D574E"/><path d="M74.58 80.76h-.276l-.283-.133V80.5l.106-.475.074-.434-.18.169v-.17l.089-.527.015-.21.17-.3h-.265l.276-.593.159-.346.162-.633.03-.118-.192.114.192-.475.238-.531.106-.3.224-.593.194-.394.359.987h-.089c.002.13.032.258.089.376.05.088.086.184.105.285.03.075.09.381.09.381l-.136.015.211.532a.794.794 0 00.12.227c.092.152.172.31.24.475h-.254l.253.494v.342l.211.512-.194.038.194.399.089.285a.573.573 0 01.12.19c.008.132.008.266 0 .398l-.18.152h-2.06l-.006-.012z" fill="#006838"/><path d="M75.215 81.502c.028-.246.042-.494.044-.742h.338c.001.248.016.495.044.742.012.114.043.225.09.33h-.61c.05-.105.081-.216.094-.33z" fill="#6D574E"/><path d="M69.894 78.251h-.234l-.243-.114v-.114l.088-.407.064-.373-.154.145v-.145l.076-.454.012-.183.148-.258h-.236l.236-.508.135-.298.14-.546.025-.101-.165.097.165-.407.211-.456.089-.255.192-.509.167-.337.308.843h-.076a.772.772 0 00.076.321.806.806 0 01.089.245c.025.065.076.327.076.327l-.117.013.18.455c.023.07.057.137.101.196.081.13.152.266.211.407h-.21l.21.422v.294l.18.439-.167.031.167.342.076.245c.045.046.08.102.103.162.007.114.007.228 0 .342l-.154.13h-1.767l-.002.009z" fill="#006838"/><path d="M70.436 78.886c.023-.21.036-.421.037-.633h.292c.001.212.014.423.038.633.01.097.037.192.078.28h-.524a.888.888 0 00.079-.28z" fill="#6D574E"/><path d="M81.155 81.327h.251l.266-.124v-.125l-.097-.443-.07-.407.167.158v-.158l-.084-.494-.015-.2-.16-.28h.257l-.257-.553-.148-.323-.152-.597-.028-.11.18.105-.18-.442-.223-.496-.097-.279-.212-.555-.181-.367-.336.922h.085a.842.842 0 01-.085.35.88.88 0 00-.097.266 4.305 4.305 0 00-.084.357l.124.015-.196.497a.745.745 0 01-.112.211c-.086.142-.161.29-.224.443h.236l-.236.462v.319l-.196.479.181.036-.181.373-.085.266a.534.534 0 00-.112.177 3.23 3.23 0 000 .374l.167.14h1.926l.008.003z" fill="#006838"/><path d="M80.564 82.021a6.516 6.516 0 01-.042-.694h-.306a6.516 6.516 0 01-.042.694.974.974 0 01-.085.308h.57a.97.97 0 01-.095-.308z" fill="#6D574E"/></g><circle cx="48" cy="48" r="47" stroke="#fff" stroke-width="2"/></svg>