<svg width="96" height="96" viewBox="0 0 96 96" fill="none" xmlns="http://www.w3.org/2000/svg" preserveAspectRatio="none"><circle cx="48" cy="48" r="47" fill="#fff" stroke="#fff" stroke-width="2"/><mask id="a" mask-type="alpha" maskUnits="userSpaceOnUse" x="0" y="0" width="96" height="96"><circle cx="48" cy="48" r="48" fill="#C07248"/></mask><g mask="url(#a)"><circle cx="48" cy="48" r="48" fill="#C07248"/><path d="M65 40.5c3.168-9.08 3.167-18.167 6.5-21.5 11.334-7.667 31-17.9 19 2.5-15 25.5-5 59.5-7.5 68S58 110 65 96s-7.5-34 0-55.5z" fill="#AD6848"/><path d="M54 20c-.97-4.498.864-18.901-2.572-24.732C32.835-9.73-15.819 2.585 7.001 20c38 29 39.368 71.315 55.947 82.721C89.448 120.951 55.213 25.622 54 20z" fill="#AD6848"/><path d="M-4 39.5c-2.348-2.844-8.153-18.488-13-21-15.177 4.559-42.064 38.713-19.989 36.51 27.594-2.754 57.936 75.6 84.989 69.485 27.686-6.257 25.088-18.021 12-29.995-19-8-40.668-26.742-64-55z" fill="#AD6848"/><path d="M44.763 25.993C24.832 21.57 12.719 19.54-6 25.993V3h84.604L92 22.16c-9.165 2.738-23.674 9.06-47.237 3.833z" fill="#9B5B43"/><path d="M44.763 22.993C24.832 18.57 12.719 16.54-6 22.993V0h84.604L92 19.16c-9.165 2.738-23.674 9.06-47.237 3.833z" fill="#62AA00"/><path d="M48.068 15.948c-19.313-3.24-31.017-4.581-48.624 2.543L-1.71-3.552 79.33-7.79 93.123 9.908c-8.642 3.084-22.222 9.872-45.055 6.04z" fill="#72C600"/><path d="M-12 58.154c13.667-3.333 36-12 65 0 29.984 12.407 46.667 3.333 58 0" stroke="#9B5B43" stroke-width="33"/><path d="M-12 58.154c13.667-3.333 36-12 65 0 29.984 12.407 46.667 3.333 58 0" stroke="#00CCE1" stroke-width="24"/><path d="M-12 69.154c13.667-3.333 36-12 65 0 29.984 12.407 46.667 3.333 58 0" stroke="#00BACD" stroke-width="4"/><circle cx="4.5" cy="47.5" r="2.5" fill="#7DEEFA"/><circle cx="36.5" cy="61.5" r="1.5" fill="#7DEEFA"/><circle cx="46.5" cy="63.5" r="1.5" fill="#7DEEFA"/><circle cx="91.5" cy="67.5" r="1.5" fill="#7DEEFA"/><circle cx="66" cy="56" r="2" fill="#7DEEFA"/><circle cx="1" cy="55" r="1" fill="#7DEEFA"/><circle cx="7" cy="53" r="1" fill="#7DEEFA"/><circle cx="42" cy="61" r="1" fill="#7DEEFA"/><circle cx="94" cy="71" r="1" fill="#7DEEFA"/><circle cx="88" cy="71" r="1" fill="#7DEEFA"/><circle cx="35" cy="57" r="1" fill="#7DEEFA"/><circle cx="30" cy="59" r="1" fill="#7DEEFA"/></g><circle cx="48" cy="48" r="47" stroke="#fff" stroke-width="2"/></svg>