<svg width="96" height="96" viewBox="0 0 96 96" fill="none" xmlns="http://www.w3.org/2000/svg" preserveAspectRatio="none"><circle cx="48" cy="48" r="47" fill="#fff" stroke="#fff" stroke-width="2"/><mask id="a" mask-type="alpha" maskUnits="userSpaceOnUse" x="0" y="0" width="96" height="96"><circle cx="48" cy="48" r="48" fill="#C07248"/></mask><g mask="url(#a)"><circle cx="48" cy="49" r="46" fill="#EAEDF2"/><g filter="url(#filter0_d)"><path fill="#D7DBE0" d="M23.905 15.413h48.921v65.714H23.905z"/></g><path fill="#006DC3" d="M23.905 15.413h48.921v19.714H23.905z"/><path fill="#fff" d="M29.747 22.714h37.238v52.571H29.747zM45.81 76.746h5.841v6.571H45.81z"/><path fill="#006DC3" d="M45.81 76.746H48v6.571h-2.19zm3.651 0h2.19v6.571h-2.19z"/><circle cx="48.731" cy="71.635" r="5.841" fill="#FA0"/><rect x="35.588" y="29.286" width="25.556" height="3.651" rx="1.825" fill="#D7DBE0"/><rect x="42.159" y="35.857" width="12.413" height="2.19" rx="1.095" fill="#D7DBE0"/><rect x="36.318" y="46.81" width="24.095" height="2.19" rx="1.095" fill="#D7DBE0"/><rect x="40.699" y="50.46" width="15.333" height="2.19" rx="1.095" fill="#D7DBE0"/><rect x="40.699" y="59.953" width="15.333" height="1.46" rx=".73" fill="#D7DBE0"/></g><circle cx="48" cy="48" r="47" stroke="#fff" stroke-width="2"/><defs><filter id="filter0_d" x="23.905" y="15.413" width="48.921" height="71.714" filterUnits="userSpaceOnUse" color-interpolation-filters="sRGB"><feFlood flood-opacity="0" result="BackgroundImageFix"/><feColorMatrix in="SourceAlpha" type="matrix" values="0 0 0 0 0 0 0 0 0 0 0 0 0 0 0 0 0 0 127 0"/><feMorphology radius="4" operator="erode" in="SourceAlpha" result="effect1_dropShadow"/><feOffset dy="10"/><feColorMatrix type="matrix" values="0 0 0 0 0 0 0 0 0 0 0 0 0 0 0 0 0 0 0.15 0"/><feBlend mode="normal" in2="BackgroundImageFix" result="effect1_dropShadow"/><feBlend mode="normal" in="SourceGraphic" in2="effect1_dropShadow" result="shape"/></filter></defs></svg>