<svg width="96" height="96" viewBox="0 0 96 96" fill="none" xmlns="http://www.w3.org/2000/svg" preserveAspectRatio="none"><circle cx="48" cy="48" r="47" fill="#fff" stroke="#fff" stroke-width="2"/><mask id="a" mask-type="alpha" maskUnits="userSpaceOnUse" x="0" y="0" width="96" height="96"><circle cx="48" cy="48" r="48" fill="#C07248"/></mask><g mask="url(#a)"><circle cx="48" cy="50" r="48" fill="#006DC3"/><ellipse cx="49.143" cy="79.333" rx="26.286" ry="2.667" fill="#005697"/><path fill="#D7DBE0" d="M16 24.857h65.524v44.952H16z"/><path fill="#fff" d="M20.571 28.667h56.381V66H20.571z"/><path fill="#838181" d="M38.857 69.809h20.571v5.333H38.857z"/><path fill="#D7DBE0" d="M32.762 75.143h32.762v3.048H32.762z"/><mask id="b" mask-type="alpha" maskUnits="userSpaceOnUse" x="24" y="34" width="21" height="21"><circle cx="34.286" cy="44.667" r="9.905" fill="#C4C4C4"/></mask><g mask="url(#b)"><circle cx="34.286" cy="44.667" r="9.905" fill="#EAEDF2"/><circle cx="34.286" cy="41.619" r="4.571" fill="#006DC3"/><path fill-rule="evenodd" clip-rule="evenodd" d="M26.668 52.28a7.827 7.827 0 0115.283-.004 11.046 11.046 0 01-7.643 3.057 11.046 11.046 0 01-7.64-3.053z" fill="#006DC3"/></g><path fill="#D7DBE0" d="M49.524 37.809h22.857v3.81H49.524zm0 6.858h22.857v3.81H49.524z"/><path fill="#006DC3" d="M49.524 52.286h13.714v3.81H49.524z"/></g><circle cx="48" cy="48" r="47" stroke="#fff" stroke-width="2"/></svg>