<svg width="96" height="96" viewBox="0 0 96 96" fill="none" xmlns="http://www.w3.org/2000/svg" preserveAspectRatio="none"><circle cx="48" cy="48" r="47" fill="#fff" stroke="#fff" stroke-width="2"/><mask id="a" mask-type="alpha" maskUnits="userSpaceOnUse" x="0" y="0" width="96" height="96"><circle cx="48" cy="48" r="48" fill="#C07248"/></mask><g mask="url(#a)"><path d="M202.465-3H29.298V98.691h173.167V-3z" fill="#CCA773"/><path d="M36.134 4.312a.489.489 0 01-.343-.14l-5.537-5.384a.493.493 0 11.688-.7l5.52 5.385a.492.492 0 01-.345.848l.017-.009zm-5.52 93.481a.493.493 0 01-.344-.847l5.52-5.385a.493.493 0 01.688.7l-5.52 5.384a.487.487 0 01-.344.148z" fill="#A46D54"/><path d="M34.202 3.147v89.397c0 .693.562 1.254 1.257 1.254h160.84c.694 0 1.257-.561 1.257-1.254V3.147c0-.692-.563-1.254-1.257-1.254H35.459c-.695 0-1.257.562-1.257 1.254z" fill="#425147"/><path d="M34.215 90.545h163.333v2.025a1.23 1.23 0 01-1.231 1.228H35.425a1.207 1.207 0 01-1.206-1.203v-2.05h-.004z" fill="#F0CF95"/><g opacity=".03" fill="#fff"><path opacity=".03" d="M167.286 23.927c-1.873-1.945-4.072-4.237-6.632-5.258-8.764-3.508-18.484-5.634-27.804-6.994-9.642-1.407-19.294-1.136-28.919.241-9.541 1.364-18.866 3.813-28.186 6.22-4.968 1.27-9.953 2.516-14.887 3.935l-6.827 1.961c-2.446.712-5.125 1.11-6.794 3.16-.514.628 3.304 3.894 4.021 3.996 5.006.707 10-.75 14.917-1.66 5.248-.975 10.462-2.072 15.68-3.178 9.635-2.042 19.269-4.237 29.018-5.669a102.49 102.49 0 0129.722-.11c5.001.767 9.952 1.826 14.827 3.173 4.866 1.31 9.571 3.182 14.437 4.457 1.214.322-2.374-4.088-2.573-4.274z"/><path opacity=".03" d="M185.209 16.8c-.755-.783-2.076-2.367-3.235-2.566-21.876-3.678-44.435-1.983-65.98 2.931a210.697 210.697 0 00-29.365 9.066c-4.764 1.851-9.456 3.88-14.093 6.024-4.637 2.144-10.05 4.173-14.105 7.287l-.026.45.225.885c.535 2.118 3.176 4.236 4.671 5.638 1.316 1.271 4.204 4.563 6.284 4.321 2.08-.241 4.403-2.118 6.242-3.088a237.772 237.772 0 016.794-3.474c4.547-2.254 9.18-4.342 13.859-6.308a244.255 244.255 0 0128.635-9.951 228.427 228.427 0 0130.474-6.24c10.267-1.411 20.581-2.034 30.898-2.911.659-.038-1.121-1.898-1.278-2.063zM137.33 56.26c-.807-.848-2.297-2.64-3.554-2.818-27.871-3.97-59.87-6.355-84.611 9.888-.956.606 9.112 11.671 11.566 11.489.726-.055 1.006.102 1.367-.538a.582.582 0 00.026-.076c10.785-6.567 22.712-10.507 35.178-12.472 13.656-2.157 27.621-2.233 41.391-3.186.764-.055-1.198-2.114-1.363-2.288z"/><path opacity=".03" d="M109.964 61.52c-1.032-.982-4.08-4.401-6.012-4.482h-.03a1.394 1.394 0 00-.425.043h.034c-.326.045-.645.13-.951.25l-4.586 1.296a34.014 34.014 0 00-7.923 3.203c-4.942 2.851-11.596 6.626-13.116 12.447-.327 1.245 4.475 5.803 5.711 5.672 5.754-.61 10.377-4.054 15.388-6.706 5.269-2.792 10.925-3.987 16.649-5.508.772-.199-4.48-5.969-4.739-6.214zM63.941 8.608a53.334 53.334 0 00-15.8 4.804c-2.122 1.042-3.99 2.571-5.748 4.118a33.676 33.676 0 00-2.467 2.465c-1.02 1.102-1.108 1.453-1.083 2.923.025 1.47 2.853 3.703 3.766 4.584 1.015.962 3.46 3.762 5.095 3.5 1.932-.31 3.232-2.66 4.616-4.025 1.698-1.657 3.609-2.966 5.52-4.338 4.02-2.89 8.25-5.063 11.715-8.69.64-.694-4.484-5.51-5.614-5.341z"/></g><g opacity=".03" fill="#fff"><path opacity=".03" d="M63.645 69.274c1.873 1.944 4.072 4.236 6.633 5.257 8.763 3.508 18.483 5.634 27.803 6.994 9.643 1.407 19.294 1.136 28.92-.241 9.541-1.364 18.865-3.813 28.185-6.22 4.968-1.27 9.953-2.516 14.887-3.935l6.793-1.961c2.467-.712 5.142-1.11 6.824-3.16.514-.628-3.304-3.894-4.021-3.996-5.006-.707-10 .75-14.917 1.661-5.248.974-10.462 2.072-15.68 3.177-9.635 2.042-19.269 4.237-29.018 5.669a102.488 102.488 0 01-29.722.11 129.063 129.063 0 01-14.79-3.186c-4.865-1.309-9.57-3.181-14.436-4.457-1.248-.305 2.34 4.08 2.54 4.288z"/><path opacity=".03" d="M45.723 76.4c.755.783 2.076 2.367 3.235 2.566 21.876 3.699 44.435 1.987 65.975-2.931a210.662 210.662 0 0029.366-9.083c4.764-1.851 9.456-3.88 14.093-6.024 4.636-2.144 10.05-4.173 14.105-7.287l.025-.449-.225-.885c-.535-2.119-3.176-4.237-4.67-5.64-1.317-1.27-4.204-4.562-6.284-4.32-2.081.241-4.404 2.118-6.242 3.088a237.392 237.392 0 01-6.794 3.474c-4.547 2.254-9.18 4.342-13.859 6.308a244.305 244.305 0 01-28.635 9.951 228.477 228.477 0 01-30.474 6.24c-10.267 1.411-20.58 2.034-30.899 2.911-.654.06 1.126 1.902 1.283 2.08z"/><path opacity=".03" d="M42.776 59.95c1.074 1.232 2.424 2.694 3.919 3.426 14.211 6.986 30.8 7.41 46.044 3.945a99.932 99.932 0 0020.033-7.054 109.204 109.204 0 009.74-5.266 111.44 111.44 0 004.671-2.965c1.473-.97 3.329-1.898 4.306-3.39.849-1.27-4.072-5.575-4.752-6.223-1.066-1.012-4.645-5.024-6.454-4.44-3.006.966-5.898 3.783-8.585 5.508a118.995 118.995 0 01-8.777 5.02 103.69 103.69 0 01-19.48 7.8 93.673 93.673 0 01-21.906 3.308c-6.611.27-13.006-1.165-19.553-1.381-.748-.009.696 1.601.794 1.711z"/><path opacity=".03" d="M93.601 36.945c.807.848 2.297 2.64 3.554 2.818 27.867 3.97 59.87 6.354 84.611-9.888.956-.627-9.133-11.672-11.566-11.49-.726.056-1.006-.101-1.367.539a.672.672 0 00-.026.076c-10.785 6.566-22.712 10.506-35.178 12.472-13.655 2.156-27.621 2.233-41.39 3.186-.765.046 1.197 2.114 1.362 2.287z"/><path opacity=".03" d="M48.176 44.372c-3.032.563-6.5 1.101-9.312 2.355-.424.182 4.072 4.783 5.028 4.99 14.3 3.148 30.304-.614 43.734-5.65a103.204 103.204 0 0036.465-23.45c1.083-1.071-9.43-12.238-11.592-11.014a161.642 161.642 0 01-14.831 7.367C96.942 16.526 88.182 7.612 86.3 8.692a109.284 109.284 0 01-19.634 8.787c-6.708 2.245-13.566 3.419-20.38 5.232-.642.17 2.865 4.202 2.972 4.33a39.89 39.89 0 003.821 3.503c-.993.356-1.996.699-3.002 1.012-.713.225 3.074 4.512 3.21 4.66a42.562 42.562 0 004.293 3.915 15.88 15.88 0 002.165 1.614c-.662.182-1.32.36-1.983.53-3.146.809-6.369 1.495-9.587 2.097z"/></g><path d="M79.673 41.033L60.723 59.78a.737.737 0 01-1.254-.524c0-.195.08-.381.218-.519L79.219 40.59a.323.323 0 01.424.461l.03-.017z" fill="#C57036"/><path d="M46.427 72.968l11.001-13.663.09-1.394a2.078 2.078 0 011.566-1.885l2.276-.58a2.979 2.979 0 012.93.89l.645.715a1.476 1.476 0 01-.348 2.258l-4.31 2.542-8.369 11.117h-5.481z" fill="#FFC182"/><path d="M42.074 50.468l-3.33-1.339 2.6 18.62 2.122 8.964a2.211 2.211 0 001.07 1.418 2.224 2.224 0 001.771.179 8.49 8.49 0 004.526-3.457l1.762-2.711-2.84-4.038-2.471 2.119-1.151-14.256a6.485 6.485 0 00-1.247-3.325 6.508 6.508 0 00-2.812-2.174z" fill="#005697"/><path d="M29.573 28.252a.565.565 0 01-.28-.072 8.71 8.71 0 00-5.223-.991.57.57 0 01-.632-.52.566.566 0 01.543-.611 9.9 9.9 0 015.868 1.135.568.568 0 01-.28 1.063l.004-.004zm6.167 0a.57.57 0 01-.527-.79.568.568 0 01.246-.273 9.904 9.904 0 015.868-1.136.57.57 0 01.527.602.562.562 0 01-.612.521 8.708 8.708 0 00-5.222.992.565.565 0 01-.28.084z" fill="#8D453B"/><path d="M18.122 42.088l26.419 4.3.335-11.192-.81-13.087-23.18-3.122L18.44 29.16l-.318 12.93z" fill="#BB4709"/><path d="M22.067 91.803a47.094 47.094 0 015.316-16.408l.492-.902-.144-4.686-5.448-8.587-.603 3.707-4.59-.936.59-6.444a9.44 9.44 0 012.039-5.045 9.473 9.473 0 014.487-3.089l4.735-1.525 6.131.16 6.68 2.755a4.192 4.192 0 012.607 3.732l.055 1.483 1.273 3.762a4.004 4.004 0 01-.382 3.36l-2.921 4.77.54 11.59.194 12.316-21.052-.013z" fill="#FFC182"/><path d="M17.817 104.101h2.925l.234-2.681a4.519 4.519 0 00-1.406-3.682l-.68-.64 3.453-31.641-4.95-.805-1.44 15.64-.777 21.073a2.637 2.637 0 002.64 2.736z" fill="#FFC182"/><path d="M21.986 92.392h21.71l-.208-12.93-.53-11.409 2.827-4.617a4.591 4.591 0 00.425-3.851l-1.215-3.699-.05-1.398a4.79 4.79 0 00-2.972-4.236l-6.794-2.78-6.319-.164-5.32 1.8a9.473 9.473 0 00-4.413 3.102 9.439 9.439 0 00-1.998 5.002l-.654 7.27-1.083 19.894 5.46.937 1.72-22.2 2.123 3.153a15.455 15.455 0 012.586 8.12l-.14.26a43.253 43.253 0 00-5.155 17.741v.005z" fill="#006DC3"/><path d="M14.607 79.047l-.064 5.33 6.31.936 2.182-5.419-8.428-.847z" fill="#CCEAEC"/><path d="M25.06 79.047a43.241 43.241 0 00-3.078 13.345l11.604.847 10.11-.847-.208-12.93C41 81.983 33.65 80.97 25.06 79.047z" fill="#693132"/><path d="M28.852 49.062c3.681 3.706 6.369 5.329 6.738 2.194v-8.342h-6.738v6.148z" fill="#FFC182"/><path d="M30.767 50.875c3.354 3.952 5.362 2.965 5.672.385l-.849-.385h-4.824z" fill="#CCEAEC"/><path d="M35.585 48.477V42.33h-6.73v4.393c1.618 1.114 3.8 2.144 6.73 1.754z" fill="#E19F68"/><path d="M46.05 32.68c.372-2.09-.477-3.986-1.895-4.237-1.418-.25-2.868 1.24-3.239 3.33-.37 2.09.478 3.987 1.896 4.237s2.868-1.24 3.239-3.33zm-23.284 3.336c1.418-.25 2.267-2.148 1.896-4.237-.371-2.09-1.821-3.58-3.239-3.33s-2.266 2.147-1.896 4.237c.371 2.09 1.821 3.58 3.239 3.33z" fill="#FFC182"/><path d="M22.085 19.932h21.417v13.81a10.67 10.67 0 01-3.134 7.553 10.72 10.72 0 01-11.667 2.321 10.709 10.709 0 01-5.8-5.783 10.663 10.663 0 01-.816-4.09V19.932zm.686 131.397h4.37l4.989-48.401 1.299-1.169-3.142 49.57 3.843 2.394 7.706-51.185 1.86-10.15H21.982l1.375 27.714-.62 9.176.034 22.051z" fill="#FFC182"/><path d="M22.83 127.906h6.722l2.578-24.978 1.299-1.169-1.656 26.147h6.246l3.817-25.368 1.86-10.15H21.982l1.375 27.714-.526 7.804z" fill="#E19F68"/><path d="M21.485 126.211l19.345-.847 2.297-19.382c.272-2.294.426-4.6.463-6.91l.106-6.68-10.432-2.966-11.282 2.966-.501 11.709.004 22.11z" fill="#693132"/><path d="M27.035 33.086c.666 0 1.206-.776 1.206-1.733 0-.957-.54-1.733-1.206-1.733-.666 0-1.206.776-1.206 1.733 0 .957.54 1.733 1.206 1.733zm11.647 0c.666 0 1.206-.776 1.206-1.733 0-.957-.54-1.733-1.206-1.733-.666 0-1.206.776-1.206 1.733 0 .957.54 1.733 1.206 1.733z" fill="#8D453B"/><path d="M20.912 47.308l1.41-11.265 2.411-15.378 6.904 2.669 11.286 3.558.56 5.592.689-1.14.683-2.927.192-.394a13.494 13.494 0 00-.336-12.349 8.574 8.574 0 00-2.988-3.152 8.6 8.6 0 00-4.154-1.287l-4.857-.212a10.675 10.675 0 00-5.226 1.113 10.646 10.646 0 00-4.026 3.504 4.542 4.542 0 00-4.195 2.81 50.008 50.008 0 00-3.737 20.397 8.367 8.367 0 002.641 5.872l2.743 2.589z" fill="#DB7422"/><path d="M40.971 27.6a2.703 2.703 0 00-1.698-1.627 2.621 2.621 0 00-2.476.741c-.45.568.319 1.386.815.814a2.024 2.024 0 011.63-.555c.557.093.943.597 1.398.881.153.102.407-.068.331-.254zm-16.624 0a2.703 2.703 0 011.698-1.627 2.621 2.621 0 012.476.741c.45.568-.319 1.386-.816.814a2.024 2.024 0 00-1.63-.555c-.556.093-.943.597-1.397.881-.157.102-.408-.068-.331-.254z" fill="#8D453B"/><path d="M30.58 56.806l-3.342-9.117 1.015-2.245 5.949 5.422-3.622 5.94z" fill="#CCEAEC"/><path opacity=".4" d="M28.916 35.128a3.945 3.945 0 01-1.75.652l-3.821-7.371a2.06 2.06 0 01.964-.237h1.019l3.588 6.956zm7.671-6.956h2.009l3.651 7.083c-.428.355-.967.55-1.524.55h-.28l-3.936-7.625.08-.008z" fill="#fff"/><path d="M41.352 28.159h-4.73a2.088 2.088 0 00-2.046 1.67c-.063.313-.053.636.029.944l.552 2.088a3.944 3.944 0 001.41 2.117 3.96 3.96 0 002.411.82h1.78a2.42 2.42 0 001.631-.633c.446-.407.723-.966.776-1.566l.25-3.173a2.077 2.077 0 00-1.227-2.086 2.09 2.09 0 00-.836-.181zm.82 5.35a1.423 1.423 0 01-1.432 1.305h-1.779a2.976 2.976 0 01-2.87-2.207l-.552-2.088a1.099 1.099 0 01.59-1.273c.154-.074.323-.11.493-.108h4.73a1.106 1.106 0 011.046.748c.049.145.067.298.053.45l-.28 3.174zm-11.069-4.837a2.545 2.545 0 00-2.042-1.005h-4.752a2.579 2.579 0 00-2.423 1.753 2.566 2.566 0 00-.124 1.048l.28 3.173a2.89 2.89 0 002.896 2.643h1.779a4.45 4.45 0 002.711-.92 4.435 4.435 0 001.586-2.38l.548-2.093a2.536 2.536 0 00-.459-2.22zm-.5 1.974l-.553 2.088a3.456 3.456 0 01-1.235 1.853 3.47 3.47 0 01-2.11.719h-1.771a1.917 1.917 0 01-1.898-1.75l-.28-3.173a1.59 1.59 0 011.553-1.733h4.764a1.6 1.6 0 011.563 1.279c.049.239.041.485-.021.72l-.013-.003z" fill="#512A25"/><path d="M45.263 28.184H20.326v.979h24.937v-.979z" fill="#512A25"/><path d="M35.349 37.538c-.242.064-.502.204-.676.255a5.533 5.533 0 01-2.87.034 5.339 5.339 0 01-.85-.306 3.331 3.331 0 00-.67-.326.425.425 0 00-.425.712c.752.746 1.699 1.53 2.815 1.623 1.24.105 2.187-.496 3.134-1.225a.467.467 0 00-.034-.767.57.57 0 00-.425 0z" fill="#E2455C"/><path d="M39.22 55.535l-3.88-3.737.25-5.867 1.194.432 2.437 9.172zm8.327 14.327l3.167-2.96 4.025 5.24-3.002 4.927-4.19-7.207z" fill="#CCEAEC"/></g><circle cx="48" cy="48" r="47" stroke="#fff" stroke-width="2"/></svg>