<svg width="217" height="48" viewBox="0 0 217 48" fill="none" xmlns="http://www.w3.org/2000/svg" preserveAspectRatio="none"><path d="M54.934 11.594c3.48 0 5.217 1.821 5.214 5.463v2.872c0 3.626-1.738 5.438-5.215 5.438H53.29v8.306h-3.486V11.594h5.13zm-1.644 3.154v7.5h1.653c1.146 0 1.719-.696 1.719-2.086V16.81c0-1.388-.573-2.082-1.719-2.082l-1.653.02zm8.2 2.151c0-1.77.454-3.138 1.364-4.104.91-.965 2.225-1.45 3.945-1.453 1.716 0 3.031.484 3.944 1.453.913.97 1.37 2.337 1.37 4.104v11.489c0 1.766-.457 3.134-1.37 4.103-.913.97-2.228 1.454-3.944 1.454-1.717 0-3.032-.485-3.945-1.454-.913-.969-1.368-2.337-1.365-4.103v-11.49zm3.486 11.711c0 1.454.604 2.18 1.813 2.18 1.208 0 1.813-.726 1.813-2.18V16.676c0-1.453-.605-2.18-1.813-2.18-1.209 0-1.813.727-1.813 2.18V28.61zm19.541-3.154v2.937c0 3.704-1.738 5.557-5.214 5.557-3.477 0-5.216-1.854-5.22-5.562v-11.49c0-3.704 1.738-5.556 5.215-5.556 3.476 0 5.216 1.852 5.22 5.557v2.145H81.21v-2.368c0-1.453-.604-2.18-1.813-2.18-1.208 0-1.813.727-1.813 2.18V28.61c0 1.43.605 2.146 1.813 2.146 1.209 0 1.813-.715 1.813-2.146v-3.154h3.307zm7.413-13.862c3.46 0 5.19 1.694 5.19 5.082v.791c0 2.274-.753 3.758-2.26 4.45 1.74.659 2.61 2.237 2.61 4.736v1.8c0 3.493-1.772 5.24-5.315 5.24h-5.493V11.594h5.269zm-1.782 3.154v5.844h1.37c1.4 0 2.101-.78 2.101-2.339v-1.23c0-1.517-.594-2.275-1.783-2.275h-1.688zm0 8.983v6.808h1.992c1.209 0 1.813-.727 1.813-2.18V26.43c0-1.011-.181-1.717-.543-2.116a2.204 2.204 0 00-1.703-.583h-1.56zm9.128-6.832c0-1.77.455-3.138 1.364-4.104.91-.965 2.227-1.45 3.95-1.453 1.716 0 3.031.484 3.944 1.453.913.97 1.37 2.337 1.37 4.104v11.489c0 1.766-.457 3.134-1.37 4.103-.913.97-2.228 1.454-3.944 1.454-1.717 0-3.032-.485-3.945-1.454-.913-.969-1.368-2.337-1.364-4.103l-.005-11.49zm3.486 11.711c0 1.454.604 2.18 1.813 2.18 1.208 0 1.813-.726 1.813-2.18V16.676c0-1.453-.605-2.18-1.813-2.18-1.209 0-1.813.727-1.813 2.18V28.61zm19.505 8.054v-2.967h-7.47v2.967h-3.402v-6.066h1.365c.578-.847.877-1.85.856-2.873l.797-16.136h9.797v19.009h1.529v6.066h-3.472zm-5.229-8.978c-.086 1.41-.418 2.39-.996 2.936h4.582V14.748h-2.959l-.627 12.938zm15.789-16.092c3.479 0 5.218 1.821 5.214 5.463v2.872c0 3.626-1.738 5.438-5.214 5.438h-1.654v8.306h-3.486V11.594h5.14zm-1.654 3.16v7.494h1.654c1.145 0 1.718-.696 1.718-2.086V16.81c0-1.388-.573-2.082-1.718-2.082l-1.654.025zm11.997 6.154h4.801v3.154h-4.801v6.477h6.041v3.154h-9.538V11.594h9.538v3.154h-6.041v6.16zm18.353 4.548v2.937c0 3.704-1.738 5.557-5.215 5.557-3.476 0-5.216-1.854-5.219-5.562v-11.49c0-3.704 1.738-5.556 5.214-5.556 3.477 0 5.215 1.852 5.215 5.557v2.145h-3.307v-2.368c0-1.453-.604-2.18-1.813-2.18-1.208 0-1.813.727-1.813 2.18V28.61c0 1.43.605 2.146 1.813 2.146 1.209 0 1.813-.715 1.813-2.146v-3.154h3.312zm9.89 2.616c-.445 2.145-1.109 3.619-1.992 4.42-1.053.968-2.741 1.38-5.066 1.235v-3.075c.71.097 1.432.01 2.097-.252a1.98 1.98 0 00.996-1.547l.035-.193-4.836-17.051h3.486l1.908 7.544 1.081 5.176.827-5.146 1.588-7.58h3.656l-3.78 16.469zm10.376-16.478c3.479 0 5.217 1.821 5.214 5.463v2.872c0 3.626-1.738 5.438-5.214 5.438h-1.654v8.306h-3.486V11.594h5.14zm-1.654 3.16v7.494h1.654c1.145 0 1.718-.696 1.718-2.086V16.81c0-1.388-.573-2.082-1.718-2.082l-1.654.025zm18.634 10.702v2.937c0 3.704-1.738 5.557-5.215 5.557-3.476 0-5.214-1.854-5.214-5.562v-11.49c0-3.704 1.738-5.556 5.214-5.556 3.477 0 5.215 1.852 5.215 5.557v2.145h-3.307v-2.368c0-1.453-.605-2.18-1.813-2.18-1.209 0-1.813.727-1.813 2.18V28.61c0 1.43.604 2.146 1.813 2.146 1.208 0 1.813-.715 1.813-2.146v-3.154h3.307zm2.129 8.237V11.594h3.486V19.9h1.653c3.48 0 5.218 1.82 5.215 5.462v2.868c0 3.642-1.738 5.454-5.215 5.438l-5.139.025zm5.154-3.154c1.146 0 1.719-.696 1.719-2.087V25.14c0-1.388-.573-2.081-1.719-2.081h-1.653v7.48h1.653zm7.222-18.945h3.486v22.099h-3.486V11.594zM3.418 17.492c-1.136-.188-2.256-.366-3.367-.589.086 1.288.27 2.567.553 3.827a73.366 73.366 0 0014.633.835c5.239-.301 10.32-1.265 15.354-2.224l9.045-1.72c.053-.568.086-1.136.1-1.706-5.733.988-12.81 2.595-18.383 3.025-6.6.495-11.456-.494-17.93-1.453m-.121 10.629c7.705-.84 14.583-2.828 23.907-3.807 2.958-.311 6.838 0 10.703.435.388-1.02.721-2.059.996-3.114-12.212.494-24.25 3.263-36.786 3.955.352.86.74 1.712 1.165 2.556M31.815 1.686a43.208 43.208 0 00-23.906 0L0 3.98v6.714c10.21 3.045 20.65 5.22 33.464 3.362 2.077-.302 4.228-.445 6.28-.762V3.98l-7.929-2.294zM20.64 28.235c-4.767.272-10.534.989-16.396 1.631 3.91 6.922 9.96 13.096 15.628 18.134 5.778-5.122 11.954-11.45 15.834-18.49-4.334-1.176-9.135-1.612-15.067-1.275z" fill="#074780"/></svg>